<?xml version="1.0" encoding="utf-8" standalone="no"?>
<!DOCTYPE svg PUBLIC "-//W3C//DTD SVG 1.1//EN"
  "http://www.w3.org/Graphics/SVG/1.1/DTD/svg11.dtd">
<!-- Created with matplotlib (https://matplotlib.org/) -->
<svg height="765.648pt" version="1.1" viewBox="0 0 1374.921854 765.648" width="1374.921854pt" xmlns="http://www.w3.org/2000/svg" xmlns:xlink="http://www.w3.org/1999/xlink">
 <metadata>
  <rdf:RDF xmlns:cc="http://creativecommons.org/ns#" xmlns:dc="http://purl.org/dc/elements/1.1/" xmlns:rdf="http://www.w3.org/1999/02/22-rdf-syntax-ns#">
   <cc:Work>
    <dc:type rdf:resource="http://purl.org/dc/dcmitype/StillImage"/>
    <dc:date>2020-11-25T14:25:46.723083</dc:date>
    <dc:format>image/svg+xml</dc:format>
    <dc:creator>
     <cc:Agent>
      <dc:title>Matplotlib v3.3.2, https://matplotlib.org/</dc:title>
     </cc:Agent>
    </dc:creator>
   </cc:Work>
  </rdf:RDF>
 </metadata>
 <defs>
  <style type="text/css">*{stroke-linecap:butt;stroke-linejoin:round;}</style>
 </defs>
 <g id="figure_1">
  <g id="patch_1">
   <path d="M 0 765.648 
L 1374.921854 765.648 
L 1374.921854 0 
L 0 0 
z
" style="fill:none;"/>
  </g>
  <g id="axes_1">
   <g id="patch_2">
    <path d="M 91.571875 642.216125 
L 1367.721854 642.216125 
L 1367.721854 55.163 
L 91.571875 55.163 
z
" style="fill:#ffffff;"/>
   </g>
   <g id="patch_3">
    <path clip-path="url(#p45281bc846)" d="M 149.578692 642.216125 
L 160.030371 642.216125 
L 160.030371 439.595802 
L 149.578692 439.595802 
z
" style="fill:#ffa500;"/>
   </g>
   <g id="patch_4">
    <path clip-path="url(#p45281bc846)" d="M 227.966283 642.216125 
L 238.417962 642.216125 
L 238.417962 451.480465 
L 227.966283 451.480465 
z
" style="fill:#ffa500;"/>
   </g>
   <g id="patch_5">
    <path clip-path="url(#p45281bc846)" d="M 280.224677 642.216125 
L 290.676356 642.216125 
L 290.676356 448.815325 
L 280.224677 448.815325 
z
" style="fill:#ffa500;"/>
   </g>
   <g id="patch_6">
    <path clip-path="url(#p45281bc846)" d="M 332.483071 642.216125 
L 342.93475 642.216125 
L 342.93475 461.505727 
L 332.483071 461.505727 
z
" style="fill:#ffa500;"/>
   </g>
   <g id="patch_7">
    <path clip-path="url(#p45281bc846)" d="M 345.547669 642.216125 
L 355.999348 642.216125 
L 355.999348 461.55996 
L 345.547669 461.55996 
z
" style="fill:#ffa500;"/>
   </g>
   <g id="patch_8">
    <path clip-path="url(#p45281bc846)" d="M 358.612268 642.216125 
L 369.063946 642.216125 
L 369.063946 460.792957 
L 358.612268 460.792957 
z
" style="fill:#ffa500;"/>
   </g>
   <g id="patch_9">
    <path clip-path="url(#p45281bc846)" d="M 371.676866 642.216125 
L 382.128545 642.216125 
L 382.128545 457.988363 
L 371.676866 457.988363 
z
" style="fill:#ffa500;"/>
   </g>
   <g id="patch_10">
    <path clip-path="url(#p45281bc846)" d="M 384.741465 642.216125 
L 395.193143 642.216125 
L 395.193143 456.950198 
L 384.741465 456.950198 
z
" style="fill:#ffa500;"/>
   </g>
   <g id="patch_11">
    <path clip-path="url(#p45281bc846)" d="M 423.93526 642.216125 
L 434.386939 642.216125 
L 434.386939 471.422525 
L 423.93526 471.422525 
z
" style="fill:#ffa500;"/>
   </g>
   <g id="patch_12">
    <path clip-path="url(#p45281bc846)" d="M 436.999859 642.216125 
L 447.451537 642.216125 
L 447.451537 472.437447 
L 436.999859 472.437447 
z
" style="fill:#ffa500;"/>
   </g>
   <g id="patch_13">
    <path clip-path="url(#p45281bc846)" d="M 450.064457 642.216125 
L 460.516136 642.216125 
L 460.516136 475.048354 
L 450.064457 475.048354 
z
" style="fill:#ffa500;"/>
   </g>
   <g id="patch_14">
    <path clip-path="url(#p45281bc846)" d="M 463.129055 642.216125 
L 473.580734 642.216125 
L 473.580734 481.618233 
L 463.129055 481.618233 
z
" style="fill:#ffa500;"/>
   </g>
   <g id="patch_15">
    <path clip-path="url(#p45281bc846)" d="M 476.193654 642.216125 
L 486.645333 642.216125 
L 486.645333 474.955384 
L 476.193654 474.955384 
z
" style="fill:#ffa500;"/>
   </g>
   <g id="patch_16">
    <path clip-path="url(#p45281bc846)" d="M 489.258252 642.216125 
L 499.709931 642.216125 
L 499.709931 486.840047 
L 489.258252 486.840047 
z
" style="fill:#ffa500;"/>
   </g>
   <g id="patch_17">
    <path clip-path="url(#p45281bc846)" d="M 502.322851 642.216125 
L 512.77453 642.216125 
L 512.77453 486.840047 
L 502.322851 486.840047 
z
" style="fill:#ffa500;"/>
   </g>
   <g id="patch_18">
    <path clip-path="url(#p45281bc846)" d="M 515.387449 642.216125 
L 525.839128 642.216125 
L 525.839128 484.903172 
L 515.387449 484.903172 
z
" style="fill:#ffa500;"/>
   </g>
   <g id="patch_19">
    <path clip-path="url(#p45281bc846)" d="M 528.452048 642.216125 
L 538.903727 642.216125 
L 538.903727 484.678495 
L 528.452048 484.678495 
z
" style="fill:#ffa500;"/>
   </g>
   <g id="patch_20">
    <path clip-path="url(#p45281bc846)" d="M 541.516646 642.216125 
L 551.968325 642.216125 
L 551.968325 479.828561 
L 541.516646 479.828561 
z
" style="fill:#ffa500;"/>
   </g>
   <g id="patch_21">
    <path clip-path="url(#p45281bc846)" d="M 554.581245 642.216125 
L 565.032924 642.216125 
L 565.032924 462.001567 
L 554.581245 462.001567 
z
" style="fill:#ffa500;"/>
   </g>
   <g id="patch_22">
    <path clip-path="url(#p45281bc846)" d="M 567.645843 642.216125 
L 578.097522 642.216125 
L 578.097522 454.099119 
L 567.645843 454.099119 
z
" style="fill:#ffa500;"/>
   </g>
   <g id="patch_23">
    <path clip-path="url(#p45281bc846)" d="M 580.710442 642.216125 
L 591.16212 642.216125 
L 591.16212 449.88448 
L 580.710442 449.88448 
z
" style="fill:#ffa500;"/>
   </g>
   <g id="patch_24">
    <path clip-path="url(#p45281bc846)" d="M 593.77504 642.216125 
L 604.226719 642.216125 
L 604.226719 438.588627 
L 593.77504 438.588627 
z
" style="fill:#ffa500;"/>
   </g>
   <g id="patch_25">
    <path clip-path="url(#p45281bc846)" d="M 606.839639 642.216125 
L 617.291317 642.216125 
L 617.291317 438.98375 
L 606.839639 438.98375 
z
" style="fill:#ffa500;"/>
   </g>
   <g id="patch_26">
    <path clip-path="url(#p45281bc846)" d="M 619.904237 642.216125 
L 630.355916 642.216125 
L 630.355916 429.206407 
L 619.904237 429.206407 
z
" style="fill:#ffa500;"/>
   </g>
   <g id="patch_27">
    <path clip-path="url(#p45281bc846)" d="M 632.968836 642.216125 
L 643.420514 642.216125 
L 643.420514 425.596073 
L 632.968836 425.596073 
z
" style="fill:#ffa500;"/>
   </g>
   <g id="patch_28">
    <path clip-path="url(#p45281bc846)" d="M 646.033434 642.216125 
L 656.485113 642.216125 
L 656.485113 399.982843 
L 646.033434 399.982843 
z
" style="fill:#ffa500;"/>
   </g>
   <g id="patch_29">
    <path clip-path="url(#p45281bc846)" d="M 659.098033 642.216125 
L 669.549711 642.216125 
L 669.549711 381.25714 
L 659.098033 381.25714 
z
" style="fill:#ffa500;"/>
   </g>
   <g id="patch_30">
    <path clip-path="url(#p45281bc846)" d="M 672.162631 642.216125 
L 682.61431 642.216125 
L 682.61431 365.274051 
L 672.162631 365.274051 
z
" style="fill:#ffa500;"/>
   </g>
   <g id="patch_31">
    <path clip-path="url(#p45281bc846)" d="M 685.227229 642.216125 
L 695.678908 642.216125 
L 695.678908 348.353515 
L 685.227229 348.353515 
z
" style="fill:#ffa500;"/>
   </g>
   <g id="patch_32">
    <path clip-path="url(#p45281bc846)" d="M 698.291828 642.216125 
L 708.743507 642.216125 
L 708.743507 347.68723 
L 698.291828 347.68723 
z
" style="fill:#ffa500;"/>
   </g>
   <g id="patch_33">
    <path clip-path="url(#p45281bc846)" d="M 711.356426 642.216125 
L 721.808105 642.216125 
L 721.808105 335.36096 
L 711.356426 335.36096 
z
" style="fill:#ffa500;"/>
   </g>
   <g id="patch_34">
    <path clip-path="url(#p45281bc846)" d="M 724.421025 642.216125 
L 734.872704 642.216125 
L 734.872704 326.978167 
L 724.421025 326.978167 
z
" style="fill:#ffa500;"/>
   </g>
   <g id="patch_35">
    <path clip-path="url(#p45281bc846)" d="M 737.485623 642.216125 
L 747.937302 642.216125 
L 747.937302 292.455315 
L 737.485623 292.455315 
z
" style="fill:#ffa500;"/>
   </g>
   <g id="patch_36">
    <path clip-path="url(#p45281bc846)" d="M 763.61482 642.216125 
L 774.066499 642.216125 
L 774.066499 271.490584 
L 763.61482 271.490584 
z
" style="fill:#ffa500;"/>
   </g>
   <g id="patch_37">
    <path clip-path="url(#p45281bc846)" d="M 776.679419 642.216125 
L 787.131098 642.216125 
L 787.131098 255.406778 
L 776.679419 255.406778 
z
" style="fill:#ffa500;"/>
   </g>
   <g id="patch_38">
    <path clip-path="url(#p45281bc846)" d="M 789.744017 642.216125 
L 800.195696 642.216125 
L 800.195696 237.316369 
L 789.744017 237.316369 
z
" style="fill:#ffa500;"/>
   </g>
   <g id="patch_39">
    <path clip-path="url(#p45281bc846)" d="M 802.808616 642.216125 
L 813.260294 642.216125 
L 813.260294 237.308622 
L 802.808616 237.308622 
z
" style="fill:#ffa500;"/>
   </g>
   <g id="patch_40">
    <path clip-path="url(#p45281bc846)" d="M 815.873214 642.216125 
L 826.324893 642.216125 
L 826.324893 244.475058 
L 815.873214 244.475058 
z
" style="fill:#ffa500;"/>
   </g>
   <g id="patch_41">
    <path clip-path="url(#p45281bc846)" d="M 828.937813 642.216125 
L 839.389491 642.216125 
L 839.389491 199.570558 
L 828.937813 199.570558 
z
" style="fill:#ffa500;"/>
   </g>
   <g id="patch_42">
    <path clip-path="url(#p45281bc846)" d="M 842.002411 642.216125 
L 852.45409 642.216125 
L 852.45409 178.590332 
L 842.002411 178.590332 
z
" style="fill:#ffa500;"/>
   </g>
   <g id="patch_43">
    <path clip-path="url(#p45281bc846)" d="M 855.06701 642.216125 
L 865.518688 642.216125 
L 865.518688 154.797765 
L 855.06701 154.797765 
z
" style="fill:#ffa500;"/>
   </g>
   <g id="patch_44">
    <path clip-path="url(#p45281bc846)" d="M 868.131608 642.216125 
L 878.583287 642.216125 
L 878.583287 154.797765 
L 868.131608 154.797765 
z
" style="fill:#ffa500;"/>
   </g>
   <g id="patch_45">
    <path clip-path="url(#p45281bc846)" d="M 881.196206 642.216125 
L 891.647885 642.216125 
L 891.647885 102.765566 
L 881.196206 102.765566 
z
" style="fill:#ffa500;"/>
   </g>
   <g id="patch_46">
    <path clip-path="url(#p45281bc846)" d="M 894.260805 642.216125 
L 904.712484 642.216125 
L 904.712484 125.930586 
L 894.260805 125.930586 
z
" style="fill:#ffa500;"/>
   </g>
   <g id="patch_47">
    <path clip-path="url(#p45281bc846)" d="M 907.325403 642.216125 
L 917.777082 642.216125 
L 917.777082 127.983673 
L 907.325403 127.983673 
z
" style="fill:#ffa500;"/>
   </g>
   <g id="patch_48">
    <path clip-path="url(#p45281bc846)" d="M 920.390002 642.216125 
L 930.841681 642.216125 
L 930.841681 114.526269 
L 920.390002 114.526269 
z
" style="fill:#ffa500;"/>
   </g>
   <g id="patch_49">
    <path clip-path="url(#p45281bc846)" d="M 933.4546 642.216125 
L 943.906279 642.216125 
L 943.906279 84.72939 
L 933.4546 84.72939 
z
" style="fill:#ffa500;"/>
   </g>
   <g id="patch_50">
    <path clip-path="url(#p45281bc846)" d="M 946.519199 642.216125 
L 956.970878 642.216125 
L 956.970878 83.117911 
L 946.519199 83.117911 
z
" style="fill:#ffa500;"/>
   </g>
   <g id="patch_51">
    <path clip-path="url(#p45281bc846)" d="M 959.583797 642.216125 
L 970.035476 642.216125 
L 970.035476 85.116765 
L 959.583797 85.116765 
z
" style="fill:#ffa500;"/>
   </g>
   <g id="patch_52">
    <path clip-path="url(#p45281bc846)" d="M 972.648396 642.216125 
L 983.100075 642.216125 
L 983.100075 105.709616 
L 972.648396 105.709616 
z
" style="fill:#ffa500;"/>
   </g>
   <g id="patch_53">
    <path clip-path="url(#p45281bc846)" d="M 985.712994 642.216125 
L 996.164673 642.216125 
L 996.164673 129.339486 
L 985.712994 129.339486 
z
" style="fill:#ffa500;"/>
   </g>
   <g id="patch_54">
    <path clip-path="url(#p45281bc846)" d="M 998.777593 642.216125 
L 1009.229271 642.216125 
L 1009.229271 147.677814 
L 998.777593 147.677814 
z
" style="fill:#ffa500;"/>
   </g>
   <g id="patch_55">
    <path clip-path="url(#p45281bc846)" d="M 1011.842191 642.216125 
L 1022.29387 642.216125 
L 1022.29387 153.782843 
L 1011.842191 153.782843 
z
" style="fill:#ffa500;"/>
   </g>
   <g id="patch_56">
    <path clip-path="url(#p45281bc846)" d="M 1024.90679 642.216125 
L 1035.358468 642.216125 
L 1035.358468 162.638233 
L 1024.90679 162.638233 
z
" style="fill:#ffa500;"/>
   </g>
   <g id="patch_57">
    <path clip-path="url(#p45281bc846)" d="M 1037.971388 642.216125 
L 1048.423067 642.216125 
L 1048.423067 171.757039 
L 1037.971388 171.757039 
z
" style="fill:#ffa500;"/>
   </g>
   <g id="patch_58">
    <path clip-path="url(#p45281bc846)" d="M 1051.035987 642.216125 
L 1061.487665 642.216125 
L 1061.487665 160.577399 
L 1051.035987 160.577399 
z
" style="fill:#ffa500;"/>
   </g>
   <g id="patch_59">
    <path clip-path="url(#p45281bc846)" d="M 1077.165184 642.216125 
L 1087.616862 642.216125 
L 1087.616862 229.049789 
L 1077.165184 229.049789 
z
" style="fill:#ffa500;"/>
   </g>
   <g id="patch_60">
    <path clip-path="url(#p45281bc846)" d="M 1090.229782 642.216125 
L 1100.681461 642.216125 
L 1100.681461 248.798162 
L 1090.229782 248.798162 
z
" style="fill:#ffa500;"/>
   </g>
   <g id="patch_61">
    <path clip-path="url(#p45281bc846)" d="M 1103.29438 642.216125 
L 1113.746059 642.216125 
L 1113.746059 295.972679 
L 1103.29438 295.972679 
z
" style="fill:#ffa500;"/>
   </g>
   <g id="patch_62">
    <path clip-path="url(#p45281bc846)" d="M 1116.358979 642.216125 
L 1126.810658 642.216125 
L 1126.810658 302.90669 
L 1116.358979 302.90669 
z
" style="fill:#ffa500;"/>
   </g>
   <g id="patch_63">
    <path clip-path="url(#p45281bc846)" d="M 1129.423577 642.216125 
L 1139.875256 642.216125 
L 1139.875256 353.606319 
L 1129.423577 353.606319 
z
" style="fill:#ffa500;"/>
   </g>
   <g id="patch_64">
    <path clip-path="url(#p45281bc846)" d="M 1142.488176 642.216125 
L 1152.939855 642.216125 
L 1152.939855 370.007772 
L 1142.488176 370.007772 
z
" style="fill:#ffa500;"/>
   </g>
   <g id="patch_65">
    <path clip-path="url(#p45281bc846)" d="M 1155.552774 642.216125 
L 1166.004453 642.216125 
L 1166.004453 388.043949 
L 1155.552774 388.043949 
z
" style="fill:#ffa500;"/>
   </g>
   <g id="patch_66">
    <path clip-path="url(#p45281bc846)" d="M 1168.617373 642.216125 
L 1179.069052 642.216125 
L 1179.069052 412.835943 
L 1168.617373 412.835943 
z
" style="fill:#ffa500;"/>
   </g>
   <g id="patch_67">
    <path clip-path="url(#p45281bc846)" d="M 1181.681971 642.216125 
L 1192.13365 642.216125 
L 1192.13365 465.061829 
L 1181.681971 465.061829 
z
" style="fill:#ffa500;"/>
   </g>
   <g id="patch_68">
    <path clip-path="url(#p45281bc846)" d="M 1194.74657 642.216125 
L 1205.198249 642.216125 
L 1205.198249 490.698301 
L 1194.74657 490.698301 
z
" style="fill:#ffa500;"/>
   </g>
   <g id="patch_69">
    <path clip-path="url(#p45281bc846)" d="M 1207.811168 642.216125 
L 1218.262847 642.216125 
L 1218.262847 503.768331 
L 1207.811168 503.768331 
z
" style="fill:#ffa500;"/>
   </g>
   <g id="patch_70">
    <path clip-path="url(#p45281bc846)" d="M 1220.875767 642.216125 
L 1231.327445 642.216125 
L 1231.327445 515.304355 
L 1220.875767 515.304355 
z
" style="fill:#ffa500;"/>
   </g>
   <g id="patch_71">
    <path clip-path="url(#p45281bc846)" d="M 1233.940365 642.216125 
L 1244.392044 642.216125 
L 1244.392044 519.53449 
L 1233.940365 519.53449 
z
" style="fill:#ffa500;"/>
   </g>
   <g id="patch_72">
    <path clip-path="url(#p45281bc846)" d="M 1247.004964 642.216125 
L 1257.456642 642.216125 
L 1257.456642 519.53449 
L 1247.004964 519.53449 
z
" style="fill:#ffa500;"/>
   </g>
   <g id="patch_73">
    <path clip-path="url(#p45281bc846)" d="M 1273.134161 642.216125 
L 1283.585839 642.216125 
L 1283.585839 544.682869 
L 1273.134161 544.682869 
z
" style="fill:#ffa500;"/>
   </g>
   <g id="patch_74">
    <path clip-path="url(#p45281bc846)" d="M 1286.198759 642.216125 
L 1296.650438 642.216125 
L 1296.650438 548.843276 
L 1286.198759 548.843276 
z
" style="fill:#ffa500;"/>
   </g>
   <g id="patch_75">
    <path clip-path="url(#p45281bc846)" d="M 1299.263358 642.216125 
L 1309.715036 642.216125 
L 1309.715036 555.699812 
L 1299.263358 555.699812 
z
" style="fill:#ffa500;"/>
   </g>
   <g id="matplotlib.axis_1">
    <g id="xtick_1">
     <g id="line2d_1">
      <defs>
       <path d="M 0 0 
L 0 3.5 
" id="m2e8787ddb5" style="stroke:#000000;stroke-width:0.8;"/>
      </defs>
      <g>
       <use style="stroke:#000000;stroke-width:0.8;" x="141.739933" xlink:href="#m2e8787ddb5" y="642.216125"/>
      </g>
     </g>
     <g id="text_1">
      <!--  -->
      <g transform="translate(141.739933 663.93175)scale(0.2 -0.2)"/>
      <!--  -->
      <g transform="translate(141.739933 686.337375)scale(0.2 -0.2)"/>
      <!--  -->
      <g transform="translate(141.739933 708.743)scale(0.2 -0.2)"/>
      <!-- Aug -->
      <g transform="translate(124.324308 731.148625)scale(0.2 -0.2)">
       <defs>
        <path d="M 36.8125 69.390625 
L 58.5 9.671875 
Q 59.71875 6.296875 60.71875 5.09375 
Q 61.71875 3.90625 63.578125 3.328125 
L 68.171875 1.953125 
L 68.265625 -0.140625 
Q 61.859375 0 56.390625 0 
Q 50.828125 0 43.265625 -0.140625 
L 43.0625 1.953125 
L 47.703125 3.328125 
Q 48.6875 3.65625 49.09375 4.078125 
Q 49.515625 4.5 49.515625 5.375 
Q 49.515625 6.34375 49 7.921875 
Q 48.484375 9.515625 47.5625 12.15625 
L 42.96875 25.25 
L 19.4375 25.25 
L 14.3125 12.203125 
Q 13.28125 9.46875 12.6875 7.859375 
Q 12.109375 6.25 12.109375 5.328125 
Q 12.109375 4.5 12.5625 4.078125 
Q 13.03125 3.65625 13.96875 3.375 
L 18.5 2.046875 
L 18.609375 -0.140625 
Q 11.671875 0 7.28125 0 
Q 2.875 0 -2.546875 -0.140625 
L -2.78125 1.953125 
L 2.15625 3.46875 
Q 4 4.046875 4.875 5.265625 
Q 5.765625 6.5 6.84375 9.078125 
L 31.78125 68.65625 
z
M 21.234375 29.6875 
L 41.359375 29.6875 
L 31.84375 56.59375 
z
" id="Constantia-65"/>
        <path d="M 38.875 4.296875 
Q 31.25 -1.375 23.640625 -1.375 
Q 15.96875 -1.375 12.125 2.53125 
Q 8.296875 6.453125 8.296875 13.53125 
L 8.296875 23.875 
Q 8.296875 34.328125 8.109375 39.546875 
L 1.609375 41.3125 
L 1.375 42.96875 
Q 9.90625 44.53125 17.1875 46.390625 
L 17.625 46.046875 
Q 17.328125 40.328125 17.328125 31.34375 
L 17.328125 15.828125 
Q 17.328125 9.90625 20.109375 7.25 
Q 22.90625 4.59375 27.984375 4.59375 
Q 33.0625 4.59375 38.375 7.28125 
L 38.375 28.078125 
Q 38.375 34.90625 38.1875 39.546875 
L 31.734375 41.3125 
L 31.5 42.96875 
Q 39.984375 44.53125 47.265625 46.390625 
L 47.703125 46.046875 
Q 47.40625 40.1875 47.40625 31.0625 
Q 47.40625 13.328125 47.515625 9.421875 
Q 47.5625 7.421875 47.796875 6.203125 
Q 48.046875 4.984375 48.734375 4.3125 
Q 49.421875 3.65625 50.75 3.390625 
Q 52.09375 3.125 54.34375 3.078125 
L 54.59375 1.171875 
Q 52.34375 0.296875 49.40625 -0.5 
Q 46.484375 -1.3125 45.40625 -1.3125 
Q 40.484375 -1.3125 38.875 4.296875 
z
" id="Constantia-117"/>
        <path d="M 14.015625 30.328125 
Q 14.015625 23.96875 16.578125 20.5 
Q 19.140625 17.046875 24.03125 17.046875 
Q 28.71875 17.046875 31.078125 20.28125 
Q 33.453125 23.53125 33.453125 29.78125 
Q 33.453125 35.796875 30.9375 39.25 
Q 28.421875 42.71875 23.4375 42.71875 
Q 18.75 42.71875 16.375 39.546875 
Q 14.015625 36.375 14.015625 30.328125 
z
M 13.375 -1.953125 
Q 10.0625 -6.9375 10.0625 -11.140625 
Q 10.0625 -15.4375 13.53125 -17.828125 
Q 17 -20.21875 22.953125 -20.21875 
Q 30.03125 -20.21875 35.34375 -17.0625 
Q 40.671875 -13.921875 40.671875 -8.25 
Q 40.671875 -5.171875 38.0625 -3.484375 
Q 35.453125 -1.8125 28.21875 -1.8125 
Q 25.640625 -1.8125 22.578125 -1.953125 
Q 19.53125 -2.09375 16.703125 -2.09375 
Q 15.140625 -2.09375 13.375 -1.953125 
z
M 38.875 40.234375 
Q 42.53125 36.1875 42.53125 30.5625 
Q 42.53125 22.703125 37.0625 18.03125 
Q 31.59375 13.375 23.34375 13.375 
Q 18.65625 13.375 14.9375 14.84375 
Q 12.3125 10.59375 12.3125 8.15625 
Q 12.3125 6.84375 13.640625 6.375 
Q 14.984375 5.90625 18.609375 5.90625 
Q 21.34375 5.90625 25 6.046875 
Q 28.65625 6.203125 31.84375 6.203125 
Q 39.59375 6.203125 44.109375 3.25 
Q 48.640625 0.296875 48.640625 -5.515625 
Q 48.640625 -14.3125 40.359375 -19.390625 
Q 32.078125 -24.46875 21.53125 -24.46875 
Q 12.890625 -24.46875 7.734375 -21.5625 
Q 2.59375 -18.65625 2.59375 -14.015625 
Q 2.59375 -8.40625 10.546875 -1.421875 
Q 5.515625 0.484375 5.515625 3.65625 
Q 5.515625 8.109375 12.5 16.0625 
Q 4.890625 20.703125 4.890625 29.5 
Q 4.890625 37.109375 10.28125 41.75 
Q 15.671875 46.390625 24.21875 46.390625 
Q 26.46875 46.390625 30.328125 45.796875 
Q 33.984375 45.125 36.03125 45.125 
Q 43.40625 45.125 49.609375 45.265625 
L 49.859375 43.265625 
z
" id="Constantia-103"/>
       </defs>
       <use xlink:href="#Constantia-65"/>
       <use x="66.431641" xlink:href="#Constantia-117"/>
       <use x="123.365234" xlink:href="#Constantia-103"/>
      </g>
      <!-- 2020 -->
      <g transform="translate(121.280558 753.701125)scale(0.2 -0.2)">
       <defs>
        <path d="M 42.390625 15.484375 
L 44.53125 15.875 
L 43.5625 0.203125 
L 43.21875 -0.140625 
Q 33.25 0 22.359375 0 
Q 12.25 0 3.765625 -0.140625 
L 3.421875 3.859375 
Q 8.015625 6.84375 11.671875 9.375 
Q 15.328125 11.921875 18.015625 14.109375 
Q 20.703125 16.265625 22.75 18.21875 
Q 24.8125 20.171875 26.203125 22.09375 
Q 27.59375 24.03125 28.3125 26.03125 
Q 29.046875 28.03125 29.046875 30.21875 
Q 29.046875 34.71875 25.78125 37.34375 
Q 22.515625 39.984375 17.78125 39.984375 
Q 12.203125 39.984375 6.546875 36.96875 
L 4.6875 40.1875 
Q 13.8125 46.390625 23 46.390625 
Q 29.890625 46.390625 34.453125 43.046875 
Q 39.015625 39.703125 39.015625 33.734375 
Q 39.015625 30.03125 37.34375 26.828125 
Q 35.6875 23.640625 32.515625 20.5625 
Q 29.34375 17.484375 24.75 14.328125 
Q 20.171875 11.1875 14.265625 7.671875 
L 14.3125 7.421875 
L 38.578125 7.421875 
z
" id="Constantia-50"/>
        <path d="M 13.671875 23.296875 
Q 13.671875 13.625 17.15625 8.109375 
Q 20.65625 2.59375 27.203125 2.59375 
Q 33.84375 2.59375 37.015625 7.515625 
Q 40.1875 12.453125 40.1875 22.609375 
Q 40.1875 32.5625 36.71875 37.609375 
Q 33.25 42.671875 26.65625 42.671875 
Q 19.921875 42.671875 16.796875 37.84375 
Q 13.671875 33.015625 13.671875 23.296875 
z
M 49.953125 23.6875 
Q 49.953125 12.25 43.4375 5.484375 
Q 36.921875 -1.265625 26.421875 -1.265625 
Q 16.3125 -1.265625 10.109375 4.9375 
Q 3.90625 11.140625 3.90625 22.015625 
Q 3.90625 33.203125 10.390625 39.796875 
Q 16.890625 46.390625 27.484375 46.390625 
Q 37.796875 46.390625 43.875 40.375 
Q 49.953125 34.375 49.953125 23.6875 
z
" id="Constantia-48"/>
       </defs>
       <use xlink:href="#Constantia-50"/>
       <use x="48.4375" xlink:href="#Constantia-48"/>
       <use x="102.294922" xlink:href="#Constantia-50"/>
       <use x="150.732422" xlink:href="#Constantia-48"/>
      </g>
     </g>
    </g>
    <g id="xtick_2">
     <g id="line2d_2">
      <g>
       <use style="stroke:#000000;stroke-width:0.8;" x="546.742486" xlink:href="#m2e8787ddb5" y="642.216125"/>
      </g>
     </g>
     <g id="text_2">
      <!--  -->
      <g transform="translate(546.742486 663.93175)scale(0.2 -0.2)"/>
      <!--  -->
      <g transform="translate(546.742486 686.337375)scale(0.2 -0.2)"/>
      <!--  -->
      <g transform="translate(546.742486 708.743)scale(0.2 -0.2)"/>
      <!-- Sep -->
      <g transform="translate(531.258111 731.148625)scale(0.2 -0.2)">
       <defs>
        <path d="M 37.109375 63.921875 
Q 31.984375 65.625 27.6875 65.625 
Q 21.234375 65.625 17.40625 62.5 
Q 13.578125 59.375 13.578125 53.8125 
Q 13.578125 50.640625 14.921875 48.234375 
Q 16.265625 45.84375 18.53125 44.03125 
Q 20.796875 42.234375 23.671875 40.8125 
Q 26.5625 39.40625 29.640625 38.03125 
Q 33.015625 36.578125 36.1875 34.9375 
Q 39.359375 33.296875 41.921875 31.09375 
Q 44.484375 28.90625 46.015625 25.828125 
Q 47.5625 22.75 47.5625 18.65625 
Q 47.5625 8.9375 40.75 3.8125 
Q 33.9375 -1.3125 21.875 -1.3125 
Q 14.109375 -1.3125 4.6875 1.3125 
L 4.390625 1.703125 
L 6.78125 18.3125 
L 8.984375 18.65625 
L 12.40625 4.78125 
Q 17.578125 2.734375 23 2.734375 
Q 30.28125 2.734375 34.34375 5.953125 
Q 38.421875 9.1875 38.421875 15.140625 
Q 38.421875 18.265625 37.109375 20.625 
Q 35.796875 23 33.5625 24.703125 
Q 31.34375 26.421875 28.515625 27.8125 
Q 25.6875 29.203125 22.65625 30.5625 
Q 19.234375 32.03125 16.015625 33.734375 
Q 12.796875 35.453125 10.171875 37.71875 
Q 7.5625 39.984375 6 43.28125 
Q 4.4375 46.578125 4.4375 50.984375 
Q 4.4375 59.8125 11.046875 64.640625 
Q 17.671875 69.484375 28.609375 69.484375 
Q 36.328125 69.484375 44.78125 67.671875 
L 45.125 67.328125 
L 42.234375 52.09375 
L 40.28125 51.765625 
z
" id="Constantia-83"/>
        <path d="M 44.046875 3.46875 
Q 39.890625 0.875 35.5 -0.25 
Q 31.109375 -1.375 27.34375 -1.375 
Q 16.609375 -1.375 10.203125 4.75 
Q 3.8125 10.890625 3.8125 21.78125 
Q 3.8125 32.625 9.9375 39.5 
Q 16.0625 46.390625 26.3125 46.390625 
Q 34.90625 46.390625 39.6875 41.234375 
Q 44.484375 36.078125 44.484375 27 
Q 44.484375 25.640625 44.34375 24.21875 
L 13.375 24.21875 
Q 13.375 13.71875 18.3125 9.203125 
Q 23.25 4.6875 33.734375 4.6875 
Q 38.421875 4.6875 43.75 5.5625 
z
M 34.765625 28.265625 
L 34.765625 29.734375 
Q 34.765625 36.671875 32.546875 39.640625 
Q 30.328125 42.625 25.921875 42.625 
Q 20.125 42.625 17.046875 38.421875 
Q 13.96875 34.234375 13.578125 28.265625 
z
" id="Constantia-101"/>
        <path d="M 2.09375 41.3125 
L 1.859375 42.96875 
Q 10.0625 44.53125 17.328125 46.390625 
L 17.828125 46.046875 
L 17.828125 41.265625 
Q 25.296875 46.390625 32.28125 46.390625 
Q 41.359375 46.390625 46.703125 40.3125 
Q 52.046875 34.234375 52.046875 24.515625 
Q 52.046875 12.546875 45.15625 5.578125 
Q 38.28125 -1.375 25.640625 -1.375 
Q 21.875 -1.375 17.828125 -0.640625 
L 17.828125 -11.328125 
Q 17.828125 -16.21875 17.921875 -18.171875 
Q 18.015625 -19.625 19.234375 -19.921875 
L 25.640625 -21.734375 
L 25.78125 -23.734375 
Q 18.171875 -23.578125 13.375 -23.578125 
Q 8.59375 -23.578125 2.046875 -23.734375 
L 1.859375 -21.734375 
L 7.46875 -20.0625 
Q 8.640625 -19.734375 8.6875 -18.5625 
Q 8.796875 -14.984375 8.796875 -7.765625 
L 8.796875 12.109375 
Q 8.796875 33.734375 8.59375 39.453125 
z
M 17.828125 3.765625 
Q 22.078125 2.828125 26.03125 2.828125 
Q 34.125 2.828125 38.21875 7.90625 
Q 42.328125 12.984375 42.328125 22.46875 
Q 42.328125 31.390625 38.421875 35.9375 
Q 34.515625 40.484375 27.203125 40.484375 
Q 21.921875 40.484375 17.828125 38.328125 
z
" id="Constantia-112"/>
       </defs>
       <use xlink:href="#Constantia-83"/>
       <use x="50.976562" xlink:href="#Constantia-101"/>
       <use x="98.876953" xlink:href="#Constantia-112"/>
      </g>
      <!-- 2020 -->
      <g transform="translate(526.283111 753.55425)scale(0.2 -0.2)">
       <use xlink:href="#Constantia-50"/>
       <use x="48.4375" xlink:href="#Constantia-48"/>
       <use x="102.294922" xlink:href="#Constantia-50"/>
       <use x="150.732422" xlink:href="#Constantia-48"/>
      </g>
     </g>
    </g>
    <g id="xtick_3">
     <g id="line2d_3">
      <g>
       <use style="stroke:#000000;stroke-width:0.8;" x="938.68044" xlink:href="#m2e8787ddb5" y="642.216125"/>
      </g>
     </g>
     <g id="text_3">
      <!--  -->
      <g transform="translate(938.68044 663.93175)scale(0.2 -0.2)"/>
      <!--  -->
      <g transform="translate(938.68044 686.337375)scale(0.2 -0.2)"/>
      <!--  -->
      <g transform="translate(938.68044 708.743)scale(0.2 -0.2)"/>
      <!-- Oct -->
      <g transform="translate(922.494502 731.148625)scale(0.2 -0.2)">
       <defs>
        <path d="M 15.578125 35.015625 
Q 15.578125 19.09375 22.015625 10.625 
Q 28.46875 2.15625 40.921875 2.15625 
Q 53.171875 2.15625 59 9.84375 
Q 64.84375 17.53125 64.84375 33.984375 
Q 64.84375 49.421875 58.640625 57.71875 
Q 52.4375 66.015625 39.5 66.015625 
Q 26.953125 66.015625 21.265625 58.328125 
Q 15.578125 50.640625 15.578125 35.015625 
z
M 75.59375 35.640625 
Q 75.59375 18.75 65.984375 8.46875 
Q 56.390625 -1.8125 39.15625 -1.8125 
Q 22.796875 -1.8125 13.84375 7.6875 
Q 4.890625 17.1875 4.890625 33.40625 
Q 4.890625 50.296875 14.53125 60.125 
Q 24.171875 69.96875 41.265625 69.96875 
Q 57.671875 69.96875 66.625 60.765625 
Q 75.59375 51.5625 75.59375 35.640625 
z
" id="Constantia-79"/>
        <path d="M 42.96875 3.46875 
Q 39.9375 1.421875 35.46875 0.015625 
Q 31 -1.375 26.609375 -1.375 
Q 16.0625 -1.375 9.90625 4.796875 
Q 3.765625 10.984375 3.765625 21.296875 
Q 3.765625 32.46875 10.734375 39.421875 
Q 17.71875 46.390625 28.8125 46.390625 
Q 35.984375 46.390625 42.71875 43.453125 
Q 41.109375 36.921875 39.84375 30.078125 
L 37.9375 29.78125 
L 33.984375 41.5 
Q 31.734375 42.28125 28.90625 42.28125 
Q 21.625 42.28125 17.515625 37.203125 
Q 13.421875 32.125 13.421875 23.78125 
Q 13.421875 13.96875 18.0625 9.28125 
Q 22.703125 4.59375 32.765625 4.59375 
Q 37.40625 4.59375 42.671875 5.515625 
z
" id="Constantia-99"/>
        <path d="M 17.484375 39.9375 
Q 17.1875 23.4375 17.1875 13.328125 
Q 17.1875 8.25 18.703125 6.3125 
Q 20.21875 4.390625 24.46875 4.390625 
Q 27.828125 4.390625 33.25 5.28125 
L 33.546875 3.078125 
Q 25.09375 -1.171875 18.453125 -1.171875 
Q 13.140625 -1.171875 10.546875 1.6875 
Q 7.953125 4.546875 7.953125 10.296875 
Q 7.953125 19.78125 8.296875 40.234375 
L 1.5625 41.890625 
L 1.265625 43.890625 
L 8.796875 44.53125 
L 12.15625 56.34375 
Q 14.890625 57.078125 17.140625 57.765625 
L 17.625 57.421875 
Q 17.484375 51.515625 17.484375 46.390625 
L 17.484375 44.578125 
L 32.171875 44.578125 
L 32.171875 39.9375 
z
" id="Constantia-116"/>
       </defs>
       <use xlink:href="#Constantia-79"/>
       <use x="80.419922" xlink:href="#Constantia-99"/>
       <use x="126.5625" xlink:href="#Constantia-116"/>
      </g>
      <!-- 2020 -->
      <g transform="translate(918.221065 753.55425)scale(0.2 -0.2)">
       <use xlink:href="#Constantia-50"/>
       <use x="48.4375" xlink:href="#Constantia-48"/>
       <use x="102.294922" xlink:href="#Constantia-50"/>
       <use x="150.732422" xlink:href="#Constantia-48"/>
      </g>
     </g>
    </g>
    <g id="xtick_4">
     <g id="line2d_4">
      <g>
       <use style="stroke:#000000;stroke-width:0.8;" x="1343.682992" xlink:href="#m2e8787ddb5" y="642.216125"/>
      </g>
     </g>
     <g id="text_4">
      <!--  -->
      <g transform="translate(1343.682992 663.93175)scale(0.2 -0.2)"/>
      <!--  -->
      <g transform="translate(1343.682992 686.337375)scale(0.2 -0.2)"/>
      <!--  -->
      <g transform="translate(1343.682992 708.743)scale(0.2 -0.2)"/>
      <!-- Nov -->
      <g transform="translate(1326.107992 731.148625)scale(0.2 -0.2)">
       <defs>
        <path d="M 16.65625 54.4375 
L 16.65625 14.984375 
Q 16.65625 9.234375 16.75 5.421875 
Q 16.796875 4.046875 17.96875 3.765625 
L 23.78125 2.046875 
L 23.875 -0.140625 
Q 17.78125 0 13.875 0 
Q 10.0625 0 3.765625 -0.140625 
L 3.5625 1.953125 
L 9.578125 3.765625 
Q 10.84375 4.15625 10.890625 5.28125 
Q 10.984375 9.234375 10.984375 14.984375 
L 10.984375 54.59375 
Q 10.984375 59.46875 10.890625 62.703125 
Q 10.84375 63.96875 9.71875 64.359375 
L 3.65625 66.265625 
L 3.5625 68.359375 
Q 9.859375 68.171875 13.53125 68.171875 
Q 15.71875 68.171875 17.96875 68.359375 
L 58.984375 17.140625 
L 58.984375 54.78125 
Q 58.984375 59.515625 58.890625 62.9375 
Q 58.84375 64.0625 57.625 64.453125 
L 51.859375 66.109375 
L 51.765625 68.359375 
Q 58.015625 68.171875 61.859375 68.171875 
Q 65.765625 68.171875 71.875 68.359375 
L 72.078125 66.265625 
L 65.921875 64.359375 
Q 64.796875 63.96875 64.75 62.703125 
Q 64.65625 59.46875 64.65625 54.59375 
L 64.65625 0 
L 60.546875 -0.390625 
z
" id="Constantia-78"/>
        <path d="M 13.71875 23.046875 
Q 13.71875 13.921875 17.140625 8.171875 
Q 20.5625 2.4375 27.296875 2.4375 
Q 33.59375 2.4375 36.890625 7.484375 
Q 40.1875 12.546875 40.1875 22.46875 
Q 40.1875 31.78125 36.71875 37.15625 
Q 33.25 42.53125 26.65625 42.53125 
Q 20.40625 42.53125 17.0625 37.6875 
Q 13.71875 32.859375 13.71875 23.046875 
z
M 50.140625 23.484375 
Q 50.140625 12.359375 43.421875 5.484375 
Q 36.71875 -1.375 26.375 -1.375 
Q 16.265625 -1.375 10.03125 5.09375 
Q 3.8125 11.578125 3.8125 22.015625 
Q 3.8125 32.765625 10.328125 39.578125 
Q 16.84375 46.390625 27.59375 46.390625 
Q 37.75 46.390625 43.9375 40.109375 
Q 50.140625 33.84375 50.140625 23.484375 
z
" id="Constantia-111"/>
        <path d="M -1.515625 45.265625 
Q 4.640625 45.125 9.421875 45.125 
Q 13.8125 45.125 19.96875 45.265625 
L 20.171875 43.265625 
L 14.5 41.703125 
Q 18.5 30.328125 23.78125 17.53125 
Q 25.140625 14.15625 26.21875 11.078125 
Q 27.296875 14.15625 28.71875 17.484375 
Q 33.15625 28.421875 38.03125 41.703125 
L 32.46875 43.265625 
L 32.28125 45.265625 
Q 36.234375 45.125 40.53125 45.125 
Q 44.921875 45.125 49.03125 45.265625 
L 49.21875 43.265625 
L 44.34375 41.84375 
Q 43.21875 41.453125 42.4375 39.9375 
Q 38.578125 31 33.46875 18.671875 
Q 28.375 6.34375 25.78125 -0.34375 
L 21.625 -0.78125 
Q 18.953125 6.296875 13.890625 18.59375 
Q 8.84375 30.90625 5.21875 39.703125 
Q 4.4375 41.40625 3.078125 41.890625 
L -1.421875 43.265625 
z
" id="Constantia-118"/>
       </defs>
       <use xlink:href="#Constantia-78"/>
       <use x="73.402344" xlink:href="#Constantia-111"/>
       <use x="127.455078" xlink:href="#Constantia-118"/>
      </g>
      <!-- 2020 -->
      <g transform="translate(1323.223617 753.55425)scale(0.2 -0.2)">
       <use xlink:href="#Constantia-50"/>
       <use x="48.4375" xlink:href="#Constantia-48"/>
       <use x="102.294922" xlink:href="#Constantia-50"/>
       <use x="150.732422" xlink:href="#Constantia-48"/>
      </g>
     </g>
    </g>
    <g id="xtick_5">
     <g id="line2d_5">
      <path clip-path="url(#p45281bc846)" d="M 154.804532 642.216125 
L 154.804532 55.163 
" style="fill:none;stroke:#b0b0b0;stroke-linecap:square;stroke-width:0.8;"/>
     </g>
     <g id="line2d_6">
      <defs>
       <path d="M 0 0 
L 0 2 
" id="me9401f2019" style="stroke:#000000;stroke-width:0.6;"/>
      </defs>
      <g>
       <use style="stroke:#000000;stroke-width:0.6;" x="154.804532" xlink:href="#me9401f2019" y="642.216125"/>
      </g>
     </g>
     <g id="text_5">
      <!-- 02 -->
      <g transform="translate(145.597813 660.860188)scale(0.18 -0.18)">
       <use xlink:href="#Constantia-48"/>
       <use x="53.857422" xlink:href="#Constantia-50"/>
      </g>
      <!-- Sun -->
      <g transform="translate(139.853282 681.02525)scale(0.18 -0.18)">
       <defs>
        <path d="M 2.828125 42.96875 
Q 11.03125 44.53125 18.3125 46.390625 
L 18.796875 46.046875 
L 18.796875 40.375 
Q 27.296875 46.390625 34.625 46.390625 
Q 41.546875 46.390625 45.484375 42.5 
Q 49.421875 38.625 49.421875 31.5 
L 49.421875 14.265625 
Q 49.421875 8.15625 49.515625 5.21875 
Q 49.5625 3.90625 50.78125 3.515625 
L 56.203125 1.859375 
L 56.296875 -0.140625 
Q 49.859375 0 45.0625 0 
Q 40.28125 0 34.421875 -0.140625 
L 34.234375 1.859375 
L 39.109375 3.265625 
Q 40.234375 3.65625 40.328125 4.78125 
Q 40.375 5.46875 40.375 7.859375 
L 40.375 29.15625 
Q 40.375 35.15625 37.5 37.765625 
Q 34.625 40.375 29 40.375 
Q 24.078125 40.375 18.796875 37.546875 
L 18.796875 16.21875 
Q 18.796875 10.109375 18.890625 5.03125 
Q 18.953125 3.71875 20.015625 3.375 
L 25.09375 1.859375 
L 25.203125 -0.140625 
Q 19.140625 0 14.359375 0 
Q 9.578125 0 3.03125 -0.140625 
L 2.828125 1.859375 
L 8.59375 3.515625 
Q 9.671875 3.953125 9.71875 5.03125 
Q 9.765625 8.15625 9.765625 11.03125 
L 9.765625 27.6875 
Q 9.765625 34.078125 9.578125 39.546875 
L 3.078125 41.3125 
z
" id="Constantia-110"/>
       </defs>
       <use xlink:href="#Constantia-83"/>
       <use x="50.976562" xlink:href="#Constantia-117"/>
       <use x="107.910156" xlink:href="#Constantia-110"/>
      </g>
     </g>
    </g>
    <g id="xtick_6">
     <g id="line2d_7">
      <path clip-path="url(#p45281bc846)" d="M 246.256721 642.216125 
L 246.256721 55.163 
" style="fill:none;stroke:#b0b0b0;stroke-linecap:square;stroke-width:0.8;"/>
     </g>
     <g id="line2d_8">
      <g>
       <use style="stroke:#000000;stroke-width:0.6;" x="246.256721" xlink:href="#me9401f2019" y="642.216125"/>
      </g>
     </g>
     <g id="text_6">
      <!-- 09 -->
      <g transform="translate(236.491721 660.860188)scale(0.18 -0.18)">
       <defs>
        <path d="M 8.640625 -19 
Q 20.90625 -16.796875 28.984375 -9.671875 
Q 37.0625 -2.546875 40.375 10.109375 
L 40.28125 10.15625 
Q 34.578125 3.65625 25.4375 3.65625 
Q 16.3125 3.65625 10.234375 9.484375 
Q 4.15625 15.328125 4.15625 24.3125 
Q 4.15625 33.6875 10.796875 40.03125 
Q 17.4375 46.390625 27.046875 46.390625 
Q 37.546875 46.390625 44.265625 38.75 
Q 50.984375 31.109375 50.984375 19.1875 
Q 50.984375 2.828125 39.578125 -8.59375 
Q 28.171875 -20.015625 9.328125 -22.46875 
z
M 14.0625 27.25 
Q 14.0625 18.5625 18.015625 13.28125 
Q 21.96875 8.015625 28.125 8.015625 
Q 34.234375 8.015625 37.453125 11.9375 
Q 40.671875 15.875 40.671875 22.90625 
Q 40.671875 31.453125 36.421875 37.15625 
Q 32.171875 42.875 26.21875 42.875 
Q 20.953125 42.875 17.5 38.640625 
Q 14.0625 34.421875 14.0625 27.25 
z
" id="Constantia-57"/>
       </defs>
       <use xlink:href="#Constantia-48"/>
       <use x="53.857422" xlink:href="#Constantia-57"/>
      </g>
      <!-- Sun -->
      <g transform="translate(231.305471 681.02525)scale(0.18 -0.18)">
       <use xlink:href="#Constantia-83"/>
       <use x="50.976562" xlink:href="#Constantia-117"/>
       <use x="107.910156" xlink:href="#Constantia-110"/>
      </g>
     </g>
    </g>
    <g id="xtick_7">
     <g id="line2d_9">
      <path clip-path="url(#p45281bc846)" d="M 337.70891 642.216125 
L 337.70891 55.163 
" style="fill:none;stroke:#b0b0b0;stroke-linecap:square;stroke-width:0.8;"/>
     </g>
     <g id="line2d_10">
      <g>
       <use style="stroke:#000000;stroke-width:0.6;" x="337.70891" xlink:href="#me9401f2019" y="642.216125"/>
      </g>
     </g>
     <g id="text_7">
      <!-- 16 -->
      <g transform="translate(330.022348 660.860188)scale(0.18 -0.18)">
       <defs>
        <path d="M 1.703125 40.625 
L 1.46875 42.671875 
Q 11.28125 44.140625 21.09375 45.90625 
L 21.53125 45.515625 
Q 20.953125 36.96875 20.953125 27.875 
L 20.953125 15.96875 
Q 20.953125 9.515625 21.046875 5.5625 
Q 21.09375 4.15625 22.40625 3.8125 
L 30.171875 1.8125 
L 30.328125 -0.140625 
Q 21.296875 0 16.5 0 
Q 11.71875 0 2.734375 -0.140625 
L 2.546875 1.8125 
L 10.5 3.8125 
Q 11.765625 4.15625 11.8125 5.375 
Q 11.921875 9.328125 11.921875 14.15625 
L 11.921875 22.265625 
Q 11.921875 32.078125 11.71875 39.65625 
z
" id="Constantia-49"/>
        <path d="M 47.125 64.546875 
Q 32.03125 61.53125 24.515625 53.9375 
Q 17 46.34375 14.796875 35.25 
L 14.890625 35.203125 
Q 20.796875 41.65625 30.21875 41.65625 
Q 38.96875 41.65625 44.9375 35.796875 
Q 50.921875 29.9375 50.921875 20.90625 
Q 50.921875 11.328125 44.375 5.03125 
Q 37.84375 -1.265625 28.125 -1.265625 
Q 17.390625 -1.265625 10.75 6.5 
Q 4.109375 14.265625 4.109375 26.515625 
Q 4.109375 41.546875 14.453125 53.125 
Q 24.8125 64.703125 46.4375 68.015625 
z
M 41.109375 18.0625 
Q 41.109375 26.609375 37.15625 31.953125 
Q 33.203125 37.3125 27.046875 37.3125 
Q 21.4375 37.3125 17.921875 33.328125 
Q 14.40625 29.34375 14.40625 22.515625 
Q 14.40625 14.15625 18.5 8.203125 
Q 22.609375 2.25 28.953125 2.25 
Q 34.46875 2.25 37.78125 6.8125 
Q 41.109375 11.375 41.109375 18.0625 
z
" id="Constantia-54"/>
       </defs>
       <use xlink:href="#Constantia-49"/>
       <use x="31.298828" xlink:href="#Constantia-54"/>
      </g>
      <!-- Sun -->
      <g transform="translate(322.75766 681.02525)scale(0.18 -0.18)">
       <use xlink:href="#Constantia-83"/>
       <use x="50.976562" xlink:href="#Constantia-117"/>
       <use x="107.910156" xlink:href="#Constantia-110"/>
      </g>
     </g>
    </g>
    <g id="xtick_8">
     <g id="line2d_11">
      <path clip-path="url(#p45281bc846)" d="M 429.161099 642.216125 
L 429.161099 55.163 
" style="fill:none;stroke:#b0b0b0;stroke-linecap:square;stroke-width:0.8;"/>
     </g>
     <g id="line2d_12">
      <g>
       <use style="stroke:#000000;stroke-width:0.6;" x="429.161099" xlink:href="#me9401f2019" y="642.216125"/>
      </g>
     </g>
     <g id="text_8">
      <!-- 23 -->
      <g transform="translate(420.692662 660.860188)scale(0.18 -0.18)">
       <defs>
        <path d="M 10.25 16.21875 
Q 19 17.140625 24.265625 20.75 
Q 29.546875 24.359375 29.546875 30.125 
Q 29.546875 34.71875 26.09375 37.59375 
Q 22.65625 40.484375 17.390625 40.484375 
Q 10.5 40.484375 3.46875 36.8125 
L 1.46875 40.046875 
Q 11.140625 46.390625 21.34375 46.390625 
Q 28.90625 46.390625 34.078125 42.75 
Q 39.265625 39.109375 39.265625 33.203125 
Q 39.265625 22.359375 23.25 17 
L 23.25 16.796875 
Q 32.421875 16.453125 37.5625 12.15625 
Q 42.71875 7.859375 42.71875 1.609375 
Q 42.71875 -8.5 31.96875 -15.140625 
Q 21.234375 -21.78125 1.03125 -22.46875 
L 0.484375 -18.84375 
Q 16.546875 -17.78125 24.53125 -12.625 
Q 32.515625 -7.46875 32.515625 0.25 
Q 32.515625 6.296875 28.359375 9.765625 
Q 24.21875 13.234375 16.84375 13.234375 
Q 13.96875 13.234375 10.59375 12.640625 
z
" id="Constantia-51"/>
       </defs>
       <use xlink:href="#Constantia-50"/>
       <use x="48.4375" xlink:href="#Constantia-51"/>
      </g>
      <!-- Sun -->
      <g transform="translate(414.209849 681.02525)scale(0.18 -0.18)">
       <use xlink:href="#Constantia-83"/>
       <use x="50.976562" xlink:href="#Constantia-117"/>
       <use x="107.910156" xlink:href="#Constantia-110"/>
      </g>
     </g>
    </g>
    <g id="xtick_9">
     <g id="line2d_13">
      <path clip-path="url(#p45281bc846)" d="M 520.613289 642.216125 
L 520.613289 55.163 
" style="fill:none;stroke:#b0b0b0;stroke-linecap:square;stroke-width:0.8;"/>
     </g>
     <g id="line2d_14">
      <g>
       <use style="stroke:#000000;stroke-width:0.6;" x="520.613289" xlink:href="#me9401f2019" y="642.216125"/>
      </g>
     </g>
     <g id="text_9">
      <!-- 30 -->
      <g transform="translate(511.656882 660.860188)scale(0.18 -0.18)">
       <use xlink:href="#Constantia-51"/>
       <use x="45.654297" xlink:href="#Constantia-48"/>
      </g>
      <!-- Sun -->
      <g transform="translate(505.662039 681.02525)scale(0.18 -0.18)">
       <use xlink:href="#Constantia-83"/>
       <use x="50.976562" xlink:href="#Constantia-117"/>
       <use x="107.910156" xlink:href="#Constantia-110"/>
      </g>
     </g>
    </g>
    <g id="xtick_10">
     <g id="line2d_15">
      <path clip-path="url(#p45281bc846)" d="M 612.065478 642.216125 
L 612.065478 55.163 
" style="fill:none;stroke:#b0b0b0;stroke-linecap:square;stroke-width:0.8;"/>
     </g>
     <g id="line2d_16">
      <g>
       <use style="stroke:#000000;stroke-width:0.6;" x="612.065478" xlink:href="#me9401f2019" y="642.216125"/>
      </g>
     </g>
     <g id="text_10">
      <!-- 06 -->
      <g transform="translate(602.348291 660.860188)scale(0.18 -0.18)">
       <use xlink:href="#Constantia-48"/>
       <use x="53.857422" xlink:href="#Constantia-54"/>
      </g>
      <!-- Sun -->
      <g transform="translate(597.114228 681.02525)scale(0.18 -0.18)">
       <use xlink:href="#Constantia-83"/>
       <use x="50.976562" xlink:href="#Constantia-117"/>
       <use x="107.910156" xlink:href="#Constantia-110"/>
      </g>
     </g>
    </g>
    <g id="xtick_11">
     <g id="line2d_17">
      <path clip-path="url(#p45281bc846)" d="M 703.517667 642.216125 
L 703.517667 55.163 
" style="fill:none;stroke:#b0b0b0;stroke-linecap:square;stroke-width:0.8;"/>
     </g>
     <g id="line2d_18">
      <g>
       <use style="stroke:#000000;stroke-width:0.6;" x="703.517667" xlink:href="#me9401f2019" y="642.216125"/>
      </g>
     </g>
     <g id="text_11">
      <!-- 13 -->
      <g transform="translate(696.591886 660.860188)scale(0.18 -0.18)">
       <use xlink:href="#Constantia-49"/>
       <use x="31.298828" xlink:href="#Constantia-51"/>
      </g>
      <!-- Sun -->
      <g transform="translate(688.566417 681.02525)scale(0.18 -0.18)">
       <use xlink:href="#Constantia-83"/>
       <use x="50.976562" xlink:href="#Constantia-117"/>
       <use x="107.910156" xlink:href="#Constantia-110"/>
      </g>
     </g>
    </g>
    <g id="xtick_12">
     <g id="line2d_19">
      <path clip-path="url(#p45281bc846)" d="M 794.969857 642.216125 
L 794.969857 55.163 
" style="fill:none;stroke:#b0b0b0;stroke-linecap:square;stroke-width:0.8;"/>
     </g>
     <g id="line2d_20">
      <g>
       <use style="stroke:#000000;stroke-width:0.6;" x="794.969857" xlink:href="#me9401f2019" y="642.216125"/>
      </g>
     </g>
     <g id="text_12">
      <!-- 20 -->
      <g transform="translate(785.763138 660.860188)scale(0.18 -0.18)">
       <use xlink:href="#Constantia-50"/>
       <use x="48.4375" xlink:href="#Constantia-48"/>
      </g>
      <!-- Sun -->
      <g transform="translate(780.018607 681.02525)scale(0.18 -0.18)">
       <use xlink:href="#Constantia-83"/>
       <use x="50.976562" xlink:href="#Constantia-117"/>
       <use x="107.910156" xlink:href="#Constantia-110"/>
      </g>
     </g>
    </g>
    <g id="xtick_13">
     <g id="line2d_21">
      <path clip-path="url(#p45281bc846)" d="M 886.422046 642.216125 
L 886.422046 55.163 
" style="fill:none;stroke:#b0b0b0;stroke-linecap:square;stroke-width:0.8;"/>
     </g>
     <g id="line2d_22">
      <g>
       <use style="stroke:#000000;stroke-width:0.6;" x="886.422046" xlink:href="#me9401f2019" y="642.216125"/>
      </g>
     </g>
     <g id="text_13">
      <!-- 27 -->
      <g transform="translate(877.711733 660.860188)scale(0.18 -0.18)">
       <defs>
        <path d="M 10.9375 -19.671875 
L 39.5 37.546875 
L 8.296875 37.546875 
L 5.46875 27.875 
L 3.515625 27.546875 
L 2.6875 44.921875 
L 3.03125 45.3125 
Q 8.796875 45.21875 14.265625 45.171875 
Q 19.734375 45.125 25 45.125 
L 27.734375 45.125 
Q 33.015625 45.125 37.84375 45.171875 
Q 42.671875 45.21875 47.171875 45.3125 
L 47.359375 43.21875 
Q 44.828125 37.984375 42.265625 32.46875 
Q 39.703125 26.953125 37.234375 21.3125 
Q 34.765625 15.671875 32.421875 10.125 
Q 30.078125 4.59375 28.03125 -0.65625 
Q 25.984375 -5.90625 24.25 -10.6875 
Q 22.515625 -15.484375 21.234375 -19.53125 
L 11.1875 -20.015625 
z
" id="Constantia-55"/>
       </defs>
       <use xlink:href="#Constantia-50"/>
       <use x="48.4375" xlink:href="#Constantia-55"/>
      </g>
      <!-- Sun -->
      <g transform="translate(871.470796 681.02525)scale(0.18 -0.18)">
       <use xlink:href="#Constantia-83"/>
       <use x="50.976562" xlink:href="#Constantia-117"/>
       <use x="107.910156" xlink:href="#Constantia-110"/>
      </g>
     </g>
    </g>
    <g id="xtick_14">
     <g id="line2d_23">
      <path clip-path="url(#p45281bc846)" d="M 977.874235 642.216125 
L 977.874235 55.163 
" style="fill:none;stroke:#b0b0b0;stroke-linecap:square;stroke-width:0.8;"/>
     </g>
     <g id="line2d_24">
      <g>
       <use style="stroke:#000000;stroke-width:0.6;" x="977.874235" xlink:href="#me9401f2019" y="642.216125"/>
      </g>
     </g>
     <g id="text_14">
      <!-- 04 -->
      <g transform="translate(968.24986 660.860188)scale(0.18 -0.18)">
       <defs>
        <path d="M 30.953125 35.015625 
Q 25.4375 28.8125 19.890625 21.78125 
Q 14.359375 14.75 8.984375 7.28125 
L 30.953125 7.28125 
z
M 39.984375 -5.71875 
Q 39.984375 -12.546875 40.234375 -19.53125 
Q 35.546875 -20.015625 31.34375 -20.796875 
L 30.859375 -20.40625 
Q 30.953125 -13.578125 30.953125 -6.5 
L 30.953125 2.4375 
L 18.796875 2.4375 
Q 12.109375 2.4375 2.546875 2.296875 
L 2.203125 5.859375 
Q 9.90625 16.0625 18.078125 26.234375 
Q 26.265625 36.421875 34.578125 46.046875 
L 40.28125 46.390625 
Q 39.984375 35.453125 39.984375 25.984375 
L 39.984375 7.28125 
L 51.171875 7.28125 
L 51.375 2.296875 
Q 46 2.4375 39.984375 2.4375 
z
" id="Constantia-52"/>
       </defs>
       <use xlink:href="#Constantia-48"/>
       <use x="53.857422" xlink:href="#Constantia-52"/>
      </g>
      <!-- Sun -->
      <g transform="translate(962.922985 681.02525)scale(0.18 -0.18)">
       <use xlink:href="#Constantia-83"/>
       <use x="50.976562" xlink:href="#Constantia-117"/>
       <use x="107.910156" xlink:href="#Constantia-110"/>
      </g>
     </g>
    </g>
    <g id="xtick_15">
     <g id="line2d_25">
      <path clip-path="url(#p45281bc846)" d="M 1069.326424 642.216125 
L 1069.326424 55.163 
" style="fill:none;stroke:#b0b0b0;stroke-linecap:square;stroke-width:0.8;"/>
     </g>
     <g id="line2d_26">
      <g>
       <use style="stroke:#000000;stroke-width:0.6;" x="1069.326424" xlink:href="#me9401f2019" y="642.216125"/>
      </g>
     </g>
     <g id="text_15">
      <!-- 11 -->
      <g transform="translate(1063.692987 660.860188)scale(0.18 -0.18)">
       <use xlink:href="#Constantia-49"/>
       <use x="31.298828" xlink:href="#Constantia-49"/>
      </g>
      <!-- Sun -->
      <g transform="translate(1054.375174 681.02525)scale(0.18 -0.18)">
       <use xlink:href="#Constantia-83"/>
       <use x="50.976562" xlink:href="#Constantia-117"/>
       <use x="107.910156" xlink:href="#Constantia-110"/>
      </g>
     </g>
    </g>
    <g id="xtick_16">
     <g id="line2d_27">
      <path clip-path="url(#p45281bc846)" d="M 1160.778614 642.216125 
L 1160.778614 55.163 
" style="fill:none;stroke:#b0b0b0;stroke-linecap:square;stroke-width:0.8;"/>
     </g>
     <g id="line2d_28">
      <g>
       <use style="stroke:#000000;stroke-width:0.6;" x="1160.778614" xlink:href="#me9401f2019" y="642.216125"/>
      </g>
     </g>
     <g id="text_16">
      <!-- 18 -->
      <g transform="translate(1153.132832 660.860188)scale(0.18 -0.18)">
       <defs>
        <path d="M 19.09375 34.234375 
Q 12.0625 37.890625 9.5 41.546875 
Q 6.9375 45.21875 6.9375 50.09375 
Q 6.9375 57.421875 12.96875 62.171875 
Q 19 66.9375 27.984375 66.9375 
Q 36.078125 66.9375 41.375 63.125 
Q 46.6875 59.328125 46.6875 53.265625 
Q 46.6875 44.234375 33.84375 36.765625 
Q 43.609375 32.03125 47.09375 27.75 
Q 50.59375 23.484375 50.59375 17.578125 
Q 50.59375 9.421875 43.40625 4.078125 
Q 36.234375 -1.265625 26.265625 -1.265625 
Q 16.265625 -1.265625 9.90625 3.296875 
Q 3.5625 7.859375 3.5625 15.4375 
Q 3.5625 26.8125 19.09375 34.234375 
z
M 22.5625 32.421875 
Q 12.546875 26.703125 12.546875 16.609375 
Q 12.546875 10.203125 16.375 6.421875 
Q 20.21875 2.640625 26.90625 2.640625 
Q 33.015625 2.640625 37.140625 6.03125 
Q 41.265625 9.421875 41.265625 14.84375 
Q 41.265625 20.015625 37.5 23.75 
Q 33.734375 27.484375 22.5625 32.421875 
z
M 30.21875 38.625 
Q 37.984375 44.234375 37.984375 51.8125 
Q 37.984375 57.234375 34.859375 60.1875 
Q 31.734375 63.140625 26.609375 63.140625 
Q 21.4375 63.140625 18.140625 60.453125 
Q 14.84375 57.765625 14.84375 53.125 
Q 14.84375 48.484375 18.40625 45.40625 
Q 21.96875 42.328125 30.21875 38.625 
z
" id="Constantia-56"/>
       </defs>
       <use xlink:href="#Constantia-49"/>
       <use x="31.298828" xlink:href="#Constantia-56"/>
      </g>
      <!-- Sun -->
      <g transform="translate(1145.827364 681.02525)scale(0.18 -0.18)">
       <use xlink:href="#Constantia-83"/>
       <use x="50.976562" xlink:href="#Constantia-117"/>
       <use x="107.910156" xlink:href="#Constantia-110"/>
      </g>
     </g>
    </g>
    <g id="xtick_17">
     <g id="line2d_29">
      <path clip-path="url(#p45281bc846)" d="M 1252.230803 642.216125 
L 1252.230803 55.163 
" style="fill:none;stroke:#b0b0b0;stroke-linecap:square;stroke-width:0.8;"/>
     </g>
     <g id="line2d_30">
      <g>
       <use style="stroke:#000000;stroke-width:0.6;" x="1252.230803" xlink:href="#me9401f2019" y="642.216125"/>
      </g>
     </g>
     <g id="text_17">
      <!-- 25 -->
      <g transform="translate(1243.590803 660.860188)scale(0.18 -0.18)">
       <defs>
        <path d="M 6.453125 16.796875 
L 9.28125 45.3125 
Q 15.375 45.125 23.875 45.125 
Q 33.6875 45.125 42.28125 45.3125 
L 42.578125 44.921875 
L 41.359375 36.859375 
L 13.1875 37.546875 
L 11.8125 23.78125 
Q 15.96875 24.46875 19.625 24.46875 
Q 30.8125 24.46875 37.46875 19.046875 
Q 44.140625 13.625 44.140625 4.15625 
Q 44.140625 -7.953125 32.984375 -15.15625 
Q 21.828125 -22.359375 4.890625 -22.46875 
L 4.390625 -18.84375 
Q 17.71875 -18.359375 26.09375 -12.796875 
Q 34.46875 -7.234375 34.46875 2.203125 
Q 34.46875 9.46875 29.5625 13.46875 
Q 24.65625 17.484375 15.765625 17.484375 
Q 11.328125 17.484375 6.734375 16.453125 
z
" id="Constantia-53"/>
       </defs>
       <use xlink:href="#Constantia-50"/>
       <use x="48.4375" xlink:href="#Constantia-53"/>
      </g>
      <!-- Sun -->
      <g transform="translate(1237.279553 681.02525)scale(0.18 -0.18)">
       <use xlink:href="#Constantia-83"/>
       <use x="50.976562" xlink:href="#Constantia-117"/>
       <use x="107.910156" xlink:href="#Constantia-110"/>
      </g>
     </g>
    </g>
   </g>
   <g id="matplotlib.axis_2">
    <g id="ytick_1">
     <g id="line2d_31">
      <path clip-path="url(#p45281bc846)" d="M 91.571875 642.216125 
L 1367.721854 642.216125 
" style="fill:none;stroke:#b0b0b0;stroke-linecap:square;stroke-width:0.8;"/>
     </g>
     <g id="line2d_32">
      <defs>
       <path d="M 0 0 
L -3.5 0 
" id="m719e774028" style="stroke:#000000;stroke-width:0.8;"/>
      </defs>
      <g>
       <use style="stroke:#000000;stroke-width:0.8;" x="91.571875" xlink:href="#m719e774028" y="642.216125"/>
      </g>
     </g>
     <g id="text_18">
      <!-- 0 -->
      <g transform="translate(73.8 649.573938)scale(0.2 -0.2)">
       <use xlink:href="#Constantia-48"/>
      </g>
     </g>
    </g>
    <g id="ytick_2">
     <g id="line2d_33">
      <path clip-path="url(#p45281bc846)" d="M 91.571875 564.741142 
L 1367.721854 564.741142 
" style="fill:none;stroke:#b0b0b0;stroke-linecap:square;stroke-width:0.8;"/>
     </g>
     <g id="line2d_34">
      <g>
       <use style="stroke:#000000;stroke-width:0.8;" x="91.571875" xlink:href="#m719e774028" y="564.741142"/>
      </g>
     </g>
     <g id="text_19">
      <!-- 10000 -->
      <g transform="translate(35.225 572.098955)scale(0.2 -0.2)">
       <use xlink:href="#Constantia-49"/>
       <use x="31.298828" xlink:href="#Constantia-48"/>
       <use x="85.15625" xlink:href="#Constantia-48"/>
       <use x="139.013672" xlink:href="#Constantia-48"/>
       <use x="192.871094" xlink:href="#Constantia-48"/>
      </g>
     </g>
    </g>
    <g id="ytick_3">
     <g id="line2d_35">
      <path clip-path="url(#p45281bc846)" d="M 91.571875 487.266159 
L 1367.721854 487.266159 
" style="fill:none;stroke:#b0b0b0;stroke-linecap:square;stroke-width:0.8;"/>
     </g>
     <g id="line2d_36">
      <g>
       <use style="stroke:#000000;stroke-width:0.8;" x="91.571875" xlink:href="#m719e774028" y="487.266159"/>
      </g>
     </g>
     <g id="text_20">
      <!-- 20000 -->
      <g transform="translate(31.796875 494.623972)scale(0.2 -0.2)">
       <use xlink:href="#Constantia-50"/>
       <use x="48.4375" xlink:href="#Constantia-48"/>
       <use x="102.294922" xlink:href="#Constantia-48"/>
       <use x="156.152344" xlink:href="#Constantia-48"/>
       <use x="210.009766" xlink:href="#Constantia-48"/>
      </g>
     </g>
    </g>
    <g id="ytick_4">
     <g id="line2d_37">
      <path clip-path="url(#p45281bc846)" d="M 91.571875 409.791176 
L 1367.721854 409.791176 
" style="fill:none;stroke:#b0b0b0;stroke-linecap:square;stroke-width:0.8;"/>
     </g>
     <g id="line2d_38">
      <g>
       <use style="stroke:#000000;stroke-width:0.8;" x="91.571875" xlink:href="#m719e774028" y="409.791176"/>
      </g>
     </g>
     <g id="text_21">
      <!-- 30000 -->
      <g transform="translate(32.353125 417.148989)scale(0.2 -0.2)">
       <use xlink:href="#Constantia-51"/>
       <use x="45.654297" xlink:href="#Constantia-48"/>
       <use x="99.511719" xlink:href="#Constantia-48"/>
       <use x="153.369141" xlink:href="#Constantia-48"/>
       <use x="207.226562" xlink:href="#Constantia-48"/>
      </g>
     </g>
    </g>
    <g id="ytick_5">
     <g id="line2d_39">
      <path clip-path="url(#p45281bc846)" d="M 91.571875 332.316193 
L 1367.721854 332.316193 
" style="fill:none;stroke:#b0b0b0;stroke-linecap:square;stroke-width:0.8;"/>
     </g>
     <g id="line2d_40">
      <g>
       <use style="stroke:#000000;stroke-width:0.8;" x="91.571875" xlink:href="#m719e774028" y="332.316193"/>
      </g>
     </g>
     <g id="text_22">
      <!-- 40000 -->
      <g transform="translate(30.86875 339.674006)scale(0.2 -0.2)">
       <use xlink:href="#Constantia-52"/>
       <use x="53.076172" xlink:href="#Constantia-48"/>
       <use x="106.933594" xlink:href="#Constantia-48"/>
       <use x="160.791016" xlink:href="#Constantia-48"/>
       <use x="214.648438" xlink:href="#Constantia-48"/>
      </g>
     </g>
    </g>
    <g id="ytick_6">
     <g id="line2d_41">
      <path clip-path="url(#p45281bc846)" d="M 91.571875 254.84121 
L 1367.721854 254.84121 
" style="fill:none;stroke:#b0b0b0;stroke-linecap:square;stroke-width:0.8;"/>
     </g>
     <g id="line2d_42">
      <g>
       <use style="stroke:#000000;stroke-width:0.8;" x="91.571875" xlink:href="#m719e774028" y="254.84121"/>
      </g>
     </g>
     <g id="text_23">
      <!-- 50000 -->
      <g transform="translate(31.971875 262.199023)scale(0.2 -0.2)">
       <use xlink:href="#Constantia-53"/>
       <use x="47.558594" xlink:href="#Constantia-48"/>
       <use x="101.416016" xlink:href="#Constantia-48"/>
       <use x="155.273438" xlink:href="#Constantia-48"/>
       <use x="209.130859" xlink:href="#Constantia-48"/>
      </g>
     </g>
    </g>
    <g id="ytick_7">
     <g id="line2d_43">
      <path clip-path="url(#p45281bc846)" d="M 91.571875 177.366227 
L 1367.721854 177.366227 
" style="fill:none;stroke:#b0b0b0;stroke-linecap:square;stroke-width:0.8;"/>
     </g>
     <g id="line2d_44">
      <g>
       <use style="stroke:#000000;stroke-width:0.8;" x="91.571875" xlink:href="#m719e774028" y="177.366227"/>
      </g>
     </g>
     <g id="text_24">
      <!-- 60000 -->
      <g transform="translate(30.6625 184.72404)scale(0.2 -0.2)">
       <use xlink:href="#Constantia-54"/>
       <use x="54.101562" xlink:href="#Constantia-48"/>
       <use x="107.958984" xlink:href="#Constantia-48"/>
       <use x="161.816406" xlink:href="#Constantia-48"/>
       <use x="215.673828" xlink:href="#Constantia-48"/>
      </g>
     </g>
    </g>
    <g id="ytick_8">
     <g id="line2d_45">
      <path clip-path="url(#p45281bc846)" d="M 91.571875 99.891245 
L 1367.721854 99.891245 
" style="fill:none;stroke:#b0b0b0;stroke-linecap:square;stroke-width:0.8;"/>
     </g>
     <g id="line2d_46">
      <g>
       <use style="stroke:#000000;stroke-width:0.8;" x="91.571875" xlink:href="#m719e774028" y="99.891245"/>
      </g>
     </g>
     <g id="text_25">
      <!-- 70000 -->
      <g transform="translate(31.815625 107.249057)scale(0.2 -0.2)">
       <use xlink:href="#Constantia-55"/>
       <use x="48.339844" xlink:href="#Constantia-48"/>
       <use x="102.197266" xlink:href="#Constantia-48"/>
       <use x="156.054688" xlink:href="#Constantia-48"/>
       <use x="209.912109" xlink:href="#Constantia-48"/>
      </g>
     </g>
    </g>
    <g id="text_26">
     <!-- ActiveCases -->
     <g transform="translate(21.915625 400.13175)rotate(-90)scale(0.2 -0.2)">
      <defs>
       <path d="M 19.34375 63.671875 
Q 19.34375 61.078125 17.71875 59.4375 
Q 16.109375 57.8125 13.578125 57.8125 
Q 11.140625 57.8125 9.59375 59.328125 
Q 8.0625 60.84375 8.0625 63.328125 
Q 8.0625 65.96875 9.671875 67.5 
Q 11.28125 69.046875 13.921875 69.046875 
Q 16.3125 69.046875 17.828125 67.65625 
Q 19.34375 66.265625 19.34375 63.671875 
z
M 2.828125 42.96875 
Q 11.375 44.578125 18.65625 46.390625 
L 19.09375 46.046875 
Q 18.796875 39.703125 18.796875 32.078125 
L 18.796875 13.328125 
Q 18.796875 7.46875 18.890625 5.21875 
Q 19 3.90625 20.125 3.515625 
L 25.78125 1.859375 
L 25.875 -0.140625 
Q 19.140625 0 14.359375 0 
Q 9.578125 0 2.984375 -0.140625 
L 2.78125 1.859375 
L 8.453125 3.515625 
Q 9.578125 3.90625 9.671875 5.03125 
Q 9.765625 6.9375 9.765625 11.421875 
L 9.765625 27.734375 
Q 9.765625 34.125 9.578125 39.546875 
L 3.078125 41.3125 
z
" id="Constantia-105"/>
       <path d="M 57.515625 51.3125 
L 55.5625 51.03125 
L 52 63.875 
Q 45.953125 65.375 41.015625 65.375 
Q 29.046875 65.375 22.203125 57.03125 
Q 15.375 48.6875 15.375 35.359375 
Q 15.375 21.09375 23.1875 12.59375 
Q 31 4.109375 44.828125 4.109375 
Q 52.59375 4.109375 61.1875 7.078125 
L 61.71875 4.890625 
Q 52.09375 -1.765625 39.9375 -1.765625 
Q 24.171875 -1.765625 14.5 7.859375 
Q 4.828125 17.484375 4.828125 33.203125 
Q 4.828125 49.953125 15.46875 59.71875 
Q 26.125 69.484375 43.3125 69.484375 
Q 51.5625 69.484375 60.203125 67.484375 
L 60.546875 67.09375 
z
" id="Constantia-67"/>
       <path d="M 30.125 22.125 
Q 19.4375 22.125 15.53125 20.015625 
Q 11.625 17.921875 11.625 12.9375 
Q 11.625 8.296875 14.203125 6.359375 
Q 16.796875 4.4375 21.234375 4.4375 
Q 26.265625 4.4375 30.03125 6.15625 
z
M 6.453125 42.234375 
Q 15.96875 46.390625 23.296875 46.390625 
Q 30.765625 46.390625 34.9375 42.484375 
Q 39.109375 38.578125 39.0625 31.203125 
L 38.8125 10.890625 
Q 38.765625 8.40625 38.9375 6.890625 
Q 39.109375 5.375 39.8125 4.5625 
Q 40.53125 3.765625 41.9375 3.4375 
Q 43.359375 3.125 45.75 3.078125 
L 46 1.171875 
Q 43.890625 0.34375 40.859375 -0.484375 
Q 37.84375 -1.3125 36.765625 -1.3125 
Q 32.03125 -1.3125 30.28125 3.5625 
Q 23.4375 -1.375 17.390625 -1.375 
Q 10.59375 -1.375 6.46875 1.96875 
Q 2.34375 5.328125 2.34375 11.421875 
Q 2.34375 18.953125 9.046875 22.515625 
Q 15.765625 26.078125 30.125 26.078125 
L 30.171875 29.890625 
Q 30.21875 35.359375 27.390625 37.984375 
Q 24.5625 40.625 18.703125 40.625 
Q 14.265625 40.625 7.5625 38.96875 
z
" id="Constantia-97"/>
       <path d="M 27.875 41.453125 
Q 25.046875 42.234375 21.734375 42.234375 
Q 17.140625 42.234375 14.328125 40.453125 
Q 11.53125 38.671875 11.53125 35.59375 
Q 11.53125 32.625 13.359375 30.90625 
Q 15.1875 29.203125 20.171875 27.546875 
L 24.171875 26.171875 
Q 30.90625 23.875 34.046875 20.921875 
Q 37.203125 17.96875 37.203125 13.1875 
Q 37.203125 6.390625 31.921875 2.5 
Q 26.65625 -1.375 18.609375 -1.375 
Q 11.1875 -1.375 3.421875 1.65625 
Q 5.078125 8.015625 6.109375 14.0625 
L 8.015625 14.359375 
L 11.53125 3.859375 
Q 14.3125 2.78125 18.609375 2.78125 
Q 23.140625 2.78125 25.84375 4.640625 
Q 28.5625 6.5 28.5625 9.859375 
Q 28.5625 12.984375 26.734375 14.796875 
Q 24.90625 16.609375 20.90625 17.921875 
L 15.828125 19.625 
Q 9.234375 21.828125 6.71875 24.921875 
Q 4.203125 28.03125 4.203125 32.625 
Q 4.203125 39.015625 9.0625 42.703125 
Q 13.921875 46.390625 21.875 46.390625 
Q 29.296875 46.390625 35.359375 44.234375 
Q 33.984375 38.671875 32.859375 32.46875 
L 31 32.125 
z
" id="Constantia-115"/>
      </defs>
      <use xlink:href="#Constantia-65"/>
      <use x="66.431641" xlink:href="#Constantia-99"/>
      <use x="112.574219" xlink:href="#Constantia-116"/>
      <use x="147.876953" xlink:href="#Constantia-105"/>
      <use x="176.197266" xlink:href="#Constantia-118"/>
      <use x="224.488281" xlink:href="#Constantia-101"/>
      <use x="272.388672" xlink:href="#Constantia-67"/>
      <use x="337.525391" xlink:href="#Constantia-97"/>
      <use x="385.523438" xlink:href="#Constantia-115"/>
      <use x="426.001953" xlink:href="#Constantia-101"/>
      <use x="473.902344" xlink:href="#Constantia-115"/>
     </g>
    </g>
   </g>
   <g id="patch_76">
    <path d="M 91.571875 642.216125 
L 91.571875 55.163 
" style="fill:none;stroke:#000000;stroke-linecap:square;stroke-linejoin:miter;stroke-width:0.8;"/>
   </g>
   <g id="patch_77">
    <path d="M 1367.721854 642.216125 
L 1367.721854 55.163 
" style="fill:none;stroke:#000000;stroke-linecap:square;stroke-linejoin:miter;stroke-width:0.8;"/>
   </g>
   <g id="patch_78">
    <path d="M 91.571875 642.216125 
L 1367.721854 642.216125 
" style="fill:none;stroke:#000000;stroke-linecap:square;stroke-linejoin:miter;stroke-width:0.8;"/>
   </g>
   <g id="patch_79">
    <path d="M 91.571875 55.163 
L 1367.721854 55.163 
" style="fill:none;stroke:#000000;stroke-linecap:square;stroke-linejoin:miter;stroke-width:0.8;"/>
   </g>
   <g id="legend_1">
    <g id="patch_80">
     <path d="M 1192.696441 89.370031 
L 1358.498003 89.370031 
Q 1361.498003 89.370031 1361.498003 86.370031 
L 1361.498003 65.663 
Q 1361.498003 62.663 1358.498003 62.663 
L 1192.696441 62.663 
Q 1189.696441 62.663 1189.696441 65.663 
L 1189.696441 86.370031 
Q 1189.696441 89.370031 1192.696441 89.370031 
z
" style="fill:#ffffff;opacity:0.8;stroke:#000000;stroke-linejoin:miter;"/>
    </g>
    <g id="line2d_47">
     <path d="M 1195.696441 74.449719 
L 1225.696441 74.449719 
" style="fill:none;stroke:#f08080;stroke-dasharray:11.1,4.8;stroke-dashoffset:0;stroke-width:3;"/>
    </g>
    <g id="line2d_48">
     <defs>
      <path d="M 0 3 
C 0.795609 3 1.55874 2.683901 2.12132 2.12132 
C 2.683901 1.55874 3 0.795609 3 0 
C 3 -0.795609 2.683901 -1.55874 2.12132 -2.12132 
C 1.55874 -2.683901 0.795609 -3 0 -3 
C -0.795609 -3 -1.55874 -2.683901 -2.12132 -2.12132 
C -2.683901 -1.55874 -3 -0.795609 -3 0 
C -3 0.795609 -2.683901 1.55874 -2.12132 2.12132 
C -1.55874 2.683901 -0.795609 3 0 3 
z
" id="me976253030" style="stroke:#f08080;"/>
     </defs>
     <g>
      <use style="fill:#f08080;stroke:#f08080;" x="1210.696441" xlink:href="#me976253030" y="74.449719"/>
     </g>
    </g>
    <g id="text_27">
     <!-- 7 days moving avg -->
     <g transform="translate(1237.696441 79.699719)scale(0.15 -0.15)">
      <defs>
       <path id="Constantia-32"/>
       <path d="M 37.9375 41.015625 
Q 34.671875 42.046875 30.609375 42.046875 
Q 22.21875 42.046875 17.8125 37.28125 
Q 13.421875 32.515625 13.421875 22.859375 
Q 13.421875 14.5 17.328125 9.5 
Q 21.234375 4.5 28.375 4.5 
Q 32.953125 4.5 37.9375 7.03125 
z
M 30.90625 70.125 
Q 39.59375 71.78125 46.828125 73.578125 
L 47.265625 73.1875 
Q 46.96875 62.75 46.96875 50.734375 
L 46.96875 24.171875 
Q 46.96875 17.4375 47.015625 10.84375 
Q 47.015625 8.34375 47.1875 6.828125 
Q 47.359375 5.328125 48.046875 4.515625 
Q 48.734375 3.71875 50.078125 3.421875 
Q 51.421875 3.125 53.859375 3.078125 
L 54.109375 1.171875 
Q 51.953125 0.34375 48.953125 -0.484375 
Q 45.953125 -1.3125 44.875 -1.3125 
Q 39.9375 -1.3125 38.234375 4.25 
Q 30.671875 -1.375 23.53125 -1.375 
Q 14.5 -1.375 9.109375 5.046875 
Q 3.71875 11.46875 3.71875 20.84375 
Q 3.71875 32.953125 10.890625 39.59375 
Q 18.0625 46.234375 30.953125 46.234375 
Q 34.078125 46.234375 37.9375 45.5625 
Q 37.9375 56.34375 37.75 66.546875 
L 31.15625 68.5 
z
" id="Constantia-100"/>
       <path d="M -1.703125 45.265625 
Q 4.4375 45.125 9.234375 45.125 
Q 12.5 45.125 19.671875 45.265625 
L 19.875 43.265625 
L 14.15625 41.703125 
Q 15.96875 36.578125 18.359375 30.390625 
Q 20.75 24.21875 23.4375 17.53125 
Q 24.5625 14.75 25.875 11.140625 
Q 27.25 14.796875 28.8125 18.609375 
Q 31.109375 24.265625 33.25 29.75 
Q 35.40625 35.25 37.703125 41.703125 
L 32.125 43.265625 
L 31.9375 45.265625 
Q 35.546875 45.125 40.375 45.125 
Q 44.734375 45.125 48.828125 45.265625 
L 49.078125 43.265625 
L 44.53125 42 
Q 43.015625 41.5 42.328125 39.984375 
Q 40.53125 35.84375 38.421875 30.90625 
Q 31.984375 15.765625 28.65625 6.109375 
Q 26.421875 -0.4375 24.609375 -7.296875 
Q 22.796875 -14.15625 21.828125 -19.09375 
Q 21.390625 -21.484375 20.046875 -22.71875 
Q 18.703125 -23.96875 13.765625 -23.96875 
Q 8.734375 -23.96875 4 -23.640625 
L 3.765625 -21.734375 
Q 9.125 -20.90625 11.71875 -18.265625 
Q 14.84375 -14.890625 21.390625 -0.34375 
L 21.78125 0.59375 
L 21.09375 0.78125 
Q 12.15625 23.046875 4.9375 39.9375 
Q 4.296875 41.40625 2.6875 41.9375 
L -1.609375 43.265625 
z
" id="Constantia-121"/>
       <path d="M 47.65625 36.859375 
Q 48.34375 34.515625 48.34375 31.59375 
L 48.34375 14.15625 
Q 48.34375 8.453125 48.4375 4.984375 
Q 48.53125 3.65625 49.703125 3.265625 
L 54.640625 1.859375 
L 54.734375 -0.140625 
Q 48.78125 0 44 0 
Q 39.203125 0 33.34375 -0.140625 
L 33.15625 1.859375 
L 37.796875 3.21875 
Q 39.203125 3.71875 39.265625 4.78125 
Q 39.3125 5.46875 39.3125 7.859375 
L 39.3125 29.15625 
Q 39.3125 35.15625 36.578125 37.765625 
Q 33.84375 40.375 28.46875 40.375 
Q 23.734375 40.375 18.796875 37.546875 
L 18.796875 16.21875 
Q 18.796875 10.109375 18.890625 5.03125 
Q 18.953125 3.5625 19.921875 3.375 
L 25.09375 1.859375 
L 25.203125 -0.140625 
Q 19.140625 0 14.359375 0 
Q 9.578125 0 3.03125 -0.140625 
L 2.828125 1.859375 
L 8.453125 3.515625 
Q 9.671875 3.859375 9.71875 5.03125 
Q 9.765625 7.625 9.765625 11.03125 
L 9.765625 27.6875 
Q 9.765625 34.078125 9.578125 39.546875 
L 3.078125 41.3125 
L 2.828125 42.96875 
Q 10.890625 44.53125 18.265625 46.390625 
L 18.75 46.046875 
L 18.75 40.375 
Q 26.765625 46.390625 33.9375 46.390625 
Q 42.71875 46.390625 46.625 39.59375 
Q 54.34375 46.390625 63.375 46.390625 
Q 70.171875 46.390625 74 42.546875 
Q 77.828125 38.71875 77.828125 31.59375 
L 77.828125 14.3125 
Q 77.828125 8.15625 77.9375 5.21875 
Q 78.03125 3.90625 79.25 3.515625 
L 84.671875 1.859375 
L 84.765625 -0.140625 
Q 78.328125 0 73.53125 0 
Q 68.703125 0 62.890625 -0.140625 
L 62.703125 1.859375 
L 67.53125 3.265625 
Q 68.65625 3.65625 68.796875 4.78125 
Q 68.84375 5.46875 68.84375 7.859375 
L 68.84375 29.15625 
Q 68.84375 35.15625 66.0625 37.765625 
Q 63.28125 40.375 57.859375 40.375 
Q 52.390625 40.375 47.65625 36.859375 
z
" id="Constantia-109"/>
      </defs>
      <use xlink:href="#Constantia-55"/>
      <use x="48.339844" xlink:href="#Constantia-32"/>
      <use x="70.9375" xlink:href="#Constantia-100"/>
      <use x="127.675781" xlink:href="#Constantia-97"/>
      <use x="175.673828" xlink:href="#Constantia-121"/>
      <use x="223.818359" xlink:href="#Constantia-115"/>
      <use x="264.296875" xlink:href="#Constantia-32"/>
      <use x="289.394531" xlink:href="#Constantia-109"/>
      <use x="376.015625" xlink:href="#Constantia-111"/>
      <use x="430.068359" xlink:href="#Constantia-118"/>
      <use x="478.359375" xlink:href="#Constantia-105"/>
      <use x="506.679688" xlink:href="#Constantia-110"/>
      <use x="564.882812" xlink:href="#Constantia-103"/>
      <use x="615.664062" xlink:href="#Constantia-32"/>
      <use x="638.261719" xlink:href="#Constantia-97"/>
      <use x="686.259766" xlink:href="#Constantia-118"/>
      <use x="734.550781" xlink:href="#Constantia-103"/>
     </g>
    </g>
   </g>
  </g>
  <g id="axes_2">
   <g id="line2d_49">
    <path clip-path="url(#p45281bc846)" d="M 376.902706 521.49851 
L 389.967304 524.603157 
L 429.161099 528.170729 
L 442.225698 532.396653 
L 455.290296 534.819386 
L 468.354895 538.407748 
L 481.419493 540.941362 
L 494.484092 546.102838 
L 507.54869 551.450038 
L 520.613289 553.861683 
L 533.677887 556.051568 
L 546.742486 556.906732 
L 559.807084 553.397372 
L 572.871683 549.666252 
L 585.936281 543.055017 
L 599.00088 534.42299 
L 612.065478 526.208149 
L 625.130076 516.284367 
L 638.194675 506.582345 
L 651.259273 495.48739 
L 664.323872 482.456189 
L 677.38847 467.319648 
L 690.453069 451.17687 
L 703.517667 434.844209 
L 716.582266 418.055554 
L 729.646864 400.41312 
L 742.711463 381.176783 
L 768.84066 361.53989 
L 781.905258 341.88498 
L 794.969857 322.020783 
L 808.034455 302.274397 
L 821.099054 286.015194 
L 834.163652 263.222373 
L 847.22825 242.852285 
L 860.292849 221.976306 
L 873.357447 203.97767 
L 886.422046 179.906954 
L 899.486644 159.981773 
L 912.551243 139.14183 
L 925.615841 123.927674 
L 938.68044 107.136246 
L 951.745038 94.312945 
L 964.809637 81.847233 
L 977.874235 82.373914 
L 990.938834 82.983756 
L 1004.003432 86.506975 
L 1017.068031 93.529853 
L 1030.132629 107.467501 
L 1043.197228 123.324762 
L 1056.261826 136.824433 
L 1082.391023 158.889602 
L 1095.455621 180.260384 
L 1108.52022 206.78987 
L 1121.584818 233.467658 
L 1134.649417 267.631249 
L 1147.714015 303.097683 
L 1160.778614 343.790734 
L 1173.843212 376.6695 
L 1186.907811 415.358392 
L 1199.972409 450.194194 
L 1213.037008 486.127711 
L 1226.101606 515.054982 
L 1239.166205 541.804842 
L 1252.230803 565.328087 
L 1278.36 588.915088 
L 1291.424598 603.903326 
L 1304.489197 615.531892 
" style="fill:none;stroke:#f08080;stroke-dasharray:11.1,4.8;stroke-dashoffset:0;stroke-width:3;"/>
    <g clip-path="url(#p45281bc846)">
     <use style="fill:#f08080;stroke:#f08080;" x="376.902706" xlink:href="#me976253030" y="521.49851"/>
     <use style="fill:#f08080;stroke:#f08080;" x="389.967304" xlink:href="#me976253030" y="524.603157"/>
     <use style="fill:#f08080;stroke:#f08080;" x="429.161099" xlink:href="#me976253030" y="528.170729"/>
     <use style="fill:#f08080;stroke:#f08080;" x="442.225698" xlink:href="#me976253030" y="532.396653"/>
     <use style="fill:#f08080;stroke:#f08080;" x="455.290296" xlink:href="#me976253030" y="534.819386"/>
     <use style="fill:#f08080;stroke:#f08080;" x="468.354895" xlink:href="#me976253030" y="538.407748"/>
     <use style="fill:#f08080;stroke:#f08080;" x="481.419493" xlink:href="#me976253030" y="540.941362"/>
     <use style="fill:#f08080;stroke:#f08080;" x="494.484092" xlink:href="#me976253030" y="546.102838"/>
     <use style="fill:#f08080;stroke:#f08080;" x="507.54869" xlink:href="#me976253030" y="551.450038"/>
     <use style="fill:#f08080;stroke:#f08080;" x="520.613289" xlink:href="#me976253030" y="553.861683"/>
     <use style="fill:#f08080;stroke:#f08080;" x="533.677887" xlink:href="#me976253030" y="556.051568"/>
     <use style="fill:#f08080;stroke:#f08080;" x="546.742486" xlink:href="#me976253030" y="556.906732"/>
     <use style="fill:#f08080;stroke:#f08080;" x="559.807084" xlink:href="#me976253030" y="553.397372"/>
     <use style="fill:#f08080;stroke:#f08080;" x="572.871683" xlink:href="#me976253030" y="549.666252"/>
     <use style="fill:#f08080;stroke:#f08080;" x="585.936281" xlink:href="#me976253030" y="543.055017"/>
     <use style="fill:#f08080;stroke:#f08080;" x="599.00088" xlink:href="#me976253030" y="534.42299"/>
     <use style="fill:#f08080;stroke:#f08080;" x="612.065478" xlink:href="#me976253030" y="526.208149"/>
     <use style="fill:#f08080;stroke:#f08080;" x="625.130076" xlink:href="#me976253030" y="516.284367"/>
     <use style="fill:#f08080;stroke:#f08080;" x="638.194675" xlink:href="#me976253030" y="506.582345"/>
     <use style="fill:#f08080;stroke:#f08080;" x="651.259273" xlink:href="#me976253030" y="495.48739"/>
     <use style="fill:#f08080;stroke:#f08080;" x="664.323872" xlink:href="#me976253030" y="482.456189"/>
     <use style="fill:#f08080;stroke:#f08080;" x="677.38847" xlink:href="#me976253030" y="467.319648"/>
     <use style="fill:#f08080;stroke:#f08080;" x="690.453069" xlink:href="#me976253030" y="451.17687"/>
     <use style="fill:#f08080;stroke:#f08080;" x="703.517667" xlink:href="#me976253030" y="434.844209"/>
     <use style="fill:#f08080;stroke:#f08080;" x="716.582266" xlink:href="#me976253030" y="418.055554"/>
     <use style="fill:#f08080;stroke:#f08080;" x="729.646864" xlink:href="#me976253030" y="400.41312"/>
     <use style="fill:#f08080;stroke:#f08080;" x="742.711463" xlink:href="#me976253030" y="381.176783"/>
     <use style="fill:#f08080;stroke:#f08080;" x="768.84066" xlink:href="#me976253030" y="361.53989"/>
     <use style="fill:#f08080;stroke:#f08080;" x="781.905258" xlink:href="#me976253030" y="341.88498"/>
     <use style="fill:#f08080;stroke:#f08080;" x="794.969857" xlink:href="#me976253030" y="322.020783"/>
     <use style="fill:#f08080;stroke:#f08080;" x="808.034455" xlink:href="#me976253030" y="302.274397"/>
     <use style="fill:#f08080;stroke:#f08080;" x="821.099054" xlink:href="#me976253030" y="286.015194"/>
     <use style="fill:#f08080;stroke:#f08080;" x="834.163652" xlink:href="#me976253030" y="263.222373"/>
     <use style="fill:#f08080;stroke:#f08080;" x="847.22825" xlink:href="#me976253030" y="242.852285"/>
     <use style="fill:#f08080;stroke:#f08080;" x="860.292849" xlink:href="#me976253030" y="221.976306"/>
     <use style="fill:#f08080;stroke:#f08080;" x="873.357447" xlink:href="#me976253030" y="203.97767"/>
     <use style="fill:#f08080;stroke:#f08080;" x="886.422046" xlink:href="#me976253030" y="179.906954"/>
     <use style="fill:#f08080;stroke:#f08080;" x="899.486644" xlink:href="#me976253030" y="159.981773"/>
     <use style="fill:#f08080;stroke:#f08080;" x="912.551243" xlink:href="#me976253030" y="139.14183"/>
     <use style="fill:#f08080;stroke:#f08080;" x="925.615841" xlink:href="#me976253030" y="123.927674"/>
     <use style="fill:#f08080;stroke:#f08080;" x="938.68044" xlink:href="#me976253030" y="107.136246"/>
     <use style="fill:#f08080;stroke:#f08080;" x="951.745038" xlink:href="#me976253030" y="94.312945"/>
     <use style="fill:#f08080;stroke:#f08080;" x="964.809637" xlink:href="#me976253030" y="81.847233"/>
     <use style="fill:#f08080;stroke:#f08080;" x="977.874235" xlink:href="#me976253030" y="82.373914"/>
     <use style="fill:#f08080;stroke:#f08080;" x="990.938834" xlink:href="#me976253030" y="82.983756"/>
     <use style="fill:#f08080;stroke:#f08080;" x="1004.003432" xlink:href="#me976253030" y="86.506975"/>
     <use style="fill:#f08080;stroke:#f08080;" x="1017.068031" xlink:href="#me976253030" y="93.529853"/>
     <use style="fill:#f08080;stroke:#f08080;" x="1030.132629" xlink:href="#me976253030" y="107.467501"/>
     <use style="fill:#f08080;stroke:#f08080;" x="1043.197228" xlink:href="#me976253030" y="123.324762"/>
     <use style="fill:#f08080;stroke:#f08080;" x="1056.261826" xlink:href="#me976253030" y="136.824433"/>
     <use style="fill:#f08080;stroke:#f08080;" x="1082.391023" xlink:href="#me976253030" y="158.889602"/>
     <use style="fill:#f08080;stroke:#f08080;" x="1095.455621" xlink:href="#me976253030" y="180.260384"/>
     <use style="fill:#f08080;stroke:#f08080;" x="1108.52022" xlink:href="#me976253030" y="206.78987"/>
     <use style="fill:#f08080;stroke:#f08080;" x="1121.584818" xlink:href="#me976253030" y="233.467658"/>
     <use style="fill:#f08080;stroke:#f08080;" x="1134.649417" xlink:href="#me976253030" y="267.631249"/>
     <use style="fill:#f08080;stroke:#f08080;" x="1147.714015" xlink:href="#me976253030" y="303.097683"/>
     <use style="fill:#f08080;stroke:#f08080;" x="1160.778614" xlink:href="#me976253030" y="343.790734"/>
     <use style="fill:#f08080;stroke:#f08080;" x="1173.843212" xlink:href="#me976253030" y="376.6695"/>
     <use style="fill:#f08080;stroke:#f08080;" x="1186.907811" xlink:href="#me976253030" y="415.358392"/>
     <use style="fill:#f08080;stroke:#f08080;" x="1199.972409" xlink:href="#me976253030" y="450.194194"/>
     <use style="fill:#f08080;stroke:#f08080;" x="1213.037008" xlink:href="#me976253030" y="486.127711"/>
     <use style="fill:#f08080;stroke:#f08080;" x="1226.101606" xlink:href="#me976253030" y="515.054982"/>
     <use style="fill:#f08080;stroke:#f08080;" x="1239.166205" xlink:href="#me976253030" y="541.804842"/>
     <use style="fill:#f08080;stroke:#f08080;" x="1252.230803" xlink:href="#me976253030" y="565.328087"/>
     <use style="fill:#f08080;stroke:#f08080;" x="1278.36" xlink:href="#me976253030" y="588.915088"/>
     <use style="fill:#f08080;stroke:#f08080;" x="1291.424598" xlink:href="#me976253030" y="603.903326"/>
     <use style="fill:#f08080;stroke:#f08080;" x="1304.489197" xlink:href="#me976253030" y="615.531892"/>
    </g>
   </g>
  </g>
  <g id="text_28">
   <!-- Israel -->
   <g transform="translate(664.021875 21.915625)scale(0.2 -0.2)">
    <defs>
     <path d="M 21.78125 14.984375 
Q 21.78125 12.0625 21.796875 9.671875 
Q 21.828125 7.28125 21.875 5.328125 
Q 21.921875 4.109375 23.578125 3.65625 
L 29.109375 1.953125 
L 29.203125 -0.140625 
Q 22.90625 0 17.09375 0 
Q 11.1875 0 4.984375 -0.140625 
L 4.78125 1.953125 
L 10.796875 3.765625 
Q 12.015625 4.109375 12.109375 5.28125 
Q 12.15625 7.234375 12.171875 9.640625 
Q 12.203125 12.0625 12.203125 14.984375 
L 12.203125 54.59375 
Q 12.203125 57.078125 12.171875 59.078125 
Q 12.15625 61.078125 12.109375 62.703125 
Q 12.0625 63.96875 10.9375 64.359375 
L 4.890625 66.265625 
L 4.78125 68.359375 
Q 11.078125 68.171875 16.890625 68.171875 
Q 22.75 68.171875 29 68.359375 
L 29.203125 66.265625 
L 23.140625 64.453125 
Q 21.96875 64.15625 21.875 62.9375 
Q 21.828125 61.234375 21.796875 59.203125 
Q 21.78125 57.171875 21.78125 54.78125 
z
" id="Constantia-73"/>
     <path d="M 2.828125 42.96875 
Q 10.984375 44.53125 18.3125 46.390625 
L 18.796875 46.046875 
L 18.796875 40.328125 
Q 27.828125 46.390625 36.53125 46.390625 
L 36.765625 46.09375 
Q 35.359375 38.8125 33.984375 31 
L 32.03125 30.671875 
Q 30.671875 34.8125 29.390625 37.328125 
Q 28.125 39.84375 25.390625 39.84375 
Q 22.75 39.84375 18.796875 37.40625 
L 18.796875 16.265625 
Q 18.796875 8.640625 18.890625 5.375 
Q 18.953125 4.046875 20.125 3.71875 
L 26.609375 1.859375 
L 26.765625 -0.140625 
Q 19.140625 0 14.359375 0 
Q 9.578125 0 3.03125 -0.140625 
L 2.828125 1.859375 
L 8.5 3.515625 
Q 9.671875 3.90625 9.71875 5.03125 
Q 9.765625 7.125 9.765625 11.03125 
L 9.765625 27.6875 
Q 9.765625 35.640625 9.578125 39.546875 
L 3.078125 41.3125 
z
" id="Constantia-114"/>
     <path d="M 2.734375 68.5 
L 2.484375 70.125 
Q 11.140625 71.78125 18.40625 73.578125 
L 18.84375 73.1875 
Q 18.5625 65.234375 18.5625 51.078125 
L 18.5625 19.28125 
Q 18.5625 10.546875 18.65625 5.21875 
Q 18.796875 3.8125 20.015625 3.46875 
L 25.34375 1.859375 
L 25.484375 -0.140625 
Q 18.890625 0 14.109375 0 
Q 9.328125 0 2.78125 -0.140625 
L 2.59375 1.859375 
L 8.109375 3.46875 
Q 9.328125 3.859375 9.421875 5.03125 
Q 9.515625 10.546875 9.515625 17.328125 
L 9.515625 37.40625 
Q 9.515625 55.5625 9.328125 66.546875 
z
" id="Constantia-108"/>
    </defs>
    <use xlink:href="#Constantia-73"/>
    <use x="32.984375" xlink:href="#Constantia-115"/>
    <use x="73.462891" xlink:href="#Constantia-114"/>
    <use x="111.792969" xlink:href="#Constantia-97"/>
    <use x="159.791016" xlink:href="#Constantia-101"/>
    <use x="207.691406" xlink:href="#Constantia-108"/>
   </g>
   <!-- Daily increase of ActiveCases -->
   <g transform="translate(562.360937 44.32125)scale(0.2 -0.2)">
    <defs>
     <path d="M 17.09375 0 
Q 11.1875 0 4.984375 -0.140625 
L 4.78125 1.953125 
L 10.796875 3.765625 
Q 12.0625 4.15625 12.109375 5.28125 
Q 12.15625 7.234375 12.171875 9.640625 
Q 12.203125 12.0625 12.203125 14.984375 
L 12.203125 54.59375 
Q 12.203125 57.078125 12.171875 59.078125 
Q 12.15625 61.078125 12.109375 62.703125 
Q 12.0625 63.96875 10.9375 64.359375 
L 4.890625 66.265625 
L 4.78125 68.359375 
Q 11.078125 68.171875 17.046875 68.171875 
Q 21.921875 68.171875 26.453125 68.40625 
Q 31 68.65625 35.796875 68.65625 
Q 52.875 68.65625 61.46875 60.859375 
Q 70.0625 53.078125 70.0625 37.75 
Q 70.0625 19.671875 60.515625 9.6875 
Q 50.984375 -0.296875 33.734375 -0.296875 
Q 29 -0.296875 25.28125 -0.140625 
Q 21.578125 0 17.09375 0 
z
M 21.78125 4.34375 
Q 24.65625 3.953125 27.40625 3.828125 
Q 30.171875 3.71875 32.953125 3.71875 
Q 45.84375 3.71875 52.578125 11.296875 
Q 59.328125 18.890625 59.328125 34.578125 
Q 59.328125 49.8125 52.921875 57.15625 
Q 46.53125 64.5 32.671875 64.5 
Q 30.46875 64.5 27.796875 64.40625 
Q 25.140625 64.3125 21.78125 64.0625 
z
" id="Constantia-68"/>
     <path d="M 18.796875 39.9375 
L 18.796875 13.421875 
Q 18.796875 8.84375 18.890625 5.375 
Q 19 4.046875 20.171875 3.71875 
L 26.375 1.859375 
L 26.515625 -0.140625 
Q 19.140625 0 14.40625 0 
Q 9.578125 0 3.03125 -0.140625 
L 2.78125 1.859375 
L 8.25 3.421875 
Q 9.625 3.859375 9.671875 5.03125 
Q 9.765625 8.0625 9.765625 11.421875 
L 9.765625 40.1875 
L 3.125 41.84375 
L 2.78125 43.890625 
L 9.8125 44.484375 
L 9.8125 44.671875 
Q 9.8125 58.453125 15.796875 66.015625 
Q 21.78125 73.578125 31.84375 73.578125 
Q 36.765625 73.578125 41.359375 72.359375 
Q 39.703125 66.40625 38.53125 60.109375 
L 36.46875 59.71875 
L 33.296875 69.484375 
Q 32.171875 69.625 30.46875 69.625 
Q 24.859375 69.625 21.828125 64.59375 
Q 18.796875 59.578125 18.796875 46.1875 
L 18.796875 44.578125 
L 30.953125 44.578125 
L 30.953125 39.9375 
z
" id="Constantia-102"/>
    </defs>
    <use xlink:href="#Constantia-68"/>
    <use x="73.847656" xlink:href="#Constantia-97"/>
    <use x="121.845703" xlink:href="#Constantia-105"/>
    <use x="150.166016" xlink:href="#Constantia-108"/>
    <use x="178.242188" xlink:href="#Constantia-121"/>
    <use x="226.386719" xlink:href="#Constantia-32"/>
    <use x="251.484375" xlink:href="#Constantia-105"/>
    <use x="279.804688" xlink:href="#Constantia-110"/>
    <use x="338.007812" xlink:href="#Constantia-99"/>
    <use x="384.150391" xlink:href="#Constantia-114"/>
    <use x="422.480469" xlink:href="#Constantia-101"/>
    <use x="470.380859" xlink:href="#Constantia-97"/>
    <use x="518.378906" xlink:href="#Constantia-115"/>
    <use x="558.857422" xlink:href="#Constantia-101"/>
    <use x="606.757812" xlink:href="#Constantia-32"/>
    <use x="629.355469" xlink:href="#Constantia-111"/>
    <use x="683.408203" xlink:href="#Constantia-102"/>
    <use x="714.365234" xlink:href="#Constantia-32"/>
    <use x="737.962891" xlink:href="#Constantia-65"/>
    <use x="804.394531" xlink:href="#Constantia-99"/>
    <use x="850.537109" xlink:href="#Constantia-116"/>
    <use x="885.839844" xlink:href="#Constantia-105"/>
    <use x="914.160156" xlink:href="#Constantia-118"/>
    <use x="962.451172" xlink:href="#Constantia-101"/>
    <use x="1010.351562" xlink:href="#Constantia-67"/>
    <use x="1075.488281" xlink:href="#Constantia-97"/>
    <use x="1123.486328" xlink:href="#Constantia-115"/>
    <use x="1163.964844" xlink:href="#Constantia-101"/>
    <use x="1211.865234" xlink:href="#Constantia-115"/>
   </g>
  </g>
 </g>
 <defs>
  <clipPath id="p45281bc846">
   <rect height="587.053125" width="1276.149979" x="91.571875" y="55.163"/>
  </clipPath>
 </defs>
</svg>
