<?xml version="1.0" encoding="utf-8" standalone="no"?>
<!DOCTYPE svg PUBLIC "-//W3C//DTD SVG 1.1//EN"
  "http://www.w3.org/Graphics/SVG/1.1/DTD/svg11.dtd">
<!-- Created with matplotlib (https://matplotlib.org/) -->
<svg height="763.488pt" version="1.1" viewBox="0 0 1370.88 763.488" width="1370.88pt" xmlns="http://www.w3.org/2000/svg" xmlns:xlink="http://www.w3.org/1999/xlink">
 <metadata>
  <rdf:RDF xmlns:cc="http://creativecommons.org/ns#" xmlns:dc="http://purl.org/dc/elements/1.1/" xmlns:rdf="http://www.w3.org/1999/02/22-rdf-syntax-ns#">
   <cc:Work>
    <dc:type rdf:resource="http://purl.org/dc/dcmitype/StillImage"/>
    <dc:date>2020-11-21T15:28:00.659962</dc:date>
    <dc:format>image/svg+xml</dc:format>
    <dc:creator>
     <cc:Agent>
      <dc:title>Matplotlib v3.3.2, https://matplotlib.org/</dc:title>
     </cc:Agent>
    </dc:creator>
   </cc:Work>
  </rdf:RDF>
 </metadata>
 <defs>
  <style type="text/css">*{stroke-linecap:butt;stroke-linejoin:round;}</style>
 </defs>
 <g id="figure_1">
  <g id="patch_1">
   <path d="M 0 763.488 
L 1370.88 763.488 
L 1370.88 0 
L 0 0 
z
" style="fill:#ffffff;"/>
  </g>
  <g id="axes_1">
   <g id="patch_2">
    <path d="M 63.465625 643.203 
L 1363.68 643.203 
L 1363.68 69.21425 
L 63.465625 69.21425 
z
" style="fill:#ffffff;"/>
   </g>
   <g id="patch_3">
    <path clip-path="url(#p95a9a4ae6c)" d="M 0 0 
z
" style="fill:#ffa500;stroke:#000000;stroke-linejoin:miter;"/>
   </g>
   <g id="patch_4">
    <path clip-path="url(#p95a9a4ae6c)" d="M 63.465625 643.203 
L 73.390926 643.203 
L 73.390926 351.425385 
L 63.465625 351.425385 
z
" style="fill:#ffa500;stroke:#000000;stroke-linejoin:miter;"/>
   </g>
   <g id="patch_5">
    <path clip-path="url(#p95a9a4ae6c)" d="M 113.092128 643.203 
L 123.017428 643.203 
L 123.017428 447.090177 
L 113.092128 447.090177 
z
" style="fill:#ffa500;stroke:#000000;stroke-linejoin:miter;"/>
   </g>
   <g id="patch_6">
    <path clip-path="url(#p95a9a4ae6c)" d="M 162.718631 643.203 
L 172.643931 643.203 
L 172.643931 423.173979 
L 162.718631 423.173979 
z
" style="fill:#ffa500;stroke:#000000;stroke-linejoin:miter;"/>
   </g>
   <g id="patch_7">
    <path clip-path="url(#p95a9a4ae6c)" d="M 175.125256 643.203 
L 185.050557 643.203 
L 185.050557 581.020885 
L 175.125256 581.020885 
z
" style="fill:#ffa500;stroke:#000000;stroke-linejoin:miter;"/>
   </g>
   <g id="patch_8">
    <path clip-path="url(#p95a9a4ae6c)" d="M 187.531882 643.203 
L 197.457183 643.203 
L 197.457183 581.020885 
L 187.531882 581.020885 
z
" style="fill:#ffa500;stroke:#000000;stroke-linejoin:miter;"/>
   </g>
   <g id="patch_9">
    <path clip-path="url(#p95a9a4ae6c)" d="M 199.938508 643.203 
L 209.863808 643.203 
L 209.863808 576.237646 
L 199.938508 576.237646 
z
" style="fill:#ffa500;stroke:#000000;stroke-linejoin:miter;"/>
   </g>
   <g id="patch_10">
    <path clip-path="url(#p95a9a4ae6c)" d="M 212.345134 643.203 
L 222.270434 643.203 
L 222.270434 308.376229 
L 212.345134 308.376229 
z
" style="fill:#ffa500;stroke:#000000;stroke-linejoin:miter;"/>
   </g>
   <g id="patch_11">
    <path clip-path="url(#p95a9a4ae6c)" d="M 249.565011 643.203 
L 259.490311 643.203 
L 259.490311 427.957219 
L 249.565011 427.957219 
z
" style="fill:#ffa500;stroke:#000000;stroke-linejoin:miter;"/>
   </g>
   <g id="patch_12">
    <path clip-path="url(#p95a9a4ae6c)" d="M 261.971636 643.203 
L 271.896937 643.203 
L 271.896937 619.286802 
L 261.971636 619.286802 
z
" style="fill:#ffa500;stroke:#000000;stroke-linejoin:miter;"/>
   </g>
   <g id="patch_13">
    <path clip-path="url(#p95a9a4ae6c)" d="M 274.378262 643.203 
L 284.303563 643.203 
L 284.303563 552.321448 
L 274.378262 552.321448 
z
" style="fill:#ffa500;stroke:#000000;stroke-linejoin:miter;"/>
   </g>
   <g id="patch_14">
    <path clip-path="url(#p95a9a4ae6c)" d="M 286.784888 643.203 
L 296.710188 643.203 
L 296.710188 561.887927 
L 286.784888 561.887927 
z
" style="fill:#ffa500;stroke:#000000;stroke-linejoin:miter;"/>
   </g>
   <g id="patch_15">
    <path clip-path="url(#p95a9a4ae6c)" d="M 299.191514 643.203 
L 309.116814 643.203 
L 309.116814 604.937083 
L 299.191514 604.937083 
z
" style="fill:#ffa500;stroke:#000000;stroke-linejoin:miter;"/>
   </g>
   <g id="patch_16">
    <path clip-path="url(#p95a9a4ae6c)" d="M 311.598139 643.203 
L 321.52344 643.203 
L 321.52344 590.587365 
L 311.598139 590.587365 
z
" style="fill:#ffa500;stroke:#000000;stroke-linejoin:miter;"/>
   </g>
   <g id="patch_17">
    <path clip-path="url(#p95a9a4ae6c)" d="M 324.004765 643.203 
L 333.930066 643.203 
L 333.930066 643.203 
L 324.004765 643.203 
z
" style="fill:#ffa500;stroke:#000000;stroke-linejoin:miter;"/>
   </g>
   <g id="patch_18">
    <path clip-path="url(#p95a9a4ae6c)" d="M 336.411391 643.203 
L 346.336691 643.203 
L 346.336691 523.62201 
L 336.411391 523.62201 
z
" style="fill:#ffa500;stroke:#000000;stroke-linejoin:miter;"/>
   </g>
   <g id="patch_19">
    <path clip-path="url(#p95a9a4ae6c)" d="M 348.818016 643.203 
L 358.743317 643.203 
L 358.743317 628.853281 
L 348.818016 628.853281 
z
" style="fill:#ffa500;stroke:#000000;stroke-linejoin:miter;"/>
   </g>
   <g id="patch_20">
    <path clip-path="url(#p95a9a4ae6c)" d="M 361.224642 643.203 
L 371.149943 643.203 
L 371.149943 480.572854 
L 361.224642 480.572854 
z
" style="fill:#ffa500;stroke:#000000;stroke-linejoin:miter;"/>
   </g>
   <g id="patch_21">
    <path clip-path="url(#p95a9a4ae6c)" d="M 373.631268 643.203 
L 383.556568 643.203 
L 383.556568 581.020885 
L 373.631268 581.020885 
z
" style="fill:#ffa500;stroke:#000000;stroke-linejoin:miter;"/>
   </g>
   <g id="patch_22">
    <path clip-path="url(#p95a9a4ae6c)" d="M 386.037894 643.203 
L 395.963194 643.203 
L 395.963194 566.671167 
L 386.037894 566.671167 
z
" style="fill:#ffa500;stroke:#000000;stroke-linejoin:miter;"/>
   </g>
   <g id="patch_23">
    <path clip-path="url(#p95a9a4ae6c)" d="M 398.444519 643.203 
L 408.36982 643.203 
L 408.36982 643.203 
L 398.444519 643.203 
z
" style="fill:#ffa500;stroke:#000000;stroke-linejoin:miter;"/>
   </g>
   <g id="patch_24">
    <path clip-path="url(#p95a9a4ae6c)" d="M 410.851145 643.203 
L 420.776446 643.203 
L 420.776446 537.971729 
L 410.851145 537.971729 
z
" style="fill:#ffa500;stroke:#000000;stroke-linejoin:miter;"/>
   </g>
   <g id="patch_25">
    <path clip-path="url(#p95a9a4ae6c)" d="M 423.257771 643.203 
L 433.183071 643.203 
L 433.183071 628.853281 
L 423.257771 628.853281 
z
" style="fill:#ffa500;stroke:#000000;stroke-linejoin:miter;"/>
   </g>
   <g id="patch_26">
    <path clip-path="url(#p95a9a4ae6c)" d="M 435.664396 643.203 
L 445.589697 643.203 
L 445.589697 566.671167 
L 435.664396 566.671167 
z
" style="fill:#ffa500;stroke:#000000;stroke-linejoin:miter;"/>
   </g>
   <g id="patch_27">
    <path clip-path="url(#p95a9a4ae6c)" d="M 448.071022 643.203 
L 457.996323 643.203 
L 457.996323 619.286802 
L 448.071022 619.286802 
z
" style="fill:#ffa500;stroke:#000000;stroke-linejoin:miter;"/>
   </g>
   <g id="patch_28">
    <path clip-path="url(#p95a9a4ae6c)" d="M 460.477648 643.203 
L 470.402948 643.203 
L 470.402948 537.971729 
L 460.477648 537.971729 
z
" style="fill:#ffa500;stroke:#000000;stroke-linejoin:miter;"/>
   </g>
   <g id="patch_29">
    <path clip-path="url(#p95a9a4ae6c)" d="M 472.884274 643.203 
L 482.809574 643.203 
L 482.809574 537.971729 
L 472.884274 537.971729 
z
" style="fill:#ffa500;stroke:#000000;stroke-linejoin:miter;"/>
   </g>
   <g id="patch_30">
    <path clip-path="url(#p95a9a4ae6c)" d="M 485.290899 643.203 
L 495.2162 643.203 
L 495.2162 571.454406 
L 485.290899 571.454406 
z
" style="fill:#ffa500;stroke:#000000;stroke-linejoin:miter;"/>
   </g>
   <g id="patch_31">
    <path clip-path="url(#p95a9a4ae6c)" d="M 497.697525 643.203 
L 507.622826 643.203 
L 507.622826 590.587365 
L 497.697525 590.587365 
z
" style="fill:#ffa500;stroke:#000000;stroke-linejoin:miter;"/>
   </g>
   <g id="patch_32">
    <path clip-path="url(#p95a9a4ae6c)" d="M 510.104151 643.203 
L 520.029451 643.203 
L 520.029451 609.720323 
L 510.104151 609.720323 
z
" style="fill:#ffa500;stroke:#000000;stroke-linejoin:miter;"/>
   </g>
   <g id="patch_33">
    <path clip-path="url(#p95a9a4ae6c)" d="M 522.510776 643.203 
L 532.436077 643.203 
L 532.436077 509.272292 
L 522.510776 509.272292 
z
" style="fill:#ffa500;stroke:#000000;stroke-linejoin:miter;"/>
   </g>
   <g id="patch_34">
    <path clip-path="url(#p95a9a4ae6c)" d="M 534.917402 643.203 
L 544.842703 643.203 
L 544.842703 619.286802 
L 534.917402 619.286802 
z
" style="fill:#ffa500;stroke:#000000;stroke-linejoin:miter;"/>
   </g>
   <g id="patch_35">
    <path clip-path="url(#p95a9a4ae6c)" d="M 547.324028 643.203 
L 557.249328 643.203 
L 557.249328 537.971729 
L 547.324028 537.971729 
z
" style="fill:#ffa500;stroke:#000000;stroke-linejoin:miter;"/>
   </g>
   <g id="patch_36">
    <path clip-path="url(#p95a9a4ae6c)" d="M 572.137279 643.203 
L 582.06258 643.203 
L 582.06258 485.356094 
L 572.137279 485.356094 
z
" style="fill:#ffa500;stroke:#000000;stroke-linejoin:miter;"/>
   </g>
   <g id="patch_37">
    <path clip-path="url(#p95a9a4ae6c)" d="M 584.543905 643.203 
L 594.469206 643.203 
L 594.469206 499.705812 
L 584.543905 499.705812 
z
" style="fill:#ffa500;stroke:#000000;stroke-linejoin:miter;"/>
   </g>
   <g id="patch_38">
    <path clip-path="url(#p95a9a4ae6c)" d="M 596.950531 643.203 
L 606.875831 643.203 
L 606.875831 595.370604 
L 596.950531 595.370604 
z
" style="fill:#ffa500;stroke:#000000;stroke-linejoin:miter;"/>
   </g>
   <g id="patch_39">
    <path clip-path="url(#p95a9a4ae6c)" d="M 609.357156 643.203 
L 619.282457 643.203 
L 619.282457 471.006375 
L 609.357156 471.006375 
z
" style="fill:#ffa500;stroke:#000000;stroke-linejoin:miter;"/>
   </g>
   <g id="patch_40">
    <path clip-path="url(#p95a9a4ae6c)" d="M 621.763782 643.203 
L 631.689083 643.203 
L 631.689083 581.020885 
L 621.763782 581.020885 
z
" style="fill:#ffa500;stroke:#000000;stroke-linejoin:miter;"/>
   </g>
   <g id="patch_41">
    <path clip-path="url(#p95a9a4ae6c)" d="M 634.170408 643.203 
L 644.095708 643.203 
L 644.095708 494.922573 
L 634.170408 494.922573 
z
" style="fill:#ffa500;stroke:#000000;stroke-linejoin:miter;"/>
   </g>
   <g id="patch_42">
    <path clip-path="url(#p95a9a4ae6c)" d="M 646.577034 643.203 
L 656.502334 643.203 
L 656.502334 356.208625 
L 646.577034 356.208625 
z
" style="fill:#ffa500;stroke:#000000;stroke-linejoin:miter;"/>
   </g>
   <g id="patch_43">
    <path clip-path="url(#p95a9a4ae6c)" d="M 658.983659 643.203 
L 668.90896 643.203 
L 668.90896 471.006375 
L 658.983659 471.006375 
z
" style="fill:#ffa500;stroke:#000000;stroke-linejoin:miter;"/>
   </g>
   <g id="patch_44">
    <path clip-path="url(#p95a9a4ae6c)" d="M 671.390285 643.203 
L 681.315586 643.203 
L 681.315586 643.203 
L 671.390285 643.203 
z
" style="fill:#ffa500;stroke:#000000;stroke-linejoin:miter;"/>
   </g>
   <g id="patch_45">
    <path clip-path="url(#p95a9a4ae6c)" d="M 683.796911 643.203 
L 693.722211 643.203 
L 693.722211 384.908063 
L 683.796911 384.908063 
z
" style="fill:#ffa500;stroke:#000000;stroke-linejoin:miter;"/>
   </g>
   <g id="patch_46">
    <path clip-path="url(#p95a9a4ae6c)" d="M 696.203536 643.203 
L 706.128837 643.203 
L 706.128837 485.356094 
L 696.203536 485.356094 
z
" style="fill:#ffa500;stroke:#000000;stroke-linejoin:miter;"/>
   </g>
   <g id="patch_47">
    <path clip-path="url(#p95a9a4ae6c)" d="M 708.610162 643.203 
L 718.535463 643.203 
L 718.535463 528.40525 
L 708.610162 528.40525 
z
" style="fill:#ffa500;stroke:#000000;stroke-linejoin:miter;"/>
   </g>
   <g id="patch_48">
    <path clip-path="url(#p95a9a4ae6c)" d="M 721.016788 643.203 
L 730.942089 643.203 
L 730.942089 504.489052 
L 721.016788 504.489052 
z
" style="fill:#ffa500;stroke:#000000;stroke-linejoin:miter;"/>
   </g>
   <g id="patch_49">
    <path clip-path="url(#p95a9a4ae6c)" d="M 733.423414 643.203 
L 743.348714 643.203 
L 743.348714 413.6075 
L 733.423414 413.6075 
z
" style="fill:#ffa500;stroke:#000000;stroke-linejoin:miter;"/>
   </g>
   <g id="patch_50">
    <path clip-path="url(#p95a9a4ae6c)" d="M 745.830039 643.203 
L 755.75534 643.203 
L 755.75534 485.356094 
L 745.830039 485.356094 
z
" style="fill:#ffa500;stroke:#000000;stroke-linejoin:miter;"/>
   </g>
   <g id="patch_51">
    <path clip-path="url(#p95a9a4ae6c)" d="M 758.236665 643.203 
L 768.161966 643.203 
L 768.161966 423.173979 
L 758.236665 423.173979 
z
" style="fill:#ffa500;stroke:#000000;stroke-linejoin:miter;"/>
   </g>
   <g id="patch_52">
    <path clip-path="url(#p95a9a4ae6c)" d="M 770.643291 643.203 
L 780.568591 643.203 
L 780.568591 509.272292 
L 770.643291 509.272292 
z
" style="fill:#ffa500;stroke:#000000;stroke-linejoin:miter;"/>
   </g>
   <g id="patch_53">
    <path clip-path="url(#p95a9a4ae6c)" d="M 783.049917 643.203 
L 792.975217 643.203 
L 792.975217 442.306938 
L 783.049917 442.306938 
z
" style="fill:#ffa500;stroke:#000000;stroke-linejoin:miter;"/>
   </g>
   <g id="patch_54">
    <path clip-path="url(#p95a9a4ae6c)" d="M 795.456542 643.203 
L 805.381843 643.203 
L 805.381843 413.6075 
L 795.456542 413.6075 
z
" style="fill:#ffa500;stroke:#000000;stroke-linejoin:miter;"/>
   </g>
   <g id="patch_55">
    <path clip-path="url(#p95a9a4ae6c)" d="M 807.863168 643.203 
L 817.788469 643.203 
L 817.788469 514.055531 
L 807.863168 514.055531 
z
" style="fill:#ffa500;stroke:#000000;stroke-linejoin:miter;"/>
   </g>
   <g id="patch_56">
    <path clip-path="url(#p95a9a4ae6c)" d="M 820.269794 643.203 
L 830.195094 643.203 
L 830.195094 451.873417 
L 820.269794 451.873417 
z
" style="fill:#ffa500;stroke:#000000;stroke-linejoin:miter;"/>
   </g>
   <g id="patch_57">
    <path clip-path="url(#p95a9a4ae6c)" d="M 832.676419 643.203 
L 842.60172 643.203 
L 842.60172 537.971729 
L 832.676419 537.971729 
z
" style="fill:#ffa500;stroke:#000000;stroke-linejoin:miter;"/>
   </g>
   <g id="patch_58">
    <path clip-path="url(#p95a9a4ae6c)" d="M 845.083045 643.203 
L 855.008346 643.203 
L 855.008346 509.272292 
L 845.083045 509.272292 
z
" style="fill:#ffa500;stroke:#000000;stroke-linejoin:miter;"/>
   </g>
   <g id="patch_59">
    <path clip-path="url(#p95a9a4ae6c)" d="M 869.896297 643.203 
L 879.821597 643.203 
L 879.821597 131.396365 
L 869.896297 131.396365 
z
" style="fill:#ffa500;stroke:#000000;stroke-linejoin:miter;"/>
   </g>
   <g id="patch_60">
    <path clip-path="url(#p95a9a4ae6c)" d="M 882.302922 643.203 
L 892.228223 643.203 
L 892.228223 552.321448 
L 882.302922 552.321448 
z
" style="fill:#ffa500;stroke:#000000;stroke-linejoin:miter;"/>
   </g>
   <g id="patch_61">
    <path clip-path="url(#p95a9a4ae6c)" d="M 894.709548 643.203 
L 904.634849 643.203 
L 904.634849 365.775104 
L 894.709548 365.775104 
z
" style="fill:#ffa500;stroke:#000000;stroke-linejoin:miter;"/>
   </g>
   <g id="patch_62">
    <path clip-path="url(#p95a9a4ae6c)" d="M 907.116174 643.203 
L 917.041474 643.203 
L 917.041474 590.587365 
L 907.116174 590.587365 
z
" style="fill:#ffa500;stroke:#000000;stroke-linejoin:miter;"/>
   </g>
   <g id="patch_63">
    <path clip-path="url(#p95a9a4ae6c)" d="M 919.522799 643.203 
L 929.4481 643.203 
L 929.4481 490.139333 
L 919.522799 490.139333 
z
" style="fill:#ffa500;stroke:#000000;stroke-linejoin:miter;"/>
   </g>
   <g id="patch_64">
    <path clip-path="url(#p95a9a4ae6c)" d="M 931.929425 643.203 
L 941.854726 643.203 
L 941.854726 408.82426 
L 931.929425 408.82426 
z
" style="fill:#ffa500;stroke:#000000;stroke-linejoin:miter;"/>
   </g>
   <g id="patch_65">
    <path clip-path="url(#p95a9a4ae6c)" d="M 944.336051 643.203 
L 954.261351 643.203 
L 954.261351 552.321448 
L 944.336051 552.321448 
z
" style="fill:#ffa500;stroke:#000000;stroke-linejoin:miter;"/>
   </g>
   <g id="patch_66">
    <path clip-path="url(#p95a9a4ae6c)" d="M 956.742677 643.203 
L 966.667977 643.203 
L 966.667977 399.257781 
L 956.742677 399.257781 
z
" style="fill:#ffa500;stroke:#000000;stroke-linejoin:miter;"/>
   </g>
   <g id="patch_67">
    <path clip-path="url(#p95a9a4ae6c)" d="M 969.149302 643.203 
L 979.074603 643.203 
L 979.074603 557.104687 
L 969.149302 557.104687 
z
" style="fill:#ffa500;stroke:#000000;stroke-linejoin:miter;"/>
   </g>
   <g id="patch_68">
    <path clip-path="url(#p95a9a4ae6c)" d="M 981.555928 643.203 
L 991.481229 643.203 
L 991.481229 581.020885 
L 981.555928 581.020885 
z
" style="fill:#ffa500;stroke:#000000;stroke-linejoin:miter;"/>
   </g>
   <g id="patch_69">
    <path clip-path="url(#p95a9a4ae6c)" d="M 993.962554 643.203 
L 1003.887854 643.203 
L 1003.887854 509.272292 
L 993.962554 509.272292 
z
" style="fill:#ffa500;stroke:#000000;stroke-linejoin:miter;"/>
   </g>
   <g id="patch_70">
    <path clip-path="url(#p95a9a4ae6c)" d="M 1006.369179 643.203 
L 1016.29448 643.203 
L 1016.29448 595.370604 
L 1006.369179 595.370604 
z
" style="fill:#ffa500;stroke:#000000;stroke-linejoin:miter;"/>
   </g>
   <g id="patch_71">
    <path clip-path="url(#p95a9a4ae6c)" d="M 1018.775805 643.203 
L 1028.701106 643.203 
L 1028.701106 437.523698 
L 1018.775805 437.523698 
z
" style="fill:#ffa500;stroke:#000000;stroke-linejoin:miter;"/>
   </g>
   <g id="patch_72">
    <path clip-path="url(#p95a9a4ae6c)" d="M 1031.182431 643.203 
L 1041.107731 643.203 
L 1041.107731 643.203 
L 1031.182431 643.203 
z
" style="fill:#ffa500;stroke:#000000;stroke-linejoin:miter;"/>
   </g>
   <g id="patch_73">
    <path clip-path="url(#p95a9a4ae6c)" d="M 1043.589057 643.203 
L 1053.514357 643.203 
L 1053.514357 255.760594 
L 1043.589057 255.760594 
z
" style="fill:#ffa500;stroke:#000000;stroke-linejoin:miter;"/>
   </g>
   <g id="patch_74">
    <path clip-path="url(#p95a9a4ae6c)" d="M 1055.995682 643.203 
L 1065.920983 643.203 
L 1065.920983 595.370604 
L 1055.995682 595.370604 
z
" style="fill:#ffa500;stroke:#000000;stroke-linejoin:miter;"/>
   </g>
   <g id="patch_75">
    <path clip-path="url(#p95a9a4ae6c)" d="M 1068.402308 643.203 
L 1078.327609 643.203 
L 1078.327609 542.754969 
L 1068.402308 542.754969 
z
" style="fill:#ffa500;stroke:#000000;stroke-linejoin:miter;"/>
   </g>
   <g id="patch_76">
    <path clip-path="url(#p95a9a4ae6c)" d="M 1080.808934 643.203 
L 1090.734234 643.203 
L 1090.734234 528.40525 
L 1080.808934 528.40525 
z
" style="fill:#ffa500;stroke:#000000;stroke-linejoin:miter;"/>
   </g>
   <g id="patch_77">
    <path clip-path="url(#p95a9a4ae6c)" d="M 1093.215559 643.203 
L 1103.14086 643.203 
L 1103.14086 614.503562 
L 1093.215559 614.503562 
z
" style="fill:#ffa500;stroke:#000000;stroke-linejoin:miter;"/>
   </g>
   <g id="patch_78">
    <path clip-path="url(#p95a9a4ae6c)" d="M 1105.622185 643.203 
L 1115.547486 643.203 
L 1115.547486 600.153844 
L 1105.622185 600.153844 
z
" style="fill:#ffa500;stroke:#000000;stroke-linejoin:miter;"/>
   </g>
   <g id="patch_79">
    <path clip-path="url(#p95a9a4ae6c)" d="M 1118.028811 643.203 
L 1127.954111 643.203 
L 1127.954111 499.705812 
L 1118.028811 499.705812 
z
" style="fill:#ffa500;stroke:#000000;stroke-linejoin:miter;"/>
   </g>
   <g id="patch_80">
    <path clip-path="url(#p95a9a4ae6c)" d="M 1130.435437 643.203 
L 1140.360737 643.203 
L 1140.360737 566.671167 
L 1130.435437 566.671167 
z
" style="fill:#ffa500;stroke:#000000;stroke-linejoin:miter;"/>
   </g>
   <g id="patch_81">
    <path clip-path="url(#p95a9a4ae6c)" d="M 1142.842062 643.203 
L 1152.767363 643.203 
L 1152.767363 533.18849 
L 1142.842062 533.18849 
z
" style="fill:#ffa500;stroke:#000000;stroke-linejoin:miter;"/>
   </g>
   <g id="patch_82">
    <path clip-path="url(#p95a9a4ae6c)" d="M 1155.248688 643.203 
L 1165.173989 643.203 
L 1165.173989 619.286802 
L 1155.248688 619.286802 
z
" style="fill:#ffa500;stroke:#000000;stroke-linejoin:miter;"/>
   </g>
   <g id="patch_83">
    <path clip-path="url(#p95a9a4ae6c)" d="M 1167.655314 643.203 
L 1177.580614 643.203 
L 1177.580614 442.306938 
L 1167.655314 442.306938 
z
" style="fill:#ffa500;stroke:#000000;stroke-linejoin:miter;"/>
   </g>
   <g id="patch_84">
    <path clip-path="url(#p95a9a4ae6c)" d="M 1180.061939 643.203 
L 1189.98724 643.203 
L 1189.98724 619.286802 
L 1180.061939 619.286802 
z
" style="fill:#ffa500;stroke:#000000;stroke-linejoin:miter;"/>
   </g>
   <g id="patch_85">
    <path clip-path="url(#p95a9a4ae6c)" d="M 1192.468565 643.203 
L 1202.393866 643.203 
L 1202.393866 619.286802 
L 1192.468565 619.286802 
z
" style="fill:#ffa500;stroke:#000000;stroke-linejoin:miter;"/>
   </g>
   <g id="patch_86">
    <path clip-path="url(#p95a9a4ae6c)" d="M 1204.875191 643.203 
L 1214.800491 643.203 
L 1214.800491 523.62201 
L 1204.875191 523.62201 
z
" style="fill:#ffa500;stroke:#000000;stroke-linejoin:miter;"/>
   </g>
   <g id="patch_87">
    <path clip-path="url(#p95a9a4ae6c)" d="M 1217.281817 643.203 
L 1227.207117 643.203 
L 1227.207117 633.636521 
L 1217.281817 633.636521 
z
" style="fill:#ffa500;stroke:#000000;stroke-linejoin:miter;"/>
   </g>
   <g id="patch_88">
    <path clip-path="url(#p95a9a4ae6c)" d="M 1229.688442 643.203 
L 1239.613743 643.203 
L 1239.613743 614.503562 
L 1229.688442 614.503562 
z
" style="fill:#ffa500;stroke:#000000;stroke-linejoin:miter;"/>
   </g>
   <g id="patch_89">
    <path clip-path="url(#p95a9a4ae6c)" d="M 1242.095068 643.203 
L 1252.020369 643.203 
L 1252.020369 561.887927 
L 1242.095068 561.887927 
z
" style="fill:#ffa500;stroke:#000000;stroke-linejoin:miter;"/>
   </g>
   <g id="patch_90">
    <path clip-path="url(#p95a9a4ae6c)" d="M 1254.501694 643.203 
L 1264.426994 643.203 
L 1264.426994 609.720323 
L 1254.501694 609.720323 
z
" style="fill:#ffa500;stroke:#000000;stroke-linejoin:miter;"/>
   </g>
   <g id="patch_91">
    <path clip-path="url(#p95a9a4ae6c)" d="M 1266.908319 643.203 
L 1276.83362 643.203 
L 1276.83362 595.370604 
L 1266.908319 595.370604 
z
" style="fill:#ffa500;stroke:#000000;stroke-linejoin:miter;"/>
   </g>
   <g id="patch_92">
    <path clip-path="url(#p95a9a4ae6c)" d="M 1279.314945 643.203 
L 1289.240246 643.203 
L 1289.240246 619.286802 
L 1279.314945 619.286802 
z
" style="fill:#ffa500;stroke:#000000;stroke-linejoin:miter;"/>
   </g>
   <g id="patch_93">
    <path clip-path="url(#p95a9a4ae6c)" d="M 1291.721571 643.203 
L 1301.646871 643.203 
L 1301.646871 590.587365 
L 1291.721571 590.587365 
z
" style="fill:#ffa500;stroke:#000000;stroke-linejoin:miter;"/>
   </g>
   <g id="patch_94">
    <path clip-path="url(#p95a9a4ae6c)" d="M 1304.128197 643.203 
L 1314.053497 643.203 
L 1314.053497 633.636521 
L 1304.128197 633.636521 
z
" style="fill:#ffa500;stroke:#000000;stroke-linejoin:miter;"/>
   </g>
   <g id="patch_95">
    <path clip-path="url(#p95a9a4ae6c)" d="M 1316.534822 643.203 
L 1326.460123 643.203 
L 1326.460123 633.636521 
L 1316.534822 633.636521 
z
" style="fill:#ffa500;stroke:#000000;stroke-linejoin:miter;"/>
   </g>
   <g id="patch_96">
    <path clip-path="url(#p95a9a4ae6c)" d="M 1328.941448 643.203 
L 1338.866749 643.203 
L 1338.866749 633.636521 
L 1328.941448 633.636521 
z
" style="fill:#ffa500;stroke:#000000;stroke-linejoin:miter;"/>
   </g>
   <g id="patch_97">
    <path clip-path="url(#p95a9a4ae6c)" d="M 1341.348074 643.203 
L 1351.273374 643.203 
L 1351.273374 624.070042 
L 1341.348074 624.070042 
z
" style="fill:#ffa500;stroke:#000000;stroke-linejoin:miter;"/>
   </g>
   <g id="patch_98">
    <path clip-path="url(#p95a9a4ae6c)" d="M 1353.754699 643.203 
L 1363.68 643.203 
L 1363.68 633.636521 
L 1353.754699 633.636521 
z
" style="fill:#ffa500;stroke:#000000;stroke-linejoin:miter;"/>
   </g>
   <g id="patch_99">
    <path d="M 63.465625 643.203 
L 63.465625 69.21425 
" style="fill:none;stroke:#000000;stroke-linecap:square;stroke-linejoin:miter;"/>
   </g>
   <g id="patch_100">
    <path d="M 1363.68 643.203 
L 1363.68 69.21425 
" style="fill:none;stroke:#000000;stroke-linecap:square;stroke-linejoin:miter;"/>
   </g>
   <g id="patch_101">
    <path d="M 63.465625 643.203 
L 1363.68 643.203 
" style="fill:none;stroke:#000000;stroke-linecap:square;stroke-linejoin:miter;"/>
   </g>
   <g id="patch_102">
    <path d="M 63.465625 69.21425 
L 1363.68 69.21425 
" style="fill:none;stroke:#000000;stroke-linecap:square;stroke-linejoin:miter;"/>
   </g>
   <g id="matplotlib.axis_1">
    <g id="xtick_1">
     <g id="line2d_1">
      <defs>
       <path d="M 0 0 
L 0 -4 
" id="m56b639a88c" style="stroke:#000000;stroke-width:0.5;"/>
      </defs>
      <g>
       <use style="stroke:#000000;stroke-width:0.5;" x="366.187292" xlink:href="#m56b639a88c" y="643.203"/>
      </g>
     </g>
     <g id="line2d_2">
      <defs>
       <path d="M 0 0 
L 0 4 
" id="m6976645c60" style="stroke:#000000;stroke-width:0.5;"/>
      </defs>
      <g>
       <use style="stroke:#000000;stroke-width:0.5;" x="366.187292" xlink:href="#m6976645c60" y="69.21425"/>
      </g>
     </g>
     <g id="text_1">
      <!--  -->
      <g transform="translate(366.187292 661.918625)scale(0.2 -0.2)"/>
      <!--  -->
      <g transform="translate(366.187292 684.32425)scale(0.2 -0.2)"/>
      <!--  -->
      <g transform="translate(366.187292 706.729875)scale(0.2 -0.2)"/>
      <!-- Sep -->
      <g transform="translate(350.702917 729.1355)scale(0.2 -0.2)">
       <defs>
        <path d="M 37.109375 63.921875 
Q 31.984375 65.625 27.6875 65.625 
Q 21.234375 65.625 17.40625 62.5 
Q 13.578125 59.375 13.578125 53.8125 
Q 13.578125 50.640625 14.921875 48.234375 
Q 16.265625 45.84375 18.53125 44.03125 
Q 20.796875 42.234375 23.671875 40.8125 
Q 26.5625 39.40625 29.640625 38.03125 
Q 33.015625 36.578125 36.1875 34.9375 
Q 39.359375 33.296875 41.921875 31.09375 
Q 44.484375 28.90625 46.015625 25.828125 
Q 47.5625 22.75 47.5625 18.65625 
Q 47.5625 8.9375 40.75 3.8125 
Q 33.9375 -1.3125 21.875 -1.3125 
Q 14.109375 -1.3125 4.6875 1.3125 
L 4.390625 1.703125 
L 6.78125 18.3125 
L 8.984375 18.65625 
L 12.40625 4.78125 
Q 17.578125 2.734375 23 2.734375 
Q 30.28125 2.734375 34.34375 5.953125 
Q 38.421875 9.1875 38.421875 15.140625 
Q 38.421875 18.265625 37.109375 20.625 
Q 35.796875 23 33.5625 24.703125 
Q 31.34375 26.421875 28.515625 27.8125 
Q 25.6875 29.203125 22.65625 30.5625 
Q 19.234375 32.03125 16.015625 33.734375 
Q 12.796875 35.453125 10.171875 37.71875 
Q 7.5625 39.984375 6 43.28125 
Q 4.4375 46.578125 4.4375 50.984375 
Q 4.4375 59.8125 11.046875 64.640625 
Q 17.671875 69.484375 28.609375 69.484375 
Q 36.328125 69.484375 44.78125 67.671875 
L 45.125 67.328125 
L 42.234375 52.09375 
L 40.28125 51.765625 
z
" id="Constantia-83"/>
        <path d="M 44.046875 3.46875 
Q 39.890625 0.875 35.5 -0.25 
Q 31.109375 -1.375 27.34375 -1.375 
Q 16.609375 -1.375 10.203125 4.75 
Q 3.8125 10.890625 3.8125 21.78125 
Q 3.8125 32.625 9.9375 39.5 
Q 16.0625 46.390625 26.3125 46.390625 
Q 34.90625 46.390625 39.6875 41.234375 
Q 44.484375 36.078125 44.484375 27 
Q 44.484375 25.640625 44.34375 24.21875 
L 13.375 24.21875 
Q 13.375 13.71875 18.3125 9.203125 
Q 23.25 4.6875 33.734375 4.6875 
Q 38.421875 4.6875 43.75 5.5625 
z
M 34.765625 28.265625 
L 34.765625 29.734375 
Q 34.765625 36.671875 32.546875 39.640625 
Q 30.328125 42.625 25.921875 42.625 
Q 20.125 42.625 17.046875 38.421875 
Q 13.96875 34.234375 13.578125 28.265625 
z
" id="Constantia-101"/>
        <path d="M 2.09375 41.3125 
L 1.859375 42.96875 
Q 10.0625 44.53125 17.328125 46.390625 
L 17.828125 46.046875 
L 17.828125 41.265625 
Q 25.296875 46.390625 32.28125 46.390625 
Q 41.359375 46.390625 46.703125 40.3125 
Q 52.046875 34.234375 52.046875 24.515625 
Q 52.046875 12.546875 45.15625 5.578125 
Q 38.28125 -1.375 25.640625 -1.375 
Q 21.875 -1.375 17.828125 -0.640625 
L 17.828125 -11.328125 
Q 17.828125 -16.21875 17.921875 -18.171875 
Q 18.015625 -19.625 19.234375 -19.921875 
L 25.640625 -21.734375 
L 25.78125 -23.734375 
Q 18.171875 -23.578125 13.375 -23.578125 
Q 8.59375 -23.578125 2.046875 -23.734375 
L 1.859375 -21.734375 
L 7.46875 -20.0625 
Q 8.640625 -19.734375 8.6875 -18.5625 
Q 8.796875 -14.984375 8.796875 -7.765625 
L 8.796875 12.109375 
Q 8.796875 33.734375 8.59375 39.453125 
z
M 17.828125 3.765625 
Q 22.078125 2.828125 26.03125 2.828125 
Q 34.125 2.828125 38.21875 7.90625 
Q 42.328125 12.984375 42.328125 22.46875 
Q 42.328125 31.390625 38.421875 35.9375 
Q 34.515625 40.484375 27.203125 40.484375 
Q 21.921875 40.484375 17.828125 38.328125 
z
" id="Constantia-112"/>
       </defs>
       <use xlink:href="#Constantia-83"/>
       <use x="50.976562" xlink:href="#Constantia-101"/>
       <use x="98.876953" xlink:href="#Constantia-112"/>
      </g>
      <!-- 2020 -->
      <g transform="translate(345.727917 751.541125)scale(0.2 -0.2)">
       <defs>
        <path d="M 42.390625 15.484375 
L 44.53125 15.875 
L 43.5625 0.203125 
L 43.21875 -0.140625 
Q 33.25 0 22.359375 0 
Q 12.25 0 3.765625 -0.140625 
L 3.421875 3.859375 
Q 8.015625 6.84375 11.671875 9.375 
Q 15.328125 11.921875 18.015625 14.109375 
Q 20.703125 16.265625 22.75 18.21875 
Q 24.8125 20.171875 26.203125 22.09375 
Q 27.59375 24.03125 28.3125 26.03125 
Q 29.046875 28.03125 29.046875 30.21875 
Q 29.046875 34.71875 25.78125 37.34375 
Q 22.515625 39.984375 17.78125 39.984375 
Q 12.203125 39.984375 6.546875 36.96875 
L 4.6875 40.1875 
Q 13.8125 46.390625 23 46.390625 
Q 29.890625 46.390625 34.453125 43.046875 
Q 39.015625 39.703125 39.015625 33.734375 
Q 39.015625 30.03125 37.34375 26.828125 
Q 35.6875 23.640625 32.515625 20.5625 
Q 29.34375 17.484375 24.75 14.328125 
Q 20.171875 11.1875 14.265625 7.671875 
L 14.3125 7.421875 
L 38.578125 7.421875 
z
" id="Constantia-50"/>
        <path d="M 13.671875 23.296875 
Q 13.671875 13.625 17.15625 8.109375 
Q 20.65625 2.59375 27.203125 2.59375 
Q 33.84375 2.59375 37.015625 7.515625 
Q 40.1875 12.453125 40.1875 22.609375 
Q 40.1875 32.5625 36.71875 37.609375 
Q 33.25 42.671875 26.65625 42.671875 
Q 19.921875 42.671875 16.796875 37.84375 
Q 13.671875 33.015625 13.671875 23.296875 
z
M 49.953125 23.6875 
Q 49.953125 12.25 43.4375 5.484375 
Q 36.921875 -1.265625 26.421875 -1.265625 
Q 16.3125 -1.265625 10.109375 4.9375 
Q 3.90625 11.140625 3.90625 22.015625 
Q 3.90625 33.203125 10.390625 39.796875 
Q 16.890625 46.390625 27.484375 46.390625 
Q 37.796875 46.390625 43.875 40.375 
Q 49.953125 34.375 49.953125 23.6875 
z
" id="Constantia-48"/>
       </defs>
       <use xlink:href="#Constantia-50"/>
       <use x="48.4375" xlink:href="#Constantia-48"/>
       <use x="102.294922" xlink:href="#Constantia-50"/>
       <use x="150.732422" xlink:href="#Constantia-48"/>
      </g>
     </g>
    </g>
    <g id="xtick_2">
     <g id="line2d_3">
      <g>
       <use style="stroke:#000000;stroke-width:0.5;" x="738.386064" xlink:href="#m56b639a88c" y="643.203"/>
      </g>
     </g>
     <g id="line2d_4">
      <g>
       <use style="stroke:#000000;stroke-width:0.5;" x="738.386064" xlink:href="#m6976645c60" y="69.21425"/>
      </g>
     </g>
     <g id="text_2">
      <!--  -->
      <g transform="translate(738.386064 661.918625)scale(0.2 -0.2)"/>
      <!--  -->
      <g transform="translate(738.386064 684.32425)scale(0.2 -0.2)"/>
      <!--  -->
      <g transform="translate(738.386064 706.729875)scale(0.2 -0.2)"/>
      <!-- Oct -->
      <g transform="translate(722.200126 729.1355)scale(0.2 -0.2)">
       <defs>
        <path d="M 15.578125 35.015625 
Q 15.578125 19.09375 22.015625 10.625 
Q 28.46875 2.15625 40.921875 2.15625 
Q 53.171875 2.15625 59 9.84375 
Q 64.84375 17.53125 64.84375 33.984375 
Q 64.84375 49.421875 58.640625 57.71875 
Q 52.4375 66.015625 39.5 66.015625 
Q 26.953125 66.015625 21.265625 58.328125 
Q 15.578125 50.640625 15.578125 35.015625 
z
M 75.59375 35.640625 
Q 75.59375 18.75 65.984375 8.46875 
Q 56.390625 -1.8125 39.15625 -1.8125 
Q 22.796875 -1.8125 13.84375 7.6875 
Q 4.890625 17.1875 4.890625 33.40625 
Q 4.890625 50.296875 14.53125 60.125 
Q 24.171875 69.96875 41.265625 69.96875 
Q 57.671875 69.96875 66.625 60.765625 
Q 75.59375 51.5625 75.59375 35.640625 
z
" id="Constantia-79"/>
        <path d="M 42.96875 3.46875 
Q 39.9375 1.421875 35.46875 0.015625 
Q 31 -1.375 26.609375 -1.375 
Q 16.0625 -1.375 9.90625 4.796875 
Q 3.765625 10.984375 3.765625 21.296875 
Q 3.765625 32.46875 10.734375 39.421875 
Q 17.71875 46.390625 28.8125 46.390625 
Q 35.984375 46.390625 42.71875 43.453125 
Q 41.109375 36.921875 39.84375 30.078125 
L 37.9375 29.78125 
L 33.984375 41.5 
Q 31.734375 42.28125 28.90625 42.28125 
Q 21.625 42.28125 17.515625 37.203125 
Q 13.421875 32.125 13.421875 23.78125 
Q 13.421875 13.96875 18.0625 9.28125 
Q 22.703125 4.59375 32.765625 4.59375 
Q 37.40625 4.59375 42.671875 5.515625 
z
" id="Constantia-99"/>
        <path d="M 17.484375 39.9375 
Q 17.1875 23.4375 17.1875 13.328125 
Q 17.1875 8.25 18.703125 6.3125 
Q 20.21875 4.390625 24.46875 4.390625 
Q 27.828125 4.390625 33.25 5.28125 
L 33.546875 3.078125 
Q 25.09375 -1.171875 18.453125 -1.171875 
Q 13.140625 -1.171875 10.546875 1.6875 
Q 7.953125 4.546875 7.953125 10.296875 
Q 7.953125 19.78125 8.296875 40.234375 
L 1.5625 41.890625 
L 1.265625 43.890625 
L 8.796875 44.53125 
L 12.15625 56.34375 
Q 14.890625 57.078125 17.140625 57.765625 
L 17.625 57.421875 
Q 17.484375 51.515625 17.484375 46.390625 
L 17.484375 44.578125 
L 32.171875 44.578125 
L 32.171875 39.9375 
z
" id="Constantia-116"/>
       </defs>
       <use xlink:href="#Constantia-79"/>
       <use x="80.419922" xlink:href="#Constantia-99"/>
       <use x="126.5625" xlink:href="#Constantia-116"/>
      </g>
      <!-- 2020 -->
      <g transform="translate(717.926689 751.541125)scale(0.2 -0.2)">
       <use xlink:href="#Constantia-50"/>
       <use x="48.4375" xlink:href="#Constantia-48"/>
       <use x="102.294922" xlink:href="#Constantia-50"/>
       <use x="150.732422" xlink:href="#Constantia-48"/>
      </g>
     </g>
    </g>
    <g id="xtick_3">
     <g id="line2d_5">
      <g>
       <use style="stroke:#000000;stroke-width:0.5;" x="1122.991461" xlink:href="#m56b639a88c" y="643.203"/>
      </g>
     </g>
     <g id="line2d_6">
      <g>
       <use style="stroke:#000000;stroke-width:0.5;" x="1122.991461" xlink:href="#m6976645c60" y="69.21425"/>
      </g>
     </g>
     <g id="text_3">
      <!--  -->
      <g transform="translate(1122.991461 661.918625)scale(0.2 -0.2)"/>
      <!--  -->
      <g transform="translate(1122.991461 684.32425)scale(0.2 -0.2)"/>
      <!--  -->
      <g transform="translate(1122.991461 706.729875)scale(0.2 -0.2)"/>
      <!-- Nov -->
      <g transform="translate(1105.416461 729.1355)scale(0.2 -0.2)">
       <defs>
        <path d="M 16.65625 54.4375 
L 16.65625 14.984375 
Q 16.65625 9.234375 16.75 5.421875 
Q 16.796875 4.046875 17.96875 3.765625 
L 23.78125 2.046875 
L 23.875 -0.140625 
Q 17.78125 0 13.875 0 
Q 10.0625 0 3.765625 -0.140625 
L 3.5625 1.953125 
L 9.578125 3.765625 
Q 10.84375 4.15625 10.890625 5.28125 
Q 10.984375 9.234375 10.984375 14.984375 
L 10.984375 54.59375 
Q 10.984375 59.46875 10.890625 62.703125 
Q 10.84375 63.96875 9.71875 64.359375 
L 3.65625 66.265625 
L 3.5625 68.359375 
Q 9.859375 68.171875 13.53125 68.171875 
Q 15.71875 68.171875 17.96875 68.359375 
L 58.984375 17.140625 
L 58.984375 54.78125 
Q 58.984375 59.515625 58.890625 62.9375 
Q 58.84375 64.0625 57.625 64.453125 
L 51.859375 66.109375 
L 51.765625 68.359375 
Q 58.015625 68.171875 61.859375 68.171875 
Q 65.765625 68.171875 71.875 68.359375 
L 72.078125 66.265625 
L 65.921875 64.359375 
Q 64.796875 63.96875 64.75 62.703125 
Q 64.65625 59.46875 64.65625 54.59375 
L 64.65625 0 
L 60.546875 -0.390625 
z
" id="Constantia-78"/>
        <path d="M 13.71875 23.046875 
Q 13.71875 13.921875 17.140625 8.171875 
Q 20.5625 2.4375 27.296875 2.4375 
Q 33.59375 2.4375 36.890625 7.484375 
Q 40.1875 12.546875 40.1875 22.46875 
Q 40.1875 31.78125 36.71875 37.15625 
Q 33.25 42.53125 26.65625 42.53125 
Q 20.40625 42.53125 17.0625 37.6875 
Q 13.71875 32.859375 13.71875 23.046875 
z
M 50.140625 23.484375 
Q 50.140625 12.359375 43.421875 5.484375 
Q 36.71875 -1.375 26.375 -1.375 
Q 16.265625 -1.375 10.03125 5.09375 
Q 3.8125 11.578125 3.8125 22.015625 
Q 3.8125 32.765625 10.328125 39.578125 
Q 16.84375 46.390625 27.59375 46.390625 
Q 37.75 46.390625 43.9375 40.109375 
Q 50.140625 33.84375 50.140625 23.484375 
z
" id="Constantia-111"/>
        <path d="M -1.515625 45.265625 
Q 4.640625 45.125 9.421875 45.125 
Q 13.8125 45.125 19.96875 45.265625 
L 20.171875 43.265625 
L 14.5 41.703125 
Q 18.5 30.328125 23.78125 17.53125 
Q 25.140625 14.15625 26.21875 11.078125 
Q 27.296875 14.15625 28.71875 17.484375 
Q 33.15625 28.421875 38.03125 41.703125 
L 32.46875 43.265625 
L 32.28125 45.265625 
Q 36.234375 45.125 40.53125 45.125 
Q 44.921875 45.125 49.03125 45.265625 
L 49.21875 43.265625 
L 44.34375 41.84375 
Q 43.21875 41.453125 42.4375 39.9375 
Q 38.578125 31 33.46875 18.671875 
Q 28.375 6.34375 25.78125 -0.34375 
L 21.625 -0.78125 
Q 18.953125 6.296875 13.890625 18.59375 
Q 8.84375 30.90625 5.21875 39.703125 
Q 4.4375 41.40625 3.078125 41.890625 
L -1.421875 43.265625 
z
" id="Constantia-118"/>
       </defs>
       <use xlink:href="#Constantia-78"/>
       <use x="73.402344" xlink:href="#Constantia-111"/>
       <use x="127.455078" xlink:href="#Constantia-118"/>
      </g>
      <!-- 2020 -->
      <g transform="translate(1102.532086 751.541125)scale(0.2 -0.2)">
       <use xlink:href="#Constantia-50"/>
       <use x="48.4375" xlink:href="#Constantia-48"/>
       <use x="102.294922" xlink:href="#Constantia-50"/>
       <use x="150.732422" xlink:href="#Constantia-48"/>
      </g>
     </g>
    </g>
    <g id="xtick_4">
     <g id="line2d_7">
      <path clip-path="url(#p95a9a4ae6c)" d="M 80.834901 643.203 
L 80.834901 69.21425 
" style="fill:none;stroke:#000000;stroke-dasharray:1,3;stroke-dashoffset:0;stroke-width:0.5;"/>
     </g>
     <g id="line2d_8">
      <defs>
       <path d="M 0 0 
L 0 -2 
" id="mb27f320482" style="stroke:#000000;stroke-width:0.5;"/>
      </defs>
      <g>
       <use style="stroke:#000000;stroke-width:0.5;" x="80.834901" xlink:href="#mb27f320482" y="643.203"/>
      </g>
     </g>
     <g id="line2d_9">
      <defs>
       <path d="M 0 0 
L 0 2 
" id="meefc66c856" style="stroke:#000000;stroke-width:0.5;"/>
      </defs>
      <g>
       <use style="stroke:#000000;stroke-width:0.5;" x="80.834901" xlink:href="#meefc66c856" y="69.21425"/>
      </g>
     </g>
     <g id="text_4">
      <!-- 09 -->
      <g transform="translate(71.069901 660.447062)scale(0.18 -0.18)">
       <defs>
        <path d="M 8.640625 -19 
Q 20.90625 -16.796875 28.984375 -9.671875 
Q 37.0625 -2.546875 40.375 10.109375 
L 40.28125 10.15625 
Q 34.578125 3.65625 25.4375 3.65625 
Q 16.3125 3.65625 10.234375 9.484375 
Q 4.15625 15.328125 4.15625 24.3125 
Q 4.15625 33.6875 10.796875 40.03125 
Q 17.4375 46.390625 27.046875 46.390625 
Q 37.546875 46.390625 44.265625 38.75 
Q 50.984375 31.109375 50.984375 19.1875 
Q 50.984375 2.828125 39.578125 -8.59375 
Q 28.171875 -20.015625 9.328125 -22.46875 
z
M 14.0625 27.25 
Q 14.0625 18.5625 18.015625 13.28125 
Q 21.96875 8.015625 28.125 8.015625 
Q 34.234375 8.015625 37.453125 11.9375 
Q 40.671875 15.875 40.671875 22.90625 
Q 40.671875 31.453125 36.421875 37.15625 
Q 32.171875 42.875 26.21875 42.875 
Q 20.953125 42.875 17.5 38.640625 
Q 14.0625 34.421875 14.0625 27.25 
z
" id="Constantia-57"/>
       </defs>
       <use xlink:href="#Constantia-48"/>
       <use x="53.857422" xlink:href="#Constantia-57"/>
      </g>
      <!-- Sun -->
      <g transform="translate(65.883651 680.612125)scale(0.18 -0.18)">
       <defs>
        <path d="M 38.875 4.296875 
Q 31.25 -1.375 23.640625 -1.375 
Q 15.96875 -1.375 12.125 2.53125 
Q 8.296875 6.453125 8.296875 13.53125 
L 8.296875 23.875 
Q 8.296875 34.328125 8.109375 39.546875 
L 1.609375 41.3125 
L 1.375 42.96875 
Q 9.90625 44.53125 17.1875 46.390625 
L 17.625 46.046875 
Q 17.328125 40.328125 17.328125 31.34375 
L 17.328125 15.828125 
Q 17.328125 9.90625 20.109375 7.25 
Q 22.90625 4.59375 27.984375 4.59375 
Q 33.0625 4.59375 38.375 7.28125 
L 38.375 28.078125 
Q 38.375 34.90625 38.1875 39.546875 
L 31.734375 41.3125 
L 31.5 42.96875 
Q 39.984375 44.53125 47.265625 46.390625 
L 47.703125 46.046875 
Q 47.40625 40.1875 47.40625 31.0625 
Q 47.40625 13.328125 47.515625 9.421875 
Q 47.5625 7.421875 47.796875 6.203125 
Q 48.046875 4.984375 48.734375 4.3125 
Q 49.421875 3.65625 50.75 3.390625 
Q 52.09375 3.125 54.34375 3.078125 
L 54.59375 1.171875 
Q 52.34375 0.296875 49.40625 -0.5 
Q 46.484375 -1.3125 45.40625 -1.3125 
Q 40.484375 -1.3125 38.875 4.296875 
z
" id="Constantia-117"/>
        <path d="M 2.828125 42.96875 
Q 11.03125 44.53125 18.3125 46.390625 
L 18.796875 46.046875 
L 18.796875 40.375 
Q 27.296875 46.390625 34.625 46.390625 
Q 41.546875 46.390625 45.484375 42.5 
Q 49.421875 38.625 49.421875 31.5 
L 49.421875 14.265625 
Q 49.421875 8.15625 49.515625 5.21875 
Q 49.5625 3.90625 50.78125 3.515625 
L 56.203125 1.859375 
L 56.296875 -0.140625 
Q 49.859375 0 45.0625 0 
Q 40.28125 0 34.421875 -0.140625 
L 34.234375 1.859375 
L 39.109375 3.265625 
Q 40.234375 3.65625 40.328125 4.78125 
Q 40.375 5.46875 40.375 7.859375 
L 40.375 29.15625 
Q 40.375 35.15625 37.5 37.765625 
Q 34.625 40.375 29 40.375 
Q 24.078125 40.375 18.796875 37.546875 
L 18.796875 16.21875 
Q 18.796875 10.109375 18.890625 5.03125 
Q 18.953125 3.71875 20.015625 3.375 
L 25.09375 1.859375 
L 25.203125 -0.140625 
Q 19.140625 0 14.359375 0 
Q 9.578125 0 3.03125 -0.140625 
L 2.828125 1.859375 
L 8.59375 3.515625 
Q 9.671875 3.953125 9.71875 5.03125 
Q 9.765625 8.15625 9.765625 11.03125 
L 9.765625 27.6875 
Q 9.765625 34.078125 9.578125 39.546875 
L 3.078125 41.3125 
z
" id="Constantia-110"/>
       </defs>
       <use xlink:href="#Constantia-83"/>
       <use x="50.976562" xlink:href="#Constantia-117"/>
       <use x="107.910156" xlink:href="#Constantia-110"/>
      </g>
     </g>
    </g>
    <g id="xtick_5">
     <g id="line2d_10">
      <path clip-path="url(#p95a9a4ae6c)" d="M 167.681281 643.203 
L 167.681281 69.21425 
" style="fill:none;stroke:#000000;stroke-dasharray:1,3;stroke-dashoffset:0;stroke-width:0.5;"/>
     </g>
     <g id="line2d_11">
      <g>
       <use style="stroke:#000000;stroke-width:0.5;" x="167.681281" xlink:href="#mb27f320482" y="643.203"/>
      </g>
     </g>
     <g id="line2d_12">
      <g>
       <use style="stroke:#000000;stroke-width:0.5;" x="167.681281" xlink:href="#meefc66c856" y="69.21425"/>
      </g>
     </g>
     <g id="text_5">
      <!-- 16 -->
      <g transform="translate(159.994719 660.447062)scale(0.18 -0.18)">
       <defs>
        <path d="M 1.703125 40.625 
L 1.46875 42.671875 
Q 11.28125 44.140625 21.09375 45.90625 
L 21.53125 45.515625 
Q 20.953125 36.96875 20.953125 27.875 
L 20.953125 15.96875 
Q 20.953125 9.515625 21.046875 5.5625 
Q 21.09375 4.15625 22.40625 3.8125 
L 30.171875 1.8125 
L 30.328125 -0.140625 
Q 21.296875 0 16.5 0 
Q 11.71875 0 2.734375 -0.140625 
L 2.546875 1.8125 
L 10.5 3.8125 
Q 11.765625 4.15625 11.8125 5.375 
Q 11.921875 9.328125 11.921875 14.15625 
L 11.921875 22.265625 
Q 11.921875 32.078125 11.71875 39.65625 
z
" id="Constantia-49"/>
        <path d="M 47.125 64.546875 
Q 32.03125 61.53125 24.515625 53.9375 
Q 17 46.34375 14.796875 35.25 
L 14.890625 35.203125 
Q 20.796875 41.65625 30.21875 41.65625 
Q 38.96875 41.65625 44.9375 35.796875 
Q 50.921875 29.9375 50.921875 20.90625 
Q 50.921875 11.328125 44.375 5.03125 
Q 37.84375 -1.265625 28.125 -1.265625 
Q 17.390625 -1.265625 10.75 6.5 
Q 4.109375 14.265625 4.109375 26.515625 
Q 4.109375 41.546875 14.453125 53.125 
Q 24.8125 64.703125 46.4375 68.015625 
z
M 41.109375 18.0625 
Q 41.109375 26.609375 37.15625 31.953125 
Q 33.203125 37.3125 27.046875 37.3125 
Q 21.4375 37.3125 17.921875 33.328125 
Q 14.40625 29.34375 14.40625 22.515625 
Q 14.40625 14.15625 18.5 8.203125 
Q 22.609375 2.25 28.953125 2.25 
Q 34.46875 2.25 37.78125 6.8125 
Q 41.109375 11.375 41.109375 18.0625 
z
" id="Constantia-54"/>
       </defs>
       <use xlink:href="#Constantia-49"/>
       <use x="31.298828" xlink:href="#Constantia-54"/>
      </g>
      <!-- Sun -->
      <g transform="translate(152.730031 680.612125)scale(0.18 -0.18)">
       <use xlink:href="#Constantia-83"/>
       <use x="50.976562" xlink:href="#Constantia-117"/>
       <use x="107.910156" xlink:href="#Constantia-110"/>
      </g>
     </g>
    </g>
    <g id="xtick_6">
     <g id="line2d_13">
      <path clip-path="url(#p95a9a4ae6c)" d="M 254.527661 643.203 
L 254.527661 69.21425 
" style="fill:none;stroke:#000000;stroke-dasharray:1,3;stroke-dashoffset:0;stroke-width:0.5;"/>
     </g>
     <g id="line2d_14">
      <g>
       <use style="stroke:#000000;stroke-width:0.5;" x="254.527661" xlink:href="#mb27f320482" y="643.203"/>
      </g>
     </g>
     <g id="line2d_15">
      <g>
       <use style="stroke:#000000;stroke-width:0.5;" x="254.527661" xlink:href="#meefc66c856" y="69.21425"/>
      </g>
     </g>
     <g id="text_6">
      <!-- 23 -->
      <g transform="translate(246.059224 660.447062)scale(0.18 -0.18)">
       <defs>
        <path d="M 10.25 16.21875 
Q 19 17.140625 24.265625 20.75 
Q 29.546875 24.359375 29.546875 30.125 
Q 29.546875 34.71875 26.09375 37.59375 
Q 22.65625 40.484375 17.390625 40.484375 
Q 10.5 40.484375 3.46875 36.8125 
L 1.46875 40.046875 
Q 11.140625 46.390625 21.34375 46.390625 
Q 28.90625 46.390625 34.078125 42.75 
Q 39.265625 39.109375 39.265625 33.203125 
Q 39.265625 22.359375 23.25 17 
L 23.25 16.796875 
Q 32.421875 16.453125 37.5625 12.15625 
Q 42.71875 7.859375 42.71875 1.609375 
Q 42.71875 -8.5 31.96875 -15.140625 
Q 21.234375 -21.78125 1.03125 -22.46875 
L 0.484375 -18.84375 
Q 16.546875 -17.78125 24.53125 -12.625 
Q 32.515625 -7.46875 32.515625 0.25 
Q 32.515625 6.296875 28.359375 9.765625 
Q 24.21875 13.234375 16.84375 13.234375 
Q 13.96875 13.234375 10.59375 12.640625 
z
" id="Constantia-51"/>
       </defs>
       <use xlink:href="#Constantia-50"/>
       <use x="48.4375" xlink:href="#Constantia-51"/>
      </g>
      <!-- Sun -->
      <g transform="translate(239.576411 680.612125)scale(0.18 -0.18)">
       <use xlink:href="#Constantia-83"/>
       <use x="50.976562" xlink:href="#Constantia-117"/>
       <use x="107.910156" xlink:href="#Constantia-110"/>
      </g>
     </g>
    </g>
    <g id="xtick_7">
     <g id="line2d_16">
      <path clip-path="url(#p95a9a4ae6c)" d="M 341.374041 643.203 
L 341.374041 69.21425 
" style="fill:none;stroke:#000000;stroke-dasharray:1,3;stroke-dashoffset:0;stroke-width:0.5;"/>
     </g>
     <g id="line2d_17">
      <g>
       <use style="stroke:#000000;stroke-width:0.5;" x="341.374041" xlink:href="#mb27f320482" y="643.203"/>
      </g>
     </g>
     <g id="line2d_18">
      <g>
       <use style="stroke:#000000;stroke-width:0.5;" x="341.374041" xlink:href="#meefc66c856" y="69.21425"/>
      </g>
     </g>
     <g id="text_7">
      <!-- 30 -->
      <g transform="translate(332.417635 660.447062)scale(0.18 -0.18)">
       <use xlink:href="#Constantia-51"/>
       <use x="45.654297" xlink:href="#Constantia-48"/>
      </g>
      <!-- Sun -->
      <g transform="translate(326.422791 680.612125)scale(0.18 -0.18)">
       <use xlink:href="#Constantia-83"/>
       <use x="50.976562" xlink:href="#Constantia-117"/>
       <use x="107.910156" xlink:href="#Constantia-110"/>
      </g>
     </g>
    </g>
    <g id="xtick_8">
     <g id="line2d_19">
      <path clip-path="url(#p95a9a4ae6c)" d="M 428.220421 643.203 
L 428.220421 69.21425 
" style="fill:none;stroke:#000000;stroke-dasharray:1,3;stroke-dashoffset:0;stroke-width:0.5;"/>
     </g>
     <g id="line2d_20">
      <g>
       <use style="stroke:#000000;stroke-width:0.5;" x="428.220421" xlink:href="#mb27f320482" y="643.203"/>
      </g>
     </g>
     <g id="line2d_21">
      <g>
       <use style="stroke:#000000;stroke-width:0.5;" x="428.220421" xlink:href="#meefc66c856" y="69.21425"/>
      </g>
     </g>
     <g id="text_8">
      <!-- 06 -->
      <g transform="translate(418.503234 660.447062)scale(0.18 -0.18)">
       <use xlink:href="#Constantia-48"/>
       <use x="53.857422" xlink:href="#Constantia-54"/>
      </g>
      <!-- Sun -->
      <g transform="translate(413.269171 680.612125)scale(0.18 -0.18)">
       <use xlink:href="#Constantia-83"/>
       <use x="50.976562" xlink:href="#Constantia-117"/>
       <use x="107.910156" xlink:href="#Constantia-110"/>
      </g>
     </g>
    </g>
    <g id="xtick_9">
     <g id="line2d_22">
      <path clip-path="url(#p95a9a4ae6c)" d="M 515.066801 643.203 
L 515.066801 69.21425 
" style="fill:none;stroke:#000000;stroke-dasharray:1,3;stroke-dashoffset:0;stroke-width:0.5;"/>
     </g>
     <g id="line2d_23">
      <g>
       <use style="stroke:#000000;stroke-width:0.5;" x="515.066801" xlink:href="#mb27f320482" y="643.203"/>
      </g>
     </g>
     <g id="line2d_24">
      <g>
       <use style="stroke:#000000;stroke-width:0.5;" x="515.066801" xlink:href="#meefc66c856" y="69.21425"/>
      </g>
     </g>
     <g id="text_9">
      <!-- 13 -->
      <g transform="translate(508.14102 660.447062)scale(0.18 -0.18)">
       <use xlink:href="#Constantia-49"/>
       <use x="31.298828" xlink:href="#Constantia-51"/>
      </g>
      <!-- Sun -->
      <g transform="translate(500.115551 680.612125)scale(0.18 -0.18)">
       <use xlink:href="#Constantia-83"/>
       <use x="50.976562" xlink:href="#Constantia-117"/>
       <use x="107.910156" xlink:href="#Constantia-110"/>
      </g>
     </g>
    </g>
    <g id="xtick_10">
     <g id="line2d_25">
      <path clip-path="url(#p95a9a4ae6c)" d="M 601.913181 643.203 
L 601.913181 69.21425 
" style="fill:none;stroke:#000000;stroke-dasharray:1,3;stroke-dashoffset:0;stroke-width:0.5;"/>
     </g>
     <g id="line2d_26">
      <g>
       <use style="stroke:#000000;stroke-width:0.5;" x="601.913181" xlink:href="#mb27f320482" y="643.203"/>
      </g>
     </g>
     <g id="line2d_27">
      <g>
       <use style="stroke:#000000;stroke-width:0.5;" x="601.913181" xlink:href="#meefc66c856" y="69.21425"/>
      </g>
     </g>
     <g id="text_10">
      <!-- 20 -->
      <g transform="translate(592.706462 660.447062)scale(0.18 -0.18)">
       <use xlink:href="#Constantia-50"/>
       <use x="48.4375" xlink:href="#Constantia-48"/>
      </g>
      <!-- Sun -->
      <g transform="translate(586.961931 680.612125)scale(0.18 -0.18)">
       <use xlink:href="#Constantia-83"/>
       <use x="50.976562" xlink:href="#Constantia-117"/>
       <use x="107.910156" xlink:href="#Constantia-110"/>
      </g>
     </g>
    </g>
    <g id="xtick_11">
     <g id="line2d_28">
      <path clip-path="url(#p95a9a4ae6c)" d="M 688.759561 643.203 
L 688.759561 69.21425 
" style="fill:none;stroke:#000000;stroke-dasharray:1,3;stroke-dashoffset:0;stroke-width:0.5;"/>
     </g>
     <g id="line2d_29">
      <g>
       <use style="stroke:#000000;stroke-width:0.5;" x="688.759561" xlink:href="#mb27f320482" y="643.203"/>
      </g>
     </g>
     <g id="line2d_30">
      <g>
       <use style="stroke:#000000;stroke-width:0.5;" x="688.759561" xlink:href="#meefc66c856" y="69.21425"/>
      </g>
     </g>
     <g id="text_11">
      <!-- 27 -->
      <g transform="translate(680.049249 660.447062)scale(0.18 -0.18)">
       <defs>
        <path d="M 10.9375 -19.671875 
L 39.5 37.546875 
L 8.296875 37.546875 
L 5.46875 27.875 
L 3.515625 27.546875 
L 2.6875 44.921875 
L 3.03125 45.3125 
Q 8.796875 45.21875 14.265625 45.171875 
Q 19.734375 45.125 25 45.125 
L 27.734375 45.125 
Q 33.015625 45.125 37.84375 45.171875 
Q 42.671875 45.21875 47.171875 45.3125 
L 47.359375 43.21875 
Q 44.828125 37.984375 42.265625 32.46875 
Q 39.703125 26.953125 37.234375 21.3125 
Q 34.765625 15.671875 32.421875 10.125 
Q 30.078125 4.59375 28.03125 -0.65625 
Q 25.984375 -5.90625 24.25 -10.6875 
Q 22.515625 -15.484375 21.234375 -19.53125 
L 11.1875 -20.015625 
z
" id="Constantia-55"/>
       </defs>
       <use xlink:href="#Constantia-50"/>
       <use x="48.4375" xlink:href="#Constantia-55"/>
      </g>
      <!-- Sun -->
      <g transform="translate(673.808311 680.612125)scale(0.18 -0.18)">
       <use xlink:href="#Constantia-83"/>
       <use x="50.976562" xlink:href="#Constantia-117"/>
       <use x="107.910156" xlink:href="#Constantia-110"/>
      </g>
     </g>
    </g>
    <g id="xtick_12">
     <g id="line2d_31">
      <path clip-path="url(#p95a9a4ae6c)" d="M 775.605941 643.203 
L 775.605941 69.21425 
" style="fill:none;stroke:#000000;stroke-dasharray:1,3;stroke-dashoffset:0;stroke-width:0.5;"/>
     </g>
     <g id="line2d_32">
      <g>
       <use style="stroke:#000000;stroke-width:0.5;" x="775.605941" xlink:href="#mb27f320482" y="643.203"/>
      </g>
     </g>
     <g id="line2d_33">
      <g>
       <use style="stroke:#000000;stroke-width:0.5;" x="775.605941" xlink:href="#meefc66c856" y="69.21425"/>
      </g>
     </g>
     <g id="text_12">
      <!-- 04 -->
      <g transform="translate(765.981566 660.447062)scale(0.18 -0.18)">
       <defs>
        <path d="M 30.953125 35.015625 
Q 25.4375 28.8125 19.890625 21.78125 
Q 14.359375 14.75 8.984375 7.28125 
L 30.953125 7.28125 
z
M 39.984375 -5.71875 
Q 39.984375 -12.546875 40.234375 -19.53125 
Q 35.546875 -20.015625 31.34375 -20.796875 
L 30.859375 -20.40625 
Q 30.953125 -13.578125 30.953125 -6.5 
L 30.953125 2.4375 
L 18.796875 2.4375 
Q 12.109375 2.4375 2.546875 2.296875 
L 2.203125 5.859375 
Q 9.90625 16.0625 18.078125 26.234375 
Q 26.265625 36.421875 34.578125 46.046875 
L 40.28125 46.390625 
Q 39.984375 35.453125 39.984375 25.984375 
L 39.984375 7.28125 
L 51.171875 7.28125 
L 51.375 2.296875 
Q 46 2.4375 39.984375 2.4375 
z
" id="Constantia-52"/>
       </defs>
       <use xlink:href="#Constantia-48"/>
       <use x="53.857422" xlink:href="#Constantia-52"/>
      </g>
      <!-- Sun -->
      <g transform="translate(760.654691 680.612125)scale(0.18 -0.18)">
       <use xlink:href="#Constantia-83"/>
       <use x="50.976562" xlink:href="#Constantia-117"/>
       <use x="107.910156" xlink:href="#Constantia-110"/>
      </g>
     </g>
    </g>
    <g id="xtick_13">
     <g id="line2d_34">
      <path clip-path="url(#p95a9a4ae6c)" d="M 862.452321 643.203 
L 862.452321 69.21425 
" style="fill:none;stroke:#000000;stroke-dasharray:1,3;stroke-dashoffset:0;stroke-width:0.5;"/>
     </g>
     <g id="line2d_35">
      <g>
       <use style="stroke:#000000;stroke-width:0.5;" x="862.452321" xlink:href="#mb27f320482" y="643.203"/>
      </g>
     </g>
     <g id="line2d_36">
      <g>
       <use style="stroke:#000000;stroke-width:0.5;" x="862.452321" xlink:href="#meefc66c856" y="69.21425"/>
      </g>
     </g>
     <g id="text_13">
      <!-- 11 -->
      <g transform="translate(856.818884 660.447062)scale(0.18 -0.18)">
       <use xlink:href="#Constantia-49"/>
       <use x="31.298828" xlink:href="#Constantia-49"/>
      </g>
      <!-- Sun -->
      <g transform="translate(847.501071 680.612125)scale(0.18 -0.18)">
       <use xlink:href="#Constantia-83"/>
       <use x="50.976562" xlink:href="#Constantia-117"/>
       <use x="107.910156" xlink:href="#Constantia-110"/>
      </g>
     </g>
    </g>
    <g id="xtick_14">
     <g id="line2d_37">
      <path clip-path="url(#p95a9a4ae6c)" d="M 949.298701 643.203 
L 949.298701 69.21425 
" style="fill:none;stroke:#000000;stroke-dasharray:1,3;stroke-dashoffset:0;stroke-width:0.5;"/>
     </g>
     <g id="line2d_38">
      <g>
       <use style="stroke:#000000;stroke-width:0.5;" x="949.298701" xlink:href="#mb27f320482" y="643.203"/>
      </g>
     </g>
     <g id="line2d_39">
      <g>
       <use style="stroke:#000000;stroke-width:0.5;" x="949.298701" xlink:href="#meefc66c856" y="69.21425"/>
      </g>
     </g>
     <g id="text_14">
      <!-- 18 -->
      <g transform="translate(941.65292 660.447062)scale(0.18 -0.18)">
       <defs>
        <path d="M 19.09375 34.234375 
Q 12.0625 37.890625 9.5 41.546875 
Q 6.9375 45.21875 6.9375 50.09375 
Q 6.9375 57.421875 12.96875 62.171875 
Q 19 66.9375 27.984375 66.9375 
Q 36.078125 66.9375 41.375 63.125 
Q 46.6875 59.328125 46.6875 53.265625 
Q 46.6875 44.234375 33.84375 36.765625 
Q 43.609375 32.03125 47.09375 27.75 
Q 50.59375 23.484375 50.59375 17.578125 
Q 50.59375 9.421875 43.40625 4.078125 
Q 36.234375 -1.265625 26.265625 -1.265625 
Q 16.265625 -1.265625 9.90625 3.296875 
Q 3.5625 7.859375 3.5625 15.4375 
Q 3.5625 26.8125 19.09375 34.234375 
z
M 22.5625 32.421875 
Q 12.546875 26.703125 12.546875 16.609375 
Q 12.546875 10.203125 16.375 6.421875 
Q 20.21875 2.640625 26.90625 2.640625 
Q 33.015625 2.640625 37.140625 6.03125 
Q 41.265625 9.421875 41.265625 14.84375 
Q 41.265625 20.015625 37.5 23.75 
Q 33.734375 27.484375 22.5625 32.421875 
z
M 30.21875 38.625 
Q 37.984375 44.234375 37.984375 51.8125 
Q 37.984375 57.234375 34.859375 60.1875 
Q 31.734375 63.140625 26.609375 63.140625 
Q 21.4375 63.140625 18.140625 60.453125 
Q 14.84375 57.765625 14.84375 53.125 
Q 14.84375 48.484375 18.40625 45.40625 
Q 21.96875 42.328125 30.21875 38.625 
z
" id="Constantia-56"/>
       </defs>
       <use xlink:href="#Constantia-49"/>
       <use x="31.298828" xlink:href="#Constantia-56"/>
      </g>
      <!-- Sun -->
      <g transform="translate(934.347451 680.612125)scale(0.18 -0.18)">
       <use xlink:href="#Constantia-83"/>
       <use x="50.976562" xlink:href="#Constantia-117"/>
       <use x="107.910156" xlink:href="#Constantia-110"/>
      </g>
     </g>
    </g>
    <g id="xtick_15">
     <g id="line2d_40">
      <path clip-path="url(#p95a9a4ae6c)" d="M 1036.145081 643.203 
L 1036.145081 69.21425 
" style="fill:none;stroke:#000000;stroke-dasharray:1,3;stroke-dashoffset:0;stroke-width:0.5;"/>
     </g>
     <g id="line2d_41">
      <g>
       <use style="stroke:#000000;stroke-width:0.5;" x="1036.145081" xlink:href="#mb27f320482" y="643.203"/>
      </g>
     </g>
     <g id="line2d_42">
      <g>
       <use style="stroke:#000000;stroke-width:0.5;" x="1036.145081" xlink:href="#meefc66c856" y="69.21425"/>
      </g>
     </g>
     <g id="text_15">
      <!-- 25 -->
      <g transform="translate(1027.505081 660.447062)scale(0.18 -0.18)">
       <defs>
        <path d="M 6.453125 16.796875 
L 9.28125 45.3125 
Q 15.375 45.125 23.875 45.125 
Q 33.6875 45.125 42.28125 45.3125 
L 42.578125 44.921875 
L 41.359375 36.859375 
L 13.1875 37.546875 
L 11.8125 23.78125 
Q 15.96875 24.46875 19.625 24.46875 
Q 30.8125 24.46875 37.46875 19.046875 
Q 44.140625 13.625 44.140625 4.15625 
Q 44.140625 -7.953125 32.984375 -15.15625 
Q 21.828125 -22.359375 4.890625 -22.46875 
L 4.390625 -18.84375 
Q 17.71875 -18.359375 26.09375 -12.796875 
Q 34.46875 -7.234375 34.46875 2.203125 
Q 34.46875 9.46875 29.5625 13.46875 
Q 24.65625 17.484375 15.765625 17.484375 
Q 11.328125 17.484375 6.734375 16.453125 
z
" id="Constantia-53"/>
       </defs>
       <use xlink:href="#Constantia-50"/>
       <use x="48.4375" xlink:href="#Constantia-53"/>
      </g>
      <!-- Sun -->
      <g transform="translate(1021.193831 680.612125)scale(0.18 -0.18)">
       <use xlink:href="#Constantia-83"/>
       <use x="50.976562" xlink:href="#Constantia-117"/>
       <use x="107.910156" xlink:href="#Constantia-110"/>
      </g>
     </g>
    </g>
    <g id="xtick_16">
     <g id="line2d_43">
      <path clip-path="url(#p95a9a4ae6c)" d="M 1209.837841 643.203 
L 1209.837841 69.21425 
" style="fill:none;stroke:#000000;stroke-dasharray:1,3;stroke-dashoffset:0;stroke-width:0.5;"/>
     </g>
     <g id="line2d_44">
      <g>
       <use style="stroke:#000000;stroke-width:0.5;" x="1209.837841" xlink:href="#mb27f320482" y="643.203"/>
      </g>
     </g>
     <g id="line2d_45">
      <g>
       <use style="stroke:#000000;stroke-width:0.5;" x="1209.837841" xlink:href="#meefc66c856" y="69.21425"/>
      </g>
     </g>
     <g id="text_16">
      <!-- 08 -->
      <g transform="translate(1200.161435 660.447062)scale(0.18 -0.18)">
       <use xlink:href="#Constantia-48"/>
       <use x="53.857422" xlink:href="#Constantia-56"/>
      </g>
      <!-- Sun -->
      <g transform="translate(1194.886591 680.612125)scale(0.18 -0.18)">
       <use xlink:href="#Constantia-83"/>
       <use x="50.976562" xlink:href="#Constantia-117"/>
       <use x="107.910156" xlink:href="#Constantia-110"/>
      </g>
     </g>
    </g>
    <g id="xtick_17">
     <g id="line2d_46">
      <path clip-path="url(#p95a9a4ae6c)" d="M 1296.684221 643.203 
L 1296.684221 69.21425 
" style="fill:none;stroke:#000000;stroke-dasharray:1,3;stroke-dashoffset:0;stroke-width:0.5;"/>
     </g>
     <g id="line2d_47">
      <g>
       <use style="stroke:#000000;stroke-width:0.5;" x="1296.684221" xlink:href="#mb27f320482" y="643.203"/>
      </g>
     </g>
     <g id="line2d_48">
      <g>
       <use style="stroke:#000000;stroke-width:0.5;" x="1296.684221" xlink:href="#meefc66c856" y="69.21425"/>
      </g>
     </g>
     <g id="text_17">
      <!-- 15 -->
      <g transform="translate(1289.586877 660.447062)scale(0.18 -0.18)">
       <use xlink:href="#Constantia-49"/>
       <use x="31.298828" xlink:href="#Constantia-53"/>
      </g>
      <!-- Sun -->
      <g transform="translate(1281.732971 680.612125)scale(0.18 -0.18)">
       <use xlink:href="#Constantia-83"/>
       <use x="50.976562" xlink:href="#Constantia-117"/>
       <use x="107.910156" xlink:href="#Constantia-110"/>
      </g>
     </g>
    </g>
   </g>
   <g id="matplotlib.axis_2">
    <g id="ytick_1">
     <g id="line2d_49">
      <path clip-path="url(#p95a9a4ae6c)" d="M 63.465625 643.203 
L 1363.68 643.203 
" style="fill:none;stroke:#000000;stroke-dasharray:1,3;stroke-dashoffset:0;stroke-width:0.5;"/>
     </g>
     <g id="line2d_50">
      <defs>
       <path d="M 0 0 
L 4 0 
" id="m4df33565b6" style="stroke:#000000;stroke-width:0.5;"/>
      </defs>
      <g>
       <use style="stroke:#000000;stroke-width:0.5;" x="63.465625" xlink:href="#m4df33565b6" y="643.203"/>
      </g>
     </g>
     <g id="text_18">
      <!-- 0 -->
      <g transform="translate(48.69375 648.187375)scale(0.2 -0.2)">
       <use xlink:href="#Constantia-48"/>
      </g>
     </g>
    </g>
    <g id="ytick_2">
     <g id="line2d_51">
      <path clip-path="url(#p95a9a4ae6c)" d="M 63.465625 547.538208 
L 1363.68 547.538208 
" style="fill:none;stroke:#000000;stroke-dasharray:1,3;stroke-dashoffset:0;stroke-width:0.5;"/>
     </g>
     <g id="line2d_52">
      <g>
       <use style="stroke:#000000;stroke-width:0.5;" x="63.465625" xlink:href="#m4df33565b6" y="547.538208"/>
      </g>
     </g>
     <g id="text_19">
      <!-- 20 -->
      <g transform="translate(39.00625 552.522583)scale(0.2 -0.2)">
       <use xlink:href="#Constantia-50"/>
       <use x="48.4375" xlink:href="#Constantia-48"/>
      </g>
     </g>
    </g>
    <g id="ytick_3">
     <g id="line2d_53">
      <path clip-path="url(#p95a9a4ae6c)" d="M 63.465625 451.873417 
L 1363.68 451.873417 
" style="fill:none;stroke:#000000;stroke-dasharray:1,3;stroke-dashoffset:0;stroke-width:0.5;"/>
     </g>
     <g id="line2d_54">
      <g>
       <use style="stroke:#000000;stroke-width:0.5;" x="63.465625" xlink:href="#m4df33565b6" y="451.873417"/>
      </g>
     </g>
     <g id="text_20">
      <!-- 40 -->
      <g transform="translate(38.078125 456.857792)scale(0.2 -0.2)">
       <use xlink:href="#Constantia-52"/>
       <use x="53.076172" xlink:href="#Constantia-48"/>
      </g>
     </g>
    </g>
    <g id="ytick_4">
     <g id="line2d_55">
      <path clip-path="url(#p95a9a4ae6c)" d="M 63.465625 356.208625 
L 1363.68 356.208625 
" style="fill:none;stroke:#000000;stroke-dasharray:1,3;stroke-dashoffset:0;stroke-width:0.5;"/>
     </g>
     <g id="line2d_56">
      <g>
       <use style="stroke:#000000;stroke-width:0.5;" x="63.465625" xlink:href="#m4df33565b6" y="356.208625"/>
      </g>
     </g>
     <g id="text_21">
      <!-- 60 -->
      <g transform="translate(37.871875 361.193)scale(0.2 -0.2)">
       <use xlink:href="#Constantia-54"/>
       <use x="54.101562" xlink:href="#Constantia-48"/>
      </g>
     </g>
    </g>
    <g id="ytick_5">
     <g id="line2d_57">
      <path clip-path="url(#p95a9a4ae6c)" d="M 63.465625 260.543833 
L 1363.68 260.543833 
" style="fill:none;stroke:#000000;stroke-dasharray:1,3;stroke-dashoffset:0;stroke-width:0.5;"/>
     </g>
     <g id="line2d_58">
      <g>
       <use style="stroke:#000000;stroke-width:0.5;" x="63.465625" xlink:href="#m4df33565b6" y="260.543833"/>
      </g>
     </g>
     <g id="text_22">
      <!-- 80 -->
      <g transform="translate(37.9625 265.528208)scale(0.2 -0.2)">
       <use xlink:href="#Constantia-56"/>
       <use x="53.662109" xlink:href="#Constantia-48"/>
      </g>
     </g>
    </g>
    <g id="ytick_6">
     <g id="line2d_59">
      <path clip-path="url(#p95a9a4ae6c)" d="M 63.465625 164.879042 
L 1363.68 164.879042 
" style="fill:none;stroke:#000000;stroke-dasharray:1,3;stroke-dashoffset:0;stroke-width:0.5;"/>
     </g>
     <g id="line2d_60">
      <g>
       <use style="stroke:#000000;stroke-width:0.5;" x="63.465625" xlink:href="#m4df33565b6" y="164.879042"/>
      </g>
     </g>
     <g id="text_23">
      <!-- 100 -->
      <g transform="translate(31.6625 169.863417)scale(0.2 -0.2)">
       <use xlink:href="#Constantia-49"/>
       <use x="31.298828" xlink:href="#Constantia-48"/>
       <use x="85.15625" xlink:href="#Constantia-48"/>
      </g>
     </g>
    </g>
    <g id="ytick_7">
     <g id="line2d_61">
      <path clip-path="url(#p95a9a4ae6c)" d="M 63.465625 69.21425 
L 1363.68 69.21425 
" style="fill:none;stroke:#000000;stroke-dasharray:1,3;stroke-dashoffset:0;stroke-width:0.5;"/>
     </g>
     <g id="line2d_62">
      <g>
       <use style="stroke:#000000;stroke-width:0.5;" x="63.465625" xlink:href="#m4df33565b6" y="69.21425"/>
      </g>
     </g>
     <g id="text_24">
      <!-- 120 -->
      <g transform="translate(32.746875 74.198625)scale(0.2 -0.2)">
       <use xlink:href="#Constantia-49"/>
       <use x="31.298828" xlink:href="#Constantia-50"/>
       <use x="79.736328" xlink:href="#Constantia-48"/>
      </g>
     </g>
    </g>
    <g id="text_25">
     <!-- NewDeaths -->
     <g transform="translate(21.915625 406.132062)rotate(-90)scale(0.2 -0.2)">
      <defs>
       <path d="M -0.828125 45.265625 
Q 6.15625 45.125 9.515625 45.125 
Q 14.359375 45.125 20.453125 45.265625 
L 20.65625 43.265625 
L 14.890625 41.703125 
Q 18.171875 30.8125 23.140625 17.1875 
Q 24.21875 14.3125 25.140625 11.28125 
Q 26.078125 14.265625 27.15625 17.140625 
Q 31.0625 27.59375 33.0625 33.453125 
Q 35.0625 39.3125 36.921875 44.921875 
L 40.484375 45.3125 
Q 42.328125 39.40625 44.28125 33.5 
Q 46.234375 27.59375 49.90625 17.1875 
Q 51.078125 14.0625 51.859375 11.28125 
Q 52.78125 14.109375 53.953125 17.140625 
Q 59.375 30.859375 62.9375 41.75 
L 57.421875 43.3125 
L 57.234375 45.3125 
Q 61.140625 45.171875 65.53125 45.171875 
Q 69.875 45.171875 73.4375 45.3125 
L 73.6875 43.3125 
L 69.78125 42.234375 
Q 68.109375 41.75 67.328125 39.890625 
Q 62.75 28.8125 59.171875 19.890625 
Q 55.609375 10.984375 51.46875 -0.09375 
L 47.078125 -0.53125 
Q 44.09375 8.0625 42.109375 13.453125 
Q 40.140625 18.84375 37.84375 25.203125 
Q 36.859375 27.78125 36.1875 30.171875 
Q 35.40625 27.828125 34.421875 25.34375 
Q 31.9375 18.84375 29.8125 13.375 
Q 27.6875 7.90625 24.859375 -0.09375 
L 20.5625 -0.53125 
Q 16.40625 10.984375 12.984375 19.875 
Q 9.578125 28.765625 5.28125 39.9375 
Q 4.59375 41.75 2.78125 42.234375 
L -0.734375 43.265625 
z
" id="Constantia-119"/>
       <path d="M 17.09375 0 
Q 11.1875 0 4.984375 -0.140625 
L 4.78125 1.953125 
L 10.796875 3.765625 
Q 12.0625 4.15625 12.109375 5.28125 
Q 12.15625 7.234375 12.171875 9.640625 
Q 12.203125 12.0625 12.203125 14.984375 
L 12.203125 54.59375 
Q 12.203125 57.078125 12.171875 59.078125 
Q 12.15625 61.078125 12.109375 62.703125 
Q 12.0625 63.96875 10.9375 64.359375 
L 4.890625 66.265625 
L 4.78125 68.359375 
Q 11.078125 68.171875 17.046875 68.171875 
Q 21.921875 68.171875 26.453125 68.40625 
Q 31 68.65625 35.796875 68.65625 
Q 52.875 68.65625 61.46875 60.859375 
Q 70.0625 53.078125 70.0625 37.75 
Q 70.0625 19.671875 60.515625 9.6875 
Q 50.984375 -0.296875 33.734375 -0.296875 
Q 29 -0.296875 25.28125 -0.140625 
Q 21.578125 0 17.09375 0 
z
M 21.78125 4.34375 
Q 24.65625 3.953125 27.40625 3.828125 
Q 30.171875 3.71875 32.953125 3.71875 
Q 45.84375 3.71875 52.578125 11.296875 
Q 59.328125 18.890625 59.328125 34.578125 
Q 59.328125 49.8125 52.921875 57.15625 
Q 46.53125 64.5 32.671875 64.5 
Q 30.46875 64.5 27.796875 64.40625 
Q 25.140625 64.3125 21.78125 64.0625 
z
" id="Constantia-68"/>
       <path d="M 30.125 22.125 
Q 19.4375 22.125 15.53125 20.015625 
Q 11.625 17.921875 11.625 12.9375 
Q 11.625 8.296875 14.203125 6.359375 
Q 16.796875 4.4375 21.234375 4.4375 
Q 26.265625 4.4375 30.03125 6.15625 
z
M 6.453125 42.234375 
Q 15.96875 46.390625 23.296875 46.390625 
Q 30.765625 46.390625 34.9375 42.484375 
Q 39.109375 38.578125 39.0625 31.203125 
L 38.8125 10.890625 
Q 38.765625 8.40625 38.9375 6.890625 
Q 39.109375 5.375 39.8125 4.5625 
Q 40.53125 3.765625 41.9375 3.4375 
Q 43.359375 3.125 45.75 3.078125 
L 46 1.171875 
Q 43.890625 0.34375 40.859375 -0.484375 
Q 37.84375 -1.3125 36.765625 -1.3125 
Q 32.03125 -1.3125 30.28125 3.5625 
Q 23.4375 -1.375 17.390625 -1.375 
Q 10.59375 -1.375 6.46875 1.96875 
Q 2.34375 5.328125 2.34375 11.421875 
Q 2.34375 18.953125 9.046875 22.515625 
Q 15.765625 26.078125 30.125 26.078125 
L 30.171875 29.890625 
Q 30.21875 35.359375 27.390625 37.984375 
Q 24.5625 40.625 18.703125 40.625 
Q 14.265625 40.625 7.5625 38.96875 
z
" id="Constantia-97"/>
       <path d="M 2.484375 70.125 
Q 10.453125 71.6875 18.40625 73.578125 
L 18.84375 73.1875 
Q 18.609375 68.609375 18.578125 60.109375 
Q 18.5625 51.609375 18.5625 40.921875 
Q 27.046875 46.390625 34.375 46.390625 
Q 41.15625 46.390625 45.15625 42.59375 
Q 49.171875 38.8125 49.171875 31.5 
L 49.171875 14.265625 
Q 49.171875 8.640625 49.265625 5.21875 
Q 49.3125 3.953125 50.484375 3.515625 
L 55.953125 1.859375 
L 56.0625 -0.140625 
Q 49.609375 0 44.828125 0 
Q 40.046875 0 34.1875 -0.140625 
L 33.984375 1.859375 
L 38.8125 3.265625 
Q 39.984375 3.65625 40.09375 4.78125 
Q 40.140625 5.46875 40.140625 7.859375 
L 40.140625 29.15625 
Q 40.140625 35.15625 37.25 37.765625 
Q 34.375 40.375 28.765625 40.375 
Q 23.921875 40.375 18.5625 38.03125 
L 18.5625 16.109375 
Q 18.5625 10.0625 18.65625 5.03125 
Q 18.703125 3.65625 19.875 3.328125 
L 24.953125 1.859375 
L 25.046875 -0.140625 
Q 18.890625 0 14.109375 0 
Q 9.328125 0 2.78125 -0.140625 
L 2.59375 1.859375 
L 8.109375 3.46875 
Q 9.375 3.859375 9.421875 5.03125 
Q 9.515625 9.71875 9.515625 17 
L 9.515625 37.40625 
Q 9.515625 47.359375 9.484375 55.03125 
Q 9.46875 62.703125 9.328125 66.546875 
L 2.734375 68.5 
z
" id="Constantia-104"/>
       <path d="M 27.875 41.453125 
Q 25.046875 42.234375 21.734375 42.234375 
Q 17.140625 42.234375 14.328125 40.453125 
Q 11.53125 38.671875 11.53125 35.59375 
Q 11.53125 32.625 13.359375 30.90625 
Q 15.1875 29.203125 20.171875 27.546875 
L 24.171875 26.171875 
Q 30.90625 23.875 34.046875 20.921875 
Q 37.203125 17.96875 37.203125 13.1875 
Q 37.203125 6.390625 31.921875 2.5 
Q 26.65625 -1.375 18.609375 -1.375 
Q 11.1875 -1.375 3.421875 1.65625 
Q 5.078125 8.015625 6.109375 14.0625 
L 8.015625 14.359375 
L 11.53125 3.859375 
Q 14.3125 2.78125 18.609375 2.78125 
Q 23.140625 2.78125 25.84375 4.640625 
Q 28.5625 6.5 28.5625 9.859375 
Q 28.5625 12.984375 26.734375 14.796875 
Q 24.90625 16.609375 20.90625 17.921875 
L 15.828125 19.625 
Q 9.234375 21.828125 6.71875 24.921875 
Q 4.203125 28.03125 4.203125 32.625 
Q 4.203125 39.015625 9.0625 42.703125 
Q 13.921875 46.390625 21.875 46.390625 
Q 29.296875 46.390625 35.359375 44.234375 
Q 33.984375 38.671875 32.859375 32.46875 
L 31 32.125 
z
" id="Constantia-115"/>
      </defs>
      <use xlink:href="#Constantia-78"/>
      <use x="73.402344" xlink:href="#Constantia-101"/>
      <use x="121.302734" xlink:href="#Constantia-119"/>
      <use x="194.496094" xlink:href="#Constantia-68"/>
      <use x="269.59375" xlink:href="#Constantia-101"/>
      <use x="317.494141" xlink:href="#Constantia-97"/>
      <use x="365.492188" xlink:href="#Constantia-116"/>
      <use x="400.794922" xlink:href="#Constantia-104"/>
      <use x="458.753906" xlink:href="#Constantia-115"/>
     </g>
    </g>
   </g>
   <g id="legend_1">
    <g id="patch_103">
     <path d="M 1185.678652 103.421281 
L 1357.480214 103.421281 
L 1357.480214 76.71425 
L 1185.678652 76.71425 
z
" style="fill:#ffffff;stroke:#000000;stroke-linejoin:miter;"/>
    </g>
    <g id="line2d_63">
     <path d="M 1196.178652 88.500969 
L 1217.178652 88.500969 
" style="fill:none;stroke:#f08080;stroke-dasharray:6,6;stroke-dashoffset:0;stroke-width:3;"/>
    </g>
    <g id="line2d_64">
     <defs>
      <path d="M 0 3 
C 0.795609 3 1.55874 2.683901 2.12132 2.12132 
C 2.683901 1.55874 3 0.795609 3 0 
C 3 -0.795609 2.683901 -1.55874 2.12132 -2.12132 
C 1.55874 -2.683901 0.795609 -3 0 -3 
C -0.795609 -3 -1.55874 -2.683901 -2.12132 -2.12132 
C -2.683901 -1.55874 -3 -0.795609 -3 0 
C -3 0.795609 -2.683901 1.55874 -2.12132 2.12132 
C -1.55874 2.683901 -0.795609 3 0 3 
z
" id="m28d3c7a93c" style="stroke:#000000;stroke-width:0.5;"/>
     </defs>
     <g>
      <use style="fill:#f08080;stroke:#000000;stroke-width:0.5;" x="1196.178652" xlink:href="#m28d3c7a93c" y="88.500969"/>
      <use style="fill:#f08080;stroke:#000000;stroke-width:0.5;" x="1217.178652" xlink:href="#m28d3c7a93c" y="88.500969"/>
     </g>
    </g>
    <g id="text_26">
     <!-- 7 days moving avg -->
     <g transform="translate(1233.678652 93.750969)scale(0.15 -0.15)">
      <defs>
       <path id="Constantia-32"/>
       <path d="M 37.9375 41.015625 
Q 34.671875 42.046875 30.609375 42.046875 
Q 22.21875 42.046875 17.8125 37.28125 
Q 13.421875 32.515625 13.421875 22.859375 
Q 13.421875 14.5 17.328125 9.5 
Q 21.234375 4.5 28.375 4.5 
Q 32.953125 4.5 37.9375 7.03125 
z
M 30.90625 70.125 
Q 39.59375 71.78125 46.828125 73.578125 
L 47.265625 73.1875 
Q 46.96875 62.75 46.96875 50.734375 
L 46.96875 24.171875 
Q 46.96875 17.4375 47.015625 10.84375 
Q 47.015625 8.34375 47.1875 6.828125 
Q 47.359375 5.328125 48.046875 4.515625 
Q 48.734375 3.71875 50.078125 3.421875 
Q 51.421875 3.125 53.859375 3.078125 
L 54.109375 1.171875 
Q 51.953125 0.34375 48.953125 -0.484375 
Q 45.953125 -1.3125 44.875 -1.3125 
Q 39.9375 -1.3125 38.234375 4.25 
Q 30.671875 -1.375 23.53125 -1.375 
Q 14.5 -1.375 9.109375 5.046875 
Q 3.71875 11.46875 3.71875 20.84375 
Q 3.71875 32.953125 10.890625 39.59375 
Q 18.0625 46.234375 30.953125 46.234375 
Q 34.078125 46.234375 37.9375 45.5625 
Q 37.9375 56.34375 37.75 66.546875 
L 31.15625 68.5 
z
" id="Constantia-100"/>
       <path d="M -1.703125 45.265625 
Q 4.4375 45.125 9.234375 45.125 
Q 12.5 45.125 19.671875 45.265625 
L 19.875 43.265625 
L 14.15625 41.703125 
Q 15.96875 36.578125 18.359375 30.390625 
Q 20.75 24.21875 23.4375 17.53125 
Q 24.5625 14.75 25.875 11.140625 
Q 27.25 14.796875 28.8125 18.609375 
Q 31.109375 24.265625 33.25 29.75 
Q 35.40625 35.25 37.703125 41.703125 
L 32.125 43.265625 
L 31.9375 45.265625 
Q 35.546875 45.125 40.375 45.125 
Q 44.734375 45.125 48.828125 45.265625 
L 49.078125 43.265625 
L 44.53125 42 
Q 43.015625 41.5 42.328125 39.984375 
Q 40.53125 35.84375 38.421875 30.90625 
Q 31.984375 15.765625 28.65625 6.109375 
Q 26.421875 -0.4375 24.609375 -7.296875 
Q 22.796875 -14.15625 21.828125 -19.09375 
Q 21.390625 -21.484375 20.046875 -22.71875 
Q 18.703125 -23.96875 13.765625 -23.96875 
Q 8.734375 -23.96875 4 -23.640625 
L 3.765625 -21.734375 
Q 9.125 -20.90625 11.71875 -18.265625 
Q 14.84375 -14.890625 21.390625 -0.34375 
L 21.78125 0.59375 
L 21.09375 0.78125 
Q 12.15625 23.046875 4.9375 39.9375 
Q 4.296875 41.40625 2.6875 41.9375 
L -1.609375 43.265625 
z
" id="Constantia-121"/>
       <path d="M 47.65625 36.859375 
Q 48.34375 34.515625 48.34375 31.59375 
L 48.34375 14.15625 
Q 48.34375 8.453125 48.4375 4.984375 
Q 48.53125 3.65625 49.703125 3.265625 
L 54.640625 1.859375 
L 54.734375 -0.140625 
Q 48.78125 0 44 0 
Q 39.203125 0 33.34375 -0.140625 
L 33.15625 1.859375 
L 37.796875 3.21875 
Q 39.203125 3.71875 39.265625 4.78125 
Q 39.3125 5.46875 39.3125 7.859375 
L 39.3125 29.15625 
Q 39.3125 35.15625 36.578125 37.765625 
Q 33.84375 40.375 28.46875 40.375 
Q 23.734375 40.375 18.796875 37.546875 
L 18.796875 16.21875 
Q 18.796875 10.109375 18.890625 5.03125 
Q 18.953125 3.5625 19.921875 3.375 
L 25.09375 1.859375 
L 25.203125 -0.140625 
Q 19.140625 0 14.359375 0 
Q 9.578125 0 3.03125 -0.140625 
L 2.828125 1.859375 
L 8.453125 3.515625 
Q 9.671875 3.859375 9.71875 5.03125 
Q 9.765625 7.625 9.765625 11.03125 
L 9.765625 27.6875 
Q 9.765625 34.078125 9.578125 39.546875 
L 3.078125 41.3125 
L 2.828125 42.96875 
Q 10.890625 44.53125 18.265625 46.390625 
L 18.75 46.046875 
L 18.75 40.375 
Q 26.765625 46.390625 33.9375 46.390625 
Q 42.71875 46.390625 46.625 39.59375 
Q 54.34375 46.390625 63.375 46.390625 
Q 70.171875 46.390625 74 42.546875 
Q 77.828125 38.71875 77.828125 31.59375 
L 77.828125 14.3125 
Q 77.828125 8.15625 77.9375 5.21875 
Q 78.03125 3.90625 79.25 3.515625 
L 84.671875 1.859375 
L 84.765625 -0.140625 
Q 78.328125 0 73.53125 0 
Q 68.703125 0 62.890625 -0.140625 
L 62.703125 1.859375 
L 67.53125 3.265625 
Q 68.65625 3.65625 68.796875 4.78125 
Q 68.84375 5.46875 68.84375 7.859375 
L 68.84375 29.15625 
Q 68.84375 35.15625 66.0625 37.765625 
Q 63.28125 40.375 57.859375 40.375 
Q 52.390625 40.375 47.65625 36.859375 
z
" id="Constantia-109"/>
       <path d="M 19.34375 63.671875 
Q 19.34375 61.078125 17.71875 59.4375 
Q 16.109375 57.8125 13.578125 57.8125 
Q 11.140625 57.8125 9.59375 59.328125 
Q 8.0625 60.84375 8.0625 63.328125 
Q 8.0625 65.96875 9.671875 67.5 
Q 11.28125 69.046875 13.921875 69.046875 
Q 16.3125 69.046875 17.828125 67.65625 
Q 19.34375 66.265625 19.34375 63.671875 
z
M 2.828125 42.96875 
Q 11.375 44.578125 18.65625 46.390625 
L 19.09375 46.046875 
Q 18.796875 39.703125 18.796875 32.078125 
L 18.796875 13.328125 
Q 18.796875 7.46875 18.890625 5.21875 
Q 19 3.90625 20.125 3.515625 
L 25.78125 1.859375 
L 25.875 -0.140625 
Q 19.140625 0 14.359375 0 
Q 9.578125 0 2.984375 -0.140625 
L 2.78125 1.859375 
L 8.453125 3.515625 
Q 9.578125 3.90625 9.671875 5.03125 
Q 9.765625 6.9375 9.765625 11.421875 
L 9.765625 27.734375 
Q 9.765625 34.125 9.578125 39.546875 
L 3.078125 41.3125 
z
" id="Constantia-105"/>
       <path d="M 14.015625 30.328125 
Q 14.015625 23.96875 16.578125 20.5 
Q 19.140625 17.046875 24.03125 17.046875 
Q 28.71875 17.046875 31.078125 20.28125 
Q 33.453125 23.53125 33.453125 29.78125 
Q 33.453125 35.796875 30.9375 39.25 
Q 28.421875 42.71875 23.4375 42.71875 
Q 18.75 42.71875 16.375 39.546875 
Q 14.015625 36.375 14.015625 30.328125 
z
M 13.375 -1.953125 
Q 10.0625 -6.9375 10.0625 -11.140625 
Q 10.0625 -15.4375 13.53125 -17.828125 
Q 17 -20.21875 22.953125 -20.21875 
Q 30.03125 -20.21875 35.34375 -17.0625 
Q 40.671875 -13.921875 40.671875 -8.25 
Q 40.671875 -5.171875 38.0625 -3.484375 
Q 35.453125 -1.8125 28.21875 -1.8125 
Q 25.640625 -1.8125 22.578125 -1.953125 
Q 19.53125 -2.09375 16.703125 -2.09375 
Q 15.140625 -2.09375 13.375 -1.953125 
z
M 38.875 40.234375 
Q 42.53125 36.1875 42.53125 30.5625 
Q 42.53125 22.703125 37.0625 18.03125 
Q 31.59375 13.375 23.34375 13.375 
Q 18.65625 13.375 14.9375 14.84375 
Q 12.3125 10.59375 12.3125 8.15625 
Q 12.3125 6.84375 13.640625 6.375 
Q 14.984375 5.90625 18.609375 5.90625 
Q 21.34375 5.90625 25 6.046875 
Q 28.65625 6.203125 31.84375 6.203125 
Q 39.59375 6.203125 44.109375 3.25 
Q 48.640625 0.296875 48.640625 -5.515625 
Q 48.640625 -14.3125 40.359375 -19.390625 
Q 32.078125 -24.46875 21.53125 -24.46875 
Q 12.890625 -24.46875 7.734375 -21.5625 
Q 2.59375 -18.65625 2.59375 -14.015625 
Q 2.59375 -8.40625 10.546875 -1.421875 
Q 5.515625 0.484375 5.515625 3.65625 
Q 5.515625 8.109375 12.5 16.0625 
Q 4.890625 20.703125 4.890625 29.5 
Q 4.890625 37.109375 10.28125 41.75 
Q 15.671875 46.390625 24.21875 46.390625 
Q 26.46875 46.390625 30.328125 45.796875 
Q 33.984375 45.125 36.03125 45.125 
Q 43.40625 45.125 49.609375 45.265625 
L 49.859375 43.265625 
z
" id="Constantia-103"/>
      </defs>
      <use xlink:href="#Constantia-55"/>
      <use x="48.339844" xlink:href="#Constantia-32"/>
      <use x="70.9375" xlink:href="#Constantia-100"/>
      <use x="127.675781" xlink:href="#Constantia-97"/>
      <use x="175.673828" xlink:href="#Constantia-121"/>
      <use x="223.818359" xlink:href="#Constantia-115"/>
      <use x="264.296875" xlink:href="#Constantia-32"/>
      <use x="289.394531" xlink:href="#Constantia-109"/>
      <use x="376.015625" xlink:href="#Constantia-111"/>
      <use x="430.068359" xlink:href="#Constantia-118"/>
      <use x="478.359375" xlink:href="#Constantia-105"/>
      <use x="506.679688" xlink:href="#Constantia-110"/>
      <use x="564.882812" xlink:href="#Constantia-103"/>
      <use x="615.664062" xlink:href="#Constantia-32"/>
      <use x="638.261719" xlink:href="#Constantia-97"/>
      <use x="686.259766" xlink:href="#Constantia-118"/>
      <use x="734.550781" xlink:href="#Constantia-103"/>
     </g>
    </g>
   </g>
  </g>
  <g id="axes_2">
   <g id="line2d_65">
    <path clip-path="url(#p95a9a4ae6c)" d="M 217.307784 173.078881 
L 254.527661 202.233865 
L 266.934287 267.832579 
L 279.340912 317.031615 
L 291.747538 309.742869 
L 304.154164 318.853802 
L 316.56079 324.320361 
L 328.967415 451.873417 
L 341.374041 488.317147 
L 353.780667 491.96152 
L 366.187292 464.628722 
L 378.593918 471.917468 
L 391.000544 457.339976 
L 403.40717 477.384028 
L 415.813795 437.295925 
L 428.220421 477.384028 
L 440.627047 453.695603 
L 453.033672 506.539012 
L 465.440298 490.139333 
L 477.846924 479.206214 
L 490.25355 451.873417 
L 502.660175 471.917468 
L 515.066801 464.628722 
L 527.473427 442.762484 
L 539.880052 442.762484 
L 552.286678 442.762484 
L 577.09993 422.718433 
L 589.506555 395.385635 
L 601.913181 397.207821 
L 614.319807 344.364413 
L 626.726432 371.69721 
L 639.133058 324.320361 
L 651.539684 255.077274 
L 663.94631 249.610714 
L 676.352935 304.27631 
L 688.759561 224.100103 
L 701.166187 229.566663 
L 713.572813 209.522611 
L 725.979438 213.166984 
L 738.386064 235.033222 
L 750.79269 240.499782 
L 763.199315 156.679202 
L 775.605941 204.056052 
L 788.012567 187.656373 
L 800.419193 143.923897 
L 812.825818 147.56827 
L 825.232444 162.145762 
L 837.63907 182.189813 
L 850.045695 214.989171 
L 874.858947 71.036437 
L 887.265573 112.946726 
L 899.672198 94.724861 
L 912.078824 123.879845 
L 924.48545 138.457337 
L 936.892075 89.258302 
L 949.298701 105.65798 
L 961.705327 207.700425 
L 974.111953 209.522611 
L 986.518578 291.521004 
L 998.925204 260.543833 
L 1011.33183 300.631937 
L 1023.738455 311.565056 
L 1036.145081 346.186599 
L 1048.551707 291.521004 
L 1060.958333 306.098496 
L 1073.364958 291.521004 
L 1085.771584 298.80975 
L 1098.17821 306.098496 
L 1110.584835 368.052837 
L 1122.991461 313.387242 
L 1135.398087 431.829365 
L 1147.804713 408.14094 
L 1160.211338 437.295925 
L 1172.617964 404.496567 
L 1185.02459 406.318754 
L 1197.431215 413.6075 
L 1209.837841 422.718433 
L 1222.244467 448.229044 
L 1234.651093 479.206214 
L 1247.057718 457.339976 
L 1259.464344 521.116504 
L 1271.87097 512.005571 
L 1284.277595 512.005571 
L 1296.684221 537.516183 
L 1309.090847 537.516183 
L 1321.497473 544.804929 
L 1333.904098 572.137726 
L 1346.310724 577.604286 
L 1358.71735 592.181778 
" style="fill:none;stroke:#f08080;stroke-dasharray:6,6;stroke-dashoffset:0;stroke-width:3;"/>
    <g clip-path="url(#p95a9a4ae6c)">
     <use style="fill:#f08080;stroke:#000000;stroke-width:0.5;" x="217.307784" xlink:href="#m28d3c7a93c" y="173.078881"/>
     <use style="fill:#f08080;stroke:#000000;stroke-width:0.5;" x="254.527661" xlink:href="#m28d3c7a93c" y="202.233865"/>
     <use style="fill:#f08080;stroke:#000000;stroke-width:0.5;" x="266.934287" xlink:href="#m28d3c7a93c" y="267.832579"/>
     <use style="fill:#f08080;stroke:#000000;stroke-width:0.5;" x="279.340912" xlink:href="#m28d3c7a93c" y="317.031615"/>
     <use style="fill:#f08080;stroke:#000000;stroke-width:0.5;" x="291.747538" xlink:href="#m28d3c7a93c" y="309.742869"/>
     <use style="fill:#f08080;stroke:#000000;stroke-width:0.5;" x="304.154164" xlink:href="#m28d3c7a93c" y="318.853802"/>
     <use style="fill:#f08080;stroke:#000000;stroke-width:0.5;" x="316.56079" xlink:href="#m28d3c7a93c" y="324.320361"/>
     <use style="fill:#f08080;stroke:#000000;stroke-width:0.5;" x="328.967415" xlink:href="#m28d3c7a93c" y="451.873417"/>
     <use style="fill:#f08080;stroke:#000000;stroke-width:0.5;" x="341.374041" xlink:href="#m28d3c7a93c" y="488.317147"/>
     <use style="fill:#f08080;stroke:#000000;stroke-width:0.5;" x="353.780667" xlink:href="#m28d3c7a93c" y="491.96152"/>
     <use style="fill:#f08080;stroke:#000000;stroke-width:0.5;" x="366.187292" xlink:href="#m28d3c7a93c" y="464.628722"/>
     <use style="fill:#f08080;stroke:#000000;stroke-width:0.5;" x="378.593918" xlink:href="#m28d3c7a93c" y="471.917468"/>
     <use style="fill:#f08080;stroke:#000000;stroke-width:0.5;" x="391.000544" xlink:href="#m28d3c7a93c" y="457.339976"/>
     <use style="fill:#f08080;stroke:#000000;stroke-width:0.5;" x="403.40717" xlink:href="#m28d3c7a93c" y="477.384028"/>
     <use style="fill:#f08080;stroke:#000000;stroke-width:0.5;" x="415.813795" xlink:href="#m28d3c7a93c" y="437.295925"/>
     <use style="fill:#f08080;stroke:#000000;stroke-width:0.5;" x="428.220421" xlink:href="#m28d3c7a93c" y="477.384028"/>
     <use style="fill:#f08080;stroke:#000000;stroke-width:0.5;" x="440.627047" xlink:href="#m28d3c7a93c" y="453.695603"/>
     <use style="fill:#f08080;stroke:#000000;stroke-width:0.5;" x="453.033672" xlink:href="#m28d3c7a93c" y="506.539012"/>
     <use style="fill:#f08080;stroke:#000000;stroke-width:0.5;" x="465.440298" xlink:href="#m28d3c7a93c" y="490.139333"/>
     <use style="fill:#f08080;stroke:#000000;stroke-width:0.5;" x="477.846924" xlink:href="#m28d3c7a93c" y="479.206214"/>
     <use style="fill:#f08080;stroke:#000000;stroke-width:0.5;" x="490.25355" xlink:href="#m28d3c7a93c" y="451.873417"/>
     <use style="fill:#f08080;stroke:#000000;stroke-width:0.5;" x="502.660175" xlink:href="#m28d3c7a93c" y="471.917468"/>
     <use style="fill:#f08080;stroke:#000000;stroke-width:0.5;" x="515.066801" xlink:href="#m28d3c7a93c" y="464.628722"/>
     <use style="fill:#f08080;stroke:#000000;stroke-width:0.5;" x="527.473427" xlink:href="#m28d3c7a93c" y="442.762484"/>
     <use style="fill:#f08080;stroke:#000000;stroke-width:0.5;" x="539.880052" xlink:href="#m28d3c7a93c" y="442.762484"/>
     <use style="fill:#f08080;stroke:#000000;stroke-width:0.5;" x="552.286678" xlink:href="#m28d3c7a93c" y="442.762484"/>
     <use style="fill:#f08080;stroke:#000000;stroke-width:0.5;" x="577.09993" xlink:href="#m28d3c7a93c" y="422.718433"/>
     <use style="fill:#f08080;stroke:#000000;stroke-width:0.5;" x="589.506555" xlink:href="#m28d3c7a93c" y="395.385635"/>
     <use style="fill:#f08080;stroke:#000000;stroke-width:0.5;" x="601.913181" xlink:href="#m28d3c7a93c" y="397.207821"/>
     <use style="fill:#f08080;stroke:#000000;stroke-width:0.5;" x="614.319807" xlink:href="#m28d3c7a93c" y="344.364413"/>
     <use style="fill:#f08080;stroke:#000000;stroke-width:0.5;" x="626.726432" xlink:href="#m28d3c7a93c" y="371.69721"/>
     <use style="fill:#f08080;stroke:#000000;stroke-width:0.5;" x="639.133058" xlink:href="#m28d3c7a93c" y="324.320361"/>
     <use style="fill:#f08080;stroke:#000000;stroke-width:0.5;" x="651.539684" xlink:href="#m28d3c7a93c" y="255.077274"/>
     <use style="fill:#f08080;stroke:#000000;stroke-width:0.5;" x="663.94631" xlink:href="#m28d3c7a93c" y="249.610714"/>
     <use style="fill:#f08080;stroke:#000000;stroke-width:0.5;" x="676.352935" xlink:href="#m28d3c7a93c" y="304.27631"/>
     <use style="fill:#f08080;stroke:#000000;stroke-width:0.5;" x="688.759561" xlink:href="#m28d3c7a93c" y="224.100103"/>
     <use style="fill:#f08080;stroke:#000000;stroke-width:0.5;" x="701.166187" xlink:href="#m28d3c7a93c" y="229.566663"/>
     <use style="fill:#f08080;stroke:#000000;stroke-width:0.5;" x="713.572813" xlink:href="#m28d3c7a93c" y="209.522611"/>
     <use style="fill:#f08080;stroke:#000000;stroke-width:0.5;" x="725.979438" xlink:href="#m28d3c7a93c" y="213.166984"/>
     <use style="fill:#f08080;stroke:#000000;stroke-width:0.5;" x="738.386064" xlink:href="#m28d3c7a93c" y="235.033222"/>
     <use style="fill:#f08080;stroke:#000000;stroke-width:0.5;" x="750.79269" xlink:href="#m28d3c7a93c" y="240.499782"/>
     <use style="fill:#f08080;stroke:#000000;stroke-width:0.5;" x="763.199315" xlink:href="#m28d3c7a93c" y="156.679202"/>
     <use style="fill:#f08080;stroke:#000000;stroke-width:0.5;" x="775.605941" xlink:href="#m28d3c7a93c" y="204.056052"/>
     <use style="fill:#f08080;stroke:#000000;stroke-width:0.5;" x="788.012567" xlink:href="#m28d3c7a93c" y="187.656373"/>
     <use style="fill:#f08080;stroke:#000000;stroke-width:0.5;" x="800.419193" xlink:href="#m28d3c7a93c" y="143.923897"/>
     <use style="fill:#f08080;stroke:#000000;stroke-width:0.5;" x="812.825818" xlink:href="#m28d3c7a93c" y="147.56827"/>
     <use style="fill:#f08080;stroke:#000000;stroke-width:0.5;" x="825.232444" xlink:href="#m28d3c7a93c" y="162.145762"/>
     <use style="fill:#f08080;stroke:#000000;stroke-width:0.5;" x="837.63907" xlink:href="#m28d3c7a93c" y="182.189813"/>
     <use style="fill:#f08080;stroke:#000000;stroke-width:0.5;" x="850.045695" xlink:href="#m28d3c7a93c" y="214.989171"/>
     <use style="fill:#f08080;stroke:#000000;stroke-width:0.5;" x="874.858947" xlink:href="#m28d3c7a93c" y="71.036437"/>
     <use style="fill:#f08080;stroke:#000000;stroke-width:0.5;" x="887.265573" xlink:href="#m28d3c7a93c" y="112.946726"/>
     <use style="fill:#f08080;stroke:#000000;stroke-width:0.5;" x="899.672198" xlink:href="#m28d3c7a93c" y="94.724861"/>
     <use style="fill:#f08080;stroke:#000000;stroke-width:0.5;" x="912.078824" xlink:href="#m28d3c7a93c" y="123.879845"/>
     <use style="fill:#f08080;stroke:#000000;stroke-width:0.5;" x="924.48545" xlink:href="#m28d3c7a93c" y="138.457337"/>
     <use style="fill:#f08080;stroke:#000000;stroke-width:0.5;" x="936.892075" xlink:href="#m28d3c7a93c" y="89.258302"/>
     <use style="fill:#f08080;stroke:#000000;stroke-width:0.5;" x="949.298701" xlink:href="#m28d3c7a93c" y="105.65798"/>
     <use style="fill:#f08080;stroke:#000000;stroke-width:0.5;" x="961.705327" xlink:href="#m28d3c7a93c" y="207.700425"/>
     <use style="fill:#f08080;stroke:#000000;stroke-width:0.5;" x="974.111953" xlink:href="#m28d3c7a93c" y="209.522611"/>
     <use style="fill:#f08080;stroke:#000000;stroke-width:0.5;" x="986.518578" xlink:href="#m28d3c7a93c" y="291.521004"/>
     <use style="fill:#f08080;stroke:#000000;stroke-width:0.5;" x="998.925204" xlink:href="#m28d3c7a93c" y="260.543833"/>
     <use style="fill:#f08080;stroke:#000000;stroke-width:0.5;" x="1011.33183" xlink:href="#m28d3c7a93c" y="300.631937"/>
     <use style="fill:#f08080;stroke:#000000;stroke-width:0.5;" x="1023.738455" xlink:href="#m28d3c7a93c" y="311.565056"/>
     <use style="fill:#f08080;stroke:#000000;stroke-width:0.5;" x="1036.145081" xlink:href="#m28d3c7a93c" y="346.186599"/>
     <use style="fill:#f08080;stroke:#000000;stroke-width:0.5;" x="1048.551707" xlink:href="#m28d3c7a93c" y="291.521004"/>
     <use style="fill:#f08080;stroke:#000000;stroke-width:0.5;" x="1060.958333" xlink:href="#m28d3c7a93c" y="306.098496"/>
     <use style="fill:#f08080;stroke:#000000;stroke-width:0.5;" x="1073.364958" xlink:href="#m28d3c7a93c" y="291.521004"/>
     <use style="fill:#f08080;stroke:#000000;stroke-width:0.5;" x="1085.771584" xlink:href="#m28d3c7a93c" y="298.80975"/>
     <use style="fill:#f08080;stroke:#000000;stroke-width:0.5;" x="1098.17821" xlink:href="#m28d3c7a93c" y="306.098496"/>
     <use style="fill:#f08080;stroke:#000000;stroke-width:0.5;" x="1110.584835" xlink:href="#m28d3c7a93c" y="368.052837"/>
     <use style="fill:#f08080;stroke:#000000;stroke-width:0.5;" x="1122.991461" xlink:href="#m28d3c7a93c" y="313.387242"/>
     <use style="fill:#f08080;stroke:#000000;stroke-width:0.5;" x="1135.398087" xlink:href="#m28d3c7a93c" y="431.829365"/>
     <use style="fill:#f08080;stroke:#000000;stroke-width:0.5;" x="1147.804713" xlink:href="#m28d3c7a93c" y="408.14094"/>
     <use style="fill:#f08080;stroke:#000000;stroke-width:0.5;" x="1160.211338" xlink:href="#m28d3c7a93c" y="437.295925"/>
     <use style="fill:#f08080;stroke:#000000;stroke-width:0.5;" x="1172.617964" xlink:href="#m28d3c7a93c" y="404.496567"/>
     <use style="fill:#f08080;stroke:#000000;stroke-width:0.5;" x="1185.02459" xlink:href="#m28d3c7a93c" y="406.318754"/>
     <use style="fill:#f08080;stroke:#000000;stroke-width:0.5;" x="1197.431215" xlink:href="#m28d3c7a93c" y="413.6075"/>
     <use style="fill:#f08080;stroke:#000000;stroke-width:0.5;" x="1209.837841" xlink:href="#m28d3c7a93c" y="422.718433"/>
     <use style="fill:#f08080;stroke:#000000;stroke-width:0.5;" x="1222.244467" xlink:href="#m28d3c7a93c" y="448.229044"/>
     <use style="fill:#f08080;stroke:#000000;stroke-width:0.5;" x="1234.651093" xlink:href="#m28d3c7a93c" y="479.206214"/>
     <use style="fill:#f08080;stroke:#000000;stroke-width:0.5;" x="1247.057718" xlink:href="#m28d3c7a93c" y="457.339976"/>
     <use style="fill:#f08080;stroke:#000000;stroke-width:0.5;" x="1259.464344" xlink:href="#m28d3c7a93c" y="521.116504"/>
     <use style="fill:#f08080;stroke:#000000;stroke-width:0.5;" x="1271.87097" xlink:href="#m28d3c7a93c" y="512.005571"/>
     <use style="fill:#f08080;stroke:#000000;stroke-width:0.5;" x="1284.277595" xlink:href="#m28d3c7a93c" y="512.005571"/>
     <use style="fill:#f08080;stroke:#000000;stroke-width:0.5;" x="1296.684221" xlink:href="#m28d3c7a93c" y="537.516183"/>
     <use style="fill:#f08080;stroke:#000000;stroke-width:0.5;" x="1309.090847" xlink:href="#m28d3c7a93c" y="537.516183"/>
     <use style="fill:#f08080;stroke:#000000;stroke-width:0.5;" x="1321.497473" xlink:href="#m28d3c7a93c" y="544.804929"/>
     <use style="fill:#f08080;stroke:#000000;stroke-width:0.5;" x="1333.904098" xlink:href="#m28d3c7a93c" y="572.137726"/>
     <use style="fill:#f08080;stroke:#000000;stroke-width:0.5;" x="1346.310724" xlink:href="#m28d3c7a93c" y="577.604286"/>
     <use style="fill:#f08080;stroke:#000000;stroke-width:0.5;" x="1358.71735" xlink:href="#m28d3c7a93c" y="592.181778"/>
    </g>
   </g>
  </g>
  <g id="text_27">
   <!-- Israel -->
   <g transform="translate(661.861875 21.915625)scale(0.2 -0.2)">
    <defs>
     <path d="M 21.78125 14.984375 
Q 21.78125 12.0625 21.796875 9.671875 
Q 21.828125 7.28125 21.875 5.328125 
Q 21.921875 4.109375 23.578125 3.65625 
L 29.109375 1.953125 
L 29.203125 -0.140625 
Q 22.90625 0 17.09375 0 
Q 11.1875 0 4.984375 -0.140625 
L 4.78125 1.953125 
L 10.796875 3.765625 
Q 12.015625 4.109375 12.109375 5.28125 
Q 12.15625 7.234375 12.171875 9.640625 
Q 12.203125 12.0625 12.203125 14.984375 
L 12.203125 54.59375 
Q 12.203125 57.078125 12.171875 59.078125 
Q 12.15625 61.078125 12.109375 62.703125 
Q 12.0625 63.96875 10.9375 64.359375 
L 4.890625 66.265625 
L 4.78125 68.359375 
Q 11.078125 68.171875 16.890625 68.171875 
Q 22.75 68.171875 29 68.359375 
L 29.203125 66.265625 
L 23.140625 64.453125 
Q 21.96875 64.15625 21.875 62.9375 
Q 21.828125 61.234375 21.796875 59.203125 
Q 21.78125 57.171875 21.78125 54.78125 
z
" id="Constantia-73"/>
     <path d="M 2.828125 42.96875 
Q 10.984375 44.53125 18.3125 46.390625 
L 18.796875 46.046875 
L 18.796875 40.328125 
Q 27.828125 46.390625 36.53125 46.390625 
L 36.765625 46.09375 
Q 35.359375 38.8125 33.984375 31 
L 32.03125 30.671875 
Q 30.671875 34.8125 29.390625 37.328125 
Q 28.125 39.84375 25.390625 39.84375 
Q 22.75 39.84375 18.796875 37.40625 
L 18.796875 16.265625 
Q 18.796875 8.640625 18.890625 5.375 
Q 18.953125 4.046875 20.125 3.71875 
L 26.609375 1.859375 
L 26.765625 -0.140625 
Q 19.140625 0 14.359375 0 
Q 9.578125 0 3.03125 -0.140625 
L 2.828125 1.859375 
L 8.5 3.515625 
Q 9.671875 3.90625 9.71875 5.03125 
Q 9.765625 7.125 9.765625 11.03125 
L 9.765625 27.6875 
Q 9.765625 35.640625 9.578125 39.546875 
L 3.078125 41.3125 
z
" id="Constantia-114"/>
     <path d="M 2.734375 68.5 
L 2.484375 70.125 
Q 11.140625 71.78125 18.40625 73.578125 
L 18.84375 73.1875 
Q 18.5625 65.234375 18.5625 51.078125 
L 18.5625 19.28125 
Q 18.5625 10.546875 18.65625 5.21875 
Q 18.796875 3.8125 20.015625 3.46875 
L 25.34375 1.859375 
L 25.484375 -0.140625 
Q 18.890625 0 14.109375 0 
Q 9.328125 0 2.78125 -0.140625 
L 2.59375 1.859375 
L 8.109375 3.46875 
Q 9.328125 3.859375 9.421875 5.03125 
Q 9.515625 10.546875 9.515625 17.328125 
L 9.515625 37.40625 
Q 9.515625 55.5625 9.328125 66.546875 
z
" id="Constantia-108"/>
    </defs>
    <use xlink:href="#Constantia-73"/>
    <use x="32.984375" xlink:href="#Constantia-115"/>
    <use x="73.462891" xlink:href="#Constantia-114"/>
    <use x="111.792969" xlink:href="#Constantia-97"/>
    <use x="159.791016" xlink:href="#Constantia-101"/>
    <use x="207.691406" xlink:href="#Constantia-108"/>
   </g>
   <!-- Daily increase of NewDeaths -->
   <g transform="translate(561.569687 44.32125)scale(0.2 -0.2)">
    <defs>
     <path d="M 18.796875 39.9375 
L 18.796875 13.421875 
Q 18.796875 8.84375 18.890625 5.375 
Q 19 4.046875 20.171875 3.71875 
L 26.375 1.859375 
L 26.515625 -0.140625 
Q 19.140625 0 14.40625 0 
Q 9.578125 0 3.03125 -0.140625 
L 2.78125 1.859375 
L 8.25 3.421875 
Q 9.625 3.859375 9.671875 5.03125 
Q 9.765625 8.0625 9.765625 11.421875 
L 9.765625 40.1875 
L 3.125 41.84375 
L 2.78125 43.890625 
L 9.8125 44.484375 
L 9.8125 44.671875 
Q 9.8125 58.453125 15.796875 66.015625 
Q 21.78125 73.578125 31.84375 73.578125 
Q 36.765625 73.578125 41.359375 72.359375 
Q 39.703125 66.40625 38.53125 60.109375 
L 36.46875 59.71875 
L 33.296875 69.484375 
Q 32.171875 69.625 30.46875 69.625 
Q 24.859375 69.625 21.828125 64.59375 
Q 18.796875 59.578125 18.796875 46.1875 
L 18.796875 44.578125 
L 30.953125 44.578125 
L 30.953125 39.9375 
z
" id="Constantia-102"/>
    </defs>
    <use xlink:href="#Constantia-68"/>
    <use x="73.847656" xlink:href="#Constantia-97"/>
    <use x="121.845703" xlink:href="#Constantia-105"/>
    <use x="150.166016" xlink:href="#Constantia-108"/>
    <use x="178.242188" xlink:href="#Constantia-121"/>
    <use x="226.386719" xlink:href="#Constantia-32"/>
    <use x="251.484375" xlink:href="#Constantia-105"/>
    <use x="279.804688" xlink:href="#Constantia-110"/>
    <use x="338.007812" xlink:href="#Constantia-99"/>
    <use x="384.150391" xlink:href="#Constantia-114"/>
    <use x="422.480469" xlink:href="#Constantia-101"/>
    <use x="470.380859" xlink:href="#Constantia-97"/>
    <use x="518.378906" xlink:href="#Constantia-115"/>
    <use x="558.857422" xlink:href="#Constantia-101"/>
    <use x="606.757812" xlink:href="#Constantia-32"/>
    <use x="629.355469" xlink:href="#Constantia-111"/>
    <use x="683.408203" xlink:href="#Constantia-102"/>
    <use x="714.365234" xlink:href="#Constantia-32"/>
    <use x="739.462891" xlink:href="#Constantia-78"/>
    <use x="812.865234" xlink:href="#Constantia-101"/>
    <use x="860.765625" xlink:href="#Constantia-119"/>
    <use x="933.958984" xlink:href="#Constantia-68"/>
    <use x="1009.056641" xlink:href="#Constantia-101"/>
    <use x="1056.957031" xlink:href="#Constantia-97"/>
    <use x="1104.955078" xlink:href="#Constantia-116"/>
    <use x="1140.257812" xlink:href="#Constantia-104"/>
    <use x="1198.216797" xlink:href="#Constantia-115"/>
   </g>
  </g>
 </g>
 <defs>
  <clipPath id="p95a9a4ae6c">
   <rect height="573.98875" width="1300.214375" x="63.465625" y="69.21425"/>
  </clipPath>
 </defs>
</svg>
