<svg class="main-svg" xmlns="http://www.w3.org/2000/svg" xmlns:xlink="http://www.w3.org/1999/xlink" width="2000" height="1200" style="" viewBox="0 0 1000 600"><rect x="0" y="0" width="1000" height="600" style="fill: rgb(17, 17, 17); fill-opacity: 1;"/><defs id="defs-f4a59a"><g class="clips"><clipPath id="clipf4a59axyplot" class="plotclip"><rect width="663" height="309"/></clipPath><clipPath class="axesclip" id="clipf4a59ax"><rect x="176" y="0" width="663" height="600"/></clipPath><clipPath class="axesclip" id="clipf4a59ay"><rect x="0" y="100" width="1000" height="309"/></clipPath><clipPath class="axesclip" id="clipf4a59axy"><rect x="176" y="100" width="663" height="309"/></clipPath></g><g class="gradients"/></defs><g class="bglayer"/><g class="layer-below"><g class="imagelayer"/><g class="shapelayer"/></g><g class="cartesianlayer"><g class="subplot xy"><g class="layer-subplot"><g class="shapelayer"/><g class="imagelayer"/></g><g class="gridlayer"><g class="x"><path class="xgrid crisp" transform="translate(199.92000000000002,0)" d="M0,100v309" style="stroke: rgb(40, 52, 66); stroke-opacity: 1; stroke-width: 1px;"/><path class="xgrid crisp" transform="translate(223.85,0)" d="M0,100v309" style="stroke: rgb(40, 52, 66); stroke-opacity: 1; stroke-width: 1px;"/><path class="xgrid crisp" transform="translate(247.76999999999998,0)" d="M0,100v309" style="stroke: rgb(40, 52, 66); stroke-opacity: 1; stroke-width: 1px;"/><path class="xgrid crisp" transform="translate(271.69,0)" d="M0,100v309" style="stroke: rgb(40, 52, 66); stroke-opacity: 1; stroke-width: 1px;"/><path class="xgrid crisp" transform="translate(295.61,0)" d="M0,100v309" style="stroke: rgb(40, 52, 66); stroke-opacity: 1; stroke-width: 1px;"/><path class="xgrid crisp" transform="translate(319.53999999999996,0)" d="M0,100v309" style="stroke: rgb(40, 52, 66); stroke-opacity: 1; stroke-width: 1px;"/><path class="xgrid crisp" transform="translate(343.46000000000004,0)" d="M0,100v309" style="stroke: rgb(40, 52, 66); stroke-opacity: 1; stroke-width: 1px;"/><path class="xgrid crisp" transform="translate(367.38,0)" d="M0,100v309" style="stroke: rgb(40, 52, 66); stroke-opacity: 1; stroke-width: 1px;"/><path class="xgrid crisp" transform="translate(391.3,0)" d="M0,100v309" style="stroke: rgb(40, 52, 66); stroke-opacity: 1; stroke-width: 1px;"/><path class="xgrid crisp" transform="translate(415.23,0)" d="M0,100v309" style="stroke: rgb(40, 52, 66); stroke-opacity: 1; stroke-width: 1px;"/><path class="xgrid crisp" transform="translate(439.15,0)" d="M0,100v309" style="stroke: rgb(40, 52, 66); stroke-opacity: 1; stroke-width: 1px;"/><path class="xgrid crisp" transform="translate(463.07,0)" d="M0,100v309" style="stroke: rgb(40, 52, 66); stroke-opacity: 1; stroke-width: 1px;"/><path class="xgrid crisp" transform="translate(486.99,0)" d="M0,100v309" style="stroke: rgb(40, 52, 66); stroke-opacity: 1; stroke-width: 1px;"/><path class="xgrid crisp" transform="translate(510.92,0)" d="M0,100v309" style="stroke: rgb(40, 52, 66); stroke-opacity: 1; stroke-width: 1px;"/><path class="xgrid crisp" transform="translate(534.8399999999999,0)" d="M0,100v309" style="stroke: rgb(40, 52, 66); stroke-opacity: 1; stroke-width: 1px;"/><path class="xgrid crisp" transform="translate(558.76,0)" d="M0,100v309" style="stroke: rgb(40, 52, 66); stroke-opacity: 1; stroke-width: 1px;"/><path class="xgrid crisp" transform="translate(582.69,0)" d="M0,100v309" style="stroke: rgb(40, 52, 66); stroke-opacity: 1; stroke-width: 1px;"/><path class="xgrid crisp" transform="translate(606.61,0)" d="M0,100v309" style="stroke: rgb(40, 52, 66); stroke-opacity: 1; stroke-width: 1px;"/><path class="xgrid crisp" transform="translate(630.53,0)" d="M0,100v309" style="stroke: rgb(40, 52, 66); stroke-opacity: 1; stroke-width: 1px;"/><path class="xgrid crisp" transform="translate(654.45,0)" d="M0,100v309" style="stroke: rgb(40, 52, 66); stroke-opacity: 1; stroke-width: 1px;"/><path class="xgrid crisp" transform="translate(678.38,0)" d="M0,100v309" style="stroke: rgb(40, 52, 66); stroke-opacity: 1; stroke-width: 1px;"/><path class="xgrid crisp" transform="translate(702.3,0)" d="M0,100v309" style="stroke: rgb(40, 52, 66); stroke-opacity: 1; stroke-width: 1px;"/><path class="xgrid crisp" transform="translate(726.22,0)" d="M0,100v309" style="stroke: rgb(40, 52, 66); stroke-opacity: 1; stroke-width: 1px;"/><path class="xgrid crisp" transform="translate(750.14,0)" d="M0,100v309" style="stroke: rgb(40, 52, 66); stroke-opacity: 1; stroke-width: 1px;"/><path class="xgrid crisp" transform="translate(774.07,0)" d="M0,100v309" style="stroke: rgb(40, 52, 66); stroke-opacity: 1; stroke-width: 1px;"/><path class="xgrid crisp" transform="translate(797.99,0)" d="M0,100v309" style="stroke: rgb(40, 52, 66); stroke-opacity: 1; stroke-width: 1px;"/><path class="xgrid crisp" transform="translate(821.91,0)" d="M0,100v309" style="stroke: rgb(40, 52, 66); stroke-opacity: 1; stroke-width: 1px;"/></g><g class="y"><path class="ygrid crisp" transform="translate(0,355.03)" d="M176,0h663" style="stroke: rgb(40, 52, 66); stroke-opacity: 1; stroke-width: 1px;"/><path class="ygrid crisp" transform="translate(0,316.31)" d="M176,0h663" style="stroke: rgb(40, 52, 66); stroke-opacity: 1; stroke-width: 1px;"/><path class="ygrid crisp" transform="translate(0,277.59000000000003)" d="M176,0h663" style="stroke: rgb(40, 52, 66); stroke-opacity: 1; stroke-width: 1px;"/><path class="ygrid crisp" transform="translate(0,238.87)" d="M176,0h663" style="stroke: rgb(40, 52, 66); stroke-opacity: 1; stroke-width: 1px;"/><path class="ygrid crisp" transform="translate(0,200.15)" d="M176,0h663" style="stroke: rgb(40, 52, 66); stroke-opacity: 1; stroke-width: 1px;"/><path class="ygrid crisp" transform="translate(0,161.43)" d="M176,0h663" style="stroke: rgb(40, 52, 66); stroke-opacity: 1; stroke-width: 1px;"/><path class="ygrid crisp" transform="translate(0,122.71000000000001)" d="M176,0h663" style="stroke: rgb(40, 52, 66); stroke-opacity: 1; stroke-width: 1px;"/></g></g><g class="zerolinelayer"><path class="yzl zl crisp" transform="translate(0,393.76)" d="M176,0h663" style="stroke: rgb(40, 52, 66); stroke-opacity: 1; stroke-width: 2px;"/></g><path class="xlines-below"/><path class="ylines-below"/><g class="overlines-below"/><g class="xaxislayer-below"/><g class="yaxislayer-below"/><g class="overaxes-below"/><g class="plot" transform="translate(176,100)" clip-path="url('#clipf4a59axyplot')"><g class="scatterlayer mlayer"><g class="trace scatter trace43995e" style="stroke-miterlimit: 2; opacity: 1;"><g class="fills"/><g class="errorbars"/><g class="lines"><path class="js-line" d="M0,283.63L54.68,284.69L58.1,284.55L61.52,284.5L71.77,285.22L102.53,285.64L105.94,284.75L126.45,282.93L129.87,281.65L140.12,279.07L143.54,279.04L150.37,278L153.79,276.28L170.88,273.52L174.29,273.88L177.71,271.63L181.13,270.58L184.55,269.4L187.96,269.4L191.38,266.79L194.8,267.95L198.22,268.05L201.63,267.38L205.05,265.89L208.47,265.81L211.89,265.91L215.3,266.94L222.14,269.04L225.56,269.34L232.39,270.24L235.81,269.68L249.48,276.45L252.9,276.8L256.31,279.33L259.73,280.15L266.57,282.29L269.98,284.9L276.82,286.84L280.24,287.41L290.49,288.51L293.91,288.88L324.66,290.23L328.08,290.32L393.02,290.27L396.43,290.07L423.77,289.09L427.19,288.7L451.11,287.1L454.53,287.25L475.04,284.38L478.45,284.6L488.71,282.21L492.12,281.47L498.96,280.2L502.38,280.45L522.88,274.9L526.3,275.03L529.72,273.57L533.13,270.76L543.39,268.58L546.8,267.13L550.22,267.53L553.64,265.74L557.06,264.28L560.47,263.69L567.31,263.64L570.73,261.38L577.56,262.53L580.98,261.75L584.4,261.51L587.81,262.37L591.23,262.8L594.65,264.06L598.07,266.84L601.48,265.86L604.9,264.95L611.74,265.68L615.15,266.25L618.57,265.81L621.99,268.24L625.41,265.02L628.82,265.62L632.24,264.86L635.66,262.43L639.08,260.93L642.49,266.21L645.91,268.24L652.75,266.55L656.16,267.32L663,269.78" style="vector-effect: non-scaling-stroke; fill: none; stroke: rgb(242, 189, 29); stroke-opacity: 1; stroke-width: 2px; opacity: 1;"/></g><g class="points"/><g class="text"/></g><g class="trace scatter trace246036" style="stroke-miterlimit: 2; opacity: 1;"><g class="fills"/><g class="errorbars"/><g class="lines"><path class="js-line" d="M0,265.75L34.18,260L47.85,257.98L61.52,255.6L71.77,254.11L75.19,253.77L78.6,252.62L95.69,249.61L99.11,249.2L109.36,245.78L112.78,245.57L116.2,243.9L119.61,243.67L123.03,241.88L126.45,241.37L133.28,237.74L136.7,236.23L140.12,234.7L143.54,234.22L146.95,232.08L150.37,230.92L153.79,228.18L160.62,224.42L167.46,221.19L170.88,220.17L174.29,218.88L177.71,215.1L184.55,209.38L187.96,209.38L191.38,204.3L194.8,203.49L198.22,202.58L201.63,199.32L208.47,193.5L211.89,191.54L215.3,190.78L218.72,188.6L225.56,184.76L228.97,183.27L249.48,178.17L252.9,177.79L259.73,176.52L263.15,176.39L280.24,174.17L283.65,173.95L290.49,173.39L293.91,173.09L331.5,170.27L334.92,170.14L372.51,167.12L375.93,166.85L399.85,164.5L403.27,164.19L413.52,162.89L416.94,162.59L427.19,160.69L430.61,160.25L461.37,154.12L464.78,152.69L475.04,149.37L478.45,148.75L492.12,142.94L495.54,141.04L505.79,136.37L509.21,134.35L519.46,127.83L522.88,125.78L526.3,124.01L529.72,121.12L536.55,114.78L539.97,111.71L550.22,103.51L553.64,99.74L570.73,83.31L574.14,81.44L584.4,70.78L587.81,68.06L594.65,63.77L598.07,62.44L604.9,56.17L611.74,50.24L621.99,44.61L625.41,41.2L635.66,32.15L639.08,30.12L645.91,26.84L649.33,24.05L656.16,18.94L659.58,16.97L663,15.45" style="vector-effect: non-scaling-stroke; fill: none; stroke: rgb(242, 120, 48); stroke-opacity: 1; stroke-width: 2px; opacity: 1;"/></g><g class="points"/><g class="text"/></g><g class="trace scatter traceb0d1ba" style="stroke-miterlimit: 2; opacity: 1;"><g class="fills"/><g class="errorbars"/><g class="lines"><path class="js-line" d="M0,293.55L563.89,292.26L567.31,292.24L663,291.7" style="vector-effect: non-scaling-stroke; fill: none; stroke: rgb(242, 5, 5); stroke-opacity: 1; stroke-width: 2px; opacity: 1;"/></g><g class="points"/><g class="text"/></g><g class="trace scatter trace579690" style="stroke-miterlimit: 2; opacity: 1;"><g class="fills"/><g class="errorbars"/><g class="lines"><path class="js-line" d="M0,276.09L20.51,271.66L34.18,269.91L78.6,261.3L82.02,260.28L85.44,259.79L88.86,258.5L95.69,257.82L99.11,257.43L105.94,256.11L109.36,255.56L112.78,255.56L116.2,254.46L119.61,254.22L123.03,252.92L129.87,251.81L133.28,251.2L143.54,249.37L146.95,247.85L153.79,246.11L160.62,243.41L174.29,239.26L177.71,237.73L184.55,234.29L187.96,234.29L194.8,229.87L198.22,228.87L205.05,224.45L208.47,222.07L215.3,218.26L218.72,214.91L225.56,209.88L228.97,207.96L232.39,206.54L235.81,206.36L249.48,196.29L252.9,195.56L256.31,192.11L259.73,190.97L263.15,189.95L266.57,188.14L269.98,185.01L273.4,183.24L283.65,181L287.07,181L293.91,178.92L297.32,178.41L310.99,176.64L314.41,176.48L341.75,173.81L345.17,173.7L382.76,170.67L386.18,170.39L410.1,168.6L413.52,168.15L420.36,167.35L423.77,167.08L437.44,165.62L440.86,165.26L475.04,159.94L478.45,159.11L488.71,157.54L492.12,156.44L526.3,144.06L529.72,142.63L533.13,141.86L536.55,139.69L546.8,134.35L550.22,131.16L560.47,125L563.89,120.99L567.31,118.21L570.73,117.22L574.14,115.17L577.56,110.38L580.98,108.32L584.4,104.65L591.23,98.28L594.65,95.14L598.07,91.06L601.48,88.6L604.9,86.72L611.74,80.12L615.15,77.6L618.57,76.19L621.99,71.98L625.41,71.8L632.24,65.57L635.66,65.41L639.08,64.89L642.49,57.8L645.91,54.33L649.33,52.4L652.75,50.5L656.16,47.42L663,41.48" style="vector-effect: non-scaling-stroke; fill: none; stroke: rgb(181, 248, 143); stroke-opacity: 1; stroke-width: 2px; opacity: 1;"/></g><g class="points"/><g class="text"/></g></g></g><g class="overplot"/><path class="xlines-above crisp" style="fill: none;" d="M0,0"/><path class="ylines-above crisp" style="fill: none;" d="M0,0"/><g class="overlines-above"/><g class="xaxislayer-above"><g class="xtick"><text text-anchor="middle" x="0" y="422" transform="translate(176,0)" style="font-family: 'Open Sans', verdana, arial, sans-serif; font-size: 12px; fill: rgb(242, 245, 250); fill-opacity: 1; white-space: pre;"> </text></g><g class="xtick"><text text-anchor="middle" x="0" y="422" transform="translate(177.71,0)" style="font-family: 'Open Sans', verdana, arial, sans-serif; font-size: 12px; fill: rgb(242, 245, 250); fill-opacity: 1; white-space: pre;"><tspan class="line" dy="0em" x="0" y="422">02</tspan><tspan class="line" dy="1.3em" x="0" y="422">Aug</tspan></text></g><g class="xtick"><text text-anchor="middle" x="0" y="422" transform="translate(201.63,0)" style="font-family: 'Open Sans', verdana, arial, sans-serif; font-size: 12px; fill: rgb(242, 245, 250); fill-opacity: 1; white-space: pre;">09</text></g><g class="xtick"><text text-anchor="middle" x="0" y="422" transform="translate(225.55,0)" style="font-family: 'Open Sans', verdana, arial, sans-serif; font-size: 12px; fill: rgb(242, 245, 250); fill-opacity: 1; white-space: pre;">16</text></g><g class="xtick"><text text-anchor="middle" x="0" y="422" transform="translate(249.48000000000002,0)" style="font-family: 'Open Sans', verdana, arial, sans-serif; font-size: 12px; fill: rgb(242, 245, 250); fill-opacity: 1; white-space: pre;">23</text></g><g class="xtick"><text text-anchor="middle" x="0" y="422" transform="translate(273.4,0)" style="font-family: 'Open Sans', verdana, arial, sans-serif; font-size: 12px; fill: rgb(242, 245, 250); fill-opacity: 1; white-space: pre;">30</text></g><g class="xtick"><text text-anchor="middle" x="0" y="422" transform="translate(297.32,0)" style="font-family: 'Open Sans', verdana, arial, sans-serif; font-size: 12px; fill: rgb(242, 245, 250); fill-opacity: 1; white-space: pre;"><tspan class="line" dy="0em" x="0" y="422">06</tspan><tspan class="line" dy="1.3em" x="0" y="422">Sep</tspan></text></g><g class="xtick"><text text-anchor="middle" x="0" y="422" transform="translate(321.24,0)" style="font-family: 'Open Sans', verdana, arial, sans-serif; font-size: 12px; fill: rgb(242, 245, 250); fill-opacity: 1; white-space: pre;">13</text></g><g class="xtick"><text text-anchor="middle" x="0" y="422" transform="translate(345.16999999999996,0)" style="font-family: 'Open Sans', verdana, arial, sans-serif; font-size: 12px; fill: rgb(242, 245, 250); fill-opacity: 1; white-space: pre;">20</text></g><g class="xtick"><text text-anchor="middle" x="0" y="422" transform="translate(369.09000000000003,0)" style="font-family: 'Open Sans', verdana, arial, sans-serif; font-size: 12px; fill: rgb(242, 245, 250); fill-opacity: 1; white-space: pre;">27</text></g><g class="xtick"><text text-anchor="middle" x="0" y="422" transform="translate(393.01,0)" style="font-family: 'Open Sans', verdana, arial, sans-serif; font-size: 12px; fill: rgb(242, 245, 250); fill-opacity: 1; white-space: pre;"><tspan class="line" dy="0em" x="0" y="422">04</tspan><tspan class="line" dy="1.3em" x="0" y="422">Oct</tspan></text></g><g class="xtick"><text text-anchor="middle" x="0" y="422" transform="translate(416.94,0)" style="font-family: 'Open Sans', verdana, arial, sans-serif; font-size: 12px; fill: rgb(242, 245, 250); fill-opacity: 1; white-space: pre;">11</text></g><g class="xtick"><text text-anchor="middle" x="0" y="422" transform="translate(440.86,0)" style="font-family: 'Open Sans', verdana, arial, sans-serif; font-size: 12px; fill: rgb(242, 245, 250); fill-opacity: 1; white-space: pre;">18</text></g><g class="xtick"><text text-anchor="middle" x="0" y="422" transform="translate(464.78,0)" style="font-family: 'Open Sans', verdana, arial, sans-serif; font-size: 12px; fill: rgb(242, 245, 250); fill-opacity: 1; white-space: pre;">25</text></g><g class="xtick"><text text-anchor="middle" x="0" y="422" transform="translate(488.7,0)" style="font-family: 'Open Sans', verdana, arial, sans-serif; font-size: 12px; fill: rgb(242, 245, 250); fill-opacity: 1; white-space: pre;"><tspan class="line" dy="0em" x="0" y="422">01</tspan><tspan class="line" dy="1.3em" x="0" y="422">Nov</tspan></text></g><g class="xtick"><text text-anchor="middle" x="0" y="422" transform="translate(512.63,0)" style="font-family: 'Open Sans', verdana, arial, sans-serif; font-size: 12px; fill: rgb(242, 245, 250); fill-opacity: 1; white-space: pre;">08</text></g><g class="xtick"><text text-anchor="middle" x="0" y="422" transform="translate(536.55,0)" style="font-family: 'Open Sans', verdana, arial, sans-serif; font-size: 12px; fill: rgb(242, 245, 250); fill-opacity: 1; white-space: pre;">15</text></g><g class="xtick"><text text-anchor="middle" x="0" y="422" transform="translate(560.47,0)" style="font-family: 'Open Sans', verdana, arial, sans-serif; font-size: 12px; fill: rgb(242, 245, 250); fill-opacity: 1; white-space: pre;">22</text></g><g class="xtick"><text text-anchor="middle" x="0" y="422" transform="translate(584.39,0)" style="font-family: 'Open Sans', verdana, arial, sans-serif; font-size: 12px; fill: rgb(242, 245, 250); fill-opacity: 1; white-space: pre;">29</text></g><g class="xtick"><text text-anchor="middle" x="0" y="422" transform="translate(608.3199999999999,0)" style="font-family: 'Open Sans', verdana, arial, sans-serif; font-size: 12px; fill: rgb(242, 245, 250); fill-opacity: 1; white-space: pre;"><tspan class="line" dy="0em" x="0" y="422">06</tspan><tspan class="line" dy="1.3em" x="0" y="422">Dec</tspan></text></g><g class="xtick"><text text-anchor="middle" x="0" y="422" transform="translate(632.24,0)" style="font-family: 'Open Sans', verdana, arial, sans-serif; font-size: 12px; fill: rgb(242, 245, 250); fill-opacity: 1; white-space: pre;">13</text></g><g class="xtick"><text text-anchor="middle" x="0" y="422" transform="translate(656.1600000000001,0)" style="font-family: 'Open Sans', verdana, arial, sans-serif; font-size: 12px; fill: rgb(242, 245, 250); fill-opacity: 1; white-space: pre;">20</text></g><g class="xtick"><text text-anchor="middle" x="0" y="422" transform="translate(680.0899999999999,0)" style="font-family: 'Open Sans', verdana, arial, sans-serif; font-size: 12px; fill: rgb(242, 245, 250); fill-opacity: 1; white-space: pre;">27</text></g><g class="xtick"><text text-anchor="middle" x="0" y="422" transform="translate(704.01,0)" style="font-family: 'Open Sans', verdana, arial, sans-serif; font-size: 12px; fill: rgb(242, 245, 250); fill-opacity: 1; white-space: pre;"><tspan class="line" dy="0em" x="0" y="422">03</tspan><tspan class="line" dy="1.3em" x="0" y="422">Jan</tspan></text></g><g class="xtick"><text text-anchor="middle" x="0" y="422" transform="translate(727.93,0)" style="font-family: 'Open Sans', verdana, arial, sans-serif; font-size: 12px; fill: rgb(242, 245, 250); fill-opacity: 1; white-space: pre;">10</text></g><g class="xtick"><text text-anchor="middle" x="0" y="422" transform="translate(751.85,0)" style="font-family: 'Open Sans', verdana, arial, sans-serif; font-size: 12px; fill: rgb(242, 245, 250); fill-opacity: 1; white-space: pre;">17</text></g><g class="xtick"><text text-anchor="middle" x="0" y="422" transform="translate(775.78,0)" style="font-family: 'Open Sans', verdana, arial, sans-serif; font-size: 12px; fill: rgb(242, 245, 250); fill-opacity: 1; white-space: pre;">24</text></g><g class="xtick"><text text-anchor="middle" x="0" y="422" transform="translate(799.7,0)" style="font-family: 'Open Sans', verdana, arial, sans-serif; font-size: 12px; fill: rgb(242, 245, 250); fill-opacity: 1; white-space: pre;">31</text></g><g class="xtick"><text text-anchor="middle" x="0" y="422" transform="translate(823.62,0)" style="font-family: 'Open Sans', verdana, arial, sans-serif; font-size: 12px; fill: rgb(242, 245, 250); fill-opacity: 1; white-space: pre;"><tspan class="line" dy="0em" x="0" y="422">07</tspan><tspan class="line" dy="1.3em" x="0" y="422">Feb</tspan></text></g></g><g class="yaxislayer-above"><g class="ytick"><text text-anchor="end" x="175" y="4.199999999999999" transform="translate(0,393.76)" style="font-family: 'Open Sans', verdana, arial, sans-serif; font-size: 12px; fill: rgb(242, 245, 250); fill-opacity: 1; white-space: pre;">0</text></g><g class="ytick"><text text-anchor="end" x="175" y="4.199999999999999" transform="translate(0,355.03)" style="font-family: 'Open Sans', verdana, arial, sans-serif; font-size: 12px; fill: rgb(242, 245, 250); fill-opacity: 1; white-space: pre;">100k</text></g><g class="ytick"><text text-anchor="end" x="175" y="4.199999999999999" transform="translate(0,316.31)" style="font-family: 'Open Sans', verdana, arial, sans-serif; font-size: 12px; fill: rgb(242, 245, 250); fill-opacity: 1; white-space: pre;">200k</text></g><g class="ytick"><text text-anchor="end" x="175" y="4.199999999999999" transform="translate(0,277.59000000000003)" style="font-family: 'Open Sans', verdana, arial, sans-serif; font-size: 12px; fill: rgb(242, 245, 250); fill-opacity: 1; white-space: pre;">300k</text></g><g class="ytick"><text text-anchor="end" x="175" y="4.199999999999999" transform="translate(0,238.87)" style="font-family: 'Open Sans', verdana, arial, sans-serif; font-size: 12px; fill: rgb(242, 245, 250); fill-opacity: 1; white-space: pre;">400k</text></g><g class="ytick"><text text-anchor="end" x="175" y="4.199999999999999" transform="translate(0,200.15)" style="font-family: 'Open Sans', verdana, arial, sans-serif; font-size: 12px; fill: rgb(242, 245, 250); fill-opacity: 1; white-space: pre;">500k</text></g><g class="ytick"><text text-anchor="end" x="175" y="4.199999999999999" transform="translate(0,161.43)" style="font-family: 'Open Sans', verdana, arial, sans-serif; font-size: 12px; fill: rgb(242, 245, 250); fill-opacity: 1; white-space: pre;">600k</text></g><g class="ytick"><text text-anchor="end" x="175" y="4.199999999999999" transform="translate(0,122.71000000000001)" style="font-family: 'Open Sans', verdana, arial, sans-serif; font-size: 12px; fill: rgb(242, 245, 250); fill-opacity: 1; white-space: pre;">700k</text></g></g><g class="overaxes-above"/></g></g><g class="polarlayer"/><g class="ternarylayer"/><g class="geolayer"/><g class="funnelarealayer"/><g class="pielayer"/><g class="treemaplayer"/><g class="sunburstlayer"/><g class="glimages"/><defs id="topdefs-f4a59a"><g class="clips"/><clipPath id="legendf4a59a"><rect width="136" height="86" x="0" y="0"/></clipPath><clipPath id="rangesliderx-f4a59a"><rect x="0" y="0" width="663" height="63"/></clipPath></defs><g class="layer-above"><g class="imagelayer"/><g class="shapelayer"/></g><g class="infolayer"><g class="legend" pointer-events="all" transform="translate(852.26,100)"><rect class="bg" shape-rendering="crispEdges" style="stroke: rgb(68, 68, 68); stroke-opacity: 1; fill: rgb(17, 17, 17); fill-opacity: 1; stroke-width: 0px;" width="136" height="86" x="0" y="0"/><g class="scrollbox" transform="" clip-path="url('#legendf4a59a')"><g class="groups"><g class="traces" style="opacity: 1;" transform="translate(0,14.5)"><text class="legendtext" text-anchor="start" x="40" y="4.680000000000001" style="font-family: 'Open Sans', verdana, arial, sans-serif; font-size: 12px; fill: rgb(242, 245, 250); fill-opacity: 1; white-space: pre;">Active Cases</text><g class="layers" style="opacity: 1;"><g class="legendfill"/><g class="legendlines"><path class="js-line" d="M5,0h30" style="fill: none; stroke: rgb(242, 189, 29); stroke-opacity: 1; stroke-width: 2px;"/></g><g class="legendsymbols"><g class="legendpoints"/></g></g><rect class="legendtoggle" x="0" y="-9.5" width="130.796875" height="19" style="fill: rgb(0, 0, 0); fill-opacity: 0;"/></g><g class="traces" style="opacity: 1;" transform="translate(0,33.5)"><text class="legendtext" text-anchor="start" x="40" y="4.680000000000001" style="font-family: 'Open Sans', verdana, arial, sans-serif; font-size: 12px; fill: rgb(242, 245, 250); fill-opacity: 1; white-space: pre;">Total Cases</text><g class="layers" style="opacity: 1;"><g class="legendfill"/><g class="legendlines"><path class="js-line" d="M5,0h30" style="fill: none; stroke: rgb(242, 120, 48); stroke-opacity: 1; stroke-width: 2px;"/></g><g class="legendsymbols"><g class="legendpoints"/></g></g><rect class="legendtoggle" x="0" y="-9.5" width="130.796875" height="19" style="fill: rgb(0, 0, 0); fill-opacity: 0;"/></g><g class="traces" style="opacity: 1;" transform="translate(0,52.5)"><text class="legendtext" text-anchor="start" x="40" y="4.680000000000001" style="font-family: 'Open Sans', verdana, arial, sans-serif; font-size: 12px; fill: rgb(242, 245, 250); fill-opacity: 1; white-space: pre;">Total Deaths</text><g class="layers" style="opacity: 1;"><g class="legendfill"/><g class="legendlines"><path class="js-line" d="M5,0h30" style="fill: none; stroke: rgb(242, 5, 5); stroke-opacity: 1; stroke-width: 2px;"/></g><g class="legendsymbols"><g class="legendpoints"/></g></g><rect class="legendtoggle" x="0" y="-9.5" width="130.796875" height="19" style="fill: rgb(0, 0, 0); fill-opacity: 0;"/></g><g class="traces" style="opacity: 1;" transform="translate(0,71.5)"><text class="legendtext" text-anchor="start" x="40" y="4.680000000000001" style="font-family: 'Open Sans', verdana, arial, sans-serif; font-size: 12px; fill: rgb(242, 245, 250); fill-opacity: 1; white-space: pre;">Total Recovered</text><g class="layers" style="opacity: 1;"><g class="legendfill"/><g class="legendlines"><path class="js-line" d="M5,0h30" style="fill: none; stroke: rgb(181, 248, 143); stroke-opacity: 1; stroke-width: 2px;"/></g><g class="legendsymbols"><g class="legendpoints"/></g></g><rect class="legendtoggle" x="0" y="-9.5" width="130.796875" height="19" style="fill: rgb(0, 0, 0); fill-opacity: 0;"/></g></g></g><rect class="scrollbar" rx="20" ry="3" width="0" height="0" style="fill: rgb(128, 139, 164); fill-opacity: 1;" x="0" y="0"/></g><g class="g-gtitle"><text class="gtitle" x="50" y="50" text-anchor="start" dy="0em" style="font-family: 'Open Sans', verdana, arial, sans-serif; font-size: 17px; fill: rgb(242, 245, 250); opacity: 1; font-weight: normal; white-space: pre;"><tspan class="line" dy="0em" x="50" y="50">Israel Cumulative\Active Cases Over Time</tspan><tspan class="line" dy="1.3em" x="50" y="50"><tspan style="font-size:12px;">Creation date 2021-02-15</tspan></tspan></text></g><g class="rangeslider-container" pointer-events="all" transform="translate(176,457)"><rect class="rangeslider-bg" x="0" y="0" shape-rendering="crispEdges" width="663" height="63" transform="" fill="rgb(17,17,17)" stroke="#444" stroke-width="0"/><g class="rangeslider-rangeplot xy" clip-path="url('#rangesliderx-f4a59a')"><g class="layer-subplot"><g class="shapelayer"/><g class="imagelayer"/></g><g class="gridlayer"><g class="x"/><g class="y"/></g><g class="zerolinelayer"/><path class="xlines-below"/><path class="ylines-below"/><g class="overlines-below"/><g class="xaxislayer-below"/><g class="yaxislayer-below"/><g class="overaxes-below"/><g class="plot"><g class="scatterlayer mlayer rangeplot"><g class="trace scatter trace43995e" style="stroke-miterlimit: 2; opacity: 1;"><g class="fills"/><g class="errorbars"/><g class="lines"><path class="js-line" d="M0,57.83L119.61,57.82L123.03,57.72L150.37,56.68L153.79,56.33L187.96,54.93L191.38,54.4L201.63,54.51L205.05,54.21L222.14,54.85L225.56,54.91L246.06,55.88L249.48,56.36L263.15,57.3L266.57,57.55L276.82,58.48L280.24,58.6L382.76,59.24L386.18,59.21L485.29,57.72L488.71,57.54L543.39,54.76L546.8,54.46L553.64,54.18L557.06,53.88L584.4,53.32L587.81,53.49L621.99,54.69L625.41,54.03L632.24,54L635.66,53.51L639.08,53.2L642.49,54.28L649.33,54.52L652.75,54.34L663,55" style="vector-effect: non-scaling-stroke; fill: none; stroke: rgb(242, 189, 29); stroke-opacity: 1; stroke-width: 2px; opacity: 1;"/></g><g class="points"/><g class="text"/></g><g class="trace scatter trace246036" style="stroke-miterlimit: 2; opacity: 1;"><g class="fills"/><g class="errorbars"/><g class="lines"><path class="js-line" d="M0,54.18L126.45,49.21L129.87,48.79L177.71,43.86L181.13,43.34L194.8,41.49L198.22,41.3L211.89,39.05L215.3,38.9L232.39,37.17L235.81,37.01L280.24,35.51L283.65,35.47L331.5,34.72L334.92,34.69L420.36,32.98L423.77,32.88L478.45,30.33L481.87,30.03L509.21,27.39L512.63,27L550.22,21.1L553.64,20.33L587.81,13.88L591.23,13.39L604.9,11.45L611.74,10.24L628.82,7.79L632.24,7.09L659.58,3.46L663,3.15" style="vector-effect: non-scaling-stroke; fill: none; stroke: rgb(242, 120, 48); stroke-opacity: 1; stroke-width: 2px; opacity: 1;"/></g><g class="points"/><g class="text"/></g><g class="trace scatter traceb0d1ba" style="stroke-miterlimit: 2; opacity: 1;"><g class="fills"/><g class="errorbars"/><g class="lines"><path class="js-line" d="M0,59.85L663,59.47" style="vector-effect: non-scaling-stroke; fill: none; stroke: rgb(242, 5, 5); stroke-opacity: 1; stroke-width: 2px; opacity: 1;"/></g><g class="points"/><g class="text"/></g><g class="trace scatter trace579690" style="stroke-miterlimit: 2; opacity: 1;"><g class="fills"/><g class="errorbars"/><g class="lines"><path class="js-line" d="M0,56.29L109.36,52.1L112.78,52.1L167.46,49.32L170.88,49.12L215.3,44.5L218.72,43.82L228.97,42.4L232.39,42.11L235.81,42.07L242.64,41.05L283.65,36.9L287.07,36.9L300.74,36.25L304.16,36.22L372.51,34.95L375.93,34.9L454.53,33.29L457.95,33.18L485.29,32.2L488.71,32.12L539.97,28.11L543.39,27.62L553.64,26.34L557.06,25.93L574.14,23.48L577.56,22.51L587.81,20.61L591.23,20.04L615.15,15.82L618.57,15.53L621.99,14.68L625.41,14.64L632.24,13.37L635.66,13.34L639.08,13.23L642.49,11.78L659.58,8.98L663,8.46" style="vector-effect: non-scaling-stroke; fill: none; stroke: rgb(181, 248, 143); stroke-opacity: 1; stroke-width: 2px; opacity: 1;"/></g><g class="points"/><g class="text"/></g></g></g><g class="overplot"/><path class="xlines-above crisp" style="fill: none;"/><path class="ylines-above crisp" style="fill: none;"/><g class="overlines-above"/><g class="xaxislayer-above"/><g class="yaxislayer-above"/><g class="overaxes-above"/></g><rect class="rangeslider-mask-min" x="0" y="0" shape-rendering="crispEdges" height="63" width="0" style="fill: rgb(0, 0, 0); fill-opacity: 0.4;"/><rect class="rangeslider-mask-max" y="0" shape-rendering="crispEdges" height="63" x="663" width="0" style="fill: rgb(0, 0, 0); fill-opacity: 0.4;"/><g class="rangeslider-grabber-min" transform="translate(-2.5,0.5)"><rect class="rangeslider-handle-min" x="0" width="4" rx="1" fill="#fff" stroke="#444" stroke-width="1" shape-rendering="crispEdges" y="16" height="32"/><rect class="rangeslider-grabarea-min" width="10" x="0" y="0" fill="transparent" height="63"/></g><g class="rangeslider-grabber-max" transform="translate(661.5,0.5)"><rect class="rangeslider-handle-max" x="0" width="4" rx="1" fill="#fff" stroke="#444" stroke-width="1" shape-rendering="crispEdges" y="16" height="32"/><rect class="rangeslider-grabarea-max" width="10" x="0" y="0" fill="transparent" height="63"/></g></g><g class="g-ytitle"><text class="ytitle" transform="rotate(-90,122.309375,254.5)" x="122.309375" y="254.5" text-anchor="middle" style="font-family: 'Open Sans', verdana, arial, sans-serif; font-size: 14px; fill: rgb(242, 245, 250); opacity: 1; font-weight: normal; white-space: pre;">Value</text></g><g class="g-xtitle"><text class="xtitle" x="507.5" y="551" text-anchor="middle" style="font-family: 'Open Sans', verdana, arial, sans-serif; font-size: 14px; fill: rgb(242, 245, 250); opacity: 1; font-weight: normal; white-space: pre;">Date</text></g></g><g class="menulayer"><g class="updatemenu-container" style="cursor: pointer;"><g class="updatemenu-header-group" transform="translate(12,100)"><g class="updatemenu-header" transform="" style="pointer-events: all;"><rect class="updatemenu-item-rect" rx="2" ry="2" shape-rendering="crispEdges" x="0" y="0" width="131" height="33" style="stroke: rgb(190, 200, 217); stroke-opacity: 1; fill: rgb(80, 103, 132); fill-opacity: 1; stroke-width: 0px;"/><text class="updatemenu-item-text" text-anchor="start" data-notex="1" x="12" y="19.5" style="font-family: 'Open Sans', verdana, arial, sans-serif; font-size: 12px; fill: rgb(242, 245, 250); fill-opacity: 1; white-space: pre;">All</text></g><text class="updatemenu-header-arrow" text-anchor="end" x="127" y="19.5" style="font-family: 'Open Sans', verdana, arial, sans-serif; font-size: 12px; fill: rgb(242, 245, 250); fill-opacity: 1;">▼</text></g><g class="updatemenu-dropdown-button-group" updatemenu-active-index="-1" style="pointer-events: all;"><rect class="scrollbox-bg" opacity="0" x="0" y="0" width="0" height="0" style="pointer-events: all;"/></g></g></g></svg>