<?xml version="1.0" encoding="utf-8" standalone="no"?>
<!DOCTYPE svg PUBLIC "-//W3C//DTD SVG 1.1//EN"
  "http://www.w3.org/Graphics/SVG/1.1/DTD/svg11.dtd">
<!-- Created with matplotlib (https://matplotlib.org/) -->
<svg height="766.08pt" version="1.1" viewBox="0 0 1370.88 766.08" width="1370.88pt" xmlns="http://www.w3.org/2000/svg" xmlns:xlink="http://www.w3.org/1999/xlink">
 <metadata>
  <rdf:RDF xmlns:cc="http://creativecommons.org/ns#" xmlns:dc="http://purl.org/dc/elements/1.1/" xmlns:rdf="http://www.w3.org/1999/02/22-rdf-syntax-ns#">
   <cc:Work>
    <dc:type rdf:resource="http://purl.org/dc/dcmitype/StillImage"/>
    <dc:date>2020-11-05T10:42:43.672543</dc:date>
    <dc:format>image/svg+xml</dc:format>
    <dc:creator>
     <cc:Agent>
      <dc:title>Matplotlib v3.3.2, https://matplotlib.org/</dc:title>
     </cc:Agent>
    </dc:creator>
   </cc:Work>
  </rdf:RDF>
 </metadata>
 <defs>
  <style type="text/css">*{stroke-linecap:butt;stroke-linejoin:round;}</style>
 </defs>
 <g id="figure_1">
  <g id="patch_1">
   <path d="M -0 766.08 
L 1370.88 766.08 
L 1370.88 0 
L -0 0 
z
" style="fill:#ffffff;"/>
  </g>
  <g id="axes_1">
   <g id="patch_2">
    <path d="M 64.711875 726.525 
L 1363.68 726.525 
L 1363.68 38.9273 
L 64.711875 38.9273 
z
" style="fill:#ffffff;"/>
   </g>
   <g id="patch_3">
    <path clip-path="url(#pd3d16af88a)" d="M 64.711875 726.525 
L 170.750089 726.525 
L 170.750089 683.515764 
L 64.711875 683.515764 
z
" style="fill:#f04a6b;stroke:#000000;stroke-linejoin:miter;"/>
   </g>
   <g id="patch_4">
    <path clip-path="url(#pd3d16af88a)" d="M 197.259643 726.525 
L 303.297857 726.525 
L 303.297857 669.782289 
L 197.259643 669.782289 
z
" style="fill:#3f5e99;stroke:#000000;stroke-linejoin:miter;"/>
   </g>
   <g id="patch_5">
    <path clip-path="url(#pd3d16af88a)" d="M 329.807411 726.525 
L 435.845625 726.525 
L 435.845625 666.942339 
L 329.807411 666.942339 
z
" style="fill:#3f5e99;stroke:#000000;stroke-linejoin:miter;"/>
   </g>
   <g id="patch_6">
    <path clip-path="url(#pd3d16af88a)" d="M 462.355179 726.525 
L 568.393393 726.525 
L 568.393393 654.934992 
L 462.355179 654.934992 
z
" style="fill:#3f5e99;stroke:#000000;stroke-linejoin:miter;"/>
   </g>
   <g id="patch_7">
    <path clip-path="url(#pd3d16af88a)" d="M 594.902946 726.525 
L 700.941161 726.525 
L 700.941161 641.101558 
L 594.902946 641.101558 
z
" style="fill:#3f5e99;stroke:#000000;stroke-linejoin:miter;"/>
   </g>
   <g id="patch_8">
    <path clip-path="url(#pd3d16af88a)" d="M 727.450714 726.525 
L 833.488929 726.525 
L 833.488929 639.777846 
L 727.450714 639.777846 
z
" style="fill:#3f5e99;stroke:#000000;stroke-linejoin:miter;"/>
   </g>
   <g id="patch_9">
    <path clip-path="url(#pd3d16af88a)" d="M 859.998482 726.525 
L 966.036696 726.525 
L 966.036696 617.632645 
L 859.998482 617.632645 
z
" style="fill:#3f5e99;stroke:#000000;stroke-linejoin:miter;"/>
   </g>
   <g id="patch_10">
    <path clip-path="url(#pd3d16af88a)" d="M 992.54625 726.525 
L 1098.584464 726.525 
L 1098.584464 294.35128 
L 992.54625 294.35128 
z
" style="fill:#3f5e99;stroke:#000000;stroke-linejoin:miter;"/>
   </g>
   <g id="patch_11">
    <path clip-path="url(#pd3d16af88a)" d="M 1125.094018 726.525 
L 1231.132232 726.525 
L 1231.132232 188.114943 
L 1125.094018 188.114943 
z
" style="fill:#3f5e99;stroke:#000000;stroke-linejoin:miter;"/>
   </g>
   <g id="patch_12">
    <path clip-path="url(#pd3d16af88a)" d="M 1257.641786 726.525 
L 1363.68 726.525 
L 1363.68 63.807765 
L 1257.641786 63.807765 
z
" style="fill:#3ab08b;stroke:#000000;stroke-linejoin:miter;"/>
   </g>
   <g id="patch_13">
    <path d="M 64.711875 726.525 
L 64.711875 38.9273 
" style="fill:none;stroke:#000000;stroke-linecap:square;stroke-linejoin:miter;"/>
   </g>
   <g id="patch_14">
    <path d="M 1363.68 726.525 
L 1363.68 38.9273 
" style="fill:none;stroke:#000000;stroke-linecap:square;stroke-linejoin:miter;"/>
   </g>
   <g id="patch_15">
    <path d="M 64.711875 726.525 
L 1363.68 726.525 
" style="fill:none;stroke:#000000;stroke-linecap:square;stroke-linejoin:miter;"/>
   </g>
   <g id="patch_16">
    <path d="M 64.711875 38.9273 
L 1363.68 38.9273 
" style="fill:none;stroke:#000000;stroke-linecap:square;stroke-linejoin:miter;"/>
   </g>
   <g id="matplotlib.axis_1">
    <g id="xtick_1">
     <g id="line2d_1">
      <defs>
       <path d="M 0 0 
L 0 -4 
" id="me440a8ba24" style="stroke:#000000;stroke-width:0.5;"/>
      </defs>
      <g>
       <use style="stroke:#000000;stroke-width:0.5;" x="117.730982" xlink:href="#me440a8ba24" y="726.525"/>
      </g>
     </g>
     <g id="line2d_2">
      <defs>
       <path d="M 0 0 
L 0 4 
" id="mf141578387" style="stroke:#000000;stroke-width:0.5;"/>
      </defs>
      <g>
       <use style="stroke:#000000;stroke-width:0.5;" x="117.730982" xlink:href="#mf141578387" y="38.9273"/>
      </g>
     </g>
     <g id="text_1">
      <!-- Iran -->
      <g transform="translate(107.020045 739.354375)scale(0.12 -0.12)">
       <defs>
        <path d="M 21.78125 14.984375 
Q 21.78125 12.0625 21.796875 9.671875 
Q 21.828125 7.28125 21.875 5.328125 
Q 21.921875 4.109375 23.578125 3.65625 
L 29.109375 1.953125 
L 29.203125 -0.140625 
Q 22.90625 0 17.09375 0 
Q 11.1875 0 4.984375 -0.140625 
L 4.78125 1.953125 
L 10.796875 3.765625 
Q 12.015625 4.109375 12.109375 5.28125 
Q 12.15625 7.234375 12.171875 9.640625 
Q 12.203125 12.0625 12.203125 14.984375 
L 12.203125 54.59375 
Q 12.203125 57.078125 12.171875 59.078125 
Q 12.15625 61.078125 12.109375 62.703125 
Q 12.0625 63.96875 10.9375 64.359375 
L 4.890625 66.265625 
L 4.78125 68.359375 
Q 11.078125 68.171875 16.890625 68.171875 
Q 22.75 68.171875 29 68.359375 
L 29.203125 66.265625 
L 23.140625 64.453125 
Q 21.96875 64.15625 21.875 62.9375 
Q 21.828125 61.234375 21.796875 59.203125 
Q 21.78125 57.171875 21.78125 54.78125 
z
" id="Constantia-73"/>
        <path d="M 2.828125 42.96875 
Q 10.984375 44.53125 18.3125 46.390625 
L 18.796875 46.046875 
L 18.796875 40.328125 
Q 27.828125 46.390625 36.53125 46.390625 
L 36.765625 46.09375 
Q 35.359375 38.8125 33.984375 31 
L 32.03125 30.671875 
Q 30.671875 34.8125 29.390625 37.328125 
Q 28.125 39.84375 25.390625 39.84375 
Q 22.75 39.84375 18.796875 37.40625 
L 18.796875 16.265625 
Q 18.796875 8.640625 18.890625 5.375 
Q 18.953125 4.046875 20.125 3.71875 
L 26.609375 1.859375 
L 26.765625 -0.140625 
Q 19.140625 0 14.359375 0 
Q 9.578125 0 3.03125 -0.140625 
L 2.828125 1.859375 
L 8.5 3.515625 
Q 9.671875 3.90625 9.71875 5.03125 
Q 9.765625 7.125 9.765625 11.03125 
L 9.765625 27.6875 
Q 9.765625 35.640625 9.578125 39.546875 
L 3.078125 41.3125 
z
" id="Constantia-114"/>
        <path d="M 30.125 22.125 
Q 19.4375 22.125 15.53125 20.015625 
Q 11.625 17.921875 11.625 12.9375 
Q 11.625 8.296875 14.203125 6.359375 
Q 16.796875 4.4375 21.234375 4.4375 
Q 26.265625 4.4375 30.03125 6.15625 
z
M 6.453125 42.234375 
Q 15.96875 46.390625 23.296875 46.390625 
Q 30.765625 46.390625 34.9375 42.484375 
Q 39.109375 38.578125 39.0625 31.203125 
L 38.8125 10.890625 
Q 38.765625 8.40625 38.9375 6.890625 
Q 39.109375 5.375 39.8125 4.5625 
Q 40.53125 3.765625 41.9375 3.4375 
Q 43.359375 3.125 45.75 3.078125 
L 46 1.171875 
Q 43.890625 0.34375 40.859375 -0.484375 
Q 37.84375 -1.3125 36.765625 -1.3125 
Q 32.03125 -1.3125 30.28125 3.5625 
Q 23.4375 -1.375 17.390625 -1.375 
Q 10.59375 -1.375 6.46875 1.96875 
Q 2.34375 5.328125 2.34375 11.421875 
Q 2.34375 18.953125 9.046875 22.515625 
Q 15.765625 26.078125 30.125 26.078125 
L 30.171875 29.890625 
Q 30.21875 35.359375 27.390625 37.984375 
Q 24.5625 40.625 18.703125 40.625 
Q 14.265625 40.625 7.5625 38.96875 
z
" id="Constantia-97"/>
        <path d="M 2.828125 42.96875 
Q 11.03125 44.53125 18.3125 46.390625 
L 18.796875 46.046875 
L 18.796875 40.375 
Q 27.296875 46.390625 34.625 46.390625 
Q 41.546875 46.390625 45.484375 42.5 
Q 49.421875 38.625 49.421875 31.5 
L 49.421875 14.265625 
Q 49.421875 8.15625 49.515625 5.21875 
Q 49.5625 3.90625 50.78125 3.515625 
L 56.203125 1.859375 
L 56.296875 -0.140625 
Q 49.859375 0 45.0625 0 
Q 40.28125 0 34.421875 -0.140625 
L 34.234375 1.859375 
L 39.109375 3.265625 
Q 40.234375 3.65625 40.328125 4.78125 
Q 40.375 5.46875 40.375 7.859375 
L 40.375 29.15625 
Q 40.375 35.15625 37.5 37.765625 
Q 34.625 40.375 29 40.375 
Q 24.078125 40.375 18.796875 37.546875 
L 18.796875 16.21875 
Q 18.796875 10.109375 18.890625 5.03125 
Q 18.953125 3.71875 20.015625 3.375 
L 25.09375 1.859375 
L 25.203125 -0.140625 
Q 19.140625 0 14.359375 0 
Q 9.578125 0 3.03125 -0.140625 
L 2.828125 1.859375 
L 8.59375 3.515625 
Q 9.671875 3.953125 9.71875 5.03125 
Q 9.765625 8.15625 9.765625 11.03125 
L 9.765625 27.6875 
Q 9.765625 34.078125 9.578125 39.546875 
L 3.078125 41.3125 
z
" id="Constantia-110"/>
       </defs>
       <use xlink:href="#Constantia-73"/>
       <use x="33.984375" xlink:href="#Constantia-114"/>
       <use x="72.314453" xlink:href="#Constantia-97"/>
       <use x="120.3125" xlink:href="#Constantia-110"/>
      </g>
     </g>
    </g>
    <g id="xtick_2">
     <g id="line2d_3">
      <g>
       <use style="stroke:#000000;stroke-width:0.5;" x="250.27875" xlink:href="#me440a8ba24" y="726.525"/>
      </g>
     </g>
     <g id="line2d_4">
      <g>
       <use style="stroke:#000000;stroke-width:0.5;" x="250.27875" xlink:href="#mf141578387" y="38.9273"/>
      </g>
     </g>
     <g id="text_2">
      <!-- South Africa -->
      <g transform="translate(217.99875 739.354375)scale(0.12 -0.12)">
       <defs>
        <path d="M 37.109375 63.921875 
Q 31.984375 65.625 27.6875 65.625 
Q 21.234375 65.625 17.40625 62.5 
Q 13.578125 59.375 13.578125 53.8125 
Q 13.578125 50.640625 14.921875 48.234375 
Q 16.265625 45.84375 18.53125 44.03125 
Q 20.796875 42.234375 23.671875 40.8125 
Q 26.5625 39.40625 29.640625 38.03125 
Q 33.015625 36.578125 36.1875 34.9375 
Q 39.359375 33.296875 41.921875 31.09375 
Q 44.484375 28.90625 46.015625 25.828125 
Q 47.5625 22.75 47.5625 18.65625 
Q 47.5625 8.9375 40.75 3.8125 
Q 33.9375 -1.3125 21.875 -1.3125 
Q 14.109375 -1.3125 4.6875 1.3125 
L 4.390625 1.703125 
L 6.78125 18.3125 
L 8.984375 18.65625 
L 12.40625 4.78125 
Q 17.578125 2.734375 23 2.734375 
Q 30.28125 2.734375 34.34375 5.953125 
Q 38.421875 9.1875 38.421875 15.140625 
Q 38.421875 18.265625 37.109375 20.625 
Q 35.796875 23 33.5625 24.703125 
Q 31.34375 26.421875 28.515625 27.8125 
Q 25.6875 29.203125 22.65625 30.5625 
Q 19.234375 32.03125 16.015625 33.734375 
Q 12.796875 35.453125 10.171875 37.71875 
Q 7.5625 39.984375 6 43.28125 
Q 4.4375 46.578125 4.4375 50.984375 
Q 4.4375 59.8125 11.046875 64.640625 
Q 17.671875 69.484375 28.609375 69.484375 
Q 36.328125 69.484375 44.78125 67.671875 
L 45.125 67.328125 
L 42.234375 52.09375 
L 40.28125 51.765625 
z
" id="Constantia-83"/>
        <path d="M 13.71875 23.046875 
Q 13.71875 13.921875 17.140625 8.171875 
Q 20.5625 2.4375 27.296875 2.4375 
Q 33.59375 2.4375 36.890625 7.484375 
Q 40.1875 12.546875 40.1875 22.46875 
Q 40.1875 31.78125 36.71875 37.15625 
Q 33.25 42.53125 26.65625 42.53125 
Q 20.40625 42.53125 17.0625 37.6875 
Q 13.71875 32.859375 13.71875 23.046875 
z
M 50.140625 23.484375 
Q 50.140625 12.359375 43.421875 5.484375 
Q 36.71875 -1.375 26.375 -1.375 
Q 16.265625 -1.375 10.03125 5.09375 
Q 3.8125 11.578125 3.8125 22.015625 
Q 3.8125 32.765625 10.328125 39.578125 
Q 16.84375 46.390625 27.59375 46.390625 
Q 37.75 46.390625 43.9375 40.109375 
Q 50.140625 33.84375 50.140625 23.484375 
z
" id="Constantia-111"/>
        <path d="M 38.875 4.296875 
Q 31.25 -1.375 23.640625 -1.375 
Q 15.96875 -1.375 12.125 2.53125 
Q 8.296875 6.453125 8.296875 13.53125 
L 8.296875 23.875 
Q 8.296875 34.328125 8.109375 39.546875 
L 1.609375 41.3125 
L 1.375 42.96875 
Q 9.90625 44.53125 17.1875 46.390625 
L 17.625 46.046875 
Q 17.328125 40.328125 17.328125 31.34375 
L 17.328125 15.828125 
Q 17.328125 9.90625 20.109375 7.25 
Q 22.90625 4.59375 27.984375 4.59375 
Q 33.0625 4.59375 38.375 7.28125 
L 38.375 28.078125 
Q 38.375 34.90625 38.1875 39.546875 
L 31.734375 41.3125 
L 31.5 42.96875 
Q 39.984375 44.53125 47.265625 46.390625 
L 47.703125 46.046875 
Q 47.40625 40.1875 47.40625 31.0625 
Q 47.40625 13.328125 47.515625 9.421875 
Q 47.5625 7.421875 47.796875 6.203125 
Q 48.046875 4.984375 48.734375 4.3125 
Q 49.421875 3.65625 50.75 3.390625 
Q 52.09375 3.125 54.34375 3.078125 
L 54.59375 1.171875 
Q 52.34375 0.296875 49.40625 -0.5 
Q 46.484375 -1.3125 45.40625 -1.3125 
Q 40.484375 -1.3125 38.875 4.296875 
z
" id="Constantia-117"/>
        <path d="M 17.484375 39.9375 
Q 17.1875 23.4375 17.1875 13.328125 
Q 17.1875 8.25 18.703125 6.3125 
Q 20.21875 4.390625 24.46875 4.390625 
Q 27.828125 4.390625 33.25 5.28125 
L 33.546875 3.078125 
Q 25.09375 -1.171875 18.453125 -1.171875 
Q 13.140625 -1.171875 10.546875 1.6875 
Q 7.953125 4.546875 7.953125 10.296875 
Q 7.953125 19.78125 8.296875 40.234375 
L 1.5625 41.890625 
L 1.265625 43.890625 
L 8.796875 44.53125 
L 12.15625 56.34375 
Q 14.890625 57.078125 17.140625 57.765625 
L 17.625 57.421875 
Q 17.484375 51.515625 17.484375 46.390625 
L 17.484375 44.578125 
L 32.171875 44.578125 
L 32.171875 39.9375 
z
" id="Constantia-116"/>
        <path d="M 2.484375 70.125 
Q 10.453125 71.6875 18.40625 73.578125 
L 18.84375 73.1875 
Q 18.609375 68.609375 18.578125 60.109375 
Q 18.5625 51.609375 18.5625 40.921875 
Q 27.046875 46.390625 34.375 46.390625 
Q 41.15625 46.390625 45.15625 42.59375 
Q 49.171875 38.8125 49.171875 31.5 
L 49.171875 14.265625 
Q 49.171875 8.640625 49.265625 5.21875 
Q 49.3125 3.953125 50.484375 3.515625 
L 55.953125 1.859375 
L 56.0625 -0.140625 
Q 49.609375 0 44.828125 0 
Q 40.046875 0 34.1875 -0.140625 
L 33.984375 1.859375 
L 38.8125 3.265625 
Q 39.984375 3.65625 40.09375 4.78125 
Q 40.140625 5.46875 40.140625 7.859375 
L 40.140625 29.15625 
Q 40.140625 35.15625 37.25 37.765625 
Q 34.375 40.375 28.765625 40.375 
Q 23.921875 40.375 18.5625 38.03125 
L 18.5625 16.109375 
Q 18.5625 10.0625 18.65625 5.03125 
Q 18.703125 3.65625 19.875 3.328125 
L 24.953125 1.859375 
L 25.046875 -0.140625 
Q 18.890625 0 14.109375 0 
Q 9.328125 0 2.78125 -0.140625 
L 2.59375 1.859375 
L 8.109375 3.46875 
Q 9.375 3.859375 9.421875 5.03125 
Q 9.515625 9.71875 9.515625 17 
L 9.515625 37.40625 
Q 9.515625 47.359375 9.484375 55.03125 
Q 9.46875 62.703125 9.328125 66.546875 
L 2.734375 68.5 
z
" id="Constantia-104"/>
        <path id="Constantia-32"/>
        <path d="M 36.8125 69.390625 
L 58.5 9.671875 
Q 59.71875 6.296875 60.71875 5.09375 
Q 61.71875 3.90625 63.578125 3.328125 
L 68.171875 1.953125 
L 68.265625 -0.140625 
Q 61.859375 0 56.390625 0 
Q 50.828125 0 43.265625 -0.140625 
L 43.0625 1.953125 
L 47.703125 3.328125 
Q 48.6875 3.65625 49.09375 4.078125 
Q 49.515625 4.5 49.515625 5.375 
Q 49.515625 6.34375 49 7.921875 
Q 48.484375 9.515625 47.5625 12.15625 
L 42.96875 25.25 
L 19.4375 25.25 
L 14.3125 12.203125 
Q 13.28125 9.46875 12.6875 7.859375 
Q 12.109375 6.25 12.109375 5.328125 
Q 12.109375 4.5 12.5625 4.078125 
Q 13.03125 3.65625 13.96875 3.375 
L 18.5 2.046875 
L 18.609375 -0.140625 
Q 11.671875 0 7.28125 0 
Q 2.875 0 -2.546875 -0.140625 
L -2.78125 1.953125 
L 2.15625 3.46875 
Q 4 4.046875 4.875 5.265625 
Q 5.765625 6.5 6.84375 9.078125 
L 31.78125 68.65625 
z
M 21.234375 29.6875 
L 41.359375 29.6875 
L 31.84375 56.59375 
z
" id="Constantia-65"/>
        <path d="M 18.796875 39.9375 
L 18.796875 13.421875 
Q 18.796875 8.84375 18.890625 5.375 
Q 19 4.046875 20.171875 3.71875 
L 26.375 1.859375 
L 26.515625 -0.140625 
Q 19.140625 0 14.40625 0 
Q 9.578125 0 3.03125 -0.140625 
L 2.78125 1.859375 
L 8.25 3.421875 
Q 9.625 3.859375 9.671875 5.03125 
Q 9.765625 8.0625 9.765625 11.421875 
L 9.765625 40.1875 
L 3.125 41.84375 
L 2.78125 43.890625 
L 9.8125 44.484375 
L 9.8125 44.671875 
Q 9.8125 58.453125 15.796875 66.015625 
Q 21.78125 73.578125 31.84375 73.578125 
Q 36.765625 73.578125 41.359375 72.359375 
Q 39.703125 66.40625 38.53125 60.109375 
L 36.46875 59.71875 
L 33.296875 69.484375 
Q 32.171875 69.625 30.46875 69.625 
Q 24.859375 69.625 21.828125 64.59375 
Q 18.796875 59.578125 18.796875 46.1875 
L 18.796875 44.578125 
L 30.953125 44.578125 
L 30.953125 39.9375 
z
" id="Constantia-102"/>
        <path d="M 19.34375 63.671875 
Q 19.34375 61.078125 17.71875 59.4375 
Q 16.109375 57.8125 13.578125 57.8125 
Q 11.140625 57.8125 9.59375 59.328125 
Q 8.0625 60.84375 8.0625 63.328125 
Q 8.0625 65.96875 9.671875 67.5 
Q 11.28125 69.046875 13.921875 69.046875 
Q 16.3125 69.046875 17.828125 67.65625 
Q 19.34375 66.265625 19.34375 63.671875 
z
M 2.828125 42.96875 
Q 11.375 44.578125 18.65625 46.390625 
L 19.09375 46.046875 
Q 18.796875 39.703125 18.796875 32.078125 
L 18.796875 13.328125 
Q 18.796875 7.46875 18.890625 5.21875 
Q 19 3.90625 20.125 3.515625 
L 25.78125 1.859375 
L 25.875 -0.140625 
Q 19.140625 0 14.359375 0 
Q 9.578125 0 2.984375 -0.140625 
L 2.78125 1.859375 
L 8.453125 3.515625 
Q 9.578125 3.90625 9.671875 5.03125 
Q 9.765625 6.9375 9.765625 11.421875 
L 9.765625 27.734375 
Q 9.765625 34.125 9.578125 39.546875 
L 3.078125 41.3125 
z
" id="Constantia-105"/>
        <path d="M 42.96875 3.46875 
Q 39.9375 1.421875 35.46875 0.015625 
Q 31 -1.375 26.609375 -1.375 
Q 16.0625 -1.375 9.90625 4.796875 
Q 3.765625 10.984375 3.765625 21.296875 
Q 3.765625 32.46875 10.734375 39.421875 
Q 17.71875 46.390625 28.8125 46.390625 
Q 35.984375 46.390625 42.71875 43.453125 
Q 41.109375 36.921875 39.84375 30.078125 
L 37.9375 29.78125 
L 33.984375 41.5 
Q 31.734375 42.28125 28.90625 42.28125 
Q 21.625 42.28125 17.515625 37.203125 
Q 13.421875 32.125 13.421875 23.78125 
Q 13.421875 13.96875 18.0625 9.28125 
Q 22.703125 4.59375 32.765625 4.59375 
Q 37.40625 4.59375 42.671875 5.515625 
z
" id="Constantia-99"/>
       </defs>
       <use xlink:href="#Constantia-83"/>
       <use x="50.976562" xlink:href="#Constantia-111"/>
       <use x="105.029297" xlink:href="#Constantia-117"/>
       <use x="161.962891" xlink:href="#Constantia-116"/>
       <use x="197.265625" xlink:href="#Constantia-104"/>
       <use x="255.224609" xlink:href="#Constantia-32"/>
       <use x="278.822266" xlink:href="#Constantia-65"/>
       <use x="346.253906" xlink:href="#Constantia-102"/>
       <use x="377.210938" xlink:href="#Constantia-114"/>
       <use x="415.541016" xlink:href="#Constantia-105"/>
       <use x="443.861328" xlink:href="#Constantia-99"/>
       <use x="490.003906" xlink:href="#Constantia-97"/>
      </g>
     </g>
    </g>
    <g id="xtick_3">
     <g id="line2d_5">
      <g>
       <use style="stroke:#000000;stroke-width:0.5;" x="382.826518" xlink:href="#me440a8ba24" y="726.525"/>
      </g>
     </g>
     <g id="line2d_6">
      <g>
       <use style="stroke:#000000;stroke-width:0.5;" x="382.826518" xlink:href="#mf141578387" y="38.9273"/>
      </g>
     </g>
     <g id="text_3">
      <!-- Mexico -->
      <g transform="translate(364.046518 739.354375)scale(0.12 -0.12)">
       <defs>
        <path d="M 67.53125 68.359375 
Q 72.125 68.171875 75.828125 68.171875 
Q 79.4375 68.171875 85.546875 68.359375 
L 85.75 66.265625 
L 79.59375 64.359375 
Q 78.46875 63.96875 78.421875 62.703125 
Q 78.328125 59.46875 78.328125 54.59375 
L 78.328125 14.984375 
Q 78.328125 9.234375 78.421875 5.28125 
Q 78.46875 4.15625 79.78125 3.765625 
L 85.640625 1.953125 
L 85.75 -0.140625 
Q 79.296875 0 73.4375 0 
Q 67.671875 0 62.0625 -0.140625 
L 61.859375 1.953125 
L 67.484375 3.65625 
Q 68.65625 4 68.703125 5.375 
Q 68.796875 9.234375 68.796875 14.984375 
L 68.796875 57.28125 
L 44.578125 0 
L 41.015625 -0.390625 
L 16.65625 57.28125 
L 16.65625 14.984375 
Q 16.65625 9.234375 16.75 5.375 
Q 16.796875 4 18.015625 3.65625 
L 23.484375 1.953125 
L 23.578125 -0.140625 
Q 17.78125 0 13.875 0 
Q 10.0625 0 3.765625 -0.140625 
L 3.5625 1.953125 
L 9.578125 3.765625 
Q 10.84375 4.15625 10.890625 5.28125 
Q 10.984375 9.234375 10.984375 14.984375 
L 10.984375 54.59375 
Q 10.984375 59.46875 10.890625 62.703125 
Q 10.84375 63.96875 9.71875 64.359375 
L 3.65625 66.265625 
L 3.5625 68.359375 
Q 9.859375 68.171875 13.53125 68.171875 
Q 17.71875 68.171875 22.265625 68.359375 
L 44.921875 14.796875 
z
" id="Constantia-77"/>
        <path d="M 44.046875 3.46875 
Q 39.890625 0.875 35.5 -0.25 
Q 31.109375 -1.375 27.34375 -1.375 
Q 16.609375 -1.375 10.203125 4.75 
Q 3.8125 10.890625 3.8125 21.78125 
Q 3.8125 32.625 9.9375 39.5 
Q 16.0625 46.390625 26.3125 46.390625 
Q 34.90625 46.390625 39.6875 41.234375 
Q 44.484375 36.078125 44.484375 27 
Q 44.484375 25.640625 44.34375 24.21875 
L 13.375 24.21875 
Q 13.375 13.71875 18.3125 9.203125 
Q 23.25 4.6875 33.734375 4.6875 
Q 38.421875 4.6875 43.75 5.5625 
z
M 34.765625 28.265625 
L 34.765625 29.734375 
Q 34.765625 36.671875 32.546875 39.640625 
Q 30.328125 42.625 25.921875 42.625 
Q 20.125 42.625 17.046875 38.421875 
Q 13.96875 34.234375 13.578125 28.265625 
z
" id="Constantia-101"/>
        <path d="M 1.3125 45.265625 
Q 7.515625 45.125 12.40625 45.125 
Q 16.0625 45.125 21.625 45.265625 
L 21.828125 43.265625 
L 17.484375 42.140625 
Q 20.609375 36.8125 25.875 28.328125 
Q 31.109375 36.03125 35.015625 42.046875 
L 30.859375 43.265625 
L 30.609375 45.265625 
Q 34.71875 45.125 37.890625 45.125 
Q 42.234375 45.125 45.953125 45.265625 
L 46.1875 43.265625 
L 41.546875 42 
Q 40.28125 41.65625 39.203125 40.1875 
Q 34.078125 33.40625 28.125 24.65625 
Q 34.515625 14.359375 40.625 5.125 
Q 41.546875 3.71875 43.171875 3.171875 
L 47.40625 1.859375 
L 47.609375 -0.140625 
Q 41.453125 0 36.578125 0 
Q 32.90625 0 27.34375 -0.140625 
L 27.15625 1.859375 
L 31.390625 2.984375 
Q 27.546875 9.078125 22.125 17.828125 
Q 16.75 9.96875 12.3125 3.078125 
L 16.453125 1.859375 
L 16.65625 -0.140625 
Q 12.640625 0 9.515625 0 
Q 5.171875 0 0.828125 -0.140625 
L 0.640625 1.859375 
L 5.375 3.125 
Q 6.9375 3.5625 8.25 5.28125 
Q 13.625 12.453125 19.828125 21.578125 
Q 13.625 31.640625 8.40625 39.84375 
Q 7.421875 41.359375 5.765625 41.9375 
L 1.515625 43.265625 
z
" id="Constantia-120"/>
       </defs>
       <use xlink:href="#Constantia-77"/>
       <use x="88.527344" xlink:href="#Constantia-101"/>
       <use x="136.427734" xlink:href="#Constantia-120"/>
       <use x="184.474609" xlink:href="#Constantia-105"/>
       <use x="212.794922" xlink:href="#Constantia-99"/>
       <use x="258.9375" xlink:href="#Constantia-111"/>
      </g>
     </g>
    </g>
    <g id="xtick_4">
     <g id="line2d_7">
      <g>
       <use style="stroke:#000000;stroke-width:0.5;" x="515.374286" xlink:href="#me440a8ba24" y="726.525"/>
      </g>
     </g>
     <g id="line2d_8">
      <g>
       <use style="stroke:#000000;stroke-width:0.5;" x="515.374286" xlink:href="#mf141578387" y="38.9273"/>
      </g>
     </g>
     <g id="text_4">
      <!-- Peru -->
      <g transform="translate(503.467098 739.354375)scale(0.12 -0.12)">
       <defs>
        <path d="M 21.78125 33.015625 
Q 25.203125 32.421875 28.515625 32.421875 
Q 36.328125 32.421875 40.40625 36.453125 
Q 44.484375 40.484375 44.484375 48.78125 
Q 44.484375 56.734375 40.59375 60.640625 
Q 36.71875 64.546875 28.375 64.546875 
Q 25.09375 64.546875 21.78125 64.15625 
z
M 21.78125 14.984375 
Q 21.78125 12.0625 21.796875 9.71875 
Q 21.828125 7.375 21.875 5.515625 
Q 21.921875 4.390625 23.140625 4 
L 29.890625 1.953125 
L 29.984375 -0.140625 
Q 22.90625 0 17.09375 0 
Q 11.1875 0 4.984375 -0.140625 
L 4.78125 1.953125 
L 10.796875 3.765625 
Q 12.0625 4.15625 12.109375 5.28125 
Q 12.15625 7.234375 12.171875 9.640625 
Q 12.203125 12.0625 12.203125 14.984375 
L 12.203125 54.59375 
Q 12.203125 57.078125 12.171875 59.078125 
Q 12.15625 61.078125 12.109375 62.703125 
Q 12.0625 63.96875 10.9375 64.359375 
L 4.890625 66.265625 
L 4.78125 68.359375 
Q 11.078125 68.171875 17.046875 68.171875 
Q 21.046875 68.171875 24.78125 68.359375 
Q 28.515625 68.5625 31.59375 68.5625 
Q 43.0625 68.5625 48.9375 64.03125 
Q 54.828125 59.515625 54.828125 50.59375 
Q 54.828125 40.09375 48.046875 34.28125 
Q 41.265625 28.46875 29 28.46875 
Q 25.640625 28.46875 21.78125 28.90625 
z
" id="Constantia-80"/>
       </defs>
       <use xlink:href="#Constantia-80"/>
       <use x="55.279297" xlink:href="#Constantia-101"/>
       <use x="103.179688" xlink:href="#Constantia-114"/>
       <use x="141.509766" xlink:href="#Constantia-117"/>
      </g>
     </g>
    </g>
    <g id="xtick_5">
     <g id="line2d_9">
      <g>
       <use style="stroke:#000000;stroke-width:0.5;" x="647.922054" xlink:href="#me440a8ba24" y="726.525"/>
      </g>
     </g>
     <g id="line2d_10">
      <g>
       <use style="stroke:#000000;stroke-width:0.5;" x="647.922054" xlink:href="#mf141578387" y="38.9273"/>
      </g>
     </g>
     <g id="text_5">
      <!-- Colombia -->
      <g transform="translate(622.797991 739.354375)scale(0.12 -0.12)">
       <defs>
        <path d="M 57.515625 51.3125 
L 55.5625 51.03125 
L 52 63.875 
Q 45.953125 65.375 41.015625 65.375 
Q 29.046875 65.375 22.203125 57.03125 
Q 15.375 48.6875 15.375 35.359375 
Q 15.375 21.09375 23.1875 12.59375 
Q 31 4.109375 44.828125 4.109375 
Q 52.59375 4.109375 61.1875 7.078125 
L 61.71875 4.890625 
Q 52.09375 -1.765625 39.9375 -1.765625 
Q 24.171875 -1.765625 14.5 7.859375 
Q 4.828125 17.484375 4.828125 33.203125 
Q 4.828125 49.953125 15.46875 59.71875 
Q 26.125 69.484375 43.3125 69.484375 
Q 51.5625 69.484375 60.203125 67.484375 
L 60.546875 67.09375 
z
" id="Constantia-67"/>
        <path d="M 2.734375 68.5 
L 2.484375 70.125 
Q 11.140625 71.78125 18.40625 73.578125 
L 18.84375 73.1875 
Q 18.5625 65.234375 18.5625 51.078125 
L 18.5625 19.28125 
Q 18.5625 10.546875 18.65625 5.21875 
Q 18.796875 3.8125 20.015625 3.46875 
L 25.34375 1.859375 
L 25.484375 -0.140625 
Q 18.890625 0 14.109375 0 
Q 9.328125 0 2.78125 -0.140625 
L 2.59375 1.859375 
L 8.109375 3.46875 
Q 9.328125 3.859375 9.421875 5.03125 
Q 9.515625 10.546875 9.515625 17.328125 
L 9.515625 37.40625 
Q 9.515625 55.5625 9.328125 66.546875 
z
" id="Constantia-108"/>
        <path d="M 47.65625 36.859375 
Q 48.34375 34.515625 48.34375 31.59375 
L 48.34375 14.15625 
Q 48.34375 8.453125 48.4375 4.984375 
Q 48.53125 3.65625 49.703125 3.265625 
L 54.640625 1.859375 
L 54.734375 -0.140625 
Q 48.78125 0 44 0 
Q 39.203125 0 33.34375 -0.140625 
L 33.15625 1.859375 
L 37.796875 3.21875 
Q 39.203125 3.71875 39.265625 4.78125 
Q 39.3125 5.46875 39.3125 7.859375 
L 39.3125 29.15625 
Q 39.3125 35.15625 36.578125 37.765625 
Q 33.84375 40.375 28.46875 40.375 
Q 23.734375 40.375 18.796875 37.546875 
L 18.796875 16.21875 
Q 18.796875 10.109375 18.890625 5.03125 
Q 18.953125 3.5625 19.921875 3.375 
L 25.09375 1.859375 
L 25.203125 -0.140625 
Q 19.140625 0 14.359375 0 
Q 9.578125 0 3.03125 -0.140625 
L 2.828125 1.859375 
L 8.453125 3.515625 
Q 9.671875 3.859375 9.71875 5.03125 
Q 9.765625 7.625 9.765625 11.03125 
L 9.765625 27.6875 
Q 9.765625 34.078125 9.578125 39.546875 
L 3.078125 41.3125 
L 2.828125 42.96875 
Q 10.890625 44.53125 18.265625 46.390625 
L 18.75 46.046875 
L 18.75 40.375 
Q 26.765625 46.390625 33.9375 46.390625 
Q 42.71875 46.390625 46.625 39.59375 
Q 54.34375 46.390625 63.375 46.390625 
Q 70.171875 46.390625 74 42.546875 
Q 77.828125 38.71875 77.828125 31.59375 
L 77.828125 14.3125 
Q 77.828125 8.15625 77.9375 5.21875 
Q 78.03125 3.90625 79.25 3.515625 
L 84.671875 1.859375 
L 84.765625 -0.140625 
Q 78.328125 0 73.53125 0 
Q 68.703125 0 62.890625 -0.140625 
L 62.703125 1.859375 
L 67.53125 3.265625 
Q 68.65625 3.65625 68.796875 4.78125 
Q 68.84375 5.46875 68.84375 7.859375 
L 68.84375 29.15625 
Q 68.84375 35.15625 66.0625 37.765625 
Q 63.28125 40.375 57.859375 40.375 
Q 52.390625 40.375 47.65625 36.859375 
z
" id="Constantia-109"/>
        <path d="M 17.578125 4.15625 
Q 21.53125 2.875 25.59375 2.875 
Q 33.796875 2.875 37.921875 7.90625 
Q 42.046875 12.9375 42.046875 22.3125 
Q 42.046875 30.90625 38.234375 35.6875 
Q 34.421875 40.484375 26.953125 40.484375 
Q 22.171875 40.484375 17.578125 38.328125 
z
M 17.875 73.1875 
Q 17.578125 65.875 17.578125 51.171875 
L 17.578125 41.265625 
Q 25.4375 46.390625 31.984375 46.390625 
Q 41.15625 46.390625 46.484375 40.234375 
Q 51.8125 34.078125 51.8125 24.171875 
Q 51.8125 12.109375 44.953125 5.390625 
Q 38.09375 -1.3125 25.921875 -1.3125 
Q 17.828125 -1.3125 8.453125 1.46875 
Q 8.546875 7.671875 8.546875 17.4375 
L 8.546875 46.390625 
Q 8.546875 57.171875 8.34375 66.546875 
L 1.765625 68.5 
L 1.515625 70.125 
Q 9.515625 71.625 17.390625 73.578125 
z
" id="Constantia-98"/>
       </defs>
       <use xlink:href="#Constantia-67"/>
       <use x="63.886719" xlink:href="#Constantia-111"/>
       <use x="117.939453" xlink:href="#Constantia-108"/>
       <use x="146.015625" xlink:href="#Constantia-111"/>
       <use x="200.068359" xlink:href="#Constantia-109"/>
       <use x="286.689453" xlink:href="#Constantia-98"/>
       <use x="342.402344" xlink:href="#Constantia-105"/>
       <use x="370.722656" xlink:href="#Constantia-97"/>
      </g>
     </g>
    </g>
    <g id="xtick_6">
     <g id="line2d_11">
      <g>
       <use style="stroke:#000000;stroke-width:0.5;" x="780.469821" xlink:href="#me440a8ba24" y="726.525"/>
      </g>
     </g>
     <g id="line2d_12">
      <g>
       <use style="stroke:#000000;stroke-width:0.5;" x="780.469821" xlink:href="#mf141578387" y="38.9273"/>
      </g>
     </g>
     <g id="text_6">
      <!-- Argentina -->
      <g transform="translate(754.520759 739.26625)scale(0.12 -0.12)">
       <defs>
        <path d="M 14.015625 30.328125 
Q 14.015625 23.96875 16.578125 20.5 
Q 19.140625 17.046875 24.03125 17.046875 
Q 28.71875 17.046875 31.078125 20.28125 
Q 33.453125 23.53125 33.453125 29.78125 
Q 33.453125 35.796875 30.9375 39.25 
Q 28.421875 42.71875 23.4375 42.71875 
Q 18.75 42.71875 16.375 39.546875 
Q 14.015625 36.375 14.015625 30.328125 
z
M 13.375 -1.953125 
Q 10.0625 -6.9375 10.0625 -11.140625 
Q 10.0625 -15.4375 13.53125 -17.828125 
Q 17 -20.21875 22.953125 -20.21875 
Q 30.03125 -20.21875 35.34375 -17.0625 
Q 40.671875 -13.921875 40.671875 -8.25 
Q 40.671875 -5.171875 38.0625 -3.484375 
Q 35.453125 -1.8125 28.21875 -1.8125 
Q 25.640625 -1.8125 22.578125 -1.953125 
Q 19.53125 -2.09375 16.703125 -2.09375 
Q 15.140625 -2.09375 13.375 -1.953125 
z
M 38.875 40.234375 
Q 42.53125 36.1875 42.53125 30.5625 
Q 42.53125 22.703125 37.0625 18.03125 
Q 31.59375 13.375 23.34375 13.375 
Q 18.65625 13.375 14.9375 14.84375 
Q 12.3125 10.59375 12.3125 8.15625 
Q 12.3125 6.84375 13.640625 6.375 
Q 14.984375 5.90625 18.609375 5.90625 
Q 21.34375 5.90625 25 6.046875 
Q 28.65625 6.203125 31.84375 6.203125 
Q 39.59375 6.203125 44.109375 3.25 
Q 48.640625 0.296875 48.640625 -5.515625 
Q 48.640625 -14.3125 40.359375 -19.390625 
Q 32.078125 -24.46875 21.53125 -24.46875 
Q 12.890625 -24.46875 7.734375 -21.5625 
Q 2.59375 -18.65625 2.59375 -14.015625 
Q 2.59375 -8.40625 10.546875 -1.421875 
Q 5.515625 0.484375 5.515625 3.65625 
Q 5.515625 8.109375 12.5 16.0625 
Q 4.890625 20.703125 4.890625 29.5 
Q 4.890625 37.109375 10.28125 41.75 
Q 15.671875 46.390625 24.21875 46.390625 
Q 26.46875 46.390625 30.328125 45.796875 
Q 33.984375 45.125 36.03125 45.125 
Q 43.40625 45.125 49.609375 45.265625 
L 49.859375 43.265625 
z
" id="Constantia-103"/>
       </defs>
       <use xlink:href="#Constantia-65"/>
       <use x="67.431641" xlink:href="#Constantia-114"/>
       <use x="105.761719" xlink:href="#Constantia-103"/>
       <use x="156.542969" xlink:href="#Constantia-101"/>
       <use x="204.443359" xlink:href="#Constantia-110"/>
       <use x="262.646484" xlink:href="#Constantia-116"/>
       <use x="297.949219" xlink:href="#Constantia-105"/>
       <use x="326.269531" xlink:href="#Constantia-110"/>
       <use x="384.472656" xlink:href="#Constantia-97"/>
      </g>
     </g>
    </g>
    <g id="xtick_7">
     <g id="line2d_13">
      <g>
       <use style="stroke:#000000;stroke-width:0.5;" x="913.017589" xlink:href="#me440a8ba24" y="726.525"/>
      </g>
     </g>
     <g id="line2d_14">
      <g>
       <use style="stroke:#000000;stroke-width:0.5;" x="913.017589" xlink:href="#mf141578387" y="38.9273"/>
      </g>
     </g>
     <g id="text_7">
      <!-- Russia -->
      <g transform="translate(896.465089 739.354375)scale(0.12 -0.12)">
       <defs>
        <path d="M 21.78125 14.984375 
Q 21.78125 12.0625 21.796875 9.71875 
Q 21.828125 7.375 21.875 5.46875 
Q 21.921875 3.953125 23.140625 3.5625 
L 28.5625 1.953125 
L 28.71875 -0.140625 
Q 22.90625 0 17.09375 0 
Q 11.1875 0 4.984375 -0.140625 
L 4.78125 1.953125 
L 10.796875 3.765625 
Q 12.015625 4.109375 12.109375 5.28125 
Q 12.15625 7.234375 12.171875 9.640625 
Q 12.203125 12.0625 12.203125 14.984375 
L 12.203125 54.59375 
Q 12.203125 57.078125 12.171875 59.078125 
Q 12.15625 61.078125 12.109375 62.703125 
Q 12.0625 63.96875 10.9375 64.359375 
L 4.890625 66.265625 
L 4.78125 68.359375 
Q 11.078125 68.171875 17.046875 68.171875 
Q 18.21875 68.171875 20.015625 68.234375 
Q 21.828125 68.3125 24.421875 68.40625 
Q 27.046875 68.5 28.796875 68.546875 
Q 30.5625 68.609375 31.59375 68.609375 
Q 42.71875 68.609375 48.28125 64.40625 
Q 53.859375 60.203125 53.859375 52.15625 
Q 53.859375 44.875 50.046875 40.359375 
Q 46.234375 35.84375 38.421875 33.40625 
Q 41.5 28.71875 44.09375 24.34375 
Q 46.6875 19.96875 48.90625 16.328125 
Q 51.125 12.703125 52.96875 9.90625 
Q 54.828125 7.125 56.453125 5.515625 
Q 57.28125 4.6875 58.109375 4.078125 
Q 58.9375 3.46875 59.84375 3.078125 
Q 60.75 2.6875 61.75 2.390625 
Q 62.75 2.09375 63.96875 1.8125 
L 64.109375 -0.34375 
Q 60.59375 -0.78125 58.203125 -0.78125 
Q 56.203125 -0.78125 54.6875 -0.6875 
Q 53.171875 -0.59375 52 -0.296875 
Q 50.828125 0 49.875 0.453125 
Q 48.921875 0.921875 48 1.65625 
Q 46 3.171875 44.0625 6.03125 
Q 42.140625 8.890625 40.0625 12.5 
Q 37.984375 16.109375 35.734375 20.1875 
Q 33.5 24.265625 31 28.171875 
Q 30.28125 29.34375 29.765625 30.03125 
Q 29.25 30.71875 28.640625 31.109375 
Q 28.03125 31.5 27.21875 31.640625 
Q 26.421875 31.78125 25.140625 31.84375 
L 21.78125 31.9375 
z
M 21.78125 35.59375 
Q 24.75 35.453125 27.296875 35.453125 
Q 35.75 35.453125 39.671875 39.03125 
Q 43.609375 42.625 43.609375 50.296875 
Q 43.609375 57.71875 39.84375 61.125 
Q 36.078125 64.546875 28.078125 64.546875 
Q 26.703125 64.546875 25.140625 64.453125 
Q 23.578125 64.359375 21.78125 64.15625 
z
" id="Constantia-82"/>
        <path d="M 27.875 41.453125 
Q 25.046875 42.234375 21.734375 42.234375 
Q 17.140625 42.234375 14.328125 40.453125 
Q 11.53125 38.671875 11.53125 35.59375 
Q 11.53125 32.625 13.359375 30.90625 
Q 15.1875 29.203125 20.171875 27.546875 
L 24.171875 26.171875 
Q 30.90625 23.875 34.046875 20.921875 
Q 37.203125 17.96875 37.203125 13.1875 
Q 37.203125 6.390625 31.921875 2.5 
Q 26.65625 -1.375 18.609375 -1.375 
Q 11.1875 -1.375 3.421875 1.65625 
Q 5.078125 8.015625 6.109375 14.0625 
L 8.015625 14.359375 
L 11.53125 3.859375 
Q 14.3125 2.78125 18.609375 2.78125 
Q 23.140625 2.78125 25.84375 4.640625 
Q 28.5625 6.5 28.5625 9.859375 
Q 28.5625 12.984375 26.734375 14.796875 
Q 24.90625 16.609375 20.90625 17.921875 
L 15.828125 19.625 
Q 9.234375 21.828125 6.71875 24.921875 
Q 4.203125 28.03125 4.203125 32.625 
Q 4.203125 39.015625 9.0625 42.703125 
Q 13.921875 46.390625 21.875 46.390625 
Q 29.296875 46.390625 35.359375 44.234375 
Q 33.984375 38.671875 32.859375 32.46875 
L 31 32.125 
z
" id="Constantia-115"/>
       </defs>
       <use xlink:href="#Constantia-82"/>
       <use x="61.634766" xlink:href="#Constantia-117"/>
       <use x="118.568359" xlink:href="#Constantia-115"/>
       <use x="159.046875" xlink:href="#Constantia-115"/>
       <use x="199.525391" xlink:href="#Constantia-105"/>
       <use x="227.845703" xlink:href="#Constantia-97"/>
      </g>
     </g>
    </g>
    <g id="xtick_8">
     <g id="line2d_15">
      <g>
       <use style="stroke:#000000;stroke-width:0.5;" x="1045.565357" xlink:href="#me440a8ba24" y="726.525"/>
      </g>
     </g>
     <g id="line2d_16">
      <g>
       <use style="stroke:#000000;stroke-width:0.5;" x="1045.565357" xlink:href="#mf141578387" y="38.9273"/>
      </g>
     </g>
     <g id="text_8">
      <!-- Brazil -->
      <g transform="translate(1030.53817 739.354375)scale(0.12 -0.12)">
       <defs>
        <path d="M 4.78125 68.359375 
Q 11.078125 68.171875 17.046875 68.171875 
Q 19.28125 68.265625 24.3125 68.453125 
Q 29.34375 68.65625 31.109375 68.65625 
Q 41.65625 68.65625 47.046875 64.671875 
Q 52.4375 60.6875 52.4375 53.21875 
Q 52.4375 41.21875 39.5 36.859375 
Q 47.078125 35.59375 51.390625 31.25 
Q 55.71875 26.90625 55.71875 20.171875 
Q 55.71875 10.40625 48.625 5.046875 
Q 41.546875 -0.296875 29 -0.296875 
Q 26.515625 -0.296875 23.609375 -0.140625 
Q 20.703125 0 17.09375 0 
Q 11.1875 0 4.984375 -0.140625 
L 4.78125 1.953125 
L 10.796875 3.765625 
Q 12.015625 4.109375 12.109375 5.28125 
Q 12.15625 7.234375 12.171875 9.640625 
Q 12.203125 12.0625 12.203125 14.984375 
L 12.203125 54.59375 
Q 12.203125 57.078125 12.171875 59.078125 
Q 12.15625 61.078125 12.109375 62.703125 
Q 12.0625 63.96875 10.9375 64.359375 
L 4.890625 66.265625 
z
M 21.6875 33.984375 
L 21.6875 4.34375 
Q 23.140625 3.8125 25.0625 3.65625 
Q 27 3.515625 28.609375 3.515625 
Q 36.71875 3.515625 40.9375 7.515625 
Q 45.171875 11.53125 45.171875 19.140625 
Q 45.171875 26.765625 40.890625 30.4375 
Q 36.625 34.125 27.09375 34.125 
Q 24.3125 34.125 21.6875 33.984375 
z
M 21.6875 37.890625 
Q 24.703125 37.84375 27.828125 37.84375 
Q 35.0625 37.84375 38.75 41.328125 
Q 42.4375 44.828125 42.4375 51.46875 
Q 42.4375 58.453125 38.640625 61.5 
Q 34.859375 64.546875 27.734375 64.546875 
Q 26.46875 64.546875 24.953125 64.46875 
Q 23.4375 64.40625 21.6875 64.203125 
z
" id="Constantia-66"/>
        <path d="M 3.375 0.4375 
Q 11.671875 12.40625 17.1875 20.5625 
Q 22.703125 28.71875 31.0625 41.3125 
L 11.96875 41.3125 
L 8.796875 31.5 
L 6.84375 31.15625 
Q 5.71875 38.765625 4.390625 44.828125 
L 4.546875 45.265625 
Q 14.5 45.125 23.78125 45.125 
Q 33.15625 45.125 43.3125 45.265625 
L 43.65625 44.734375 
Q 36.578125 34.28125 30.078125 24.609375 
Q 23.578125 14.9375 16.40625 3.90625 
L 35.84375 3.90625 
L 41.9375 14.0625 
L 43.953125 14.359375 
Q 43.171875 7.46875 42.78125 0.203125 
L 42.484375 -0.140625 
Q 34.03125 0 22.65625 0 
Q 12.3125 0 3.71875 -0.140625 
z
" id="Constantia-122"/>
       </defs>
       <use xlink:href="#Constantia-66"/>
       <use x="59.716797" xlink:href="#Constantia-114"/>
       <use x="98.046875" xlink:href="#Constantia-97"/>
       <use x="146.044922" xlink:href="#Constantia-122"/>
       <use x="194.042969" xlink:href="#Constantia-105"/>
       <use x="222.363281" xlink:href="#Constantia-108"/>
      </g>
     </g>
    </g>
    <g id="xtick_9">
     <g id="line2d_17">
      <g>
       <use style="stroke:#000000;stroke-width:0.5;" x="1178.113125" xlink:href="#me440a8ba24" y="726.525"/>
      </g>
     </g>
     <g id="line2d_18">
      <g>
       <use style="stroke:#000000;stroke-width:0.5;" x="1178.113125" xlink:href="#mf141578387" y="38.9273"/>
      </g>
     </g>
     <g id="text_9">
      <!-- USA -->
      <g transform="translate(1166.54625 739.354375)scale(0.12 -0.12)">
       <defs>
        <path d="M 3.078125 68.359375 
Q 9.375 68.171875 15.1875 68.171875 
Q 21.046875 68.171875 27.296875 68.359375 
L 27.484375 66.265625 
L 21.4375 64.453125 
Q 20.265625 64.15625 20.171875 62.9375 
Q 20.125 61.234375 20.09375 59.203125 
Q 20.0625 57.171875 20.0625 54.78125 
L 20.0625 28.078125 
Q 20.0625 14.109375 24.5 8.71875 
Q 28.953125 3.328125 38.8125 3.328125 
Q 48.828125 3.328125 53.3125 8.890625 
Q 57.8125 14.453125 57.8125 27.484375 
L 57.8125 54.78125 
Q 57.8125 57.171875 57.78125 59.203125 
Q 57.765625 61.234375 57.671875 62.9375 
Q 57.625 64.0625 56.390625 64.453125 
L 50.6875 66.109375 
L 50.59375 68.359375 
Q 56.78125 68.171875 61.234375 68.171875 
Q 65.484375 68.171875 71.578125 68.359375 
L 71.78125 66.265625 
L 65.625 64.359375 
Q 64.5 63.96875 64.453125 62.703125 
Q 64.40625 61.078125 64.375 59.078125 
Q 64.359375 57.078125 64.359375 54.59375 
L 64.359375 29.546875 
Q 64.359375 13.53125 57.828125 5.859375 
Q 51.3125 -1.8125 37.3125 -1.8125 
Q 23.578125 -1.8125 17.03125 5.09375 
Q 10.5 12.015625 10.5 26.5625 
L 10.5 54.59375 
Q 10.5 57.078125 10.46875 59.078125 
Q 10.453125 61.078125 10.40625 62.703125 
Q 10.359375 63.96875 9.234375 64.359375 
L 3.171875 66.265625 
z
" id="Constantia-85"/>
       </defs>
       <use xlink:href="#Constantia-85"/>
       <use x="74.365234" xlink:href="#Constantia-83"/>
       <use x="125.341797" xlink:href="#Constantia-65"/>
      </g>
     </g>
    </g>
    <g id="xtick_10">
     <g id="line2d_19">
      <g>
       <use style="stroke:#000000;stroke-width:0.5;" x="1310.660893" xlink:href="#me440a8ba24" y="726.525"/>
      </g>
     </g>
     <g id="line2d_20">
      <g>
       <use style="stroke:#000000;stroke-width:0.5;" x="1310.660893" xlink:href="#mf141578387" y="38.9273"/>
      </g>
     </g>
     <g id="text_10">
      <!-- India -->
      <g transform="translate(1297.145893 739.354375)scale(0.12 -0.12)">
       <defs>
        <path d="M 37.9375 41.015625 
Q 34.671875 42.046875 30.609375 42.046875 
Q 22.21875 42.046875 17.8125 37.28125 
Q 13.421875 32.515625 13.421875 22.859375 
Q 13.421875 14.5 17.328125 9.5 
Q 21.234375 4.5 28.375 4.5 
Q 32.953125 4.5 37.9375 7.03125 
z
M 30.90625 70.125 
Q 39.59375 71.78125 46.828125 73.578125 
L 47.265625 73.1875 
Q 46.96875 62.75 46.96875 50.734375 
L 46.96875 24.171875 
Q 46.96875 17.4375 47.015625 10.84375 
Q 47.015625 8.34375 47.1875 6.828125 
Q 47.359375 5.328125 48.046875 4.515625 
Q 48.734375 3.71875 50.078125 3.421875 
Q 51.421875 3.125 53.859375 3.078125 
L 54.109375 1.171875 
Q 51.953125 0.34375 48.953125 -0.484375 
Q 45.953125 -1.3125 44.875 -1.3125 
Q 39.9375 -1.3125 38.234375 4.25 
Q 30.671875 -1.375 23.53125 -1.375 
Q 14.5 -1.375 9.109375 5.046875 
Q 3.71875 11.46875 3.71875 20.84375 
Q 3.71875 32.953125 10.890625 39.59375 
Q 18.0625 46.234375 30.953125 46.234375 
Q 34.078125 46.234375 37.9375 45.5625 
Q 37.9375 56.34375 37.75 66.546875 
L 31.15625 68.5 
z
" id="Constantia-100"/>
       </defs>
       <use xlink:href="#Constantia-73"/>
       <use x="33.984375" xlink:href="#Constantia-110"/>
       <use x="92.1875" xlink:href="#Constantia-100"/>
       <use x="148.925781" xlink:href="#Constantia-105"/>
       <use x="177.246094" xlink:href="#Constantia-97"/>
      </g>
     </g>
    </g>
    <g id="text_11">
     <!-- Country -->
     <g transform="translate(692.905312 756.00375)scale(0.12 -0.12)">
      <defs>
       <path d="M -1.703125 45.265625 
Q 4.4375 45.125 9.234375 45.125 
Q 12.5 45.125 19.671875 45.265625 
L 19.875 43.265625 
L 14.15625 41.703125 
Q 15.96875 36.578125 18.359375 30.390625 
Q 20.75 24.21875 23.4375 17.53125 
Q 24.5625 14.75 25.875 11.140625 
Q 27.25 14.796875 28.8125 18.609375 
Q 31.109375 24.265625 33.25 29.75 
Q 35.40625 35.25 37.703125 41.703125 
L 32.125 43.265625 
L 31.9375 45.265625 
Q 35.546875 45.125 40.375 45.125 
Q 44.734375 45.125 48.828125 45.265625 
L 49.078125 43.265625 
L 44.53125 42 
Q 43.015625 41.5 42.328125 39.984375 
Q 40.53125 35.84375 38.421875 30.90625 
Q 31.984375 15.765625 28.65625 6.109375 
Q 26.421875 -0.4375 24.609375 -7.296875 
Q 22.796875 -14.15625 21.828125 -19.09375 
Q 21.390625 -21.484375 20.046875 -22.71875 
Q 18.703125 -23.96875 13.765625 -23.96875 
Q 8.734375 -23.96875 4 -23.640625 
L 3.765625 -21.734375 
Q 9.125 -20.90625 11.71875 -18.265625 
Q 14.84375 -14.890625 21.390625 -0.34375 
L 21.78125 0.59375 
L 21.09375 0.78125 
Q 12.15625 23.046875 4.9375 39.9375 
Q 4.296875 41.40625 2.6875 41.9375 
L -1.609375 43.265625 
z
" id="Constantia-121"/>
      </defs>
      <use xlink:href="#Constantia-67"/>
      <use x="63.886719" xlink:href="#Constantia-111"/>
      <use x="117.939453" xlink:href="#Constantia-117"/>
      <use x="174.873047" xlink:href="#Constantia-110"/>
      <use x="233.076172" xlink:href="#Constantia-116"/>
      <use x="268.378906" xlink:href="#Constantia-114"/>
      <use x="306.708984" xlink:href="#Constantia-121"/>
     </g>
    </g>
   </g>
   <g id="matplotlib.axis_2">
    <g id="ytick_1">
     <g id="line2d_21">
      <defs>
       <path d="M 0 0 
L 4 0 
" id="m92bbbdd49f" style="stroke:#000000;stroke-width:0.5;"/>
      </defs>
      <g>
       <use style="stroke:#000000;stroke-width:0.5;" x="64.711875" xlink:href="#m92bbbdd49f" y="726.525"/>
      </g>
     </g>
     <g id="line2d_22">
      <defs>
       <path d="M 0 0 
L -4 0 
" id="mf70cad5000" style="stroke:#000000;stroke-width:0.5;"/>
      </defs>
      <g>
       <use style="stroke:#000000;stroke-width:0.5;" x="1363.68" xlink:href="#mf70cad5000" y="726.525"/>
      </g>
     </g>
     <g id="text_12">
      <!-- 0.000K -->
      <g transform="translate(23.8775 729.515625)scale(0.12 -0.12)">
       <defs>
        <path d="M 13.671875 23.296875 
Q 13.671875 13.625 17.15625 8.109375 
Q 20.65625 2.59375 27.203125 2.59375 
Q 33.84375 2.59375 37.015625 7.515625 
Q 40.1875 12.453125 40.1875 22.609375 
Q 40.1875 32.5625 36.71875 37.609375 
Q 33.25 42.671875 26.65625 42.671875 
Q 19.921875 42.671875 16.796875 37.84375 
Q 13.671875 33.015625 13.671875 23.296875 
z
M 49.953125 23.6875 
Q 49.953125 12.25 43.4375 5.484375 
Q 36.921875 -1.265625 26.421875 -1.265625 
Q 16.3125 -1.265625 10.109375 4.9375 
Q 3.90625 11.140625 3.90625 22.015625 
Q 3.90625 33.203125 10.390625 39.796875 
Q 16.890625 46.390625 27.484375 46.390625 
Q 37.796875 46.390625 43.875 40.375 
Q 49.953125 34.375 49.953125 23.6875 
z
" id="Constantia-48"/>
        <path d="M 13.09375 10.25 
Q 15.625 10.25 17.25 8.65625 
Q 18.890625 7.078125 18.890625 4.5 
Q 18.890625 1.90625 17.25 0.265625 
Q 15.625 -1.375 13.09375 -1.375 
Q 10.40625 -1.375 8.78125 0.265625 
Q 7.171875 1.90625 7.171875 4.5 
Q 7.171875 7.078125 8.78125 8.65625 
Q 10.40625 10.25 13.09375 10.25 
z
" id="Constantia-46"/>
        <path d="M 21.78125 54.78125 
L 21.78125 14.984375 
Q 21.78125 12.0625 21.796875 9.671875 
Q 21.828125 7.28125 21.875 5.328125 
Q 21.921875 4.046875 23.140625 3.65625 
L 28.5625 1.953125 
L 28.71875 -0.140625 
Q 22.90625 0 17.09375 0 
Q 11.1875 0 4.984375 -0.140625 
L 4.78125 1.953125 
L 10.796875 3.765625 
Q 12.0625 4.15625 12.109375 5.28125 
Q 12.15625 7.234375 12.171875 9.640625 
Q 12.203125 12.0625 12.203125 14.984375 
L 12.203125 54.59375 
Q 12.203125 57.078125 12.171875 59.078125 
Q 12.15625 61.078125 12.109375 62.703125 
Q 12.0625 63.96875 10.9375 64.359375 
L 4.890625 66.265625 
L 4.78125 68.359375 
Q 11.078125 68.171875 16.890625 68.171875 
Q 22.703125 68.171875 28.46875 68.359375 
L 28.71875 66.265625 
L 23.140625 64.546875 
Q 21.96875 64.265625 21.875 63.03125 
Q 21.828125 61.28125 21.796875 59.21875 
Q 21.78125 57.171875 21.78125 54.78125 
z
M 23.046875 34.578125 
L 42.71875 56.5 
Q 45.015625 59.078125 46.4375 60.859375 
Q 47.859375 62.640625 47.859375 63.71875 
Q 47.859375 64.703125 46.53125 65.046875 
L 42.53125 66.109375 
L 42.4375 68.359375 
Q 47.265625 68.171875 53.21875 68.171875 
Q 58.9375 68.171875 63.96875 68.359375 
L 64.15625 66.265625 
L 59.234375 64.703125 
Q 56.984375 63.96875 55.34375 62.453125 
Q 53.71875 60.9375 51.859375 58.890625 
L 32.328125 37.40625 
L 54.546875 8.109375 
Q 55.953125 6.25 57.3125 5.09375 
Q 58.6875 3.953125 60.890625 3.328125 
L 65.328125 1.953125 
L 65.4375 -0.140625 
Q 61.328125 0 55.03125 0 
Q 53.375 0 51.65625 -0.015625 
Q 49.953125 -0.046875 48.25 -0.09375 
Q 46.53125 3.421875 39.203125 13.140625 
z
" id="Constantia-75"/>
       </defs>
       <use xlink:href="#Constantia-48"/>
       <use x="53.857422" xlink:href="#Constantia-46"/>
       <use x="79.443359" xlink:href="#Constantia-48"/>
       <use x="133.300781" xlink:href="#Constantia-48"/>
       <use x="187.158203" xlink:href="#Constantia-48"/>
       <use x="241.015625" xlink:href="#Constantia-75"/>
      </g>
     </g>
    </g>
    <g id="ytick_2">
     <g id="line2d_23">
      <g>
       <use style="stroke:#000000;stroke-width:0.5;" x="64.711875" xlink:href="#m92bbbdd49f" y="640.575288"/>
      </g>
     </g>
     <g id="line2d_24">
      <g>
       <use style="stroke:#000000;stroke-width:0.5;" x="1363.68" xlink:href="#mf70cad5000" y="640.575288"/>
      </g>
     </g>
     <g id="text_13">
      <!-- 1.00M -->
      <g transform="translate(30.095 643.565912)scale(0.12 -0.12)">
       <defs>
        <path d="M 1.703125 40.625 
L 1.46875 42.671875 
Q 11.28125 44.140625 21.09375 45.90625 
L 21.53125 45.515625 
Q 20.953125 36.96875 20.953125 27.875 
L 20.953125 15.96875 
Q 20.953125 9.515625 21.046875 5.5625 
Q 21.09375 4.15625 22.40625 3.8125 
L 30.171875 1.8125 
L 30.328125 -0.140625 
Q 21.296875 0 16.5 0 
Q 11.71875 0 2.734375 -0.140625 
L 2.546875 1.8125 
L 10.5 3.8125 
Q 11.765625 4.15625 11.8125 5.375 
Q 11.921875 9.328125 11.921875 14.15625 
L 11.921875 22.265625 
Q 11.921875 32.078125 11.71875 39.65625 
z
" id="Constantia-49"/>
       </defs>
       <use xlink:href="#Constantia-49"/>
       <use x="31.298828" xlink:href="#Constantia-46"/>
       <use x="56.884766" xlink:href="#Constantia-48"/>
       <use x="110.742188" xlink:href="#Constantia-48"/>
       <use x="164.599609" xlink:href="#Constantia-77"/>
      </g>
     </g>
    </g>
    <g id="ytick_3">
     <g id="line2d_25">
      <g>
       <use style="stroke:#000000;stroke-width:0.5;" x="64.711875" xlink:href="#m92bbbdd49f" y="554.625575"/>
      </g>
     </g>
     <g id="line2d_26">
      <g>
       <use style="stroke:#000000;stroke-width:0.5;" x="1363.68" xlink:href="#mf70cad5000" y="554.625575"/>
      </g>
     </g>
     <g id="text_14">
      <!-- 2.00M -->
      <g transform="translate(28.038125 557.6162)scale(0.12 -0.12)">
       <defs>
        <path d="M 42.390625 15.484375 
L 44.53125 15.875 
L 43.5625 0.203125 
L 43.21875 -0.140625 
Q 33.25 0 22.359375 0 
Q 12.25 0 3.765625 -0.140625 
L 3.421875 3.859375 
Q 8.015625 6.84375 11.671875 9.375 
Q 15.328125 11.921875 18.015625 14.109375 
Q 20.703125 16.265625 22.75 18.21875 
Q 24.8125 20.171875 26.203125 22.09375 
Q 27.59375 24.03125 28.3125 26.03125 
Q 29.046875 28.03125 29.046875 30.21875 
Q 29.046875 34.71875 25.78125 37.34375 
Q 22.515625 39.984375 17.78125 39.984375 
Q 12.203125 39.984375 6.546875 36.96875 
L 4.6875 40.1875 
Q 13.8125 46.390625 23 46.390625 
Q 29.890625 46.390625 34.453125 43.046875 
Q 39.015625 39.703125 39.015625 33.734375 
Q 39.015625 30.03125 37.34375 26.828125 
Q 35.6875 23.640625 32.515625 20.5625 
Q 29.34375 17.484375 24.75 14.328125 
Q 20.171875 11.1875 14.265625 7.671875 
L 14.3125 7.421875 
L 38.578125 7.421875 
z
" id="Constantia-50"/>
       </defs>
       <use xlink:href="#Constantia-50"/>
       <use x="48.4375" xlink:href="#Constantia-46"/>
       <use x="74.023438" xlink:href="#Constantia-48"/>
       <use x="127.880859" xlink:href="#Constantia-48"/>
       <use x="181.738281" xlink:href="#Constantia-77"/>
      </g>
     </g>
    </g>
    <g id="ytick_4">
     <g id="line2d_27">
      <g>
       <use style="stroke:#000000;stroke-width:0.5;" x="64.711875" xlink:href="#m92bbbdd49f" y="468.675863"/>
      </g>
     </g>
     <g id="line2d_28">
      <g>
       <use style="stroke:#000000;stroke-width:0.5;" x="1363.68" xlink:href="#mf70cad5000" y="468.675863"/>
      </g>
     </g>
     <g id="text_15">
      <!-- 3.00M -->
      <g transform="translate(28.371875 471.666488)scale(0.12 -0.12)">
       <defs>
        <path d="M 10.25 16.21875 
Q 19 17.140625 24.265625 20.75 
Q 29.546875 24.359375 29.546875 30.125 
Q 29.546875 34.71875 26.09375 37.59375 
Q 22.65625 40.484375 17.390625 40.484375 
Q 10.5 40.484375 3.46875 36.8125 
L 1.46875 40.046875 
Q 11.140625 46.390625 21.34375 46.390625 
Q 28.90625 46.390625 34.078125 42.75 
Q 39.265625 39.109375 39.265625 33.203125 
Q 39.265625 22.359375 23.25 17 
L 23.25 16.796875 
Q 32.421875 16.453125 37.5625 12.15625 
Q 42.71875 7.859375 42.71875 1.609375 
Q 42.71875 -8.5 31.96875 -15.140625 
Q 21.234375 -21.78125 1.03125 -22.46875 
L 0.484375 -18.84375 
Q 16.546875 -17.78125 24.53125 -12.625 
Q 32.515625 -7.46875 32.515625 0.25 
Q 32.515625 6.296875 28.359375 9.765625 
Q 24.21875 13.234375 16.84375 13.234375 
Q 13.96875 13.234375 10.59375 12.640625 
z
" id="Constantia-51"/>
       </defs>
       <use xlink:href="#Constantia-51"/>
       <use x="45.654297" xlink:href="#Constantia-46"/>
       <use x="71.240234" xlink:href="#Constantia-48"/>
       <use x="125.097656" xlink:href="#Constantia-48"/>
       <use x="178.955078" xlink:href="#Constantia-77"/>
      </g>
     </g>
    </g>
    <g id="ytick_5">
     <g id="line2d_29">
      <g>
       <use style="stroke:#000000;stroke-width:0.5;" x="64.711875" xlink:href="#m92bbbdd49f" y="382.72615"/>
      </g>
     </g>
     <g id="line2d_30">
      <g>
       <use style="stroke:#000000;stroke-width:0.5;" x="1363.68" xlink:href="#mf70cad5000" y="382.72615"/>
      </g>
     </g>
     <g id="text_16">
      <!-- 4.00M -->
      <g transform="translate(27.48125 385.716775)scale(0.12 -0.12)">
       <defs>
        <path d="M 30.953125 35.015625 
Q 25.4375 28.8125 19.890625 21.78125 
Q 14.359375 14.75 8.984375 7.28125 
L 30.953125 7.28125 
z
M 39.984375 -5.71875 
Q 39.984375 -12.546875 40.234375 -19.53125 
Q 35.546875 -20.015625 31.34375 -20.796875 
L 30.859375 -20.40625 
Q 30.953125 -13.578125 30.953125 -6.5 
L 30.953125 2.4375 
L 18.796875 2.4375 
Q 12.109375 2.4375 2.546875 2.296875 
L 2.203125 5.859375 
Q 9.90625 16.0625 18.078125 26.234375 
Q 26.265625 36.421875 34.578125 46.046875 
L 40.28125 46.390625 
Q 39.984375 35.453125 39.984375 25.984375 
L 39.984375 7.28125 
L 51.171875 7.28125 
L 51.375 2.296875 
Q 46 2.4375 39.984375 2.4375 
z
" id="Constantia-52"/>
       </defs>
       <use xlink:href="#Constantia-52"/>
       <use x="53.076172" xlink:href="#Constantia-46"/>
       <use x="78.662109" xlink:href="#Constantia-48"/>
       <use x="132.519531" xlink:href="#Constantia-48"/>
       <use x="186.376953" xlink:href="#Constantia-77"/>
      </g>
     </g>
    </g>
    <g id="ytick_6">
     <g id="line2d_31">
      <g>
       <use style="stroke:#000000;stroke-width:0.5;" x="64.711875" xlink:href="#m92bbbdd49f" y="296.776438"/>
      </g>
     </g>
     <g id="line2d_32">
      <g>
       <use style="stroke:#000000;stroke-width:0.5;" x="1363.68" xlink:href="#mf70cad5000" y="296.776438"/>
      </g>
     </g>
     <g id="text_17">
      <!-- 5.00M -->
      <g transform="translate(28.143125 299.767063)scale(0.12 -0.12)">
       <defs>
        <path d="M 6.453125 16.796875 
L 9.28125 45.3125 
Q 15.375 45.125 23.875 45.125 
Q 33.6875 45.125 42.28125 45.3125 
L 42.578125 44.921875 
L 41.359375 36.859375 
L 13.1875 37.546875 
L 11.8125 23.78125 
Q 15.96875 24.46875 19.625 24.46875 
Q 30.8125 24.46875 37.46875 19.046875 
Q 44.140625 13.625 44.140625 4.15625 
Q 44.140625 -7.953125 32.984375 -15.15625 
Q 21.828125 -22.359375 4.890625 -22.46875 
L 4.390625 -18.84375 
Q 17.71875 -18.359375 26.09375 -12.796875 
Q 34.46875 -7.234375 34.46875 2.203125 
Q 34.46875 9.46875 29.5625 13.46875 
Q 24.65625 17.484375 15.765625 17.484375 
Q 11.328125 17.484375 6.734375 16.453125 
z
" id="Constantia-53"/>
       </defs>
       <use xlink:href="#Constantia-53"/>
       <use x="47.558594" xlink:href="#Constantia-46"/>
       <use x="73.144531" xlink:href="#Constantia-48"/>
       <use x="127.001953" xlink:href="#Constantia-48"/>
       <use x="180.859375" xlink:href="#Constantia-77"/>
      </g>
     </g>
    </g>
    <g id="ytick_7">
     <g id="line2d_33">
      <g>
       <use style="stroke:#000000;stroke-width:0.5;" x="64.711875" xlink:href="#m92bbbdd49f" y="210.826725"/>
      </g>
     </g>
     <g id="line2d_34">
      <g>
       <use style="stroke:#000000;stroke-width:0.5;" x="1363.68" xlink:href="#mf70cad5000" y="210.826725"/>
      </g>
     </g>
     <g id="text_18">
      <!-- 6.00M -->
      <g transform="translate(27.3575 213.81735)scale(0.12 -0.12)">
       <defs>
        <path d="M 47.125 64.546875 
Q 32.03125 61.53125 24.515625 53.9375 
Q 17 46.34375 14.796875 35.25 
L 14.890625 35.203125 
Q 20.796875 41.65625 30.21875 41.65625 
Q 38.96875 41.65625 44.9375 35.796875 
Q 50.921875 29.9375 50.921875 20.90625 
Q 50.921875 11.328125 44.375 5.03125 
Q 37.84375 -1.265625 28.125 -1.265625 
Q 17.390625 -1.265625 10.75 6.5 
Q 4.109375 14.265625 4.109375 26.515625 
Q 4.109375 41.546875 14.453125 53.125 
Q 24.8125 64.703125 46.4375 68.015625 
z
M 41.109375 18.0625 
Q 41.109375 26.609375 37.15625 31.953125 
Q 33.203125 37.3125 27.046875 37.3125 
Q 21.4375 37.3125 17.921875 33.328125 
Q 14.40625 29.34375 14.40625 22.515625 
Q 14.40625 14.15625 18.5 8.203125 
Q 22.609375 2.25 28.953125 2.25 
Q 34.46875 2.25 37.78125 6.8125 
Q 41.109375 11.375 41.109375 18.0625 
z
" id="Constantia-54"/>
       </defs>
       <use xlink:href="#Constantia-54"/>
       <use x="54.101562" xlink:href="#Constantia-46"/>
       <use x="79.6875" xlink:href="#Constantia-48"/>
       <use x="133.544922" xlink:href="#Constantia-48"/>
       <use x="187.402344" xlink:href="#Constantia-77"/>
      </g>
     </g>
    </g>
    <g id="ytick_8">
     <g id="line2d_35">
      <g>
       <use style="stroke:#000000;stroke-width:0.5;" x="64.711875" xlink:href="#m92bbbdd49f" y="124.877012"/>
      </g>
     </g>
     <g id="line2d_36">
      <g>
       <use style="stroke:#000000;stroke-width:0.5;" x="1363.68" xlink:href="#mf70cad5000" y="124.877012"/>
      </g>
     </g>
     <g id="text_19">
      <!-- 7.00M -->
      <g transform="translate(28.049375 127.867638)scale(0.12 -0.12)">
       <defs>
        <path d="M 10.9375 -19.671875 
L 39.5 37.546875 
L 8.296875 37.546875 
L 5.46875 27.875 
L 3.515625 27.546875 
L 2.6875 44.921875 
L 3.03125 45.3125 
Q 8.796875 45.21875 14.265625 45.171875 
Q 19.734375 45.125 25 45.125 
L 27.734375 45.125 
Q 33.015625 45.125 37.84375 45.171875 
Q 42.671875 45.21875 47.171875 45.3125 
L 47.359375 43.21875 
Q 44.828125 37.984375 42.265625 32.46875 
Q 39.703125 26.953125 37.234375 21.3125 
Q 34.765625 15.671875 32.421875 10.125 
Q 30.078125 4.59375 28.03125 -0.65625 
Q 25.984375 -5.90625 24.25 -10.6875 
Q 22.515625 -15.484375 21.234375 -19.53125 
L 11.1875 -20.015625 
z
" id="Constantia-55"/>
       </defs>
       <use xlink:href="#Constantia-55"/>
       <use x="48.339844" xlink:href="#Constantia-46"/>
       <use x="73.925781" xlink:href="#Constantia-48"/>
       <use x="127.783203" xlink:href="#Constantia-48"/>
       <use x="181.640625" xlink:href="#Constantia-77"/>
      </g>
     </g>
    </g>
    <g id="ytick_9">
     <g id="line2d_37">
      <g>
       <use style="stroke:#000000;stroke-width:0.5;" x="64.711875" xlink:href="#m92bbbdd49f" y="38.9273"/>
      </g>
     </g>
     <g id="line2d_38">
      <g>
       <use style="stroke:#000000;stroke-width:0.5;" x="1363.68" xlink:href="#mf70cad5000" y="38.9273"/>
      </g>
     </g>
     <g id="text_20">
      <!-- 8.00M -->
      <g transform="translate(27.411875 41.917925)scale(0.12 -0.12)">
       <defs>
        <path d="M 19.09375 34.234375 
Q 12.0625 37.890625 9.5 41.546875 
Q 6.9375 45.21875 6.9375 50.09375 
Q 6.9375 57.421875 12.96875 62.171875 
Q 19 66.9375 27.984375 66.9375 
Q 36.078125 66.9375 41.375 63.125 
Q 46.6875 59.328125 46.6875 53.265625 
Q 46.6875 44.234375 33.84375 36.765625 
Q 43.609375 32.03125 47.09375 27.75 
Q 50.59375 23.484375 50.59375 17.578125 
Q 50.59375 9.421875 43.40625 4.078125 
Q 36.234375 -1.265625 26.265625 -1.265625 
Q 16.265625 -1.265625 9.90625 3.296875 
Q 3.5625 7.859375 3.5625 15.4375 
Q 3.5625 26.8125 19.09375 34.234375 
z
M 22.5625 32.421875 
Q 12.546875 26.703125 12.546875 16.609375 
Q 12.546875 10.203125 16.375 6.421875 
Q 20.21875 2.640625 26.90625 2.640625 
Q 33.015625 2.640625 37.140625 6.03125 
Q 41.265625 9.421875 41.265625 14.84375 
Q 41.265625 20.015625 37.5 23.75 
Q 33.734375 27.484375 22.5625 32.421875 
z
M 30.21875 38.625 
Q 37.984375 44.234375 37.984375 51.8125 
Q 37.984375 57.234375 34.859375 60.1875 
Q 31.734375 63.140625 26.609375 63.140625 
Q 21.4375 63.140625 18.140625 60.453125 
Q 14.84375 57.765625 14.84375 53.125 
Q 14.84375 48.484375 18.40625 45.40625 
Q 21.96875 42.328125 30.21875 38.625 
z
" id="Constantia-56"/>
       </defs>
       <use xlink:href="#Constantia-56"/>
       <use x="53.662109" xlink:href="#Constantia-46"/>
       <use x="79.248047" xlink:href="#Constantia-48"/>
       <use x="133.105469" xlink:href="#Constantia-48"/>
       <use x="186.962891" xlink:href="#Constantia-77"/>
      </g>
     </g>
    </g>
    <g id="text_21">
     <!-- Values -->
     <g transform="translate(16.029375 399.62365)rotate(-90)scale(0.12 -0.12)">
      <defs>
       <path d="M 30.609375 -0.390625 
L 8.84375 58.5 
Q 7.671875 61.71875 6.671875 63.015625 
Q 5.671875 64.3125 3.65625 64.890625 
L -0.78125 66.265625 
L -0.875 68.359375 
Q 3.953125 68.171875 10.453125 68.171875 
Q 17.046875 68.171875 24.078125 68.359375 
L 24.265625 66.265625 
L 19.671875 64.9375 
Q 18.703125 64.703125 18.265625 64.234375 
Q 17.828125 63.765625 17.828125 62.890625 
Q 17.828125 61.921875 18.328125 60.28125 
Q 18.84375 58.640625 19.78125 56.0625 
L 35.546875 12.109375 
L 52.6875 56 
Q 53.71875 58.6875 54.296875 60.328125 
Q 54.890625 61.96875 54.890625 62.9375 
Q 54.890625 63.8125 54.421875 64.234375 
Q 53.953125 64.65625 53.03125 64.890625 
L 48.484375 66.109375 
L 48.390625 68.359375 
Q 53.71875 68.171875 59.125 68.171875 
Q 64.546875 68.171875 69.53125 68.359375 
L 69.734375 66.265625 
L 64.796875 64.703125 
Q 63.09375 64.203125 62.203125 63.0625 
Q 61.328125 61.921875 59.859375 58.5 
L 35.5 0 
z
" id="Constantia-86"/>
      </defs>
      <use xlink:href="#Constantia-86"/>
      <use x="60.214844" xlink:href="#Constantia-97"/>
      <use x="108.212891" xlink:href="#Constantia-108"/>
      <use x="136.289062" xlink:href="#Constantia-117"/>
      <use x="193.222656" xlink:href="#Constantia-101"/>
      <use x="241.123047" xlink:href="#Constantia-115"/>
     </g>
    </g>
   </g>
   <g id="text_22">
    <!-- 500,400.0 -->
    <g transform="translate(86.588638 683.300718)scale(0.14 -0.14)">
     <defs>
      <path d="M 3.328125 -22.46875 
L 2.9375 -18.171875 
Q 9.125 -17.96875 14.203125 -16.671875 
Q 19.28125 -15.375 22.84375 -13.125 
Q 26.421875 -10.890625 28.375 -7.78125 
Q 30.328125 -4.6875 30.328125 -0.828125 
Q 30.328125 5.46875 26.265625 9.203125 
Q 22.21875 12.9375 15.234375 12.9375 
Q 9.71875 12.9375 4.828125 11.859375 
L 4.546875 12.203125 
L 7.375 45.359375 
Q 15.828125 45.171875 25.4375 45.171875 
Q 35.453125 45.171875 42.875 45.359375 
L 43.171875 44.96875 
L 41.9375 33.5 
L 12.359375 33.5 
L 11.234375 22.125 
Q 16.015625 22.796875 21.1875 22.796875 
Q 31.78125 22.796875 38.28125 17.453125 
Q 44.78125 12.109375 44.78125 3.65625 
Q 44.78125 -1.765625 42.40625 -6.46875 
Q 40.046875 -11.1875 35.015625 -14.703125 
Q 29.984375 -18.21875 22.140625 -20.28125 
Q 14.3125 -22.359375 3.328125 -22.46875 
z
" id="Constantia-Bold-53"/>
      <path d="M 18.5625 23.25 
Q 18.5625 13.53125 21.234375 8.453125 
Q 23.921875 3.375 29.046875 3.375 
Q 34.421875 3.375 36.78125 8.109375 
Q 39.15625 12.84375 39.15625 22.65625 
Q 39.15625 32.625 36.46875 37.25 
Q 33.796875 41.890625 28.609375 41.890625 
Q 23.484375 41.890625 21.015625 37.5625 
Q 18.5625 33.25 18.5625 23.25 
z
M 53.8125 23.6875 
Q 53.8125 11.96875 46.828125 5.34375 
Q 39.84375 -1.265625 28.265625 -1.265625 
Q 16.890625 -1.265625 10.390625 4.875 
Q 3.90625 11.03125 3.90625 21.96875 
Q 3.90625 33.34375 10.765625 39.859375 
Q 17.625 46.390625 29.5 46.390625 
Q 40.921875 46.390625 47.359375 40.421875 
Q 53.8125 34.46875 53.8125 23.6875 
z
" id="Constantia-Bold-48"/>
      <path d="M 4.890625 -13.140625 
Q 13.671875 -6.640625 13.671875 -0.140625 
Q 13.671875 5.609375 7.28125 8.84375 
Q 7.28125 12.453125 9.375 14.453125 
Q 11.46875 16.453125 14.75 16.453125 
Q 18.265625 16.453125 20.5625 13.71875 
Q 22.859375 10.984375 22.859375 6.84375 
Q 22.859375 0.484375 18.96875 -5.15625 
Q 15.09375 -10.796875 7.375 -16.109375 
z
" id="Constantia-Bold-44"/>
      <path d="M 8.796875 6.546875 
L 27.875 6.546875 
L 27.875 30.953125 
Q 25.484375 28.125 23 25.0625 
Q 20.515625 22.015625 18.0625 18.890625 
Q 15.625 15.765625 13.25 12.640625 
Q 10.890625 9.515625 8.796875 6.546875 
z
M 41.359375 -6 
Q 41.359375 -13.765625 41.609375 -19.53125 
Q 34.421875 -20.21875 28.46875 -21.046875 
L 27.78125 -20.703125 
Q 27.875 -14.84375 27.875 -6.734375 
L 27.875 -0.25 
L 15.765625 -0.25 
Q 9.671875 -0.25 0.828125 -0.390625 
L 0.484375 4.15625 
Q 4.4375 8.9375 8.640625 14.15625 
Q 12.84375 19.390625 17.0625 24.734375 
Q 21.296875 30.078125 25.390625 35.421875 
Q 29.5 40.765625 33.296875 45.90625 
L 41.65625 46.390625 
Q 41.359375 35.453125 41.359375 25.984375 
L 41.359375 6.546875 
L 52.046875 6.546875 
L 52.25 -0.390625 
Q 47.3125 -0.25 41.359375 -0.25 
z
" id="Constantia-Bold-52"/>
      <path d="M 14.59375 13.921875 
Q 17.921875 13.921875 20.09375 11.84375 
Q 22.265625 9.765625 22.265625 6.34375 
Q 22.265625 2.984375 20.09375 0.828125 
Q 17.921875 -1.3125 14.59375 -1.3125 
Q 11.140625 -1.3125 8.984375 0.828125 
Q 6.84375 2.984375 6.84375 6.34375 
Q 6.84375 9.765625 8.984375 11.84375 
Q 11.140625 13.921875 14.59375 13.921875 
z
" id="Constantia-Bold-46"/>
     </defs>
     <use xlink:href="#Constantia-Bold-53"/>
     <use x="46.728516" xlink:href="#Constantia-Bold-48"/>
     <use x="104.443359" xlink:href="#Constantia-Bold-48"/>
     <use x="162.158203" xlink:href="#Constantia-Bold-44"/>
     <use x="190.771484" xlink:href="#Constantia-Bold-52"/>
     <use x="243.115234" xlink:href="#Constantia-Bold-48"/>
     <use x="300.830078" xlink:href="#Constantia-Bold-48"/>
     <use x="358.544922" xlink:href="#Constantia-Bold-46"/>
     <use x="387.158203" xlink:href="#Constantia-Bold-48"/>
    </g>
   </g>
   <g id="text_23">
    <!-- 7,710,523.0 -->
    <g transform="translate(1277.543237 60.494179)scale(0.14 -0.14)">
     <defs>
      <path d="M 7.859375 -19.671875 
L 38.140625 32.46875 
L 8.640625 32.46875 
L 5.46875 22.515625 
L 2.296875 22.171875 
L 1.46875 44.921875 
L 1.8125 45.3125 
Q 7.5625 45.21875 13.03125 45.171875 
Q 18.5 45.125 23.78125 45.125 
L 26.515625 45.125 
Q 31.78125 45.125 37.109375 45.171875 
Q 42.4375 45.21875 46.921875 45.3125 
L 47.125 37.84375 
Q 42.96875 30.375 39.078125 22.875 
Q 35.203125 15.375 31.828125 8.078125 
Q 28.46875 0.78125 25.703125 -6.171875 
Q 22.953125 -13.140625 21.09375 -19.53125 
L 8.109375 -20.015625 
z
" id="Constantia-Bold-55"/>
      <path d="M 2 40.71875 
L 1.765625 43.171875 
Q 14.359375 44.734375 25.828125 46.390625 
L 26.265625 46 
Q 25.6875 37.40625 25.6875 28.375 
L 25.6875 16.359375 
Q 25.6875 13.140625 25.703125 10.546875 
Q 25.734375 7.953125 25.78125 5.953125 
Q 25.875 4.546875 27.15625 4.203125 
L 34.90625 2.203125 
L 35.0625 -0.140625 
Q 26.03125 0 19.046875 0 
Q 12.015625 0 3.03125 -0.140625 
L 2.828125 2.203125 
L 10.796875 4.203125 
Q 12.109375 4.59375 12.109375 5.765625 
Q 12.15625 7.765625 12.171875 9.9375 
Q 12.203125 12.109375 12.203125 14.546875 
L 12.203125 22.359375 
Q 12.203125 27.296875 12.15625 31.609375 
Q 12.109375 35.9375 12.015625 39.75 
z
" id="Constantia-Bold-49"/>
      <path d="M 42.234375 16.9375 
L 45.0625 17.328125 
L 44.09375 0.203125 
L 43.75 -0.140625 
Q 34.1875 0 22.90625 0 
Q 12.546875 0 2.296875 -0.140625 
L 1.953125 5.8125 
Q 6.109375 8.59375 9.90625 11.109375 
Q 13.71875 13.625 16.546875 15.625 
Q 19.578125 17.71875 21.578125 19.546875 
Q 23.578125 21.390625 24.75 23.125 
Q 25.921875 24.859375 26.40625 26.53125 
Q 26.90625 28.21875 26.90625 30.078125 
Q 26.90625 34.375 23.703125 36.859375 
Q 20.515625 39.359375 15.671875 39.359375 
Q 10.75 39.359375 5.078125 36.28125 
L 3.21875 40.1875 
Q 12.359375 46.390625 22.015625 46.390625 
Q 30.078125 46.390625 35.296875 42.40625 
Q 40.53125 38.421875 40.53125 32.5625 
Q 40.53125 29 38.9375 26.3125 
Q 37.359375 23.640625 34.15625 21.125 
Q 30.953125 18.609375 26.125 15.890625 
Q 21.296875 13.1875 14.796875 9.625 
L 14.84375 9.375 
L 38.625 9.375 
z
" id="Constantia-Bold-50"/>
      <path d="M 8.203125 16.265625 
Q 17.09375 17.328125 21.53125 20.578125 
Q 25.984375 23.828125 25.984375 29.390625 
Q 25.984375 34.03125 22.78125 36.90625 
Q 19.578125 39.796875 14.546875 39.796875 
Q 8.84375 39.796875 2.484375 36.140625 
L 0.640625 40.046875 
Q 9.46875 46.390625 21.234375 46.390625 
Q 29.640625 46.390625 34.890625 42.65625 
Q 40.140625 38.921875 40.140625 32.765625 
Q 40.140625 21.875 23.140625 16.75 
L 23.140625 16.546875 
Q 32.90625 16.546875 38.25 12.6875 
Q 43.609375 8.84375 43.609375 2 
Q 43.609375 -3.46875 40.765625 -7.953125 
Q 37.9375 -12.453125 32.4375 -15.640625 
Q 26.953125 -18.84375 18.84375 -20.625 
Q 10.75 -22.40625 0.203125 -22.46875 
L -0.203125 -18.171875 
Q 7.90625 -17.671875 13.46875 -16.0625 
Q 19.046875 -14.453125 22.484375 -12.03125 
Q 25.921875 -9.625 27.4375 -6.515625 
Q 28.953125 -3.421875 28.953125 0 
Q 28.953125 5.859375 24.828125 9.171875 
Q 20.703125 12.5 14.40625 12.5 
Q 11.28125 12.5 8.5 11.921875 
z
" id="Constantia-Bold-51"/>
     </defs>
     <use xlink:href="#Constantia-Bold-55"/>
     <use x="47.216797" xlink:href="#Constantia-Bold-44"/>
     <use x="75.830078" xlink:href="#Constantia-Bold-55"/>
     <use x="123.046875" xlink:href="#Constantia-Bold-49"/>
     <use x="159.570312" xlink:href="#Constantia-Bold-48"/>
     <use x="217.285156" xlink:href="#Constantia-Bold-44"/>
     <use x="245.898438" xlink:href="#Constantia-Bold-53"/>
     <use x="292.626953" xlink:href="#Constantia-Bold-50"/>
     <use x="341.113281" xlink:href="#Constantia-Bold-51"/>
     <use x="386.767578" xlink:href="#Constantia-Bold-46"/>
     <use x="415.380859" xlink:href="#Constantia-Bold-48"/>
    </g>
   </g>
   <g id="text_24">
    <!-- Top 10 countries -->
    <g transform="translate(663.717187 17.79525)scale(0.144 -0.144)">
     <defs>
      <path d="M 30.765625 0 
Q 24.75 0 17.484375 -0.140625 
L 17.28125 1.953125 
L 24.515625 4.109375 
Q 25.734375 4.4375 25.78125 5.609375 
Q 25.875 9.328125 25.875 15.09375 
L 25.875 63.8125 
L 8.640625 63.8125 
L 4.296875 50.828125 
L 2.34375 50.484375 
L 1.078125 67.96875 
L 1.421875 68.359375 
Q 13.421875 68.171875 24.421875 68.171875 
L 37.453125 68.171875 
Q 48.390625 68.171875 60.546875 68.359375 
L 60.84375 67.96875 
L 57.765625 50.828125 
L 55.8125 50.484375 
L 52.6875 63.8125 
L 35.453125 63.8125 
L 35.453125 15.09375 
Q 35.453125 9.328125 35.546875 5.609375 
Q 35.59375 4.4375 36.8125 4.109375 
L 44.046875 1.953125 
L 44.140625 -0.140625 
Q 36.578125 0 30.765625 0 
z
" id="Constantia-84"/>
      <path d="M 2.09375 41.3125 
L 1.859375 42.96875 
Q 10.0625 44.53125 17.328125 46.390625 
L 17.828125 46.046875 
L 17.828125 41.265625 
Q 25.296875 46.390625 32.28125 46.390625 
Q 41.359375 46.390625 46.703125 40.3125 
Q 52.046875 34.234375 52.046875 24.515625 
Q 52.046875 12.546875 45.15625 5.578125 
Q 38.28125 -1.375 25.640625 -1.375 
Q 21.875 -1.375 17.828125 -0.640625 
L 17.828125 -11.328125 
Q 17.828125 -16.21875 17.921875 -18.171875 
Q 18.015625 -19.625 19.234375 -19.921875 
L 25.640625 -21.734375 
L 25.78125 -23.734375 
Q 18.171875 -23.578125 13.375 -23.578125 
Q 8.59375 -23.578125 2.046875 -23.734375 
L 1.859375 -21.734375 
L 7.46875 -20.0625 
Q 8.640625 -19.734375 8.6875 -18.5625 
Q 8.796875 -14.984375 8.796875 -7.765625 
L 8.796875 12.109375 
Q 8.796875 33.734375 8.59375 39.453125 
z
M 17.828125 3.765625 
Q 22.078125 2.828125 26.03125 2.828125 
Q 34.125 2.828125 38.21875 7.90625 
Q 42.328125 12.984375 42.328125 22.46875 
Q 42.328125 31.390625 38.421875 35.9375 
Q 34.515625 40.484375 27.203125 40.484375 
Q 21.921875 40.484375 17.828125 38.328125 
z
" id="Constantia-112"/>
     </defs>
     <use xlink:href="#Constantia-84"/>
     <use x="52.578125" xlink:href="#Constantia-111"/>
     <use x="106.630859" xlink:href="#Constantia-112"/>
     <use x="162.587891" xlink:href="#Constantia-32"/>
     <use x="187.685547" xlink:href="#Constantia-49"/>
     <use x="218.984375" xlink:href="#Constantia-48"/>
     <use x="272.841797" xlink:href="#Constantia-32"/>
     <use x="295.439453" xlink:href="#Constantia-99"/>
     <use x="341.582031" xlink:href="#Constantia-111"/>
     <use x="395.634766" xlink:href="#Constantia-117"/>
     <use x="452.568359" xlink:href="#Constantia-110"/>
     <use x="510.771484" xlink:href="#Constantia-116"/>
     <use x="546.074219" xlink:href="#Constantia-114"/>
     <use x="584.404297" xlink:href="#Constantia-105"/>
     <use x="612.724609" xlink:href="#Constantia-101"/>
     <use x="660.625" xlink:href="#Constantia-115"/>
    </g>
    <!-- by TotalRecovered -->
    <g transform="translate(657.038062 33.9273)scale(0.144 -0.144)">
     <defs>
      <path d="M -1.515625 45.265625 
Q 4.640625 45.125 9.421875 45.125 
Q 13.8125 45.125 19.96875 45.265625 
L 20.171875 43.265625 
L 14.5 41.703125 
Q 18.5 30.328125 23.78125 17.53125 
Q 25.140625 14.15625 26.21875 11.078125 
Q 27.296875 14.15625 28.71875 17.484375 
Q 33.15625 28.421875 38.03125 41.703125 
L 32.46875 43.265625 
L 32.28125 45.265625 
Q 36.234375 45.125 40.53125 45.125 
Q 44.921875 45.125 49.03125 45.265625 
L 49.21875 43.265625 
L 44.34375 41.84375 
Q 43.21875 41.453125 42.4375 39.9375 
Q 38.578125 31 33.46875 18.671875 
Q 28.375 6.34375 25.78125 -0.34375 
L 21.625 -0.78125 
Q 18.953125 6.296875 13.890625 18.59375 
Q 8.84375 30.90625 5.21875 39.703125 
Q 4.4375 41.40625 3.078125 41.890625 
L -1.421875 43.265625 
z
" id="Constantia-118"/>
     </defs>
     <use xlink:href="#Constantia-98"/>
     <use x="55.712891" xlink:href="#Constantia-121"/>
     <use x="103.857422" xlink:href="#Constantia-32"/>
     <use x="126.955078" xlink:href="#Constantia-84"/>
     <use x="179.533203" xlink:href="#Constantia-111"/>
     <use x="233.585938" xlink:href="#Constantia-116"/>
     <use x="268.888672" xlink:href="#Constantia-97"/>
     <use x="316.886719" xlink:href="#Constantia-108"/>
     <use x="344.962891" xlink:href="#Constantia-82"/>
     <use x="406.597656" xlink:href="#Constantia-101"/>
     <use x="454.498047" xlink:href="#Constantia-99"/>
     <use x="500.640625" xlink:href="#Constantia-111"/>
     <use x="554.693359" xlink:href="#Constantia-118"/>
     <use x="602.984375" xlink:href="#Constantia-101"/>
     <use x="650.884766" xlink:href="#Constantia-114"/>
     <use x="689.214844" xlink:href="#Constantia-101"/>
     <use x="737.115234" xlink:href="#Constantia-100"/>
    </g>
   </g>
  </g>
 </g>
 <defs>
  <clipPath id="pd3d16af88a">
   <rect height="687.5977" width="1298.968125" x="64.711875" y="38.9273"/>
  </clipPath>
 </defs>
</svg>
