<?xml version="1.0" encoding="utf-8" standalone="no"?>
<!DOCTYPE svg PUBLIC "-//W3C//DTD SVG 1.1//EN"
  "http://www.w3.org/Graphics/SVG/1.1/DTD/svg11.dtd">
<!-- Created with matplotlib (https://matplotlib.org/) -->
<svg height="766.08pt" version="1.1" viewBox="0 0 1370.88 766.08" width="1370.88pt" xmlns="http://www.w3.org/2000/svg" xmlns:xlink="http://www.w3.org/1999/xlink">
 <metadata>
  <rdf:RDF xmlns:cc="http://creativecommons.org/ns#" xmlns:dc="http://purl.org/dc/elements/1.1/" xmlns:rdf="http://www.w3.org/1999/02/22-rdf-syntax-ns#">
   <cc:Work>
    <dc:type rdf:resource="http://purl.org/dc/dcmitype/StillImage"/>
    <dc:date>2020-11-04T18:46:12.205769</dc:date>
    <dc:format>image/svg+xml</dc:format>
    <dc:creator>
     <cc:Agent>
      <dc:title>Matplotlib v3.3.2, https://matplotlib.org/</dc:title>
     </cc:Agent>
    </dc:creator>
   </cc:Work>
  </rdf:RDF>
 </metadata>
 <defs>
  <style type="text/css">*{stroke-linecap:butt;stroke-linejoin:round;}</style>
 </defs>
 <g id="figure_1">
  <g id="patch_1">
   <path d="M -0 766.08 
L 1370.88 766.08 
L 1370.88 0 
L -0 0 
z
" style="fill:#ffffff;"/>
  </g>
  <g id="axes_1">
   <g id="patch_2">
    <path d="M 69.024375 726.525 
L 1351.674375 726.525 
L 1351.674375 38.9273 
L 69.024375 38.9273 
z
" style="fill:#ffffff;"/>
   </g>
   <g id="patch_3">
    <path clip-path="url(#p4809670ed4)" d="M 0 0 
z
" style="fill:#3f5e99;stroke:#000000;stroke-linejoin:miter;"/>
   </g>
   <g id="patch_4">
    <path clip-path="url(#p4809670ed4)" d="M 0 0 
z
" style="fill:#3f5e99;stroke:#000000;stroke-linejoin:miter;"/>
   </g>
   <g id="patch_5">
    <path clip-path="url(#p4809670ed4)" d="M 0 0 
z
" style="fill:#3f5e99;stroke:#000000;stroke-linejoin:miter;"/>
   </g>
   <g id="patch_6">
    <path clip-path="url(#p4809670ed4)" d="M 0 0 
z
" style="fill:#3f5e99;stroke:#000000;stroke-linejoin:miter;"/>
   </g>
   <g id="patch_7">
    <path clip-path="url(#p4809670ed4)" d="M 0 0 
z
" style="fill:#3f5e99;stroke:#000000;stroke-linejoin:miter;"/>
   </g>
   <g id="patch_8">
    <path clip-path="url(#p4809670ed4)" d="M 0 0 
z
" style="fill:#3f5e99;stroke:#000000;stroke-linejoin:miter;"/>
   </g>
   <g id="patch_9">
    <path clip-path="url(#p4809670ed4)" d="M 0 0 
z
" style="fill:#3f5e99;stroke:#000000;stroke-linejoin:miter;"/>
   </g>
   <g id="patch_10">
    <path clip-path="url(#p4809670ed4)" d="M 0 0 
z
" style="fill:#3f5e99;stroke:#000000;stroke-linejoin:miter;"/>
   </g>
   <g id="patch_11">
    <path clip-path="url(#p4809670ed4)" d="M 0 0 
z
" style="fill:#3f5e99;stroke:#000000;stroke-linejoin:miter;"/>
   </g>
   <g id="patch_12">
    <path clip-path="url(#p4809670ed4)" d="M 0 0 
z
" style="fill:#3f5e99;stroke:#000000;stroke-linejoin:miter;"/>
   </g>
   <g id="patch_13">
    <path d="M 69.024375 726.525 
L 69.024375 38.9273 
" style="fill:none;stroke:#000000;stroke-linecap:square;stroke-linejoin:miter;"/>
   </g>
   <g id="patch_14">
    <path d="M 1351.674375 726.525 
L 1351.674375 38.9273 
" style="fill:none;stroke:#000000;stroke-linecap:square;stroke-linejoin:miter;"/>
   </g>
   <g id="patch_15">
    <path d="M 69.024375 726.525 
L 1351.674375 726.525 
" style="fill:none;stroke:#000000;stroke-linecap:square;stroke-linejoin:miter;"/>
   </g>
   <g id="patch_16">
    <path d="M 69.024375 38.9273 
L 1351.674375 38.9273 
" style="fill:none;stroke:#000000;stroke-linecap:square;stroke-linejoin:miter;"/>
   </g>
   <g id="matplotlib.axis_1">
    <g id="xtick_1">
     <g id="line2d_1">
      <defs>
       <path d="M 0 0 
L 0 -4 
" id="mcff946ef18" style="stroke:#000000;stroke-width:0.5;"/>
      </defs>
      <g>
       <use style="stroke:#000000;stroke-width:0.5;" x="69.024375" xlink:href="#mcff946ef18" y="726.525"/>
      </g>
     </g>
     <g id="line2d_2">
      <defs>
       <path d="M 0 0 
L 0 4 
" id="mad7404fb1a" style="stroke:#000000;stroke-width:0.5;"/>
      </defs>
      <g>
       <use style="stroke:#000000;stroke-width:0.5;" x="69.024375" xlink:href="#mad7404fb1a" y="38.9273"/>
      </g>
     </g>
     <g id="text_1">
      <!-- Vatican City -->
      <g transform="translate(37.453125 739.32625)scale(0.12 -0.12)">
       <defs>
        <path d="M 30.609375 -0.390625 
L 8.84375 58.5 
Q 7.671875 61.71875 6.671875 63.015625 
Q 5.671875 64.3125 3.65625 64.890625 
L -0.78125 66.265625 
L -0.875 68.359375 
Q 3.953125 68.171875 10.453125 68.171875 
Q 17.046875 68.171875 24.078125 68.359375 
L 24.265625 66.265625 
L 19.671875 64.9375 
Q 18.703125 64.703125 18.265625 64.234375 
Q 17.828125 63.765625 17.828125 62.890625 
Q 17.828125 61.921875 18.328125 60.28125 
Q 18.84375 58.640625 19.78125 56.0625 
L 35.546875 12.109375 
L 52.6875 56 
Q 53.71875 58.6875 54.296875 60.328125 
Q 54.890625 61.96875 54.890625 62.9375 
Q 54.890625 63.8125 54.421875 64.234375 
Q 53.953125 64.65625 53.03125 64.890625 
L 48.484375 66.109375 
L 48.390625 68.359375 
Q 53.71875 68.171875 59.125 68.171875 
Q 64.546875 68.171875 69.53125 68.359375 
L 69.734375 66.265625 
L 64.796875 64.703125 
Q 63.09375 64.203125 62.203125 63.0625 
Q 61.328125 61.921875 59.859375 58.5 
L 35.5 0 
z
" id="Constantia-86"/>
        <path d="M 30.125 22.125 
Q 19.4375 22.125 15.53125 20.015625 
Q 11.625 17.921875 11.625 12.9375 
Q 11.625 8.296875 14.203125 6.359375 
Q 16.796875 4.4375 21.234375 4.4375 
Q 26.265625 4.4375 30.03125 6.15625 
z
M 6.453125 42.234375 
Q 15.96875 46.390625 23.296875 46.390625 
Q 30.765625 46.390625 34.9375 42.484375 
Q 39.109375 38.578125 39.0625 31.203125 
L 38.8125 10.890625 
Q 38.765625 8.40625 38.9375 6.890625 
Q 39.109375 5.375 39.8125 4.5625 
Q 40.53125 3.765625 41.9375 3.4375 
Q 43.359375 3.125 45.75 3.078125 
L 46 1.171875 
Q 43.890625 0.34375 40.859375 -0.484375 
Q 37.84375 -1.3125 36.765625 -1.3125 
Q 32.03125 -1.3125 30.28125 3.5625 
Q 23.4375 -1.375 17.390625 -1.375 
Q 10.59375 -1.375 6.46875 1.96875 
Q 2.34375 5.328125 2.34375 11.421875 
Q 2.34375 18.953125 9.046875 22.515625 
Q 15.765625 26.078125 30.125 26.078125 
L 30.171875 29.890625 
Q 30.21875 35.359375 27.390625 37.984375 
Q 24.5625 40.625 18.703125 40.625 
Q 14.265625 40.625 7.5625 38.96875 
z
" id="Constantia-97"/>
        <path d="M 17.484375 39.9375 
Q 17.1875 23.4375 17.1875 13.328125 
Q 17.1875 8.25 18.703125 6.3125 
Q 20.21875 4.390625 24.46875 4.390625 
Q 27.828125 4.390625 33.25 5.28125 
L 33.546875 3.078125 
Q 25.09375 -1.171875 18.453125 -1.171875 
Q 13.140625 -1.171875 10.546875 1.6875 
Q 7.953125 4.546875 7.953125 10.296875 
Q 7.953125 19.78125 8.296875 40.234375 
L 1.5625 41.890625 
L 1.265625 43.890625 
L 8.796875 44.53125 
L 12.15625 56.34375 
Q 14.890625 57.078125 17.140625 57.765625 
L 17.625 57.421875 
Q 17.484375 51.515625 17.484375 46.390625 
L 17.484375 44.578125 
L 32.171875 44.578125 
L 32.171875 39.9375 
z
" id="Constantia-116"/>
        <path d="M 19.34375 63.671875 
Q 19.34375 61.078125 17.71875 59.4375 
Q 16.109375 57.8125 13.578125 57.8125 
Q 11.140625 57.8125 9.59375 59.328125 
Q 8.0625 60.84375 8.0625 63.328125 
Q 8.0625 65.96875 9.671875 67.5 
Q 11.28125 69.046875 13.921875 69.046875 
Q 16.3125 69.046875 17.828125 67.65625 
Q 19.34375 66.265625 19.34375 63.671875 
z
M 2.828125 42.96875 
Q 11.375 44.578125 18.65625 46.390625 
L 19.09375 46.046875 
Q 18.796875 39.703125 18.796875 32.078125 
L 18.796875 13.328125 
Q 18.796875 7.46875 18.890625 5.21875 
Q 19 3.90625 20.125 3.515625 
L 25.78125 1.859375 
L 25.875 -0.140625 
Q 19.140625 0 14.359375 0 
Q 9.578125 0 2.984375 -0.140625 
L 2.78125 1.859375 
L 8.453125 3.515625 
Q 9.578125 3.90625 9.671875 5.03125 
Q 9.765625 6.9375 9.765625 11.421875 
L 9.765625 27.734375 
Q 9.765625 34.125 9.578125 39.546875 
L 3.078125 41.3125 
z
" id="Constantia-105"/>
        <path d="M 42.96875 3.46875 
Q 39.9375 1.421875 35.46875 0.015625 
Q 31 -1.375 26.609375 -1.375 
Q 16.0625 -1.375 9.90625 4.796875 
Q 3.765625 10.984375 3.765625 21.296875 
Q 3.765625 32.46875 10.734375 39.421875 
Q 17.71875 46.390625 28.8125 46.390625 
Q 35.984375 46.390625 42.71875 43.453125 
Q 41.109375 36.921875 39.84375 30.078125 
L 37.9375 29.78125 
L 33.984375 41.5 
Q 31.734375 42.28125 28.90625 42.28125 
Q 21.625 42.28125 17.515625 37.203125 
Q 13.421875 32.125 13.421875 23.78125 
Q 13.421875 13.96875 18.0625 9.28125 
Q 22.703125 4.59375 32.765625 4.59375 
Q 37.40625 4.59375 42.671875 5.515625 
z
" id="Constantia-99"/>
        <path d="M 2.828125 42.96875 
Q 11.03125 44.53125 18.3125 46.390625 
L 18.796875 46.046875 
L 18.796875 40.375 
Q 27.296875 46.390625 34.625 46.390625 
Q 41.546875 46.390625 45.484375 42.5 
Q 49.421875 38.625 49.421875 31.5 
L 49.421875 14.265625 
Q 49.421875 8.15625 49.515625 5.21875 
Q 49.5625 3.90625 50.78125 3.515625 
L 56.203125 1.859375 
L 56.296875 -0.140625 
Q 49.859375 0 45.0625 0 
Q 40.28125 0 34.421875 -0.140625 
L 34.234375 1.859375 
L 39.109375 3.265625 
Q 40.234375 3.65625 40.328125 4.78125 
Q 40.375 5.46875 40.375 7.859375 
L 40.375 29.15625 
Q 40.375 35.15625 37.5 37.765625 
Q 34.625 40.375 29 40.375 
Q 24.078125 40.375 18.796875 37.546875 
L 18.796875 16.21875 
Q 18.796875 10.109375 18.890625 5.03125 
Q 18.953125 3.71875 20.015625 3.375 
L 25.09375 1.859375 
L 25.203125 -0.140625 
Q 19.140625 0 14.359375 0 
Q 9.578125 0 3.03125 -0.140625 
L 2.828125 1.859375 
L 8.59375 3.515625 
Q 9.671875 3.953125 9.71875 5.03125 
Q 9.765625 8.15625 9.765625 11.03125 
L 9.765625 27.6875 
Q 9.765625 34.078125 9.578125 39.546875 
L 3.078125 41.3125 
z
" id="Constantia-110"/>
        <path id="Constantia-32"/>
        <path d="M 57.515625 51.3125 
L 55.5625 51.03125 
L 52 63.875 
Q 45.953125 65.375 41.015625 65.375 
Q 29.046875 65.375 22.203125 57.03125 
Q 15.375 48.6875 15.375 35.359375 
Q 15.375 21.09375 23.1875 12.59375 
Q 31 4.109375 44.828125 4.109375 
Q 52.59375 4.109375 61.1875 7.078125 
L 61.71875 4.890625 
Q 52.09375 -1.765625 39.9375 -1.765625 
Q 24.171875 -1.765625 14.5 7.859375 
Q 4.828125 17.484375 4.828125 33.203125 
Q 4.828125 49.953125 15.46875 59.71875 
Q 26.125 69.484375 43.3125 69.484375 
Q 51.5625 69.484375 60.203125 67.484375 
L 60.546875 67.09375 
z
" id="Constantia-67"/>
        <path d="M -1.703125 45.265625 
Q 4.4375 45.125 9.234375 45.125 
Q 12.5 45.125 19.671875 45.265625 
L 19.875 43.265625 
L 14.15625 41.703125 
Q 15.96875 36.578125 18.359375 30.390625 
Q 20.75 24.21875 23.4375 17.53125 
Q 24.5625 14.75 25.875 11.140625 
Q 27.25 14.796875 28.8125 18.609375 
Q 31.109375 24.265625 33.25 29.75 
Q 35.40625 35.25 37.703125 41.703125 
L 32.125 43.265625 
L 31.9375 45.265625 
Q 35.546875 45.125 40.375 45.125 
Q 44.734375 45.125 48.828125 45.265625 
L 49.078125 43.265625 
L 44.53125 42 
Q 43.015625 41.5 42.328125 39.984375 
Q 40.53125 35.84375 38.421875 30.90625 
Q 31.984375 15.765625 28.65625 6.109375 
Q 26.421875 -0.4375 24.609375 -7.296875 
Q 22.796875 -14.15625 21.828125 -19.09375 
Q 21.390625 -21.484375 20.046875 -22.71875 
Q 18.703125 -23.96875 13.765625 -23.96875 
Q 8.734375 -23.96875 4 -23.640625 
L 3.765625 -21.734375 
Q 9.125 -20.90625 11.71875 -18.265625 
Q 14.84375 -14.890625 21.390625 -0.34375 
L 21.78125 0.59375 
L 21.09375 0.78125 
Q 12.15625 23.046875 4.9375 39.9375 
Q 4.296875 41.40625 2.6875 41.9375 
L -1.609375 43.265625 
z
" id="Constantia-121"/>
       </defs>
       <use xlink:href="#Constantia-86"/>
       <use x="60.214844" xlink:href="#Constantia-97"/>
       <use x="108.212891" xlink:href="#Constantia-116"/>
       <use x="143.515625" xlink:href="#Constantia-105"/>
       <use x="171.835938" xlink:href="#Constantia-99"/>
       <use x="217.978516" xlink:href="#Constantia-97"/>
       <use x="265.976562" xlink:href="#Constantia-110"/>
       <use x="324.179688" xlink:href="#Constantia-32"/>
       <use x="349.277344" xlink:href="#Constantia-67"/>
       <use x="414.414062" xlink:href="#Constantia-105"/>
       <use x="442.734375" xlink:href="#Constantia-116"/>
       <use x="478.037109" xlink:href="#Constantia-121"/>
      </g>
     </g>
    </g>
    <g id="xtick_2">
     <g id="line2d_3">
      <g>
       <use style="stroke:#000000;stroke-width:0.5;" x="1351.674375" xlink:href="#mcff946ef18" y="726.525"/>
      </g>
     </g>
     <g id="line2d_4">
      <g>
       <use style="stroke:#000000;stroke-width:0.5;" x="1351.674375" xlink:href="#mad7404fb1a" y="38.9273"/>
      </g>
     </g>
     <g id="text_2">
      <!-- Laos -->
      <g transform="translate(1339.66875 739.354375)scale(0.12 -0.12)">
       <defs>
        <path d="M 21.78125 54.78125 
L 21.78125 15.09375 
Q 21.78125 9.671875 21.875 4.390625 
L 45.65625 4.390625 
L 51.90625 17.328125 
L 54.109375 17.671875 
L 53.03125 0.203125 
L 52.734375 -0.140625 
Q 40.09375 0 29.34375 0 
L 17.09375 0 
Q 11.1875 0 4.984375 -0.140625 
L 4.78125 1.953125 
L 10.796875 3.765625 
Q 12.015625 4.109375 12.109375 5.28125 
Q 12.15625 7.234375 12.171875 9.640625 
Q 12.203125 12.0625 12.203125 14.984375 
L 12.203125 54.59375 
Q 12.203125 57.078125 12.171875 59.078125 
Q 12.15625 61.078125 12.109375 62.703125 
Q 12.0625 63.96875 10.9375 64.359375 
L 4.890625 66.265625 
L 4.78125 68.359375 
Q 11.078125 68.171875 16.890625 68.171875 
Q 22.75 68.171875 29 68.359375 
L 29.203125 66.265625 
L 23.140625 64.453125 
Q 21.96875 64.15625 21.875 62.9375 
Q 21.828125 61.234375 21.796875 57.953125 
Q 21.78125 54.6875 21.78125 54.78125 
z
" id="Constantia-76"/>
        <path d="M 13.71875 23.046875 
Q 13.71875 13.921875 17.140625 8.171875 
Q 20.5625 2.4375 27.296875 2.4375 
Q 33.59375 2.4375 36.890625 7.484375 
Q 40.1875 12.546875 40.1875 22.46875 
Q 40.1875 31.78125 36.71875 37.15625 
Q 33.25 42.53125 26.65625 42.53125 
Q 20.40625 42.53125 17.0625 37.6875 
Q 13.71875 32.859375 13.71875 23.046875 
z
M 50.140625 23.484375 
Q 50.140625 12.359375 43.421875 5.484375 
Q 36.71875 -1.375 26.375 -1.375 
Q 16.265625 -1.375 10.03125 5.09375 
Q 3.8125 11.578125 3.8125 22.015625 
Q 3.8125 32.765625 10.328125 39.578125 
Q 16.84375 46.390625 27.59375 46.390625 
Q 37.75 46.390625 43.9375 40.109375 
Q 50.140625 33.84375 50.140625 23.484375 
z
" id="Constantia-111"/>
        <path d="M 27.875 41.453125 
Q 25.046875 42.234375 21.734375 42.234375 
Q 17.140625 42.234375 14.328125 40.453125 
Q 11.53125 38.671875 11.53125 35.59375 
Q 11.53125 32.625 13.359375 30.90625 
Q 15.1875 29.203125 20.171875 27.546875 
L 24.171875 26.171875 
Q 30.90625 23.875 34.046875 20.921875 
Q 37.203125 17.96875 37.203125 13.1875 
Q 37.203125 6.390625 31.921875 2.5 
Q 26.65625 -1.375 18.609375 -1.375 
Q 11.1875 -1.375 3.421875 1.65625 
Q 5.078125 8.015625 6.109375 14.0625 
L 8.015625 14.359375 
L 11.53125 3.859375 
Q 14.3125 2.78125 18.609375 2.78125 
Q 23.140625 2.78125 25.84375 4.640625 
Q 28.5625 6.5 28.5625 9.859375 
Q 28.5625 12.984375 26.734375 14.796875 
Q 24.90625 16.609375 20.90625 17.921875 
L 15.828125 19.625 
Q 9.234375 21.828125 6.71875 24.921875 
Q 4.203125 28.03125 4.203125 32.625 
Q 4.203125 39.015625 9.0625 42.703125 
Q 13.921875 46.390625 21.875 46.390625 
Q 29.296875 46.390625 35.359375 44.234375 
Q 33.984375 38.671875 32.859375 32.46875 
L 31 32.125 
z
" id="Constantia-115"/>
       </defs>
       <use xlink:href="#Constantia-76"/>
       <use x="57.566406" xlink:href="#Constantia-97"/>
       <use x="105.564453" xlink:href="#Constantia-111"/>
       <use x="159.617188" xlink:href="#Constantia-115"/>
      </g>
     </g>
    </g>
    <g id="text_3">
     <!-- Country -->
     <g transform="translate(689.05875 756.00375)scale(0.12 -0.12)">
      <defs>
       <path d="M 38.875 4.296875 
Q 31.25 -1.375 23.640625 -1.375 
Q 15.96875 -1.375 12.125 2.53125 
Q 8.296875 6.453125 8.296875 13.53125 
L 8.296875 23.875 
Q 8.296875 34.328125 8.109375 39.546875 
L 1.609375 41.3125 
L 1.375 42.96875 
Q 9.90625 44.53125 17.1875 46.390625 
L 17.625 46.046875 
Q 17.328125 40.328125 17.328125 31.34375 
L 17.328125 15.828125 
Q 17.328125 9.90625 20.109375 7.25 
Q 22.90625 4.59375 27.984375 4.59375 
Q 33.0625 4.59375 38.375 7.28125 
L 38.375 28.078125 
Q 38.375 34.90625 38.1875 39.546875 
L 31.734375 41.3125 
L 31.5 42.96875 
Q 39.984375 44.53125 47.265625 46.390625 
L 47.703125 46.046875 
Q 47.40625 40.1875 47.40625 31.0625 
Q 47.40625 13.328125 47.515625 9.421875 
Q 47.5625 7.421875 47.796875 6.203125 
Q 48.046875 4.984375 48.734375 4.3125 
Q 49.421875 3.65625 50.75 3.390625 
Q 52.09375 3.125 54.34375 3.078125 
L 54.59375 1.171875 
Q 52.34375 0.296875 49.40625 -0.5 
Q 46.484375 -1.3125 45.40625 -1.3125 
Q 40.484375 -1.3125 38.875 4.296875 
z
" id="Constantia-117"/>
       <path d="M 2.828125 42.96875 
Q 10.984375 44.53125 18.3125 46.390625 
L 18.796875 46.046875 
L 18.796875 40.328125 
Q 27.828125 46.390625 36.53125 46.390625 
L 36.765625 46.09375 
Q 35.359375 38.8125 33.984375 31 
L 32.03125 30.671875 
Q 30.671875 34.8125 29.390625 37.328125 
Q 28.125 39.84375 25.390625 39.84375 
Q 22.75 39.84375 18.796875 37.40625 
L 18.796875 16.265625 
Q 18.796875 8.640625 18.890625 5.375 
Q 18.953125 4.046875 20.125 3.71875 
L 26.609375 1.859375 
L 26.765625 -0.140625 
Q 19.140625 0 14.359375 0 
Q 9.578125 0 3.03125 -0.140625 
L 2.828125 1.859375 
L 8.5 3.515625 
Q 9.671875 3.90625 9.71875 5.03125 
Q 9.765625 7.125 9.765625 11.03125 
L 9.765625 27.6875 
Q 9.765625 35.640625 9.578125 39.546875 
L 3.078125 41.3125 
z
" id="Constantia-114"/>
      </defs>
      <use xlink:href="#Constantia-67"/>
      <use x="63.886719" xlink:href="#Constantia-111"/>
      <use x="117.939453" xlink:href="#Constantia-117"/>
      <use x="174.873047" xlink:href="#Constantia-110"/>
      <use x="233.076172" xlink:href="#Constantia-116"/>
      <use x="268.378906" xlink:href="#Constantia-114"/>
      <use x="306.708984" xlink:href="#Constantia-121"/>
     </g>
    </g>
   </g>
   <g id="matplotlib.axis_2">
    <g id="ytick_1">
     <g id="line2d_5">
      <defs>
       <path d="M 0 0 
L 4 0 
" id="m4a3dabe954" style="stroke:#000000;stroke-width:0.5;"/>
      </defs>
      <g>
       <use style="stroke:#000000;stroke-width:0.5;" x="69.024375" xlink:href="#m4a3dabe954" y="726.525"/>
      </g>
     </g>
     <g id="line2d_6">
      <defs>
       <path d="M 0 0 
L -4 0 
" id="m2f3cee9e22" style="stroke:#000000;stroke-width:0.5;"/>
      </defs>
      <g>
       <use style="stroke:#000000;stroke-width:0.5;" x="1351.674375" xlink:href="#m2f3cee9e22" y="726.525"/>
      </g>
     </g>
     <g id="text_4">
      <!-- -0.000K -->
      <g transform="translate(23.8775 729.515625)scale(0.12 -0.12)">
       <defs>
        <path d="M 4.390625 27.4375 
L 31.546875 27.4375 
L 31.546875 21.09375 
L 4.390625 21.09375 
z
" id="Constantia-45"/>
        <path d="M 13.671875 23.296875 
Q 13.671875 13.625 17.15625 8.109375 
Q 20.65625 2.59375 27.203125 2.59375 
Q 33.84375 2.59375 37.015625 7.515625 
Q 40.1875 12.453125 40.1875 22.609375 
Q 40.1875 32.5625 36.71875 37.609375 
Q 33.25 42.671875 26.65625 42.671875 
Q 19.921875 42.671875 16.796875 37.84375 
Q 13.671875 33.015625 13.671875 23.296875 
z
M 49.953125 23.6875 
Q 49.953125 12.25 43.4375 5.484375 
Q 36.921875 -1.265625 26.421875 -1.265625 
Q 16.3125 -1.265625 10.109375 4.9375 
Q 3.90625 11.140625 3.90625 22.015625 
Q 3.90625 33.203125 10.390625 39.796875 
Q 16.890625 46.390625 27.484375 46.390625 
Q 37.796875 46.390625 43.875 40.375 
Q 49.953125 34.375 49.953125 23.6875 
z
" id="Constantia-48"/>
        <path d="M 13.09375 10.25 
Q 15.625 10.25 17.25 8.65625 
Q 18.890625 7.078125 18.890625 4.5 
Q 18.890625 1.90625 17.25 0.265625 
Q 15.625 -1.375 13.09375 -1.375 
Q 10.40625 -1.375 8.78125 0.265625 
Q 7.171875 1.90625 7.171875 4.5 
Q 7.171875 7.078125 8.78125 8.65625 
Q 10.40625 10.25 13.09375 10.25 
z
" id="Constantia-46"/>
        <path d="M 21.78125 54.78125 
L 21.78125 14.984375 
Q 21.78125 12.0625 21.796875 9.671875 
Q 21.828125 7.28125 21.875 5.328125 
Q 21.921875 4.046875 23.140625 3.65625 
L 28.5625 1.953125 
L 28.71875 -0.140625 
Q 22.90625 0 17.09375 0 
Q 11.1875 0 4.984375 -0.140625 
L 4.78125 1.953125 
L 10.796875 3.765625 
Q 12.0625 4.15625 12.109375 5.28125 
Q 12.15625 7.234375 12.171875 9.640625 
Q 12.203125 12.0625 12.203125 14.984375 
L 12.203125 54.59375 
Q 12.203125 57.078125 12.171875 59.078125 
Q 12.15625 61.078125 12.109375 62.703125 
Q 12.0625 63.96875 10.9375 64.359375 
L 4.890625 66.265625 
L 4.78125 68.359375 
Q 11.078125 68.171875 16.890625 68.171875 
Q 22.703125 68.171875 28.46875 68.359375 
L 28.71875 66.265625 
L 23.140625 64.546875 
Q 21.96875 64.265625 21.875 63.03125 
Q 21.828125 61.28125 21.796875 59.21875 
Q 21.78125 57.171875 21.78125 54.78125 
z
M 23.046875 34.578125 
L 42.71875 56.5 
Q 45.015625 59.078125 46.4375 60.859375 
Q 47.859375 62.640625 47.859375 63.71875 
Q 47.859375 64.703125 46.53125 65.046875 
L 42.53125 66.109375 
L 42.4375 68.359375 
Q 47.265625 68.171875 53.21875 68.171875 
Q 58.9375 68.171875 63.96875 68.359375 
L 64.15625 66.265625 
L 59.234375 64.703125 
Q 56.984375 63.96875 55.34375 62.453125 
Q 53.71875 60.9375 51.859375 58.890625 
L 32.328125 37.40625 
L 54.546875 8.109375 
Q 55.953125 6.25 57.3125 5.09375 
Q 58.6875 3.953125 60.890625 3.328125 
L 65.328125 1.953125 
L 65.4375 -0.140625 
Q 61.328125 0 55.03125 0 
Q 53.375 0 51.65625 -0.015625 
Q 49.953125 -0.046875 48.25 -0.09375 
Q 46.53125 3.421875 39.203125 13.140625 
z
" id="Constantia-75"/>
       </defs>
       <use xlink:href="#Constantia-45"/>
       <use x="35.9375" xlink:href="#Constantia-48"/>
       <use x="89.794922" xlink:href="#Constantia-46"/>
       <use x="115.380859" xlink:href="#Constantia-48"/>
       <use x="169.238281" xlink:href="#Constantia-48"/>
       <use x="223.095703" xlink:href="#Constantia-48"/>
       <use x="276.953125" xlink:href="#Constantia-75"/>
      </g>
     </g>
    </g>
    <g id="ytick_2">
     <g id="line2d_7">
      <g>
       <use style="stroke:#000000;stroke-width:0.5;" x="69.024375" xlink:href="#m4a3dabe954" y="611.925383"/>
      </g>
     </g>
     <g id="line2d_8">
      <g>
       <use style="stroke:#000000;stroke-width:0.5;" x="1351.674375" xlink:href="#m2f3cee9e22" y="611.925383"/>
      </g>
     </g>
     <g id="text_5">
      <!-- -0.000K -->
      <g transform="translate(23.8775 614.916008)scale(0.12 -0.12)">
       <use xlink:href="#Constantia-45"/>
       <use x="35.9375" xlink:href="#Constantia-48"/>
       <use x="89.794922" xlink:href="#Constantia-46"/>
       <use x="115.380859" xlink:href="#Constantia-48"/>
       <use x="169.238281" xlink:href="#Constantia-48"/>
       <use x="223.095703" xlink:href="#Constantia-48"/>
       <use x="276.953125" xlink:href="#Constantia-75"/>
      </g>
     </g>
    </g>
    <g id="ytick_3">
     <g id="line2d_9">
      <g>
       <use style="stroke:#000000;stroke-width:0.5;" x="69.024375" xlink:href="#m4a3dabe954" y="497.325767"/>
      </g>
     </g>
     <g id="line2d_10">
      <g>
       <use style="stroke:#000000;stroke-width:0.5;" x="1351.674375" xlink:href="#m2f3cee9e22" y="497.325767"/>
      </g>
     </g>
     <g id="text_6">
      <!-- -0.000K -->
      <g transform="translate(23.8775 500.316392)scale(0.12 -0.12)">
       <use xlink:href="#Constantia-45"/>
       <use x="35.9375" xlink:href="#Constantia-48"/>
       <use x="89.794922" xlink:href="#Constantia-46"/>
       <use x="115.380859" xlink:href="#Constantia-48"/>
       <use x="169.238281" xlink:href="#Constantia-48"/>
       <use x="223.095703" xlink:href="#Constantia-48"/>
       <use x="276.953125" xlink:href="#Constantia-75"/>
      </g>
     </g>
    </g>
    <g id="ytick_4">
     <g id="line2d_11">
      <g>
       <use style="stroke:#000000;stroke-width:0.5;" x="69.024375" xlink:href="#m4a3dabe954" y="382.72615"/>
      </g>
     </g>
     <g id="line2d_12">
      <g>
       <use style="stroke:#000000;stroke-width:0.5;" x="1351.674375" xlink:href="#m2f3cee9e22" y="382.72615"/>
      </g>
     </g>
     <g id="text_7">
      <!-- 0.000K -->
      <g transform="translate(28.19 385.716775)scale(0.12 -0.12)">
       <use xlink:href="#Constantia-48"/>
       <use x="53.857422" xlink:href="#Constantia-46"/>
       <use x="79.443359" xlink:href="#Constantia-48"/>
       <use x="133.300781" xlink:href="#Constantia-48"/>
       <use x="187.158203" xlink:href="#Constantia-48"/>
       <use x="241.015625" xlink:href="#Constantia-75"/>
      </g>
     </g>
    </g>
    <g id="ytick_5">
     <g id="line2d_13">
      <g>
       <use style="stroke:#000000;stroke-width:0.5;" x="69.024375" xlink:href="#m4a3dabe954" y="268.126533"/>
      </g>
     </g>
     <g id="line2d_14">
      <g>
       <use style="stroke:#000000;stroke-width:0.5;" x="1351.674375" xlink:href="#m2f3cee9e22" y="268.126533"/>
      </g>
     </g>
     <g id="text_8">
      <!-- 0.000K -->
      <g transform="translate(28.19 271.117158)scale(0.12 -0.12)">
       <use xlink:href="#Constantia-48"/>
       <use x="53.857422" xlink:href="#Constantia-46"/>
       <use x="79.443359" xlink:href="#Constantia-48"/>
       <use x="133.300781" xlink:href="#Constantia-48"/>
       <use x="187.158203" xlink:href="#Constantia-48"/>
       <use x="241.015625" xlink:href="#Constantia-75"/>
      </g>
     </g>
    </g>
    <g id="ytick_6">
     <g id="line2d_15">
      <g>
       <use style="stroke:#000000;stroke-width:0.5;" x="69.024375" xlink:href="#m4a3dabe954" y="153.526917"/>
      </g>
     </g>
     <g id="line2d_16">
      <g>
       <use style="stroke:#000000;stroke-width:0.5;" x="1351.674375" xlink:href="#m2f3cee9e22" y="153.526917"/>
      </g>
     </g>
     <g id="text_9">
      <!-- 0.000K -->
      <g transform="translate(28.19 156.517542)scale(0.12 -0.12)">
       <use xlink:href="#Constantia-48"/>
       <use x="53.857422" xlink:href="#Constantia-46"/>
       <use x="79.443359" xlink:href="#Constantia-48"/>
       <use x="133.300781" xlink:href="#Constantia-48"/>
       <use x="187.158203" xlink:href="#Constantia-48"/>
       <use x="241.015625" xlink:href="#Constantia-75"/>
      </g>
     </g>
    </g>
    <g id="ytick_7">
     <g id="line2d_17">
      <g>
       <use style="stroke:#000000;stroke-width:0.5;" x="69.024375" xlink:href="#m4a3dabe954" y="38.9273"/>
      </g>
     </g>
     <g id="line2d_18">
      <g>
       <use style="stroke:#000000;stroke-width:0.5;" x="1351.674375" xlink:href="#m2f3cee9e22" y="38.9273"/>
      </g>
     </g>
     <g id="text_10">
      <!-- 0.000K -->
      <g transform="translate(28.19 41.917925)scale(0.12 -0.12)">
       <use xlink:href="#Constantia-48"/>
       <use x="53.857422" xlink:href="#Constantia-46"/>
       <use x="79.443359" xlink:href="#Constantia-48"/>
       <use x="133.300781" xlink:href="#Constantia-48"/>
       <use x="187.158203" xlink:href="#Constantia-48"/>
       <use x="241.015625" xlink:href="#Constantia-75"/>
      </g>
     </g>
    </g>
    <g id="text_11">
     <!-- Values -->
     <g transform="translate(16.029375 399.62365)rotate(-90)scale(0.12 -0.12)">
      <defs>
       <path d="M 2.734375 68.5 
L 2.484375 70.125 
Q 11.140625 71.78125 18.40625 73.578125 
L 18.84375 73.1875 
Q 18.5625 65.234375 18.5625 51.078125 
L 18.5625 19.28125 
Q 18.5625 10.546875 18.65625 5.21875 
Q 18.796875 3.8125 20.015625 3.46875 
L 25.34375 1.859375 
L 25.484375 -0.140625 
Q 18.890625 0 14.109375 0 
Q 9.328125 0 2.78125 -0.140625 
L 2.59375 1.859375 
L 8.109375 3.46875 
Q 9.328125 3.859375 9.421875 5.03125 
Q 9.515625 10.546875 9.515625 17.328125 
L 9.515625 37.40625 
Q 9.515625 55.5625 9.328125 66.546875 
z
" id="Constantia-108"/>
       <path d="M 44.046875 3.46875 
Q 39.890625 0.875 35.5 -0.25 
Q 31.109375 -1.375 27.34375 -1.375 
Q 16.609375 -1.375 10.203125 4.75 
Q 3.8125 10.890625 3.8125 21.78125 
Q 3.8125 32.625 9.9375 39.5 
Q 16.0625 46.390625 26.3125 46.390625 
Q 34.90625 46.390625 39.6875 41.234375 
Q 44.484375 36.078125 44.484375 27 
Q 44.484375 25.640625 44.34375 24.21875 
L 13.375 24.21875 
Q 13.375 13.71875 18.3125 9.203125 
Q 23.25 4.6875 33.734375 4.6875 
Q 38.421875 4.6875 43.75 5.5625 
z
M 34.765625 28.265625 
L 34.765625 29.734375 
Q 34.765625 36.671875 32.546875 39.640625 
Q 30.328125 42.625 25.921875 42.625 
Q 20.125 42.625 17.046875 38.421875 
Q 13.96875 34.234375 13.578125 28.265625 
z
" id="Constantia-101"/>
      </defs>
      <use xlink:href="#Constantia-86"/>
      <use x="60.214844" xlink:href="#Constantia-97"/>
      <use x="108.212891" xlink:href="#Constantia-108"/>
      <use x="136.289062" xlink:href="#Constantia-117"/>
      <use x="193.222656" xlink:href="#Constantia-101"/>
      <use x="241.123047" xlink:href="#Constantia-115"/>
     </g>
    </g>
   </g>
   <g id="text_12">
    <!-- Top 10 countries -->
    <g transform="translate(659.870625 17.79525)scale(0.144 -0.144)">
     <defs>
      <path d="M 30.765625 0 
Q 24.75 0 17.484375 -0.140625 
L 17.28125 1.953125 
L 24.515625 4.109375 
Q 25.734375 4.4375 25.78125 5.609375 
Q 25.875 9.328125 25.875 15.09375 
L 25.875 63.8125 
L 8.640625 63.8125 
L 4.296875 50.828125 
L 2.34375 50.484375 
L 1.078125 67.96875 
L 1.421875 68.359375 
Q 13.421875 68.171875 24.421875 68.171875 
L 37.453125 68.171875 
Q 48.390625 68.171875 60.546875 68.359375 
L 60.84375 67.96875 
L 57.765625 50.828125 
L 55.8125 50.484375 
L 52.6875 63.8125 
L 35.453125 63.8125 
L 35.453125 15.09375 
Q 35.453125 9.328125 35.546875 5.609375 
Q 35.59375 4.4375 36.8125 4.109375 
L 44.046875 1.953125 
L 44.140625 -0.140625 
Q 36.578125 0 30.765625 0 
z
" id="Constantia-84"/>
      <path d="M 2.09375 41.3125 
L 1.859375 42.96875 
Q 10.0625 44.53125 17.328125 46.390625 
L 17.828125 46.046875 
L 17.828125 41.265625 
Q 25.296875 46.390625 32.28125 46.390625 
Q 41.359375 46.390625 46.703125 40.3125 
Q 52.046875 34.234375 52.046875 24.515625 
Q 52.046875 12.546875 45.15625 5.578125 
Q 38.28125 -1.375 25.640625 -1.375 
Q 21.875 -1.375 17.828125 -0.640625 
L 17.828125 -11.328125 
Q 17.828125 -16.21875 17.921875 -18.171875 
Q 18.015625 -19.625 19.234375 -19.921875 
L 25.640625 -21.734375 
L 25.78125 -23.734375 
Q 18.171875 -23.578125 13.375 -23.578125 
Q 8.59375 -23.578125 2.046875 -23.734375 
L 1.859375 -21.734375 
L 7.46875 -20.0625 
Q 8.640625 -19.734375 8.6875 -18.5625 
Q 8.796875 -14.984375 8.796875 -7.765625 
L 8.796875 12.109375 
Q 8.796875 33.734375 8.59375 39.453125 
z
M 17.828125 3.765625 
Q 22.078125 2.828125 26.03125 2.828125 
Q 34.125 2.828125 38.21875 7.90625 
Q 42.328125 12.984375 42.328125 22.46875 
Q 42.328125 31.390625 38.421875 35.9375 
Q 34.515625 40.484375 27.203125 40.484375 
Q 21.921875 40.484375 17.828125 38.328125 
z
" id="Constantia-112"/>
      <path d="M 1.703125 40.625 
L 1.46875 42.671875 
Q 11.28125 44.140625 21.09375 45.90625 
L 21.53125 45.515625 
Q 20.953125 36.96875 20.953125 27.875 
L 20.953125 15.96875 
Q 20.953125 9.515625 21.046875 5.5625 
Q 21.09375 4.15625 22.40625 3.8125 
L 30.171875 1.8125 
L 30.328125 -0.140625 
Q 21.296875 0 16.5 0 
Q 11.71875 0 2.734375 -0.140625 
L 2.546875 1.8125 
L 10.5 3.8125 
Q 11.765625 4.15625 11.8125 5.375 
Q 11.921875 9.328125 11.921875 14.15625 
L 11.921875 22.265625 
Q 11.921875 32.078125 11.71875 39.65625 
z
" id="Constantia-49"/>
     </defs>
     <use xlink:href="#Constantia-84"/>
     <use x="52.578125" xlink:href="#Constantia-111"/>
     <use x="106.630859" xlink:href="#Constantia-112"/>
     <use x="162.587891" xlink:href="#Constantia-32"/>
     <use x="187.685547" xlink:href="#Constantia-49"/>
     <use x="218.984375" xlink:href="#Constantia-48"/>
     <use x="272.841797" xlink:href="#Constantia-32"/>
     <use x="295.439453" xlink:href="#Constantia-99"/>
     <use x="341.582031" xlink:href="#Constantia-111"/>
     <use x="395.634766" xlink:href="#Constantia-117"/>
     <use x="452.568359" xlink:href="#Constantia-110"/>
     <use x="510.771484" xlink:href="#Constantia-116"/>
     <use x="546.074219" xlink:href="#Constantia-114"/>
     <use x="584.404297" xlink:href="#Constantia-105"/>
     <use x="612.724609" xlink:href="#Constantia-101"/>
     <use x="660.625" xlink:href="#Constantia-115"/>
    </g>
    <!-- by TotalDeaths -->
    <g transform="translate(663.571875 33.9273)scale(0.144 -0.144)">
     <defs>
      <path d="M 17.578125 4.15625 
Q 21.53125 2.875 25.59375 2.875 
Q 33.796875 2.875 37.921875 7.90625 
Q 42.046875 12.9375 42.046875 22.3125 
Q 42.046875 30.90625 38.234375 35.6875 
Q 34.421875 40.484375 26.953125 40.484375 
Q 22.171875 40.484375 17.578125 38.328125 
z
M 17.875 73.1875 
Q 17.578125 65.875 17.578125 51.171875 
L 17.578125 41.265625 
Q 25.4375 46.390625 31.984375 46.390625 
Q 41.15625 46.390625 46.484375 40.234375 
Q 51.8125 34.078125 51.8125 24.171875 
Q 51.8125 12.109375 44.953125 5.390625 
Q 38.09375 -1.3125 25.921875 -1.3125 
Q 17.828125 -1.3125 8.453125 1.46875 
Q 8.546875 7.671875 8.546875 17.4375 
L 8.546875 46.390625 
Q 8.546875 57.171875 8.34375 66.546875 
L 1.765625 68.5 
L 1.515625 70.125 
Q 9.515625 71.625 17.390625 73.578125 
z
" id="Constantia-98"/>
      <path d="M 17.09375 0 
Q 11.1875 0 4.984375 -0.140625 
L 4.78125 1.953125 
L 10.796875 3.765625 
Q 12.0625 4.15625 12.109375 5.28125 
Q 12.15625 7.234375 12.171875 9.640625 
Q 12.203125 12.0625 12.203125 14.984375 
L 12.203125 54.59375 
Q 12.203125 57.078125 12.171875 59.078125 
Q 12.15625 61.078125 12.109375 62.703125 
Q 12.0625 63.96875 10.9375 64.359375 
L 4.890625 66.265625 
L 4.78125 68.359375 
Q 11.078125 68.171875 17.046875 68.171875 
Q 21.921875 68.171875 26.453125 68.40625 
Q 31 68.65625 35.796875 68.65625 
Q 52.875 68.65625 61.46875 60.859375 
Q 70.0625 53.078125 70.0625 37.75 
Q 70.0625 19.671875 60.515625 9.6875 
Q 50.984375 -0.296875 33.734375 -0.296875 
Q 29 -0.296875 25.28125 -0.140625 
Q 21.578125 0 17.09375 0 
z
M 21.78125 4.34375 
Q 24.65625 3.953125 27.40625 3.828125 
Q 30.171875 3.71875 32.953125 3.71875 
Q 45.84375 3.71875 52.578125 11.296875 
Q 59.328125 18.890625 59.328125 34.578125 
Q 59.328125 49.8125 52.921875 57.15625 
Q 46.53125 64.5 32.671875 64.5 
Q 30.46875 64.5 27.796875 64.40625 
Q 25.140625 64.3125 21.78125 64.0625 
z
" id="Constantia-68"/>
      <path d="M 2.484375 70.125 
Q 10.453125 71.6875 18.40625 73.578125 
L 18.84375 73.1875 
Q 18.609375 68.609375 18.578125 60.109375 
Q 18.5625 51.609375 18.5625 40.921875 
Q 27.046875 46.390625 34.375 46.390625 
Q 41.15625 46.390625 45.15625 42.59375 
Q 49.171875 38.8125 49.171875 31.5 
L 49.171875 14.265625 
Q 49.171875 8.640625 49.265625 5.21875 
Q 49.3125 3.953125 50.484375 3.515625 
L 55.953125 1.859375 
L 56.0625 -0.140625 
Q 49.609375 0 44.828125 0 
Q 40.046875 0 34.1875 -0.140625 
L 33.984375 1.859375 
L 38.8125 3.265625 
Q 39.984375 3.65625 40.09375 4.78125 
Q 40.140625 5.46875 40.140625 7.859375 
L 40.140625 29.15625 
Q 40.140625 35.15625 37.25 37.765625 
Q 34.375 40.375 28.765625 40.375 
Q 23.921875 40.375 18.5625 38.03125 
L 18.5625 16.109375 
Q 18.5625 10.0625 18.65625 5.03125 
Q 18.703125 3.65625 19.875 3.328125 
L 24.953125 1.859375 
L 25.046875 -0.140625 
Q 18.890625 0 14.109375 0 
Q 9.328125 0 2.78125 -0.140625 
L 2.59375 1.859375 
L 8.109375 3.46875 
Q 9.375 3.859375 9.421875 5.03125 
Q 9.515625 9.71875 9.515625 17 
L 9.515625 37.40625 
Q 9.515625 47.359375 9.484375 55.03125 
Q 9.46875 62.703125 9.328125 66.546875 
L 2.734375 68.5 
z
" id="Constantia-104"/>
     </defs>
     <use xlink:href="#Constantia-98"/>
     <use x="55.712891" xlink:href="#Constantia-121"/>
     <use x="103.857422" xlink:href="#Constantia-32"/>
     <use x="126.955078" xlink:href="#Constantia-84"/>
     <use x="179.533203" xlink:href="#Constantia-111"/>
     <use x="233.585938" xlink:href="#Constantia-116"/>
     <use x="268.888672" xlink:href="#Constantia-97"/>
     <use x="316.886719" xlink:href="#Constantia-108"/>
     <use x="344.962891" xlink:href="#Constantia-68"/>
     <use x="420.060547" xlink:href="#Constantia-101"/>
     <use x="467.960938" xlink:href="#Constantia-97"/>
     <use x="515.958984" xlink:href="#Constantia-116"/>
     <use x="551.261719" xlink:href="#Constantia-104"/>
     <use x="609.220703" xlink:href="#Constantia-115"/>
    </g>
   </g>
  </g>
 </g>
 <defs>
  <clipPath id="p4809670ed4">
   <rect height="687.5977" width="1282.65" x="69.024375" y="38.9273"/>
  </clipPath>
 </defs>
</svg>
