<?xml version="1.0" encoding="utf-8" standalone="no"?>
<!DOCTYPE svg PUBLIC "-//W3C//DTD SVG 1.1//EN"
  "http://www.w3.org/Graphics/SVG/1.1/DTD/svg11.dtd">
<!-- Created with matplotlib (https://matplotlib.org/) -->
<svg height="689.262656pt" version="1.1" viewBox="0 0 1183.307375 689.262656" width="1183.307375pt" xmlns="http://www.w3.org/2000/svg" xmlns:xlink="http://www.w3.org/1999/xlink">
 <metadata>
  <rdf:RDF xmlns:cc="http://creativecommons.org/ns#" xmlns:dc="http://purl.org/dc/elements/1.1/" xmlns:rdf="http://www.w3.org/1999/02/22-rdf-syntax-ns#">
   <cc:Work>
    <dc:type rdf:resource="http://purl.org/dc/dcmitype/StillImage"/>
    <dc:date>2020-10-25T14:49:56.131792</dc:date>
    <dc:format>image/svg+xml</dc:format>
    <dc:creator>
     <cc:Agent>
      <dc:title>Matplotlib v3.3.2, https://matplotlib.org/</dc:title>
     </cc:Agent>
    </dc:creator>
   </cc:Work>
  </rdf:RDF>
 </metadata>
 <defs>
  <style type="text/css">*{stroke-linecap:butt;stroke-linejoin:round;}</style>
 </defs>
 <g id="figure_1">
  <g id="patch_1">
   <path d="M 0 689.262656 
L 1183.307375 689.262656 
L 1183.307375 0 
L 0 0 
z
" style="fill:#ffffff;"/>
  </g>
  <g id="axes_1">
   <g id="patch_2">
    <path d="M 56.679375 646.788281 
L 1128.039375 646.788281 
L 1128.039375 24.708281 
L 56.679375 24.708281 
z
" style="fill:#ffffff;"/>
   </g>
   <g id="patch_3">
    <path clip-path="url(#pba8c0462c3)" d="M 66.599375 646.788281 
L 86.439375 646.788281 
L 86.439375 540.412601 
L 66.599375 540.412601 
z
" style="fill:#3f5e99;stroke:#000000;stroke-linejoin:miter;"/>
   </g>
   <g id="patch_4">
    <path clip-path="url(#pba8c0462c3)" d="M 106.279375 646.788281 
L 126.119375 646.788281 
L 126.119375 556.142338 
L 106.279375 556.142338 
z
" style="fill:#3f5e99;stroke:#000000;stroke-linejoin:miter;"/>
   </g>
   <g id="patch_5">
    <path clip-path="url(#pba8c0462c3)" d="M 145.959375 646.788281 
L 165.799375 646.788281 
L 165.799375 522.105676 
L 145.959375 522.105676 
z
" style="fill:#3f5e99;stroke:#000000;stroke-linejoin:miter;"/>
   </g>
   <g id="patch_6">
    <path clip-path="url(#pba8c0462c3)" d="M 185.639375 646.788281 
L 205.479375 646.788281 
L 205.479375 547.166613 
L 185.639375 547.166613 
z
" style="fill:#3f5e99;stroke:#000000;stroke-linejoin:miter;"/>
   </g>
   <g id="patch_7">
    <path clip-path="url(#pba8c0462c3)" d="M 225.319375 646.788281 
L 245.159375 646.788281 
L 245.159375 591.156556 
L 225.319375 591.156556 
z
" style="fill:#f04a6b;stroke:#000000;stroke-linejoin:miter;"/>
   </g>
   <g id="patch_8">
    <path clip-path="url(#pba8c0462c3)" d="M 264.999375 646.788281 
L 284.839375 646.788281 
L 284.839375 382.137676 
L 264.999375 382.137676 
z
" style="fill:#3f5e99;stroke:#000000;stroke-linejoin:miter;"/>
   </g>
   <g id="patch_9">
    <path clip-path="url(#pba8c0462c3)" d="M 304.679375 646.788281 
L 324.519375 646.788281 
L 324.519375 571.960944 
L 304.679375 571.960944 
z
" style="fill:#3f5e99;stroke:#000000;stroke-linejoin:miter;"/>
   </g>
   <g id="patch_10">
    <path clip-path="url(#pba8c0462c3)" d="M 344.359375 646.788281 
L 364.199375 646.788281 
L 364.199375 528.05987 
L 344.359375 528.05987 
z
" style="fill:#3f5e99;stroke:#000000;stroke-linejoin:miter;"/>
   </g>
   <g id="patch_11">
    <path clip-path="url(#pba8c0462c3)" d="M 384.039375 646.788281 
L 403.879375 646.788281 
L 403.879375 508.064441 
L 384.039375 508.064441 
z
" style="fill:#3f5e99;stroke:#000000;stroke-linejoin:miter;"/>
   </g>
   <g id="patch_12">
    <path clip-path="url(#pba8c0462c3)" d="M 423.719375 646.788281 
L 443.559375 646.788281 
L 443.559375 488.069013 
L 423.719375 488.069013 
z
" style="fill:#3f5e99;stroke:#000000;stroke-linejoin:miter;"/>
   </g>
   <g id="patch_13">
    <path clip-path="url(#pba8c0462c3)" d="M 463.399375 646.788281 
L 483.239375 646.788281 
L 483.239375 489.846384 
L 463.399375 489.846384 
z
" style="fill:#3f5e99;stroke:#000000;stroke-linejoin:miter;"/>
   </g>
   <g id="patch_14">
    <path clip-path="url(#pba8c0462c3)" d="M 503.079375 646.788281 
L 522.919375 646.788281 
L 522.919375 545.566978 
L 503.079375 545.566978 
z
" style="fill:#3f5e99;stroke:#000000;stroke-linejoin:miter;"/>
   </g>
   <g id="patch_15">
    <path clip-path="url(#pba8c0462c3)" d="M 542.759375 646.788281 
L 562.599375 646.788281 
L 562.599375 331.393721 
L 542.759375 331.393721 
z
" style="fill:#3f5e99;stroke:#000000;stroke-linejoin:miter;"/>
   </g>
   <g id="patch_16">
    <path clip-path="url(#pba8c0462c3)" d="M 582.439375 646.788281 
L 602.279375 646.788281 
L 602.279375 480.337447 
L 582.439375 480.337447 
z
" style="fill:#3f5e99;stroke:#000000;stroke-linejoin:miter;"/>
   </g>
   <g id="patch_17">
    <path clip-path="url(#pba8c0462c3)" d="M 622.119375 646.788281 
L 641.959375 646.788281 
L 641.959375 440.879801 
L 622.119375 440.879801 
z
" style="fill:#3f5e99;stroke:#000000;stroke-linejoin:miter;"/>
   </g>
   <g id="patch_18">
    <path clip-path="url(#pba8c0462c3)" d="M 661.799375 646.788281 
L 681.639375 646.788281 
L 681.639375 318.41891 
L 661.799375 318.41891 
z
" style="fill:#3f5e99;stroke:#000000;stroke-linejoin:miter;"/>
   </g>
   <g id="patch_19">
    <path clip-path="url(#pba8c0462c3)" d="M 701.479375 646.788281 
L 721.319375 646.788281 
L 721.319375 431.281996 
L 701.479375 431.281996 
z
" style="fill:#3f5e99;stroke:#000000;stroke-linejoin:miter;"/>
   </g>
   <g id="patch_20">
    <path clip-path="url(#pba8c0462c3)" d="M 741.159375 646.788281 
L 760.999375 646.788281 
L 760.999375 518.017721 
L 741.159375 518.017721 
z
" style="fill:#3f5e99;stroke:#000000;stroke-linejoin:miter;"/>
   </g>
   <g id="patch_21">
    <path clip-path="url(#pba8c0462c3)" d="M 780.839375 646.788281 
L 800.679375 646.788281 
L 800.679375 430.571047 
L 780.839375 430.571047 
z
" style="fill:#3f5e99;stroke:#000000;stroke-linejoin:miter;"/>
   </g>
   <g id="patch_22">
    <path clip-path="url(#pba8c0462c3)" d="M 820.519375 646.788281 
L 840.359375 646.788281 
L 840.359375 293.891184 
L 820.519375 293.891184 
z
" style="fill:#3f5e99;stroke:#000000;stroke-linejoin:miter;"/>
   </g>
   <g id="patch_23">
    <path clip-path="url(#pba8c0462c3)" d="M 860.199375 646.788281 
L 880.039375 646.788281 
L 880.039375 297.090453 
L 860.199375 297.090453 
z
" style="fill:#3f5e99;stroke:#000000;stroke-linejoin:miter;"/>
   </g>
   <g id="patch_24">
    <path clip-path="url(#pba8c0462c3)" d="M 899.879375 646.788281 
L 919.719375 646.788281 
L 919.719375 339.836236 
L 899.879375 339.836236 
z
" style="fill:#3f5e99;stroke:#000000;stroke-linejoin:miter;"/>
   </g>
   <g id="patch_25">
    <path clip-path="url(#pba8c0462c3)" d="M 939.559375 646.788281 
L 959.399375 646.788281 
L 959.399375 223.685013 
L 939.559375 223.685013 
z
" style="fill:#3f5e99;stroke:#000000;stroke-linejoin:miter;"/>
   </g>
   <g id="patch_26">
    <path clip-path="url(#pba8c0462c3)" d="M 979.239375 646.788281 
L 999.079375 646.788281 
L 999.079375 434.036921 
L 979.239375 434.036921 
z
" style="fill:#3f5e99;stroke:#000000;stroke-linejoin:miter;"/>
   </g>
   <g id="patch_27">
    <path clip-path="url(#pba8c0462c3)" d="M 1018.919375 646.788281 
L 1038.759375 646.788281 
L 1038.759375 198.090864 
L 1018.919375 198.090864 
z
" style="fill:#3f5e99;stroke:#000000;stroke-linejoin:miter;"/>
   </g>
   <g id="patch_28">
    <path clip-path="url(#pba8c0462c3)" d="M 1058.599375 646.788281 
L 1078.439375 646.788281 
L 1078.439375 435.547687 
L 1058.599375 435.547687 
z
" style="fill:#3f5e99;stroke:#000000;stroke-linejoin:miter;"/>
   </g>
   <g id="patch_29">
    <path clip-path="url(#pba8c0462c3)" d="M 1098.279375 646.788281 
L 1118.119375 646.788281 
L 1118.119375 75.541104 
L 1098.279375 75.541104 
z
" style="fill:#3ab08b;stroke:#000000;stroke-linejoin:miter;"/>
   </g>
   <g id="patch_30">
    <path d="M 56.679375 646.788281 
L 56.679375 24.708281 
" style="fill:none;stroke:#000000;stroke-linecap:square;stroke-linejoin:miter;"/>
   </g>
   <g id="patch_31">
    <path d="M 56.679375 646.788281 
L 1128.039375 646.788281 
" style="fill:none;stroke:#000000;stroke-linecap:square;stroke-linejoin:miter;"/>
   </g>
   <g id="matplotlib.axis_1">
    <g id="xtick_1">
     <g id="line2d_1">
      <defs>
       <path d="M 0 0 
L 0 -4 
" id="m4ba5ac794a" style="stroke:#000000;stroke-width:0.5;"/>
      </defs>
      <g>
       <use style="stroke:#000000;stroke-width:0.5;" x="76.519375" xlink:href="#m4ba5ac794a" y="646.788281"/>
      </g>
     </g>
     <g id="text_1">
      <!-- 1 -->
      <g transform="translate(74.641562 659.617656)scale(0.12 -0.12)">
       <defs>
        <path d="M 1.703125 40.625 
L 1.46875 42.671875 
Q 11.28125 44.140625 21.09375 45.90625 
L 21.53125 45.515625 
Q 20.953125 36.96875 20.953125 27.875 
L 20.953125 15.96875 
Q 20.953125 9.515625 21.046875 5.5625 
Q 21.09375 4.15625 22.40625 3.8125 
L 30.171875 1.8125 
L 30.328125 -0.140625 
Q 21.296875 0 16.5 0 
Q 11.71875 0 2.734375 -0.140625 
L 2.546875 1.8125 
L 10.5 3.8125 
Q 11.765625 4.15625 11.8125 5.375 
Q 11.921875 9.328125 11.921875 14.15625 
L 11.921875 22.265625 
Q 11.921875 32.078125 11.71875 39.65625 
z
" id="Constantia-49"/>
       </defs>
       <use xlink:href="#Constantia-49"/>
      </g>
     </g>
    </g>
    <g id="xtick_2">
     <g id="line2d_2">
      <g>
       <use style="stroke:#000000;stroke-width:0.5;" x="116.199375" xlink:href="#m4ba5ac794a" y="646.788281"/>
      </g>
     </g>
     <g id="text_2">
      <!-- 2 -->
      <g transform="translate(113.293125 659.617656)scale(0.12 -0.12)">
       <defs>
        <path d="M 42.390625 15.484375 
L 44.53125 15.875 
L 43.5625 0.203125 
L 43.21875 -0.140625 
Q 33.25 0 22.359375 0 
Q 12.25 0 3.765625 -0.140625 
L 3.421875 3.859375 
Q 8.015625 6.84375 11.671875 9.375 
Q 15.328125 11.921875 18.015625 14.109375 
Q 20.703125 16.265625 22.75 18.21875 
Q 24.8125 20.171875 26.203125 22.09375 
Q 27.59375 24.03125 28.3125 26.03125 
Q 29.046875 28.03125 29.046875 30.21875 
Q 29.046875 34.71875 25.78125 37.34375 
Q 22.515625 39.984375 17.78125 39.984375 
Q 12.203125 39.984375 6.546875 36.96875 
L 4.6875 40.1875 
Q 13.8125 46.390625 23 46.390625 
Q 29.890625 46.390625 34.453125 43.046875 
Q 39.015625 39.703125 39.015625 33.734375 
Q 39.015625 30.03125 37.34375 26.828125 
Q 35.6875 23.640625 32.515625 20.5625 
Q 29.34375 17.484375 24.75 14.328125 
Q 20.171875 11.1875 14.265625 7.671875 
L 14.3125 7.421875 
L 38.578125 7.421875 
z
" id="Constantia-50"/>
       </defs>
       <use xlink:href="#Constantia-50"/>
      </g>
     </g>
    </g>
    <g id="xtick_3">
     <g id="line2d_3">
      <g>
       <use style="stroke:#000000;stroke-width:0.5;" x="155.879375" xlink:href="#m4ba5ac794a" y="646.788281"/>
      </g>
     </g>
     <g id="text_3">
      <!-- 3 -->
      <g transform="translate(153.14 659.617656)scale(0.12 -0.12)">
       <defs>
        <path d="M 10.25 16.21875 
Q 19 17.140625 24.265625 20.75 
Q 29.546875 24.359375 29.546875 30.125 
Q 29.546875 34.71875 26.09375 37.59375 
Q 22.65625 40.484375 17.390625 40.484375 
Q 10.5 40.484375 3.46875 36.8125 
L 1.46875 40.046875 
Q 11.140625 46.390625 21.34375 46.390625 
Q 28.90625 46.390625 34.078125 42.75 
Q 39.265625 39.109375 39.265625 33.203125 
Q 39.265625 22.359375 23.25 17 
L 23.25 16.796875 
Q 32.421875 16.453125 37.5625 12.15625 
Q 42.71875 7.859375 42.71875 1.609375 
Q 42.71875 -8.5 31.96875 -15.140625 
Q 21.234375 -21.78125 1.03125 -22.46875 
L 0.484375 -18.84375 
Q 16.546875 -17.78125 24.53125 -12.625 
Q 32.515625 -7.46875 32.515625 0.25 
Q 32.515625 6.296875 28.359375 9.765625 
Q 24.21875 13.234375 16.84375 13.234375 
Q 13.96875 13.234375 10.59375 12.640625 
z
" id="Constantia-51"/>
       </defs>
       <use xlink:href="#Constantia-51"/>
      </g>
     </g>
    </g>
    <g id="xtick_4">
     <g id="line2d_4">
      <g>
       <use style="stroke:#000000;stroke-width:0.5;" x="195.559375" xlink:href="#m4ba5ac794a" y="646.788281"/>
      </g>
     </g>
     <g id="text_4">
      <!-- 5 -->
      <g transform="translate(192.705625 659.617656)scale(0.12 -0.12)">
       <defs>
        <path d="M 6.453125 16.796875 
L 9.28125 45.3125 
Q 15.375 45.125 23.875 45.125 
Q 33.6875 45.125 42.28125 45.3125 
L 42.578125 44.921875 
L 41.359375 36.859375 
L 13.1875 37.546875 
L 11.8125 23.78125 
Q 15.96875 24.46875 19.625 24.46875 
Q 30.8125 24.46875 37.46875 19.046875 
Q 44.140625 13.625 44.140625 4.15625 
Q 44.140625 -7.953125 32.984375 -15.15625 
Q 21.828125 -22.359375 4.890625 -22.46875 
L 4.390625 -18.84375 
Q 17.71875 -18.359375 26.09375 -12.796875 
Q 34.46875 -7.234375 34.46875 2.203125 
Q 34.46875 9.46875 29.5625 13.46875 
Q 24.65625 17.484375 15.765625 17.484375 
Q 11.328125 17.484375 6.734375 16.453125 
z
" id="Constantia-53"/>
       </defs>
       <use xlink:href="#Constantia-53"/>
      </g>
     </g>
    </g>
    <g id="xtick_5">
     <g id="line2d_5">
      <g>
       <use style="stroke:#000000;stroke-width:0.5;" x="235.239375" xlink:href="#m4ba5ac794a" y="646.788281"/>
      </g>
     </g>
     <g id="text_5">
      <!-- 6 -->
      <g transform="translate(231.992812 659.617656)scale(0.12 -0.12)">
       <defs>
        <path d="M 47.125 64.546875 
Q 32.03125 61.53125 24.515625 53.9375 
Q 17 46.34375 14.796875 35.25 
L 14.890625 35.203125 
Q 20.796875 41.65625 30.21875 41.65625 
Q 38.96875 41.65625 44.9375 35.796875 
Q 50.921875 29.9375 50.921875 20.90625 
Q 50.921875 11.328125 44.375 5.03125 
Q 37.84375 -1.265625 28.125 -1.265625 
Q 17.390625 -1.265625 10.75 6.5 
Q 4.109375 14.265625 4.109375 26.515625 
Q 4.109375 41.546875 14.453125 53.125 
Q 24.8125 64.703125 46.4375 68.015625 
z
M 41.109375 18.0625 
Q 41.109375 26.609375 37.15625 31.953125 
Q 33.203125 37.3125 27.046875 37.3125 
Q 21.4375 37.3125 17.921875 33.328125 
Q 14.40625 29.34375 14.40625 22.515625 
Q 14.40625 14.15625 18.5 8.203125 
Q 22.609375 2.25 28.953125 2.25 
Q 34.46875 2.25 37.78125 6.8125 
Q 41.109375 11.375 41.109375 18.0625 
z
" id="Constantia-54"/>
       </defs>
       <use xlink:href="#Constantia-54"/>
      </g>
     </g>
    </g>
    <g id="xtick_6">
     <g id="line2d_6">
      <g>
       <use style="stroke:#000000;stroke-width:0.5;" x="274.919375" xlink:href="#m4ba5ac794a" y="646.788281"/>
      </g>
     </g>
     <g id="text_6">
      <!-- 7 -->
      <g transform="translate(272.01875 659.617656)scale(0.12 -0.12)">
       <defs>
        <path d="M 10.9375 -19.671875 
L 39.5 37.546875 
L 8.296875 37.546875 
L 5.46875 27.875 
L 3.515625 27.546875 
L 2.6875 44.921875 
L 3.03125 45.3125 
Q 8.796875 45.21875 14.265625 45.171875 
Q 19.734375 45.125 25 45.125 
L 27.734375 45.125 
Q 33.015625 45.125 37.84375 45.171875 
Q 42.671875 45.21875 47.171875 45.3125 
L 47.359375 43.21875 
Q 44.828125 37.984375 42.265625 32.46875 
Q 39.703125 26.953125 37.234375 21.3125 
Q 34.765625 15.671875 32.421875 10.125 
Q 30.078125 4.59375 28.03125 -0.65625 
Q 25.984375 -5.90625 24.25 -10.6875 
Q 22.515625 -15.484375 21.234375 -19.53125 
L 11.1875 -20.015625 
z
" id="Constantia-55"/>
       </defs>
       <use xlink:href="#Constantia-55"/>
      </g>
     </g>
    </g>
    <g id="xtick_7">
     <g id="line2d_7">
      <g>
       <use style="stroke:#000000;stroke-width:0.5;" x="314.599375" xlink:href="#m4ba5ac794a" y="646.788281"/>
      </g>
     </g>
     <g id="text_7">
      <!-- 8 -->
      <g transform="translate(311.38 659.617656)scale(0.12 -0.12)">
       <defs>
        <path d="M 19.09375 34.234375 
Q 12.0625 37.890625 9.5 41.546875 
Q 6.9375 45.21875 6.9375 50.09375 
Q 6.9375 57.421875 12.96875 62.171875 
Q 19 66.9375 27.984375 66.9375 
Q 36.078125 66.9375 41.375 63.125 
Q 46.6875 59.328125 46.6875 53.265625 
Q 46.6875 44.234375 33.84375 36.765625 
Q 43.609375 32.03125 47.09375 27.75 
Q 50.59375 23.484375 50.59375 17.578125 
Q 50.59375 9.421875 43.40625 4.078125 
Q 36.234375 -1.265625 26.265625 -1.265625 
Q 16.265625 -1.265625 9.90625 3.296875 
Q 3.5625 7.859375 3.5625 15.4375 
Q 3.5625 26.8125 19.09375 34.234375 
z
M 22.5625 32.421875 
Q 12.546875 26.703125 12.546875 16.609375 
Q 12.546875 10.203125 16.375 6.421875 
Q 20.21875 2.640625 26.90625 2.640625 
Q 33.015625 2.640625 37.140625 6.03125 
Q 41.265625 9.421875 41.265625 14.84375 
Q 41.265625 20.015625 37.5 23.75 
Q 33.734375 27.484375 22.5625 32.421875 
z
M 30.21875 38.625 
Q 37.984375 44.234375 37.984375 51.8125 
Q 37.984375 57.234375 34.859375 60.1875 
Q 31.734375 63.140625 26.609375 63.140625 
Q 21.4375 63.140625 18.140625 60.453125 
Q 14.84375 57.765625 14.84375 53.125 
Q 14.84375 48.484375 18.40625 45.40625 
Q 21.96875 42.328125 30.21875 38.625 
z
" id="Constantia-56"/>
       </defs>
       <use xlink:href="#Constantia-56"/>
      </g>
     </g>
    </g>
    <g id="xtick_8">
     <g id="line2d_8">
      <g>
       <use style="stroke:#000000;stroke-width:0.5;" x="354.279375" xlink:href="#m4ba5ac794a" y="646.788281"/>
      </g>
     </g>
     <g id="text_8">
      <!-- 9 -->
      <g transform="translate(351.000937 659.617656)scale(0.12 -0.12)">
       <defs>
        <path d="M 8.640625 -19 
Q 20.90625 -16.796875 28.984375 -9.671875 
Q 37.0625 -2.546875 40.375 10.109375 
L 40.28125 10.15625 
Q 34.578125 3.65625 25.4375 3.65625 
Q 16.3125 3.65625 10.234375 9.484375 
Q 4.15625 15.328125 4.15625 24.3125 
Q 4.15625 33.6875 10.796875 40.03125 
Q 17.4375 46.390625 27.046875 46.390625 
Q 37.546875 46.390625 44.265625 38.75 
Q 50.984375 31.109375 50.984375 19.1875 
Q 50.984375 2.828125 39.578125 -8.59375 
Q 28.171875 -20.015625 9.328125 -22.46875 
z
M 14.0625 27.25 
Q 14.0625 18.5625 18.015625 13.28125 
Q 21.96875 8.015625 28.125 8.015625 
Q 34.234375 8.015625 37.453125 11.9375 
Q 40.671875 15.875 40.671875 22.90625 
Q 40.671875 31.453125 36.421875 37.15625 
Q 32.171875 42.875 26.21875 42.875 
Q 20.953125 42.875 17.5 38.640625 
Q 14.0625 34.421875 14.0625 27.25 
z
" id="Constantia-57"/>
       </defs>
       <use xlink:href="#Constantia-57"/>
      </g>
     </g>
    </g>
    <g id="xtick_9">
     <g id="line2d_9">
      <g>
       <use style="stroke:#000000;stroke-width:0.5;" x="393.959375" xlink:href="#m4ba5ac794a" y="646.788281"/>
      </g>
     </g>
     <g id="text_9">
      <!-- 10 -->
      <g transform="translate(388.85 659.617656)scale(0.12 -0.12)">
       <defs>
        <path d="M 13.671875 23.296875 
Q 13.671875 13.625 17.15625 8.109375 
Q 20.65625 2.59375 27.203125 2.59375 
Q 33.84375 2.59375 37.015625 7.515625 
Q 40.1875 12.453125 40.1875 22.609375 
Q 40.1875 32.5625 36.71875 37.609375 
Q 33.25 42.671875 26.65625 42.671875 
Q 19.921875 42.671875 16.796875 37.84375 
Q 13.671875 33.015625 13.671875 23.296875 
z
M 49.953125 23.6875 
Q 49.953125 12.25 43.4375 5.484375 
Q 36.921875 -1.265625 26.421875 -1.265625 
Q 16.3125 -1.265625 10.109375 4.9375 
Q 3.90625 11.140625 3.90625 22.015625 
Q 3.90625 33.203125 10.390625 39.796875 
Q 16.890625 46.390625 27.484375 46.390625 
Q 37.796875 46.390625 43.875 40.375 
Q 49.953125 34.375 49.953125 23.6875 
z
" id="Constantia-48"/>
       </defs>
       <use xlink:href="#Constantia-49"/>
       <use x="31.298828" xlink:href="#Constantia-48"/>
      </g>
     </g>
    </g>
    <g id="xtick_10">
     <g id="line2d_10">
      <g>
       <use style="stroke:#000000;stroke-width:0.5;" x="433.639375" xlink:href="#m4ba5ac794a" y="646.788281"/>
      </g>
     </g>
     <g id="text_10">
      <!-- 11 -->
      <g transform="translate(429.88375 659.617656)scale(0.12 -0.12)">
       <use xlink:href="#Constantia-49"/>
       <use x="31.298828" xlink:href="#Constantia-49"/>
      </g>
     </g>
    </g>
    <g id="xtick_11">
     <g id="line2d_11">
      <g>
       <use style="stroke:#000000;stroke-width:0.5;" x="473.319375" xlink:href="#m4ba5ac794a" y="646.788281"/>
      </g>
     </g>
     <g id="text_11">
      <!-- 12 -->
      <g transform="translate(468.535312 659.617656)scale(0.12 -0.12)">
       <use xlink:href="#Constantia-49"/>
       <use x="31.298828" xlink:href="#Constantia-50"/>
      </g>
     </g>
    </g>
    <g id="xtick_12">
     <g id="line2d_12">
      <g>
       <use style="stroke:#000000;stroke-width:0.5;" x="512.999375" xlink:href="#m4ba5ac794a" y="646.788281"/>
      </g>
     </g>
     <g id="text_12">
      <!-- 13 -->
      <g transform="translate(508.382187 659.617656)scale(0.12 -0.12)">
       <use xlink:href="#Constantia-49"/>
       <use x="31.298828" xlink:href="#Constantia-51"/>
      </g>
     </g>
    </g>
    <g id="xtick_13">
     <g id="line2d_13">
      <g>
       <use style="stroke:#000000;stroke-width:0.5;" x="552.679375" xlink:href="#m4ba5ac794a" y="646.788281"/>
      </g>
     </g>
     <g id="text_13">
      <!-- 14 -->
      <g transform="translate(547.616875 659.617656)scale(0.12 -0.12)">
       <defs>
        <path d="M 30.953125 35.015625 
Q 25.4375 28.8125 19.890625 21.78125 
Q 14.359375 14.75 8.984375 7.28125 
L 30.953125 7.28125 
z
M 39.984375 -5.71875 
Q 39.984375 -12.546875 40.234375 -19.53125 
Q 35.546875 -20.015625 31.34375 -20.796875 
L 30.859375 -20.40625 
Q 30.953125 -13.578125 30.953125 -6.5 
L 30.953125 2.4375 
L 18.796875 2.4375 
Q 12.109375 2.4375 2.546875 2.296875 
L 2.203125 5.859375 
Q 9.90625 16.0625 18.078125 26.234375 
Q 26.265625 36.421875 34.578125 46.046875 
L 40.28125 46.390625 
Q 39.984375 35.453125 39.984375 25.984375 
L 39.984375 7.28125 
L 51.171875 7.28125 
L 51.375 2.296875 
Q 46 2.4375 39.984375 2.4375 
z
" id="Constantia-52"/>
       </defs>
       <use xlink:href="#Constantia-49"/>
       <use x="31.298828" xlink:href="#Constantia-52"/>
      </g>
     </g>
    </g>
    <g id="xtick_14">
     <g id="line2d_14">
      <g>
       <use style="stroke:#000000;stroke-width:0.5;" x="592.359375" xlink:href="#m4ba5ac794a" y="646.788281"/>
      </g>
     </g>
     <g id="text_14">
      <!-- 15 -->
      <g transform="translate(587.627812 659.617656)scale(0.12 -0.12)">
       <use xlink:href="#Constantia-49"/>
       <use x="31.298828" xlink:href="#Constantia-53"/>
      </g>
     </g>
    </g>
    <g id="xtick_15">
     <g id="line2d_15">
      <g>
       <use style="stroke:#000000;stroke-width:0.5;" x="632.039375" xlink:href="#m4ba5ac794a" y="646.788281"/>
      </g>
     </g>
     <g id="text_15">
      <!-- 16 -->
      <g transform="translate(626.915 659.617656)scale(0.12 -0.12)">
       <use xlink:href="#Constantia-49"/>
       <use x="31.298828" xlink:href="#Constantia-54"/>
      </g>
     </g>
    </g>
    <g id="xtick_16">
     <g id="line2d_16">
      <g>
       <use style="stroke:#000000;stroke-width:0.5;" x="671.719375" xlink:href="#m4ba5ac794a" y="646.788281"/>
      </g>
     </g>
     <g id="text_16">
      <!-- 18 -->
      <g transform="translate(666.622187 659.617656)scale(0.12 -0.12)">
       <use xlink:href="#Constantia-49"/>
       <use x="31.298828" xlink:href="#Constantia-56"/>
      </g>
     </g>
    </g>
    <g id="xtick_17">
     <g id="line2d_17">
      <g>
       <use style="stroke:#000000;stroke-width:0.5;" x="711.399375" xlink:href="#m4ba5ac794a" y="646.788281"/>
      </g>
     </g>
     <g id="text_17">
      <!-- 19 -->
      <g transform="translate(706.243125 659.617656)scale(0.12 -0.12)">
       <use xlink:href="#Constantia-49"/>
       <use x="31.298828" xlink:href="#Constantia-57"/>
      </g>
     </g>
    </g>
    <g id="xtick_18">
     <g id="line2d_18">
      <g>
       <use style="stroke:#000000;stroke-width:0.5;" x="751.079375" xlink:href="#m4ba5ac794a" y="646.788281"/>
      </g>
     </g>
     <g id="text_18">
      <!-- 20 -->
      <g transform="translate(744.941562 659.617656)scale(0.12 -0.12)">
       <use xlink:href="#Constantia-50"/>
       <use x="48.4375" xlink:href="#Constantia-48"/>
      </g>
     </g>
    </g>
    <g id="xtick_19">
     <g id="line2d_19">
      <g>
       <use style="stroke:#000000;stroke-width:0.5;" x="790.759375" xlink:href="#m4ba5ac794a" y="646.788281"/>
      </g>
     </g>
     <g id="text_19">
      <!-- 21 -->
      <g transform="translate(785.975312 659.617656)scale(0.12 -0.12)">
       <use xlink:href="#Constantia-50"/>
       <use x="48.4375" xlink:href="#Constantia-49"/>
      </g>
     </g>
    </g>
    <g id="xtick_20">
     <g id="line2d_20">
      <g>
       <use style="stroke:#000000;stroke-width:0.5;" x="830.439375" xlink:href="#m4ba5ac794a" y="646.788281"/>
      </g>
     </g>
     <g id="text_20">
      <!-- 22 -->
      <g transform="translate(824.626875 659.617656)scale(0.12 -0.12)">
       <use xlink:href="#Constantia-50"/>
       <use x="48.4375" xlink:href="#Constantia-50"/>
      </g>
     </g>
    </g>
    <g id="xtick_21">
     <g id="line2d_21">
      <g>
       <use style="stroke:#000000;stroke-width:0.5;" x="870.119375" xlink:href="#m4ba5ac794a" y="646.788281"/>
      </g>
     </g>
     <g id="text_21">
      <!-- 23 -->
      <g transform="translate(864.47375 659.617656)scale(0.12 -0.12)">
       <use xlink:href="#Constantia-50"/>
       <use x="48.4375" xlink:href="#Constantia-51"/>
      </g>
     </g>
    </g>
    <g id="xtick_22">
     <g id="line2d_22">
      <g>
       <use style="stroke:#000000;stroke-width:0.5;" x="909.799375" xlink:href="#m4ba5ac794a" y="646.788281"/>
      </g>
     </g>
     <g id="text_22">
      <!-- 24 -->
      <g transform="translate(903.708437 659.617656)scale(0.12 -0.12)">
       <use xlink:href="#Constantia-50"/>
       <use x="48.4375" xlink:href="#Constantia-52"/>
      </g>
     </g>
    </g>
    <g id="xtick_23">
     <g id="line2d_23">
      <g>
       <use style="stroke:#000000;stroke-width:0.5;" x="949.479375" xlink:href="#m4ba5ac794a" y="646.788281"/>
      </g>
     </g>
     <g id="text_23">
      <!-- 25 -->
      <g transform="translate(943.719375 659.617656)scale(0.12 -0.12)">
       <use xlink:href="#Constantia-50"/>
       <use x="48.4375" xlink:href="#Constantia-53"/>
      </g>
     </g>
    </g>
    <g id="xtick_24">
     <g id="line2d_24">
      <g>
       <use style="stroke:#000000;stroke-width:0.5;" x="989.159375" xlink:href="#m4ba5ac794a" y="646.788281"/>
      </g>
     </g>
     <g id="text_24">
      <!-- 27 -->
      <g transform="translate(983.3525 659.617656)scale(0.12 -0.12)">
       <use xlink:href="#Constantia-50"/>
       <use x="48.4375" xlink:href="#Constantia-55"/>
      </g>
     </g>
    </g>
    <g id="xtick_25">
     <g id="line2d_25">
      <g>
       <use style="stroke:#000000;stroke-width:0.5;" x="1028.839375" xlink:href="#m4ba5ac794a" y="646.788281"/>
      </g>
     </g>
     <g id="text_25">
      <!-- 28 -->
      <g transform="translate(1022.71375 659.617656)scale(0.12 -0.12)">
       <use xlink:href="#Constantia-50"/>
       <use x="48.4375" xlink:href="#Constantia-56"/>
      </g>
     </g>
    </g>
    <g id="xtick_26">
     <g id="line2d_26">
      <g>
       <use style="stroke:#000000;stroke-width:0.5;" x="1068.519375" xlink:href="#m4ba5ac794a" y="646.788281"/>
      </g>
     </g>
     <g id="text_26">
      <!-- 29 -->
      <g transform="translate(1062.334687 659.617656)scale(0.12 -0.12)">
       <use xlink:href="#Constantia-50"/>
       <use x="48.4375" xlink:href="#Constantia-57"/>
      </g>
     </g>
    </g>
    <g id="xtick_27">
     <g id="line2d_27">
      <g>
       <use style="stroke:#000000;stroke-width:0.5;" x="1108.199375" xlink:href="#m4ba5ac794a" y="646.788281"/>
      </g>
     </g>
     <g id="text_27">
      <!-- 30 -->
      <g transform="translate(1102.228437 659.617656)scale(0.12 -0.12)">
       <use xlink:href="#Constantia-51"/>
       <use x="45.654297" xlink:href="#Constantia-48"/>
      </g>
     </g>
    </g>
    <g id="text_28">
     <!-- Days -->
     <g transform="translate(575.248828 678.422812)scale(0.15 -0.15)">
      <defs>
       <path d="M 17.484375 0 
Q 11.1875 0 4.5 -0.140625 
L 4.25 2.296875 
L 10.796875 4.109375 
Q 12.0625 4.5 12.109375 5.609375 
Q 12.15625 7.5625 12.171875 9.984375 
Q 12.203125 12.40625 12.203125 15.328125 
L 12.203125 54.25 
Q 12.203125 56.6875 12.171875 58.6875 
Q 12.15625 60.6875 12.109375 62.359375 
Q 12.0625 63.625 10.9375 63.96875 
L 4.390625 65.875 
L 4.25 68.359375 
Q 11.078125 68.171875 17.328125 68.171875 
Q 22.609375 68.171875 27.4375 68.40625 
Q 32.28125 68.65625 37.453125 68.65625 
Q 55.671875 68.65625 64.84375 60.859375 
Q 74.03125 53.078125 74.03125 37.75 
Q 74.03125 19.671875 63.84375 9.6875 
Q 53.65625 -0.296875 35.203125 -0.296875 
Q 30.125 -0.296875 26.171875 -0.140625 
Q 22.21875 0 17.484375 0 
z
M 26.859375 4.984375 
Q 29.203125 4.546875 31.4375 4.421875 
Q 33.6875 4.296875 35.984375 4.296875 
Q 46.578125 4.296875 52.09375 11.765625 
Q 57.625 19.234375 57.625 34.515625 
Q 57.625 49.421875 52.34375 56.609375 
Q 47.078125 63.8125 35.75 63.8125 
Q 31.546875 63.8125 26.859375 63.421875 
z
" id="Constantia-Bold-68"/>
       <path d="M 31 21.734375 
Q 23.34375 21.734375 20.0625 19.78125 
Q 16.796875 17.828125 16.796875 13.09375 
Q 16.796875 8.796875 19.109375 6.953125 
Q 21.4375 5.125 24.609375 5.125 
Q 28.21875 5.125 30.90625 6.984375 
z
M 7.125 41.890625 
Q 17.53125 46.625 27.15625 46.625 
Q 35.9375 46.625 40.296875 42.6875 
Q 44.671875 38.765625 44.625 31.390625 
L 44.390625 11.078125 
Q 44.28125 8.59375 44.46875 7.078125 
Q 44.671875 5.5625 45.375 4.75 
Q 46.09375 3.953125 47.484375 3.609375 
Q 48.875 3.265625 51.515625 3.21875 
L 51.8125 0.984375 
Q 44.96875 -1.375 40.046875 -1.375 
Q 33.40625 -1.375 31.296875 3.859375 
Q 25.09375 -1.375 18.171875 -1.375 
Q 11.375 -1.375 6.984375 2.015625 
Q 2.59375 5.421875 2.59375 11.578125 
Q 2.59375 19.234375 9.6875 22.796875 
Q 16.796875 26.375 31 26.375 
L 31.0625 30.03125 
Q 31.109375 35.25 28.546875 37.71875 
Q 25.984375 40.1875 20.5625 40.1875 
Q 15.53125 40.1875 8.5 37.984375 
z
" id="Constantia-Bold-97"/>
       <path d="M -1.765625 45.515625 
Q 4.734375 45.359375 10.015625 45.359375 
Q 16.84375 45.359375 24.5625 45.515625 
L 24.8125 43.171875 
L 18.703125 41.609375 
Q 20.609375 36.8125 22.3125 32.46875 
Q 24.03125 28.125 26.859375 21.484375 
Q 28.125 18.703125 29.59375 14.984375 
Q 31.0625 18.796875 32.5625 22.5625 
Q 36.53125 32.953125 39.84375 41.703125 
L 34.765625 43.171875 
L 34.515625 45.515625 
Q 38.328125 45.359375 43.5 45.359375 
Q 48 45.359375 52.09375 45.515625 
L 52.34375 43.171875 
L 47.65625 41.890625 
Q 46.09375 41.40625 45.40625 39.890625 
Q 43.703125 35.84375 41.609375 30.90625 
Q 35.25 15.71875 31.734375 5.71875 
Q 29.5 -0.78125 27.6875 -7.546875 
Q 25.875 -14.3125 24.8125 -19.4375 
Q 24.265625 -22.21875 22.796875 -23.234375 
Q 21.34375 -24.265625 16.21875 -24.265625 
Q 10.84375 -24.265625 5.953125 -23.875 
L 5.71875 -21.625 
Q 11.375 -20.90625 13.625 -18.5 
Q 16.84375 -15.140625 23.53125 -0.34375 
L 23.875 0.59375 
L 21.296875 1.3125 
Q 12.5 23.046875 5.328125 39.84375 
Q 4.734375 41.359375 3.125 41.84375 
L -1.5625 43.171875 
z
" id="Constantia-Bold-121"/>
       <path d="M 31.9375 41.109375 
Q 28.859375 41.84375 25.296875 41.84375 
Q 20.84375 41.84375 18.03125 40.28125 
Q 15.234375 38.71875 15.234375 35.84375 
Q 15.234375 33.640625 16.453125 32.4375 
Q 17.671875 31.25 20.65625 30.21875 
L 28.46875 27.484375 
Q 35.453125 25.09375 38.671875 21.703125 
Q 41.890625 18.3125 41.890625 13.765625 
Q 41.890625 6.59375 35.859375 2.609375 
Q 29.828125 -1.375 20.015625 -1.375 
Q 11.8125 -1.375 3.90625 2 
Q 5.5625 8.546875 6.640625 14.703125 
L 9.125 15.09375 
L 12.640625 4.4375 
Q 15.625 3.421875 20.125 3.421875 
Q 24.359375 3.421875 27 5.03125 
Q 29.640625 6.640625 29.640625 9.515625 
Q 29.640625 11.921875 28.046875 13.546875 
Q 26.46875 15.1875 21.734375 16.796875 
L 15.765625 18.84375 
Q 10.0625 20.84375 7.171875 24.046875 
Q 4.296875 27.25 4.296875 31.890625 
Q 4.296875 39.015625 9.90625 42.8125 
Q 15.53125 46.625 25.390625 46.625 
Q 33.5 46.625 40.046875 44.234375 
Q 38.578125 37.84375 37.546875 32.125 
L 34.859375 31.734375 
z
" id="Constantia-Bold-115"/>
      </defs>
      <use xlink:href="#Constantia-Bold-68"/>
      <use x="77.705078" xlink:href="#Constantia-Bold-97"/>
      <use x="131.269531" xlink:href="#Constantia-Bold-121"/>
      <use x="182.490234" xlink:href="#Constantia-Bold-115"/>
     </g>
    </g>
   </g>
   <g id="matplotlib.axis_2">
    <g id="ytick_1">
     <g id="line2d_28">
      <defs>
       <path d="M 0 0 
L 4 0 
" id="m0ca660ed5e" style="stroke:#000000;stroke-width:0.5;"/>
      </defs>
      <g>
       <use style="stroke:#000000;stroke-width:0.5;" x="56.679375" xlink:href="#m0ca660ed5e" y="646.788281"/>
      </g>
     </g>
     <g id="text_29">
      <!-- 0 -->
      <g transform="translate(46.21625 649.778906)scale(0.12 -0.12)">
       <use xlink:href="#Constantia-48"/>
      </g>
     </g>
    </g>
    <g id="ytick_2">
     <g id="line2d_29">
      <g>
       <use style="stroke:#000000;stroke-width:0.5;" x="56.679375" xlink:href="#m0ca660ed5e" y="557.91971"/>
      </g>
     </g>
     <g id="text_30">
      <!-- 1000 -->
      <g transform="translate(29.534375 560.910335)scale(0.12 -0.12)">
       <use xlink:href="#Constantia-49"/>
       <use x="31.298828" xlink:href="#Constantia-48"/>
       <use x="85.15625" xlink:href="#Constantia-48"/>
       <use x="139.013672" xlink:href="#Constantia-48"/>
      </g>
     </g>
    </g>
    <g id="ytick_3">
     <g id="line2d_30">
      <g>
       <use style="stroke:#000000;stroke-width:0.5;" x="56.679375" xlink:href="#m0ca660ed5e" y="469.051138"/>
      </g>
     </g>
     <g id="text_31">
      <!-- 2000 -->
      <g transform="translate(27.4775 472.041763)scale(0.12 -0.12)">
       <use xlink:href="#Constantia-50"/>
       <use x="48.4375" xlink:href="#Constantia-48"/>
       <use x="102.294922" xlink:href="#Constantia-48"/>
       <use x="156.152344" xlink:href="#Constantia-48"/>
      </g>
     </g>
    </g>
    <g id="ytick_4">
     <g id="line2d_31">
      <g>
       <use style="stroke:#000000;stroke-width:0.5;" x="56.679375" xlink:href="#m0ca660ed5e" y="380.182567"/>
      </g>
     </g>
     <g id="text_32">
      <!-- 3000 -->
      <g transform="translate(27.81125 383.173192)scale(0.12 -0.12)">
       <use xlink:href="#Constantia-51"/>
       <use x="45.654297" xlink:href="#Constantia-48"/>
       <use x="99.511719" xlink:href="#Constantia-48"/>
       <use x="153.369141" xlink:href="#Constantia-48"/>
      </g>
     </g>
    </g>
    <g id="ytick_5">
     <g id="line2d_32">
      <g>
       <use style="stroke:#000000;stroke-width:0.5;" x="56.679375" xlink:href="#m0ca660ed5e" y="291.313996"/>
      </g>
     </g>
     <g id="text_33">
      <!-- 4000 -->
      <g transform="translate(26.920625 294.304621)scale(0.12 -0.12)">
       <use xlink:href="#Constantia-52"/>
       <use x="53.076172" xlink:href="#Constantia-48"/>
       <use x="106.933594" xlink:href="#Constantia-48"/>
       <use x="160.791016" xlink:href="#Constantia-48"/>
      </g>
     </g>
    </g>
    <g id="ytick_6">
     <g id="line2d_33">
      <g>
       <use style="stroke:#000000;stroke-width:0.5;" x="56.679375" xlink:href="#m0ca660ed5e" y="202.445424"/>
      </g>
     </g>
     <g id="text_34">
      <!-- 5000 -->
      <g transform="translate(27.5825 205.436049)scale(0.12 -0.12)">
       <use xlink:href="#Constantia-53"/>
       <use x="47.558594" xlink:href="#Constantia-48"/>
       <use x="101.416016" xlink:href="#Constantia-48"/>
       <use x="155.273438" xlink:href="#Constantia-48"/>
      </g>
     </g>
    </g>
    <g id="ytick_7">
     <g id="line2d_34">
      <g>
       <use style="stroke:#000000;stroke-width:0.5;" x="56.679375" xlink:href="#m0ca660ed5e" y="113.576853"/>
      </g>
     </g>
     <g id="text_35">
      <!-- 6000 -->
      <g transform="translate(26.796875 116.567478)scale(0.12 -0.12)">
       <use xlink:href="#Constantia-54"/>
       <use x="54.101562" xlink:href="#Constantia-48"/>
       <use x="107.958984" xlink:href="#Constantia-48"/>
       <use x="161.816406" xlink:href="#Constantia-48"/>
      </g>
     </g>
    </g>
    <g id="ytick_8">
     <g id="line2d_35">
      <g>
       <use style="stroke:#000000;stroke-width:0.5;" x="56.679375" xlink:href="#m0ca660ed5e" y="24.708281"/>
      </g>
     </g>
     <g id="text_36">
      <!-- 7000 -->
      <g transform="translate(27.48875 27.698906)scale(0.12 -0.12)">
       <use xlink:href="#Constantia-55"/>
       <use x="48.339844" xlink:href="#Constantia-48"/>
       <use x="102.197266" xlink:href="#Constantia-48"/>
       <use x="156.054688" xlink:href="#Constantia-48"/>
      </g>
     </g>
    </g>
    <g id="text_37">
     <!-- New Recovered -->
     <g transform="translate(18.236719 390.043594)rotate(-90)scale(0.15 -0.15)">
      <defs>
       <path d="M 17.484375 5.8125 
Q 17.53125 4.390625 18.703125 4.109375 
L 24.953125 2.390625 
L 25.09375 -0.140625 
Q 18.5 0 14.265625 0 
Q 10.0625 0 3.265625 -0.140625 
L 3.03125 2.296875 
L 9.578125 4.109375 
Q 10.84375 4.5 10.890625 5.609375 
Q 10.984375 9.578125 10.984375 15.328125 
L 10.984375 54.25 
Q 10.984375 59.125 10.890625 62.359375 
Q 10.84375 63.625 9.71875 63.96875 
L 3.171875 65.875 
L 3.03125 68.359375 
Q 9.859375 68.171875 13.53125 68.171875 
Q 18.3125 68.171875 22.609375 68.359375 
L 55.078125 27.6875 
Q 57.03125 25.25 59.078125 22.515625 
Q 58.984375 25.875 58.984375 29 
L 58.984375 54.4375 
Q 58.984375 59.1875 58.890625 62.59375 
Q 58.84375 63.71875 57.625 64.0625 
L 51.375 65.765625 
L 51.21875 68.359375 
Q 57.953125 68.171875 62.15625 68.171875 
Q 66.453125 68.171875 73.046875 68.359375 
L 73.296875 65.875 
L 66.65625 63.96875 
Q 65.53125 63.625 65.484375 62.359375 
Q 65.328125 59.125 65.328125 54.25 
L 65.328125 0 
L 59.71875 -0.53125 
L 21.234375 47.65625 
Q 19.53125 49.859375 17.28125 52.875 
Q 17.390625 49.265625 17.390625 46.234375 
L 17.390625 15.328125 
Q 17.390625 9.578125 17.484375 5.8125 
z
" id="Constantia-Bold-78"/>
       <path d="M 49.90625 3.21875 
Q 40.875 -1.375 30.859375 -1.375 
Q 18.953125 -1.375 11.40625 4.515625 
Q 3.859375 10.40625 3.859375 21.875 
Q 3.859375 32.8125 11.109375 39.71875 
Q 18.359375 46.625 29.59375 46.625 
Q 39.40625 46.625 44.75 41.328125 
Q 50.09375 36.03125 50.09375 26.703125 
Q 50.09375 25.296875 49.953125 23.78125 
L 18.75 23.78125 
Q 18.75 13.96875 23.5625 9.671875 
Q 28.375 5.375 39.359375 5.375 
Q 44.671875 5.375 49.515625 6.296875 
z
M 35.25 28.515625 
L 35.25 29.6875 
Q 35.25 36.328125 33.5625 39.203125 
Q 31.890625 42.09375 28.421875 42.09375 
Q 24.265625 42.09375 21.796875 38.109375 
Q 19.34375 34.125 18.953125 28.515625 
z
" id="Constantia-Bold-101"/>
       <path d="M 44.828125 45.609375 
Q 47.703125 36.96875 52.828125 21.921875 
Q 53.859375 18.890625 54.9375 15.4375 
Q 56.0625 18.796875 57.234375 21.921875 
Q 60.84375 31.640625 64.265625 41.703125 
L 59.1875 43.171875 
L 58.9375 45.515625 
Q 62.5 45.359375 67.875 45.359375 
Q 72.21875 45.359375 76.5625 45.515625 
L 76.8125 43.171875 
L 71.53125 41.75 
Q 70.3125 41.359375 69.625 39.84375 
Q 66.015625 31 61.109375 18.640625 
Q 56.203125 6.296875 53.71875 -0.203125 
L 47.46875 -0.875 
Q 44.875 6.25 40.484375 18.703125 
Q 39.203125 22.609375 38.140625 25.828125 
Q 36.859375 22.515625 35.546875 18.703125 
Q 30.8125 6.296875 28.265625 -0.203125 
L 22.015625 -0.875 
Q 19.4375 6.25 14.59375 18.578125 
Q 9.765625 30.90625 6.34375 39.59375 
Q 5.5625 41.3125 4.203125 41.796875 
L -0.6875 43.171875 
L -0.828125 45.515625 
Q 5.5625 45.359375 12.640625 45.359375 
Q 19.390625 45.359375 25.53125 45.515625 
L 25.828125 43.171875 
L 20.609375 41.703125 
Q 23.4375 32.671875 27.390625 21.921875 
Q 28.421875 18.890625 29.5 15.4375 
Q 30.609375 18.796875 31.84375 21.921875 
Q 36.625 35.359375 39.9375 45.171875 
z
" id="Constantia-Bold-119"/>
       <path id="Constantia-Bold-32"/>
       <path d="M 26.703125 15.328125 
Q 26.703125 12.40625 26.734375 10.078125 
Q 26.765625 7.765625 26.8125 5.859375 
Q 26.859375 4.296875 27.9375 3.953125 
L 33.015625 2.296875 
L 33.15625 -0.140625 
Q 27.734375 0 19.734375 0 
Q 11.1875 0 4.5 -0.140625 
L 4.25 2.296875 
L 10.796875 4.109375 
Q 12.015625 4.4375 12.109375 5.609375 
Q 12.15625 7.5625 12.171875 9.984375 
Q 12.203125 12.40625 12.203125 15.328125 
L 12.203125 54.25 
Q 12.203125 56.6875 12.171875 58.6875 
Q 12.15625 60.6875 12.109375 62.359375 
Q 12.0625 63.625 10.9375 63.96875 
L 4.390625 65.875 
L 4.25 68.359375 
Q 11.078125 68.171875 18.265625 68.171875 
Q 19.78125 68.171875 22.015625 68.234375 
Q 24.265625 68.3125 27.484375 68.40625 
Q 30.421875 68.5 32.390625 68.546875 
Q 34.375 68.609375 35.5 68.609375 
Q 48.046875 68.609375 54.3125 64.40625 
Q 60.59375 60.203125 60.59375 52.15625 
Q 60.59375 44.875 56.765625 40.40625 
Q 52.9375 35.9375 45.515625 33.546875 
Q 49.609375 27.484375 51.828125 23.71875 
Q 54.046875 19.96875 56.296875 16.328125 
Q 58.546875 12.703125 60.375 9.90625 
Q 62.203125 7.125 63.8125 5.515625 
Q 64.703125 4.78125 65.5 4.25 
Q 66.3125 3.71875 67.1875 3.328125 
Q 68.0625 2.9375 69.0625 2.65625 
Q 70.0625 2.390625 71.296875 2.15625 
L 71.484375 -0.34375 
Q 66.703125 -1.03125 60.546875 -1.03125 
Q 55.671875 -1.03125 53.71875 -0.390625 
Q 51.765625 0.25 50.25 1.421875 
Q 48 3.171875 46.109375 6 
Q 44.234375 8.84375 42.140625 12.40625 
Q 40.046875 15.96875 37.8125 19.96875 
Q 35.59375 23.96875 33.15625 27.875 
Q 32.421875 29 31.953125 29.734375 
Q 31.5 30.46875 31.03125 30.828125 
Q 30.5625 31.203125 30.046875 31.375 
Q 29.546875 31.546875 28.765625 31.59375 
L 26.703125 31.640625 
z
M 26.703125 35.890625 
Q 29.296875 35.75 31.390625 35.75 
Q 38.328125 35.75 41.546875 39.234375 
Q 44.78125 42.71875 44.78125 50.140625 
Q 44.78125 57.328125 41.671875 60.625 
Q 38.578125 63.921875 32.03125 63.921875 
Q 30.90625 63.921875 29.609375 63.8125 
Q 28.328125 63.71875 26.703125 63.53125 
z
" id="Constantia-Bold-82"/>
       <path d="M 45.015625 3.21875 
Q 36.921875 -1.375 28.265625 -1.375 
Q 17.578125 -1.375 10.6875 4.828125 
Q 3.8125 11.03125 3.8125 21.390625 
Q 3.8125 32.671875 11.296875 39.640625 
Q 18.796875 46.625 30.421875 46.625 
Q 37.796875 46.625 44.625 43.84375 
Q 42.875 36.96875 41.546875 29.390625 
L 38.875 28.953125 
L 35.109375 41.15625 
Q 33.796875 41.65625 31.546875 41.65625 
Q 25.984375 41.65625 22.40625 36.796875 
Q 18.84375 31.9375 18.84375 23.78125 
Q 18.84375 14.265625 23.359375 9.734375 
Q 27.875 5.21875 36.234375 5.21875 
Q 40.234375 5.21875 44.625 6.15625 
z
" id="Constantia-Bold-99"/>
       <path d="M 19.046875 23.1875 
Q 19.046875 14.3125 21.703125 8.765625 
Q 24.359375 3.21875 30.21875 3.21875 
Q 35.6875 3.21875 38.25 8.09375 
Q 40.828125 12.984375 40.828125 22.609375 
Q 40.828125 31.640625 38.109375 36.84375 
Q 35.40625 42.046875 29.640625 42.046875 
Q 24.265625 42.046875 21.65625 37.359375 
Q 19.046875 32.671875 19.046875 23.1875 
z
M 55.953125 23.578125 
Q 55.953125 12.453125 48.53125 5.53125 
Q 41.109375 -1.375 29.203125 -1.375 
Q 17.625 -1.375 10.734375 5.140625 
Q 3.859375 11.671875 3.859375 22.21875 
Q 3.859375 32.90625 11.078125 39.765625 
Q 18.3125 46.625 30.609375 46.625 
Q 42.28125 46.625 49.109375 40.296875 
Q 55.953125 33.984375 55.953125 23.578125 
z
" id="Constantia-Bold-111"/>
       <path d="M -1.265625 45.515625 
Q 5.125 45.359375 12.203125 45.359375 
Q 18.953125 45.359375 25.09375 45.515625 
L 25.390625 43.171875 
L 20.171875 41.703125 
Q 23.296875 32.5625 27.546875 21.734375 
Q 28.65625 18.84375 29.828125 15.375 
Q 31.0625 18.75 32.28125 21.734375 
Q 36.1875 31.546875 39.9375 41.703125 
L 34.859375 43.171875 
L 34.625 45.515625 
Q 38.1875 45.359375 43.5 45.359375 
Q 47.90625 45.359375 52.25 45.515625 
L 52.484375 43.171875 
L 47.21875 41.75 
Q 46 41.359375 45.3125 39.84375 
Q 41.5 30.953125 36.34375 18.53125 
Q 31.203125 6.109375 28.609375 -0.4375 
L 22.359375 -1.125 
Q 19.671875 6.0625 14.5625 18.453125 
Q 9.46875 30.859375 5.90625 39.59375 
Q 5.125 41.3125 3.765625 41.796875 
L -1.125 43.171875 
z
" id="Constantia-Bold-118"/>
       <path d="M 2.296875 43.0625 
Q 13.578125 44.734375 22.90625 46.78125 
L 23.640625 46.390625 
L 23.640625 41.109375 
Q 32.28125 46.625 41.703125 46.625 
L 41.9375 46.296875 
Q 40.375 38.53125 38.96875 29.6875 
L 36.140625 29.203125 
Q 34.859375 34.03125 33.640625 36.609375 
Q 32.421875 39.203125 29.828125 39.203125 
Q 27.34375 39.203125 23.640625 37.546875 
L 23.640625 16.609375 
Q 23.640625 9.03125 23.734375 5.765625 
Q 23.78125 4.390625 24.953125 4.046875 
L 31.9375 2.203125 
L 32.078125 -0.140625 
Q 23.96875 0 16.609375 0 
Q 9.578125 0 2.546875 -0.140625 
L 2.296875 2.203125 
L 8.5 3.90625 
Q 9.671875 4.25 9.71875 5.375 
Q 9.765625 7.46875 9.765625 11.375 
L 9.765625 27.6875 
Q 9.765625 35.640625 9.578125 39.265625 
L 2.59375 41.0625 
z
" id="Constantia-Bold-114"/>
       <path d="M 38.421875 40.578125 
Q 35.796875 41.5 32.515625 41.5 
Q 25.828125 41.5 22.3125 36.890625 
Q 18.796875 32.28125 18.796875 23 
Q 18.796875 14.9375 21.921875 10.109375 
Q 25.046875 5.28125 30.71875 5.28125 
Q 34.90625 5.28125 38.421875 7.078125 
z
M 30.71875 69.828125 
Q 42.625 71.625 52 73.578125 
L 52.59375 73.1875 
Q 52.25 62.75 52.25 50.734375 
L 52.25 24.171875 
Q 52.25 17.78125 52.296875 10.984375 
Q 52.296875 8.5 52.484375 6.984375 
Q 52.6875 5.46875 53.34375 4.65625 
Q 54 3.859375 55.359375 3.5625 
Q 56.734375 3.265625 59.375 3.21875 
L 59.671875 1.078125 
Q 52.546875 -1.375 47.515625 -1.375 
Q 40.96875 -1.375 38.921875 3.953125 
Q 32.515625 -1.375 24.75 -1.375 
Q 15.09375 -1.375 9.46875 5 
Q 3.859375 11.375 3.859375 20.953125 
Q 3.859375 33.15625 11.109375 39.8125 
Q 18.359375 46.484375 31.390625 46.484375 
Q 34.625 46.484375 38.421875 45.953125 
Q 38.421875 56.25 38.234375 65.875 
L 31.0625 67.828125 
z
" id="Constantia-Bold-100"/>
      </defs>
      <use xlink:href="#Constantia-Bold-78"/>
      <use x="74.085938" xlink:href="#Constantia-Bold-101"/>
      <use x="127.845703" xlink:href="#Constantia-Bold-119"/>
      <use x="204.164062" xlink:href="#Constantia-Bold-32"/>
      <use x="228.089844" xlink:href="#Constantia-Bold-82"/>
      <use x="297.097656" xlink:href="#Constantia-Bold-101"/>
      <use x="350.857422" xlink:href="#Constantia-Bold-99"/>
      <use x="399.294922" xlink:href="#Constantia-Bold-111"/>
      <use x="459.158203" xlink:href="#Constantia-Bold-118"/>
      <use x="510.964844" xlink:href="#Constantia-Bold-101"/>
      <use x="564.724609" xlink:href="#Constantia-Bold-114"/>
      <use x="608.132812" xlink:href="#Constantia-Bold-101"/>
      <use x="661.892578" xlink:href="#Constantia-Bold-100"/>
     </g>
    </g>
   </g>
   <g id="text_38">
    <!-- New Recovered in Israel during September -->
    <g transform="translate(421.205234 19.708281)scale(0.17 -0.17)">
     <defs>
      <path d="M 23.78125 62.984375 
Q 23.78125 59.625 21.609375 57.515625 
Q 19.4375 55.421875 15.921875 55.421875 
Q 12.703125 55.421875 10.625 57.390625 
Q 8.546875 59.375 8.546875 62.546875 
Q 8.546875 66.015625 10.734375 68.015625 
Q 12.9375 70.015625 16.453125 70.015625 
Q 19.671875 70.015625 21.71875 68.1875 
Q 23.78125 66.359375 23.78125 62.984375 
z
M 2.296875 43.0625 
Q 14.3125 44.875 23.390625 46.828125 
L 23.921875 46.4375 
Q 23.640625 39.703125 23.640625 32.078125 
L 23.640625 13.671875 
Q 23.640625 7.859375 23.734375 5.5625 
Q 23.828125 4.25 24.953125 3.90625 
L 31.0625 2.203125 
L 31.203125 -0.140625 
Q 23.96875 0 16.84375 0 
Q 9.578125 0 2.484375 -0.140625 
L 2.25 2.203125 
L 8.453125 3.90625 
Q 9.578125 4.203125 9.671875 5.375 
Q 9.765625 7.28125 9.765625 11.765625 
L 9.765625 27.484375 
Q 9.765625 33.890625 9.578125 39.265625 
L 2.59375 41.0625 
z
" id="Constantia-Bold-105"/>
      <path d="M 2.296875 43.0625 
Q 13.578125 44.734375 22.90625 46.78125 
L 23.640625 46.390625 
L 23.640625 41.15625 
Q 31.890625 46.625 39.9375 46.625 
Q 47.078125 46.625 51.125 42.75 
Q 55.171875 38.875 55.171875 31.734375 
L 55.171875 14.59375 
Q 55.171875 8.5 55.28125 5.5625 
Q 55.328125 4.25 56.546875 3.90625 
L 62.453125 2.203125 
L 62.59375 -0.140625 
Q 55.609375 0 48.53125 0 
Q 41.21875 0 35.359375 -0.140625 
L 35.15625 2.203125 
L 40.046875 3.65625 
Q 41.15625 4 41.265625 5.125 
Q 41.3125 5.859375 41.3125 8.203125 
L 41.3125 28.65625 
Q 41.3125 34.671875 38.96875 37.28125 
Q 36.625 39.890625 31.984375 39.890625 
Q 27.9375 39.890625 23.640625 37.546875 
L 23.640625 16.546875 
Q 23.640625 10.453125 23.734375 5.375 
Q 23.78125 4.046875 24.859375 3.765625 
L 29.9375 2.203125 
L 30.03125 -0.140625 
Q 23.96875 0 16.84375 0 
Q 9.578125 0 2.546875 -0.140625 
L 2.296875 2.203125 
L 8.59375 3.90625 
Q 9.671875 4.203125 9.71875 5.375 
Q 9.765625 8.5 9.765625 11.375 
L 9.765625 27.4375 
Q 9.765625 33.84375 9.578125 39.265625 
L 2.59375 41.0625 
z
" id="Constantia-Bold-110"/>
      <path d="M 26.859375 15.328125 
Q 26.859375 12.40625 26.875 10.015625 
Q 26.90625 7.625 26.953125 5.71875 
Q 27 4.4375 28.609375 4 
L 34.625 2.296875 
L 34.765625 -0.140625 
Q 27.984375 0 19.734375 0 
Q 11.1875 0 4.5 -0.140625 
L 4.25 2.296875 
L 10.796875 4.109375 
Q 12.015625 4.4375 12.109375 5.609375 
Q 12.15625 7.5625 12.171875 9.984375 
Q 12.203125 12.40625 12.203125 15.328125 
L 12.203125 54.25 
Q 12.203125 56.6875 12.171875 58.6875 
Q 12.15625 60.6875 12.109375 62.359375 
Q 12.0625 63.625 10.9375 63.96875 
L 4.390625 65.875 
L 4.25 68.359375 
Q 11.03125 68.171875 19.28125 68.171875 
Q 27.78125 68.171875 34.515625 68.359375 
L 34.765625 65.875 
L 28.21875 64.0625 
Q 27.046875 63.765625 26.953125 62.59375 
Q 26.90625 60.84375 26.875 58.8125 
Q 26.859375 56.78125 26.859375 54.4375 
z
" id="Constantia-Bold-73"/>
      <path d="M 1.859375 69.828125 
Q 14.0625 71.625 23.140625 73.578125 
L 23.6875 73.1875 
Q 23.390625 66.453125 23.390625 58.84375 
L 23.390625 13.671875 
Q 23.390625 7.859375 23.484375 5.5625 
Q 23.578125 4.25 24.703125 3.90625 
L 30.8125 2.203125 
L 30.953125 -0.140625 
Q 23.734375 0 16.609375 0 
Q 9.328125 0 2.25 -0.140625 
L 2 2.203125 
L 8.203125 3.90625 
Q 9.328125 4.203125 9.421875 5.375 
Q 9.515625 7.28125 9.515625 11.765625 
L 9.515625 54.109375 
Q 9.515625 60.5 9.328125 65.875 
L 2.15625 67.828125 
z
" id="Constantia-Bold-108"/>
      <path d="M 39.84375 3.90625 
Q 32.671875 -1.375 24.21875 -1.375 
Q 16.3125 -1.375 12.296875 2.53125 
Q 8.296875 6.453125 8.296875 13.53125 
L 8.296875 23.875 
Q 8.296875 34.328125 8.109375 39.265625 
L 1.125 41.0625 
L 0.828125 43.0625 
Q 12.796875 44.875 21.921875 46.828125 
L 22.46875 46.4375 
Q 22.171875 40.328125 22.171875 31.34375 
L 22.171875 16.3125 
Q 22.171875 10.5 24.4375 7.890625 
Q 26.703125 5.28125 30.859375 5.28125 
Q 35.5 5.28125 39.359375 7.28125 
L 39.359375 28.078125 
Q 39.359375 34.90625 39.15625 39.359375 
L 32.5625 41.0625 
L 32.28125 43.0625 
Q 43.84375 44.875 52.9375 46.828125 
L 53.515625 46.4375 
Q 53.171875 40.1875 53.171875 31.0625 
Q 53.171875 13.328125 53.21875 9.421875 
Q 53.265625 7.46875 53.515625 6.265625 
Q 53.765625 5.078125 54.4375 4.4375 
Q 55.125 3.8125 56.46875 3.53125 
Q 57.8125 3.265625 60.296875 3.21875 
L 60.546875 1.078125 
Q 53.515625 -1.375 48.4375 -1.375 
Q 41.890625 -1.375 39.84375 3.90625 
z
" id="Constantia-Bold-117"/>
      <path d="M 54.046875 42.828125 
L 42.71875 39.9375 
Q 46.34375 35.796875 46.34375 30.5625 
Q 46.34375 22.703125 40.65625 18.03125 
Q 34.96875 13.375 25.6875 13.375 
Q 19.921875 13.375 15.53125 15.046875 
Q 13.625 11.578125 13.625 9.28125 
Q 13.625 8.015625 14.921875 7.5625 
Q 16.21875 7.125 20.265625 7.125 
Q 23.1875 7.125 27.4375 7.203125 
Q 31.6875 7.28125 35.15625 7.28125 
Q 43.40625 7.28125 47.84375 4.21875 
Q 52.296875 1.171875 52.296875 -5.03125 
Q 52.296875 -14.15625 43.234375 -19.640625 
Q 34.1875 -25.140625 22.75 -25.140625 
Q 13.328125 -25.140625 7.828125 -22.328125 
Q 2.34375 -19.53125 2.34375 -15.09375 
Q 2.34375 -9.328125 9.96875 -3.171875 
Q 4.9375 -1.125 4.9375 2.875 
Q 4.9375 7.71875 12.3125 16.546875 
Q 4.890625 20.90625 4.890625 29.5 
Q 4.890625 37.109375 10.578125 41.75 
Q 16.265625 46.390625 25.921875 46.390625 
Q 28.46875 46.390625 32.8125 45.796875 
Q 37.015625 45.125 39.3125 45.125 
Q 47.3125 45.125 53.765625 45.265625 
z
M 14.203125 -3.8125 
Q 11.859375 -8.15625 11.859375 -11.859375 
Q 11.859375 -15.671875 15.40625 -17.84375 
Q 18.953125 -20.015625 25.046875 -20.015625 
Q 32.375 -20.015625 37.734375 -17.15625 
Q 43.109375 -14.3125 43.109375 -9.46875 
Q 43.109375 -6.84375 40.90625 -5.28125 
Q 38.71875 -3.71875 31.25 -3.71875 
Q 28.328125 -3.65625 24.90625 -3.796875 
Q 21.484375 -3.953125 18.5625 -3.953125 
Q 16.453125 -3.953125 14.203125 -3.8125 
z
M 18.75 30.328125 
Q 18.75 23.96875 20.359375 20.5 
Q 21.96875 17.046875 25.828125 17.046875 
Q 29.734375 17.046875 31.171875 20.28125 
Q 32.625 23.53125 32.625 29.78125 
Q 32.625 35.796875 31.0625 39.25 
Q 29.5 42.71875 25.484375 42.71875 
Q 21.578125 42.71875 20.15625 39.546875 
Q 18.75 36.375 18.75 30.328125 
z
" id="Constantia-Bold-103"/>
      <path d="M 37.703125 63.71875 
Q 34.578125 64.9375 30.90625 64.9375 
Q 25.734375 64.9375 22.140625 61.90625 
Q 18.5625 58.890625 18.5625 54.109375 
Q 18.5625 51.21875 19.734375 49.171875 
Q 20.90625 47.125 22.859375 45.5 
Q 24.8125 43.890625 27.3125 42.625 
Q 29.828125 41.359375 32.515625 40.09375 
Q 35.5 38.671875 38.515625 36.984375 
Q 41.546875 35.296875 43.9375 32.984375 
Q 46.34375 30.671875 47.828125 27.4375 
Q 49.3125 24.21875 49.3125 19.625 
Q 49.3125 9.71875 41.84375 4.046875 
Q 34.375 -1.609375 22.125 -1.609375 
Q 13.28125 -1.609375 4.6875 1.171875 
L 4.390625 1.609375 
L 6.984375 19.1875 
L 10.015625 19.671875 
L 13.671875 4.734375 
Q 17.1875 3.125 21.484375 3.125 
Q 27.6875 3.125 31.46875 6.265625 
Q 35.25 9.421875 35.25 14.703125 
Q 35.25 17.671875 34.078125 19.75 
Q 32.90625 21.828125 30.90625 23.453125 
Q 28.90625 25.09375 26.359375 26.359375 
Q 23.828125 27.640625 21.09375 28.90625 
Q 18.109375 30.375 15.125 31.984375 
Q 12.15625 33.59375 9.8125 35.890625 
Q 7.46875 38.1875 6 41.375 
Q 4.546875 44.578125 4.546875 49.125 
Q 4.546875 58.453125 11.671875 63.96875 
Q 18.796875 69.484375 30.171875 69.484375 
Q 37.40625 69.484375 46.625 67.234375 
L 46.921875 66.796875 
L 43.953125 51.078125 
L 41.265625 50.640625 
z
" id="Constantia-Bold-83"/>
      <path d="M 1.609375 41.0625 
L 1.3125 43.0625 
Q 12.59375 44.734375 21.96875 46.78125 
L 22.703125 46.390625 
L 22.703125 41.796875 
Q 30.28125 46.625 37.3125 46.625 
Q 46.484375 46.625 51.875 40.546875 
Q 57.28125 34.46875 57.28125 24.65625 
Q 57.28125 12.5 49.6875 5.5625 
Q 42.09375 -1.375 29.640625 -1.375 
Q 26.3125 -1.375 22.703125 -0.6875 
L 22.703125 -10.984375 
Q 22.703125 -15.828125 22.796875 -17.78125 
Q 22.90625 -19.28125 24.125 -19.578125 
L 31 -21.390625 
L 31.15625 -23.734375 
Q 23.046875 -23.578125 15.921875 -23.578125 
Q 8.59375 -23.578125 1.5625 -23.734375 
L 1.3125 -21.390625 
L 7.46875 -19.671875 
Q 8.640625 -19.390625 8.6875 -18.21875 
Q 8.796875 -14.59375 8.796875 -7.375 
L 8.796875 12.109375 
Q 8.796875 33.40625 8.59375 39.265625 
z
M 22.703125 4.203125 
Q 26.125 3.46875 29.296875 3.46875 
Q 35.75 3.46875 39.0625 8.390625 
Q 42.390625 13.328125 42.390625 22.515625 
Q 42.390625 31.15625 39.265625 35.5625 
Q 36.140625 39.984375 30.21875 39.984375 
Q 25.984375 39.984375 22.703125 38.375 
z
" id="Constantia-Bold-112"/>
      <path d="M 22.125 39.546875 
Q 21.828125 24.3125 21.828125 13.71875 
Q 21.828125 8.796875 23.34375 6.90625 
Q 24.859375 5.03125 29.15625 5.03125 
Q 32.46875 5.03125 36.375 5.421875 
L 36.765625 2.484375 
Q 29 -1.3125 22.265625 -1.3125 
Q 15.4375 -1.3125 11.6875 1.53125 
Q 7.953125 4.390625 7.953125 10.15625 
Q 7.953125 20.3125 8.25 39.796875 
L 1.65625 41.5 
L 1.21875 44.140625 
L 9.375 44.875 
L 14.015625 56.34375 
Q 18.171875 57.078125 21.578125 57.765625 
L 22.265625 57.421875 
Q 22.125 51.515625 22.125 44.875 
L 35.796875 44.875 
L 35.796875 39.546875 
z
" id="Constantia-Bold-116"/>
      <path d="M 84.8125 14.59375 
Q 84.8125 8.5 84.90625 5.5625 
Q 84.96875 4.25 86.1875 3.90625 
L 92.09375 2.203125 
L 92.234375 -0.140625 
Q 85.25 0 78.171875 0 
Q 70.84375 0 65.28125 -0.140625 
L 65.046875 2.203125 
L 69.671875 3.65625 
Q 70.796875 4 70.90625 5.125 
Q 70.953125 5.859375 70.953125 8.203125 
L 70.953125 28.65625 
Q 70.953125 34.671875 68.71875 37.28125 
Q 66.5 39.890625 62.0625 39.890625 
Q 58.0625 39.890625 53.5625 37.0625 
Q 54.25 34.671875 54.25 31.734375 
L 54.25 14.59375 
Q 54.25 8.5 54.34375 5.375 
Q 54.390625 4.046875 55.46875 3.765625 
L 60.359375 2.203125 
L 60.453125 -0.140625 
Q 54.6875 0 47.609375 0 
Q 40.28125 0 34.71875 -0.140625 
L 34.515625 2.203125 
L 39.109375 3.65625 
Q 40.234375 4 40.328125 5.125 
Q 40.375 5.859375 40.375 8.203125 
L 40.375 28.65625 
Q 40.375 34.671875 38.15625 37.28125 
Q 35.9375 39.890625 31.546875 39.890625 
Q 27.734375 39.890625 23.640625 37.546875 
L 23.640625 16.546875 
Q 23.640625 10.453125 23.734375 5.375 
Q 23.78125 4.046875 24.859375 3.765625 
L 29.734375 2.203125 
L 29.828125 -0.140625 
Q 23.96875 0 16.84375 0 
Q 9.578125 0 2.546875 -0.140625 
L 2.296875 2.203125 
L 8.59375 3.90625 
Q 9.671875 4.203125 9.71875 5.375 
Q 9.765625 8.5 9.765625 11.375 
L 9.765625 27.4375 
Q 9.765625 33.84375 9.578125 39.265625 
L 2.59375 41.0625 
L 2.296875 43.0625 
Q 13.578125 44.734375 22.90625 46.78125 
L 23.640625 46.390625 
L 23.640625 41.15625 
Q 31.640625 46.625 39.453125 46.625 
Q 48.34375 46.625 52.296875 40.1875 
Q 61.375 46.625 70.015625 46.625 
Q 76.90625 46.625 80.859375 42.75 
Q 84.8125 38.875 84.8125 31.734375 
z
" id="Constantia-Bold-109"/>
      <path d="M 22.40625 4.390625 
Q 25.640625 3.515625 28.859375 3.515625 
Q 35.5 3.515625 38.796875 8.421875 
Q 42.09375 13.328125 42.09375 22.40625 
Q 42.09375 30.71875 39.015625 35.34375 
Q 35.9375 39.984375 29.9375 39.984375 
Q 26.125 39.984375 22.40625 38.375 
z
M 22.703125 73.1875 
Q 22.40625 65.921875 22.40625 51.375 
L 22.40625 42.046875 
Q 29.890625 46.625 36.96875 46.625 
Q 46.234375 46.625 51.625 40.453125 
Q 57.03125 34.28125 57.03125 24.3125 
Q 57.03125 12.15625 49.34375 5.421875 
Q 41.65625 -1.3125 28.03125 -1.3125 
Q 19.484375 -1.3125 8.453125 1.859375 
Q 8.546875 7.671875 8.546875 17.4375 
L 8.546875 46.390625 
Q 8.546875 57.171875 8.34375 65.875 
L 1.171875 67.828125 
L 0.875 69.828125 
Q 13.03125 71.625 22.171875 73.578125 
z
" id="Constantia-Bold-98"/>
     </defs>
     <use xlink:href="#Constantia-Bold-78"/>
     <use x="74.085938" xlink:href="#Constantia-Bold-101"/>
     <use x="127.845703" xlink:href="#Constantia-Bold-119"/>
     <use x="204.164062" xlink:href="#Constantia-Bold-32"/>
     <use x="228.089844" xlink:href="#Constantia-Bold-82"/>
     <use x="297.097656" xlink:href="#Constantia-Bold-101"/>
     <use x="350.857422" xlink:href="#Constantia-Bold-99"/>
     <use x="399.294922" xlink:href="#Constantia-Bold-111"/>
     <use x="459.158203" xlink:href="#Constantia-Bold-118"/>
     <use x="510.964844" xlink:href="#Constantia-Bold-101"/>
     <use x="564.724609" xlink:href="#Constantia-Bold-114"/>
     <use x="608.132812" xlink:href="#Constantia-Bold-101"/>
     <use x="661.892578" xlink:href="#Constantia-Bold-100"/>
     <use x="723.904297" xlink:href="#Constantia-Bold-32"/>
     <use x="747.830078" xlink:href="#Constantia-Bold-105"/>
     <use x="780.984375" xlink:href="#Constantia-Bold-110"/>
     <use x="844.949219" xlink:href="#Constantia-Bold-32"/>
     <use x="868.875" xlink:href="#Constantia-Bold-73"/>
     <use x="906.9375" xlink:href="#Constantia-Bold-115"/>
     <use x="952.591797" xlink:href="#Constantia-Bold-114"/>
     <use x="996" xlink:href="#Constantia-Bold-97"/>
     <use x="1049.564453" xlink:href="#Constantia-Bold-101"/>
     <use x="1103.324219" xlink:href="#Constantia-Bold-108"/>
     <use x="1136.234375" xlink:href="#Constantia-Bold-32"/>
     <use x="1157.785156" xlink:href="#Constantia-Bold-100"/>
     <use x="1219.796875" xlink:href="#Constantia-Bold-117"/>
     <use x="1282.492188" xlink:href="#Constantia-Bold-114"/>
     <use x="1325.900391" xlink:href="#Constantia-Bold-105"/>
     <use x="1359.054688" xlink:href="#Constantia-Bold-110"/>
     <use x="1423.019531" xlink:href="#Constantia-Bold-103"/>
     <use x="1477.560547" xlink:href="#Constantia-Bold-32"/>
     <use x="1501.486328" xlink:href="#Constantia-Bold-83"/>
     <use x="1554.220703" xlink:href="#Constantia-Bold-101"/>
     <use x="1607.980469" xlink:href="#Constantia-Bold-112"/>
     <use x="1669.113281" xlink:href="#Constantia-Bold-116"/>
     <use x="1708.078125" xlink:href="#Constantia-Bold-101"/>
     <use x="1761.837891" xlink:href="#Constantia-Bold-109"/>
     <use x="1855.441406" xlink:href="#Constantia-Bold-98"/>
     <use x="1916.330078" xlink:href="#Constantia-Bold-101"/>
     <use x="1970.089844" xlink:href="#Constantia-Bold-114"/>
    </g>
   </g>
   <g id="legend_1">
    <g id="patch_32">
     <path d="M 993.414562 65.917031 
L 1176.107375 65.917031 
L 1176.107375 30.208281 
L 993.414562 30.208281 
z
" style="fill:#ffffff;stroke:#000000;stroke-linejoin:miter;"/>
    </g>
    <g id="patch_33">
     <path d="M 997.814562 42.701875 
L 1019.814562 42.701875 
L 1019.814562 35.001875 
L 997.814562 35.001875 
z
" style="fill:#3ab08b;stroke:#3ab08b;stroke-linejoin:miter;"/>
    </g>
    <g id="text_39">
     <!-- Max of New Recovered 6428.0 -->
     <g transform="translate(1028.614562 42.701875)scale(0.11 -0.11)">
      <defs>
       <path d="M 67.53125 68.359375 
Q 72.125 68.171875 75.828125 68.171875 
Q 79.4375 68.171875 85.546875 68.359375 
L 85.75 66.265625 
L 79.59375 64.359375 
Q 78.46875 63.96875 78.421875 62.703125 
Q 78.328125 59.46875 78.328125 54.59375 
L 78.328125 14.984375 
Q 78.328125 9.234375 78.421875 5.28125 
Q 78.46875 4.15625 79.78125 3.765625 
L 85.640625 1.953125 
L 85.75 -0.140625 
Q 79.296875 0 73.4375 0 
Q 67.671875 0 62.0625 -0.140625 
L 61.859375 1.953125 
L 67.484375 3.65625 
Q 68.65625 4 68.703125 5.375 
Q 68.796875 9.234375 68.796875 14.984375 
L 68.796875 57.28125 
L 44.578125 0 
L 41.015625 -0.390625 
L 16.65625 57.28125 
L 16.65625 14.984375 
Q 16.65625 9.234375 16.75 5.375 
Q 16.796875 4 18.015625 3.65625 
L 23.484375 1.953125 
L 23.578125 -0.140625 
Q 17.78125 0 13.875 0 
Q 10.0625 0 3.765625 -0.140625 
L 3.5625 1.953125 
L 9.578125 3.765625 
Q 10.84375 4.15625 10.890625 5.28125 
Q 10.984375 9.234375 10.984375 14.984375 
L 10.984375 54.59375 
Q 10.984375 59.46875 10.890625 62.703125 
Q 10.84375 63.96875 9.71875 64.359375 
L 3.65625 66.265625 
L 3.5625 68.359375 
Q 9.859375 68.171875 13.53125 68.171875 
Q 17.71875 68.171875 22.265625 68.359375 
L 44.921875 14.796875 
z
" id="Constantia-77"/>
       <path d="M 30.125 22.125 
Q 19.4375 22.125 15.53125 20.015625 
Q 11.625 17.921875 11.625 12.9375 
Q 11.625 8.296875 14.203125 6.359375 
Q 16.796875 4.4375 21.234375 4.4375 
Q 26.265625 4.4375 30.03125 6.15625 
z
M 6.453125 42.234375 
Q 15.96875 46.390625 23.296875 46.390625 
Q 30.765625 46.390625 34.9375 42.484375 
Q 39.109375 38.578125 39.0625 31.203125 
L 38.8125 10.890625 
Q 38.765625 8.40625 38.9375 6.890625 
Q 39.109375 5.375 39.8125 4.5625 
Q 40.53125 3.765625 41.9375 3.4375 
Q 43.359375 3.125 45.75 3.078125 
L 46 1.171875 
Q 43.890625 0.34375 40.859375 -0.484375 
Q 37.84375 -1.3125 36.765625 -1.3125 
Q 32.03125 -1.3125 30.28125 3.5625 
Q 23.4375 -1.375 17.390625 -1.375 
Q 10.59375 -1.375 6.46875 1.96875 
Q 2.34375 5.328125 2.34375 11.421875 
Q 2.34375 18.953125 9.046875 22.515625 
Q 15.765625 26.078125 30.125 26.078125 
L 30.171875 29.890625 
Q 30.21875 35.359375 27.390625 37.984375 
Q 24.5625 40.625 18.703125 40.625 
Q 14.265625 40.625 7.5625 38.96875 
z
" id="Constantia-97"/>
       <path d="M 1.3125 45.265625 
Q 7.515625 45.125 12.40625 45.125 
Q 16.0625 45.125 21.625 45.265625 
L 21.828125 43.265625 
L 17.484375 42.140625 
Q 20.609375 36.8125 25.875 28.328125 
Q 31.109375 36.03125 35.015625 42.046875 
L 30.859375 43.265625 
L 30.609375 45.265625 
Q 34.71875 45.125 37.890625 45.125 
Q 42.234375 45.125 45.953125 45.265625 
L 46.1875 43.265625 
L 41.546875 42 
Q 40.28125 41.65625 39.203125 40.1875 
Q 34.078125 33.40625 28.125 24.65625 
Q 34.515625 14.359375 40.625 5.125 
Q 41.546875 3.71875 43.171875 3.171875 
L 47.40625 1.859375 
L 47.609375 -0.140625 
Q 41.453125 0 36.578125 0 
Q 32.90625 0 27.34375 -0.140625 
L 27.15625 1.859375 
L 31.390625 2.984375 
Q 27.546875 9.078125 22.125 17.828125 
Q 16.75 9.96875 12.3125 3.078125 
L 16.453125 1.859375 
L 16.65625 -0.140625 
Q 12.640625 0 9.515625 0 
Q 5.171875 0 0.828125 -0.140625 
L 0.640625 1.859375 
L 5.375 3.125 
Q 6.9375 3.5625 8.25 5.28125 
Q 13.625 12.453125 19.828125 21.578125 
Q 13.625 31.640625 8.40625 39.84375 
Q 7.421875 41.359375 5.765625 41.9375 
L 1.515625 43.265625 
z
" id="Constantia-120"/>
       <path id="Constantia-32"/>
       <path d="M 13.71875 23.046875 
Q 13.71875 13.921875 17.140625 8.171875 
Q 20.5625 2.4375 27.296875 2.4375 
Q 33.59375 2.4375 36.890625 7.484375 
Q 40.1875 12.546875 40.1875 22.46875 
Q 40.1875 31.78125 36.71875 37.15625 
Q 33.25 42.53125 26.65625 42.53125 
Q 20.40625 42.53125 17.0625 37.6875 
Q 13.71875 32.859375 13.71875 23.046875 
z
M 50.140625 23.484375 
Q 50.140625 12.359375 43.421875 5.484375 
Q 36.71875 -1.375 26.375 -1.375 
Q 16.265625 -1.375 10.03125 5.09375 
Q 3.8125 11.578125 3.8125 22.015625 
Q 3.8125 32.765625 10.328125 39.578125 
Q 16.84375 46.390625 27.59375 46.390625 
Q 37.75 46.390625 43.9375 40.109375 
Q 50.140625 33.84375 50.140625 23.484375 
z
" id="Constantia-111"/>
       <path d="M 18.796875 39.9375 
L 18.796875 13.421875 
Q 18.796875 8.84375 18.890625 5.375 
Q 19 4.046875 20.171875 3.71875 
L 26.375 1.859375 
L 26.515625 -0.140625 
Q 19.140625 0 14.40625 0 
Q 9.578125 0 3.03125 -0.140625 
L 2.78125 1.859375 
L 8.25 3.421875 
Q 9.625 3.859375 9.671875 5.03125 
Q 9.765625 8.0625 9.765625 11.421875 
L 9.765625 40.1875 
L 3.125 41.84375 
L 2.78125 43.890625 
L 9.8125 44.484375 
L 9.8125 44.671875 
Q 9.8125 58.453125 15.796875 66.015625 
Q 21.78125 73.578125 31.84375 73.578125 
Q 36.765625 73.578125 41.359375 72.359375 
Q 39.703125 66.40625 38.53125 60.109375 
L 36.46875 59.71875 
L 33.296875 69.484375 
Q 32.171875 69.625 30.46875 69.625 
Q 24.859375 69.625 21.828125 64.59375 
Q 18.796875 59.578125 18.796875 46.1875 
L 18.796875 44.578125 
L 30.953125 44.578125 
L 30.953125 39.9375 
z
" id="Constantia-102"/>
       <path d="M 16.65625 54.4375 
L 16.65625 14.984375 
Q 16.65625 9.234375 16.75 5.421875 
Q 16.796875 4.046875 17.96875 3.765625 
L 23.78125 2.046875 
L 23.875 -0.140625 
Q 17.78125 0 13.875 0 
Q 10.0625 0 3.765625 -0.140625 
L 3.5625 1.953125 
L 9.578125 3.765625 
Q 10.84375 4.15625 10.890625 5.28125 
Q 10.984375 9.234375 10.984375 14.984375 
L 10.984375 54.59375 
Q 10.984375 59.46875 10.890625 62.703125 
Q 10.84375 63.96875 9.71875 64.359375 
L 3.65625 66.265625 
L 3.5625 68.359375 
Q 9.859375 68.171875 13.53125 68.171875 
Q 15.71875 68.171875 17.96875 68.359375 
L 58.984375 17.140625 
L 58.984375 54.78125 
Q 58.984375 59.515625 58.890625 62.9375 
Q 58.84375 64.0625 57.625 64.453125 
L 51.859375 66.109375 
L 51.765625 68.359375 
Q 58.015625 68.171875 61.859375 68.171875 
Q 65.765625 68.171875 71.875 68.359375 
L 72.078125 66.265625 
L 65.921875 64.359375 
Q 64.796875 63.96875 64.75 62.703125 
Q 64.65625 59.46875 64.65625 54.59375 
L 64.65625 0 
L 60.546875 -0.390625 
z
" id="Constantia-78"/>
       <path d="M 44.046875 3.46875 
Q 39.890625 0.875 35.5 -0.25 
Q 31.109375 -1.375 27.34375 -1.375 
Q 16.609375 -1.375 10.203125 4.75 
Q 3.8125 10.890625 3.8125 21.78125 
Q 3.8125 32.625 9.9375 39.5 
Q 16.0625 46.390625 26.3125 46.390625 
Q 34.90625 46.390625 39.6875 41.234375 
Q 44.484375 36.078125 44.484375 27 
Q 44.484375 25.640625 44.34375 24.21875 
L 13.375 24.21875 
Q 13.375 13.71875 18.3125 9.203125 
Q 23.25 4.6875 33.734375 4.6875 
Q 38.421875 4.6875 43.75 5.5625 
z
M 34.765625 28.265625 
L 34.765625 29.734375 
Q 34.765625 36.671875 32.546875 39.640625 
Q 30.328125 42.625 25.921875 42.625 
Q 20.125 42.625 17.046875 38.421875 
Q 13.96875 34.234375 13.578125 28.265625 
z
" id="Constantia-101"/>
       <path d="M -0.828125 45.265625 
Q 6.15625 45.125 9.515625 45.125 
Q 14.359375 45.125 20.453125 45.265625 
L 20.65625 43.265625 
L 14.890625 41.703125 
Q 18.171875 30.8125 23.140625 17.1875 
Q 24.21875 14.3125 25.140625 11.28125 
Q 26.078125 14.265625 27.15625 17.140625 
Q 31.0625 27.59375 33.0625 33.453125 
Q 35.0625 39.3125 36.921875 44.921875 
L 40.484375 45.3125 
Q 42.328125 39.40625 44.28125 33.5 
Q 46.234375 27.59375 49.90625 17.1875 
Q 51.078125 14.0625 51.859375 11.28125 
Q 52.78125 14.109375 53.953125 17.140625 
Q 59.375 30.859375 62.9375 41.75 
L 57.421875 43.3125 
L 57.234375 45.3125 
Q 61.140625 45.171875 65.53125 45.171875 
Q 69.875 45.171875 73.4375 45.3125 
L 73.6875 43.3125 
L 69.78125 42.234375 
Q 68.109375 41.75 67.328125 39.890625 
Q 62.75 28.8125 59.171875 19.890625 
Q 55.609375 10.984375 51.46875 -0.09375 
L 47.078125 -0.53125 
Q 44.09375 8.0625 42.109375 13.453125 
Q 40.140625 18.84375 37.84375 25.203125 
Q 36.859375 27.78125 36.1875 30.171875 
Q 35.40625 27.828125 34.421875 25.34375 
Q 31.9375 18.84375 29.8125 13.375 
Q 27.6875 7.90625 24.859375 -0.09375 
L 20.5625 -0.53125 
Q 16.40625 10.984375 12.984375 19.875 
Q 9.578125 28.765625 5.28125 39.9375 
Q 4.59375 41.75 2.78125 42.234375 
L -0.734375 43.265625 
z
" id="Constantia-119"/>
       <path d="M 21.78125 14.984375 
Q 21.78125 12.0625 21.796875 9.71875 
Q 21.828125 7.375 21.875 5.46875 
Q 21.921875 3.953125 23.140625 3.5625 
L 28.5625 1.953125 
L 28.71875 -0.140625 
Q 22.90625 0 17.09375 0 
Q 11.1875 0 4.984375 -0.140625 
L 4.78125 1.953125 
L 10.796875 3.765625 
Q 12.015625 4.109375 12.109375 5.28125 
Q 12.15625 7.234375 12.171875 9.640625 
Q 12.203125 12.0625 12.203125 14.984375 
L 12.203125 54.59375 
Q 12.203125 57.078125 12.171875 59.078125 
Q 12.15625 61.078125 12.109375 62.703125 
Q 12.0625 63.96875 10.9375 64.359375 
L 4.890625 66.265625 
L 4.78125 68.359375 
Q 11.078125 68.171875 17.046875 68.171875 
Q 18.21875 68.171875 20.015625 68.234375 
Q 21.828125 68.3125 24.421875 68.40625 
Q 27.046875 68.5 28.796875 68.546875 
Q 30.5625 68.609375 31.59375 68.609375 
Q 42.71875 68.609375 48.28125 64.40625 
Q 53.859375 60.203125 53.859375 52.15625 
Q 53.859375 44.875 50.046875 40.359375 
Q 46.234375 35.84375 38.421875 33.40625 
Q 41.5 28.71875 44.09375 24.34375 
Q 46.6875 19.96875 48.90625 16.328125 
Q 51.125 12.703125 52.96875 9.90625 
Q 54.828125 7.125 56.453125 5.515625 
Q 57.28125 4.6875 58.109375 4.078125 
Q 58.9375 3.46875 59.84375 3.078125 
Q 60.75 2.6875 61.75 2.390625 
Q 62.75 2.09375 63.96875 1.8125 
L 64.109375 -0.34375 
Q 60.59375 -0.78125 58.203125 -0.78125 
Q 56.203125 -0.78125 54.6875 -0.6875 
Q 53.171875 -0.59375 52 -0.296875 
Q 50.828125 0 49.875 0.453125 
Q 48.921875 0.921875 48 1.65625 
Q 46 3.171875 44.0625 6.03125 
Q 42.140625 8.890625 40.0625 12.5 
Q 37.984375 16.109375 35.734375 20.1875 
Q 33.5 24.265625 31 28.171875 
Q 30.28125 29.34375 29.765625 30.03125 
Q 29.25 30.71875 28.640625 31.109375 
Q 28.03125 31.5 27.21875 31.640625 
Q 26.421875 31.78125 25.140625 31.84375 
L 21.78125 31.9375 
z
M 21.78125 35.59375 
Q 24.75 35.453125 27.296875 35.453125 
Q 35.75 35.453125 39.671875 39.03125 
Q 43.609375 42.625 43.609375 50.296875 
Q 43.609375 57.71875 39.84375 61.125 
Q 36.078125 64.546875 28.078125 64.546875 
Q 26.703125 64.546875 25.140625 64.453125 
Q 23.578125 64.359375 21.78125 64.15625 
z
" id="Constantia-82"/>
       <path d="M 42.96875 3.46875 
Q 39.9375 1.421875 35.46875 0.015625 
Q 31 -1.375 26.609375 -1.375 
Q 16.0625 -1.375 9.90625 4.796875 
Q 3.765625 10.984375 3.765625 21.296875 
Q 3.765625 32.46875 10.734375 39.421875 
Q 17.71875 46.390625 28.8125 46.390625 
Q 35.984375 46.390625 42.71875 43.453125 
Q 41.109375 36.921875 39.84375 30.078125 
L 37.9375 29.78125 
L 33.984375 41.5 
Q 31.734375 42.28125 28.90625 42.28125 
Q 21.625 42.28125 17.515625 37.203125 
Q 13.421875 32.125 13.421875 23.78125 
Q 13.421875 13.96875 18.0625 9.28125 
Q 22.703125 4.59375 32.765625 4.59375 
Q 37.40625 4.59375 42.671875 5.515625 
z
" id="Constantia-99"/>
       <path d="M -1.515625 45.265625 
Q 4.640625 45.125 9.421875 45.125 
Q 13.8125 45.125 19.96875 45.265625 
L 20.171875 43.265625 
L 14.5 41.703125 
Q 18.5 30.328125 23.78125 17.53125 
Q 25.140625 14.15625 26.21875 11.078125 
Q 27.296875 14.15625 28.71875 17.484375 
Q 33.15625 28.421875 38.03125 41.703125 
L 32.46875 43.265625 
L 32.28125 45.265625 
Q 36.234375 45.125 40.53125 45.125 
Q 44.921875 45.125 49.03125 45.265625 
L 49.21875 43.265625 
L 44.34375 41.84375 
Q 43.21875 41.453125 42.4375 39.9375 
Q 38.578125 31 33.46875 18.671875 
Q 28.375 6.34375 25.78125 -0.34375 
L 21.625 -0.78125 
Q 18.953125 6.296875 13.890625 18.59375 
Q 8.84375 30.90625 5.21875 39.703125 
Q 4.4375 41.40625 3.078125 41.890625 
L -1.421875 43.265625 
z
" id="Constantia-118"/>
       <path d="M 2.828125 42.96875 
Q 10.984375 44.53125 18.3125 46.390625 
L 18.796875 46.046875 
L 18.796875 40.328125 
Q 27.828125 46.390625 36.53125 46.390625 
L 36.765625 46.09375 
Q 35.359375 38.8125 33.984375 31 
L 32.03125 30.671875 
Q 30.671875 34.8125 29.390625 37.328125 
Q 28.125 39.84375 25.390625 39.84375 
Q 22.75 39.84375 18.796875 37.40625 
L 18.796875 16.265625 
Q 18.796875 8.640625 18.890625 5.375 
Q 18.953125 4.046875 20.125 3.71875 
L 26.609375 1.859375 
L 26.765625 -0.140625 
Q 19.140625 0 14.359375 0 
Q 9.578125 0 3.03125 -0.140625 
L 2.828125 1.859375 
L 8.5 3.515625 
Q 9.671875 3.90625 9.71875 5.03125 
Q 9.765625 7.125 9.765625 11.03125 
L 9.765625 27.6875 
Q 9.765625 35.640625 9.578125 39.546875 
L 3.078125 41.3125 
z
" id="Constantia-114"/>
       <path d="M 37.9375 41.015625 
Q 34.671875 42.046875 30.609375 42.046875 
Q 22.21875 42.046875 17.8125 37.28125 
Q 13.421875 32.515625 13.421875 22.859375 
Q 13.421875 14.5 17.328125 9.5 
Q 21.234375 4.5 28.375 4.5 
Q 32.953125 4.5 37.9375 7.03125 
z
M 30.90625 70.125 
Q 39.59375 71.78125 46.828125 73.578125 
L 47.265625 73.1875 
Q 46.96875 62.75 46.96875 50.734375 
L 46.96875 24.171875 
Q 46.96875 17.4375 47.015625 10.84375 
Q 47.015625 8.34375 47.1875 6.828125 
Q 47.359375 5.328125 48.046875 4.515625 
Q 48.734375 3.71875 50.078125 3.421875 
Q 51.421875 3.125 53.859375 3.078125 
L 54.109375 1.171875 
Q 51.953125 0.34375 48.953125 -0.484375 
Q 45.953125 -1.3125 44.875 -1.3125 
Q 39.9375 -1.3125 38.234375 4.25 
Q 30.671875 -1.375 23.53125 -1.375 
Q 14.5 -1.375 9.109375 5.046875 
Q 3.71875 11.46875 3.71875 20.84375 
Q 3.71875 32.953125 10.890625 39.59375 
Q 18.0625 46.234375 30.953125 46.234375 
Q 34.078125 46.234375 37.9375 45.5625 
Q 37.9375 56.34375 37.75 66.546875 
L 31.15625 68.5 
z
" id="Constantia-100"/>
       <path d="M 13.09375 10.25 
Q 15.625 10.25 17.25 8.65625 
Q 18.890625 7.078125 18.890625 4.5 
Q 18.890625 1.90625 17.25 0.265625 
Q 15.625 -1.375 13.09375 -1.375 
Q 10.40625 -1.375 8.78125 0.265625 
Q 7.171875 1.90625 7.171875 4.5 
Q 7.171875 7.078125 8.78125 8.65625 
Q 10.40625 10.25 13.09375 10.25 
z
" id="Constantia-46"/>
      </defs>
      <use xlink:href="#Constantia-77"/>
      <use x="89.777344" xlink:href="#Constantia-97"/>
      <use x="137.775391" xlink:href="#Constantia-120"/>
      <use x="185.822266" xlink:href="#Constantia-32"/>
      <use x="208.419922" xlink:href="#Constantia-111"/>
      <use x="262.472656" xlink:href="#Constantia-102"/>
      <use x="293.429688" xlink:href="#Constantia-32"/>
      <use x="318.527344" xlink:href="#Constantia-78"/>
      <use x="391.929688" xlink:href="#Constantia-101"/>
      <use x="439.830078" xlink:href="#Constantia-119"/>
      <use x="513.023438" xlink:href="#Constantia-32"/>
      <use x="538.121094" xlink:href="#Constantia-82"/>
      <use x="599.755859" xlink:href="#Constantia-101"/>
      <use x="647.65625" xlink:href="#Constantia-99"/>
      <use x="693.798828" xlink:href="#Constantia-111"/>
      <use x="747.851562" xlink:href="#Constantia-118"/>
      <use x="796.142578" xlink:href="#Constantia-101"/>
      <use x="844.042969" xlink:href="#Constantia-114"/>
      <use x="882.373047" xlink:href="#Constantia-101"/>
      <use x="930.273438" xlink:href="#Constantia-100"/>
      <use x="987.011719" xlink:href="#Constantia-32"/>
      <use x="1012.109375" xlink:href="#Constantia-54"/>
      <use x="1066.210938" xlink:href="#Constantia-52"/>
      <use x="1119.287109" xlink:href="#Constantia-50"/>
      <use x="1167.724609" xlink:href="#Constantia-56"/>
      <use x="1221.386719" xlink:href="#Constantia-46"/>
      <use x="1246.972656" xlink:href="#Constantia-48"/>
     </g>
    </g>
    <g id="patch_34">
     <path d="M 997.814562 58.90625 
L 1019.814562 58.90625 
L 1019.814562 51.20625 
L 997.814562 51.20625 
z
" style="fill:#f04a6b;stroke:#f04a6b;stroke-linejoin:miter;"/>
    </g>
    <g id="text_40">
     <!-- Min of New Recovered 626.0 -->
     <g transform="translate(1028.614562 58.90625)scale(0.11 -0.11)">
      <defs>
       <path d="M 19.34375 63.671875 
Q 19.34375 61.078125 17.71875 59.4375 
Q 16.109375 57.8125 13.578125 57.8125 
Q 11.140625 57.8125 9.59375 59.328125 
Q 8.0625 60.84375 8.0625 63.328125 
Q 8.0625 65.96875 9.671875 67.5 
Q 11.28125 69.046875 13.921875 69.046875 
Q 16.3125 69.046875 17.828125 67.65625 
Q 19.34375 66.265625 19.34375 63.671875 
z
M 2.828125 42.96875 
Q 11.375 44.578125 18.65625 46.390625 
L 19.09375 46.046875 
Q 18.796875 39.703125 18.796875 32.078125 
L 18.796875 13.328125 
Q 18.796875 7.46875 18.890625 5.21875 
Q 19 3.90625 20.125 3.515625 
L 25.78125 1.859375 
L 25.875 -0.140625 
Q 19.140625 0 14.359375 0 
Q 9.578125 0 2.984375 -0.140625 
L 2.78125 1.859375 
L 8.453125 3.515625 
Q 9.578125 3.90625 9.671875 5.03125 
Q 9.765625 6.9375 9.765625 11.421875 
L 9.765625 27.734375 
Q 9.765625 34.125 9.578125 39.546875 
L 3.078125 41.3125 
z
" id="Constantia-105"/>
       <path d="M 2.828125 42.96875 
Q 11.03125 44.53125 18.3125 46.390625 
L 18.796875 46.046875 
L 18.796875 40.375 
Q 27.296875 46.390625 34.625 46.390625 
Q 41.546875 46.390625 45.484375 42.5 
Q 49.421875 38.625 49.421875 31.5 
L 49.421875 14.265625 
Q 49.421875 8.15625 49.515625 5.21875 
Q 49.5625 3.90625 50.78125 3.515625 
L 56.203125 1.859375 
L 56.296875 -0.140625 
Q 49.859375 0 45.0625 0 
Q 40.28125 0 34.421875 -0.140625 
L 34.234375 1.859375 
L 39.109375 3.265625 
Q 40.234375 3.65625 40.328125 4.78125 
Q 40.375 5.46875 40.375 7.859375 
L 40.375 29.15625 
Q 40.375 35.15625 37.5 37.765625 
Q 34.625 40.375 29 40.375 
Q 24.078125 40.375 18.796875 37.546875 
L 18.796875 16.21875 
Q 18.796875 10.109375 18.890625 5.03125 
Q 18.953125 3.71875 20.015625 3.375 
L 25.09375 1.859375 
L 25.203125 -0.140625 
Q 19.140625 0 14.359375 0 
Q 9.578125 0 3.03125 -0.140625 
L 2.828125 1.859375 
L 8.59375 3.515625 
Q 9.671875 3.953125 9.71875 5.03125 
Q 9.765625 8.15625 9.765625 11.03125 
L 9.765625 27.6875 
Q 9.765625 34.078125 9.578125 39.546875 
L 3.078125 41.3125 
z
" id="Constantia-110"/>
      </defs>
      <use xlink:href="#Constantia-77"/>
      <use x="90.527344" xlink:href="#Constantia-105"/>
      <use x="118.847656" xlink:href="#Constantia-110"/>
      <use x="177.050781" xlink:href="#Constantia-32"/>
      <use x="199.648438" xlink:href="#Constantia-111"/>
      <use x="253.701172" xlink:href="#Constantia-102"/>
      <use x="284.658203" xlink:href="#Constantia-32"/>
      <use x="309.755859" xlink:href="#Constantia-78"/>
      <use x="383.158203" xlink:href="#Constantia-101"/>
      <use x="431.058594" xlink:href="#Constantia-119"/>
      <use x="504.251953" xlink:href="#Constantia-32"/>
      <use x="529.349609" xlink:href="#Constantia-82"/>
      <use x="590.984375" xlink:href="#Constantia-101"/>
      <use x="638.884766" xlink:href="#Constantia-99"/>
      <use x="685.027344" xlink:href="#Constantia-111"/>
      <use x="739.080078" xlink:href="#Constantia-118"/>
      <use x="787.371094" xlink:href="#Constantia-101"/>
      <use x="835.271484" xlink:href="#Constantia-114"/>
      <use x="873.601562" xlink:href="#Constantia-101"/>
      <use x="921.501953" xlink:href="#Constantia-100"/>
      <use x="978.240234" xlink:href="#Constantia-32"/>
      <use x="1003.337891" xlink:href="#Constantia-54"/>
      <use x="1057.439453" xlink:href="#Constantia-50"/>
      <use x="1105.876953" xlink:href="#Constantia-54"/>
      <use x="1159.978516" xlink:href="#Constantia-46"/>
      <use x="1185.564453" xlink:href="#Constantia-48"/>
     </g>
    </g>
   </g>
  </g>
 </g>
 <defs>
  <clipPath id="pba8c0462c3">
   <rect height="622.08" width="1071.36" x="56.679375" y="24.708281"/>
  </clipPath>
 </defs>
</svg>
