<?xml version="1.0" encoding="utf-8" standalone="no"?>
<!DOCTYPE svg PUBLIC "-//W3C//DTD SVG 1.1//EN"
  "http://www.w3.org/Graphics/SVG/1.1/DTD/svg11.dtd">
<!-- Created with matplotlib (https://matplotlib.org/) -->
<svg height="766.08pt" version="1.1" viewBox="0 0 1376.476772 766.08" width="1376.476772pt" xmlns="http://www.w3.org/2000/svg" xmlns:xlink="http://www.w3.org/1999/xlink">
 <metadata>
  <rdf:RDF xmlns:cc="http://creativecommons.org/ns#" xmlns:dc="http://purl.org/dc/elements/1.1/" xmlns:rdf="http://www.w3.org/1999/02/22-rdf-syntax-ns#">
   <cc:Work>
    <dc:type rdf:resource="http://purl.org/dc/dcmitype/StillImage"/>
    <dc:date>2020-10-25T19:30:52.704371</dc:date>
    <dc:format>image/svg+xml</dc:format>
    <dc:creator>
     <cc:Agent>
      <dc:title>Matplotlib v3.3.2, https://matplotlib.org/</dc:title>
     </cc:Agent>
    </dc:creator>
   </cc:Work>
  </rdf:RDF>
 </metadata>
 <defs>
  <style type="text/css">*{stroke-linecap:butt;stroke-linejoin:round;}</style>
 </defs>
 <g id="figure_1">
  <g id="patch_1">
   <path d="M 0 766.08 
L 1376.476772 766.08 
L 1376.476772 0 
L 0 0 
z
" style="fill:#ffffff;"/>
  </g>
  <g id="axes_1">
   <g id="patch_2">
    <path d="M 42.865 743.2025 
L 1226.160437 743.2025 
L 1226.160437 22.79525 
L 42.865 22.79525 
z
" style="fill:#ffffff;"/>
   </g>
   <g id="line2d_1">
    <path clip-path="url(#p3159702c38)" d="M 42.865 581.378449 
L 128.404429 559.066407 
L 185.430715 548.116217 
L 242.457002 536.404453 
L 256.713573 532.226091 
L 270.970145 528.150644 
L 285.226716 526.133504 
L 299.483288 522.654966 
L 342.253002 514.092411 
L 356.509574 512.095854 
L 370.766145 505.447524 
L 385.022717 501.392661 
L 399.279288 496.61739 
L 413.53586 492.562526 
L 427.792431 492.562526 
L 442.049003 488.034252 
L 456.305575 485.728949 
L 470.562146 478.854205 
L 484.818718 471.382553 
L 499.075289 465.928041 
L 513.331861 464.693057 
L 527.588432 455.0396 
L 541.845004 453.742867 
L 556.101575 443.389586 
L 570.358147 440.446207 
L 584.614718 428.425698 
L 598.87129 419.451482 
L 613.127861 410.744846 
L 627.384433 401.873545 
L 641.641005 399.115414 
L 655.897576 386.72441 
L 670.154148 380.055497 
L 684.410719 364.206537 
L 712.923862 342.470821 
L 727.180434 332.323371 
L 741.437005 323.843148 
L 755.693577 317.915226 
L 769.950148 310.464156 
L 784.20672 288.604942 
L 798.463291 274.073299 
L 812.719863 255.569124 
L 826.976434 255.569124 
L 841.233006 226.197091 
L 855.489578 221.504153 
L 869.746149 216.255471 
L 884.002721 197.401384 
L 898.259292 178.073887 
L 912.515864 163.768657 
L 926.772435 152.447972 
L 941.029007 148.084362 
L 955.285578 135.487527 
L 969.54215 123.261187 
L 983.798721 113.278401 
L 998.055293 104.654097 
L 1012.311864 99.014337 
L 1026.568436 94.67131 
L 1055.081579 85.203101 
L 1069.338151 80.304332 
L 1083.594722 75.199732 
L 1097.851294 72.956178 
L 1112.107865 67.604581 
L 1126.364437 65.64919 
L 1140.621008 64.887616 
L 1154.87758 61.470828 
L 1169.134151 58.424534 
L 1183.390723 55.604654 
L 1197.647294 53.566931 
L 1211.903866 52.064367 
L 1226.160437 50.767634 
" style="fill:none;stroke:#008000;stroke-linecap:square;"/>
   </g>
   <g id="line2d_2">
    <path clip-path="url(#p3159702c38)" d="M 42.865 446.230048 
L 128.404429 424.94716 
L 185.430715 413.420644 
L 242.457002 399.568242 
L 256.713573 396.501365 
L 270.970145 393.681485 
L 285.226716 391.746677 
L 299.483288 388.803299 
L 342.253002 379.33509 
L 356.509574 378.120689 
L 370.766145 374.456903 
L 385.022717 371.513525 
L 399.279288 368.446649 
L 413.53586 365.482687 
L 427.792431 364.432951 
L 442.049003 360.357504 
L 456.305575 359.18427 
L 470.562146 355.396986 
L 484.818718 352.824103 
L 499.075289 350.745213 
L 513.331861 349.654311 
L 527.588432 344.446796 
L 541.845004 343.479392 
L 556.101575 340.700678 
L 570.358147 339.548026 
L 584.614718 337.633801 
L 598.87129 335.67841 
L 613.127861 332.632117 
L 627.384433 329.647572 
L 641.641005 327.259937 
L 655.897576 325.46921 
L 670.154148 323.205073 
L 684.410719 320.735106 
L 712.923862 315.074763 
L 727.180434 311.637391 
L 741.437005 309.188006 
L 755.693577 307.335531 
L 769.950148 304.783231 
L 784.20672 301.675188 
L 798.463291 298.752393 
L 812.719863 295.788432 
L 826.976434 292.268728 
L 841.233006 289.201851 
L 855.489578 287.740453 
L 869.746149 285.064655 
L 884.002721 281.956612 
L 898.259292 279.260231 
L 912.515864 275.802276 
L 926.772435 272.653067 
L 941.029007 270.265432 
L 955.285578 267.445552 
L 969.54215 264.728588 
L 983.798721 261.641128 
L 998.055293 257.648013 
L 1012.311864 254.313557 
L 1026.568436 251.04085 
L 1055.081579 244.886514 
L 1069.338151 242.087217 
L 1083.594722 238.444015 
L 1097.851294 237.023783 
L 1112.107865 230.89003 
L 1126.364437 226.114759 
L 1140.621008 223.644791 
L 1154.87758 221.174824 
L 1169.134151 216.523051 
L 1183.390723 212.612269 
L 1197.647294 207.65175 
L 1211.903866 203.041144 
L 1226.160437 196.063485 
" style="fill:none;stroke:#ff0000;stroke-linecap:square;"/>
   </g>
   <g id="line2d_3">
    <path clip-path="url(#p3159702c38)" d="M 42.865 651.093287 
L 128.404429 649.323144 
L 185.430715 648.417489 
L 242.457002 647.038424 
L 256.713573 646.482681 
L 270.970145 646.153352 
L 285.226716 646.153352 
L 299.483288 645.906355 
L 342.253002 644.547873 
L 356.509574 644.547873 
L 370.766145 643.889215 
L 385.022717 643.580469 
L 399.279288 643.107058 
L 413.53586 642.736563 
L 427.792431 642.736563 
L 442.049003 641.872075 
L 456.305575 641.460413 
L 470.562146 641.069335 
L 484.818718 640.616508 
L 499.075289 640.081348 
L 513.331861 640.081348 
L 527.588432 638.949279 
L 541.845004 638.043625 
L 556.101575 637.158553 
L 570.358147 636.417562 
L 584.614718 635.614823 
L 598.87129 634.729751 
L 613.127861 633.659432 
L 627.384433 632.589113 
L 641.641005 631.580542 
L 655.897576 630.798386 
L 670.154148 629.851565 
L 684.410719 628.657747 
L 712.923862 626.311278 
L 727.180434 624.973379 
L 741.437005 623.800144 
L 755.693577 622.482828 
L 769.950148 621.000847 
L 784.20672 619.127788 
L 798.463291 617.110648 
L 812.719863 615.031759 
L 826.976434 613.199866 
L 841.233006 611.491472 
L 855.489578 610.256488 
L 869.746149 608.095266 
L 884.002721 605.954627 
L 898.259292 603.855155 
L 912.515864 601.755682 
L 926.772435 601.755682 
L 941.029007 597.865483 
L 955.285578 587.10054 
L 969.54215 582.695765 
L 983.798721 578.414487 
L 998.055293 573.104057 
L 1012.311864 568.905112 
L 1026.568436 564.315088 
L 1055.081579 556.205361 
L 1069.338151 550.977263 
L 1083.594722 545.008174 
L 1097.851294 545.008174 
L 1112.107865 534.531394 
L 1126.364437 529.653208 
L 1140.621008 524.507442 
L 1154.87758 518.826516 
L 1169.134151 512.363434 
L 1183.390723 504.294873 
L 1197.647294 497.872957 
L 1211.903866 491.656871 
L 1226.160437 484.699796 
" style="fill:none;stroke:#0000ff;stroke-linecap:square;"/>
   </g>
   <g id="patch_3">
    <path d="M 42.865 743.2025 
L 42.865 22.79525 
" style="fill:none;stroke:#000000;stroke-linecap:square;stroke-linejoin:miter;"/>
   </g>
   <g id="patch_4">
    <path d="M 42.865 743.2025 
L 1226.160437 743.2025 
" style="fill:none;stroke:#000000;stroke-linecap:square;stroke-linejoin:miter;"/>
   </g>
   <g id="matplotlib.axis_1">
    <g id="xtick_1">
     <g id="line2d_4">
      <defs>
       <path d="M 0 0 
L 0 -4 
" id="m42366119cf" style="stroke:#000000;stroke-width:0.5;"/>
      </defs>
      <g>
       <use style="stroke:#000000;stroke-width:0.5;" x="228.20043" xlink:href="#m42366119cf" y="743.2025"/>
      </g>
     </g>
     <g id="text_1">
      <!-- Aug 15 2020 -->
      <g transform="translate(197.732617 755.94375)scale(0.12 -0.12)">
       <defs>
        <path d="M 36.8125 69.390625 
L 58.5 9.671875 
Q 59.71875 6.296875 60.71875 5.09375 
Q 61.71875 3.90625 63.578125 3.328125 
L 68.171875 1.953125 
L 68.265625 -0.140625 
Q 61.859375 0 56.390625 0 
Q 50.828125 0 43.265625 -0.140625 
L 43.0625 1.953125 
L 47.703125 3.328125 
Q 48.6875 3.65625 49.09375 4.078125 
Q 49.515625 4.5 49.515625 5.375 
Q 49.515625 6.34375 49 7.921875 
Q 48.484375 9.515625 47.5625 12.15625 
L 42.96875 25.25 
L 19.4375 25.25 
L 14.3125 12.203125 
Q 13.28125 9.46875 12.6875 7.859375 
Q 12.109375 6.25 12.109375 5.328125 
Q 12.109375 4.5 12.5625 4.078125 
Q 13.03125 3.65625 13.96875 3.375 
L 18.5 2.046875 
L 18.609375 -0.140625 
Q 11.671875 0 7.28125 0 
Q 2.875 0 -2.546875 -0.140625 
L -2.78125 1.953125 
L 2.15625 3.46875 
Q 4 4.046875 4.875 5.265625 
Q 5.765625 6.5 6.84375 9.078125 
L 31.78125 68.65625 
z
M 21.234375 29.6875 
L 41.359375 29.6875 
L 31.84375 56.59375 
z
" id="Constantia-65"/>
        <path d="M 38.875 4.296875 
Q 31.25 -1.375 23.640625 -1.375 
Q 15.96875 -1.375 12.125 2.53125 
Q 8.296875 6.453125 8.296875 13.53125 
L 8.296875 23.875 
Q 8.296875 34.328125 8.109375 39.546875 
L 1.609375 41.3125 
L 1.375 42.96875 
Q 9.90625 44.53125 17.1875 46.390625 
L 17.625 46.046875 
Q 17.328125 40.328125 17.328125 31.34375 
L 17.328125 15.828125 
Q 17.328125 9.90625 20.109375 7.25 
Q 22.90625 4.59375 27.984375 4.59375 
Q 33.0625 4.59375 38.375 7.28125 
L 38.375 28.078125 
Q 38.375 34.90625 38.1875 39.546875 
L 31.734375 41.3125 
L 31.5 42.96875 
Q 39.984375 44.53125 47.265625 46.390625 
L 47.703125 46.046875 
Q 47.40625 40.1875 47.40625 31.0625 
Q 47.40625 13.328125 47.515625 9.421875 
Q 47.5625 7.421875 47.796875 6.203125 
Q 48.046875 4.984375 48.734375 4.3125 
Q 49.421875 3.65625 50.75 3.390625 
Q 52.09375 3.125 54.34375 3.078125 
L 54.59375 1.171875 
Q 52.34375 0.296875 49.40625 -0.5 
Q 46.484375 -1.3125 45.40625 -1.3125 
Q 40.484375 -1.3125 38.875 4.296875 
z
" id="Constantia-117"/>
        <path d="M 14.015625 30.328125 
Q 14.015625 23.96875 16.578125 20.5 
Q 19.140625 17.046875 24.03125 17.046875 
Q 28.71875 17.046875 31.078125 20.28125 
Q 33.453125 23.53125 33.453125 29.78125 
Q 33.453125 35.796875 30.9375 39.25 
Q 28.421875 42.71875 23.4375 42.71875 
Q 18.75 42.71875 16.375 39.546875 
Q 14.015625 36.375 14.015625 30.328125 
z
M 13.375 -1.953125 
Q 10.0625 -6.9375 10.0625 -11.140625 
Q 10.0625 -15.4375 13.53125 -17.828125 
Q 17 -20.21875 22.953125 -20.21875 
Q 30.03125 -20.21875 35.34375 -17.0625 
Q 40.671875 -13.921875 40.671875 -8.25 
Q 40.671875 -5.171875 38.0625 -3.484375 
Q 35.453125 -1.8125 28.21875 -1.8125 
Q 25.640625 -1.8125 22.578125 -1.953125 
Q 19.53125 -2.09375 16.703125 -2.09375 
Q 15.140625 -2.09375 13.375 -1.953125 
z
M 38.875 40.234375 
Q 42.53125 36.1875 42.53125 30.5625 
Q 42.53125 22.703125 37.0625 18.03125 
Q 31.59375 13.375 23.34375 13.375 
Q 18.65625 13.375 14.9375 14.84375 
Q 12.3125 10.59375 12.3125 8.15625 
Q 12.3125 6.84375 13.640625 6.375 
Q 14.984375 5.90625 18.609375 5.90625 
Q 21.34375 5.90625 25 6.046875 
Q 28.65625 6.203125 31.84375 6.203125 
Q 39.59375 6.203125 44.109375 3.25 
Q 48.640625 0.296875 48.640625 -5.515625 
Q 48.640625 -14.3125 40.359375 -19.390625 
Q 32.078125 -24.46875 21.53125 -24.46875 
Q 12.890625 -24.46875 7.734375 -21.5625 
Q 2.59375 -18.65625 2.59375 -14.015625 
Q 2.59375 -8.40625 10.546875 -1.421875 
Q 5.515625 0.484375 5.515625 3.65625 
Q 5.515625 8.109375 12.5 16.0625 
Q 4.890625 20.703125 4.890625 29.5 
Q 4.890625 37.109375 10.28125 41.75 
Q 15.671875 46.390625 24.21875 46.390625 
Q 26.46875 46.390625 30.328125 45.796875 
Q 33.984375 45.125 36.03125 45.125 
Q 43.40625 45.125 49.609375 45.265625 
L 49.859375 43.265625 
z
" id="Constantia-103"/>
        <path id="Constantia-32"/>
        <path d="M 1.703125 40.625 
L 1.46875 42.671875 
Q 11.28125 44.140625 21.09375 45.90625 
L 21.53125 45.515625 
Q 20.953125 36.96875 20.953125 27.875 
L 20.953125 15.96875 
Q 20.953125 9.515625 21.046875 5.5625 
Q 21.09375 4.15625 22.40625 3.8125 
L 30.171875 1.8125 
L 30.328125 -0.140625 
Q 21.296875 0 16.5 0 
Q 11.71875 0 2.734375 -0.140625 
L 2.546875 1.8125 
L 10.5 3.8125 
Q 11.765625 4.15625 11.8125 5.375 
Q 11.921875 9.328125 11.921875 14.15625 
L 11.921875 22.265625 
Q 11.921875 32.078125 11.71875 39.65625 
z
" id="Constantia-49"/>
        <path d="M 6.453125 16.796875 
L 9.28125 45.3125 
Q 15.375 45.125 23.875 45.125 
Q 33.6875 45.125 42.28125 45.3125 
L 42.578125 44.921875 
L 41.359375 36.859375 
L 13.1875 37.546875 
L 11.8125 23.78125 
Q 15.96875 24.46875 19.625 24.46875 
Q 30.8125 24.46875 37.46875 19.046875 
Q 44.140625 13.625 44.140625 4.15625 
Q 44.140625 -7.953125 32.984375 -15.15625 
Q 21.828125 -22.359375 4.890625 -22.46875 
L 4.390625 -18.84375 
Q 17.71875 -18.359375 26.09375 -12.796875 
Q 34.46875 -7.234375 34.46875 2.203125 
Q 34.46875 9.46875 29.5625 13.46875 
Q 24.65625 17.484375 15.765625 17.484375 
Q 11.328125 17.484375 6.734375 16.453125 
z
" id="Constantia-53"/>
        <path d="M 42.390625 15.484375 
L 44.53125 15.875 
L 43.5625 0.203125 
L 43.21875 -0.140625 
Q 33.25 0 22.359375 0 
Q 12.25 0 3.765625 -0.140625 
L 3.421875 3.859375 
Q 8.015625 6.84375 11.671875 9.375 
Q 15.328125 11.921875 18.015625 14.109375 
Q 20.703125 16.265625 22.75 18.21875 
Q 24.8125 20.171875 26.203125 22.09375 
Q 27.59375 24.03125 28.3125 26.03125 
Q 29.046875 28.03125 29.046875 30.21875 
Q 29.046875 34.71875 25.78125 37.34375 
Q 22.515625 39.984375 17.78125 39.984375 
Q 12.203125 39.984375 6.546875 36.96875 
L 4.6875 40.1875 
Q 13.8125 46.390625 23 46.390625 
Q 29.890625 46.390625 34.453125 43.046875 
Q 39.015625 39.703125 39.015625 33.734375 
Q 39.015625 30.03125 37.34375 26.828125 
Q 35.6875 23.640625 32.515625 20.5625 
Q 29.34375 17.484375 24.75 14.328125 
Q 20.171875 11.1875 14.265625 7.671875 
L 14.3125 7.421875 
L 38.578125 7.421875 
z
" id="Constantia-50"/>
        <path d="M 13.671875 23.296875 
Q 13.671875 13.625 17.15625 8.109375 
Q 20.65625 2.59375 27.203125 2.59375 
Q 33.84375 2.59375 37.015625 7.515625 
Q 40.1875 12.453125 40.1875 22.609375 
Q 40.1875 32.5625 36.71875 37.609375 
Q 33.25 42.671875 26.65625 42.671875 
Q 19.921875 42.671875 16.796875 37.84375 
Q 13.671875 33.015625 13.671875 23.296875 
z
M 49.953125 23.6875 
Q 49.953125 12.25 43.4375 5.484375 
Q 36.921875 -1.265625 26.421875 -1.265625 
Q 16.3125 -1.265625 10.109375 4.9375 
Q 3.90625 11.140625 3.90625 22.015625 
Q 3.90625 33.203125 10.390625 39.796875 
Q 16.890625 46.390625 27.484375 46.390625 
Q 37.796875 46.390625 43.875 40.375 
Q 49.953125 34.375 49.953125 23.6875 
z
" id="Constantia-48"/>
       </defs>
       <use xlink:href="#Constantia-65"/>
       <use x="66.431641" xlink:href="#Constantia-117"/>
       <use x="123.365234" xlink:href="#Constantia-103"/>
       <use x="174.146484" xlink:href="#Constantia-32"/>
       <use x="199.244141" xlink:href="#Constantia-49"/>
       <use x="230.542969" xlink:href="#Constantia-53"/>
       <use x="278.101562" xlink:href="#Constantia-32"/>
       <use x="303.199219" xlink:href="#Constantia-50"/>
       <use x="351.636719" xlink:href="#Constantia-48"/>
       <use x="405.494141" xlink:href="#Constantia-50"/>
       <use x="453.931641" xlink:href="#Constantia-48"/>
      </g>
     </g>
    </g>
    <g id="xtick_2">
     <g id="line2d_5">
      <g>
       <use style="stroke:#000000;stroke-width:0.5;" x="470.562146" xlink:href="#m42366119cf" y="743.2025"/>
      </g>
     </g>
     <g id="text_2">
      <!-- Sep 01 2020 -->
      <g transform="translate(440.875271 756.031875)scale(0.12 -0.12)">
       <defs>
        <path d="M 37.109375 63.921875 
Q 31.984375 65.625 27.6875 65.625 
Q 21.234375 65.625 17.40625 62.5 
Q 13.578125 59.375 13.578125 53.8125 
Q 13.578125 50.640625 14.921875 48.234375 
Q 16.265625 45.84375 18.53125 44.03125 
Q 20.796875 42.234375 23.671875 40.8125 
Q 26.5625 39.40625 29.640625 38.03125 
Q 33.015625 36.578125 36.1875 34.9375 
Q 39.359375 33.296875 41.921875 31.09375 
Q 44.484375 28.90625 46.015625 25.828125 
Q 47.5625 22.75 47.5625 18.65625 
Q 47.5625 8.9375 40.75 3.8125 
Q 33.9375 -1.3125 21.875 -1.3125 
Q 14.109375 -1.3125 4.6875 1.3125 
L 4.390625 1.703125 
L 6.78125 18.3125 
L 8.984375 18.65625 
L 12.40625 4.78125 
Q 17.578125 2.734375 23 2.734375 
Q 30.28125 2.734375 34.34375 5.953125 
Q 38.421875 9.1875 38.421875 15.140625 
Q 38.421875 18.265625 37.109375 20.625 
Q 35.796875 23 33.5625 24.703125 
Q 31.34375 26.421875 28.515625 27.8125 
Q 25.6875 29.203125 22.65625 30.5625 
Q 19.234375 32.03125 16.015625 33.734375 
Q 12.796875 35.453125 10.171875 37.71875 
Q 7.5625 39.984375 6 43.28125 
Q 4.4375 46.578125 4.4375 50.984375 
Q 4.4375 59.8125 11.046875 64.640625 
Q 17.671875 69.484375 28.609375 69.484375 
Q 36.328125 69.484375 44.78125 67.671875 
L 45.125 67.328125 
L 42.234375 52.09375 
L 40.28125 51.765625 
z
" id="Constantia-83"/>
        <path d="M 44.046875 3.46875 
Q 39.890625 0.875 35.5 -0.25 
Q 31.109375 -1.375 27.34375 -1.375 
Q 16.609375 -1.375 10.203125 4.75 
Q 3.8125 10.890625 3.8125 21.78125 
Q 3.8125 32.625 9.9375 39.5 
Q 16.0625 46.390625 26.3125 46.390625 
Q 34.90625 46.390625 39.6875 41.234375 
Q 44.484375 36.078125 44.484375 27 
Q 44.484375 25.640625 44.34375 24.21875 
L 13.375 24.21875 
Q 13.375 13.71875 18.3125 9.203125 
Q 23.25 4.6875 33.734375 4.6875 
Q 38.421875 4.6875 43.75 5.5625 
z
M 34.765625 28.265625 
L 34.765625 29.734375 
Q 34.765625 36.671875 32.546875 39.640625 
Q 30.328125 42.625 25.921875 42.625 
Q 20.125 42.625 17.046875 38.421875 
Q 13.96875 34.234375 13.578125 28.265625 
z
" id="Constantia-101"/>
        <path d="M 2.09375 41.3125 
L 1.859375 42.96875 
Q 10.0625 44.53125 17.328125 46.390625 
L 17.828125 46.046875 
L 17.828125 41.265625 
Q 25.296875 46.390625 32.28125 46.390625 
Q 41.359375 46.390625 46.703125 40.3125 
Q 52.046875 34.234375 52.046875 24.515625 
Q 52.046875 12.546875 45.15625 5.578125 
Q 38.28125 -1.375 25.640625 -1.375 
Q 21.875 -1.375 17.828125 -0.640625 
L 17.828125 -11.328125 
Q 17.828125 -16.21875 17.921875 -18.171875 
Q 18.015625 -19.625 19.234375 -19.921875 
L 25.640625 -21.734375 
L 25.78125 -23.734375 
Q 18.171875 -23.578125 13.375 -23.578125 
Q 8.59375 -23.578125 2.046875 -23.734375 
L 1.859375 -21.734375 
L 7.46875 -20.0625 
Q 8.640625 -19.734375 8.6875 -18.5625 
Q 8.796875 -14.984375 8.796875 -7.765625 
L 8.796875 12.109375 
Q 8.796875 33.734375 8.59375 39.453125 
z
M 17.828125 3.765625 
Q 22.078125 2.828125 26.03125 2.828125 
Q 34.125 2.828125 38.21875 7.90625 
Q 42.328125 12.984375 42.328125 22.46875 
Q 42.328125 31.390625 38.421875 35.9375 
Q 34.515625 40.484375 27.203125 40.484375 
Q 21.921875 40.484375 17.828125 38.328125 
z
" id="Constantia-112"/>
       </defs>
       <use xlink:href="#Constantia-83"/>
       <use x="50.976562" xlink:href="#Constantia-101"/>
       <use x="98.876953" xlink:href="#Constantia-112"/>
       <use x="154.833984" xlink:href="#Constantia-32"/>
       <use x="179.931641" xlink:href="#Constantia-48"/>
       <use x="233.789062" xlink:href="#Constantia-49"/>
       <use x="265.087891" xlink:href="#Constantia-32"/>
       <use x="290.185547" xlink:href="#Constantia-50"/>
       <use x="338.623047" xlink:href="#Constantia-48"/>
       <use x="392.480469" xlink:href="#Constantia-50"/>
       <use x="440.917969" xlink:href="#Constantia-48"/>
      </g>
     </g>
    </g>
    <g id="xtick_3">
     <g id="line2d_6">
      <g>
       <use style="stroke:#000000;stroke-width:0.5;" x="670.154148" xlink:href="#m42366119cf" y="743.2025"/>
      </g>
     </g>
     <g id="text_3">
      <!-- Sep 15 2020 -->
      <g transform="translate(640.845085 756.031875)scale(0.12 -0.12)">
       <use xlink:href="#Constantia-83"/>
       <use x="50.976562" xlink:href="#Constantia-101"/>
       <use x="98.876953" xlink:href="#Constantia-112"/>
       <use x="154.833984" xlink:href="#Constantia-32"/>
       <use x="179.931641" xlink:href="#Constantia-49"/>
       <use x="211.230469" xlink:href="#Constantia-53"/>
       <use x="258.789062" xlink:href="#Constantia-32"/>
       <use x="283.886719" xlink:href="#Constantia-50"/>
       <use x="332.324219" xlink:href="#Constantia-48"/>
       <use x="386.181641" xlink:href="#Constantia-50"/>
       <use x="434.619141" xlink:href="#Constantia-48"/>
      </g>
     </g>
    </g>
    <g id="xtick_4">
     <g id="line2d_7">
      <g>
       <use style="stroke:#000000;stroke-width:0.5;" x="898.259292" xlink:href="#m42366119cf" y="743.2025"/>
      </g>
     </g>
     <g id="text_4">
      <!-- Oct 01 2020 -->
      <g transform="translate(868.15148 756.031875)scale(0.12 -0.12)">
       <defs>
        <path d="M 15.578125 35.015625 
Q 15.578125 19.09375 22.015625 10.625 
Q 28.46875 2.15625 40.921875 2.15625 
Q 53.171875 2.15625 59 9.84375 
Q 64.84375 17.53125 64.84375 33.984375 
Q 64.84375 49.421875 58.640625 57.71875 
Q 52.4375 66.015625 39.5 66.015625 
Q 26.953125 66.015625 21.265625 58.328125 
Q 15.578125 50.640625 15.578125 35.015625 
z
M 75.59375 35.640625 
Q 75.59375 18.75 65.984375 8.46875 
Q 56.390625 -1.8125 39.15625 -1.8125 
Q 22.796875 -1.8125 13.84375 7.6875 
Q 4.890625 17.1875 4.890625 33.40625 
Q 4.890625 50.296875 14.53125 60.125 
Q 24.171875 69.96875 41.265625 69.96875 
Q 57.671875 69.96875 66.625 60.765625 
Q 75.59375 51.5625 75.59375 35.640625 
z
" id="Constantia-79"/>
        <path d="M 42.96875 3.46875 
Q 39.9375 1.421875 35.46875 0.015625 
Q 31 -1.375 26.609375 -1.375 
Q 16.0625 -1.375 9.90625 4.796875 
Q 3.765625 10.984375 3.765625 21.296875 
Q 3.765625 32.46875 10.734375 39.421875 
Q 17.71875 46.390625 28.8125 46.390625 
Q 35.984375 46.390625 42.71875 43.453125 
Q 41.109375 36.921875 39.84375 30.078125 
L 37.9375 29.78125 
L 33.984375 41.5 
Q 31.734375 42.28125 28.90625 42.28125 
Q 21.625 42.28125 17.515625 37.203125 
Q 13.421875 32.125 13.421875 23.78125 
Q 13.421875 13.96875 18.0625 9.28125 
Q 22.703125 4.59375 32.765625 4.59375 
Q 37.40625 4.59375 42.671875 5.515625 
z
" id="Constantia-99"/>
        <path d="M 17.484375 39.9375 
Q 17.1875 23.4375 17.1875 13.328125 
Q 17.1875 8.25 18.703125 6.3125 
Q 20.21875 4.390625 24.46875 4.390625 
Q 27.828125 4.390625 33.25 5.28125 
L 33.546875 3.078125 
Q 25.09375 -1.171875 18.453125 -1.171875 
Q 13.140625 -1.171875 10.546875 1.6875 
Q 7.953125 4.546875 7.953125 10.296875 
Q 7.953125 19.78125 8.296875 40.234375 
L 1.5625 41.890625 
L 1.265625 43.890625 
L 8.796875 44.53125 
L 12.15625 56.34375 
Q 14.890625 57.078125 17.140625 57.765625 
L 17.625 57.421875 
Q 17.484375 51.515625 17.484375 46.390625 
L 17.484375 44.578125 
L 32.171875 44.578125 
L 32.171875 39.9375 
z
" id="Constantia-116"/>
       </defs>
       <use xlink:href="#Constantia-79"/>
       <use x="80.419922" xlink:href="#Constantia-99"/>
       <use x="126.5625" xlink:href="#Constantia-116"/>
       <use x="161.865234" xlink:href="#Constantia-32"/>
       <use x="186.962891" xlink:href="#Constantia-48"/>
       <use x="240.820312" xlink:href="#Constantia-49"/>
       <use x="272.119141" xlink:href="#Constantia-32"/>
       <use x="297.216797" xlink:href="#Constantia-50"/>
       <use x="345.654297" xlink:href="#Constantia-48"/>
       <use x="399.511719" xlink:href="#Constantia-50"/>
       <use x="447.949219" xlink:href="#Constantia-48"/>
      </g>
     </g>
    </g>
    <g id="xtick_5">
     <g id="line2d_8">
      <g>
       <use style="stroke:#000000;stroke-width:0.5;" x="1097.851294" xlink:href="#m42366119cf" y="743.2025"/>
      </g>
     </g>
     <g id="text_5">
      <!-- Oct 15 2020 -->
      <g transform="translate(1068.121294 756.031875)scale(0.12 -0.12)">
       <use xlink:href="#Constantia-79"/>
       <use x="80.419922" xlink:href="#Constantia-99"/>
       <use x="126.5625" xlink:href="#Constantia-116"/>
       <use x="161.865234" xlink:href="#Constantia-32"/>
       <use x="186.962891" xlink:href="#Constantia-49"/>
       <use x="218.261719" xlink:href="#Constantia-53"/>
       <use x="265.820312" xlink:href="#Constantia-32"/>
       <use x="290.917969" xlink:href="#Constantia-50"/>
       <use x="339.355469" xlink:href="#Constantia-48"/>
       <use x="393.212891" xlink:href="#Constantia-50"/>
       <use x="441.650391" xlink:href="#Constantia-48"/>
      </g>
     </g>
    </g>
   </g>
   <g id="matplotlib.axis_2">
    <g id="ytick_1">
     <g id="line2d_9">
      <defs>
       <path d="M 0 0 
L 4 0 
" id="m792ab0e532" style="stroke:#000000;stroke-width:0.5;"/>
      </defs>
      <g>
       <use style="stroke:#000000;stroke-width:0.5;" x="42.865" xlink:href="#m792ab0e532" y="743.2025"/>
      </g>
     </g>
     <g id="text_6">
      <!-- 0 -->
      <g transform="translate(32.401875 746.193125)scale(0.12 -0.12)">
       <use xlink:href="#Constantia-48"/>
      </g>
     </g>
    </g>
    <g id="ytick_2">
     <g id="line2d_10">
      <g>
       <use style="stroke:#000000;stroke-width:0.5;" x="42.865" xlink:href="#m792ab0e532" y="640.287179"/>
      </g>
     </g>
     <g id="text_7">
      <!-- 5000 -->
      <g transform="translate(13.768125 643.277804)scale(0.12 -0.12)">
       <use xlink:href="#Constantia-53"/>
       <use x="47.558594" xlink:href="#Constantia-48"/>
       <use x="101.416016" xlink:href="#Constantia-48"/>
       <use x="155.273438" xlink:href="#Constantia-48"/>
      </g>
     </g>
    </g>
    <g id="ytick_3">
     <g id="line2d_11">
      <g>
       <use style="stroke:#000000;stroke-width:0.5;" x="42.865" xlink:href="#m792ab0e532" y="537.371857"/>
      </g>
     </g>
     <g id="text_8">
      <!-- 10000 -->
      <g transform="translate(9.256875 540.362482)scale(0.12 -0.12)">
       <use xlink:href="#Constantia-49"/>
       <use x="31.298828" xlink:href="#Constantia-48"/>
       <use x="85.15625" xlink:href="#Constantia-48"/>
       <use x="139.013672" xlink:href="#Constantia-48"/>
       <use x="192.871094" xlink:href="#Constantia-48"/>
      </g>
     </g>
    </g>
    <g id="ytick_4">
     <g id="line2d_12">
      <g>
       <use style="stroke:#000000;stroke-width:0.5;" x="42.865" xlink:href="#m792ab0e532" y="434.456536"/>
      </g>
     </g>
     <g id="text_9">
      <!-- 15000 -->
      <g transform="translate(10.0125 437.447161)scale(0.12 -0.12)">
       <use xlink:href="#Constantia-49"/>
       <use x="31.298828" xlink:href="#Constantia-53"/>
       <use x="78.857422" xlink:href="#Constantia-48"/>
       <use x="132.714844" xlink:href="#Constantia-48"/>
       <use x="186.572266" xlink:href="#Constantia-48"/>
      </g>
     </g>
    </g>
    <g id="ytick_5">
     <g id="line2d_13">
      <g>
       <use style="stroke:#000000;stroke-width:0.5;" x="42.865" xlink:href="#m792ab0e532" y="331.541214"/>
      </g>
     </g>
     <g id="text_10">
      <!-- 20000 -->
      <g transform="translate(7.2 334.531839)scale(0.12 -0.12)">
       <use xlink:href="#Constantia-50"/>
       <use x="48.4375" xlink:href="#Constantia-48"/>
       <use x="102.294922" xlink:href="#Constantia-48"/>
       <use x="156.152344" xlink:href="#Constantia-48"/>
       <use x="210.009766" xlink:href="#Constantia-48"/>
      </g>
     </g>
    </g>
    <g id="ytick_6">
     <g id="line2d_14">
      <g>
       <use style="stroke:#000000;stroke-width:0.5;" x="42.865" xlink:href="#m792ab0e532" y="228.625893"/>
      </g>
     </g>
     <g id="text_11">
      <!-- 25000 -->
      <g transform="translate(7.955625 231.616518)scale(0.12 -0.12)">
       <use xlink:href="#Constantia-50"/>
       <use x="48.4375" xlink:href="#Constantia-53"/>
       <use x="95.996094" xlink:href="#Constantia-48"/>
       <use x="149.853516" xlink:href="#Constantia-48"/>
       <use x="203.710938" xlink:href="#Constantia-48"/>
      </g>
     </g>
    </g>
    <g id="ytick_7">
     <g id="line2d_15">
      <g>
       <use style="stroke:#000000;stroke-width:0.5;" x="42.865" xlink:href="#m792ab0e532" y="125.710571"/>
      </g>
     </g>
     <g id="text_12">
      <!-- 30000 -->
      <g transform="translate(7.53375 128.701196)scale(0.12 -0.12)">
       <defs>
        <path d="M 10.25 16.21875 
Q 19 17.140625 24.265625 20.75 
Q 29.546875 24.359375 29.546875 30.125 
Q 29.546875 34.71875 26.09375 37.59375 
Q 22.65625 40.484375 17.390625 40.484375 
Q 10.5 40.484375 3.46875 36.8125 
L 1.46875 40.046875 
Q 11.140625 46.390625 21.34375 46.390625 
Q 28.90625 46.390625 34.078125 42.75 
Q 39.265625 39.109375 39.265625 33.203125 
Q 39.265625 22.359375 23.25 17 
L 23.25 16.796875 
Q 32.421875 16.453125 37.5625 12.15625 
Q 42.71875 7.859375 42.71875 1.609375 
Q 42.71875 -8.5 31.96875 -15.140625 
Q 21.234375 -21.78125 1.03125 -22.46875 
L 0.484375 -18.84375 
Q 16.546875 -17.78125 24.53125 -12.625 
Q 32.515625 -7.46875 32.515625 0.25 
Q 32.515625 6.296875 28.359375 9.765625 
Q 24.21875 13.234375 16.84375 13.234375 
Q 13.96875 13.234375 10.59375 12.640625 
z
" id="Constantia-51"/>
       </defs>
       <use xlink:href="#Constantia-51"/>
       <use x="45.654297" xlink:href="#Constantia-48"/>
       <use x="99.511719" xlink:href="#Constantia-48"/>
       <use x="153.369141" xlink:href="#Constantia-48"/>
       <use x="207.226562" xlink:href="#Constantia-48"/>
      </g>
     </g>
    </g>
    <g id="ytick_8">
     <g id="line2d_16">
      <g>
       <use style="stroke:#000000;stroke-width:0.5;" x="42.865" xlink:href="#m792ab0e532" y="22.79525"/>
      </g>
     </g>
     <g id="text_13">
      <!-- 35000 -->
      <g transform="translate(8.289375 25.785875)scale(0.12 -0.12)">
       <use xlink:href="#Constantia-51"/>
       <use x="45.654297" xlink:href="#Constantia-53"/>
       <use x="93.212891" xlink:href="#Constantia-48"/>
       <use x="147.070312" xlink:href="#Constantia-48"/>
       <use x="200.927734" xlink:href="#Constantia-48"/>
      </g>
     </g>
    </g>
   </g>
   <g id="text_14">
    <!-- tempname -->
    <g transform="translate(600.923594 17.79525)scale(0.144 -0.144)">
     <defs>
      <path d="M 47.65625 36.859375 
Q 48.34375 34.515625 48.34375 31.59375 
L 48.34375 14.15625 
Q 48.34375 8.453125 48.4375 4.984375 
Q 48.53125 3.65625 49.703125 3.265625 
L 54.640625 1.859375 
L 54.734375 -0.140625 
Q 48.78125 0 44 0 
Q 39.203125 0 33.34375 -0.140625 
L 33.15625 1.859375 
L 37.796875 3.21875 
Q 39.203125 3.71875 39.265625 4.78125 
Q 39.3125 5.46875 39.3125 7.859375 
L 39.3125 29.15625 
Q 39.3125 35.15625 36.578125 37.765625 
Q 33.84375 40.375 28.46875 40.375 
Q 23.734375 40.375 18.796875 37.546875 
L 18.796875 16.21875 
Q 18.796875 10.109375 18.890625 5.03125 
Q 18.953125 3.5625 19.921875 3.375 
L 25.09375 1.859375 
L 25.203125 -0.140625 
Q 19.140625 0 14.359375 0 
Q 9.578125 0 3.03125 -0.140625 
L 2.828125 1.859375 
L 8.453125 3.515625 
Q 9.671875 3.859375 9.71875 5.03125 
Q 9.765625 7.625 9.765625 11.03125 
L 9.765625 27.6875 
Q 9.765625 34.078125 9.578125 39.546875 
L 3.078125 41.3125 
L 2.828125 42.96875 
Q 10.890625 44.53125 18.265625 46.390625 
L 18.75 46.046875 
L 18.75 40.375 
Q 26.765625 46.390625 33.9375 46.390625 
Q 42.71875 46.390625 46.625 39.59375 
Q 54.34375 46.390625 63.375 46.390625 
Q 70.171875 46.390625 74 42.546875 
Q 77.828125 38.71875 77.828125 31.59375 
L 77.828125 14.3125 
Q 77.828125 8.15625 77.9375 5.21875 
Q 78.03125 3.90625 79.25 3.515625 
L 84.671875 1.859375 
L 84.765625 -0.140625 
Q 78.328125 0 73.53125 0 
Q 68.703125 0 62.890625 -0.140625 
L 62.703125 1.859375 
L 67.53125 3.265625 
Q 68.65625 3.65625 68.796875 4.78125 
Q 68.84375 5.46875 68.84375 7.859375 
L 68.84375 29.15625 
Q 68.84375 35.15625 66.0625 37.765625 
Q 63.28125 40.375 57.859375 40.375 
Q 52.390625 40.375 47.65625 36.859375 
z
" id="Constantia-109"/>
      <path d="M 2.828125 42.96875 
Q 11.03125 44.53125 18.3125 46.390625 
L 18.796875 46.046875 
L 18.796875 40.375 
Q 27.296875 46.390625 34.625 46.390625 
Q 41.546875 46.390625 45.484375 42.5 
Q 49.421875 38.625 49.421875 31.5 
L 49.421875 14.265625 
Q 49.421875 8.15625 49.515625 5.21875 
Q 49.5625 3.90625 50.78125 3.515625 
L 56.203125 1.859375 
L 56.296875 -0.140625 
Q 49.859375 0 45.0625 0 
Q 40.28125 0 34.421875 -0.140625 
L 34.234375 1.859375 
L 39.109375 3.265625 
Q 40.234375 3.65625 40.328125 4.78125 
Q 40.375 5.46875 40.375 7.859375 
L 40.375 29.15625 
Q 40.375 35.15625 37.5 37.765625 
Q 34.625 40.375 29 40.375 
Q 24.078125 40.375 18.796875 37.546875 
L 18.796875 16.21875 
Q 18.796875 10.109375 18.890625 5.03125 
Q 18.953125 3.71875 20.015625 3.375 
L 25.09375 1.859375 
L 25.203125 -0.140625 
Q 19.140625 0 14.359375 0 
Q 9.578125 0 3.03125 -0.140625 
L 2.828125 1.859375 
L 8.59375 3.515625 
Q 9.671875 3.953125 9.71875 5.03125 
Q 9.765625 8.15625 9.765625 11.03125 
L 9.765625 27.6875 
Q 9.765625 34.078125 9.578125 39.546875 
L 3.078125 41.3125 
z
" id="Constantia-110"/>
      <path d="M 30.125 22.125 
Q 19.4375 22.125 15.53125 20.015625 
Q 11.625 17.921875 11.625 12.9375 
Q 11.625 8.296875 14.203125 6.359375 
Q 16.796875 4.4375 21.234375 4.4375 
Q 26.265625 4.4375 30.03125 6.15625 
z
M 6.453125 42.234375 
Q 15.96875 46.390625 23.296875 46.390625 
Q 30.765625 46.390625 34.9375 42.484375 
Q 39.109375 38.578125 39.0625 31.203125 
L 38.8125 10.890625 
Q 38.765625 8.40625 38.9375 6.890625 
Q 39.109375 5.375 39.8125 4.5625 
Q 40.53125 3.765625 41.9375 3.4375 
Q 43.359375 3.125 45.75 3.078125 
L 46 1.171875 
Q 43.890625 0.34375 40.859375 -0.484375 
Q 37.84375 -1.3125 36.765625 -1.3125 
Q 32.03125 -1.3125 30.28125 3.5625 
Q 23.4375 -1.375 17.390625 -1.375 
Q 10.59375 -1.375 6.46875 1.96875 
Q 2.34375 5.328125 2.34375 11.421875 
Q 2.34375 18.953125 9.046875 22.515625 
Q 15.765625 26.078125 30.125 26.078125 
L 30.171875 29.890625 
Q 30.21875 35.359375 27.390625 37.984375 
Q 24.5625 40.625 18.703125 40.625 
Q 14.265625 40.625 7.5625 38.96875 
z
" id="Constantia-97"/>
     </defs>
     <use xlink:href="#Constantia-116"/>
     <use x="35.302734" xlink:href="#Constantia-101"/>
     <use x="83.203125" xlink:href="#Constantia-109"/>
     <use x="169.824219" xlink:href="#Constantia-112"/>
     <use x="225.78125" xlink:href="#Constantia-110"/>
     <use x="283.984375" xlink:href="#Constantia-97"/>
     <use x="331.982422" xlink:href="#Constantia-109"/>
     <use x="418.603516" xlink:href="#Constantia-101"/>
    </g>
   </g>
   <g id="legend_1">
    <g id="patch_5">
     <path d="M 1291.825209 90.647125 
L 1369.276772 90.647125 
L 1369.276772 29.29525 
L 1291.825209 29.29525 
z
" style="fill:#ffffff;stroke:#000000;stroke-linejoin:miter;"/>
    </g>
    <g id="line2d_17">
     <path d="M 1300.925209 39.510406 
L 1319.125209 39.510406 
" style="fill:none;stroke:#008000;stroke-linecap:square;"/>
    </g>
    <g id="line2d_18"/>
    <g id="text_15">
     <!-- Israel -->
     <g transform="translate(1333.425209 44.060406)scale(0.13 -0.13)">
      <defs>
       <path d="M 21.78125 14.984375 
Q 21.78125 12.0625 21.796875 9.671875 
Q 21.828125 7.28125 21.875 5.328125 
Q 21.921875 4.109375 23.578125 3.65625 
L 29.109375 1.953125 
L 29.203125 -0.140625 
Q 22.90625 0 17.09375 0 
Q 11.1875 0 4.984375 -0.140625 
L 4.78125 1.953125 
L 10.796875 3.765625 
Q 12.015625 4.109375 12.109375 5.28125 
Q 12.15625 7.234375 12.171875 9.640625 
Q 12.203125 12.0625 12.203125 14.984375 
L 12.203125 54.59375 
Q 12.203125 57.078125 12.171875 59.078125 
Q 12.15625 61.078125 12.109375 62.703125 
Q 12.0625 63.96875 10.9375 64.359375 
L 4.890625 66.265625 
L 4.78125 68.359375 
Q 11.078125 68.171875 16.890625 68.171875 
Q 22.75 68.171875 29 68.359375 
L 29.203125 66.265625 
L 23.140625 64.453125 
Q 21.96875 64.15625 21.875 62.9375 
Q 21.828125 61.234375 21.796875 59.203125 
Q 21.78125 57.171875 21.78125 54.78125 
z
" id="Constantia-73"/>
       <path d="M 27.875 41.453125 
Q 25.046875 42.234375 21.734375 42.234375 
Q 17.140625 42.234375 14.328125 40.453125 
Q 11.53125 38.671875 11.53125 35.59375 
Q 11.53125 32.625 13.359375 30.90625 
Q 15.1875 29.203125 20.171875 27.546875 
L 24.171875 26.171875 
Q 30.90625 23.875 34.046875 20.921875 
Q 37.203125 17.96875 37.203125 13.1875 
Q 37.203125 6.390625 31.921875 2.5 
Q 26.65625 -1.375 18.609375 -1.375 
Q 11.1875 -1.375 3.421875 1.65625 
Q 5.078125 8.015625 6.109375 14.0625 
L 8.015625 14.359375 
L 11.53125 3.859375 
Q 14.3125 2.78125 18.609375 2.78125 
Q 23.140625 2.78125 25.84375 4.640625 
Q 28.5625 6.5 28.5625 9.859375 
Q 28.5625 12.984375 26.734375 14.796875 
Q 24.90625 16.609375 20.90625 17.921875 
L 15.828125 19.625 
Q 9.234375 21.828125 6.71875 24.921875 
Q 4.203125 28.03125 4.203125 32.625 
Q 4.203125 39.015625 9.0625 42.703125 
Q 13.921875 46.390625 21.875 46.390625 
Q 29.296875 46.390625 35.359375 44.234375 
Q 33.984375 38.671875 32.859375 32.46875 
L 31 32.125 
z
" id="Constantia-115"/>
       <path d="M 2.828125 42.96875 
Q 10.984375 44.53125 18.3125 46.390625 
L 18.796875 46.046875 
L 18.796875 40.328125 
Q 27.828125 46.390625 36.53125 46.390625 
L 36.765625 46.09375 
Q 35.359375 38.8125 33.984375 31 
L 32.03125 30.671875 
Q 30.671875 34.8125 29.390625 37.328125 
Q 28.125 39.84375 25.390625 39.84375 
Q 22.75 39.84375 18.796875 37.40625 
L 18.796875 16.265625 
Q 18.796875 8.640625 18.890625 5.375 
Q 18.953125 4.046875 20.125 3.71875 
L 26.609375 1.859375 
L 26.765625 -0.140625 
Q 19.140625 0 14.359375 0 
Q 9.578125 0 3.03125 -0.140625 
L 2.828125 1.859375 
L 8.5 3.515625 
Q 9.671875 3.90625 9.71875 5.03125 
Q 9.765625 7.125 9.765625 11.03125 
L 9.765625 27.6875 
Q 9.765625 35.640625 9.578125 39.546875 
L 3.078125 41.3125 
z
" id="Constantia-114"/>
       <path d="M 2.734375 68.5 
L 2.484375 70.125 
Q 11.140625 71.78125 18.40625 73.578125 
L 18.84375 73.1875 
Q 18.5625 65.234375 18.5625 51.078125 
L 18.5625 19.28125 
Q 18.5625 10.546875 18.65625 5.21875 
Q 18.796875 3.8125 20.015625 3.46875 
L 25.34375 1.859375 
L 25.484375 -0.140625 
Q 18.890625 0 14.109375 0 
Q 9.328125 0 2.78125 -0.140625 
L 2.59375 1.859375 
L 8.109375 3.46875 
Q 9.328125 3.859375 9.421875 5.03125 
Q 9.515625 10.546875 9.515625 17.328125 
L 9.515625 37.40625 
Q 9.515625 55.5625 9.328125 66.546875 
z
" id="Constantia-108"/>
      </defs>
      <use xlink:href="#Constantia-73"/>
      <use x="32.984375" xlink:href="#Constantia-115"/>
      <use x="73.462891" xlink:href="#Constantia-114"/>
      <use x="111.792969" xlink:href="#Constantia-97"/>
      <use x="159.791016" xlink:href="#Constantia-101"/>
      <use x="207.691406" xlink:href="#Constantia-108"/>
     </g>
    </g>
    <g id="line2d_19">
     <path d="M 1300.925209 58.661031 
L 1319.125209 58.661031 
" style="fill:none;stroke:#ff0000;stroke-linecap:square;"/>
    </g>
    <g id="line2d_20"/>
    <g id="text_16">
     <!-- USA -->
     <g transform="translate(1333.425209 63.211031)scale(0.13 -0.13)">
      <defs>
       <path d="M 3.078125 68.359375 
Q 9.375 68.171875 15.1875 68.171875 
Q 21.046875 68.171875 27.296875 68.359375 
L 27.484375 66.265625 
L 21.4375 64.453125 
Q 20.265625 64.15625 20.171875 62.9375 
Q 20.125 61.234375 20.09375 59.203125 
Q 20.0625 57.171875 20.0625 54.78125 
L 20.0625 28.078125 
Q 20.0625 14.109375 24.5 8.71875 
Q 28.953125 3.328125 38.8125 3.328125 
Q 48.828125 3.328125 53.3125 8.890625 
Q 57.8125 14.453125 57.8125 27.484375 
L 57.8125 54.78125 
Q 57.8125 57.171875 57.78125 59.203125 
Q 57.765625 61.234375 57.671875 62.9375 
Q 57.625 64.0625 56.390625 64.453125 
L 50.6875 66.109375 
L 50.59375 68.359375 
Q 56.78125 68.171875 61.234375 68.171875 
Q 65.484375 68.171875 71.578125 68.359375 
L 71.78125 66.265625 
L 65.625 64.359375 
Q 64.5 63.96875 64.453125 62.703125 
Q 64.40625 61.078125 64.375 59.078125 
Q 64.359375 57.078125 64.359375 54.59375 
L 64.359375 29.546875 
Q 64.359375 13.53125 57.828125 5.859375 
Q 51.3125 -1.8125 37.3125 -1.8125 
Q 23.578125 -1.8125 17.03125 5.09375 
Q 10.5 12.015625 10.5 26.5625 
L 10.5 54.59375 
Q 10.5 57.078125 10.46875 59.078125 
Q 10.453125 61.078125 10.40625 62.703125 
Q 10.359375 63.96875 9.234375 64.359375 
L 3.171875 66.265625 
z
" id="Constantia-85"/>
      </defs>
      <use xlink:href="#Constantia-85"/>
      <use x="74.365234" xlink:href="#Constantia-83"/>
      <use x="125.341797" xlink:href="#Constantia-65"/>
     </g>
    </g>
    <g id="line2d_21">
     <path d="M 1300.925209 77.811656 
L 1319.125209 77.811656 
" style="fill:none;stroke:#0000ff;stroke-linecap:square;"/>
    </g>
    <g id="line2d_22"/>
    <g id="text_17">
     <!-- UK -->
     <g transform="translate(1333.425209 82.361656)scale(0.13 -0.13)">
      <defs>
       <path d="M 21.78125 54.78125 
L 21.78125 14.984375 
Q 21.78125 12.0625 21.796875 9.671875 
Q 21.828125 7.28125 21.875 5.328125 
Q 21.921875 4.046875 23.140625 3.65625 
L 28.5625 1.953125 
L 28.71875 -0.140625 
Q 22.90625 0 17.09375 0 
Q 11.1875 0 4.984375 -0.140625 
L 4.78125 1.953125 
L 10.796875 3.765625 
Q 12.0625 4.15625 12.109375 5.28125 
Q 12.15625 7.234375 12.171875 9.640625 
Q 12.203125 12.0625 12.203125 14.984375 
L 12.203125 54.59375 
Q 12.203125 57.078125 12.171875 59.078125 
Q 12.15625 61.078125 12.109375 62.703125 
Q 12.0625 63.96875 10.9375 64.359375 
L 4.890625 66.265625 
L 4.78125 68.359375 
Q 11.078125 68.171875 16.890625 68.171875 
Q 22.703125 68.171875 28.46875 68.359375 
L 28.71875 66.265625 
L 23.140625 64.546875 
Q 21.96875 64.265625 21.875 63.03125 
Q 21.828125 61.28125 21.796875 59.21875 
Q 21.78125 57.171875 21.78125 54.78125 
z
M 23.046875 34.578125 
L 42.71875 56.5 
Q 45.015625 59.078125 46.4375 60.859375 
Q 47.859375 62.640625 47.859375 63.71875 
Q 47.859375 64.703125 46.53125 65.046875 
L 42.53125 66.109375 
L 42.4375 68.359375 
Q 47.265625 68.171875 53.21875 68.171875 
Q 58.9375 68.171875 63.96875 68.359375 
L 64.15625 66.265625 
L 59.234375 64.703125 
Q 56.984375 63.96875 55.34375 62.453125 
Q 53.71875 60.9375 51.859375 58.890625 
L 32.328125 37.40625 
L 54.546875 8.109375 
Q 55.953125 6.25 57.3125 5.09375 
Q 58.6875 3.953125 60.890625 3.328125 
L 65.328125 1.953125 
L 65.4375 -0.140625 
Q 61.328125 0 55.03125 0 
Q 53.375 0 51.65625 -0.015625 
Q 49.953125 -0.046875 48.25 -0.09375 
Q 46.53125 3.421875 39.203125 13.140625 
z
" id="Constantia-75"/>
      </defs>
      <use xlink:href="#Constantia-85"/>
      <use x="74.365234" xlink:href="#Constantia-75"/>
     </g>
    </g>
   </g>
  </g>
 </g>
 <defs>
  <clipPath id="p3159702c38">
   <rect height="720.40725" width="1183.295437" x="42.865" y="22.79525"/>
  </clipPath>
 </defs>
</svg>
