<?xml version="1.0" encoding="utf-8" standalone="no"?>
<!DOCTYPE svg PUBLIC "-//W3C//DTD SVG 1.1//EN"
  "http://www.w3.org/Graphics/SVG/1.1/DTD/svg11.dtd">
<!-- Created with matplotlib (https://matplotlib.org/) -->
<svg height="766.08pt" version="1.1" viewBox="0 0 1370.987223 766.08" width="1370.987223pt" xmlns="http://www.w3.org/2000/svg" xmlns:xlink="http://www.w3.org/1999/xlink">
 <metadata>
  <rdf:RDF xmlns:cc="http://creativecommons.org/ns#" xmlns:dc="http://purl.org/dc/elements/1.1/" xmlns:rdf="http://www.w3.org/1999/02/22-rdf-syntax-ns#">
   <cc:Work>
    <dc:type rdf:resource="http://purl.org/dc/dcmitype/StillImage"/>
    <dc:date>2020-10-27T19:29:12.607076</dc:date>
    <dc:format>image/svg+xml</dc:format>
    <dc:creator>
     <cc:Agent>
      <dc:title>Matplotlib v3.3.2, https://matplotlib.org/</dc:title>
     </cc:Agent>
    </dc:creator>
   </cc:Work>
  </rdf:RDF>
 </metadata>
 <defs>
  <style type="text/css">*{stroke-linecap:butt;stroke-linejoin:round;}</style>
 </defs>
 <g id="figure_1">
  <g id="patch_1">
   <path d="M 0 766.08 
L 1370.987223 766.08 
L 1370.987223 0 
L 0 0 
z
" style="fill:#ffffff;"/>
  </g>
  <g id="axes_1">
   <g id="patch_2">
    <path d="M 46.824375 669.832125 
L 1225.407859 669.832125 
L 1225.407859 43.753062 
L 46.824375 43.753062 
z
" style="fill:#808080;opacity:0.1;"/>
   </g>
   <g id="line2d_1">
    <path clip-path="url(#p98d0b1d4fe)" d="M 46.824375 355.183518 
L 130.018503 339.442169 
L 185.481255 339.231911 
L 240.944008 329.654571 
L 254.809696 330.464143 
L 268.675384 330.704923 
L 282.541072 331.772127 
L 296.40676 331.134152 
L 338.003824 321.741401 
L 351.869512 320.734092 
L 365.7352 322.278838 
L 379.600888 321.497074 
L 393.466576 320.313054 
L 407.332264 317.372934 
L 421.197952 316.185941 
L 435.06364 313.298255 
L 448.929328 312.878469 
L 462.795016 310.129565 
L 476.660704 310.582742 
L 490.526392 308.323796 
L 504.39208 308.114947 
L 518.257768 304.351011 
L 532.123457 304.534453 
L 545.989145 301.894069 
L 559.854833 302.983603 
L 573.720521 301.783409 
L 587.586209 300.272159 
L 601.451897 296.487772 
L 615.317585 293.354298 
L 629.183273 292.358832 
L 643.048961 291.312289 
L 656.914649 290.915877 
L 670.780337 288.983066 
L 698.511713 285.742742 
L 712.377401 281.632063 
L 726.243089 281.826304 
L 740.108777 280.315367 
L 753.974465 282.354976 
L 767.840153 281.948024 
L 781.705841 279.809025 
L 795.571529 275.120476 
L 809.437217 271.654659 
L 823.302905 269.375679 
L 837.168594 268.289953 
L 851.034282 268.357361 
L 864.89997 265.824767 
L 878.765658 263.595925 
L 892.631346 258.509711 
L 906.497034 255.063355 
L 920.362722 253.296612 
L 934.22841 262.409036 
L 948.094098 259.277806 
L 961.959786 256.273879 
L 975.825474 251.075544 
L 989.691162 246.255831 
L 1003.55685 238.115081 
L 1031.288226 232.32025 
L 1045.153914 229.583085 
L 1059.019602 224.759928 
L 1072.88529 223.566308 
L 1086.750978 209.612363 
L 1100.616666 203.545656 
L 1114.482354 198.162629 
L 1128.348042 192.217486 
L 1142.21373 184.750293 
L 1156.079419 178.047387 
L 1169.945107 167.322287 
L 1183.810795 155.958848 
L 1197.676483 143.288781 
L 1211.542171 133.375028 
L 1225.407859 124.094554 
" style="fill:none;stroke:#17becf;stroke-linecap:square;stroke-width:3;"/>
   </g>
   <g id="line2d_2">
    <path clip-path="url(#p98d0b1d4fe)" d="M 46.824375 620.515095 
L 130.018503 617.660435 
L 185.481255 616.227862 
L 240.944008 615.248778 
L 254.809696 614.530666 
L 268.675384 612.930512 
L 282.541072 612.927695 
L 296.40676 612.125427 
L 338.003824 609.087221 
L 351.869512 608.859902 
L 365.7352 607.374373 
L 379.600888 606.590679 
L 393.466576 605.022612 
L 407.332264 604.09351 
L 421.197952 604.180379 
L 435.06364 602.931299 
L 448.929328 602.510156 
L 462.795016 601.074192 
L 476.660704 599.945215 
L 490.526392 598.776638 
L 504.39208 598.792029 
L 518.257768 596.3114 
L 532.123457 595.758207 
L 545.989145 594.012646 
L 559.854833 592.847461 
L 573.720521 591.59499 
L 587.586209 589.943811 
L 601.451897 587.613336 
L 615.317585 586.449246 
L 629.183273 585.250305 
L 643.048961 583.317859 
L 656.914649 582.241995 
L 670.780337 580.000997 
L 698.511713 577.714608 
L 712.377401 575.580931 
L 726.243089 574.548735 
L 740.108777 572.037741 
L 753.974465 570.958328 
L 767.840153 569.468312 
L 781.705841 566.604522 
L 795.571529 562.780849 
L 809.437217 560.032518 
L 823.302905 558.26661 
L 837.168594 556.158341 
L 851.034282 554.823071 
L 864.89997 551.868291 
L 878.765658 549.372739 
L 892.631346 545.411329 
L 906.497034 543.171113 
L 920.362722 541.663202 
L 934.22841 549.211628 
L 948.094098 546.023686 
L 961.959786 542.559121 
L 975.825474 537.92431 
L 989.691162 533.414193 
L 1003.55685 528.899693 
L 1031.288226 520.087004 
L 1045.153914 515.927805 
L 1059.019602 510.153112 
L 1072.88529 508.216545 
L 1086.750978 496.032995 
L 1100.616666 490.236233 
L 1114.482354 484.011859 
L 1128.348042 477.461037 
L 1142.21373 471.189604 
L 1156.079419 463.543665 
L 1169.945107 452.838235 
L 1183.810795 443.149557 
L 1197.676483 434.263617 
L 1211.542171 425.347416 
L 1225.407859 415.332551 
" style="fill:none;stroke:#bcbd22;stroke-linecap:square;stroke-width:3;"/>
   </g>
   <g id="line2d_3">
    <path clip-path="url(#p98d0b1d4fe)" d="M 46.824375 539.591924 
L 130.018503 534.938226 
L 185.481255 532.346363 
L 240.944008 528.218363 
L 254.809696 526.886171 
L 268.675384 527.09356 
L 282.541072 527.389643 
L 296.40676 527.609188 
L 338.003824 524.108415 
L 351.869512 523.788488 
L 365.7352 524.112015 
L 379.600888 523.709654 
L 393.466576 524.235822 
L 407.332264 523.276564 
L 421.197952 523.213069 
L 435.06364 521.797244 
L 448.929328 521.324658 
L 462.795016 520.390392 
L 476.660704 521.23779 
L 490.526392 521.01021 
L 504.39208 521.00228 
L 518.257768 522.253916 
L 532.123457 522.453114 
L 545.989145 521.787539 
L 559.854833 522.761301 
L 573.720521 523.262112 
L 587.586209 523.678194 
L 601.451897 522.617094 
L 615.317585 522.328837 
L 629.183273 521.932164 
L 643.048961 522.578277 
L 656.914649 522.708658 
L 670.780337 523.144931 
L 698.511713 522.799335 
L 712.377401 521.605716 
L 726.243089 521.330554 
L 740.108777 521.552447 
L 753.974465 521.628463 
L 767.840153 521.814983 
L 781.705841 521.795992 
L 795.571529 521.677663 
L 809.437217 520.926316 
L 823.302905 520.063109 
L 837.168594 520.940246 
L 851.034282 521.384345 
L 864.89997 521.045323 
L 878.765658 521.179408 
L 892.631346 520.577694 
L 906.497034 520.302636 
L 920.362722 519.857233 
L 934.22841 519.498281 
L 948.094098 518.739108 
L 961.959786 518.357252 
L 975.825474 517.513872 
L 989.691162 517.553367 
L 1003.55685 516.258479 
L 1031.288226 515.462054 
L 1045.153914 515.416872 
L 1059.019602 514.701211 
L 1072.88529 514.675386 
L 1086.750978 512.664941 
L 1100.616666 512.855948 
L 1114.482354 512.551204 
L 1128.348042 511.439653 
L 1142.21373 509.831725 
L 1156.079419 508.462751 
L 1169.945107 507.913575 
L 1183.810795 506.451889 
L 1197.676483 503.420049 
L 1211.542171 501.363327 
L 1225.407859 500.265289 
" style="fill:none;stroke:#7f7f7f;stroke-linecap:square;stroke-width:3;"/>
   </g>
   <g id="line2d_4">
    <path clip-path="url(#p98d0b1d4fe)" d="M 46.824375 614.983164 
L 130.018503 611.947098 
L 185.481255 610.185521 
L 240.944008 607.671552 
L 254.809696 609.876133 
L 268.675384 609.530277 
L 282.541072 609.235654 
L 296.40676 608.419978 
L 338.003824 607.884941 
L 351.869512 607.868037 
L 365.7352 608.204554 
L 379.600888 607.119716 
L 393.466576 606.168649 
L 407.332264 605.442554 
L 421.197952 605.009516 
L 435.06364 604.516218 
L 448.929328 604.237561 
L 462.795016 603.169105 
L 476.660704 602.223204 
L 490.526392 601.119687 
L 504.39208 601.229929 
L 518.257768 599.027435 
L 532.123457 600.049561 
L 545.989145 599.186668 
L 559.854833 598.252193 
L 573.720521 596.578788 
L 587.586209 594.917852 
L 601.451897 593.81611 
L 615.317585 592.567343 
L 629.183273 592.458196 
L 643.048961 592.180582 
L 656.914649 591.487774 
L 670.780337 590.250433 
L 698.511713 589.136169 
L 712.377401 589.101943 
L 726.243089 590.206972 
L 740.108777 590.523716 
L 753.974465 591.712067 
L 767.840153 591.176769 
L 781.705841 590.654671 
L 795.571529 590.044609 
L 809.437217 590.513438 
L 823.302905 590.879486 
L 837.168594 591.117083 
L 851.034282 591.246733 
L 864.89997 590.944024 
L 878.765658 590.229981 
L 892.631346 589.847968 
L 906.497034 589.961549 
L 920.362722 590.367353 
L 934.22841 591.393549 
L 948.094098 591.784222 
L 961.959786 591.52106 
L 975.825474 591.666363 
L 989.691162 591.887577 
L 1003.55685 591.331671 
L 1031.288226 594.221235 
L 1045.153914 594.56057 
L 1059.019602 595.244144 
L 1072.88529 595.046616 
L 1086.750978 595.584418 
L 1100.616666 595.796293 
L 1114.482354 596.718351 
L 1128.348042 597.829485 
L 1142.21373 598.107621 
L 1156.079419 598.858029 
L 1169.945107 599.383465 
L 1183.810795 599.516038 
L 1197.676483 599.668488 
L 1211.542171 600.678458 
L 1225.407859 601.954042 
" style="fill:none;stroke:#e377c2;stroke-linecap:square;stroke-width:3;"/>
   </g>
   <g id="line2d_5">
    <path clip-path="url(#p98d0b1d4fe)" d="M 46.824375 606.808346 
L 130.018503 600.312306 
L 185.481255 605.265374 
L 240.944008 602.065484 
L 254.809696 602.743736 
L 268.675384 604.523888 
L 282.541072 605.314573 
L 296.40676 605.900531 
L 338.003824 603.728402 
L 351.869512 603.305694 
L 365.7352 605.365025 
L 379.600888 606.54101 
L 393.466576 607.170689 
L 407.332264 606.858797 
L 421.197952 606.015991 
L 435.06364 606.357204 
L 448.929328 607.12055 
L 462.795016 607.815237 
L 476.660704 609.026805 
L 490.526392 609.347253 
L 504.39208 608.947449 
L 518.257768 608.606288 
L 532.123457 608.136207 
L 545.989145 608.800321 
L 559.854833 610.960033 
L 573.720521 612.221686 
L 587.586209 613.575165 
L 601.451897 614.261452 
L 615.317585 613.844014 
L 629.183273 614.036481 
L 643.048961 614.545796 
L 656.914649 615.750529 
L 670.780337 616.661317 
L 698.511713 617.107242 
L 712.377401 616.481163 
L 726.243089 616.923331 
L 740.108777 617.372073 
L 753.974465 619.211546 
L 767.840153 620.642189 
L 781.705841 621.837165 
L 795.571529 621.64908 
L 809.437217 621.207277 
L 823.302905 621.204356 
L 837.168594 621.134391 
L 851.034282 622.008189 
L 864.89997 623.100906 
L 878.765658 623.969016 
L 892.631346 623.939591 
L 906.497034 622.95769 
L 920.362722 622.826526 
L 934.22841 623.53817 
L 948.094098 623.966564 
L 961.959786 625.206305 
L 975.825474 625.323956 
L 989.691162 624.856118 
L 1003.55685 623.463666 
L 1031.288226 624.578139 
L 1045.153914 625.777811 
L 1059.019602 626.957031 
L 1072.88529 627.969401 
L 1086.750978 627.871524 
L 1100.616666 627.459042 
L 1114.482354 627.842307 
L 1128.348042 628.385743 
L 1142.21373 628.801616 
L 1156.079419 630.411631 
L 1169.945107 630.592359 
L 1183.810795 630.451856 
L 1197.676483 629.827551 
L 1211.542171 629.976714 
L 1225.407859 630.569455 
" style="fill:none;stroke:#8c564b;stroke-linecap:square;stroke-width:3;"/>
   </g>
   <g id="line2d_6">
    <path clip-path="url(#p98d0b1d4fe)" d="M 46.824375 653.002546 
L 130.018503 654.399172 
L 185.481255 655.039181 
L 240.944008 656.285026 
L 254.809696 656.228731 
L 268.675384 656.420677 
L 282.541072 656.693908 
L 296.40676 656.740707 
L 338.003824 656.551006 
L 351.869512 656.516623 
L 365.7352 656.839367 
L 379.600888 657.133468 
L 393.466576 657.303031 
L 407.332264 657.283048 
L 421.197952 657.344978 
L 435.06364 657.266875 
L 448.929328 657.245432 
L 462.795016 657.240736 
L 476.660704 657.70513 
L 490.526392 657.615183 
L 504.39208 657.689895 
L 518.257768 657.683374 
L 532.123457 657.665531 
L 545.989145 657.630105 
L 559.854833 657.677635 
L 573.720521 657.637931 
L 587.586209 657.663444 
L 601.451897 657.679304 
L 615.317585 657.661565 
L 629.183273 658.172811 
L 643.048961 658.176724 
L 656.914649 658.217837 
L 670.780337 658.414165 
L 698.511713 658.47046 
L 712.377401 658.332931 
L 726.243089 658.28274 
L 740.108777 658.295523 
L 753.974465 658.302879 
L 767.840153 658.295731 
L 781.705841 658.350983 
L 795.571529 658.399034 
L 809.437217 658.404878 
L 823.302905 658.392826 
L 837.168594 658.36507 
L 851.034282 658.323122 
L 864.89997 658.290723 
L 878.765658 658.271784 
L 892.631346 658.159977 
L 906.497034 658.09716 
L 920.362722 658.008987 
L 934.22841 658.193367 
L 948.094098 658.19415 
L 961.959786 658.057769 
L 975.825474 658.081351 
L 989.691162 657.97857 
L 1003.55685 657.604279 
L 1031.288226 657.416716 
L 1045.153914 657.363813 
L 1059.019602 657.169467 
L 1072.88529 657.122772 
L 1086.750978 656.923053 
L 1100.616666 656.654204 
L 1114.482354 656.494971 
L 1128.348042 656.557736 
L 1142.21373 656.296661 
L 1156.079419 656.249183 
L 1169.945107 656.087446 
L 1183.810795 655.882979 
L 1197.676483 655.631713 
L 1211.542171 655.532271 
L 1225.407859 655.496636 
" style="fill:none;stroke:#9467bd;stroke-linecap:square;stroke-width:3;"/>
   </g>
   <g id="line2d_7">
    <path clip-path="url(#p98d0b1d4fe)" d="M 46.824375 669.445939 
L 130.018503 669.348427 
L 185.481255 669.331105 
L 240.944008 669.328862 
L 254.809696 669.3622 
L 268.675384 669.369505 
L 282.541072 669.374148 
L 296.40676 669.501816 
L 338.003824 669.544911 
L 351.869512 669.558841 
L 365.7352 669.546998 
L 379.600888 669.566041 
L 393.466576 669.575746 
L 407.332264 669.581954 
L 421.197952 669.585502 
L 435.06364 669.592911 
L 448.929328 669.603606 
L 462.795016 669.603397 
L 476.660704 669.608093 
L 490.526392 669.618319 
L 504.39208 669.616858 
L 518.257768 669.632093 
L 532.123457 669.635327 
L 545.989145 669.640284 
L 559.854833 669.648475 
L 573.720521 669.651397 
L 587.586209 669.657188 
L 601.451897 669.663971 
L 615.317585 669.666788 
L 629.183273 669.67237 
L 643.048961 669.676544 
L 656.914649 669.672579 
L 670.780337 669.674718 
L 698.511713 669.678423 
L 712.377401 669.692875 
L 726.243089 669.697466 
L 740.108777 669.697361 
L 753.974465 669.705187 
L 767.840153 669.713535 
L 781.705841 669.729187 
L 795.571529 669.732735 
L 809.437217 669.733726 
L 823.302905 669.732787 
L 837.168594 669.738317 
L 851.034282 669.735396 
L 864.89997 669.738996 
L 878.765658 669.736491 
L 892.631346 669.736648 
L 906.497034 669.7367 
L 920.362722 669.736804 
L 934.22841 669.737535 
L 948.094098 669.73357 
L 961.959786 669.735865 
L 975.825474 669.729187 
L 989.691162 669.7295 
L 1003.55685 669.72037 
L 1031.288226 669.718179 
L 1045.153914 669.699292 
L 1059.019602 669.69804 
L 1072.88529 669.698666 
L 1086.750978 669.698509 
L 1100.616666 669.707014 
L 1114.482354 669.707014 
L 1128.348042 669.706909 
L 1142.21373 669.686144 
L 1156.079419 669.685205 
L 1169.945107 669.670284 
L 1183.810795 669.669605 
L 1197.676483 669.64044 
L 1211.542171 669.639919 
L 1225.407859 669.639658 
" style="fill:none;stroke:#d62728;stroke-linecap:square;stroke-width:3;"/>
   </g>
   <g id="patch_3">
    <path d="M 46.824375 669.832125 
L 46.824375 43.753062 
" style="fill:none;stroke:#000000;stroke-linecap:square;stroke-linejoin:miter;stroke-width:2;"/>
   </g>
   <g id="patch_4">
    <path d="M 46.824375 669.832125 
L 1225.407859 669.832125 
" style="fill:none;stroke:#000000;stroke-linecap:square;stroke-linejoin:miter;stroke-width:2;"/>
   </g>
   <g id="matplotlib.axis_1">
    <g id="xtick_1">
     <g id="line2d_8">
      <path clip-path="url(#p98d0b1d4fe)" d="M 462.795016 669.832125 
L 462.795016 43.753062 
" style="fill:none;stroke:#000000;stroke-dasharray:1,3;stroke-dashoffset:0;"/>
     </g>
     <g id="line2d_9">
      <defs>
       <path d="M 0 0 
L 0 -4 
" id="m142569d4e3" style="stroke:#000000;stroke-width:0.5;"/>
      </defs>
      <g>
       <use style="stroke:#000000;stroke-width:0.5;" x="462.795016" xlink:href="#m142569d4e3" y="669.832125"/>
      </g>
     </g>
     <g id="text_1">
      <!--  -->
      <g transform="translate(462.795016 682.6615)scale(0.12 -0.12)"/>
      <!--  -->
      <g transform="translate(462.795016 696.104875)scale(0.12 -0.12)"/>
      <!--  -->
      <g transform="translate(462.795016 709.54825)scale(0.12 -0.12)"/>
      <!-- Sep -->
      <g transform="translate(453.504391 722.991625)scale(0.12 -0.12)">
       <defs>
        <path d="M 37.109375 63.921875 
Q 31.984375 65.625 27.6875 65.625 
Q 21.234375 65.625 17.40625 62.5 
Q 13.578125 59.375 13.578125 53.8125 
Q 13.578125 50.640625 14.921875 48.234375 
Q 16.265625 45.84375 18.53125 44.03125 
Q 20.796875 42.234375 23.671875 40.8125 
Q 26.5625 39.40625 29.640625 38.03125 
Q 33.015625 36.578125 36.1875 34.9375 
Q 39.359375 33.296875 41.921875 31.09375 
Q 44.484375 28.90625 46.015625 25.828125 
Q 47.5625 22.75 47.5625 18.65625 
Q 47.5625 8.9375 40.75 3.8125 
Q 33.9375 -1.3125 21.875 -1.3125 
Q 14.109375 -1.3125 4.6875 1.3125 
L 4.390625 1.703125 
L 6.78125 18.3125 
L 8.984375 18.65625 
L 12.40625 4.78125 
Q 17.578125 2.734375 23 2.734375 
Q 30.28125 2.734375 34.34375 5.953125 
Q 38.421875 9.1875 38.421875 15.140625 
Q 38.421875 18.265625 37.109375 20.625 
Q 35.796875 23 33.5625 24.703125 
Q 31.34375 26.421875 28.515625 27.8125 
Q 25.6875 29.203125 22.65625 30.5625 
Q 19.234375 32.03125 16.015625 33.734375 
Q 12.796875 35.453125 10.171875 37.71875 
Q 7.5625 39.984375 6 43.28125 
Q 4.4375 46.578125 4.4375 50.984375 
Q 4.4375 59.8125 11.046875 64.640625 
Q 17.671875 69.484375 28.609375 69.484375 
Q 36.328125 69.484375 44.78125 67.671875 
L 45.125 67.328125 
L 42.234375 52.09375 
L 40.28125 51.765625 
z
" id="Constantia-83"/>
        <path d="M 44.046875 3.46875 
Q 39.890625 0.875 35.5 -0.25 
Q 31.109375 -1.375 27.34375 -1.375 
Q 16.609375 -1.375 10.203125 4.75 
Q 3.8125 10.890625 3.8125 21.78125 
Q 3.8125 32.625 9.9375 39.5 
Q 16.0625 46.390625 26.3125 46.390625 
Q 34.90625 46.390625 39.6875 41.234375 
Q 44.484375 36.078125 44.484375 27 
Q 44.484375 25.640625 44.34375 24.21875 
L 13.375 24.21875 
Q 13.375 13.71875 18.3125 9.203125 
Q 23.25 4.6875 33.734375 4.6875 
Q 38.421875 4.6875 43.75 5.5625 
z
M 34.765625 28.265625 
L 34.765625 29.734375 
Q 34.765625 36.671875 32.546875 39.640625 
Q 30.328125 42.625 25.921875 42.625 
Q 20.125 42.625 17.046875 38.421875 
Q 13.96875 34.234375 13.578125 28.265625 
z
" id="Constantia-101"/>
        <path d="M 2.09375 41.3125 
L 1.859375 42.96875 
Q 10.0625 44.53125 17.328125 46.390625 
L 17.828125 46.046875 
L 17.828125 41.265625 
Q 25.296875 46.390625 32.28125 46.390625 
Q 41.359375 46.390625 46.703125 40.3125 
Q 52.046875 34.234375 52.046875 24.515625 
Q 52.046875 12.546875 45.15625 5.578125 
Q 38.28125 -1.375 25.640625 -1.375 
Q 21.875 -1.375 17.828125 -0.640625 
L 17.828125 -11.328125 
Q 17.828125 -16.21875 17.921875 -18.171875 
Q 18.015625 -19.625 19.234375 -19.921875 
L 25.640625 -21.734375 
L 25.78125 -23.734375 
Q 18.171875 -23.578125 13.375 -23.578125 
Q 8.59375 -23.578125 2.046875 -23.734375 
L 1.859375 -21.734375 
L 7.46875 -20.0625 
Q 8.640625 -19.734375 8.6875 -18.5625 
Q 8.796875 -14.984375 8.796875 -7.765625 
L 8.796875 12.109375 
Q 8.796875 33.734375 8.59375 39.453125 
z
M 17.828125 3.765625 
Q 22.078125 2.828125 26.03125 2.828125 
Q 34.125 2.828125 38.21875 7.90625 
Q 42.328125 12.984375 42.328125 22.46875 
Q 42.328125 31.390625 38.421875 35.9375 
Q 34.515625 40.484375 27.203125 40.484375 
Q 21.921875 40.484375 17.828125 38.328125 
z
" id="Constantia-112"/>
       </defs>
       <use xlink:href="#Constantia-83"/>
       <use x="50.976562" xlink:href="#Constantia-101"/>
       <use x="98.876953" xlink:href="#Constantia-112"/>
      </g>
      <!-- 2020 -->
      <g transform="translate(450.519391 736.435)scale(0.12 -0.12)">
       <defs>
        <path d="M 42.390625 15.484375 
L 44.53125 15.875 
L 43.5625 0.203125 
L 43.21875 -0.140625 
Q 33.25 0 22.359375 0 
Q 12.25 0 3.765625 -0.140625 
L 3.421875 3.859375 
Q 8.015625 6.84375 11.671875 9.375 
Q 15.328125 11.921875 18.015625 14.109375 
Q 20.703125 16.265625 22.75 18.21875 
Q 24.8125 20.171875 26.203125 22.09375 
Q 27.59375 24.03125 28.3125 26.03125 
Q 29.046875 28.03125 29.046875 30.21875 
Q 29.046875 34.71875 25.78125 37.34375 
Q 22.515625 39.984375 17.78125 39.984375 
Q 12.203125 39.984375 6.546875 36.96875 
L 4.6875 40.1875 
Q 13.8125 46.390625 23 46.390625 
Q 29.890625 46.390625 34.453125 43.046875 
Q 39.015625 39.703125 39.015625 33.734375 
Q 39.015625 30.03125 37.34375 26.828125 
Q 35.6875 23.640625 32.515625 20.5625 
Q 29.34375 17.484375 24.75 14.328125 
Q 20.171875 11.1875 14.265625 7.671875 
L 14.3125 7.421875 
L 38.578125 7.421875 
z
" id="Constantia-50"/>
        <path d="M 13.671875 23.296875 
Q 13.671875 13.625 17.15625 8.109375 
Q 20.65625 2.59375 27.203125 2.59375 
Q 33.84375 2.59375 37.015625 7.515625 
Q 40.1875 12.453125 40.1875 22.609375 
Q 40.1875 32.5625 36.71875 37.609375 
Q 33.25 42.671875 26.65625 42.671875 
Q 19.921875 42.671875 16.796875 37.84375 
Q 13.671875 33.015625 13.671875 23.296875 
z
M 49.953125 23.6875 
Q 49.953125 12.25 43.4375 5.484375 
Q 36.921875 -1.265625 26.421875 -1.265625 
Q 16.3125 -1.265625 10.109375 4.9375 
Q 3.90625 11.140625 3.90625 22.015625 
Q 3.90625 33.203125 10.390625 39.796875 
Q 16.890625 46.390625 27.484375 46.390625 
Q 37.796875 46.390625 43.875 40.375 
Q 49.953125 34.375 49.953125 23.6875 
z
" id="Constantia-48"/>
       </defs>
       <use xlink:href="#Constantia-50"/>
       <use x="48.4375" xlink:href="#Constantia-48"/>
       <use x="102.294922" xlink:href="#Constantia-50"/>
       <use x="150.732422" xlink:href="#Constantia-48"/>
      </g>
     </g>
    </g>
    <g id="xtick_2">
     <g id="line2d_10">
      <path clip-path="url(#p98d0b1d4fe)" d="M 878.765658 669.832125 
L 878.765658 43.753062 
" style="fill:none;stroke:#000000;stroke-dasharray:1,3;stroke-dashoffset:0;"/>
     </g>
     <g id="line2d_11">
      <g>
       <use style="stroke:#000000;stroke-width:0.5;" x="878.765658" xlink:href="#m142569d4e3" y="669.832125"/>
      </g>
     </g>
     <g id="text_2">
      <!--  -->
      <g transform="translate(878.765658 682.6615)scale(0.12 -0.12)"/>
      <!--  -->
      <g transform="translate(878.765658 696.104875)scale(0.12 -0.12)"/>
      <!--  -->
      <g transform="translate(878.765658 709.54825)scale(0.12 -0.12)"/>
      <!-- Oct -->
      <g transform="translate(869.054095 722.991625)scale(0.12 -0.12)">
       <defs>
        <path d="M 15.578125 35.015625 
Q 15.578125 19.09375 22.015625 10.625 
Q 28.46875 2.15625 40.921875 2.15625 
Q 53.171875 2.15625 59 9.84375 
Q 64.84375 17.53125 64.84375 33.984375 
Q 64.84375 49.421875 58.640625 57.71875 
Q 52.4375 66.015625 39.5 66.015625 
Q 26.953125 66.015625 21.265625 58.328125 
Q 15.578125 50.640625 15.578125 35.015625 
z
M 75.59375 35.640625 
Q 75.59375 18.75 65.984375 8.46875 
Q 56.390625 -1.8125 39.15625 -1.8125 
Q 22.796875 -1.8125 13.84375 7.6875 
Q 4.890625 17.1875 4.890625 33.40625 
Q 4.890625 50.296875 14.53125 60.125 
Q 24.171875 69.96875 41.265625 69.96875 
Q 57.671875 69.96875 66.625 60.765625 
Q 75.59375 51.5625 75.59375 35.640625 
z
" id="Constantia-79"/>
        <path d="M 42.96875 3.46875 
Q 39.9375 1.421875 35.46875 0.015625 
Q 31 -1.375 26.609375 -1.375 
Q 16.0625 -1.375 9.90625 4.796875 
Q 3.765625 10.984375 3.765625 21.296875 
Q 3.765625 32.46875 10.734375 39.421875 
Q 17.71875 46.390625 28.8125 46.390625 
Q 35.984375 46.390625 42.71875 43.453125 
Q 41.109375 36.921875 39.84375 30.078125 
L 37.9375 29.78125 
L 33.984375 41.5 
Q 31.734375 42.28125 28.90625 42.28125 
Q 21.625 42.28125 17.515625 37.203125 
Q 13.421875 32.125 13.421875 23.78125 
Q 13.421875 13.96875 18.0625 9.28125 
Q 22.703125 4.59375 32.765625 4.59375 
Q 37.40625 4.59375 42.671875 5.515625 
z
" id="Constantia-99"/>
        <path d="M 17.484375 39.9375 
Q 17.1875 23.4375 17.1875 13.328125 
Q 17.1875 8.25 18.703125 6.3125 
Q 20.21875 4.390625 24.46875 4.390625 
Q 27.828125 4.390625 33.25 5.28125 
L 33.546875 3.078125 
Q 25.09375 -1.171875 18.453125 -1.171875 
Q 13.140625 -1.171875 10.546875 1.6875 
Q 7.953125 4.546875 7.953125 10.296875 
Q 7.953125 19.78125 8.296875 40.234375 
L 1.5625 41.890625 
L 1.265625 43.890625 
L 8.796875 44.53125 
L 12.15625 56.34375 
Q 14.890625 57.078125 17.140625 57.765625 
L 17.625 57.421875 
Q 17.484375 51.515625 17.484375 46.390625 
L 17.484375 44.578125 
L 32.171875 44.578125 
L 32.171875 39.9375 
z
" id="Constantia-116"/>
       </defs>
       <use xlink:href="#Constantia-79"/>
       <use x="80.419922" xlink:href="#Constantia-99"/>
       <use x="126.5625" xlink:href="#Constantia-116"/>
      </g>
      <!-- 2020 -->
      <g transform="translate(866.490033 736.435)scale(0.12 -0.12)">
       <use xlink:href="#Constantia-50"/>
       <use x="48.4375" xlink:href="#Constantia-48"/>
       <use x="102.294922" xlink:href="#Constantia-50"/>
       <use x="150.732422" xlink:href="#Constantia-48"/>
      </g>
     </g>
    </g>
    <g id="xtick_3">
     <g id="line2d_12">
      <path clip-path="url(#p98d0b1d4fe)" d="M 46.824375 669.832125 
L 46.824375 43.753062 
" style="fill:none;stroke:#000000;stroke-dasharray:1,3;stroke-dashoffset:0;stroke-width:0.5;"/>
     </g>
     <g id="line2d_13">
      <defs>
       <path d="M 0 0 
L 0 -2 
" id="me013f9af70" style="stroke:#000000;stroke-width:0.5;"/>
      </defs>
      <g>
       <use style="stroke:#000000;stroke-width:0.5;" x="46.824375" xlink:href="#me013f9af70" y="669.832125"/>
      </g>
     </g>
     <g id="line2d_14">
      <defs>
       <path d="M 0 0 
L 0 2 
" id="me1ac38e9ac" style="stroke:#000000;stroke-width:0.5;"/>
      </defs>
      <g>
       <use style="stroke:#000000;stroke-width:0.5;" x="46.824375" xlink:href="#me1ac38e9ac" y="43.753062"/>
      </g>
     </g>
     <g id="text_3">
      <!-- 02 -->
      <g transform="translate(40.686562 682.6615)scale(0.12 -0.12)">
       <use xlink:href="#Constantia-48"/>
       <use x="53.857422" xlink:href="#Constantia-50"/>
      </g>
      <!-- Sun -->
      <g transform="translate(36.856875 696.104875)scale(0.12 -0.12)">
       <defs>
        <path d="M 38.875 4.296875 
Q 31.25 -1.375 23.640625 -1.375 
Q 15.96875 -1.375 12.125 2.53125 
Q 8.296875 6.453125 8.296875 13.53125 
L 8.296875 23.875 
Q 8.296875 34.328125 8.109375 39.546875 
L 1.609375 41.3125 
L 1.375 42.96875 
Q 9.90625 44.53125 17.1875 46.390625 
L 17.625 46.046875 
Q 17.328125 40.328125 17.328125 31.34375 
L 17.328125 15.828125 
Q 17.328125 9.90625 20.109375 7.25 
Q 22.90625 4.59375 27.984375 4.59375 
Q 33.0625 4.59375 38.375 7.28125 
L 38.375 28.078125 
Q 38.375 34.90625 38.1875 39.546875 
L 31.734375 41.3125 
L 31.5 42.96875 
Q 39.984375 44.53125 47.265625 46.390625 
L 47.703125 46.046875 
Q 47.40625 40.1875 47.40625 31.0625 
Q 47.40625 13.328125 47.515625 9.421875 
Q 47.5625 7.421875 47.796875 6.203125 
Q 48.046875 4.984375 48.734375 4.3125 
Q 49.421875 3.65625 50.75 3.390625 
Q 52.09375 3.125 54.34375 3.078125 
L 54.59375 1.171875 
Q 52.34375 0.296875 49.40625 -0.5 
Q 46.484375 -1.3125 45.40625 -1.3125 
Q 40.484375 -1.3125 38.875 4.296875 
z
" id="Constantia-117"/>
        <path d="M 2.828125 42.96875 
Q 11.03125 44.53125 18.3125 46.390625 
L 18.796875 46.046875 
L 18.796875 40.375 
Q 27.296875 46.390625 34.625 46.390625 
Q 41.546875 46.390625 45.484375 42.5 
Q 49.421875 38.625 49.421875 31.5 
L 49.421875 14.265625 
Q 49.421875 8.15625 49.515625 5.21875 
Q 49.5625 3.90625 50.78125 3.515625 
L 56.203125 1.859375 
L 56.296875 -0.140625 
Q 49.859375 0 45.0625 0 
Q 40.28125 0 34.421875 -0.140625 
L 34.234375 1.859375 
L 39.109375 3.265625 
Q 40.234375 3.65625 40.328125 4.78125 
Q 40.375 5.46875 40.375 7.859375 
L 40.375 29.15625 
Q 40.375 35.15625 37.5 37.765625 
Q 34.625 40.375 29 40.375 
Q 24.078125 40.375 18.796875 37.546875 
L 18.796875 16.21875 
Q 18.796875 10.109375 18.890625 5.03125 
Q 18.953125 3.71875 20.015625 3.375 
L 25.09375 1.859375 
L 25.203125 -0.140625 
Q 19.140625 0 14.359375 0 
Q 9.578125 0 3.03125 -0.140625 
L 2.828125 1.859375 
L 8.59375 3.515625 
Q 9.671875 3.953125 9.71875 5.03125 
Q 9.765625 8.15625 9.765625 11.03125 
L 9.765625 27.6875 
Q 9.765625 34.078125 9.578125 39.546875 
L 3.078125 41.3125 
z
" id="Constantia-110"/>
       </defs>
       <use xlink:href="#Constantia-83"/>
       <use x="50.976562" xlink:href="#Constantia-117"/>
       <use x="107.910156" xlink:href="#Constantia-110"/>
      </g>
     </g>
    </g>
    <g id="xtick_4">
     <g id="line2d_15">
      <path clip-path="url(#p98d0b1d4fe)" d="M 143.884191 669.832125 
L 143.884191 43.753062 
" style="fill:none;stroke:#000000;stroke-dasharray:1,3;stroke-dashoffset:0;stroke-width:0.5;"/>
     </g>
     <g id="line2d_16">
      <g>
       <use style="stroke:#000000;stroke-width:0.5;" x="143.884191" xlink:href="#me013f9af70" y="669.832125"/>
      </g>
     </g>
     <g id="line2d_17">
      <g>
       <use style="stroke:#000000;stroke-width:0.5;" x="143.884191" xlink:href="#me1ac38e9ac" y="43.753062"/>
      </g>
     </g>
     <g id="text_4">
      <!-- 09 -->
      <g transform="translate(137.374191 682.6615)scale(0.12 -0.12)">
       <defs>
        <path d="M 8.640625 -19 
Q 20.90625 -16.796875 28.984375 -9.671875 
Q 37.0625 -2.546875 40.375 10.109375 
L 40.28125 10.15625 
Q 34.578125 3.65625 25.4375 3.65625 
Q 16.3125 3.65625 10.234375 9.484375 
Q 4.15625 15.328125 4.15625 24.3125 
Q 4.15625 33.6875 10.796875 40.03125 
Q 17.4375 46.390625 27.046875 46.390625 
Q 37.546875 46.390625 44.265625 38.75 
Q 50.984375 31.109375 50.984375 19.1875 
Q 50.984375 2.828125 39.578125 -8.59375 
Q 28.171875 -20.015625 9.328125 -22.46875 
z
M 14.0625 27.25 
Q 14.0625 18.5625 18.015625 13.28125 
Q 21.96875 8.015625 28.125 8.015625 
Q 34.234375 8.015625 37.453125 11.9375 
Q 40.671875 15.875 40.671875 22.90625 
Q 40.671875 31.453125 36.421875 37.15625 
Q 32.171875 42.875 26.21875 42.875 
Q 20.953125 42.875 17.5 38.640625 
Q 14.0625 34.421875 14.0625 27.25 
z
" id="Constantia-57"/>
       </defs>
       <use xlink:href="#Constantia-48"/>
       <use x="53.857422" xlink:href="#Constantia-57"/>
      </g>
      <!-- Sun -->
      <g transform="translate(133.916691 696.104875)scale(0.12 -0.12)">
       <use xlink:href="#Constantia-83"/>
       <use x="50.976562" xlink:href="#Constantia-117"/>
       <use x="107.910156" xlink:href="#Constantia-110"/>
      </g>
     </g>
    </g>
    <g id="xtick_5">
     <g id="line2d_18">
      <path clip-path="url(#p98d0b1d4fe)" d="M 240.944008 669.832125 
L 240.944008 43.753062 
" style="fill:none;stroke:#000000;stroke-dasharray:1,3;stroke-dashoffset:0;stroke-width:0.5;"/>
     </g>
     <g id="line2d_19">
      <g>
       <use style="stroke:#000000;stroke-width:0.5;" x="240.944008" xlink:href="#me013f9af70" y="669.832125"/>
      </g>
     </g>
     <g id="line2d_20">
      <g>
       <use style="stroke:#000000;stroke-width:0.5;" x="240.944008" xlink:href="#me1ac38e9ac" y="43.753062"/>
      </g>
     </g>
     <g id="text_5">
      <!-- 16 -->
      <g transform="translate(235.819633 682.6615)scale(0.12 -0.12)">
       <defs>
        <path d="M 1.703125 40.625 
L 1.46875 42.671875 
Q 11.28125 44.140625 21.09375 45.90625 
L 21.53125 45.515625 
Q 20.953125 36.96875 20.953125 27.875 
L 20.953125 15.96875 
Q 20.953125 9.515625 21.046875 5.5625 
Q 21.09375 4.15625 22.40625 3.8125 
L 30.171875 1.8125 
L 30.328125 -0.140625 
Q 21.296875 0 16.5 0 
Q 11.71875 0 2.734375 -0.140625 
L 2.546875 1.8125 
L 10.5 3.8125 
Q 11.765625 4.15625 11.8125 5.375 
Q 11.921875 9.328125 11.921875 14.15625 
L 11.921875 22.265625 
Q 11.921875 32.078125 11.71875 39.65625 
z
" id="Constantia-49"/>
        <path d="M 47.125 64.546875 
Q 32.03125 61.53125 24.515625 53.9375 
Q 17 46.34375 14.796875 35.25 
L 14.890625 35.203125 
Q 20.796875 41.65625 30.21875 41.65625 
Q 38.96875 41.65625 44.9375 35.796875 
Q 50.921875 29.9375 50.921875 20.90625 
Q 50.921875 11.328125 44.375 5.03125 
Q 37.84375 -1.265625 28.125 -1.265625 
Q 17.390625 -1.265625 10.75 6.5 
Q 4.109375 14.265625 4.109375 26.515625 
Q 4.109375 41.546875 14.453125 53.125 
Q 24.8125 64.703125 46.4375 68.015625 
z
M 41.109375 18.0625 
Q 41.109375 26.609375 37.15625 31.953125 
Q 33.203125 37.3125 27.046875 37.3125 
Q 21.4375 37.3125 17.921875 33.328125 
Q 14.40625 29.34375 14.40625 22.515625 
Q 14.40625 14.15625 18.5 8.203125 
Q 22.609375 2.25 28.953125 2.25 
Q 34.46875 2.25 37.78125 6.8125 
Q 41.109375 11.375 41.109375 18.0625 
z
" id="Constantia-54"/>
       </defs>
       <use xlink:href="#Constantia-49"/>
       <use x="31.298828" xlink:href="#Constantia-54"/>
      </g>
      <!-- Sun -->
      <g transform="translate(230.976508 696.104875)scale(0.12 -0.12)">
       <use xlink:href="#Constantia-83"/>
       <use x="50.976562" xlink:href="#Constantia-117"/>
       <use x="107.910156" xlink:href="#Constantia-110"/>
      </g>
     </g>
    </g>
    <g id="xtick_6">
     <g id="line2d_21">
      <path clip-path="url(#p98d0b1d4fe)" d="M 338.003824 669.832125 
L 338.003824 43.753062 
" style="fill:none;stroke:#000000;stroke-dasharray:1,3;stroke-dashoffset:0;stroke-width:0.5;"/>
     </g>
     <g id="line2d_22">
      <g>
       <use style="stroke:#000000;stroke-width:0.5;" x="338.003824" xlink:href="#me013f9af70" y="669.832125"/>
      </g>
     </g>
     <g id="line2d_23">
      <g>
       <use style="stroke:#000000;stroke-width:0.5;" x="338.003824" xlink:href="#me1ac38e9ac" y="43.753062"/>
      </g>
     </g>
     <g id="text_6">
      <!-- 23 -->
      <g transform="translate(332.358199 682.6615)scale(0.12 -0.12)">
       <defs>
        <path d="M 10.25 16.21875 
Q 19 17.140625 24.265625 20.75 
Q 29.546875 24.359375 29.546875 30.125 
Q 29.546875 34.71875 26.09375 37.59375 
Q 22.65625 40.484375 17.390625 40.484375 
Q 10.5 40.484375 3.46875 36.8125 
L 1.46875 40.046875 
Q 11.140625 46.390625 21.34375 46.390625 
Q 28.90625 46.390625 34.078125 42.75 
Q 39.265625 39.109375 39.265625 33.203125 
Q 39.265625 22.359375 23.25 17 
L 23.25 16.796875 
Q 32.421875 16.453125 37.5625 12.15625 
Q 42.71875 7.859375 42.71875 1.609375 
Q 42.71875 -8.5 31.96875 -15.140625 
Q 21.234375 -21.78125 1.03125 -22.46875 
L 0.484375 -18.84375 
Q 16.546875 -17.78125 24.53125 -12.625 
Q 32.515625 -7.46875 32.515625 0.25 
Q 32.515625 6.296875 28.359375 9.765625 
Q 24.21875 13.234375 16.84375 13.234375 
Q 13.96875 13.234375 10.59375 12.640625 
z
" id="Constantia-51"/>
       </defs>
       <use xlink:href="#Constantia-50"/>
       <use x="48.4375" xlink:href="#Constantia-51"/>
      </g>
      <!-- Sun -->
      <g transform="translate(328.036324 696.104875)scale(0.12 -0.12)">
       <use xlink:href="#Constantia-83"/>
       <use x="50.976562" xlink:href="#Constantia-117"/>
       <use x="107.910156" xlink:href="#Constantia-110"/>
      </g>
     </g>
    </g>
    <g id="xtick_7">
     <g id="line2d_24">
      <path clip-path="url(#p98d0b1d4fe)" d="M 435.06364 669.832125 
L 435.06364 43.753062 
" style="fill:none;stroke:#000000;stroke-dasharray:1,3;stroke-dashoffset:0;stroke-width:0.5;"/>
     </g>
     <g id="line2d_25">
      <g>
       <use style="stroke:#000000;stroke-width:0.5;" x="435.06364" xlink:href="#me013f9af70" y="669.832125"/>
      </g>
     </g>
     <g id="line2d_26">
      <g>
       <use style="stroke:#000000;stroke-width:0.5;" x="435.06364" xlink:href="#me1ac38e9ac" y="43.753062"/>
      </g>
     </g>
     <g id="text_7">
      <!-- 30 -->
      <g transform="translate(429.092703 682.6615)scale(0.12 -0.12)">
       <use xlink:href="#Constantia-51"/>
       <use x="45.654297" xlink:href="#Constantia-48"/>
      </g>
      <!-- Sun -->
      <g transform="translate(425.09614 696.104875)scale(0.12 -0.12)">
       <use xlink:href="#Constantia-83"/>
       <use x="50.976562" xlink:href="#Constantia-117"/>
       <use x="107.910156" xlink:href="#Constantia-110"/>
      </g>
     </g>
    </g>
    <g id="xtick_8">
     <g id="line2d_27">
      <path clip-path="url(#p98d0b1d4fe)" d="M 532.123457 669.832125 
L 532.123457 43.753062 
" style="fill:none;stroke:#000000;stroke-dasharray:1,3;stroke-dashoffset:0;stroke-width:0.5;"/>
     </g>
     <g id="line2d_28">
      <g>
       <use style="stroke:#000000;stroke-width:0.5;" x="532.123457" xlink:href="#me013f9af70" y="669.832125"/>
      </g>
     </g>
     <g id="line2d_29">
      <g>
       <use style="stroke:#000000;stroke-width:0.5;" x="532.123457" xlink:href="#me1ac38e9ac" y="43.753062"/>
      </g>
     </g>
     <g id="text_8">
      <!-- 06 -->
      <g transform="translate(525.645332 682.6615)scale(0.12 -0.12)">
       <use xlink:href="#Constantia-48"/>
       <use x="53.857422" xlink:href="#Constantia-54"/>
      </g>
      <!-- Sun -->
      <g transform="translate(522.155957 696.104875)scale(0.12 -0.12)">
       <use xlink:href="#Constantia-83"/>
       <use x="50.976562" xlink:href="#Constantia-117"/>
       <use x="107.910156" xlink:href="#Constantia-110"/>
      </g>
     </g>
    </g>
    <g id="xtick_9">
     <g id="line2d_30">
      <path clip-path="url(#p98d0b1d4fe)" d="M 629.183273 669.832125 
L 629.183273 43.753062 
" style="fill:none;stroke:#000000;stroke-dasharray:1,3;stroke-dashoffset:0;stroke-width:0.5;"/>
     </g>
     <g id="line2d_31">
      <g>
       <use style="stroke:#000000;stroke-width:0.5;" x="629.183273" xlink:href="#me013f9af70" y="669.832125"/>
      </g>
     </g>
     <g id="line2d_32">
      <g>
       <use style="stroke:#000000;stroke-width:0.5;" x="629.183273" xlink:href="#me1ac38e9ac" y="43.753062"/>
      </g>
     </g>
     <g id="text_9">
      <!-- 13 -->
      <g transform="translate(624.566085 682.6615)scale(0.12 -0.12)">
       <use xlink:href="#Constantia-49"/>
       <use x="31.298828" xlink:href="#Constantia-51"/>
      </g>
      <!-- Sun -->
      <g transform="translate(619.215773 696.104875)scale(0.12 -0.12)">
       <use xlink:href="#Constantia-83"/>
       <use x="50.976562" xlink:href="#Constantia-117"/>
       <use x="107.910156" xlink:href="#Constantia-110"/>
      </g>
     </g>
    </g>
    <g id="xtick_10">
     <g id="line2d_33">
      <path clip-path="url(#p98d0b1d4fe)" d="M 726.243089 669.832125 
L 726.243089 43.753062 
" style="fill:none;stroke:#000000;stroke-dasharray:1,3;stroke-dashoffset:0;stroke-width:0.5;"/>
     </g>
     <g id="line2d_34">
      <g>
       <use style="stroke:#000000;stroke-width:0.5;" x="726.243089" xlink:href="#me013f9af70" y="669.832125"/>
      </g>
     </g>
     <g id="line2d_35">
      <g>
       <use style="stroke:#000000;stroke-width:0.5;" x="726.243089" xlink:href="#me1ac38e9ac" y="43.753062"/>
      </g>
     </g>
     <g id="text_10">
      <!-- 20 -->
      <g transform="translate(720.105277 682.6615)scale(0.12 -0.12)">
       <use xlink:href="#Constantia-50"/>
       <use x="48.4375" xlink:href="#Constantia-48"/>
      </g>
      <!-- Sun -->
      <g transform="translate(716.275589 696.104875)scale(0.12 -0.12)">
       <use xlink:href="#Constantia-83"/>
       <use x="50.976562" xlink:href="#Constantia-117"/>
       <use x="107.910156" xlink:href="#Constantia-110"/>
      </g>
     </g>
    </g>
    <g id="xtick_11">
     <g id="line2d_36">
      <path clip-path="url(#p98d0b1d4fe)" d="M 823.302905 669.832125 
L 823.302905 43.753062 
" style="fill:none;stroke:#000000;stroke-dasharray:1,3;stroke-dashoffset:0;stroke-width:0.5;"/>
     </g>
     <g id="line2d_37">
      <g>
       <use style="stroke:#000000;stroke-width:0.5;" x="823.302905" xlink:href="#me013f9af70" y="669.832125"/>
      </g>
     </g>
     <g id="line2d_38">
      <g>
       <use style="stroke:#000000;stroke-width:0.5;" x="823.302905" xlink:href="#me1ac38e9ac" y="43.753062"/>
      </g>
     </g>
     <g id="text_11">
      <!-- 27 -->
      <g transform="translate(817.49603 682.6615)scale(0.12 -0.12)">
       <defs>
        <path d="M 10.9375 -19.671875 
L 39.5 37.546875 
L 8.296875 37.546875 
L 5.46875 27.875 
L 3.515625 27.546875 
L 2.6875 44.921875 
L 3.03125 45.3125 
Q 8.796875 45.21875 14.265625 45.171875 
Q 19.734375 45.125 25 45.125 
L 27.734375 45.125 
Q 33.015625 45.125 37.84375 45.171875 
Q 42.671875 45.21875 47.171875 45.3125 
L 47.359375 43.21875 
Q 44.828125 37.984375 42.265625 32.46875 
Q 39.703125 26.953125 37.234375 21.3125 
Q 34.765625 15.671875 32.421875 10.125 
Q 30.078125 4.59375 28.03125 -0.65625 
Q 25.984375 -5.90625 24.25 -10.6875 
Q 22.515625 -15.484375 21.234375 -19.53125 
L 11.1875 -20.015625 
z
" id="Constantia-55"/>
       </defs>
       <use xlink:href="#Constantia-50"/>
       <use x="48.4375" xlink:href="#Constantia-55"/>
      </g>
      <!-- Sun -->
      <g transform="translate(813.335405 696.104875)scale(0.12 -0.12)">
       <use xlink:href="#Constantia-83"/>
       <use x="50.976562" xlink:href="#Constantia-117"/>
       <use x="107.910156" xlink:href="#Constantia-110"/>
      </g>
     </g>
    </g>
    <g id="xtick_12">
     <g id="line2d_39">
      <path clip-path="url(#p98d0b1d4fe)" d="M 920.362722 669.832125 
L 920.362722 43.753062 
" style="fill:none;stroke:#000000;stroke-dasharray:1,3;stroke-dashoffset:0;stroke-width:0.5;"/>
     </g>
     <g id="line2d_40">
      <g>
       <use style="stroke:#000000;stroke-width:0.5;" x="920.362722" xlink:href="#me013f9af70" y="669.832125"/>
      </g>
     </g>
     <g id="line2d_41">
      <g>
       <use style="stroke:#000000;stroke-width:0.5;" x="920.362722" xlink:href="#me1ac38e9ac" y="43.753062"/>
      </g>
     </g>
     <g id="text_12">
      <!-- 04 -->
      <g transform="translate(913.946472 682.6615)scale(0.12 -0.12)">
       <defs>
        <path d="M 30.953125 35.015625 
Q 25.4375 28.8125 19.890625 21.78125 
Q 14.359375 14.75 8.984375 7.28125 
L 30.953125 7.28125 
z
M 39.984375 -5.71875 
Q 39.984375 -12.546875 40.234375 -19.53125 
Q 35.546875 -20.015625 31.34375 -20.796875 
L 30.859375 -20.40625 
Q 30.953125 -13.578125 30.953125 -6.5 
L 30.953125 2.4375 
L 18.796875 2.4375 
Q 12.109375 2.4375 2.546875 2.296875 
L 2.203125 5.859375 
Q 9.90625 16.0625 18.078125 26.234375 
Q 26.265625 36.421875 34.578125 46.046875 
L 40.28125 46.390625 
Q 39.984375 35.453125 39.984375 25.984375 
L 39.984375 7.28125 
L 51.171875 7.28125 
L 51.375 2.296875 
Q 46 2.4375 39.984375 2.4375 
z
" id="Constantia-52"/>
       </defs>
       <use xlink:href="#Constantia-48"/>
       <use x="53.857422" xlink:href="#Constantia-52"/>
      </g>
      <!-- Sun -->
      <g transform="translate(910.395222 696.104875)scale(0.12 -0.12)">
       <use xlink:href="#Constantia-83"/>
       <use x="50.976562" xlink:href="#Constantia-117"/>
       <use x="107.910156" xlink:href="#Constantia-110"/>
      </g>
     </g>
    </g>
    <g id="xtick_13">
     <g id="line2d_42">
      <path clip-path="url(#p98d0b1d4fe)" d="M 1017.422538 669.832125 
L 1017.422538 43.753062 
" style="fill:none;stroke:#000000;stroke-dasharray:1,3;stroke-dashoffset:0;stroke-width:0.5;"/>
     </g>
     <g id="line2d_43">
      <g>
       <use style="stroke:#000000;stroke-width:0.5;" x="1017.422538" xlink:href="#me013f9af70" y="669.832125"/>
      </g>
     </g>
     <g id="line2d_44">
      <g>
       <use style="stroke:#000000;stroke-width:0.5;" x="1017.422538" xlink:href="#me1ac38e9ac" y="43.753062"/>
      </g>
     </g>
     <g id="text_13">
      <!-- 11 -->
      <g transform="translate(1013.666913 682.6615)scale(0.12 -0.12)">
       <use xlink:href="#Constantia-49"/>
       <use x="31.298828" xlink:href="#Constantia-49"/>
      </g>
      <!-- Sun -->
      <g transform="translate(1007.455038 696.104875)scale(0.12 -0.12)">
       <use xlink:href="#Constantia-83"/>
       <use x="50.976562" xlink:href="#Constantia-117"/>
       <use x="107.910156" xlink:href="#Constantia-110"/>
      </g>
     </g>
    </g>
    <g id="xtick_14">
     <g id="line2d_45">
      <path clip-path="url(#p98d0b1d4fe)" d="M 1114.482354 669.832125 
L 1114.482354 43.753062 
" style="fill:none;stroke:#000000;stroke-dasharray:1,3;stroke-dashoffset:0;stroke-width:0.5;"/>
     </g>
     <g id="line2d_46">
      <g>
       <use style="stroke:#000000;stroke-width:0.5;" x="1114.482354" xlink:href="#me013f9af70" y="669.832125"/>
      </g>
     </g>
     <g id="line2d_47">
      <g>
       <use style="stroke:#000000;stroke-width:0.5;" x="1114.482354" xlink:href="#me1ac38e9ac" y="43.753062"/>
      </g>
     </g>
     <g id="text_14">
      <!-- 18 -->
      <g transform="translate(1109.385167 682.6615)scale(0.12 -0.12)">
       <defs>
        <path d="M 19.09375 34.234375 
Q 12.0625 37.890625 9.5 41.546875 
Q 6.9375 45.21875 6.9375 50.09375 
Q 6.9375 57.421875 12.96875 62.171875 
Q 19 66.9375 27.984375 66.9375 
Q 36.078125 66.9375 41.375 63.125 
Q 46.6875 59.328125 46.6875 53.265625 
Q 46.6875 44.234375 33.84375 36.765625 
Q 43.609375 32.03125 47.09375 27.75 
Q 50.59375 23.484375 50.59375 17.578125 
Q 50.59375 9.421875 43.40625 4.078125 
Q 36.234375 -1.265625 26.265625 -1.265625 
Q 16.265625 -1.265625 9.90625 3.296875 
Q 3.5625 7.859375 3.5625 15.4375 
Q 3.5625 26.8125 19.09375 34.234375 
z
M 22.5625 32.421875 
Q 12.546875 26.703125 12.546875 16.609375 
Q 12.546875 10.203125 16.375 6.421875 
Q 20.21875 2.640625 26.90625 2.640625 
Q 33.015625 2.640625 37.140625 6.03125 
Q 41.265625 9.421875 41.265625 14.84375 
Q 41.265625 20.015625 37.5 23.75 
Q 33.734375 27.484375 22.5625 32.421875 
z
M 30.21875 38.625 
Q 37.984375 44.234375 37.984375 51.8125 
Q 37.984375 57.234375 34.859375 60.1875 
Q 31.734375 63.140625 26.609375 63.140625 
Q 21.4375 63.140625 18.140625 60.453125 
Q 14.84375 57.765625 14.84375 53.125 
Q 14.84375 48.484375 18.40625 45.40625 
Q 21.96875 42.328125 30.21875 38.625 
z
" id="Constantia-56"/>
       </defs>
       <use xlink:href="#Constantia-49"/>
       <use x="31.298828" xlink:href="#Constantia-56"/>
      </g>
      <!-- Sun -->
      <g transform="translate(1104.514854 696.104875)scale(0.12 -0.12)">
       <use xlink:href="#Constantia-83"/>
       <use x="50.976562" xlink:href="#Constantia-117"/>
       <use x="107.910156" xlink:href="#Constantia-110"/>
      </g>
     </g>
    </g>
    <g id="xtick_15">
     <g id="line2d_48">
      <path clip-path="url(#p98d0b1d4fe)" d="M 1211.542171 669.832125 
L 1211.542171 43.753062 
" style="fill:none;stroke:#000000;stroke-dasharray:1,3;stroke-dashoffset:0;stroke-width:0.5;"/>
     </g>
     <g id="line2d_49">
      <g>
       <use style="stroke:#000000;stroke-width:0.5;" x="1211.542171" xlink:href="#me013f9af70" y="669.832125"/>
      </g>
     </g>
     <g id="line2d_50">
      <g>
       <use style="stroke:#000000;stroke-width:0.5;" x="1211.542171" xlink:href="#me1ac38e9ac" y="43.753062"/>
      </g>
     </g>
     <g id="text_15">
      <!-- 25 -->
      <g transform="translate(1205.782171 682.6615)scale(0.12 -0.12)">
       <defs>
        <path d="M 6.453125 16.796875 
L 9.28125 45.3125 
Q 15.375 45.125 23.875 45.125 
Q 33.6875 45.125 42.28125 45.3125 
L 42.578125 44.921875 
L 41.359375 36.859375 
L 13.1875 37.546875 
L 11.8125 23.78125 
Q 15.96875 24.46875 19.625 24.46875 
Q 30.8125 24.46875 37.46875 19.046875 
Q 44.140625 13.625 44.140625 4.15625 
Q 44.140625 -7.953125 32.984375 -15.15625 
Q 21.828125 -22.359375 4.890625 -22.46875 
L 4.390625 -18.84375 
Q 17.71875 -18.359375 26.09375 -12.796875 
Q 34.46875 -7.234375 34.46875 2.203125 
Q 34.46875 9.46875 29.5625 13.46875 
Q 24.65625 17.484375 15.765625 17.484375 
Q 11.328125 17.484375 6.734375 16.453125 
z
" id="Constantia-53"/>
       </defs>
       <use xlink:href="#Constantia-50"/>
       <use x="48.4375" xlink:href="#Constantia-53"/>
      </g>
      <!-- Sun -->
      <g transform="translate(1201.574671 696.104875)scale(0.12 -0.12)">
       <use xlink:href="#Constantia-83"/>
       <use x="50.976562" xlink:href="#Constantia-117"/>
       <use x="107.910156" xlink:href="#Constantia-110"/>
      </g>
     </g>
    </g>
    <g id="text_16">
     <!-- Date -->
     <g transform="translate(619.316117 755.319844)scale(0.15 -0.15)">
      <defs>
       <path d="M 17.484375 0 
Q 11.1875 0 4.5 -0.140625 
L 4.25 2.296875 
L 10.796875 4.109375 
Q 12.0625 4.5 12.109375 5.609375 
Q 12.15625 7.5625 12.171875 9.984375 
Q 12.203125 12.40625 12.203125 15.328125 
L 12.203125 54.25 
Q 12.203125 56.6875 12.171875 58.6875 
Q 12.15625 60.6875 12.109375 62.359375 
Q 12.0625 63.625 10.9375 63.96875 
L 4.390625 65.875 
L 4.25 68.359375 
Q 11.078125 68.171875 17.328125 68.171875 
Q 22.609375 68.171875 27.4375 68.40625 
Q 32.28125 68.65625 37.453125 68.65625 
Q 55.671875 68.65625 64.84375 60.859375 
Q 74.03125 53.078125 74.03125 37.75 
Q 74.03125 19.671875 63.84375 9.6875 
Q 53.65625 -0.296875 35.203125 -0.296875 
Q 30.125 -0.296875 26.171875 -0.140625 
Q 22.21875 0 17.484375 0 
z
M 26.859375 4.984375 
Q 29.203125 4.546875 31.4375 4.421875 
Q 33.6875 4.296875 35.984375 4.296875 
Q 46.578125 4.296875 52.09375 11.765625 
Q 57.625 19.234375 57.625 34.515625 
Q 57.625 49.421875 52.34375 56.609375 
Q 47.078125 63.8125 35.75 63.8125 
Q 31.546875 63.8125 26.859375 63.421875 
z
" id="Constantia-Bold-68"/>
       <path d="M 31 21.734375 
Q 23.34375 21.734375 20.0625 19.78125 
Q 16.796875 17.828125 16.796875 13.09375 
Q 16.796875 8.796875 19.109375 6.953125 
Q 21.4375 5.125 24.609375 5.125 
Q 28.21875 5.125 30.90625 6.984375 
z
M 7.125 41.890625 
Q 17.53125 46.625 27.15625 46.625 
Q 35.9375 46.625 40.296875 42.6875 
Q 44.671875 38.765625 44.625 31.390625 
L 44.390625 11.078125 
Q 44.28125 8.59375 44.46875 7.078125 
Q 44.671875 5.5625 45.375 4.75 
Q 46.09375 3.953125 47.484375 3.609375 
Q 48.875 3.265625 51.515625 3.21875 
L 51.8125 0.984375 
Q 44.96875 -1.375 40.046875 -1.375 
Q 33.40625 -1.375 31.296875 3.859375 
Q 25.09375 -1.375 18.171875 -1.375 
Q 11.375 -1.375 6.984375 2.015625 
Q 2.59375 5.421875 2.59375 11.578125 
Q 2.59375 19.234375 9.6875 22.796875 
Q 16.796875 26.375 31 26.375 
L 31.0625 30.03125 
Q 31.109375 35.25 28.546875 37.71875 
Q 25.984375 40.1875 20.5625 40.1875 
Q 15.53125 40.1875 8.5 37.984375 
z
" id="Constantia-Bold-97"/>
       <path d="M 22.125 39.546875 
Q 21.828125 24.3125 21.828125 13.71875 
Q 21.828125 8.796875 23.34375 6.90625 
Q 24.859375 5.03125 29.15625 5.03125 
Q 32.46875 5.03125 36.375 5.421875 
L 36.765625 2.484375 
Q 29 -1.3125 22.265625 -1.3125 
Q 15.4375 -1.3125 11.6875 1.53125 
Q 7.953125 4.390625 7.953125 10.15625 
Q 7.953125 20.3125 8.25 39.796875 
L 1.65625 41.5 
L 1.21875 44.140625 
L 9.375 44.875 
L 14.015625 56.34375 
Q 18.171875 57.078125 21.578125 57.765625 
L 22.265625 57.421875 
Q 22.125 51.515625 22.125 44.875 
L 35.796875 44.875 
L 35.796875 39.546875 
z
" id="Constantia-Bold-116"/>
       <path d="M 49.90625 3.21875 
Q 40.875 -1.375 30.859375 -1.375 
Q 18.953125 -1.375 11.40625 4.515625 
Q 3.859375 10.40625 3.859375 21.875 
Q 3.859375 32.8125 11.109375 39.71875 
Q 18.359375 46.625 29.59375 46.625 
Q 39.40625 46.625 44.75 41.328125 
Q 50.09375 36.03125 50.09375 26.703125 
Q 50.09375 25.296875 49.953125 23.78125 
L 18.75 23.78125 
Q 18.75 13.96875 23.5625 9.671875 
Q 28.375 5.375 39.359375 5.375 
Q 44.671875 5.375 49.515625 6.296875 
z
M 35.25 28.515625 
L 35.25 29.6875 
Q 35.25 36.328125 33.5625 39.203125 
Q 31.890625 42.09375 28.421875 42.09375 
Q 24.265625 42.09375 21.796875 38.109375 
Q 19.34375 34.125 18.953125 28.515625 
z
" id="Constantia-Bold-101"/>
      </defs>
      <use xlink:href="#Constantia-Bold-68"/>
      <use x="77.705078" xlink:href="#Constantia-Bold-97"/>
      <use x="131.269531" xlink:href="#Constantia-Bold-116"/>
      <use x="170.234375" xlink:href="#Constantia-Bold-101"/>
     </g>
    </g>
   </g>
   <g id="matplotlib.axis_2">
    <g id="ytick_1">
     <g id="line2d_51">
      <path clip-path="url(#p98d0b1d4fe)" d="M 46.824375 669.832125 
L 1225.407859 669.832125 
" style="fill:none;stroke:#000000;stroke-dasharray:1,3;stroke-dashoffset:0;"/>
     </g>
     <g id="line2d_52">
      <defs>
       <path d="M 0 0 
L 4 0 
" id="m05cc673049" style="stroke:#000000;stroke-width:0.5;"/>
      </defs>
      <g>
       <use style="stroke:#000000;stroke-width:0.5;" x="46.824375" xlink:href="#m05cc673049" y="669.832125"/>
      </g>
     </g>
     <g id="text_17">
      <!-- 0.0 -->
      <g transform="translate(26.826875 672.82275)scale(0.12 -0.12)">
       <defs>
        <path d="M 13.09375 10.25 
Q 15.625 10.25 17.25 8.65625 
Q 18.890625 7.078125 18.890625 4.5 
Q 18.890625 1.90625 17.25 0.265625 
Q 15.625 -1.375 13.09375 -1.375 
Q 10.40625 -1.375 8.78125 0.265625 
Q 7.171875 1.90625 7.171875 4.5 
Q 7.171875 7.078125 8.78125 8.65625 
Q 10.40625 10.25 13.09375 10.25 
z
" id="Constantia-46"/>
       </defs>
       <use xlink:href="#Constantia-48"/>
       <use x="53.857422" xlink:href="#Constantia-46"/>
       <use x="79.443359" xlink:href="#Constantia-48"/>
      </g>
     </g>
    </g>
    <g id="ytick_2">
     <g id="line2d_53">
      <path clip-path="url(#p98d0b1d4fe)" d="M 46.824375 565.485615 
L 1225.407859 565.485615 
" style="fill:none;stroke:#000000;stroke-dasharray:1,3;stroke-dashoffset:0;"/>
     </g>
     <g id="line2d_54">
      <g>
       <use style="stroke:#000000;stroke-width:0.5;" x="46.824375" xlink:href="#m05cc673049" y="565.485615"/>
      </g>
     </g>
     <g id="text_18">
      <!-- 0.2 -->
      <g transform="translate(27.4775 568.47624)scale(0.12 -0.12)">
       <use xlink:href="#Constantia-48"/>
       <use x="53.857422" xlink:href="#Constantia-46"/>
       <use x="79.443359" xlink:href="#Constantia-50"/>
      </g>
     </g>
    </g>
    <g id="ytick_3">
     <g id="line2d_55">
      <path clip-path="url(#p98d0b1d4fe)" d="M 46.824375 461.139104 
L 1225.407859 461.139104 
" style="fill:none;stroke:#000000;stroke-dasharray:1,3;stroke-dashoffset:0;"/>
     </g>
     <g id="line2d_56">
      <g>
       <use style="stroke:#000000;stroke-width:0.5;" x="46.824375" xlink:href="#m05cc673049" y="461.139104"/>
      </g>
     </g>
     <g id="text_19">
      <!-- 0.4 -->
      <g transform="translate(26.920625 464.129729)scale(0.12 -0.12)">
       <use xlink:href="#Constantia-48"/>
       <use x="53.857422" xlink:href="#Constantia-46"/>
       <use x="79.443359" xlink:href="#Constantia-52"/>
      </g>
     </g>
    </g>
    <g id="ytick_4">
     <g id="line2d_57">
      <path clip-path="url(#p98d0b1d4fe)" d="M 46.824375 356.792594 
L 1225.407859 356.792594 
" style="fill:none;stroke:#000000;stroke-dasharray:1,3;stroke-dashoffset:0;"/>
     </g>
     <g id="line2d_58">
      <g>
       <use style="stroke:#000000;stroke-width:0.5;" x="46.824375" xlink:href="#m05cc673049" y="356.792594"/>
      </g>
     </g>
     <g id="text_20">
      <!-- 0.6 -->
      <g transform="translate(26.796875 359.783219)scale(0.12 -0.12)">
       <use xlink:href="#Constantia-48"/>
       <use x="53.857422" xlink:href="#Constantia-46"/>
       <use x="79.443359" xlink:href="#Constantia-54"/>
      </g>
     </g>
    </g>
    <g id="ytick_5">
     <g id="line2d_59">
      <path clip-path="url(#p98d0b1d4fe)" d="M 46.824375 252.446083 
L 1225.407859 252.446083 
" style="fill:none;stroke:#000000;stroke-dasharray:1,3;stroke-dashoffset:0;"/>
     </g>
     <g id="line2d_60">
      <g>
       <use style="stroke:#000000;stroke-width:0.5;" x="46.824375" xlink:href="#m05cc673049" y="252.446083"/>
      </g>
     </g>
     <g id="text_21">
      <!-- 0.8 -->
      <g transform="translate(26.85125 255.436708)scale(0.12 -0.12)">
       <use xlink:href="#Constantia-48"/>
       <use x="53.857422" xlink:href="#Constantia-46"/>
       <use x="79.443359" xlink:href="#Constantia-56"/>
      </g>
     </g>
    </g>
    <g id="ytick_6">
     <g id="line2d_61">
      <path clip-path="url(#p98d0b1d4fe)" d="M 46.824375 148.099573 
L 1225.407859 148.099573 
" style="fill:none;stroke:#000000;stroke-dasharray:1,3;stroke-dashoffset:0;"/>
     </g>
     <g id="line2d_62">
      <g>
       <use style="stroke:#000000;stroke-width:0.5;" x="46.824375" xlink:href="#m05cc673049" y="148.099573"/>
      </g>
     </g>
     <g id="text_22">
      <!-- 1.0 -->
      <g transform="translate(29.534375 151.090198)scale(0.12 -0.12)">
       <use xlink:href="#Constantia-49"/>
       <use x="31.298828" xlink:href="#Constantia-46"/>
       <use x="56.884766" xlink:href="#Constantia-48"/>
      </g>
     </g>
    </g>
    <g id="ytick_7">
     <g id="line2d_63">
      <path clip-path="url(#p98d0b1d4fe)" d="M 46.824375 43.753062 
L 1225.407859 43.753062 
" style="fill:none;stroke:#000000;stroke-dasharray:1,3;stroke-dashoffset:0;"/>
     </g>
     <g id="line2d_64">
      <g>
       <use style="stroke:#000000;stroke-width:0.5;" x="46.824375" xlink:href="#m05cc673049" y="43.753062"/>
      </g>
     </g>
     <g id="text_23">
      <!-- 1.2 -->
      <g transform="translate(30.185 46.743687)scale(0.12 -0.12)">
       <use xlink:href="#Constantia-49"/>
       <use x="31.298828" xlink:href="#Constantia-46"/>
       <use x="56.884766" xlink:href="#Constantia-50"/>
      </g>
     </g>
    </g>
    <g id="text_24">
     <!-- Active Cases -->
     <g transform="translate(18.236719 400.338297)rotate(-90)scale(0.15 -0.15)">
      <defs>
       <path d="M 18.5625 21.6875 
L 15.09375 12.546875 
Q 14.0625 9.859375 13.5 8.21875 
Q 12.9375 6.59375 12.9375 5.71875 
Q 12.9375 4.890625 13.375 4.4375 
Q 13.8125 4 14.75 3.765625 
L 19.4375 2.390625 
L 19.578125 -0.140625 
Q 12.5 0 8.0625 0 
Q 3.421875 0 -2.546875 -0.140625 
L -2.78125 2.296875 
L 2.4375 3.859375 
Q 4.296875 4.390625 5.171875 5.640625 
Q 6.0625 6.890625 7.125 9.421875 
L 31.453125 68.65625 
L 36.71875 69.4375 
L 57.765625 10.0625 
Q 58.984375 6.640625 59.984375 5.4375 
Q 60.984375 4.25 62.84375 3.71875 
L 67.625 2.296875 
L 67.78125 -0.140625 
Q 61.1875 0 54.5 0 
Q 45.65625 0 37.25 -0.140625 
L 37.015625 2.296875 
L 41.84375 3.71875 
Q 42.828125 4 43.265625 4.4375 
Q 43.703125 4.890625 43.703125 5.765625 
Q 43.703125 6.734375 43.203125 8.3125 
Q 42.71875 9.90625 41.796875 12.5 
L 38.578125 21.6875 
z
M 29.109375 49.703125 
Q 28.21875 47.171875 27.203125 44.4375 
L 20.515625 26.765625 
L 36.8125 26.765625 
L 30.8125 44.390625 
Q 29.890625 47.171875 29.109375 49.703125 
z
" id="Constantia-Bold-65"/>
       <path d="M 45.015625 3.21875 
Q 36.921875 -1.375 28.265625 -1.375 
Q 17.578125 -1.375 10.6875 4.828125 
Q 3.8125 11.03125 3.8125 21.390625 
Q 3.8125 32.671875 11.296875 39.640625 
Q 18.796875 46.625 30.421875 46.625 
Q 37.796875 46.625 44.625 43.84375 
Q 42.875 36.96875 41.546875 29.390625 
L 38.875 28.953125 
L 35.109375 41.15625 
Q 33.796875 41.65625 31.546875 41.65625 
Q 25.984375 41.65625 22.40625 36.796875 
Q 18.84375 31.9375 18.84375 23.78125 
Q 18.84375 14.265625 23.359375 9.734375 
Q 27.875 5.21875 36.234375 5.21875 
Q 40.234375 5.21875 44.625 6.15625 
z
" id="Constantia-Bold-99"/>
       <path d="M 23.78125 62.984375 
Q 23.78125 59.625 21.609375 57.515625 
Q 19.4375 55.421875 15.921875 55.421875 
Q 12.703125 55.421875 10.625 57.390625 
Q 8.546875 59.375 8.546875 62.546875 
Q 8.546875 66.015625 10.734375 68.015625 
Q 12.9375 70.015625 16.453125 70.015625 
Q 19.671875 70.015625 21.71875 68.1875 
Q 23.78125 66.359375 23.78125 62.984375 
z
M 2.296875 43.0625 
Q 14.3125 44.875 23.390625 46.828125 
L 23.921875 46.4375 
Q 23.640625 39.703125 23.640625 32.078125 
L 23.640625 13.671875 
Q 23.640625 7.859375 23.734375 5.5625 
Q 23.828125 4.25 24.953125 3.90625 
L 31.0625 2.203125 
L 31.203125 -0.140625 
Q 23.96875 0 16.84375 0 
Q 9.578125 0 2.484375 -0.140625 
L 2.25 2.203125 
L 8.453125 3.90625 
Q 9.578125 4.203125 9.671875 5.375 
Q 9.765625 7.28125 9.765625 11.765625 
L 9.765625 27.484375 
Q 9.765625 33.890625 9.578125 39.265625 
L 2.59375 41.0625 
z
" id="Constantia-Bold-105"/>
       <path d="M -1.265625 45.515625 
Q 5.125 45.359375 12.203125 45.359375 
Q 18.953125 45.359375 25.09375 45.515625 
L 25.390625 43.171875 
L 20.171875 41.703125 
Q 23.296875 32.5625 27.546875 21.734375 
Q 28.65625 18.84375 29.828125 15.375 
Q 31.0625 18.75 32.28125 21.734375 
Q 36.1875 31.546875 39.9375 41.703125 
L 34.859375 43.171875 
L 34.625 45.515625 
Q 38.1875 45.359375 43.5 45.359375 
Q 47.90625 45.359375 52.25 45.515625 
L 52.484375 43.171875 
L 47.21875 41.75 
Q 46 41.359375 45.3125 39.84375 
Q 41.5 30.953125 36.34375 18.53125 
Q 31.203125 6.109375 28.609375 -0.4375 
L 22.359375 -1.125 
Q 19.671875 6.0625 14.5625 18.453125 
Q 9.46875 30.859375 5.90625 39.59375 
Q 5.125 41.3125 3.765625 41.796875 
L -1.125 43.171875 
z
" id="Constantia-Bold-118"/>
       <path id="Constantia-Bold-32"/>
       <path d="M 58.5 49.90625 
L 55.8125 49.46875 
L 52.09375 63.484375 
Q 48.25 64.703125 43.75 64.703125 
Q 32.953125 64.703125 27.046875 56.609375 
Q 21.140625 48.53125 21.140625 35.453125 
Q 21.140625 21.484375 28.09375 13.1875 
Q 35.0625 4.890625 47.40625 4.890625 
Q 54.296875 4.890625 61.921875 7.671875 
L 62.546875 4.890625 
Q 52.78125 -1.765625 40.484375 -1.765625 
Q 24.515625 -1.765625 14.671875 7.859375 
Q 4.828125 17.484375 4.828125 33.203125 
Q 4.828125 49.953125 15.625 59.71875 
Q 26.421875 69.484375 43.796875 69.484375 
Q 52.390625 69.484375 61.375 67.484375 
L 61.671875 67 
z
" id="Constantia-Bold-67"/>
       <path d="M 31.9375 41.109375 
Q 28.859375 41.84375 25.296875 41.84375 
Q 20.84375 41.84375 18.03125 40.28125 
Q 15.234375 38.71875 15.234375 35.84375 
Q 15.234375 33.640625 16.453125 32.4375 
Q 17.671875 31.25 20.65625 30.21875 
L 28.46875 27.484375 
Q 35.453125 25.09375 38.671875 21.703125 
Q 41.890625 18.3125 41.890625 13.765625 
Q 41.890625 6.59375 35.859375 2.609375 
Q 29.828125 -1.375 20.015625 -1.375 
Q 11.8125 -1.375 3.90625 2 
Q 5.5625 8.546875 6.640625 14.703125 
L 9.125 15.09375 
L 12.640625 4.4375 
Q 15.625 3.421875 20.125 3.421875 
Q 24.359375 3.421875 27 5.03125 
Q 29.640625 6.640625 29.640625 9.515625 
Q 29.640625 11.921875 28.046875 13.546875 
Q 26.46875 15.1875 21.734375 16.796875 
L 15.765625 18.84375 
Q 10.0625 20.84375 7.171875 24.046875 
Q 4.296875 27.25 4.296875 31.890625 
Q 4.296875 39.015625 9.90625 42.8125 
Q 15.53125 46.625 25.390625 46.625 
Q 33.5 46.625 40.046875 44.234375 
Q 38.578125 37.84375 37.546875 32.125 
L 34.859375 31.734375 
z
" id="Constantia-Bold-115"/>
      </defs>
      <use xlink:href="#Constantia-Bold-65"/>
      <use x="65.943359" xlink:href="#Constantia-Bold-99"/>
      <use x="114.380859" xlink:href="#Constantia-Bold-116"/>
      <use x="153.345703" xlink:href="#Constantia-Bold-105"/>
      <use x="186.5" xlink:href="#Constantia-Bold-118"/>
      <use x="238.306641" xlink:href="#Constantia-Bold-101"/>
      <use x="292.066406" xlink:href="#Constantia-Bold-32"/>
      <use x="315.992188" xlink:href="#Constantia-Bold-67"/>
      <use x="381.958984" xlink:href="#Constantia-Bold-97"/>
      <use x="435.523438" xlink:href="#Constantia-Bold-115"/>
      <use x="481.177734" xlink:href="#Constantia-Bold-101"/>
      <use x="534.9375" xlink:href="#Constantia-Bold-115"/>
     </g>
    </g>
    <g id="text_25">
     <!-- 1e7 -->
     <g transform="translate(46.824375 40.753062)scale(0.12 -0.12)">
      <use xlink:href="#Constantia-49"/>
      <use x="31.298828" xlink:href="#Constantia-101"/>
      <use x="79.199219" xlink:href="#Constantia-55"/>
     </g>
    </g>
   </g>
   <g id="text_26">
    <!-- Top continents ActiveCases -->
    <g transform="translate(526.828695 19.708281)scale(0.17 -0.17)">
     <defs>
      <path d="M 31.296875 0 
Q 22.703125 0 14.890625 -0.140625 
L 14.65625 2.296875 
L 22.46875 4.4375 
Q 23.6875 4.828125 23.734375 6 
Q 23.828125 9.671875 23.828125 15.4375 
L 23.828125 63.140625 
L 9.765625 63.140625 
L 5.28125 50.140625 
L 2.546875 49.703125 
L 1.265625 67.96875 
L 1.609375 68.359375 
Q 13.625 68.171875 24.609375 68.171875 
L 38.234375 68.171875 
Q 49.21875 68.171875 61.375 68.359375 
L 61.671875 67.96875 
L 58.453125 50.09375 
L 55.71875 49.65625 
L 52.546875 63.140625 
L 38.421875 63.140625 
L 38.421875 15.4375 
Q 38.421875 9.671875 38.53125 6 
Q 38.578125 4.828125 39.84375 4.4375 
L 47.515625 2.296875 
L 47.65625 -0.140625 
Q 39.546875 0 31.296875 0 
z
" id="Constantia-Bold-84"/>
      <path d="M 19.046875 23.1875 
Q 19.046875 14.3125 21.703125 8.765625 
Q 24.359375 3.21875 30.21875 3.21875 
Q 35.6875 3.21875 38.25 8.09375 
Q 40.828125 12.984375 40.828125 22.609375 
Q 40.828125 31.640625 38.109375 36.84375 
Q 35.40625 42.046875 29.640625 42.046875 
Q 24.265625 42.046875 21.65625 37.359375 
Q 19.046875 32.671875 19.046875 23.1875 
z
M 55.953125 23.578125 
Q 55.953125 12.453125 48.53125 5.53125 
Q 41.109375 -1.375 29.203125 -1.375 
Q 17.625 -1.375 10.734375 5.140625 
Q 3.859375 11.671875 3.859375 22.21875 
Q 3.859375 32.90625 11.078125 39.765625 
Q 18.3125 46.625 30.609375 46.625 
Q 42.28125 46.625 49.109375 40.296875 
Q 55.953125 33.984375 55.953125 23.578125 
z
" id="Constantia-Bold-111"/>
      <path d="M 1.609375 41.0625 
L 1.3125 43.0625 
Q 12.59375 44.734375 21.96875 46.78125 
L 22.703125 46.390625 
L 22.703125 41.796875 
Q 30.28125 46.625 37.3125 46.625 
Q 46.484375 46.625 51.875 40.546875 
Q 57.28125 34.46875 57.28125 24.65625 
Q 57.28125 12.5 49.6875 5.5625 
Q 42.09375 -1.375 29.640625 -1.375 
Q 26.3125 -1.375 22.703125 -0.6875 
L 22.703125 -10.984375 
Q 22.703125 -15.828125 22.796875 -17.78125 
Q 22.90625 -19.28125 24.125 -19.578125 
L 31 -21.390625 
L 31.15625 -23.734375 
Q 23.046875 -23.578125 15.921875 -23.578125 
Q 8.59375 -23.578125 1.5625 -23.734375 
L 1.3125 -21.390625 
L 7.46875 -19.671875 
Q 8.640625 -19.390625 8.6875 -18.21875 
Q 8.796875 -14.59375 8.796875 -7.375 
L 8.796875 12.109375 
Q 8.796875 33.40625 8.59375 39.265625 
z
M 22.703125 4.203125 
Q 26.125 3.46875 29.296875 3.46875 
Q 35.75 3.46875 39.0625 8.390625 
Q 42.390625 13.328125 42.390625 22.515625 
Q 42.390625 31.15625 39.265625 35.5625 
Q 36.140625 39.984375 30.21875 39.984375 
Q 25.984375 39.984375 22.703125 38.375 
z
" id="Constantia-Bold-112"/>
      <path d="M 2.296875 43.0625 
Q 13.578125 44.734375 22.90625 46.78125 
L 23.640625 46.390625 
L 23.640625 41.15625 
Q 31.890625 46.625 39.9375 46.625 
Q 47.078125 46.625 51.125 42.75 
Q 55.171875 38.875 55.171875 31.734375 
L 55.171875 14.59375 
Q 55.171875 8.5 55.28125 5.5625 
Q 55.328125 4.25 56.546875 3.90625 
L 62.453125 2.203125 
L 62.59375 -0.140625 
Q 55.609375 0 48.53125 0 
Q 41.21875 0 35.359375 -0.140625 
L 35.15625 2.203125 
L 40.046875 3.65625 
Q 41.15625 4 41.265625 5.125 
Q 41.3125 5.859375 41.3125 8.203125 
L 41.3125 28.65625 
Q 41.3125 34.671875 38.96875 37.28125 
Q 36.625 39.890625 31.984375 39.890625 
Q 27.9375 39.890625 23.640625 37.546875 
L 23.640625 16.546875 
Q 23.640625 10.453125 23.734375 5.375 
Q 23.78125 4.046875 24.859375 3.765625 
L 29.9375 2.203125 
L 30.03125 -0.140625 
Q 23.96875 0 16.84375 0 
Q 9.578125 0 2.546875 -0.140625 
L 2.296875 2.203125 
L 8.59375 3.90625 
Q 9.671875 4.203125 9.71875 5.375 
Q 9.765625 8.5 9.765625 11.375 
L 9.765625 27.4375 
Q 9.765625 33.84375 9.578125 39.265625 
L 2.59375 41.0625 
z
" id="Constantia-Bold-110"/>
     </defs>
     <use xlink:href="#Constantia-Bold-84"/>
     <use x="53.359375" xlink:href="#Constantia-Bold-111"/>
     <use x="113.222656" xlink:href="#Constantia-Bold-112"/>
     <use x="174.355469" xlink:href="#Constantia-Bold-32"/>
     <use x="195.90625" xlink:href="#Constantia-Bold-99"/>
     <use x="244.34375" xlink:href="#Constantia-Bold-111"/>
     <use x="304.207031" xlink:href="#Constantia-Bold-110"/>
     <use x="368.171875" xlink:href="#Constantia-Bold-116"/>
     <use x="407.136719" xlink:href="#Constantia-Bold-105"/>
     <use x="440.291016" xlink:href="#Constantia-Bold-110"/>
     <use x="504.255859" xlink:href="#Constantia-Bold-101"/>
     <use x="558.015625" xlink:href="#Constantia-Bold-110"/>
     <use x="621.980469" xlink:href="#Constantia-Bold-116"/>
     <use x="660.945312" xlink:href="#Constantia-Bold-115"/>
     <use x="706.599609" xlink:href="#Constantia-Bold-32"/>
     <use x="729.025391" xlink:href="#Constantia-Bold-65"/>
     <use x="794.96875" xlink:href="#Constantia-Bold-99"/>
     <use x="843.40625" xlink:href="#Constantia-Bold-116"/>
     <use x="882.371094" xlink:href="#Constantia-Bold-105"/>
     <use x="915.525391" xlink:href="#Constantia-Bold-118"/>
     <use x="967.332031" xlink:href="#Constantia-Bold-101"/>
     <use x="1021.091797" xlink:href="#Constantia-Bold-67"/>
     <use x="1087.058594" xlink:href="#Constantia-Bold-97"/>
     <use x="1140.623047" xlink:href="#Constantia-Bold-115"/>
     <use x="1186.277344" xlink:href="#Constantia-Bold-101"/>
     <use x="1240.037109" xlink:href="#Constantia-Bold-115"/>
    </g>
    <!-- Active Cases by Date -->
    <g transform="translate(554.128304 38.753062)scale(0.17 -0.17)">
     <defs>
      <path d="M 22.40625 4.390625 
Q 25.640625 3.515625 28.859375 3.515625 
Q 35.5 3.515625 38.796875 8.421875 
Q 42.09375 13.328125 42.09375 22.40625 
Q 42.09375 30.71875 39.015625 35.34375 
Q 35.9375 39.984375 29.9375 39.984375 
Q 26.125 39.984375 22.40625 38.375 
z
M 22.703125 73.1875 
Q 22.40625 65.921875 22.40625 51.375 
L 22.40625 42.046875 
Q 29.890625 46.625 36.96875 46.625 
Q 46.234375 46.625 51.625 40.453125 
Q 57.03125 34.28125 57.03125 24.3125 
Q 57.03125 12.15625 49.34375 5.421875 
Q 41.65625 -1.3125 28.03125 -1.3125 
Q 19.484375 -1.3125 8.453125 1.859375 
Q 8.546875 7.671875 8.546875 17.4375 
L 8.546875 46.390625 
Q 8.546875 57.171875 8.34375 65.875 
L 1.171875 67.828125 
L 0.875 69.828125 
Q 13.03125 71.625 22.171875 73.578125 
z
" id="Constantia-Bold-98"/>
      <path d="M -1.765625 45.515625 
Q 4.734375 45.359375 10.015625 45.359375 
Q 16.84375 45.359375 24.5625 45.515625 
L 24.8125 43.171875 
L 18.703125 41.609375 
Q 20.609375 36.8125 22.3125 32.46875 
Q 24.03125 28.125 26.859375 21.484375 
Q 28.125 18.703125 29.59375 14.984375 
Q 31.0625 18.796875 32.5625 22.5625 
Q 36.53125 32.953125 39.84375 41.703125 
L 34.765625 43.171875 
L 34.515625 45.515625 
Q 38.328125 45.359375 43.5 45.359375 
Q 48 45.359375 52.09375 45.515625 
L 52.34375 43.171875 
L 47.65625 41.890625 
Q 46.09375 41.40625 45.40625 39.890625 
Q 43.703125 35.84375 41.609375 30.90625 
Q 35.25 15.71875 31.734375 5.71875 
Q 29.5 -0.78125 27.6875 -7.546875 
Q 25.875 -14.3125 24.8125 -19.4375 
Q 24.265625 -22.21875 22.796875 -23.234375 
Q 21.34375 -24.265625 16.21875 -24.265625 
Q 10.84375 -24.265625 5.953125 -23.875 
L 5.71875 -21.625 
Q 11.375 -20.90625 13.625 -18.5 
Q 16.84375 -15.140625 23.53125 -0.34375 
L 23.875 0.59375 
L 21.296875 1.3125 
Q 12.5 23.046875 5.328125 39.84375 
Q 4.734375 41.359375 3.125 41.84375 
L -1.5625 43.171875 
z
" id="Constantia-Bold-121"/>
     </defs>
     <use xlink:href="#Constantia-Bold-65"/>
     <use x="65.943359" xlink:href="#Constantia-Bold-99"/>
     <use x="114.380859" xlink:href="#Constantia-Bold-116"/>
     <use x="153.345703" xlink:href="#Constantia-Bold-105"/>
     <use x="186.5" xlink:href="#Constantia-Bold-118"/>
     <use x="238.306641" xlink:href="#Constantia-Bold-101"/>
     <use x="292.066406" xlink:href="#Constantia-Bold-32"/>
     <use x="315.992188" xlink:href="#Constantia-Bold-67"/>
     <use x="381.958984" xlink:href="#Constantia-Bold-97"/>
     <use x="435.523438" xlink:href="#Constantia-Bold-115"/>
     <use x="481.177734" xlink:href="#Constantia-Bold-101"/>
     <use x="534.9375" xlink:href="#Constantia-Bold-115"/>
     <use x="580.591797" xlink:href="#Constantia-Bold-32"/>
     <use x="604.517578" xlink:href="#Constantia-Bold-98"/>
     <use x="665.40625" xlink:href="#Constantia-Bold-121"/>
     <use x="716.626953" xlink:href="#Constantia-Bold-32"/>
     <use x="740.552734" xlink:href="#Constantia-Bold-68"/>
     <use x="818.257812" xlink:href="#Constantia-Bold-97"/>
     <use x="871.822266" xlink:href="#Constantia-Bold-116"/>
     <use x="910.787109" xlink:href="#Constantia-Bold-101"/>
    </g>
   </g>
   <g id="legend_1">
    <g id="patch_5">
     <path d="M 1233.086442 188.207437 
L 1363.787223 188.207437 
L 1363.787223 50.253062 
L 1233.086442 50.253062 
z
" style="fill:#ffffff;stroke:#000000;stroke-linejoin:miter;"/>
    </g>
    <g id="line2d_65">
     <path d="M 1242.186442 60.468219 
L 1260.386442 60.468219 
" style="fill:none;stroke:#17becf;stroke-linecap:square;stroke-width:3;"/>
    </g>
    <g id="line2d_66"/>
    <g id="text_27">
     <!-- World -->
     <g transform="translate(1274.686442 65.018219)scale(0.13 -0.13)">
      <defs>
       <path d="M 68.359375 -0.390625 
L 51.21875 51.609375 
L 33.296875 0 
L 28.375 -0.390625 
L 8.84375 59.578125 
Q 8.0625 61.859375 7.0625 63.109375 
Q 6.0625 64.359375 4.25 64.890625 
L -0.203125 66.265625 
L -0.296875 68.359375 
Q 4.5 68.171875 11.03125 68.171875 
Q 16.9375 68.171875 24.421875 68.359375 
L 24.609375 66.265625 
L 20.015625 64.9375 
Q 19 64.703125 18.546875 64.203125 
Q 18.109375 63.71875 18.109375 62.796875 
Q 18.109375 61.8125 18.578125 60.21875 
Q 19.046875 58.640625 19.828125 56.0625 
L 33.0625 14.109375 
L 51.171875 68.265625 
L 55.5625 68.609375 
L 73.1875 13.625 
L 86.96875 56 
Q 87.84375 58.796875 88.328125 60.453125 
Q 88.8125 62.109375 88.8125 62.984375 
Q 88.8125 63.875 88.375 64.265625 
Q 87.9375 64.65625 86.96875 64.890625 
L 82.375 66.109375 
L 82.28125 68.359375 
Q 87.546875 68.171875 92.96875 68.171875 
Q 98.25 68.171875 103.21875 68.359375 
L 103.421875 66.265625 
L 98.484375 64.703125 
Q 97.015625 64.265625 96.15625 63.328125 
Q 95.3125 62.40625 94.484375 60.109375 
L 73.296875 0 
z
" id="Constantia-87"/>
       <path d="M 13.71875 23.046875 
Q 13.71875 13.921875 17.140625 8.171875 
Q 20.5625 2.4375 27.296875 2.4375 
Q 33.59375 2.4375 36.890625 7.484375 
Q 40.1875 12.546875 40.1875 22.46875 
Q 40.1875 31.78125 36.71875 37.15625 
Q 33.25 42.53125 26.65625 42.53125 
Q 20.40625 42.53125 17.0625 37.6875 
Q 13.71875 32.859375 13.71875 23.046875 
z
M 50.140625 23.484375 
Q 50.140625 12.359375 43.421875 5.484375 
Q 36.71875 -1.375 26.375 -1.375 
Q 16.265625 -1.375 10.03125 5.09375 
Q 3.8125 11.578125 3.8125 22.015625 
Q 3.8125 32.765625 10.328125 39.578125 
Q 16.84375 46.390625 27.59375 46.390625 
Q 37.75 46.390625 43.9375 40.109375 
Q 50.140625 33.84375 50.140625 23.484375 
z
" id="Constantia-111"/>
       <path d="M 2.828125 42.96875 
Q 10.984375 44.53125 18.3125 46.390625 
L 18.796875 46.046875 
L 18.796875 40.328125 
Q 27.828125 46.390625 36.53125 46.390625 
L 36.765625 46.09375 
Q 35.359375 38.8125 33.984375 31 
L 32.03125 30.671875 
Q 30.671875 34.8125 29.390625 37.328125 
Q 28.125 39.84375 25.390625 39.84375 
Q 22.75 39.84375 18.796875 37.40625 
L 18.796875 16.265625 
Q 18.796875 8.640625 18.890625 5.375 
Q 18.953125 4.046875 20.125 3.71875 
L 26.609375 1.859375 
L 26.765625 -0.140625 
Q 19.140625 0 14.359375 0 
Q 9.578125 0 3.03125 -0.140625 
L 2.828125 1.859375 
L 8.5 3.515625 
Q 9.671875 3.90625 9.71875 5.03125 
Q 9.765625 7.125 9.765625 11.03125 
L 9.765625 27.6875 
Q 9.765625 35.640625 9.578125 39.546875 
L 3.078125 41.3125 
z
" id="Constantia-114"/>
       <path d="M 2.734375 68.5 
L 2.484375 70.125 
Q 11.140625 71.78125 18.40625 73.578125 
L 18.84375 73.1875 
Q 18.5625 65.234375 18.5625 51.078125 
L 18.5625 19.28125 
Q 18.5625 10.546875 18.65625 5.21875 
Q 18.796875 3.8125 20.015625 3.46875 
L 25.34375 1.859375 
L 25.484375 -0.140625 
Q 18.890625 0 14.109375 0 
Q 9.328125 0 2.78125 -0.140625 
L 2.59375 1.859375 
L 8.109375 3.46875 
Q 9.328125 3.859375 9.421875 5.03125 
Q 9.515625 10.546875 9.515625 17.328125 
L 9.515625 37.40625 
Q 9.515625 55.5625 9.328125 66.546875 
z
" id="Constantia-108"/>
       <path d="M 37.9375 41.015625 
Q 34.671875 42.046875 30.609375 42.046875 
Q 22.21875 42.046875 17.8125 37.28125 
Q 13.421875 32.515625 13.421875 22.859375 
Q 13.421875 14.5 17.328125 9.5 
Q 21.234375 4.5 28.375 4.5 
Q 32.953125 4.5 37.9375 7.03125 
z
M 30.90625 70.125 
Q 39.59375 71.78125 46.828125 73.578125 
L 47.265625 73.1875 
Q 46.96875 62.75 46.96875 50.734375 
L 46.96875 24.171875 
Q 46.96875 17.4375 47.015625 10.84375 
Q 47.015625 8.34375 47.1875 6.828125 
Q 47.359375 5.328125 48.046875 4.515625 
Q 48.734375 3.71875 50.078125 3.421875 
Q 51.421875 3.125 53.859375 3.078125 
L 54.109375 1.171875 
Q 51.953125 0.34375 48.953125 -0.484375 
Q 45.953125 -1.3125 44.875 -1.3125 
Q 39.9375 -1.3125 38.234375 4.25 
Q 30.671875 -1.375 23.53125 -1.375 
Q 14.5 -1.375 9.109375 5.046875 
Q 3.71875 11.46875 3.71875 20.84375 
Q 3.71875 32.953125 10.890625 39.59375 
Q 18.0625 46.234375 30.953125 46.234375 
Q 34.078125 46.234375 37.9375 45.5625 
Q 37.9375 56.34375 37.75 66.546875 
L 31.15625 68.5 
z
" id="Constantia-100"/>
      </defs>
      <use xlink:href="#Constantia-87"/>
      <use x="94.828125" xlink:href="#Constantia-111"/>
      <use x="148.880859" xlink:href="#Constantia-114"/>
      <use x="187.210938" xlink:href="#Constantia-108"/>
      <use x="215.287109" xlink:href="#Constantia-100"/>
     </g>
    </g>
    <g id="line2d_67">
     <path d="M 1242.186442 79.618844 
L 1260.386442 79.618844 
" style="fill:none;stroke:#bcbd22;stroke-linecap:square;stroke-width:3;"/>
    </g>
    <g id="line2d_68"/>
    <g id="text_28">
     <!-- Europe -->
     <g transform="translate(1274.686442 84.168844)scale(0.13 -0.13)">
      <defs>
       <path d="M 16.890625 68.171875 
L 28.765625 68.171875 
Q 39.703125 68.171875 51.859375 68.359375 
L 52.15625 67.96875 
L 49.3125 52.875 
L 47.359375 52.546875 
L 44.34375 63.8125 
L 21.78125 63.8125 
L 21.78125 36.96875 
L 26.21875 36.96875 
Q 31.296875 36.96875 37.546875 37.0625 
Q 38.8125 37.109375 39.203125 38.328125 
L 40.921875 44.921875 
L 43.5625 45.015625 
Q 43.40625 38.1875 43.40625 34.90625 
Q 43.40625 31.734375 43.5625 24.953125 
L 40.921875 24.75 
L 39.15625 31.453125 
Q 38.765625 32.71875 37.640625 32.765625 
Q 31.296875 32.859375 26.171875 32.859375 
L 21.78125 32.859375 
L 21.78125 15.09375 
Q 21.78125 9.671875 21.875 4.390625 
L 45.3125 4.390625 
L 51.265625 16.796875 
L 53.46875 17.1875 
L 52.390625 0.203125 
L 52.046875 -0.140625 
Q 39.40625 0 28.71875 0 
L 17.09375 0 
Q 11.1875 0 4.984375 -0.140625 
L 4.78125 1.953125 
L 10.796875 3.765625 
Q 12.015625 4.109375 12.109375 5.28125 
Q 12.15625 7.234375 12.171875 9.640625 
Q 12.203125 12.0625 12.203125 14.984375 
L 12.203125 54.59375 
Q 12.203125 57.078125 12.171875 59.078125 
Q 12.15625 61.078125 12.109375 62.703125 
Q 12.0625 63.96875 10.9375 64.359375 
L 4.890625 66.265625 
L 4.78125 68.359375 
Q 11.078125 68.171875 16.890625 68.171875 
z
" id="Constantia-69"/>
      </defs>
      <use xlink:href="#Constantia-69"/>
      <use x="57.056641" xlink:href="#Constantia-117"/>
      <use x="113.990234" xlink:href="#Constantia-114"/>
      <use x="152.320312" xlink:href="#Constantia-111"/>
      <use x="206.373047" xlink:href="#Constantia-112"/>
      <use x="262.330078" xlink:href="#Constantia-101"/>
     </g>
    </g>
    <g id="line2d_69">
     <path d="M 1242.186442 98.769469 
L 1260.386442 98.769469 
" style="fill:none;stroke:#7f7f7f;stroke-linecap:square;stroke-width:3;"/>
    </g>
    <g id="line2d_70"/>
    <g id="text_29">
     <!-- North America -->
     <g transform="translate(1274.686442 103.319469)scale(0.13 -0.13)">
      <defs>
       <path d="M 16.65625 54.4375 
L 16.65625 14.984375 
Q 16.65625 9.234375 16.75 5.421875 
Q 16.796875 4.046875 17.96875 3.765625 
L 23.78125 2.046875 
L 23.875 -0.140625 
Q 17.78125 0 13.875 0 
Q 10.0625 0 3.765625 -0.140625 
L 3.5625 1.953125 
L 9.578125 3.765625 
Q 10.84375 4.15625 10.890625 5.28125 
Q 10.984375 9.234375 10.984375 14.984375 
L 10.984375 54.59375 
Q 10.984375 59.46875 10.890625 62.703125 
Q 10.84375 63.96875 9.71875 64.359375 
L 3.65625 66.265625 
L 3.5625 68.359375 
Q 9.859375 68.171875 13.53125 68.171875 
Q 15.71875 68.171875 17.96875 68.359375 
L 58.984375 17.140625 
L 58.984375 54.78125 
Q 58.984375 59.515625 58.890625 62.9375 
Q 58.84375 64.0625 57.625 64.453125 
L 51.859375 66.109375 
L 51.765625 68.359375 
Q 58.015625 68.171875 61.859375 68.171875 
Q 65.765625 68.171875 71.875 68.359375 
L 72.078125 66.265625 
L 65.921875 64.359375 
Q 64.796875 63.96875 64.75 62.703125 
Q 64.65625 59.46875 64.65625 54.59375 
L 64.65625 0 
L 60.546875 -0.390625 
z
" id="Constantia-78"/>
       <path d="M 2.484375 70.125 
Q 10.453125 71.6875 18.40625 73.578125 
L 18.84375 73.1875 
Q 18.609375 68.609375 18.578125 60.109375 
Q 18.5625 51.609375 18.5625 40.921875 
Q 27.046875 46.390625 34.375 46.390625 
Q 41.15625 46.390625 45.15625 42.59375 
Q 49.171875 38.8125 49.171875 31.5 
L 49.171875 14.265625 
Q 49.171875 8.640625 49.265625 5.21875 
Q 49.3125 3.953125 50.484375 3.515625 
L 55.953125 1.859375 
L 56.0625 -0.140625 
Q 49.609375 0 44.828125 0 
Q 40.046875 0 34.1875 -0.140625 
L 33.984375 1.859375 
L 38.8125 3.265625 
Q 39.984375 3.65625 40.09375 4.78125 
Q 40.140625 5.46875 40.140625 7.859375 
L 40.140625 29.15625 
Q 40.140625 35.15625 37.25 37.765625 
Q 34.375 40.375 28.765625 40.375 
Q 23.921875 40.375 18.5625 38.03125 
L 18.5625 16.109375 
Q 18.5625 10.0625 18.65625 5.03125 
Q 18.703125 3.65625 19.875 3.328125 
L 24.953125 1.859375 
L 25.046875 -0.140625 
Q 18.890625 0 14.109375 0 
Q 9.328125 0 2.78125 -0.140625 
L 2.59375 1.859375 
L 8.109375 3.46875 
Q 9.375 3.859375 9.421875 5.03125 
Q 9.515625 9.71875 9.515625 17 
L 9.515625 37.40625 
Q 9.515625 47.359375 9.484375 55.03125 
Q 9.46875 62.703125 9.328125 66.546875 
L 2.734375 68.5 
z
" id="Constantia-104"/>
       <path id="Constantia-32"/>
       <path d="M 36.8125 69.390625 
L 58.5 9.671875 
Q 59.71875 6.296875 60.71875 5.09375 
Q 61.71875 3.90625 63.578125 3.328125 
L 68.171875 1.953125 
L 68.265625 -0.140625 
Q 61.859375 0 56.390625 0 
Q 50.828125 0 43.265625 -0.140625 
L 43.0625 1.953125 
L 47.703125 3.328125 
Q 48.6875 3.65625 49.09375 4.078125 
Q 49.515625 4.5 49.515625 5.375 
Q 49.515625 6.34375 49 7.921875 
Q 48.484375 9.515625 47.5625 12.15625 
L 42.96875 25.25 
L 19.4375 25.25 
L 14.3125 12.203125 
Q 13.28125 9.46875 12.6875 7.859375 
Q 12.109375 6.25 12.109375 5.328125 
Q 12.109375 4.5 12.5625 4.078125 
Q 13.03125 3.65625 13.96875 3.375 
L 18.5 2.046875 
L 18.609375 -0.140625 
Q 11.671875 0 7.28125 0 
Q 2.875 0 -2.546875 -0.140625 
L -2.78125 1.953125 
L 2.15625 3.46875 
Q 4 4.046875 4.875 5.265625 
Q 5.765625 6.5 6.84375 9.078125 
L 31.78125 68.65625 
z
M 21.234375 29.6875 
L 41.359375 29.6875 
L 31.84375 56.59375 
z
" id="Constantia-65"/>
       <path d="M 47.65625 36.859375 
Q 48.34375 34.515625 48.34375 31.59375 
L 48.34375 14.15625 
Q 48.34375 8.453125 48.4375 4.984375 
Q 48.53125 3.65625 49.703125 3.265625 
L 54.640625 1.859375 
L 54.734375 -0.140625 
Q 48.78125 0 44 0 
Q 39.203125 0 33.34375 -0.140625 
L 33.15625 1.859375 
L 37.796875 3.21875 
Q 39.203125 3.71875 39.265625 4.78125 
Q 39.3125 5.46875 39.3125 7.859375 
L 39.3125 29.15625 
Q 39.3125 35.15625 36.578125 37.765625 
Q 33.84375 40.375 28.46875 40.375 
Q 23.734375 40.375 18.796875 37.546875 
L 18.796875 16.21875 
Q 18.796875 10.109375 18.890625 5.03125 
Q 18.953125 3.5625 19.921875 3.375 
L 25.09375 1.859375 
L 25.203125 -0.140625 
Q 19.140625 0 14.359375 0 
Q 9.578125 0 3.03125 -0.140625 
L 2.828125 1.859375 
L 8.453125 3.515625 
Q 9.671875 3.859375 9.71875 5.03125 
Q 9.765625 7.625 9.765625 11.03125 
L 9.765625 27.6875 
Q 9.765625 34.078125 9.578125 39.546875 
L 3.078125 41.3125 
L 2.828125 42.96875 
Q 10.890625 44.53125 18.265625 46.390625 
L 18.75 46.046875 
L 18.75 40.375 
Q 26.765625 46.390625 33.9375 46.390625 
Q 42.71875 46.390625 46.625 39.59375 
Q 54.34375 46.390625 63.375 46.390625 
Q 70.171875 46.390625 74 42.546875 
Q 77.828125 38.71875 77.828125 31.59375 
L 77.828125 14.3125 
Q 77.828125 8.15625 77.9375 5.21875 
Q 78.03125 3.90625 79.25 3.515625 
L 84.671875 1.859375 
L 84.765625 -0.140625 
Q 78.328125 0 73.53125 0 
Q 68.703125 0 62.890625 -0.140625 
L 62.703125 1.859375 
L 67.53125 3.265625 
Q 68.65625 3.65625 68.796875 4.78125 
Q 68.84375 5.46875 68.84375 7.859375 
L 68.84375 29.15625 
Q 68.84375 35.15625 66.0625 37.765625 
Q 63.28125 40.375 57.859375 40.375 
Q 52.390625 40.375 47.65625 36.859375 
z
" id="Constantia-109"/>
       <path d="M 19.34375 63.671875 
Q 19.34375 61.078125 17.71875 59.4375 
Q 16.109375 57.8125 13.578125 57.8125 
Q 11.140625 57.8125 9.59375 59.328125 
Q 8.0625 60.84375 8.0625 63.328125 
Q 8.0625 65.96875 9.671875 67.5 
Q 11.28125 69.046875 13.921875 69.046875 
Q 16.3125 69.046875 17.828125 67.65625 
Q 19.34375 66.265625 19.34375 63.671875 
z
M 2.828125 42.96875 
Q 11.375 44.578125 18.65625 46.390625 
L 19.09375 46.046875 
Q 18.796875 39.703125 18.796875 32.078125 
L 18.796875 13.328125 
Q 18.796875 7.46875 18.890625 5.21875 
Q 19 3.90625 20.125 3.515625 
L 25.78125 1.859375 
L 25.875 -0.140625 
Q 19.140625 0 14.359375 0 
Q 9.578125 0 2.984375 -0.140625 
L 2.78125 1.859375 
L 8.453125 3.515625 
Q 9.578125 3.90625 9.671875 5.03125 
Q 9.765625 6.9375 9.765625 11.421875 
L 9.765625 27.734375 
Q 9.765625 34.125 9.578125 39.546875 
L 3.078125 41.3125 
z
" id="Constantia-105"/>
       <path d="M 30.125 22.125 
Q 19.4375 22.125 15.53125 20.015625 
Q 11.625 17.921875 11.625 12.9375 
Q 11.625 8.296875 14.203125 6.359375 
Q 16.796875 4.4375 21.234375 4.4375 
Q 26.265625 4.4375 30.03125 6.15625 
z
M 6.453125 42.234375 
Q 15.96875 46.390625 23.296875 46.390625 
Q 30.765625 46.390625 34.9375 42.484375 
Q 39.109375 38.578125 39.0625 31.203125 
L 38.8125 10.890625 
Q 38.765625 8.40625 38.9375 6.890625 
Q 39.109375 5.375 39.8125 4.5625 
Q 40.53125 3.765625 41.9375 3.4375 
Q 43.359375 3.125 45.75 3.078125 
L 46 1.171875 
Q 43.890625 0.34375 40.859375 -0.484375 
Q 37.84375 -1.3125 36.765625 -1.3125 
Q 32.03125 -1.3125 30.28125 3.5625 
Q 23.4375 -1.375 17.390625 -1.375 
Q 10.59375 -1.375 6.46875 1.96875 
Q 2.34375 5.328125 2.34375 11.421875 
Q 2.34375 18.953125 9.046875 22.515625 
Q 15.765625 26.078125 30.125 26.078125 
L 30.171875 29.890625 
Q 30.21875 35.359375 27.390625 37.984375 
Q 24.5625 40.625 18.703125 40.625 
Q 14.265625 40.625 7.5625 38.96875 
z
" id="Constantia-97"/>
      </defs>
      <use xlink:href="#Constantia-78"/>
      <use x="73.402344" xlink:href="#Constantia-111"/>
      <use x="127.455078" xlink:href="#Constantia-114"/>
      <use x="165.785156" xlink:href="#Constantia-116"/>
      <use x="201.087891" xlink:href="#Constantia-104"/>
      <use x="259.046875" xlink:href="#Constantia-32"/>
      <use x="282.644531" xlink:href="#Constantia-65"/>
      <use x="350.076172" xlink:href="#Constantia-109"/>
      <use x="436.697266" xlink:href="#Constantia-101"/>
      <use x="484.597656" xlink:href="#Constantia-114"/>
      <use x="522.927734" xlink:href="#Constantia-105"/>
      <use x="551.248047" xlink:href="#Constantia-99"/>
      <use x="597.390625" xlink:href="#Constantia-97"/>
     </g>
    </g>
    <g id="line2d_71">
     <path d="M 1242.186442 117.920094 
L 1260.386442 117.920094 
" style="fill:none;stroke:#e377c2;stroke-linecap:square;stroke-width:3;"/>
    </g>
    <g id="line2d_72"/>
    <g id="text_30">
     <!-- Asia -->
     <g transform="translate(1274.686442 122.470094)scale(0.13 -0.13)">
      <defs>
       <path d="M 27.875 41.453125 
Q 25.046875 42.234375 21.734375 42.234375 
Q 17.140625 42.234375 14.328125 40.453125 
Q 11.53125 38.671875 11.53125 35.59375 
Q 11.53125 32.625 13.359375 30.90625 
Q 15.1875 29.203125 20.171875 27.546875 
L 24.171875 26.171875 
Q 30.90625 23.875 34.046875 20.921875 
Q 37.203125 17.96875 37.203125 13.1875 
Q 37.203125 6.390625 31.921875 2.5 
Q 26.65625 -1.375 18.609375 -1.375 
Q 11.1875 -1.375 3.421875 1.65625 
Q 5.078125 8.015625 6.109375 14.0625 
L 8.015625 14.359375 
L 11.53125 3.859375 
Q 14.3125 2.78125 18.609375 2.78125 
Q 23.140625 2.78125 25.84375 4.640625 
Q 28.5625 6.5 28.5625 9.859375 
Q 28.5625 12.984375 26.734375 14.796875 
Q 24.90625 16.609375 20.90625 17.921875 
L 15.828125 19.625 
Q 9.234375 21.828125 6.71875 24.921875 
Q 4.203125 28.03125 4.203125 32.625 
Q 4.203125 39.015625 9.0625 42.703125 
Q 13.921875 46.390625 21.875 46.390625 
Q 29.296875 46.390625 35.359375 44.234375 
Q 33.984375 38.671875 32.859375 32.46875 
L 31 32.125 
z
" id="Constantia-115"/>
      </defs>
      <use xlink:href="#Constantia-65"/>
      <use x="67.431641" xlink:href="#Constantia-115"/>
      <use x="107.910156" xlink:href="#Constantia-105"/>
      <use x="136.230469" xlink:href="#Constantia-97"/>
     </g>
    </g>
    <g id="line2d_73">
     <path d="M 1242.186442 137.070719 
L 1260.386442 137.070719 
" style="fill:none;stroke:#8c564b;stroke-linecap:square;stroke-width:3;"/>
    </g>
    <g id="line2d_74"/>
    <g id="text_31">
     <!-- South America -->
     <g transform="translate(1274.686442 141.620719)scale(0.13 -0.13)">
      <use xlink:href="#Constantia-83"/>
      <use x="50.976562" xlink:href="#Constantia-111"/>
      <use x="105.029297" xlink:href="#Constantia-117"/>
      <use x="161.962891" xlink:href="#Constantia-116"/>
      <use x="197.265625" xlink:href="#Constantia-104"/>
      <use x="255.224609" xlink:href="#Constantia-32"/>
      <use x="278.822266" xlink:href="#Constantia-65"/>
      <use x="346.253906" xlink:href="#Constantia-109"/>
      <use x="432.875" xlink:href="#Constantia-101"/>
      <use x="480.775391" xlink:href="#Constantia-114"/>
      <use x="519.105469" xlink:href="#Constantia-105"/>
      <use x="547.425781" xlink:href="#Constantia-99"/>
      <use x="593.568359" xlink:href="#Constantia-97"/>
     </g>
    </g>
    <g id="line2d_75">
     <path d="M 1242.186442 156.221344 
L 1260.386442 156.221344 
" style="fill:none;stroke:#9467bd;stroke-linecap:square;stroke-width:3;"/>
    </g>
    <g id="line2d_76"/>
    <g id="text_32">
     <!-- Africa -->
     <g transform="translate(1274.686442 160.771344)scale(0.13 -0.13)">
      <defs>
       <path d="M 18.796875 39.9375 
L 18.796875 13.421875 
Q 18.796875 8.84375 18.890625 5.375 
Q 19 4.046875 20.171875 3.71875 
L 26.375 1.859375 
L 26.515625 -0.140625 
Q 19.140625 0 14.40625 0 
Q 9.578125 0 3.03125 -0.140625 
L 2.78125 1.859375 
L 8.25 3.421875 
Q 9.625 3.859375 9.671875 5.03125 
Q 9.765625 8.0625 9.765625 11.421875 
L 9.765625 40.1875 
L 3.125 41.84375 
L 2.78125 43.890625 
L 9.8125 44.484375 
L 9.8125 44.671875 
Q 9.8125 58.453125 15.796875 66.015625 
Q 21.78125 73.578125 31.84375 73.578125 
Q 36.765625 73.578125 41.359375 72.359375 
Q 39.703125 66.40625 38.53125 60.109375 
L 36.46875 59.71875 
L 33.296875 69.484375 
Q 32.171875 69.625 30.46875 69.625 
Q 24.859375 69.625 21.828125 64.59375 
Q 18.796875 59.578125 18.796875 46.1875 
L 18.796875 44.578125 
L 30.953125 44.578125 
L 30.953125 39.9375 
z
" id="Constantia-102"/>
      </defs>
      <use xlink:href="#Constantia-65"/>
      <use x="67.431641" xlink:href="#Constantia-102"/>
      <use x="98.388672" xlink:href="#Constantia-114"/>
      <use x="136.71875" xlink:href="#Constantia-105"/>
      <use x="165.039062" xlink:href="#Constantia-99"/>
      <use x="211.181641" xlink:href="#Constantia-97"/>
     </g>
    </g>
    <g id="line2d_77">
     <path d="M 1242.186442 175.371969 
L 1260.386442 175.371969 
" style="fill:none;stroke:#d62728;stroke-linecap:square;stroke-width:3;"/>
    </g>
    <g id="line2d_78"/>
    <g id="text_33">
     <!-- Oceania -->
     <g transform="translate(1274.686442 179.921969)scale(0.13 -0.13)">
      <use xlink:href="#Constantia-79"/>
      <use x="80.419922" xlink:href="#Constantia-99"/>
      <use x="126.5625" xlink:href="#Constantia-101"/>
      <use x="174.462891" xlink:href="#Constantia-97"/>
      <use x="222.460938" xlink:href="#Constantia-110"/>
      <use x="280.664062" xlink:href="#Constantia-105"/>
      <use x="308.984375" xlink:href="#Constantia-97"/>
     </g>
    </g>
   </g>
  </g>
 </g>
 <defs>
  <clipPath id="p98d0b1d4fe">
   <rect height="626.079062" width="1178.583484" x="46.824375" y="43.753062"/>
  </clipPath>
 </defs>
</svg>
