<?xml version="1.0" encoding="utf-8" standalone="no"?>
<!DOCTYPE svg PUBLIC "-//W3C//DTD SVG 1.1//EN"
  "http://www.w3.org/Graphics/SVG/1.1/DTD/svg11.dtd">
<!-- Created with matplotlib (https://matplotlib.org/) -->
<svg height="689.262656pt" version="1.1" viewBox="0 0 1348.272531 689.262656" width="1348.272531pt" xmlns="http://www.w3.org/2000/svg" xmlns:xlink="http://www.w3.org/1999/xlink">
 <metadata>
  <rdf:RDF xmlns:cc="http://creativecommons.org/ns#" xmlns:dc="http://purl.org/dc/elements/1.1/" xmlns:rdf="http://www.w3.org/1999/02/22-rdf-syntax-ns#">
   <cc:Work>
    <dc:type rdf:resource="http://purl.org/dc/dcmitype/StillImage"/>
    <dc:date>2020-10-25T14:49:53.245498</dc:date>
    <dc:format>image/svg+xml</dc:format>
    <dc:creator>
     <cc:Agent>
      <dc:title>Matplotlib v3.3.2, https://matplotlib.org/</dc:title>
     </cc:Agent>
    </dc:creator>
   </cc:Work>
  </rdf:RDF>
 </metadata>
 <defs>
  <style type="text/css">*{stroke-linecap:butt;stroke-linejoin:round;}</style>
 </defs>
 <g id="figure_1">
  <g id="patch_1">
   <path d="M -0 689.262656 
L 1348.272531 689.262656 
L 1348.272531 0 
L -0 0 
z
" style="fill:#ffffff;"/>
  </g>
  <g id="axes_1">
   <g id="patch_2">
    <path d="M 53.971875 646.788281 
L 1125.331875 646.788281 
L 1125.331875 24.708281 
L 53.971875 24.708281 
z
" style="fill:#ffffff;"/>
   </g>
   <g id="patch_3">
    <path clip-path="url(#p8dff972c3b)" d="M 63.207737 646.788281 
L 81.679461 646.788281 
L 81.679461 275.095481 
L 63.207737 275.095481 
z
" style="fill:#f04a6b;stroke:#000000;stroke-linejoin:miter;"/>
   </g>
   <g id="patch_4">
    <path clip-path="url(#p8dff972c3b)" d="M 100.151185 646.788281 
L 118.622909 646.788281 
L 118.622909 270.041081 
L 100.151185 270.041081 
z
" style="fill:#3f5e99;stroke:#000000;stroke-linejoin:miter;"/>
   </g>
   <g id="patch_5">
    <path clip-path="url(#p8dff972c3b)" d="M 137.094634 646.788281 
L 155.566358 646.788281 
L 155.566358 263.820281 
L 137.094634 263.820281 
z
" style="fill:#3f5e99;stroke:#000000;stroke-linejoin:miter;"/>
   </g>
   <g id="patch_6">
    <path clip-path="url(#p8dff972c3b)" d="M 174.038082 646.788281 
L 192.509806 646.788281 
L 192.509806 263.820281 
L 174.038082 263.820281 
z
" style="fill:#3f5e99;stroke:#000000;stroke-linejoin:miter;"/>
   </g>
   <g id="patch_7">
    <path clip-path="url(#p8dff972c3b)" d="M 210.98153 646.788281 
L 229.453254 646.788281 
L 229.453254 255.266681 
L 210.98153 255.266681 
z
" style="fill:#3f5e99;stroke:#000000;stroke-linejoin:miter;"/>
   </g>
   <g id="patch_8">
    <path clip-path="url(#p8dff972c3b)" d="M 247.924978 646.788281 
L 266.396703 646.788281 
L 266.396703 254.100281 
L 247.924978 254.100281 
z
" style="fill:#3f5e99;stroke:#000000;stroke-linejoin:miter;"/>
   </g>
   <g id="patch_9">
    <path clip-path="url(#p8dff972c3b)" d="M 284.868427 646.788281 
L 303.340151 646.788281 
L 303.340151 247.879481 
L 284.868427 247.879481 
z
" style="fill:#3f5e99;stroke:#000000;stroke-linejoin:miter;"/>
   </g>
   <g id="patch_10">
    <path clip-path="url(#p8dff972c3b)" d="M 321.811875 646.788281 
L 340.283599 646.788281 
L 340.283599 245.935481 
L 321.811875 245.935481 
z
" style="fill:#3f5e99;stroke:#000000;stroke-linejoin:miter;"/>
   </g>
   <g id="patch_11">
    <path clip-path="url(#p8dff972c3b)" d="M 358.755323 646.788281 
L 377.227047 646.788281 
L 377.227047 237.381881 
L 358.755323 237.381881 
z
" style="fill:#3f5e99;stroke:#000000;stroke-linejoin:miter;"/>
   </g>
   <g id="patch_12">
    <path clip-path="url(#p8dff972c3b)" d="M 395.698772 646.788281 
L 414.170496 646.788281 
L 414.170496 228.828281 
L 395.698772 228.828281 
z
" style="fill:#3f5e99;stroke:#000000;stroke-linejoin:miter;"/>
   </g>
   <g id="patch_13">
    <path clip-path="url(#p8dff972c3b)" d="M 432.64222 646.788281 
L 451.113944 646.788281 
L 451.113944 222.996281 
L 432.64222 222.996281 
z
" style="fill:#3f5e99;stroke:#000000;stroke-linejoin:miter;"/>
   </g>
   <g id="patch_14">
    <path clip-path="url(#p8dff972c3b)" d="M 469.585668 646.788281 
L 488.057392 646.788281 
L 488.057392 218.719481 
L 469.585668 218.719481 
z
" style="fill:#3f5e99;stroke:#000000;stroke-linejoin:miter;"/>
   </g>
   <g id="patch_15">
    <path clip-path="url(#p8dff972c3b)" d="M 506.529116 646.788281 
L 525.000841 646.788281 
L 525.000841 215.997881 
L 506.529116 215.997881 
z
" style="fill:#3f5e99;stroke:#000000;stroke-linejoin:miter;"/>
   </g>
   <g id="patch_16">
    <path clip-path="url(#p8dff972c3b)" d="M 543.472565 646.788281 
L 561.944289 646.788281 
L 561.944289 205.111481 
L 543.472565 205.111481 
z
" style="fill:#3f5e99;stroke:#000000;stroke-linejoin:miter;"/>
   </g>
   <g id="patch_17">
    <path clip-path="url(#p8dff972c3b)" d="M 580.416013 646.788281 
L 598.887737 646.788281 
L 598.887737 203.167481 
L 580.416013 203.167481 
z
" style="fill:#3f5e99;stroke:#000000;stroke-linejoin:miter;"/>
   </g>
   <g id="patch_18">
    <path clip-path="url(#p8dff972c3b)" d="M 617.359461 646.788281 
L 635.831185 646.788281 
L 635.831185 194.613881 
L 617.359461 194.613881 
z
" style="fill:#3f5e99;stroke:#000000;stroke-linejoin:miter;"/>
   </g>
   <g id="patch_19">
    <path clip-path="url(#p8dff972c3b)" d="M 654.302909 646.788281 
L 672.774634 646.788281 
L 672.774634 181.783481 
L 654.302909 181.783481 
z
" style="fill:#3f5e99;stroke:#000000;stroke-linejoin:miter;"/>
   </g>
   <g id="patch_20">
    <path clip-path="url(#p8dff972c3b)" d="M 691.246358 646.788281 
L 709.718082 646.788281 
L 709.718082 170.119481 
L 691.246358 170.119481 
z
" style="fill:#3f5e99;stroke:#000000;stroke-linejoin:miter;"/>
   </g>
   <g id="patch_21">
    <path clip-path="url(#p8dff972c3b)" d="M 728.189806 646.788281 
L 746.66153 646.788281 
L 746.66153 166.231481 
L 728.189806 166.231481 
z
" style="fill:#3f5e99;stroke:#000000;stroke-linejoin:miter;"/>
   </g>
   <g id="patch_22">
    <path clip-path="url(#p8dff972c3b)" d="M 765.133254 646.788281 
L 783.604978 646.788281 
L 783.604978 152.234681 
L 765.133254 152.234681 
z
" style="fill:#3f5e99;stroke:#000000;stroke-linejoin:miter;"/>
   </g>
   <g id="patch_23">
    <path clip-path="url(#p8dff972c3b)" d="M 802.076703 646.788281 
L 820.548427 646.788281 
L 820.548427 147.180281 
L 802.076703 147.180281 
z
" style="fill:#3f5e99;stroke:#000000;stroke-linejoin:miter;"/>
   </g>
   <g id="patch_24">
    <path clip-path="url(#p8dff972c3b)" d="M 839.020151 646.788281 
L 857.491875 646.788281 
L 857.491875 135.127481 
L 839.020151 135.127481 
z
" style="fill:#3f5e99;stroke:#000000;stroke-linejoin:miter;"/>
   </g>
   <g id="patch_25">
    <path clip-path="url(#p8dff972c3b)" d="M 875.963599 646.788281 
L 894.435323 646.788281 
L 894.435323 111.799481 
L 875.963599 111.799481 
z
" style="fill:#3f5e99;stroke:#000000;stroke-linejoin:miter;"/>
   </g>
   <g id="patch_26">
    <path clip-path="url(#p8dff972c3b)" d="M 912.907047 646.788281 
L 931.378772 646.788281 
L 931.378772 97.802681 
L 912.907047 97.802681 
z
" style="fill:#3f5e99;stroke:#000000;stroke-linejoin:miter;"/>
   </g>
   <g id="patch_27">
    <path clip-path="url(#p8dff972c3b)" d="M 949.850496 646.788281 
L 968.32222 646.788281 
L 968.32222 97.802681 
L 949.850496 97.802681 
z
" style="fill:#3f5e99;stroke:#000000;stroke-linejoin:miter;"/>
   </g>
   <g id="patch_28">
    <path clip-path="url(#p8dff972c3b)" d="M 986.793944 646.788281 
L 1005.265668 646.788281 
L 1005.265668 76.807481 
L 986.793944 76.807481 
z
" style="fill:#3f5e99;stroke:#000000;stroke-linejoin:miter;"/>
   </g>
   <g id="patch_29">
    <path clip-path="url(#p8dff972c3b)" d="M 1023.737392 646.788281 
L 1042.209116 646.788281 
L 1042.209116 63.977081 
L 1023.737392 63.977081 
z
" style="fill:#3f5e99;stroke:#000000;stroke-linejoin:miter;"/>
   </g>
   <g id="patch_30">
    <path clip-path="url(#p8dff972c3b)" d="M 1060.680841 646.788281 
L 1079.152565 646.788281 
L 1079.152565 54.645881 
L 1060.680841 54.645881 
z
" style="fill:#3f5e99;stroke:#000000;stroke-linejoin:miter;"/>
   </g>
   <g id="patch_31">
    <path clip-path="url(#p8dff972c3b)" d="M 1097.624289 646.788281 
L 1116.096013 646.788281 
L 1116.096013 43.370681 
L 1097.624289 43.370681 
z
" style="fill:#3ab08b;stroke:#000000;stroke-linejoin:miter;"/>
   </g>
   <g id="patch_32">
    <path d="M 53.971875 646.788281 
L 53.971875 24.708281 
" style="fill:none;stroke:#000000;stroke-linecap:square;stroke-linejoin:miter;"/>
   </g>
   <g id="patch_33">
    <path d="M 53.971875 646.788281 
L 1125.331875 646.788281 
" style="fill:none;stroke:#000000;stroke-linecap:square;stroke-linejoin:miter;"/>
   </g>
   <g id="matplotlib.axis_1">
    <g id="xtick_1">
     <g id="line2d_1">
      <defs>
       <path d="M 0 0 
L 0 -4 
" id="mda13a01c73" style="stroke:#000000;stroke-width:0.5;"/>
      </defs>
      <g>
       <use style="stroke:#000000;stroke-width:0.5;" x="72.443599" xlink:href="#mda13a01c73" y="646.788281"/>
      </g>
     </g>
     <g id="text_1">
      <!-- 1 -->
      <g transform="translate(70.565787 659.617656)scale(0.12 -0.12)">
       <defs>
        <path d="M 1.703125 40.625 
L 1.46875 42.671875 
Q 11.28125 44.140625 21.09375 45.90625 
L 21.53125 45.515625 
Q 20.953125 36.96875 20.953125 27.875 
L 20.953125 15.96875 
Q 20.953125 9.515625 21.046875 5.5625 
Q 21.09375 4.15625 22.40625 3.8125 
L 30.171875 1.8125 
L 30.328125 -0.140625 
Q 21.296875 0 16.5 0 
Q 11.71875 0 2.734375 -0.140625 
L 2.546875 1.8125 
L 10.5 3.8125 
Q 11.765625 4.15625 11.8125 5.375 
Q 11.921875 9.328125 11.921875 14.15625 
L 11.921875 22.265625 
Q 11.921875 32.078125 11.71875 39.65625 
z
" id="Constantia-49"/>
       </defs>
       <use xlink:href="#Constantia-49"/>
      </g>
     </g>
    </g>
    <g id="xtick_2">
     <g id="line2d_2">
      <g>
       <use style="stroke:#000000;stroke-width:0.5;" x="109.387047" xlink:href="#mda13a01c73" y="646.788281"/>
      </g>
     </g>
     <g id="text_2">
      <!-- 2 -->
      <g transform="translate(106.480797 659.617656)scale(0.12 -0.12)">
       <defs>
        <path d="M 42.390625 15.484375 
L 44.53125 15.875 
L 43.5625 0.203125 
L 43.21875 -0.140625 
Q 33.25 0 22.359375 0 
Q 12.25 0 3.765625 -0.140625 
L 3.421875 3.859375 
Q 8.015625 6.84375 11.671875 9.375 
Q 15.328125 11.921875 18.015625 14.109375 
Q 20.703125 16.265625 22.75 18.21875 
Q 24.8125 20.171875 26.203125 22.09375 
Q 27.59375 24.03125 28.3125 26.03125 
Q 29.046875 28.03125 29.046875 30.21875 
Q 29.046875 34.71875 25.78125 37.34375 
Q 22.515625 39.984375 17.78125 39.984375 
Q 12.203125 39.984375 6.546875 36.96875 
L 4.6875 40.1875 
Q 13.8125 46.390625 23 46.390625 
Q 29.890625 46.390625 34.453125 43.046875 
Q 39.015625 39.703125 39.015625 33.734375 
Q 39.015625 30.03125 37.34375 26.828125 
Q 35.6875 23.640625 32.515625 20.5625 
Q 29.34375 17.484375 24.75 14.328125 
Q 20.171875 11.1875 14.265625 7.671875 
L 14.3125 7.421875 
L 38.578125 7.421875 
z
" id="Constantia-50"/>
       </defs>
       <use xlink:href="#Constantia-50"/>
      </g>
     </g>
    </g>
    <g id="xtick_3">
     <g id="line2d_3">
      <g>
       <use style="stroke:#000000;stroke-width:0.5;" x="146.330496" xlink:href="#mda13a01c73" y="646.788281"/>
      </g>
     </g>
     <g id="text_3">
      <!-- 3 -->
      <g transform="translate(143.591121 659.617656)scale(0.12 -0.12)">
       <defs>
        <path d="M 10.25 16.21875 
Q 19 17.140625 24.265625 20.75 
Q 29.546875 24.359375 29.546875 30.125 
Q 29.546875 34.71875 26.09375 37.59375 
Q 22.65625 40.484375 17.390625 40.484375 
Q 10.5 40.484375 3.46875 36.8125 
L 1.46875 40.046875 
Q 11.140625 46.390625 21.34375 46.390625 
Q 28.90625 46.390625 34.078125 42.75 
Q 39.265625 39.109375 39.265625 33.203125 
Q 39.265625 22.359375 23.25 17 
L 23.25 16.796875 
Q 32.421875 16.453125 37.5625 12.15625 
Q 42.71875 7.859375 42.71875 1.609375 
Q 42.71875 -8.5 31.96875 -15.140625 
Q 21.234375 -21.78125 1.03125 -22.46875 
L 0.484375 -18.84375 
Q 16.546875 -17.78125 24.53125 -12.625 
Q 32.515625 -7.46875 32.515625 0.25 
Q 32.515625 6.296875 28.359375 9.765625 
Q 24.21875 13.234375 16.84375 13.234375 
Q 13.96875 13.234375 10.59375 12.640625 
z
" id="Constantia-51"/>
       </defs>
       <use xlink:href="#Constantia-51"/>
      </g>
     </g>
    </g>
    <g id="xtick_4">
     <g id="line2d_4">
      <g>
       <use style="stroke:#000000;stroke-width:0.5;" x="183.273944" xlink:href="#mda13a01c73" y="646.788281"/>
      </g>
     </g>
     <g id="text_4">
      <!-- 4 -->
      <g transform="translate(180.089256 659.617656)scale(0.12 -0.12)">
       <defs>
        <path d="M 30.953125 35.015625 
Q 25.4375 28.8125 19.890625 21.78125 
Q 14.359375 14.75 8.984375 7.28125 
L 30.953125 7.28125 
z
M 39.984375 -5.71875 
Q 39.984375 -12.546875 40.234375 -19.53125 
Q 35.546875 -20.015625 31.34375 -20.796875 
L 30.859375 -20.40625 
Q 30.953125 -13.578125 30.953125 -6.5 
L 30.953125 2.4375 
L 18.796875 2.4375 
Q 12.109375 2.4375 2.546875 2.296875 
L 2.203125 5.859375 
Q 9.90625 16.0625 18.078125 26.234375 
Q 26.265625 36.421875 34.578125 46.046875 
L 40.28125 46.390625 
Q 39.984375 35.453125 39.984375 25.984375 
L 39.984375 7.28125 
L 51.171875 7.28125 
L 51.375 2.296875 
Q 46 2.4375 39.984375 2.4375 
z
" id="Constantia-52"/>
       </defs>
       <use xlink:href="#Constantia-52"/>
      </g>
     </g>
    </g>
    <g id="xtick_5">
     <g id="line2d_5">
      <g>
       <use style="stroke:#000000;stroke-width:0.5;" x="220.217392" xlink:href="#mda13a01c73" y="646.788281"/>
      </g>
     </g>
     <g id="text_5">
      <!-- 5 -->
      <g transform="translate(217.363642 659.617656)scale(0.12 -0.12)">
       <defs>
        <path d="M 6.453125 16.796875 
L 9.28125 45.3125 
Q 15.375 45.125 23.875 45.125 
Q 33.6875 45.125 42.28125 45.3125 
L 42.578125 44.921875 
L 41.359375 36.859375 
L 13.1875 37.546875 
L 11.8125 23.78125 
Q 15.96875 24.46875 19.625 24.46875 
Q 30.8125 24.46875 37.46875 19.046875 
Q 44.140625 13.625 44.140625 4.15625 
Q 44.140625 -7.953125 32.984375 -15.15625 
Q 21.828125 -22.359375 4.890625 -22.46875 
L 4.390625 -18.84375 
Q 17.71875 -18.359375 26.09375 -12.796875 
Q 34.46875 -7.234375 34.46875 2.203125 
Q 34.46875 9.46875 29.5625 13.46875 
Q 24.65625 17.484375 15.765625 17.484375 
Q 11.328125 17.484375 6.734375 16.453125 
z
" id="Constantia-53"/>
       </defs>
       <use xlink:href="#Constantia-53"/>
      </g>
     </g>
    </g>
    <g id="xtick_6">
     <g id="line2d_6">
      <g>
       <use style="stroke:#000000;stroke-width:0.5;" x="257.160841" xlink:href="#mda13a01c73" y="646.788281"/>
      </g>
     </g>
     <g id="text_6">
      <!-- 6 -->
      <g transform="translate(253.914278 659.617656)scale(0.12 -0.12)">
       <defs>
        <path d="M 47.125 64.546875 
Q 32.03125 61.53125 24.515625 53.9375 
Q 17 46.34375 14.796875 35.25 
L 14.890625 35.203125 
Q 20.796875 41.65625 30.21875 41.65625 
Q 38.96875 41.65625 44.9375 35.796875 
Q 50.921875 29.9375 50.921875 20.90625 
Q 50.921875 11.328125 44.375 5.03125 
Q 37.84375 -1.265625 28.125 -1.265625 
Q 17.390625 -1.265625 10.75 6.5 
Q 4.109375 14.265625 4.109375 26.515625 
Q 4.109375 41.546875 14.453125 53.125 
Q 24.8125 64.703125 46.4375 68.015625 
z
M 41.109375 18.0625 
Q 41.109375 26.609375 37.15625 31.953125 
Q 33.203125 37.3125 27.046875 37.3125 
Q 21.4375 37.3125 17.921875 33.328125 
Q 14.40625 29.34375 14.40625 22.515625 
Q 14.40625 14.15625 18.5 8.203125 
Q 22.609375 2.25 28.953125 2.25 
Q 34.46875 2.25 37.78125 6.8125 
Q 41.109375 11.375 41.109375 18.0625 
z
" id="Constantia-54"/>
       </defs>
       <use xlink:href="#Constantia-54"/>
      </g>
     </g>
    </g>
    <g id="xtick_7">
     <g id="line2d_7">
      <g>
       <use style="stroke:#000000;stroke-width:0.5;" x="294.104289" xlink:href="#mda13a01c73" y="646.788281"/>
      </g>
     </g>
     <g id="text_7">
      <!-- 7 -->
      <g transform="translate(291.203664 659.617656)scale(0.12 -0.12)">
       <defs>
        <path d="M 10.9375 -19.671875 
L 39.5 37.546875 
L 8.296875 37.546875 
L 5.46875 27.875 
L 3.515625 27.546875 
L 2.6875 44.921875 
L 3.03125 45.3125 
Q 8.796875 45.21875 14.265625 45.171875 
Q 19.734375 45.125 25 45.125 
L 27.734375 45.125 
Q 33.015625 45.125 37.84375 45.171875 
Q 42.671875 45.21875 47.171875 45.3125 
L 47.359375 43.21875 
Q 44.828125 37.984375 42.265625 32.46875 
Q 39.703125 26.953125 37.234375 21.3125 
Q 34.765625 15.671875 32.421875 10.125 
Q 30.078125 4.59375 28.03125 -0.65625 
Q 25.984375 -5.90625 24.25 -10.6875 
Q 22.515625 -15.484375 21.234375 -19.53125 
L 11.1875 -20.015625 
z
" id="Constantia-55"/>
       </defs>
       <use xlink:href="#Constantia-55"/>
      </g>
     </g>
    </g>
    <g id="xtick_8">
     <g id="line2d_8">
      <g>
       <use style="stroke:#000000;stroke-width:0.5;" x="331.047737" xlink:href="#mda13a01c73" y="646.788281"/>
      </g>
     </g>
     <g id="text_8">
      <!-- 8 -->
      <g transform="translate(327.828362 659.617656)scale(0.12 -0.12)">
       <defs>
        <path d="M 19.09375 34.234375 
Q 12.0625 37.890625 9.5 41.546875 
Q 6.9375 45.21875 6.9375 50.09375 
Q 6.9375 57.421875 12.96875 62.171875 
Q 19 66.9375 27.984375 66.9375 
Q 36.078125 66.9375 41.375 63.125 
Q 46.6875 59.328125 46.6875 53.265625 
Q 46.6875 44.234375 33.84375 36.765625 
Q 43.609375 32.03125 47.09375 27.75 
Q 50.59375 23.484375 50.59375 17.578125 
Q 50.59375 9.421875 43.40625 4.078125 
Q 36.234375 -1.265625 26.265625 -1.265625 
Q 16.265625 -1.265625 9.90625 3.296875 
Q 3.5625 7.859375 3.5625 15.4375 
Q 3.5625 26.8125 19.09375 34.234375 
z
M 22.5625 32.421875 
Q 12.546875 26.703125 12.546875 16.609375 
Q 12.546875 10.203125 16.375 6.421875 
Q 20.21875 2.640625 26.90625 2.640625 
Q 33.015625 2.640625 37.140625 6.03125 
Q 41.265625 9.421875 41.265625 14.84375 
Q 41.265625 20.015625 37.5 23.75 
Q 33.734375 27.484375 22.5625 32.421875 
z
M 30.21875 38.625 
Q 37.984375 44.234375 37.984375 51.8125 
Q 37.984375 57.234375 34.859375 60.1875 
Q 31.734375 63.140625 26.609375 63.140625 
Q 21.4375 63.140625 18.140625 60.453125 
Q 14.84375 57.765625 14.84375 53.125 
Q 14.84375 48.484375 18.40625 45.40625 
Q 21.96875 42.328125 30.21875 38.625 
z
" id="Constantia-56"/>
       </defs>
       <use xlink:href="#Constantia-56"/>
      </g>
     </g>
    </g>
    <g id="xtick_9">
     <g id="line2d_9">
      <g>
       <use style="stroke:#000000;stroke-width:0.5;" x="367.991185" xlink:href="#mda13a01c73" y="646.788281"/>
      </g>
     </g>
     <g id="text_9">
      <!-- 9 -->
      <g transform="translate(364.712748 659.617656)scale(0.12 -0.12)">
       <defs>
        <path d="M 8.640625 -19 
Q 20.90625 -16.796875 28.984375 -9.671875 
Q 37.0625 -2.546875 40.375 10.109375 
L 40.28125 10.15625 
Q 34.578125 3.65625 25.4375 3.65625 
Q 16.3125 3.65625 10.234375 9.484375 
Q 4.15625 15.328125 4.15625 24.3125 
Q 4.15625 33.6875 10.796875 40.03125 
Q 17.4375 46.390625 27.046875 46.390625 
Q 37.546875 46.390625 44.265625 38.75 
Q 50.984375 31.109375 50.984375 19.1875 
Q 50.984375 2.828125 39.578125 -8.59375 
Q 28.171875 -20.015625 9.328125 -22.46875 
z
M 14.0625 27.25 
Q 14.0625 18.5625 18.015625 13.28125 
Q 21.96875 8.015625 28.125 8.015625 
Q 34.234375 8.015625 37.453125 11.9375 
Q 40.671875 15.875 40.671875 22.90625 
Q 40.671875 31.453125 36.421875 37.15625 
Q 32.171875 42.875 26.21875 42.875 
Q 20.953125 42.875 17.5 38.640625 
Q 14.0625 34.421875 14.0625 27.25 
z
" id="Constantia-57"/>
       </defs>
       <use xlink:href="#Constantia-57"/>
      </g>
     </g>
    </g>
    <g id="xtick_10">
     <g id="line2d_10">
      <g>
       <use style="stroke:#000000;stroke-width:0.5;" x="404.934634" xlink:href="#mda13a01c73" y="646.788281"/>
      </g>
     </g>
     <g id="text_10">
      <!-- 10 -->
      <g transform="translate(399.825259 659.617656)scale(0.12 -0.12)">
       <defs>
        <path d="M 13.671875 23.296875 
Q 13.671875 13.625 17.15625 8.109375 
Q 20.65625 2.59375 27.203125 2.59375 
Q 33.84375 2.59375 37.015625 7.515625 
Q 40.1875 12.453125 40.1875 22.609375 
Q 40.1875 32.5625 36.71875 37.609375 
Q 33.25 42.671875 26.65625 42.671875 
Q 19.921875 42.671875 16.796875 37.84375 
Q 13.671875 33.015625 13.671875 23.296875 
z
M 49.953125 23.6875 
Q 49.953125 12.25 43.4375 5.484375 
Q 36.921875 -1.265625 26.421875 -1.265625 
Q 16.3125 -1.265625 10.109375 4.9375 
Q 3.90625 11.140625 3.90625 22.015625 
Q 3.90625 33.203125 10.390625 39.796875 
Q 16.890625 46.390625 27.484375 46.390625 
Q 37.796875 46.390625 43.875 40.375 
Q 49.953125 34.375 49.953125 23.6875 
z
" id="Constantia-48"/>
       </defs>
       <use xlink:href="#Constantia-49"/>
       <use x="31.298828" xlink:href="#Constantia-48"/>
      </g>
     </g>
    </g>
    <g id="xtick_11">
     <g id="line2d_11">
      <g>
       <use style="stroke:#000000;stroke-width:0.5;" x="441.878082" xlink:href="#mda13a01c73" y="646.788281"/>
      </g>
     </g>
     <g id="text_11">
      <!-- 11 -->
      <g transform="translate(438.122457 659.617656)scale(0.12 -0.12)">
       <use xlink:href="#Constantia-49"/>
       <use x="31.298828" xlink:href="#Constantia-49"/>
      </g>
     </g>
    </g>
    <g id="xtick_12">
     <g id="line2d_12">
      <g>
       <use style="stroke:#000000;stroke-width:0.5;" x="478.82153" xlink:href="#mda13a01c73" y="646.788281"/>
      </g>
     </g>
     <g id="text_12">
      <!-- 12 -->
      <g transform="translate(474.037468 659.617656)scale(0.12 -0.12)">
       <use xlink:href="#Constantia-49"/>
       <use x="31.298828" xlink:href="#Constantia-50"/>
      </g>
     </g>
    </g>
    <g id="xtick_13">
     <g id="line2d_13">
      <g>
       <use style="stroke:#000000;stroke-width:0.5;" x="515.764978" xlink:href="#mda13a01c73" y="646.788281"/>
      </g>
     </g>
     <g id="text_13">
      <!-- 13 -->
      <g transform="translate(511.147791 659.617656)scale(0.12 -0.12)">
       <use xlink:href="#Constantia-49"/>
       <use x="31.298828" xlink:href="#Constantia-51"/>
      </g>
     </g>
    </g>
    <g id="xtick_14">
     <g id="line2d_14">
      <g>
       <use style="stroke:#000000;stroke-width:0.5;" x="552.708427" xlink:href="#mda13a01c73" y="646.788281"/>
      </g>
     </g>
     <g id="text_14">
      <!-- 14 -->
      <g transform="translate(547.645927 659.617656)scale(0.12 -0.12)">
       <use xlink:href="#Constantia-49"/>
       <use x="31.298828" xlink:href="#Constantia-52"/>
      </g>
     </g>
    </g>
    <g id="xtick_15">
     <g id="line2d_15">
      <g>
       <use style="stroke:#000000;stroke-width:0.5;" x="589.651875" xlink:href="#mda13a01c73" y="646.788281"/>
      </g>
     </g>
     <g id="text_15">
      <!-- 15 -->
      <g transform="translate(584.920313 659.617656)scale(0.12 -0.12)">
       <use xlink:href="#Constantia-49"/>
       <use x="31.298828" xlink:href="#Constantia-53"/>
      </g>
     </g>
    </g>
    <g id="xtick_16">
     <g id="line2d_16">
      <g>
       <use style="stroke:#000000;stroke-width:0.5;" x="626.595323" xlink:href="#mda13a01c73" y="646.788281"/>
      </g>
     </g>
     <g id="text_16">
      <!-- 16 -->
      <g transform="translate(621.470948 659.617656)scale(0.12 -0.12)">
       <use xlink:href="#Constantia-49"/>
       <use x="31.298828" xlink:href="#Constantia-54"/>
      </g>
     </g>
    </g>
    <g id="xtick_17">
     <g id="line2d_17">
      <g>
       <use style="stroke:#000000;stroke-width:0.5;" x="663.538772" xlink:href="#mda13a01c73" y="646.788281"/>
      </g>
     </g>
     <g id="text_17">
      <!-- 18 -->
      <g transform="translate(658.441584 659.617656)scale(0.12 -0.12)">
       <use xlink:href="#Constantia-49"/>
       <use x="31.298828" xlink:href="#Constantia-56"/>
      </g>
     </g>
    </g>
    <g id="xtick_18">
     <g id="line2d_18">
      <g>
       <use style="stroke:#000000;stroke-width:0.5;" x="700.48222" xlink:href="#mda13a01c73" y="646.788281"/>
      </g>
     </g>
     <g id="text_18">
      <!-- 19 -->
      <g transform="translate(695.32597 659.617656)scale(0.12 -0.12)">
       <use xlink:href="#Constantia-49"/>
       <use x="31.298828" xlink:href="#Constantia-57"/>
      </g>
     </g>
    </g>
    <g id="xtick_19">
     <g id="line2d_19">
      <g>
       <use style="stroke:#000000;stroke-width:0.5;" x="737.425668" xlink:href="#mda13a01c73" y="646.788281"/>
      </g>
     </g>
     <g id="text_19">
      <!-- 20 -->
      <g transform="translate(731.287856 659.617656)scale(0.12 -0.12)">
       <use xlink:href="#Constantia-50"/>
       <use x="48.4375" xlink:href="#Constantia-48"/>
      </g>
     </g>
    </g>
    <g id="xtick_20">
     <g id="line2d_20">
      <g>
       <use style="stroke:#000000;stroke-width:0.5;" x="774.369116" xlink:href="#mda13a01c73" y="646.788281"/>
      </g>
     </g>
     <g id="text_20">
      <!-- 21 -->
      <g transform="translate(769.585054 659.617656)scale(0.12 -0.12)">
       <use xlink:href="#Constantia-50"/>
       <use x="48.4375" xlink:href="#Constantia-49"/>
      </g>
     </g>
    </g>
    <g id="xtick_21">
     <g id="line2d_21">
      <g>
       <use style="stroke:#000000;stroke-width:0.5;" x="811.312565" xlink:href="#mda13a01c73" y="646.788281"/>
      </g>
     </g>
     <g id="text_21">
      <!-- 22 -->
      <g transform="translate(805.500065 659.617656)scale(0.12 -0.12)">
       <use xlink:href="#Constantia-50"/>
       <use x="48.4375" xlink:href="#Constantia-50"/>
      </g>
     </g>
    </g>
    <g id="xtick_22">
     <g id="line2d_22">
      <g>
       <use style="stroke:#000000;stroke-width:0.5;" x="848.256013" xlink:href="#mda13a01c73" y="646.788281"/>
      </g>
     </g>
     <g id="text_22">
      <!-- 23 -->
      <g transform="translate(842.610388 659.617656)scale(0.12 -0.12)">
       <use xlink:href="#Constantia-50"/>
       <use x="48.4375" xlink:href="#Constantia-51"/>
      </g>
     </g>
    </g>
    <g id="xtick_23">
     <g id="line2d_23">
      <g>
       <use style="stroke:#000000;stroke-width:0.5;" x="885.199461" xlink:href="#mda13a01c73" y="646.788281"/>
      </g>
     </g>
     <g id="text_23">
      <!-- 24 -->
      <g transform="translate(879.108524 659.617656)scale(0.12 -0.12)">
       <use xlink:href="#Constantia-50"/>
       <use x="48.4375" xlink:href="#Constantia-52"/>
      </g>
     </g>
    </g>
    <g id="xtick_24">
     <g id="line2d_24">
      <g>
       <use style="stroke:#000000;stroke-width:0.5;" x="922.142909" xlink:href="#mda13a01c73" y="646.788281"/>
      </g>
     </g>
     <g id="text_24">
      <!-- 25 -->
      <g transform="translate(916.382909 659.617656)scale(0.12 -0.12)">
       <use xlink:href="#Constantia-50"/>
       <use x="48.4375" xlink:href="#Constantia-53"/>
      </g>
     </g>
    </g>
    <g id="xtick_25">
     <g id="line2d_25">
      <g>
       <use style="stroke:#000000;stroke-width:0.5;" x="959.086358" xlink:href="#mda13a01c73" y="646.788281"/>
      </g>
     </g>
     <g id="text_25">
      <!-- 26 -->
      <g transform="translate(952.933545 659.617656)scale(0.12 -0.12)">
       <use xlink:href="#Constantia-50"/>
       <use x="48.4375" xlink:href="#Constantia-54"/>
      </g>
     </g>
    </g>
    <g id="xtick_26">
     <g id="line2d_26">
      <g>
       <use style="stroke:#000000;stroke-width:0.5;" x="996.029806" xlink:href="#mda13a01c73" y="646.788281"/>
      </g>
     </g>
     <g id="text_26">
      <!-- 27 -->
      <g transform="translate(990.222931 659.617656)scale(0.12 -0.12)">
       <use xlink:href="#Constantia-50"/>
       <use x="48.4375" xlink:href="#Constantia-55"/>
      </g>
     </g>
    </g>
    <g id="xtick_27">
     <g id="line2d_27">
      <g>
       <use style="stroke:#000000;stroke-width:0.5;" x="1032.973254" xlink:href="#mda13a01c73" y="646.788281"/>
      </g>
     </g>
     <g id="text_27">
      <!-- 28 -->
      <g transform="translate(1026.847629 659.617656)scale(0.12 -0.12)">
       <use xlink:href="#Constantia-50"/>
       <use x="48.4375" xlink:href="#Constantia-56"/>
      </g>
     </g>
    </g>
    <g id="xtick_28">
     <g id="line2d_28">
      <g>
       <use style="stroke:#000000;stroke-width:0.5;" x="1069.916703" xlink:href="#mda13a01c73" y="646.788281"/>
      </g>
     </g>
     <g id="text_28">
      <!-- 29 -->
      <g transform="translate(1063.732015 659.617656)scale(0.12 -0.12)">
       <use xlink:href="#Constantia-50"/>
       <use x="48.4375" xlink:href="#Constantia-57"/>
      </g>
     </g>
    </g>
    <g id="xtick_29">
     <g id="line2d_29">
      <g>
       <use style="stroke:#000000;stroke-width:0.5;" x="1106.860151" xlink:href="#mda13a01c73" y="646.788281"/>
      </g>
     </g>
     <g id="text_29">
      <!-- 30 -->
      <g transform="translate(1100.889213 659.617656)scale(0.12 -0.12)">
       <use xlink:href="#Constantia-51"/>
       <use x="45.654297" xlink:href="#Constantia-48"/>
      </g>
     </g>
    </g>
    <g id="text_30">
     <!-- Days -->
     <g transform="translate(572.541328 678.422812)scale(0.15 -0.15)">
      <defs>
       <path d="M 17.484375 0 
Q 11.1875 0 4.5 -0.140625 
L 4.25 2.296875 
L 10.796875 4.109375 
Q 12.0625 4.5 12.109375 5.609375 
Q 12.15625 7.5625 12.171875 9.984375 
Q 12.203125 12.40625 12.203125 15.328125 
L 12.203125 54.25 
Q 12.203125 56.6875 12.171875 58.6875 
Q 12.15625 60.6875 12.109375 62.359375 
Q 12.0625 63.625 10.9375 63.96875 
L 4.390625 65.875 
L 4.25 68.359375 
Q 11.078125 68.171875 17.328125 68.171875 
Q 22.609375 68.171875 27.4375 68.40625 
Q 32.28125 68.65625 37.453125 68.65625 
Q 55.671875 68.65625 64.84375 60.859375 
Q 74.03125 53.078125 74.03125 37.75 
Q 74.03125 19.671875 63.84375 9.6875 
Q 53.65625 -0.296875 35.203125 -0.296875 
Q 30.125 -0.296875 26.171875 -0.140625 
Q 22.21875 0 17.484375 0 
z
M 26.859375 4.984375 
Q 29.203125 4.546875 31.4375 4.421875 
Q 33.6875 4.296875 35.984375 4.296875 
Q 46.578125 4.296875 52.09375 11.765625 
Q 57.625 19.234375 57.625 34.515625 
Q 57.625 49.421875 52.34375 56.609375 
Q 47.078125 63.8125 35.75 63.8125 
Q 31.546875 63.8125 26.859375 63.421875 
z
" id="Constantia-Bold-68"/>
       <path d="M 31 21.734375 
Q 23.34375 21.734375 20.0625 19.78125 
Q 16.796875 17.828125 16.796875 13.09375 
Q 16.796875 8.796875 19.109375 6.953125 
Q 21.4375 5.125 24.609375 5.125 
Q 28.21875 5.125 30.90625 6.984375 
z
M 7.125 41.890625 
Q 17.53125 46.625 27.15625 46.625 
Q 35.9375 46.625 40.296875 42.6875 
Q 44.671875 38.765625 44.625 31.390625 
L 44.390625 11.078125 
Q 44.28125 8.59375 44.46875 7.078125 
Q 44.671875 5.5625 45.375 4.75 
Q 46.09375 3.953125 47.484375 3.609375 
Q 48.875 3.265625 51.515625 3.21875 
L 51.8125 0.984375 
Q 44.96875 -1.375 40.046875 -1.375 
Q 33.40625 -1.375 31.296875 3.859375 
Q 25.09375 -1.375 18.171875 -1.375 
Q 11.375 -1.375 6.984375 2.015625 
Q 2.59375 5.421875 2.59375 11.578125 
Q 2.59375 19.234375 9.6875 22.796875 
Q 16.796875 26.375 31 26.375 
L 31.0625 30.03125 
Q 31.109375 35.25 28.546875 37.71875 
Q 25.984375 40.1875 20.5625 40.1875 
Q 15.53125 40.1875 8.5 37.984375 
z
" id="Constantia-Bold-97"/>
       <path d="M -1.765625 45.515625 
Q 4.734375 45.359375 10.015625 45.359375 
Q 16.84375 45.359375 24.5625 45.515625 
L 24.8125 43.171875 
L 18.703125 41.609375 
Q 20.609375 36.8125 22.3125 32.46875 
Q 24.03125 28.125 26.859375 21.484375 
Q 28.125 18.703125 29.59375 14.984375 
Q 31.0625 18.796875 32.5625 22.5625 
Q 36.53125 32.953125 39.84375 41.703125 
L 34.765625 43.171875 
L 34.515625 45.515625 
Q 38.328125 45.359375 43.5 45.359375 
Q 48 45.359375 52.09375 45.515625 
L 52.34375 43.171875 
L 47.65625 41.890625 
Q 46.09375 41.40625 45.40625 39.890625 
Q 43.703125 35.84375 41.609375 30.90625 
Q 35.25 15.71875 31.734375 5.71875 
Q 29.5 -0.78125 27.6875 -7.546875 
Q 25.875 -14.3125 24.8125 -19.4375 
Q 24.265625 -22.21875 22.796875 -23.234375 
Q 21.34375 -24.265625 16.21875 -24.265625 
Q 10.84375 -24.265625 5.953125 -23.875 
L 5.71875 -21.625 
Q 11.375 -20.90625 13.625 -18.5 
Q 16.84375 -15.140625 23.53125 -0.34375 
L 23.875 0.59375 
L 21.296875 1.3125 
Q 12.5 23.046875 5.328125 39.84375 
Q 4.734375 41.359375 3.125 41.84375 
L -1.5625 43.171875 
z
" id="Constantia-Bold-121"/>
       <path d="M 31.9375 41.109375 
Q 28.859375 41.84375 25.296875 41.84375 
Q 20.84375 41.84375 18.03125 40.28125 
Q 15.234375 38.71875 15.234375 35.84375 
Q 15.234375 33.640625 16.453125 32.4375 
Q 17.671875 31.25 20.65625 30.21875 
L 28.46875 27.484375 
Q 35.453125 25.09375 38.671875 21.703125 
Q 41.890625 18.3125 41.890625 13.765625 
Q 41.890625 6.59375 35.859375 2.609375 
Q 29.828125 -1.375 20.015625 -1.375 
Q 11.8125 -1.375 3.90625 2 
Q 5.5625 8.546875 6.640625 14.703125 
L 9.125 15.09375 
L 12.640625 4.4375 
Q 15.625 3.421875 20.125 3.421875 
Q 24.359375 3.421875 27 5.03125 
Q 29.640625 6.640625 29.640625 9.515625 
Q 29.640625 11.921875 28.046875 13.546875 
Q 26.46875 15.1875 21.734375 16.796875 
L 15.765625 18.84375 
Q 10.0625 20.84375 7.171875 24.046875 
Q 4.296875 27.25 4.296875 31.890625 
Q 4.296875 39.015625 9.90625 42.8125 
Q 15.53125 46.625 25.390625 46.625 
Q 33.5 46.625 40.046875 44.234375 
Q 38.578125 37.84375 37.546875 32.125 
L 34.859375 31.734375 
z
" id="Constantia-Bold-115"/>
      </defs>
      <use xlink:href="#Constantia-Bold-68"/>
      <use x="77.705078" xlink:href="#Constantia-Bold-97"/>
      <use x="131.269531" xlink:href="#Constantia-Bold-121"/>
      <use x="182.490234" xlink:href="#Constantia-Bold-115"/>
     </g>
    </g>
   </g>
   <g id="matplotlib.axis_2">
    <g id="ytick_1">
     <g id="line2d_30">
      <defs>
       <path d="M 0 0 
L 4 0 
" id="m28220416ac" style="stroke:#000000;stroke-width:0.5;"/>
      </defs>
      <g>
       <use style="stroke:#000000;stroke-width:0.5;" x="53.971875" xlink:href="#m28220416ac" y="646.788281"/>
      </g>
     </g>
     <g id="text_31">
      <!-- 0 -->
      <g transform="translate(43.50875 649.778906)scale(0.12 -0.12)">
       <use xlink:href="#Constantia-48"/>
      </g>
     </g>
    </g>
    <g id="ytick_2">
     <g id="line2d_31">
      <g>
       <use style="stroke:#000000;stroke-width:0.5;" x="53.971875" xlink:href="#m28220416ac" y="569.028281"/>
      </g>
     </g>
     <g id="text_32">
      <!-- 200 -->
      <g transform="translate(31.233125 572.018906)scale(0.12 -0.12)">
       <use xlink:href="#Constantia-50"/>
       <use x="48.4375" xlink:href="#Constantia-48"/>
       <use x="102.294922" xlink:href="#Constantia-48"/>
      </g>
     </g>
    </g>
    <g id="ytick_3">
     <g id="line2d_32">
      <g>
       <use style="stroke:#000000;stroke-width:0.5;" x="53.971875" xlink:href="#m28220416ac" y="491.268281"/>
      </g>
     </g>
     <g id="text_33">
      <!-- 400 -->
      <g transform="translate(30.67625 494.258906)scale(0.12 -0.12)">
       <use xlink:href="#Constantia-52"/>
       <use x="53.076172" xlink:href="#Constantia-48"/>
       <use x="106.933594" xlink:href="#Constantia-48"/>
      </g>
     </g>
    </g>
    <g id="ytick_4">
     <g id="line2d_33">
      <g>
       <use style="stroke:#000000;stroke-width:0.5;" x="53.971875" xlink:href="#m28220416ac" y="413.508281"/>
      </g>
     </g>
     <g id="text_34">
      <!-- 600 -->
      <g transform="translate(30.5525 416.498906)scale(0.12 -0.12)">
       <use xlink:href="#Constantia-54"/>
       <use x="54.101562" xlink:href="#Constantia-48"/>
       <use x="107.958984" xlink:href="#Constantia-48"/>
      </g>
     </g>
    </g>
    <g id="ytick_5">
     <g id="line2d_34">
      <g>
       <use style="stroke:#000000;stroke-width:0.5;" x="53.971875" xlink:href="#m28220416ac" y="335.748281"/>
      </g>
     </g>
     <g id="text_35">
      <!-- 800 -->
      <g transform="translate(30.606875 338.738906)scale(0.12 -0.12)">
       <use xlink:href="#Constantia-56"/>
       <use x="53.662109" xlink:href="#Constantia-48"/>
       <use x="107.519531" xlink:href="#Constantia-48"/>
      </g>
     </g>
    </g>
    <g id="ytick_6">
     <g id="line2d_35">
      <g>
       <use style="stroke:#000000;stroke-width:0.5;" x="53.971875" xlink:href="#m28220416ac" y="257.988281"/>
      </g>
     </g>
     <g id="text_36">
      <!-- 1000 -->
      <g transform="translate(26.826875 260.978906)scale(0.12 -0.12)">
       <use xlink:href="#Constantia-49"/>
       <use x="31.298828" xlink:href="#Constantia-48"/>
       <use x="85.15625" xlink:href="#Constantia-48"/>
       <use x="139.013672" xlink:href="#Constantia-48"/>
      </g>
     </g>
    </g>
    <g id="ytick_7">
     <g id="line2d_36">
      <g>
       <use style="stroke:#000000;stroke-width:0.5;" x="53.971875" xlink:href="#m28220416ac" y="180.228281"/>
      </g>
     </g>
     <g id="text_37">
      <!-- 1200 -->
      <g transform="translate(27.4775 183.218906)scale(0.12 -0.12)">
       <use xlink:href="#Constantia-49"/>
       <use x="31.298828" xlink:href="#Constantia-50"/>
       <use x="79.736328" xlink:href="#Constantia-48"/>
       <use x="133.59375" xlink:href="#Constantia-48"/>
      </g>
     </g>
    </g>
    <g id="ytick_8">
     <g id="line2d_37">
      <g>
       <use style="stroke:#000000;stroke-width:0.5;" x="53.971875" xlink:href="#m28220416ac" y="102.468281"/>
      </g>
     </g>
     <g id="text_38">
      <!-- 1400 -->
      <g transform="translate(26.920625 105.458906)scale(0.12 -0.12)">
       <use xlink:href="#Constantia-49"/>
       <use x="31.298828" xlink:href="#Constantia-52"/>
       <use x="84.375" xlink:href="#Constantia-48"/>
       <use x="138.232422" xlink:href="#Constantia-48"/>
      </g>
     </g>
    </g>
    <g id="ytick_9">
     <g id="line2d_38">
      <g>
       <use style="stroke:#000000;stroke-width:0.5;" x="53.971875" xlink:href="#m28220416ac" y="24.708281"/>
      </g>
     </g>
     <g id="text_39">
      <!-- 1600 -->
      <g transform="translate(26.796875 27.698906)scale(0.12 -0.12)">
       <use xlink:href="#Constantia-49"/>
       <use x="31.298828" xlink:href="#Constantia-54"/>
       <use x="85.400391" xlink:href="#Constantia-48"/>
       <use x="139.257812" xlink:href="#Constantia-48"/>
      </g>
     </g>
    </g>
    <g id="text_40">
     <!-- Total Deaths -->
     <g transform="translate(18.236719 380.538516)rotate(-90)scale(0.15 -0.15)">
      <defs>
       <path d="M 31.296875 0 
Q 22.703125 0 14.890625 -0.140625 
L 14.65625 2.296875 
L 22.46875 4.4375 
Q 23.6875 4.828125 23.734375 6 
Q 23.828125 9.671875 23.828125 15.4375 
L 23.828125 63.140625 
L 9.765625 63.140625 
L 5.28125 50.140625 
L 2.546875 49.703125 
L 1.265625 67.96875 
L 1.609375 68.359375 
Q 13.625 68.171875 24.609375 68.171875 
L 38.234375 68.171875 
Q 49.21875 68.171875 61.375 68.359375 
L 61.671875 67.96875 
L 58.453125 50.09375 
L 55.71875 49.65625 
L 52.546875 63.140625 
L 38.421875 63.140625 
L 38.421875 15.4375 
Q 38.421875 9.671875 38.53125 6 
Q 38.578125 4.828125 39.84375 4.4375 
L 47.515625 2.296875 
L 47.65625 -0.140625 
Q 39.546875 0 31.296875 0 
z
" id="Constantia-Bold-84"/>
       <path d="M 19.046875 23.1875 
Q 19.046875 14.3125 21.703125 8.765625 
Q 24.359375 3.21875 30.21875 3.21875 
Q 35.6875 3.21875 38.25 8.09375 
Q 40.828125 12.984375 40.828125 22.609375 
Q 40.828125 31.640625 38.109375 36.84375 
Q 35.40625 42.046875 29.640625 42.046875 
Q 24.265625 42.046875 21.65625 37.359375 
Q 19.046875 32.671875 19.046875 23.1875 
z
M 55.953125 23.578125 
Q 55.953125 12.453125 48.53125 5.53125 
Q 41.109375 -1.375 29.203125 -1.375 
Q 17.625 -1.375 10.734375 5.140625 
Q 3.859375 11.671875 3.859375 22.21875 
Q 3.859375 32.90625 11.078125 39.765625 
Q 18.3125 46.625 30.609375 46.625 
Q 42.28125 46.625 49.109375 40.296875 
Q 55.953125 33.984375 55.953125 23.578125 
z
" id="Constantia-Bold-111"/>
       <path d="M 22.125 39.546875 
Q 21.828125 24.3125 21.828125 13.71875 
Q 21.828125 8.796875 23.34375 6.90625 
Q 24.859375 5.03125 29.15625 5.03125 
Q 32.46875 5.03125 36.375 5.421875 
L 36.765625 2.484375 
Q 29 -1.3125 22.265625 -1.3125 
Q 15.4375 -1.3125 11.6875 1.53125 
Q 7.953125 4.390625 7.953125 10.15625 
Q 7.953125 20.3125 8.25 39.796875 
L 1.65625 41.5 
L 1.21875 44.140625 
L 9.375 44.875 
L 14.015625 56.34375 
Q 18.171875 57.078125 21.578125 57.765625 
L 22.265625 57.421875 
Q 22.125 51.515625 22.125 44.875 
L 35.796875 44.875 
L 35.796875 39.546875 
z
" id="Constantia-Bold-116"/>
       <path d="M 1.859375 69.828125 
Q 14.0625 71.625 23.140625 73.578125 
L 23.6875 73.1875 
Q 23.390625 66.453125 23.390625 58.84375 
L 23.390625 13.671875 
Q 23.390625 7.859375 23.484375 5.5625 
Q 23.578125 4.25 24.703125 3.90625 
L 30.8125 2.203125 
L 30.953125 -0.140625 
Q 23.734375 0 16.609375 0 
Q 9.328125 0 2.25 -0.140625 
L 2 2.203125 
L 8.203125 3.90625 
Q 9.328125 4.203125 9.421875 5.375 
Q 9.515625 7.28125 9.515625 11.765625 
L 9.515625 54.109375 
Q 9.515625 60.5 9.328125 65.875 
L 2.15625 67.828125 
z
" id="Constantia-Bold-108"/>
       <path id="Constantia-Bold-32"/>
       <path d="M 49.90625 3.21875 
Q 40.875 -1.375 30.859375 -1.375 
Q 18.953125 -1.375 11.40625 4.515625 
Q 3.859375 10.40625 3.859375 21.875 
Q 3.859375 32.8125 11.109375 39.71875 
Q 18.359375 46.625 29.59375 46.625 
Q 39.40625 46.625 44.75 41.328125 
Q 50.09375 36.03125 50.09375 26.703125 
Q 50.09375 25.296875 49.953125 23.78125 
L 18.75 23.78125 
Q 18.75 13.96875 23.5625 9.671875 
Q 28.375 5.375 39.359375 5.375 
Q 44.671875 5.375 49.515625 6.296875 
z
M 35.25 28.515625 
L 35.25 29.6875 
Q 35.25 36.328125 33.5625 39.203125 
Q 31.890625 42.09375 28.421875 42.09375 
Q 24.265625 42.09375 21.796875 38.109375 
Q 19.34375 34.125 18.953125 28.515625 
z
" id="Constantia-Bold-101"/>
       <path d="M 39.703125 46.625 
Q 46.828125 46.625 50.875 42.75 
Q 54.9375 38.875 54.9375 31.734375 
L 54.9375 14.59375 
Q 54.9375 8.5 55.03125 5.5625 
Q 55.078125 4.25 56.296875 3.90625 
L 62.203125 2.203125 
L 62.359375 -0.140625 
Q 55.375 0 48.296875 0 
Q 40.96875 0 35.109375 -0.140625 
L 34.90625 2.203125 
L 39.796875 3.65625 
Q 40.921875 4 41.015625 5.125 
Q 41.0625 5.859375 41.0625 8.203125 
L 41.0625 28.65625 
Q 41.0625 34.671875 38.71875 37.28125 
Q 36.375 39.890625 31.734375 39.890625 
Q 27.6875 39.890625 23.390625 38.03125 
L 23.390625 16.546875 
Q 23.390625 10.453125 23.484375 5.375 
Q 23.53125 4.046875 24.609375 3.765625 
L 29.6875 2.203125 
L 29.78125 -0.140625 
Q 23.734375 0 16.609375 0 
Q 9.328125 0 2.296875 -0.140625 
L 2.046875 2.203125 
L 8.34375 3.90625 
Q 9.421875 4.203125 9.46875 5.375 
Q 9.515625 8.5 9.515625 11.375 
L 9.515625 54.109375 
Q 9.515625 60.5 9.328125 65.875 
L 2.15625 67.828125 
L 1.859375 69.828125 
Q 14.0625 71.625 23.140625 73.578125 
L 23.6875 73.1875 
Q 23.390625 66.453125 23.390625 58.84375 
L 23.390625 41.703125 
Q 31.640625 46.625 39.703125 46.625 
z
" id="Constantia-Bold-104"/>
      </defs>
      <use xlink:href="#Constantia-Bold-84"/>
      <use x="53.359375" xlink:href="#Constantia-Bold-111"/>
      <use x="113.222656" xlink:href="#Constantia-Bold-116"/>
      <use x="152.1875" xlink:href="#Constantia-Bold-97"/>
      <use x="205.751953" xlink:href="#Constantia-Bold-108"/>
      <use x="238.662109" xlink:href="#Constantia-Bold-32"/>
      <use x="262.587891" xlink:href="#Constantia-Bold-68"/>
      <use x="341.542969" xlink:href="#Constantia-Bold-101"/>
      <use x="395.302734" xlink:href="#Constantia-Bold-97"/>
      <use x="448.867188" xlink:href="#Constantia-Bold-116"/>
      <use x="487.832031" xlink:href="#Constantia-Bold-104"/>
      <use x="551.552734" xlink:href="#Constantia-Bold-115"/>
     </g>
    </g>
   </g>
   <g id="text_41">
    <!-- Total Deaths in Israel during September -->
    <g transform="translate(429.270156 19.708281)scale(0.17 -0.17)">
     <defs>
      <path d="M 23.78125 62.984375 
Q 23.78125 59.625 21.609375 57.515625 
Q 19.4375 55.421875 15.921875 55.421875 
Q 12.703125 55.421875 10.625 57.390625 
Q 8.546875 59.375 8.546875 62.546875 
Q 8.546875 66.015625 10.734375 68.015625 
Q 12.9375 70.015625 16.453125 70.015625 
Q 19.671875 70.015625 21.71875 68.1875 
Q 23.78125 66.359375 23.78125 62.984375 
z
M 2.296875 43.0625 
Q 14.3125 44.875 23.390625 46.828125 
L 23.921875 46.4375 
Q 23.640625 39.703125 23.640625 32.078125 
L 23.640625 13.671875 
Q 23.640625 7.859375 23.734375 5.5625 
Q 23.828125 4.25 24.953125 3.90625 
L 31.0625 2.203125 
L 31.203125 -0.140625 
Q 23.96875 0 16.84375 0 
Q 9.578125 0 2.484375 -0.140625 
L 2.25 2.203125 
L 8.453125 3.90625 
Q 9.578125 4.203125 9.671875 5.375 
Q 9.765625 7.28125 9.765625 11.765625 
L 9.765625 27.484375 
Q 9.765625 33.890625 9.578125 39.265625 
L 2.59375 41.0625 
z
" id="Constantia-Bold-105"/>
      <path d="M 2.296875 43.0625 
Q 13.578125 44.734375 22.90625 46.78125 
L 23.640625 46.390625 
L 23.640625 41.15625 
Q 31.890625 46.625 39.9375 46.625 
Q 47.078125 46.625 51.125 42.75 
Q 55.171875 38.875 55.171875 31.734375 
L 55.171875 14.59375 
Q 55.171875 8.5 55.28125 5.5625 
Q 55.328125 4.25 56.546875 3.90625 
L 62.453125 2.203125 
L 62.59375 -0.140625 
Q 55.609375 0 48.53125 0 
Q 41.21875 0 35.359375 -0.140625 
L 35.15625 2.203125 
L 40.046875 3.65625 
Q 41.15625 4 41.265625 5.125 
Q 41.3125 5.859375 41.3125 8.203125 
L 41.3125 28.65625 
Q 41.3125 34.671875 38.96875 37.28125 
Q 36.625 39.890625 31.984375 39.890625 
Q 27.9375 39.890625 23.640625 37.546875 
L 23.640625 16.546875 
Q 23.640625 10.453125 23.734375 5.375 
Q 23.78125 4.046875 24.859375 3.765625 
L 29.9375 2.203125 
L 30.03125 -0.140625 
Q 23.96875 0 16.84375 0 
Q 9.578125 0 2.546875 -0.140625 
L 2.296875 2.203125 
L 8.59375 3.90625 
Q 9.671875 4.203125 9.71875 5.375 
Q 9.765625 8.5 9.765625 11.375 
L 9.765625 27.4375 
Q 9.765625 33.84375 9.578125 39.265625 
L 2.59375 41.0625 
z
" id="Constantia-Bold-110"/>
      <path d="M 26.859375 15.328125 
Q 26.859375 12.40625 26.875 10.015625 
Q 26.90625 7.625 26.953125 5.71875 
Q 27 4.4375 28.609375 4 
L 34.625 2.296875 
L 34.765625 -0.140625 
Q 27.984375 0 19.734375 0 
Q 11.1875 0 4.5 -0.140625 
L 4.25 2.296875 
L 10.796875 4.109375 
Q 12.015625 4.4375 12.109375 5.609375 
Q 12.15625 7.5625 12.171875 9.984375 
Q 12.203125 12.40625 12.203125 15.328125 
L 12.203125 54.25 
Q 12.203125 56.6875 12.171875 58.6875 
Q 12.15625 60.6875 12.109375 62.359375 
Q 12.0625 63.625 10.9375 63.96875 
L 4.390625 65.875 
L 4.25 68.359375 
Q 11.03125 68.171875 19.28125 68.171875 
Q 27.78125 68.171875 34.515625 68.359375 
L 34.765625 65.875 
L 28.21875 64.0625 
Q 27.046875 63.765625 26.953125 62.59375 
Q 26.90625 60.84375 26.875 58.8125 
Q 26.859375 56.78125 26.859375 54.4375 
z
" id="Constantia-Bold-73"/>
      <path d="M 2.296875 43.0625 
Q 13.578125 44.734375 22.90625 46.78125 
L 23.640625 46.390625 
L 23.640625 41.109375 
Q 32.28125 46.625 41.703125 46.625 
L 41.9375 46.296875 
Q 40.375 38.53125 38.96875 29.6875 
L 36.140625 29.203125 
Q 34.859375 34.03125 33.640625 36.609375 
Q 32.421875 39.203125 29.828125 39.203125 
Q 27.34375 39.203125 23.640625 37.546875 
L 23.640625 16.609375 
Q 23.640625 9.03125 23.734375 5.765625 
Q 23.78125 4.390625 24.953125 4.046875 
L 31.9375 2.203125 
L 32.078125 -0.140625 
Q 23.96875 0 16.609375 0 
Q 9.578125 0 2.546875 -0.140625 
L 2.296875 2.203125 
L 8.5 3.90625 
Q 9.671875 4.25 9.71875 5.375 
Q 9.765625 7.46875 9.765625 11.375 
L 9.765625 27.6875 
Q 9.765625 35.640625 9.578125 39.265625 
L 2.59375 41.0625 
z
" id="Constantia-Bold-114"/>
      <path d="M 38.421875 40.578125 
Q 35.796875 41.5 32.515625 41.5 
Q 25.828125 41.5 22.3125 36.890625 
Q 18.796875 32.28125 18.796875 23 
Q 18.796875 14.9375 21.921875 10.109375 
Q 25.046875 5.28125 30.71875 5.28125 
Q 34.90625 5.28125 38.421875 7.078125 
z
M 30.71875 69.828125 
Q 42.625 71.625 52 73.578125 
L 52.59375 73.1875 
Q 52.25 62.75 52.25 50.734375 
L 52.25 24.171875 
Q 52.25 17.78125 52.296875 10.984375 
Q 52.296875 8.5 52.484375 6.984375 
Q 52.6875 5.46875 53.34375 4.65625 
Q 54 3.859375 55.359375 3.5625 
Q 56.734375 3.265625 59.375 3.21875 
L 59.671875 1.078125 
Q 52.546875 -1.375 47.515625 -1.375 
Q 40.96875 -1.375 38.921875 3.953125 
Q 32.515625 -1.375 24.75 -1.375 
Q 15.09375 -1.375 9.46875 5 
Q 3.859375 11.375 3.859375 20.953125 
Q 3.859375 33.15625 11.109375 39.8125 
Q 18.359375 46.484375 31.390625 46.484375 
Q 34.625 46.484375 38.421875 45.953125 
Q 38.421875 56.25 38.234375 65.875 
L 31.0625 67.828125 
z
" id="Constantia-Bold-100"/>
      <path d="M 39.84375 3.90625 
Q 32.671875 -1.375 24.21875 -1.375 
Q 16.3125 -1.375 12.296875 2.53125 
Q 8.296875 6.453125 8.296875 13.53125 
L 8.296875 23.875 
Q 8.296875 34.328125 8.109375 39.265625 
L 1.125 41.0625 
L 0.828125 43.0625 
Q 12.796875 44.875 21.921875 46.828125 
L 22.46875 46.4375 
Q 22.171875 40.328125 22.171875 31.34375 
L 22.171875 16.3125 
Q 22.171875 10.5 24.4375 7.890625 
Q 26.703125 5.28125 30.859375 5.28125 
Q 35.5 5.28125 39.359375 7.28125 
L 39.359375 28.078125 
Q 39.359375 34.90625 39.15625 39.359375 
L 32.5625 41.0625 
L 32.28125 43.0625 
Q 43.84375 44.875 52.9375 46.828125 
L 53.515625 46.4375 
Q 53.171875 40.1875 53.171875 31.0625 
Q 53.171875 13.328125 53.21875 9.421875 
Q 53.265625 7.46875 53.515625 6.265625 
Q 53.765625 5.078125 54.4375 4.4375 
Q 55.125 3.8125 56.46875 3.53125 
Q 57.8125 3.265625 60.296875 3.21875 
L 60.546875 1.078125 
Q 53.515625 -1.375 48.4375 -1.375 
Q 41.890625 -1.375 39.84375 3.90625 
z
" id="Constantia-Bold-117"/>
      <path d="M 54.046875 42.828125 
L 42.71875 39.9375 
Q 46.34375 35.796875 46.34375 30.5625 
Q 46.34375 22.703125 40.65625 18.03125 
Q 34.96875 13.375 25.6875 13.375 
Q 19.921875 13.375 15.53125 15.046875 
Q 13.625 11.578125 13.625 9.28125 
Q 13.625 8.015625 14.921875 7.5625 
Q 16.21875 7.125 20.265625 7.125 
Q 23.1875 7.125 27.4375 7.203125 
Q 31.6875 7.28125 35.15625 7.28125 
Q 43.40625 7.28125 47.84375 4.21875 
Q 52.296875 1.171875 52.296875 -5.03125 
Q 52.296875 -14.15625 43.234375 -19.640625 
Q 34.1875 -25.140625 22.75 -25.140625 
Q 13.328125 -25.140625 7.828125 -22.328125 
Q 2.34375 -19.53125 2.34375 -15.09375 
Q 2.34375 -9.328125 9.96875 -3.171875 
Q 4.9375 -1.125 4.9375 2.875 
Q 4.9375 7.71875 12.3125 16.546875 
Q 4.890625 20.90625 4.890625 29.5 
Q 4.890625 37.109375 10.578125 41.75 
Q 16.265625 46.390625 25.921875 46.390625 
Q 28.46875 46.390625 32.8125 45.796875 
Q 37.015625 45.125 39.3125 45.125 
Q 47.3125 45.125 53.765625 45.265625 
z
M 14.203125 -3.8125 
Q 11.859375 -8.15625 11.859375 -11.859375 
Q 11.859375 -15.671875 15.40625 -17.84375 
Q 18.953125 -20.015625 25.046875 -20.015625 
Q 32.375 -20.015625 37.734375 -17.15625 
Q 43.109375 -14.3125 43.109375 -9.46875 
Q 43.109375 -6.84375 40.90625 -5.28125 
Q 38.71875 -3.71875 31.25 -3.71875 
Q 28.328125 -3.65625 24.90625 -3.796875 
Q 21.484375 -3.953125 18.5625 -3.953125 
Q 16.453125 -3.953125 14.203125 -3.8125 
z
M 18.75 30.328125 
Q 18.75 23.96875 20.359375 20.5 
Q 21.96875 17.046875 25.828125 17.046875 
Q 29.734375 17.046875 31.171875 20.28125 
Q 32.625 23.53125 32.625 29.78125 
Q 32.625 35.796875 31.0625 39.25 
Q 29.5 42.71875 25.484375 42.71875 
Q 21.578125 42.71875 20.15625 39.546875 
Q 18.75 36.375 18.75 30.328125 
z
" id="Constantia-Bold-103"/>
      <path d="M 37.703125 63.71875 
Q 34.578125 64.9375 30.90625 64.9375 
Q 25.734375 64.9375 22.140625 61.90625 
Q 18.5625 58.890625 18.5625 54.109375 
Q 18.5625 51.21875 19.734375 49.171875 
Q 20.90625 47.125 22.859375 45.5 
Q 24.8125 43.890625 27.3125 42.625 
Q 29.828125 41.359375 32.515625 40.09375 
Q 35.5 38.671875 38.515625 36.984375 
Q 41.546875 35.296875 43.9375 32.984375 
Q 46.34375 30.671875 47.828125 27.4375 
Q 49.3125 24.21875 49.3125 19.625 
Q 49.3125 9.71875 41.84375 4.046875 
Q 34.375 -1.609375 22.125 -1.609375 
Q 13.28125 -1.609375 4.6875 1.171875 
L 4.390625 1.609375 
L 6.984375 19.1875 
L 10.015625 19.671875 
L 13.671875 4.734375 
Q 17.1875 3.125 21.484375 3.125 
Q 27.6875 3.125 31.46875 6.265625 
Q 35.25 9.421875 35.25 14.703125 
Q 35.25 17.671875 34.078125 19.75 
Q 32.90625 21.828125 30.90625 23.453125 
Q 28.90625 25.09375 26.359375 26.359375 
Q 23.828125 27.640625 21.09375 28.90625 
Q 18.109375 30.375 15.125 31.984375 
Q 12.15625 33.59375 9.8125 35.890625 
Q 7.46875 38.1875 6 41.375 
Q 4.546875 44.578125 4.546875 49.125 
Q 4.546875 58.453125 11.671875 63.96875 
Q 18.796875 69.484375 30.171875 69.484375 
Q 37.40625 69.484375 46.625 67.234375 
L 46.921875 66.796875 
L 43.953125 51.078125 
L 41.265625 50.640625 
z
" id="Constantia-Bold-83"/>
      <path d="M 1.609375 41.0625 
L 1.3125 43.0625 
Q 12.59375 44.734375 21.96875 46.78125 
L 22.703125 46.390625 
L 22.703125 41.796875 
Q 30.28125 46.625 37.3125 46.625 
Q 46.484375 46.625 51.875 40.546875 
Q 57.28125 34.46875 57.28125 24.65625 
Q 57.28125 12.5 49.6875 5.5625 
Q 42.09375 -1.375 29.640625 -1.375 
Q 26.3125 -1.375 22.703125 -0.6875 
L 22.703125 -10.984375 
Q 22.703125 -15.828125 22.796875 -17.78125 
Q 22.90625 -19.28125 24.125 -19.578125 
L 31 -21.390625 
L 31.15625 -23.734375 
Q 23.046875 -23.578125 15.921875 -23.578125 
Q 8.59375 -23.578125 1.5625 -23.734375 
L 1.3125 -21.390625 
L 7.46875 -19.671875 
Q 8.640625 -19.390625 8.6875 -18.21875 
Q 8.796875 -14.59375 8.796875 -7.375 
L 8.796875 12.109375 
Q 8.796875 33.40625 8.59375 39.265625 
z
M 22.703125 4.203125 
Q 26.125 3.46875 29.296875 3.46875 
Q 35.75 3.46875 39.0625 8.390625 
Q 42.390625 13.328125 42.390625 22.515625 
Q 42.390625 31.15625 39.265625 35.5625 
Q 36.140625 39.984375 30.21875 39.984375 
Q 25.984375 39.984375 22.703125 38.375 
z
" id="Constantia-Bold-112"/>
      <path d="M 84.8125 14.59375 
Q 84.8125 8.5 84.90625 5.5625 
Q 84.96875 4.25 86.1875 3.90625 
L 92.09375 2.203125 
L 92.234375 -0.140625 
Q 85.25 0 78.171875 0 
Q 70.84375 0 65.28125 -0.140625 
L 65.046875 2.203125 
L 69.671875 3.65625 
Q 70.796875 4 70.90625 5.125 
Q 70.953125 5.859375 70.953125 8.203125 
L 70.953125 28.65625 
Q 70.953125 34.671875 68.71875 37.28125 
Q 66.5 39.890625 62.0625 39.890625 
Q 58.0625 39.890625 53.5625 37.0625 
Q 54.25 34.671875 54.25 31.734375 
L 54.25 14.59375 
Q 54.25 8.5 54.34375 5.375 
Q 54.390625 4.046875 55.46875 3.765625 
L 60.359375 2.203125 
L 60.453125 -0.140625 
Q 54.6875 0 47.609375 0 
Q 40.28125 0 34.71875 -0.140625 
L 34.515625 2.203125 
L 39.109375 3.65625 
Q 40.234375 4 40.328125 5.125 
Q 40.375 5.859375 40.375 8.203125 
L 40.375 28.65625 
Q 40.375 34.671875 38.15625 37.28125 
Q 35.9375 39.890625 31.546875 39.890625 
Q 27.734375 39.890625 23.640625 37.546875 
L 23.640625 16.546875 
Q 23.640625 10.453125 23.734375 5.375 
Q 23.78125 4.046875 24.859375 3.765625 
L 29.734375 2.203125 
L 29.828125 -0.140625 
Q 23.96875 0 16.84375 0 
Q 9.578125 0 2.546875 -0.140625 
L 2.296875 2.203125 
L 8.59375 3.90625 
Q 9.671875 4.203125 9.71875 5.375 
Q 9.765625 8.5 9.765625 11.375 
L 9.765625 27.4375 
Q 9.765625 33.84375 9.578125 39.265625 
L 2.59375 41.0625 
L 2.296875 43.0625 
Q 13.578125 44.734375 22.90625 46.78125 
L 23.640625 46.390625 
L 23.640625 41.15625 
Q 31.640625 46.625 39.453125 46.625 
Q 48.34375 46.625 52.296875 40.1875 
Q 61.375 46.625 70.015625 46.625 
Q 76.90625 46.625 80.859375 42.75 
Q 84.8125 38.875 84.8125 31.734375 
z
" id="Constantia-Bold-109"/>
      <path d="M 22.40625 4.390625 
Q 25.640625 3.515625 28.859375 3.515625 
Q 35.5 3.515625 38.796875 8.421875 
Q 42.09375 13.328125 42.09375 22.40625 
Q 42.09375 30.71875 39.015625 35.34375 
Q 35.9375 39.984375 29.9375 39.984375 
Q 26.125 39.984375 22.40625 38.375 
z
M 22.703125 73.1875 
Q 22.40625 65.921875 22.40625 51.375 
L 22.40625 42.046875 
Q 29.890625 46.625 36.96875 46.625 
Q 46.234375 46.625 51.625 40.453125 
Q 57.03125 34.28125 57.03125 24.3125 
Q 57.03125 12.15625 49.34375 5.421875 
Q 41.65625 -1.3125 28.03125 -1.3125 
Q 19.484375 -1.3125 8.453125 1.859375 
Q 8.546875 7.671875 8.546875 17.4375 
L 8.546875 46.390625 
Q 8.546875 57.171875 8.34375 65.875 
L 1.171875 67.828125 
L 0.875 69.828125 
Q 13.03125 71.625 22.171875 73.578125 
z
" id="Constantia-Bold-98"/>
     </defs>
     <use xlink:href="#Constantia-Bold-84"/>
     <use x="53.359375" xlink:href="#Constantia-Bold-111"/>
     <use x="113.222656" xlink:href="#Constantia-Bold-116"/>
     <use x="152.1875" xlink:href="#Constantia-Bold-97"/>
     <use x="205.751953" xlink:href="#Constantia-Bold-108"/>
     <use x="238.662109" xlink:href="#Constantia-Bold-32"/>
     <use x="262.587891" xlink:href="#Constantia-Bold-68"/>
     <use x="341.542969" xlink:href="#Constantia-Bold-101"/>
     <use x="395.302734" xlink:href="#Constantia-Bold-97"/>
     <use x="448.867188" xlink:href="#Constantia-Bold-116"/>
     <use x="487.832031" xlink:href="#Constantia-Bold-104"/>
     <use x="551.552734" xlink:href="#Constantia-Bold-115"/>
     <use x="597.207031" xlink:href="#Constantia-Bold-32"/>
     <use x="621.132812" xlink:href="#Constantia-Bold-105"/>
     <use x="654.287109" xlink:href="#Constantia-Bold-110"/>
     <use x="718.251953" xlink:href="#Constantia-Bold-32"/>
     <use x="742.177734" xlink:href="#Constantia-Bold-73"/>
     <use x="780.240234" xlink:href="#Constantia-Bold-115"/>
     <use x="825.894531" xlink:href="#Constantia-Bold-114"/>
     <use x="869.302734" xlink:href="#Constantia-Bold-97"/>
     <use x="922.867188" xlink:href="#Constantia-Bold-101"/>
     <use x="976.626953" xlink:href="#Constantia-Bold-108"/>
     <use x="1009.537109" xlink:href="#Constantia-Bold-32"/>
     <use x="1031.087891" xlink:href="#Constantia-Bold-100"/>
     <use x="1093.099609" xlink:href="#Constantia-Bold-117"/>
     <use x="1155.794922" xlink:href="#Constantia-Bold-114"/>
     <use x="1199.203125" xlink:href="#Constantia-Bold-105"/>
     <use x="1232.357422" xlink:href="#Constantia-Bold-110"/>
     <use x="1296.322266" xlink:href="#Constantia-Bold-103"/>
     <use x="1350.863281" xlink:href="#Constantia-Bold-32"/>
     <use x="1374.789062" xlink:href="#Constantia-Bold-83"/>
     <use x="1427.523438" xlink:href="#Constantia-Bold-101"/>
     <use x="1481.283203" xlink:href="#Constantia-Bold-112"/>
     <use x="1542.416016" xlink:href="#Constantia-Bold-116"/>
     <use x="1581.380859" xlink:href="#Constantia-Bold-101"/>
     <use x="1635.140625" xlink:href="#Constantia-Bold-109"/>
     <use x="1728.744141" xlink:href="#Constantia-Bold-98"/>
     <use x="1789.632812" xlink:href="#Constantia-Bold-101"/>
     <use x="1843.392578" xlink:href="#Constantia-Bold-114"/>
    </g>
   </g>
   <g id="legend_1">
    <g id="patch_34">
     <path d="M 1184.399875 65.917031 
L 1341.072531 65.917031 
L 1341.072531 30.208281 
L 1184.399875 30.208281 
z
" style="fill:#ffffff;stroke:#000000;stroke-linejoin:miter;"/>
    </g>
    <g id="patch_35">
     <path d="M 1188.799875 42.701875 
L 1210.799875 42.701875 
L 1210.799875 35.001875 
L 1188.799875 35.001875 
z
" style="fill:#3ab08b;stroke:#3ab08b;stroke-linejoin:miter;"/>
    </g>
    <g id="text_42">
     <!-- Max of Total Deaths 1552 -->
     <g transform="translate(1219.599875 42.701875)scale(0.11 -0.11)">
      <defs>
       <path d="M 67.53125 68.359375 
Q 72.125 68.171875 75.828125 68.171875 
Q 79.4375 68.171875 85.546875 68.359375 
L 85.75 66.265625 
L 79.59375 64.359375 
Q 78.46875 63.96875 78.421875 62.703125 
Q 78.328125 59.46875 78.328125 54.59375 
L 78.328125 14.984375 
Q 78.328125 9.234375 78.421875 5.28125 
Q 78.46875 4.15625 79.78125 3.765625 
L 85.640625 1.953125 
L 85.75 -0.140625 
Q 79.296875 0 73.4375 0 
Q 67.671875 0 62.0625 -0.140625 
L 61.859375 1.953125 
L 67.484375 3.65625 
Q 68.65625 4 68.703125 5.375 
Q 68.796875 9.234375 68.796875 14.984375 
L 68.796875 57.28125 
L 44.578125 0 
L 41.015625 -0.390625 
L 16.65625 57.28125 
L 16.65625 14.984375 
Q 16.65625 9.234375 16.75 5.375 
Q 16.796875 4 18.015625 3.65625 
L 23.484375 1.953125 
L 23.578125 -0.140625 
Q 17.78125 0 13.875 0 
Q 10.0625 0 3.765625 -0.140625 
L 3.5625 1.953125 
L 9.578125 3.765625 
Q 10.84375 4.15625 10.890625 5.28125 
Q 10.984375 9.234375 10.984375 14.984375 
L 10.984375 54.59375 
Q 10.984375 59.46875 10.890625 62.703125 
Q 10.84375 63.96875 9.71875 64.359375 
L 3.65625 66.265625 
L 3.5625 68.359375 
Q 9.859375 68.171875 13.53125 68.171875 
Q 17.71875 68.171875 22.265625 68.359375 
L 44.921875 14.796875 
z
" id="Constantia-77"/>
       <path d="M 30.125 22.125 
Q 19.4375 22.125 15.53125 20.015625 
Q 11.625 17.921875 11.625 12.9375 
Q 11.625 8.296875 14.203125 6.359375 
Q 16.796875 4.4375 21.234375 4.4375 
Q 26.265625 4.4375 30.03125 6.15625 
z
M 6.453125 42.234375 
Q 15.96875 46.390625 23.296875 46.390625 
Q 30.765625 46.390625 34.9375 42.484375 
Q 39.109375 38.578125 39.0625 31.203125 
L 38.8125 10.890625 
Q 38.765625 8.40625 38.9375 6.890625 
Q 39.109375 5.375 39.8125 4.5625 
Q 40.53125 3.765625 41.9375 3.4375 
Q 43.359375 3.125 45.75 3.078125 
L 46 1.171875 
Q 43.890625 0.34375 40.859375 -0.484375 
Q 37.84375 -1.3125 36.765625 -1.3125 
Q 32.03125 -1.3125 30.28125 3.5625 
Q 23.4375 -1.375 17.390625 -1.375 
Q 10.59375 -1.375 6.46875 1.96875 
Q 2.34375 5.328125 2.34375 11.421875 
Q 2.34375 18.953125 9.046875 22.515625 
Q 15.765625 26.078125 30.125 26.078125 
L 30.171875 29.890625 
Q 30.21875 35.359375 27.390625 37.984375 
Q 24.5625 40.625 18.703125 40.625 
Q 14.265625 40.625 7.5625 38.96875 
z
" id="Constantia-97"/>
       <path d="M 1.3125 45.265625 
Q 7.515625 45.125 12.40625 45.125 
Q 16.0625 45.125 21.625 45.265625 
L 21.828125 43.265625 
L 17.484375 42.140625 
Q 20.609375 36.8125 25.875 28.328125 
Q 31.109375 36.03125 35.015625 42.046875 
L 30.859375 43.265625 
L 30.609375 45.265625 
Q 34.71875 45.125 37.890625 45.125 
Q 42.234375 45.125 45.953125 45.265625 
L 46.1875 43.265625 
L 41.546875 42 
Q 40.28125 41.65625 39.203125 40.1875 
Q 34.078125 33.40625 28.125 24.65625 
Q 34.515625 14.359375 40.625 5.125 
Q 41.546875 3.71875 43.171875 3.171875 
L 47.40625 1.859375 
L 47.609375 -0.140625 
Q 41.453125 0 36.578125 0 
Q 32.90625 0 27.34375 -0.140625 
L 27.15625 1.859375 
L 31.390625 2.984375 
Q 27.546875 9.078125 22.125 17.828125 
Q 16.75 9.96875 12.3125 3.078125 
L 16.453125 1.859375 
L 16.65625 -0.140625 
Q 12.640625 0 9.515625 0 
Q 5.171875 0 0.828125 -0.140625 
L 0.640625 1.859375 
L 5.375 3.125 
Q 6.9375 3.5625 8.25 5.28125 
Q 13.625 12.453125 19.828125 21.578125 
Q 13.625 31.640625 8.40625 39.84375 
Q 7.421875 41.359375 5.765625 41.9375 
L 1.515625 43.265625 
z
" id="Constantia-120"/>
       <path id="Constantia-32"/>
       <path d="M 13.71875 23.046875 
Q 13.71875 13.921875 17.140625 8.171875 
Q 20.5625 2.4375 27.296875 2.4375 
Q 33.59375 2.4375 36.890625 7.484375 
Q 40.1875 12.546875 40.1875 22.46875 
Q 40.1875 31.78125 36.71875 37.15625 
Q 33.25 42.53125 26.65625 42.53125 
Q 20.40625 42.53125 17.0625 37.6875 
Q 13.71875 32.859375 13.71875 23.046875 
z
M 50.140625 23.484375 
Q 50.140625 12.359375 43.421875 5.484375 
Q 36.71875 -1.375 26.375 -1.375 
Q 16.265625 -1.375 10.03125 5.09375 
Q 3.8125 11.578125 3.8125 22.015625 
Q 3.8125 32.765625 10.328125 39.578125 
Q 16.84375 46.390625 27.59375 46.390625 
Q 37.75 46.390625 43.9375 40.109375 
Q 50.140625 33.84375 50.140625 23.484375 
z
" id="Constantia-111"/>
       <path d="M 18.796875 39.9375 
L 18.796875 13.421875 
Q 18.796875 8.84375 18.890625 5.375 
Q 19 4.046875 20.171875 3.71875 
L 26.375 1.859375 
L 26.515625 -0.140625 
Q 19.140625 0 14.40625 0 
Q 9.578125 0 3.03125 -0.140625 
L 2.78125 1.859375 
L 8.25 3.421875 
Q 9.625 3.859375 9.671875 5.03125 
Q 9.765625 8.0625 9.765625 11.421875 
L 9.765625 40.1875 
L 3.125 41.84375 
L 2.78125 43.890625 
L 9.8125 44.484375 
L 9.8125 44.671875 
Q 9.8125 58.453125 15.796875 66.015625 
Q 21.78125 73.578125 31.84375 73.578125 
Q 36.765625 73.578125 41.359375 72.359375 
Q 39.703125 66.40625 38.53125 60.109375 
L 36.46875 59.71875 
L 33.296875 69.484375 
Q 32.171875 69.625 30.46875 69.625 
Q 24.859375 69.625 21.828125 64.59375 
Q 18.796875 59.578125 18.796875 46.1875 
L 18.796875 44.578125 
L 30.953125 44.578125 
L 30.953125 39.9375 
z
" id="Constantia-102"/>
       <path d="M 30.765625 0 
Q 24.75 0 17.484375 -0.140625 
L 17.28125 1.953125 
L 24.515625 4.109375 
Q 25.734375 4.4375 25.78125 5.609375 
Q 25.875 9.328125 25.875 15.09375 
L 25.875 63.8125 
L 8.640625 63.8125 
L 4.296875 50.828125 
L 2.34375 50.484375 
L 1.078125 67.96875 
L 1.421875 68.359375 
Q 13.421875 68.171875 24.421875 68.171875 
L 37.453125 68.171875 
Q 48.390625 68.171875 60.546875 68.359375 
L 60.84375 67.96875 
L 57.765625 50.828125 
L 55.8125 50.484375 
L 52.6875 63.8125 
L 35.453125 63.8125 
L 35.453125 15.09375 
Q 35.453125 9.328125 35.546875 5.609375 
Q 35.59375 4.4375 36.8125 4.109375 
L 44.046875 1.953125 
L 44.140625 -0.140625 
Q 36.578125 0 30.765625 0 
z
" id="Constantia-84"/>
       <path d="M 17.484375 39.9375 
Q 17.1875 23.4375 17.1875 13.328125 
Q 17.1875 8.25 18.703125 6.3125 
Q 20.21875 4.390625 24.46875 4.390625 
Q 27.828125 4.390625 33.25 5.28125 
L 33.546875 3.078125 
Q 25.09375 -1.171875 18.453125 -1.171875 
Q 13.140625 -1.171875 10.546875 1.6875 
Q 7.953125 4.546875 7.953125 10.296875 
Q 7.953125 19.78125 8.296875 40.234375 
L 1.5625 41.890625 
L 1.265625 43.890625 
L 8.796875 44.53125 
L 12.15625 56.34375 
Q 14.890625 57.078125 17.140625 57.765625 
L 17.625 57.421875 
Q 17.484375 51.515625 17.484375 46.390625 
L 17.484375 44.578125 
L 32.171875 44.578125 
L 32.171875 39.9375 
z
" id="Constantia-116"/>
       <path d="M 2.734375 68.5 
L 2.484375 70.125 
Q 11.140625 71.78125 18.40625 73.578125 
L 18.84375 73.1875 
Q 18.5625 65.234375 18.5625 51.078125 
L 18.5625 19.28125 
Q 18.5625 10.546875 18.65625 5.21875 
Q 18.796875 3.8125 20.015625 3.46875 
L 25.34375 1.859375 
L 25.484375 -0.140625 
Q 18.890625 0 14.109375 0 
Q 9.328125 0 2.78125 -0.140625 
L 2.59375 1.859375 
L 8.109375 3.46875 
Q 9.328125 3.859375 9.421875 5.03125 
Q 9.515625 10.546875 9.515625 17.328125 
L 9.515625 37.40625 
Q 9.515625 55.5625 9.328125 66.546875 
z
" id="Constantia-108"/>
       <path d="M 17.09375 0 
Q 11.1875 0 4.984375 -0.140625 
L 4.78125 1.953125 
L 10.796875 3.765625 
Q 12.0625 4.15625 12.109375 5.28125 
Q 12.15625 7.234375 12.171875 9.640625 
Q 12.203125 12.0625 12.203125 14.984375 
L 12.203125 54.59375 
Q 12.203125 57.078125 12.171875 59.078125 
Q 12.15625 61.078125 12.109375 62.703125 
Q 12.0625 63.96875 10.9375 64.359375 
L 4.890625 66.265625 
L 4.78125 68.359375 
Q 11.078125 68.171875 17.046875 68.171875 
Q 21.921875 68.171875 26.453125 68.40625 
Q 31 68.65625 35.796875 68.65625 
Q 52.875 68.65625 61.46875 60.859375 
Q 70.0625 53.078125 70.0625 37.75 
Q 70.0625 19.671875 60.515625 9.6875 
Q 50.984375 -0.296875 33.734375 -0.296875 
Q 29 -0.296875 25.28125 -0.140625 
Q 21.578125 0 17.09375 0 
z
M 21.78125 4.34375 
Q 24.65625 3.953125 27.40625 3.828125 
Q 30.171875 3.71875 32.953125 3.71875 
Q 45.84375 3.71875 52.578125 11.296875 
Q 59.328125 18.890625 59.328125 34.578125 
Q 59.328125 49.8125 52.921875 57.15625 
Q 46.53125 64.5 32.671875 64.5 
Q 30.46875 64.5 27.796875 64.40625 
Q 25.140625 64.3125 21.78125 64.0625 
z
" id="Constantia-68"/>
       <path d="M 44.046875 3.46875 
Q 39.890625 0.875 35.5 -0.25 
Q 31.109375 -1.375 27.34375 -1.375 
Q 16.609375 -1.375 10.203125 4.75 
Q 3.8125 10.890625 3.8125 21.78125 
Q 3.8125 32.625 9.9375 39.5 
Q 16.0625 46.390625 26.3125 46.390625 
Q 34.90625 46.390625 39.6875 41.234375 
Q 44.484375 36.078125 44.484375 27 
Q 44.484375 25.640625 44.34375 24.21875 
L 13.375 24.21875 
Q 13.375 13.71875 18.3125 9.203125 
Q 23.25 4.6875 33.734375 4.6875 
Q 38.421875 4.6875 43.75 5.5625 
z
M 34.765625 28.265625 
L 34.765625 29.734375 
Q 34.765625 36.671875 32.546875 39.640625 
Q 30.328125 42.625 25.921875 42.625 
Q 20.125 42.625 17.046875 38.421875 
Q 13.96875 34.234375 13.578125 28.265625 
z
" id="Constantia-101"/>
       <path d="M 2.484375 70.125 
Q 10.453125 71.6875 18.40625 73.578125 
L 18.84375 73.1875 
Q 18.609375 68.609375 18.578125 60.109375 
Q 18.5625 51.609375 18.5625 40.921875 
Q 27.046875 46.390625 34.375 46.390625 
Q 41.15625 46.390625 45.15625 42.59375 
Q 49.171875 38.8125 49.171875 31.5 
L 49.171875 14.265625 
Q 49.171875 8.640625 49.265625 5.21875 
Q 49.3125 3.953125 50.484375 3.515625 
L 55.953125 1.859375 
L 56.0625 -0.140625 
Q 49.609375 0 44.828125 0 
Q 40.046875 0 34.1875 -0.140625 
L 33.984375 1.859375 
L 38.8125 3.265625 
Q 39.984375 3.65625 40.09375 4.78125 
Q 40.140625 5.46875 40.140625 7.859375 
L 40.140625 29.15625 
Q 40.140625 35.15625 37.25 37.765625 
Q 34.375 40.375 28.765625 40.375 
Q 23.921875 40.375 18.5625 38.03125 
L 18.5625 16.109375 
Q 18.5625 10.0625 18.65625 5.03125 
Q 18.703125 3.65625 19.875 3.328125 
L 24.953125 1.859375 
L 25.046875 -0.140625 
Q 18.890625 0 14.109375 0 
Q 9.328125 0 2.78125 -0.140625 
L 2.59375 1.859375 
L 8.109375 3.46875 
Q 9.375 3.859375 9.421875 5.03125 
Q 9.515625 9.71875 9.515625 17 
L 9.515625 37.40625 
Q 9.515625 47.359375 9.484375 55.03125 
Q 9.46875 62.703125 9.328125 66.546875 
L 2.734375 68.5 
z
" id="Constantia-104"/>
       <path d="M 27.875 41.453125 
Q 25.046875 42.234375 21.734375 42.234375 
Q 17.140625 42.234375 14.328125 40.453125 
Q 11.53125 38.671875 11.53125 35.59375 
Q 11.53125 32.625 13.359375 30.90625 
Q 15.1875 29.203125 20.171875 27.546875 
L 24.171875 26.171875 
Q 30.90625 23.875 34.046875 20.921875 
Q 37.203125 17.96875 37.203125 13.1875 
Q 37.203125 6.390625 31.921875 2.5 
Q 26.65625 -1.375 18.609375 -1.375 
Q 11.1875 -1.375 3.421875 1.65625 
Q 5.078125 8.015625 6.109375 14.0625 
L 8.015625 14.359375 
L 11.53125 3.859375 
Q 14.3125 2.78125 18.609375 2.78125 
Q 23.140625 2.78125 25.84375 4.640625 
Q 28.5625 6.5 28.5625 9.859375 
Q 28.5625 12.984375 26.734375 14.796875 
Q 24.90625 16.609375 20.90625 17.921875 
L 15.828125 19.625 
Q 9.234375 21.828125 6.71875 24.921875 
Q 4.203125 28.03125 4.203125 32.625 
Q 4.203125 39.015625 9.0625 42.703125 
Q 13.921875 46.390625 21.875 46.390625 
Q 29.296875 46.390625 35.359375 44.234375 
Q 33.984375 38.671875 32.859375 32.46875 
L 31 32.125 
z
" id="Constantia-115"/>
      </defs>
      <use xlink:href="#Constantia-77"/>
      <use x="89.777344" xlink:href="#Constantia-97"/>
      <use x="137.775391" xlink:href="#Constantia-120"/>
      <use x="185.822266" xlink:href="#Constantia-32"/>
      <use x="208.419922" xlink:href="#Constantia-111"/>
      <use x="262.472656" xlink:href="#Constantia-102"/>
      <use x="293.429688" xlink:href="#Constantia-32"/>
      <use x="316.527344" xlink:href="#Constantia-84"/>
      <use x="369.105469" xlink:href="#Constantia-111"/>
      <use x="423.158203" xlink:href="#Constantia-116"/>
      <use x="458.460938" xlink:href="#Constantia-97"/>
      <use x="506.458984" xlink:href="#Constantia-108"/>
      <use x="534.535156" xlink:href="#Constantia-32"/>
      <use x="559.632812" xlink:href="#Constantia-68"/>
      <use x="634.730469" xlink:href="#Constantia-101"/>
      <use x="682.630859" xlink:href="#Constantia-97"/>
      <use x="730.628906" xlink:href="#Constantia-116"/>
      <use x="765.931641" xlink:href="#Constantia-104"/>
      <use x="823.890625" xlink:href="#Constantia-115"/>
      <use x="864.369141" xlink:href="#Constantia-32"/>
      <use x="889.466797" xlink:href="#Constantia-49"/>
      <use x="920.765625" xlink:href="#Constantia-53"/>
      <use x="968.324219" xlink:href="#Constantia-53"/>
      <use x="1015.882812" xlink:href="#Constantia-50"/>
     </g>
    </g>
    <g id="patch_36">
     <path d="M 1188.799875 58.90625 
L 1210.799875 58.90625 
L 1210.799875 51.20625 
L 1188.799875 51.20625 
z
" style="fill:#f04a6b;stroke:#f04a6b;stroke-linejoin:miter;"/>
    </g>
    <g id="text_43">
     <!-- Min of Total Deaths 956 -->
     <g transform="translate(1219.599875 58.90625)scale(0.11 -0.11)">
      <defs>
       <path d="M 19.34375 63.671875 
Q 19.34375 61.078125 17.71875 59.4375 
Q 16.109375 57.8125 13.578125 57.8125 
Q 11.140625 57.8125 9.59375 59.328125 
Q 8.0625 60.84375 8.0625 63.328125 
Q 8.0625 65.96875 9.671875 67.5 
Q 11.28125 69.046875 13.921875 69.046875 
Q 16.3125 69.046875 17.828125 67.65625 
Q 19.34375 66.265625 19.34375 63.671875 
z
M 2.828125 42.96875 
Q 11.375 44.578125 18.65625 46.390625 
L 19.09375 46.046875 
Q 18.796875 39.703125 18.796875 32.078125 
L 18.796875 13.328125 
Q 18.796875 7.46875 18.890625 5.21875 
Q 19 3.90625 20.125 3.515625 
L 25.78125 1.859375 
L 25.875 -0.140625 
Q 19.140625 0 14.359375 0 
Q 9.578125 0 2.984375 -0.140625 
L 2.78125 1.859375 
L 8.453125 3.515625 
Q 9.578125 3.90625 9.671875 5.03125 
Q 9.765625 6.9375 9.765625 11.421875 
L 9.765625 27.734375 
Q 9.765625 34.125 9.578125 39.546875 
L 3.078125 41.3125 
z
" id="Constantia-105"/>
       <path d="M 2.828125 42.96875 
Q 11.03125 44.53125 18.3125 46.390625 
L 18.796875 46.046875 
L 18.796875 40.375 
Q 27.296875 46.390625 34.625 46.390625 
Q 41.546875 46.390625 45.484375 42.5 
Q 49.421875 38.625 49.421875 31.5 
L 49.421875 14.265625 
Q 49.421875 8.15625 49.515625 5.21875 
Q 49.5625 3.90625 50.78125 3.515625 
L 56.203125 1.859375 
L 56.296875 -0.140625 
Q 49.859375 0 45.0625 0 
Q 40.28125 0 34.421875 -0.140625 
L 34.234375 1.859375 
L 39.109375 3.265625 
Q 40.234375 3.65625 40.328125 4.78125 
Q 40.375 5.46875 40.375 7.859375 
L 40.375 29.15625 
Q 40.375 35.15625 37.5 37.765625 
Q 34.625 40.375 29 40.375 
Q 24.078125 40.375 18.796875 37.546875 
L 18.796875 16.21875 
Q 18.796875 10.109375 18.890625 5.03125 
Q 18.953125 3.71875 20.015625 3.375 
L 25.09375 1.859375 
L 25.203125 -0.140625 
Q 19.140625 0 14.359375 0 
Q 9.578125 0 3.03125 -0.140625 
L 2.828125 1.859375 
L 8.59375 3.515625 
Q 9.671875 3.953125 9.71875 5.03125 
Q 9.765625 8.15625 9.765625 11.03125 
L 9.765625 27.6875 
Q 9.765625 34.078125 9.578125 39.546875 
L 3.078125 41.3125 
z
" id="Constantia-110"/>
      </defs>
      <use xlink:href="#Constantia-77"/>
      <use x="90.527344" xlink:href="#Constantia-105"/>
      <use x="118.847656" xlink:href="#Constantia-110"/>
      <use x="177.050781" xlink:href="#Constantia-32"/>
      <use x="199.648438" xlink:href="#Constantia-111"/>
      <use x="253.701172" xlink:href="#Constantia-102"/>
      <use x="284.658203" xlink:href="#Constantia-32"/>
      <use x="307.755859" xlink:href="#Constantia-84"/>
      <use x="360.333984" xlink:href="#Constantia-111"/>
      <use x="414.386719" xlink:href="#Constantia-116"/>
      <use x="449.689453" xlink:href="#Constantia-97"/>
      <use x="497.6875" xlink:href="#Constantia-108"/>
      <use x="525.763672" xlink:href="#Constantia-32"/>
      <use x="550.861328" xlink:href="#Constantia-68"/>
      <use x="625.958984" xlink:href="#Constantia-101"/>
      <use x="673.859375" xlink:href="#Constantia-97"/>
      <use x="721.857422" xlink:href="#Constantia-116"/>
      <use x="757.160156" xlink:href="#Constantia-104"/>
      <use x="815.119141" xlink:href="#Constantia-115"/>
      <use x="855.597656" xlink:href="#Constantia-32"/>
      <use x="880.695312" xlink:href="#Constantia-57"/>
      <use x="935.333984" xlink:href="#Constantia-53"/>
      <use x="982.892578" xlink:href="#Constantia-54"/>
     </g>
    </g>
   </g>
  </g>
 </g>
 <defs>
  <clipPath id="p8dff972c3b">
   <rect height="622.08" width="1071.36" x="53.971875" y="24.708281"/>
  </clipPath>
 </defs>
</svg>
