<?xml version="1.0" encoding="utf-8" standalone="no"?>
<!DOCTYPE svg PUBLIC "-//W3C//DTD SVG 1.1//EN"
  "http://www.w3.org/Graphics/SVG/1.1/DTD/svg11.dtd">
<!-- Created with matplotlib (https://matplotlib.org/) -->
<svg height="766.08pt" version="1.1" viewBox="0 0 897.826094 766.08" width="897.826094pt" xmlns="http://www.w3.org/2000/svg" xmlns:xlink="http://www.w3.org/1999/xlink">
 <metadata>
  <rdf:RDF xmlns:cc="http://creativecommons.org/ns#" xmlns:dc="http://purl.org/dc/elements/1.1/" xmlns:rdf="http://www.w3.org/1999/02/22-rdf-syntax-ns#">
   <cc:Work>
    <dc:type rdf:resource="http://purl.org/dc/dcmitype/StillImage"/>
    <dc:date>2020-11-04T14:59:24.807069</dc:date>
    <dc:format>image/svg+xml</dc:format>
    <dc:creator>
     <cc:Agent>
      <dc:title>Matplotlib v3.3.2, https://matplotlib.org/</dc:title>
     </cc:Agent>
    </dc:creator>
   </cc:Work>
  </rdf:RDF>
 </metadata>
 <defs>
  <style type="text/css">*{stroke-linecap:butt;stroke-linejoin:round;}</style>
 </defs>
 <g id="figure_1">
  <g id="patch_1">
   <path d="M 0 766.08 
L 897.826094 766.08 
L 897.826094 0 
L 0 0 
z
" style="fill:#ffffff;"/>
  </g>
  <g id="axes_1">
   <g id="patch_2">
    <path d="M 363.947856 123.730363 
C 327.014656 123.730363 290.41614 130.754024 256.106793 144.426257 
C 221.797446 158.09849 190.399082 178.171504 163.58848 203.573333 
C 136.777878 228.975161 115.040946 259.245426 99.538511 292.767595 
C 84.036076 326.289763 75.0491 362.456287 73.057517 399.335751 
C 71.065934 436.215215 76.105841 473.139225 87.908087 508.135913 
C 99.710334 543.132602 118.06102 575.567699 141.980157 603.709059 
C 165.899295 631.850419 194.953378 655.188015 227.590821 672.475541 
C 260.228265 689.763067 295.857555 700.687209 332.575967 704.664578 
C 369.294379 708.641948 406.436438 705.600462 442.018632 695.702545 
C 477.600825 685.804629 510.978271 669.229669 540.3685 646.862825 
C 569.758729 624.495981 594.62908 596.742625 613.651392 565.084878 
C 632.673704 533.427132 645.503222 498.438753 651.454805 461.98824 
C 657.406389 425.537727 656.372173 388.285699 648.407388 352.221541 
C 640.442603 316.157384 625.691602 281.934714 604.942137 251.381139 
C 584.192672 220.827563 557.820802 194.496828 527.234873 173.795083 
C 496.648945 153.093338 462.40329 138.395776 426.326744 130.487298 
L 363.947856 415.044551 
L 363.947856 123.730363 
z
" style="fill:#2e3e0f;opacity:0.5;stroke:#2e3e0f;stroke-linejoin:miter;"/>
   </g>
   <g id="patch_3">
    <path d="M 429.463932 101.525295 
C 419.226854 99.281186 408.87613 97.591136 398.456917 96.462518 
C 388.037703 95.333901 377.565172 94.768359 367.08501 94.76836 
L 367.085044 386.082548 
L 429.463932 101.525295 
z
" style="fill:#482626;opacity:0.5;stroke:#482626;stroke-linejoin:miter;"/>
   </g>
   <g id="patch_4">
    <path d="M 369.77414 117.90408 
C 332.84094 117.90408 296.242424 124.92774 261.933077 138.599973 
C 227.62373 152.272207 196.225366 172.345221 169.414763 197.747049 
C 142.604161 223.148877 120.86723 253.419143 105.364795 286.941311 
C 89.86236 320.463479 80.875383 356.630003 78.883801 393.509467 
C 76.892218 430.388931 81.932124 467.312941 93.734371 502.30963 
C 105.536618 537.306319 123.887304 569.741415 147.806441 597.882775 
C 171.725578 626.024135 200.779662 649.361731 233.417105 666.649258 
C 266.054548 683.936784 301.683838 694.860925 338.402251 698.838295 
C 375.120663 702.815664 412.262722 699.774178 447.844915 689.876262 
C 483.427109 679.978345 516.804555 663.403385 546.194784 641.036541 
C 575.585013 618.669698 600.455364 590.916341 619.477676 559.258595 
C 638.499988 527.600848 651.329506 492.612469 657.281089 456.161956 
C 663.232673 419.711443 662.198457 382.459415 654.233672 346.395258 
C 646.268887 310.3311 631.517886 276.10843 610.768421 245.554855 
C 590.018956 215.001279 563.647085 188.670544 533.061157 167.968799 
C 502.475229 147.267054 468.229574 132.569492 432.153027 124.661014 
L 369.77414 409.218267 
L 369.77414 117.90408 
z
" style="fill:#9acd32;stroke:#000000;stroke-linejoin:miter;"/>
   </g>
   <g id="patch_5">
    <path d="M 435.290215 95.699011 
C 425.053137 93.454902 414.702414 91.764852 404.2832 90.636235 
C 393.863987 89.507617 383.391456 88.942075 372.911294 88.942077 
L 372.911328 380.256264 
L 435.290215 95.699011 
z
" style="fill:#f08080;stroke:#000000;stroke-linejoin:miter;"/>
   </g>
   <g id="patch_6">
    <path clip-path="url(#pc26757a744)" d="M 371.342734 598.657197 
C 425.422932 598.657197 477.295426 577.170907 515.535901 538.930432 
C 553.776375 500.689957 575.262666 448.817464 575.262666 394.737266 
C 575.262666 340.657068 553.776375 288.784574 515.535901 250.544099 
C 477.295426 212.303625 425.422932 190.817334 371.342734 190.817334 
C 317.262536 190.817334 265.390043 212.303625 227.149568 250.544099 
C 188.909093 288.784574 167.422803 340.657068 167.422803 394.737266 
C 167.422803 448.817464 188.909093 500.689957 227.149568 538.930432 
C 265.390043 577.170907 317.262536 598.657197 371.342734 598.657197 
z
" style="fill:#ffffff;stroke:#000000;stroke-linejoin:miter;"/>
   </g>
   <g id="matplotlib.axis_1"/>
   <g id="matplotlib.axis_2"/>
   <g id="text_1">
    <!-- TotalRecovered -->
    <g transform="translate(201.883812 732.784672)scale(0.2 -0.2)">
     <defs>
      <path d="M 30.765625 0 
Q 24.75 0 17.484375 -0.140625 
L 17.28125 1.953125 
L 24.515625 4.109375 
Q 25.734375 4.4375 25.78125 5.609375 
Q 25.875 9.328125 25.875 15.09375 
L 25.875 63.8125 
L 8.640625 63.8125 
L 4.296875 50.828125 
L 2.34375 50.484375 
L 1.078125 67.96875 
L 1.421875 68.359375 
Q 13.421875 68.171875 24.421875 68.171875 
L 37.453125 68.171875 
Q 48.390625 68.171875 60.546875 68.359375 
L 60.84375 67.96875 
L 57.765625 50.828125 
L 55.8125 50.484375 
L 52.6875 63.8125 
L 35.453125 63.8125 
L 35.453125 15.09375 
Q 35.453125 9.328125 35.546875 5.609375 
Q 35.59375 4.4375 36.8125 4.109375 
L 44.046875 1.953125 
L 44.140625 -0.140625 
Q 36.578125 0 30.765625 0 
z
" id="Constantia-84"/>
      <path d="M 13.71875 23.046875 
Q 13.71875 13.921875 17.140625 8.171875 
Q 20.5625 2.4375 27.296875 2.4375 
Q 33.59375 2.4375 36.890625 7.484375 
Q 40.1875 12.546875 40.1875 22.46875 
Q 40.1875 31.78125 36.71875 37.15625 
Q 33.25 42.53125 26.65625 42.53125 
Q 20.40625 42.53125 17.0625 37.6875 
Q 13.71875 32.859375 13.71875 23.046875 
z
M 50.140625 23.484375 
Q 50.140625 12.359375 43.421875 5.484375 
Q 36.71875 -1.375 26.375 -1.375 
Q 16.265625 -1.375 10.03125 5.09375 
Q 3.8125 11.578125 3.8125 22.015625 
Q 3.8125 32.765625 10.328125 39.578125 
Q 16.84375 46.390625 27.59375 46.390625 
Q 37.75 46.390625 43.9375 40.109375 
Q 50.140625 33.84375 50.140625 23.484375 
z
" id="Constantia-111"/>
      <path d="M 17.484375 39.9375 
Q 17.1875 23.4375 17.1875 13.328125 
Q 17.1875 8.25 18.703125 6.3125 
Q 20.21875 4.390625 24.46875 4.390625 
Q 27.828125 4.390625 33.25 5.28125 
L 33.546875 3.078125 
Q 25.09375 -1.171875 18.453125 -1.171875 
Q 13.140625 -1.171875 10.546875 1.6875 
Q 7.953125 4.546875 7.953125 10.296875 
Q 7.953125 19.78125 8.296875 40.234375 
L 1.5625 41.890625 
L 1.265625 43.890625 
L 8.796875 44.53125 
L 12.15625 56.34375 
Q 14.890625 57.078125 17.140625 57.765625 
L 17.625 57.421875 
Q 17.484375 51.515625 17.484375 46.390625 
L 17.484375 44.578125 
L 32.171875 44.578125 
L 32.171875 39.9375 
z
" id="Constantia-116"/>
      <path d="M 30.125 22.125 
Q 19.4375 22.125 15.53125 20.015625 
Q 11.625 17.921875 11.625 12.9375 
Q 11.625 8.296875 14.203125 6.359375 
Q 16.796875 4.4375 21.234375 4.4375 
Q 26.265625 4.4375 30.03125 6.15625 
z
M 6.453125 42.234375 
Q 15.96875 46.390625 23.296875 46.390625 
Q 30.765625 46.390625 34.9375 42.484375 
Q 39.109375 38.578125 39.0625 31.203125 
L 38.8125 10.890625 
Q 38.765625 8.40625 38.9375 6.890625 
Q 39.109375 5.375 39.8125 4.5625 
Q 40.53125 3.765625 41.9375 3.4375 
Q 43.359375 3.125 45.75 3.078125 
L 46 1.171875 
Q 43.890625 0.34375 40.859375 -0.484375 
Q 37.84375 -1.3125 36.765625 -1.3125 
Q 32.03125 -1.3125 30.28125 3.5625 
Q 23.4375 -1.375 17.390625 -1.375 
Q 10.59375 -1.375 6.46875 1.96875 
Q 2.34375 5.328125 2.34375 11.421875 
Q 2.34375 18.953125 9.046875 22.515625 
Q 15.765625 26.078125 30.125 26.078125 
L 30.171875 29.890625 
Q 30.21875 35.359375 27.390625 37.984375 
Q 24.5625 40.625 18.703125 40.625 
Q 14.265625 40.625 7.5625 38.96875 
z
" id="Constantia-97"/>
      <path d="M 2.734375 68.5 
L 2.484375 70.125 
Q 11.140625 71.78125 18.40625 73.578125 
L 18.84375 73.1875 
Q 18.5625 65.234375 18.5625 51.078125 
L 18.5625 19.28125 
Q 18.5625 10.546875 18.65625 5.21875 
Q 18.796875 3.8125 20.015625 3.46875 
L 25.34375 1.859375 
L 25.484375 -0.140625 
Q 18.890625 0 14.109375 0 
Q 9.328125 0 2.78125 -0.140625 
L 2.59375 1.859375 
L 8.109375 3.46875 
Q 9.328125 3.859375 9.421875 5.03125 
Q 9.515625 10.546875 9.515625 17.328125 
L 9.515625 37.40625 
Q 9.515625 55.5625 9.328125 66.546875 
z
" id="Constantia-108"/>
      <path d="M 21.78125 14.984375 
Q 21.78125 12.0625 21.796875 9.71875 
Q 21.828125 7.375 21.875 5.46875 
Q 21.921875 3.953125 23.140625 3.5625 
L 28.5625 1.953125 
L 28.71875 -0.140625 
Q 22.90625 0 17.09375 0 
Q 11.1875 0 4.984375 -0.140625 
L 4.78125 1.953125 
L 10.796875 3.765625 
Q 12.015625 4.109375 12.109375 5.28125 
Q 12.15625 7.234375 12.171875 9.640625 
Q 12.203125 12.0625 12.203125 14.984375 
L 12.203125 54.59375 
Q 12.203125 57.078125 12.171875 59.078125 
Q 12.15625 61.078125 12.109375 62.703125 
Q 12.0625 63.96875 10.9375 64.359375 
L 4.890625 66.265625 
L 4.78125 68.359375 
Q 11.078125 68.171875 17.046875 68.171875 
Q 18.21875 68.171875 20.015625 68.234375 
Q 21.828125 68.3125 24.421875 68.40625 
Q 27.046875 68.5 28.796875 68.546875 
Q 30.5625 68.609375 31.59375 68.609375 
Q 42.71875 68.609375 48.28125 64.40625 
Q 53.859375 60.203125 53.859375 52.15625 
Q 53.859375 44.875 50.046875 40.359375 
Q 46.234375 35.84375 38.421875 33.40625 
Q 41.5 28.71875 44.09375 24.34375 
Q 46.6875 19.96875 48.90625 16.328125 
Q 51.125 12.703125 52.96875 9.90625 
Q 54.828125 7.125 56.453125 5.515625 
Q 57.28125 4.6875 58.109375 4.078125 
Q 58.9375 3.46875 59.84375 3.078125 
Q 60.75 2.6875 61.75 2.390625 
Q 62.75 2.09375 63.96875 1.8125 
L 64.109375 -0.34375 
Q 60.59375 -0.78125 58.203125 -0.78125 
Q 56.203125 -0.78125 54.6875 -0.6875 
Q 53.171875 -0.59375 52 -0.296875 
Q 50.828125 0 49.875 0.453125 
Q 48.921875 0.921875 48 1.65625 
Q 46 3.171875 44.0625 6.03125 
Q 42.140625 8.890625 40.0625 12.5 
Q 37.984375 16.109375 35.734375 20.1875 
Q 33.5 24.265625 31 28.171875 
Q 30.28125 29.34375 29.765625 30.03125 
Q 29.25 30.71875 28.640625 31.109375 
Q 28.03125 31.5 27.21875 31.640625 
Q 26.421875 31.78125 25.140625 31.84375 
L 21.78125 31.9375 
z
M 21.78125 35.59375 
Q 24.75 35.453125 27.296875 35.453125 
Q 35.75 35.453125 39.671875 39.03125 
Q 43.609375 42.625 43.609375 50.296875 
Q 43.609375 57.71875 39.84375 61.125 
Q 36.078125 64.546875 28.078125 64.546875 
Q 26.703125 64.546875 25.140625 64.453125 
Q 23.578125 64.359375 21.78125 64.15625 
z
" id="Constantia-82"/>
      <path d="M 44.046875 3.46875 
Q 39.890625 0.875 35.5 -0.25 
Q 31.109375 -1.375 27.34375 -1.375 
Q 16.609375 -1.375 10.203125 4.75 
Q 3.8125 10.890625 3.8125 21.78125 
Q 3.8125 32.625 9.9375 39.5 
Q 16.0625 46.390625 26.3125 46.390625 
Q 34.90625 46.390625 39.6875 41.234375 
Q 44.484375 36.078125 44.484375 27 
Q 44.484375 25.640625 44.34375 24.21875 
L 13.375 24.21875 
Q 13.375 13.71875 18.3125 9.203125 
Q 23.25 4.6875 33.734375 4.6875 
Q 38.421875 4.6875 43.75 5.5625 
z
M 34.765625 28.265625 
L 34.765625 29.734375 
Q 34.765625 36.671875 32.546875 39.640625 
Q 30.328125 42.625 25.921875 42.625 
Q 20.125 42.625 17.046875 38.421875 
Q 13.96875 34.234375 13.578125 28.265625 
z
" id="Constantia-101"/>
      <path d="M 42.96875 3.46875 
Q 39.9375 1.421875 35.46875 0.015625 
Q 31 -1.375 26.609375 -1.375 
Q 16.0625 -1.375 9.90625 4.796875 
Q 3.765625 10.984375 3.765625 21.296875 
Q 3.765625 32.46875 10.734375 39.421875 
Q 17.71875 46.390625 28.8125 46.390625 
Q 35.984375 46.390625 42.71875 43.453125 
Q 41.109375 36.921875 39.84375 30.078125 
L 37.9375 29.78125 
L 33.984375 41.5 
Q 31.734375 42.28125 28.90625 42.28125 
Q 21.625 42.28125 17.515625 37.203125 
Q 13.421875 32.125 13.421875 23.78125 
Q 13.421875 13.96875 18.0625 9.28125 
Q 22.703125 4.59375 32.765625 4.59375 
Q 37.40625 4.59375 42.671875 5.515625 
z
" id="Constantia-99"/>
      <path d="M -1.515625 45.265625 
Q 4.640625 45.125 9.421875 45.125 
Q 13.8125 45.125 19.96875 45.265625 
L 20.171875 43.265625 
L 14.5 41.703125 
Q 18.5 30.328125 23.78125 17.53125 
Q 25.140625 14.15625 26.21875 11.078125 
Q 27.296875 14.15625 28.71875 17.484375 
Q 33.15625 28.421875 38.03125 41.703125 
L 32.46875 43.265625 
L 32.28125 45.265625 
Q 36.234375 45.125 40.53125 45.125 
Q 44.921875 45.125 49.03125 45.265625 
L 49.21875 43.265625 
L 44.34375 41.84375 
Q 43.21875 41.453125 42.4375 39.9375 
Q 38.578125 31 33.46875 18.671875 
Q 28.375 6.34375 25.78125 -0.34375 
L 21.625 -0.78125 
Q 18.953125 6.296875 13.890625 18.59375 
Q 8.84375 30.90625 5.21875 39.703125 
Q 4.4375 41.40625 3.078125 41.890625 
L -1.421875 43.265625 
z
" id="Constantia-118"/>
      <path d="M 2.828125 42.96875 
Q 10.984375 44.53125 18.3125 46.390625 
L 18.796875 46.046875 
L 18.796875 40.328125 
Q 27.828125 46.390625 36.53125 46.390625 
L 36.765625 46.09375 
Q 35.359375 38.8125 33.984375 31 
L 32.03125 30.671875 
Q 30.671875 34.8125 29.390625 37.328125 
Q 28.125 39.84375 25.390625 39.84375 
Q 22.75 39.84375 18.796875 37.40625 
L 18.796875 16.265625 
Q 18.796875 8.640625 18.890625 5.375 
Q 18.953125 4.046875 20.125 3.71875 
L 26.609375 1.859375 
L 26.765625 -0.140625 
Q 19.140625 0 14.359375 0 
Q 9.578125 0 3.03125 -0.140625 
L 2.828125 1.859375 
L 8.5 3.515625 
Q 9.671875 3.90625 9.71875 5.03125 
Q 9.765625 7.125 9.765625 11.03125 
L 9.765625 27.6875 
Q 9.765625 35.640625 9.578125 39.546875 
L 3.078125 41.3125 
z
" id="Constantia-114"/>
      <path d="M 37.9375 41.015625 
Q 34.671875 42.046875 30.609375 42.046875 
Q 22.21875 42.046875 17.8125 37.28125 
Q 13.421875 32.515625 13.421875 22.859375 
Q 13.421875 14.5 17.328125 9.5 
Q 21.234375 4.5 28.375 4.5 
Q 32.953125 4.5 37.9375 7.03125 
z
M 30.90625 70.125 
Q 39.59375 71.78125 46.828125 73.578125 
L 47.265625 73.1875 
Q 46.96875 62.75 46.96875 50.734375 
L 46.96875 24.171875 
Q 46.96875 17.4375 47.015625 10.84375 
Q 47.015625 8.34375 47.1875 6.828125 
Q 47.359375 5.328125 48.046875 4.515625 
Q 48.734375 3.71875 50.078125 3.421875 
Q 51.421875 3.125 53.859375 3.078125 
L 54.109375 1.171875 
Q 51.953125 0.34375 48.953125 -0.484375 
Q 45.953125 -1.3125 44.875 -1.3125 
Q 39.9375 -1.3125 38.234375 4.25 
Q 30.671875 -1.375 23.53125 -1.375 
Q 14.5 -1.375 9.109375 5.046875 
Q 3.71875 11.46875 3.71875 20.84375 
Q 3.71875 32.953125 10.890625 39.59375 
Q 18.0625 46.234375 30.953125 46.234375 
Q 34.078125 46.234375 37.9375 45.5625 
Q 37.9375 56.34375 37.75 66.546875 
L 31.15625 68.5 
z
" id="Constantia-100"/>
     </defs>
     <use xlink:href="#Constantia-84"/>
     <use x="52.578125" xlink:href="#Constantia-111"/>
     <use x="106.630859" xlink:href="#Constantia-116"/>
     <use x="141.933594" xlink:href="#Constantia-97"/>
     <use x="189.931641" xlink:href="#Constantia-108"/>
     <use x="218.007812" xlink:href="#Constantia-82"/>
     <use x="279.642578" xlink:href="#Constantia-101"/>
     <use x="327.542969" xlink:href="#Constantia-99"/>
     <use x="373.685547" xlink:href="#Constantia-111"/>
     <use x="427.738281" xlink:href="#Constantia-118"/>
     <use x="476.029297" xlink:href="#Constantia-101"/>
     <use x="523.929688" xlink:href="#Constantia-114"/>
     <use x="562.259766" xlink:href="#Constantia-101"/>
     <use x="610.160156" xlink:href="#Constantia-100"/>
    </g>
   </g>
   <g id="text_2">
    <!-- TotalDeaths -->
    <g transform="translate(407.420388 66.658607)scale(0.2 -0.2)">
     <defs>
      <path d="M 17.09375 0 
Q 11.1875 0 4.984375 -0.140625 
L 4.78125 1.953125 
L 10.796875 3.765625 
Q 12.0625 4.15625 12.109375 5.28125 
Q 12.15625 7.234375 12.171875 9.640625 
Q 12.203125 12.0625 12.203125 14.984375 
L 12.203125 54.59375 
Q 12.203125 57.078125 12.171875 59.078125 
Q 12.15625 61.078125 12.109375 62.703125 
Q 12.0625 63.96875 10.9375 64.359375 
L 4.890625 66.265625 
L 4.78125 68.359375 
Q 11.078125 68.171875 17.046875 68.171875 
Q 21.921875 68.171875 26.453125 68.40625 
Q 31 68.65625 35.796875 68.65625 
Q 52.875 68.65625 61.46875 60.859375 
Q 70.0625 53.078125 70.0625 37.75 
Q 70.0625 19.671875 60.515625 9.6875 
Q 50.984375 -0.296875 33.734375 -0.296875 
Q 29 -0.296875 25.28125 -0.140625 
Q 21.578125 0 17.09375 0 
z
M 21.78125 4.34375 
Q 24.65625 3.953125 27.40625 3.828125 
Q 30.171875 3.71875 32.953125 3.71875 
Q 45.84375 3.71875 52.578125 11.296875 
Q 59.328125 18.890625 59.328125 34.578125 
Q 59.328125 49.8125 52.921875 57.15625 
Q 46.53125 64.5 32.671875 64.5 
Q 30.46875 64.5 27.796875 64.40625 
Q 25.140625 64.3125 21.78125 64.0625 
z
" id="Constantia-68"/>
      <path d="M 2.484375 70.125 
Q 10.453125 71.6875 18.40625 73.578125 
L 18.84375 73.1875 
Q 18.609375 68.609375 18.578125 60.109375 
Q 18.5625 51.609375 18.5625 40.921875 
Q 27.046875 46.390625 34.375 46.390625 
Q 41.15625 46.390625 45.15625 42.59375 
Q 49.171875 38.8125 49.171875 31.5 
L 49.171875 14.265625 
Q 49.171875 8.640625 49.265625 5.21875 
Q 49.3125 3.953125 50.484375 3.515625 
L 55.953125 1.859375 
L 56.0625 -0.140625 
Q 49.609375 0 44.828125 0 
Q 40.046875 0 34.1875 -0.140625 
L 33.984375 1.859375 
L 38.8125 3.265625 
Q 39.984375 3.65625 40.09375 4.78125 
Q 40.140625 5.46875 40.140625 7.859375 
L 40.140625 29.15625 
Q 40.140625 35.15625 37.25 37.765625 
Q 34.375 40.375 28.765625 40.375 
Q 23.921875 40.375 18.5625 38.03125 
L 18.5625 16.109375 
Q 18.5625 10.0625 18.65625 5.03125 
Q 18.703125 3.65625 19.875 3.328125 
L 24.953125 1.859375 
L 25.046875 -0.140625 
Q 18.890625 0 14.109375 0 
Q 9.328125 0 2.78125 -0.140625 
L 2.59375 1.859375 
L 8.109375 3.46875 
Q 9.375 3.859375 9.421875 5.03125 
Q 9.515625 9.71875 9.515625 17 
L 9.515625 37.40625 
Q 9.515625 47.359375 9.484375 55.03125 
Q 9.46875 62.703125 9.328125 66.546875 
L 2.734375 68.5 
z
" id="Constantia-104"/>
      <path d="M 27.875 41.453125 
Q 25.046875 42.234375 21.734375 42.234375 
Q 17.140625 42.234375 14.328125 40.453125 
Q 11.53125 38.671875 11.53125 35.59375 
Q 11.53125 32.625 13.359375 30.90625 
Q 15.1875 29.203125 20.171875 27.546875 
L 24.171875 26.171875 
Q 30.90625 23.875 34.046875 20.921875 
Q 37.203125 17.96875 37.203125 13.1875 
Q 37.203125 6.390625 31.921875 2.5 
Q 26.65625 -1.375 18.609375 -1.375 
Q 11.1875 -1.375 3.421875 1.65625 
Q 5.078125 8.015625 6.109375 14.0625 
L 8.015625 14.359375 
L 11.53125 3.859375 
Q 14.3125 2.78125 18.609375 2.78125 
Q 23.140625 2.78125 25.84375 4.640625 
Q 28.5625 6.5 28.5625 9.859375 
Q 28.5625 12.984375 26.734375 14.796875 
Q 24.90625 16.609375 20.90625 17.921875 
L 15.828125 19.625 
Q 9.234375 21.828125 6.71875 24.921875 
Q 4.203125 28.03125 4.203125 32.625 
Q 4.203125 39.015625 9.0625 42.703125 
Q 13.921875 46.390625 21.875 46.390625 
Q 29.296875 46.390625 35.359375 44.234375 
Q 33.984375 38.671875 32.859375 32.46875 
L 31 32.125 
z
" id="Constantia-115"/>
     </defs>
     <use xlink:href="#Constantia-84"/>
     <use x="52.578125" xlink:href="#Constantia-111"/>
     <use x="106.630859" xlink:href="#Constantia-116"/>
     <use x="141.933594" xlink:href="#Constantia-97"/>
     <use x="189.931641" xlink:href="#Constantia-108"/>
     <use x="218.007812" xlink:href="#Constantia-68"/>
     <use x="293.105469" xlink:href="#Constantia-101"/>
     <use x="341.005859" xlink:href="#Constantia-97"/>
     <use x="389.003906" xlink:href="#Constantia-116"/>
     <use x="424.306641" xlink:href="#Constantia-104"/>
     <use x="482.265625" xlink:href="#Constantia-115"/>
    </g>
   </g>
   <g id="text_3">
    <!-- World Closed Cases Ratio -->
    <g transform="translate(221.122031 25.594531)scale(0.25 -0.25)">
     <defs>
      <path d="M 69.578125 26.515625 
Q 70.40625 23.875 70.90625 21.296875 
Q 71.6875 23.96875 72.515625 26.375 
L 82.671875 55.609375 
Q 83.640625 58.5 84.046875 60.03125 
Q 84.46875 61.578125 84.46875 62.5 
Q 84.46875 63.328125 84 63.765625 
Q 83.546875 64.203125 82.625 64.453125 
L 77.9375 65.765625 
L 77.78125 68.359375 
Q 84.859375 68.171875 89.3125 68.171875 
Q 93.953125 68.171875 99.90625 68.359375 
L 100.140625 65.875 
L 94.921875 64.359375 
Q 93.0625 63.765625 92.109375 62.546875 
Q 91.15625 61.328125 90.234375 58.734375 
L 69.1875 0 
L 63.875 -0.4375 
L 51.515625 38.28125 
Q 50.53125 41.359375 49.515625 44.921875 
Q 48.34375 41.40625 47.265625 38.328125 
L 33.796875 0 
L 28.515625 -0.4375 
L 9.46875 58.15625 
Q 8.34375 61.53125 7.296875 62.71875 
Q 6.25 63.921875 4.390625 64.5 
L -0.34375 65.875 
L -0.484375 68.359375 
Q 6.109375 68.171875 12.796875 68.171875 
Q 21.578125 68.171875 29.984375 68.359375 
L 30.28125 65.875 
L 25.4375 64.5 
Q 24.46875 64.203125 24.015625 63.765625 
Q 23.578125 63.328125 23.578125 62.453125 
Q 23.578125 61.46875 23.9375 59.90625 
Q 24.3125 58.34375 25.140625 55.671875 
L 34.234375 26.515625 
Q 35.015625 23.875 35.546875 21.296875 
Q 36.328125 23.96875 37.109375 26.375 
L 51.5625 68.40625 
L 56.5 68.84375 
z
" id="Constantia-Bold-87"/>
      <path d="M 19.046875 23.1875 
Q 19.046875 14.3125 21.703125 8.765625 
Q 24.359375 3.21875 30.21875 3.21875 
Q 35.6875 3.21875 38.25 8.09375 
Q 40.828125 12.984375 40.828125 22.609375 
Q 40.828125 31.640625 38.109375 36.84375 
Q 35.40625 42.046875 29.640625 42.046875 
Q 24.265625 42.046875 21.65625 37.359375 
Q 19.046875 32.671875 19.046875 23.1875 
z
M 55.953125 23.578125 
Q 55.953125 12.453125 48.53125 5.53125 
Q 41.109375 -1.375 29.203125 -1.375 
Q 17.625 -1.375 10.734375 5.140625 
Q 3.859375 11.671875 3.859375 22.21875 
Q 3.859375 32.90625 11.078125 39.765625 
Q 18.3125 46.625 30.609375 46.625 
Q 42.28125 46.625 49.109375 40.296875 
Q 55.953125 33.984375 55.953125 23.578125 
z
" id="Constantia-Bold-111"/>
      <path d="M 2.296875 43.0625 
Q 13.578125 44.734375 22.90625 46.78125 
L 23.640625 46.390625 
L 23.640625 41.109375 
Q 32.28125 46.625 41.703125 46.625 
L 41.9375 46.296875 
Q 40.375 38.53125 38.96875 29.6875 
L 36.140625 29.203125 
Q 34.859375 34.03125 33.640625 36.609375 
Q 32.421875 39.203125 29.828125 39.203125 
Q 27.34375 39.203125 23.640625 37.546875 
L 23.640625 16.609375 
Q 23.640625 9.03125 23.734375 5.765625 
Q 23.78125 4.390625 24.953125 4.046875 
L 31.9375 2.203125 
L 32.078125 -0.140625 
Q 23.96875 0 16.609375 0 
Q 9.578125 0 2.546875 -0.140625 
L 2.296875 2.203125 
L 8.5 3.90625 
Q 9.671875 4.25 9.71875 5.375 
Q 9.765625 7.46875 9.765625 11.375 
L 9.765625 27.6875 
Q 9.765625 35.640625 9.578125 39.265625 
L 2.59375 41.0625 
z
" id="Constantia-Bold-114"/>
      <path d="M 1.859375 69.828125 
Q 14.0625 71.625 23.140625 73.578125 
L 23.6875 73.1875 
Q 23.390625 66.453125 23.390625 58.84375 
L 23.390625 13.671875 
Q 23.390625 7.859375 23.484375 5.5625 
Q 23.578125 4.25 24.703125 3.90625 
L 30.8125 2.203125 
L 30.953125 -0.140625 
Q 23.734375 0 16.609375 0 
Q 9.328125 0 2.25 -0.140625 
L 2 2.203125 
L 8.203125 3.90625 
Q 9.328125 4.203125 9.421875 5.375 
Q 9.515625 7.28125 9.515625 11.765625 
L 9.515625 54.109375 
Q 9.515625 60.5 9.328125 65.875 
L 2.15625 67.828125 
z
" id="Constantia-Bold-108"/>
      <path d="M 38.421875 40.578125 
Q 35.796875 41.5 32.515625 41.5 
Q 25.828125 41.5 22.3125 36.890625 
Q 18.796875 32.28125 18.796875 23 
Q 18.796875 14.9375 21.921875 10.109375 
Q 25.046875 5.28125 30.71875 5.28125 
Q 34.90625 5.28125 38.421875 7.078125 
z
M 30.71875 69.828125 
Q 42.625 71.625 52 73.578125 
L 52.59375 73.1875 
Q 52.25 62.75 52.25 50.734375 
L 52.25 24.171875 
Q 52.25 17.78125 52.296875 10.984375 
Q 52.296875 8.5 52.484375 6.984375 
Q 52.6875 5.46875 53.34375 4.65625 
Q 54 3.859375 55.359375 3.5625 
Q 56.734375 3.265625 59.375 3.21875 
L 59.671875 1.078125 
Q 52.546875 -1.375 47.515625 -1.375 
Q 40.96875 -1.375 38.921875 3.953125 
Q 32.515625 -1.375 24.75 -1.375 
Q 15.09375 -1.375 9.46875 5 
Q 3.859375 11.375 3.859375 20.953125 
Q 3.859375 33.15625 11.109375 39.8125 
Q 18.359375 46.484375 31.390625 46.484375 
Q 34.625 46.484375 38.421875 45.953125 
Q 38.421875 56.25 38.234375 65.875 
L 31.0625 67.828125 
z
" id="Constantia-Bold-100"/>
      <path id="Constantia-Bold-32"/>
      <path d="M 58.5 49.90625 
L 55.8125 49.46875 
L 52.09375 63.484375 
Q 48.25 64.703125 43.75 64.703125 
Q 32.953125 64.703125 27.046875 56.609375 
Q 21.140625 48.53125 21.140625 35.453125 
Q 21.140625 21.484375 28.09375 13.1875 
Q 35.0625 4.890625 47.40625 4.890625 
Q 54.296875 4.890625 61.921875 7.671875 
L 62.546875 4.890625 
Q 52.78125 -1.765625 40.484375 -1.765625 
Q 24.515625 -1.765625 14.671875 7.859375 
Q 4.828125 17.484375 4.828125 33.203125 
Q 4.828125 49.953125 15.625 59.71875 
Q 26.421875 69.484375 43.796875 69.484375 
Q 52.390625 69.484375 61.375 67.484375 
L 61.671875 67 
z
" id="Constantia-Bold-67"/>
      <path d="M 31.9375 41.109375 
Q 28.859375 41.84375 25.296875 41.84375 
Q 20.84375 41.84375 18.03125 40.28125 
Q 15.234375 38.71875 15.234375 35.84375 
Q 15.234375 33.640625 16.453125 32.4375 
Q 17.671875 31.25 20.65625 30.21875 
L 28.46875 27.484375 
Q 35.453125 25.09375 38.671875 21.703125 
Q 41.890625 18.3125 41.890625 13.765625 
Q 41.890625 6.59375 35.859375 2.609375 
Q 29.828125 -1.375 20.015625 -1.375 
Q 11.8125 -1.375 3.90625 2 
Q 5.5625 8.546875 6.640625 14.703125 
L 9.125 15.09375 
L 12.640625 4.4375 
Q 15.625 3.421875 20.125 3.421875 
Q 24.359375 3.421875 27 5.03125 
Q 29.640625 6.640625 29.640625 9.515625 
Q 29.640625 11.921875 28.046875 13.546875 
Q 26.46875 15.1875 21.734375 16.796875 
L 15.765625 18.84375 
Q 10.0625 20.84375 7.171875 24.046875 
Q 4.296875 27.25 4.296875 31.890625 
Q 4.296875 39.015625 9.90625 42.8125 
Q 15.53125 46.625 25.390625 46.625 
Q 33.5 46.625 40.046875 44.234375 
Q 38.578125 37.84375 37.546875 32.125 
L 34.859375 31.734375 
z
" id="Constantia-Bold-115"/>
      <path d="M 49.90625 3.21875 
Q 40.875 -1.375 30.859375 -1.375 
Q 18.953125 -1.375 11.40625 4.515625 
Q 3.859375 10.40625 3.859375 21.875 
Q 3.859375 32.8125 11.109375 39.71875 
Q 18.359375 46.625 29.59375 46.625 
Q 39.40625 46.625 44.75 41.328125 
Q 50.09375 36.03125 50.09375 26.703125 
Q 50.09375 25.296875 49.953125 23.78125 
L 18.75 23.78125 
Q 18.75 13.96875 23.5625 9.671875 
Q 28.375 5.375 39.359375 5.375 
Q 44.671875 5.375 49.515625 6.296875 
z
M 35.25 28.515625 
L 35.25 29.6875 
Q 35.25 36.328125 33.5625 39.203125 
Q 31.890625 42.09375 28.421875 42.09375 
Q 24.265625 42.09375 21.796875 38.109375 
Q 19.34375 34.125 18.953125 28.515625 
z
" id="Constantia-Bold-101"/>
      <path d="M 31 21.734375 
Q 23.34375 21.734375 20.0625 19.78125 
Q 16.796875 17.828125 16.796875 13.09375 
Q 16.796875 8.796875 19.109375 6.953125 
Q 21.4375 5.125 24.609375 5.125 
Q 28.21875 5.125 30.90625 6.984375 
z
M 7.125 41.890625 
Q 17.53125 46.625 27.15625 46.625 
Q 35.9375 46.625 40.296875 42.6875 
Q 44.671875 38.765625 44.625 31.390625 
L 44.390625 11.078125 
Q 44.28125 8.59375 44.46875 7.078125 
Q 44.671875 5.5625 45.375 4.75 
Q 46.09375 3.953125 47.484375 3.609375 
Q 48.875 3.265625 51.515625 3.21875 
L 51.8125 0.984375 
Q 44.96875 -1.375 40.046875 -1.375 
Q 33.40625 -1.375 31.296875 3.859375 
Q 25.09375 -1.375 18.171875 -1.375 
Q 11.375 -1.375 6.984375 2.015625 
Q 2.59375 5.421875 2.59375 11.578125 
Q 2.59375 19.234375 9.6875 22.796875 
Q 16.796875 26.375 31 26.375 
L 31.0625 30.03125 
Q 31.109375 35.25 28.546875 37.71875 
Q 25.984375 40.1875 20.5625 40.1875 
Q 15.53125 40.1875 8.5 37.984375 
z
" id="Constantia-Bold-97"/>
      <path d="M 26.703125 15.328125 
Q 26.703125 12.40625 26.734375 10.078125 
Q 26.765625 7.765625 26.8125 5.859375 
Q 26.859375 4.296875 27.9375 3.953125 
L 33.015625 2.296875 
L 33.15625 -0.140625 
Q 27.734375 0 19.734375 0 
Q 11.1875 0 4.5 -0.140625 
L 4.25 2.296875 
L 10.796875 4.109375 
Q 12.015625 4.4375 12.109375 5.609375 
Q 12.15625 7.5625 12.171875 9.984375 
Q 12.203125 12.40625 12.203125 15.328125 
L 12.203125 54.25 
Q 12.203125 56.6875 12.171875 58.6875 
Q 12.15625 60.6875 12.109375 62.359375 
Q 12.0625 63.625 10.9375 63.96875 
L 4.390625 65.875 
L 4.25 68.359375 
Q 11.078125 68.171875 18.265625 68.171875 
Q 19.78125 68.171875 22.015625 68.234375 
Q 24.265625 68.3125 27.484375 68.40625 
Q 30.421875 68.5 32.390625 68.546875 
Q 34.375 68.609375 35.5 68.609375 
Q 48.046875 68.609375 54.3125 64.40625 
Q 60.59375 60.203125 60.59375 52.15625 
Q 60.59375 44.875 56.765625 40.40625 
Q 52.9375 35.9375 45.515625 33.546875 
Q 49.609375 27.484375 51.828125 23.71875 
Q 54.046875 19.96875 56.296875 16.328125 
Q 58.546875 12.703125 60.375 9.90625 
Q 62.203125 7.125 63.8125 5.515625 
Q 64.703125 4.78125 65.5 4.25 
Q 66.3125 3.71875 67.1875 3.328125 
Q 68.0625 2.9375 69.0625 2.65625 
Q 70.0625 2.390625 71.296875 2.15625 
L 71.484375 -0.34375 
Q 66.703125 -1.03125 60.546875 -1.03125 
Q 55.671875 -1.03125 53.71875 -0.390625 
Q 51.765625 0.25 50.25 1.421875 
Q 48 3.171875 46.109375 6 
Q 44.234375 8.84375 42.140625 12.40625 
Q 40.046875 15.96875 37.8125 19.96875 
Q 35.59375 23.96875 33.15625 27.875 
Q 32.421875 29 31.953125 29.734375 
Q 31.5 30.46875 31.03125 30.828125 
Q 30.5625 31.203125 30.046875 31.375 
Q 29.546875 31.546875 28.765625 31.59375 
L 26.703125 31.640625 
z
M 26.703125 35.890625 
Q 29.296875 35.75 31.390625 35.75 
Q 38.328125 35.75 41.546875 39.234375 
Q 44.78125 42.71875 44.78125 50.140625 
Q 44.78125 57.328125 41.671875 60.625 
Q 38.578125 63.921875 32.03125 63.921875 
Q 30.90625 63.921875 29.609375 63.8125 
Q 28.328125 63.71875 26.703125 63.53125 
z
" id="Constantia-Bold-82"/>
      <path d="M 22.125 39.546875 
Q 21.828125 24.3125 21.828125 13.71875 
Q 21.828125 8.796875 23.34375 6.90625 
Q 24.859375 5.03125 29.15625 5.03125 
Q 32.46875 5.03125 36.375 5.421875 
L 36.765625 2.484375 
Q 29 -1.3125 22.265625 -1.3125 
Q 15.4375 -1.3125 11.6875 1.53125 
Q 7.953125 4.390625 7.953125 10.15625 
Q 7.953125 20.3125 8.25 39.796875 
L 1.65625 41.5 
L 1.21875 44.140625 
L 9.375 44.875 
L 14.015625 56.34375 
Q 18.171875 57.078125 21.578125 57.765625 
L 22.265625 57.421875 
Q 22.125 51.515625 22.125 44.875 
L 35.796875 44.875 
L 35.796875 39.546875 
z
" id="Constantia-Bold-116"/>
      <path d="M 23.78125 62.984375 
Q 23.78125 59.625 21.609375 57.515625 
Q 19.4375 55.421875 15.921875 55.421875 
Q 12.703125 55.421875 10.625 57.390625 
Q 8.546875 59.375 8.546875 62.546875 
Q 8.546875 66.015625 10.734375 68.015625 
Q 12.9375 70.015625 16.453125 70.015625 
Q 19.671875 70.015625 21.71875 68.1875 
Q 23.78125 66.359375 23.78125 62.984375 
z
M 2.296875 43.0625 
Q 14.3125 44.875 23.390625 46.828125 
L 23.921875 46.4375 
Q 23.640625 39.703125 23.640625 32.078125 
L 23.640625 13.671875 
Q 23.640625 7.859375 23.734375 5.5625 
Q 23.828125 4.25 24.953125 3.90625 
L 31.0625 2.203125 
L 31.203125 -0.140625 
Q 23.96875 0 16.84375 0 
Q 9.578125 0 2.484375 -0.140625 
L 2.25 2.203125 
L 8.453125 3.90625 
Q 9.578125 4.203125 9.671875 5.375 
Q 9.765625 7.28125 9.765625 11.765625 
L 9.765625 27.484375 
Q 9.765625 33.890625 9.578125 39.265625 
L 2.59375 41.0625 
z
" id="Constantia-Bold-105"/>
     </defs>
     <use xlink:href="#Constantia-Bold-87"/>
     <use x="90.970703" xlink:href="#Constantia-Bold-111"/>
     <use x="150.833984" xlink:href="#Constantia-Bold-114"/>
     <use x="194.242188" xlink:href="#Constantia-Bold-108"/>
     <use x="227.152344" xlink:href="#Constantia-Bold-100"/>
     <use x="289.164062" xlink:href="#Constantia-Bold-32"/>
     <use x="313.089844" xlink:href="#Constantia-Bold-67"/>
     <use x="379.056641" xlink:href="#Constantia-Bold-108"/>
     <use x="411.966797" xlink:href="#Constantia-Bold-111"/>
     <use x="471.830078" xlink:href="#Constantia-Bold-115"/>
     <use x="517.484375" xlink:href="#Constantia-Bold-101"/>
     <use x="571.244141" xlink:href="#Constantia-Bold-100"/>
     <use x="633.255859" xlink:href="#Constantia-Bold-32"/>
     <use x="657.181641" xlink:href="#Constantia-Bold-67"/>
     <use x="723.148438" xlink:href="#Constantia-Bold-97"/>
     <use x="776.712891" xlink:href="#Constantia-Bold-115"/>
     <use x="822.367188" xlink:href="#Constantia-Bold-101"/>
     <use x="876.126953" xlink:href="#Constantia-Bold-115"/>
     <use x="921.78125" xlink:href="#Constantia-Bold-32"/>
     <use x="945.707031" xlink:href="#Constantia-Bold-82"/>
     <use x="1016.214844" xlink:href="#Constantia-Bold-97"/>
     <use x="1069.779297" xlink:href="#Constantia-Bold-116"/>
     <use x="1108.744141" xlink:href="#Constantia-Bold-105"/>
     <use x="1141.898438" xlink:href="#Constantia-Bold-111"/>
    </g>
   </g>
   <g id="legend_1">
    <g id="patch_7">
     <path d="M 745.485469 427.199766 
L 890.626094 427.199766 
L 890.626094 362.274766 
L 745.485469 362.274766 
z
" style="fill:#ffffff;stroke:#000000;stroke-linejoin:miter;"/>
    </g>
    <g id="patch_8">
     <path d="M 753.485469 384.990391 
L 793.485469 384.990391 
L 793.485469 370.990391 
L 753.485469 370.990391 
z
" style="fill:#9acd32;stroke:#000000;stroke-linejoin:miter;"/>
    </g>
    <g id="text_4">
     <!-- 96.565% -->
     <g transform="translate(809.485469 384.990391)scale(0.2 -0.2)">
      <defs>
       <path d="M 8.640625 -19 
Q 20.90625 -16.796875 28.984375 -9.671875 
Q 37.0625 -2.546875 40.375 10.109375 
L 40.28125 10.15625 
Q 34.578125 3.65625 25.4375 3.65625 
Q 16.3125 3.65625 10.234375 9.484375 
Q 4.15625 15.328125 4.15625 24.3125 
Q 4.15625 33.6875 10.796875 40.03125 
Q 17.4375 46.390625 27.046875 46.390625 
Q 37.546875 46.390625 44.265625 38.75 
Q 50.984375 31.109375 50.984375 19.1875 
Q 50.984375 2.828125 39.578125 -8.59375 
Q 28.171875 -20.015625 9.328125 -22.46875 
z
M 14.0625 27.25 
Q 14.0625 18.5625 18.015625 13.28125 
Q 21.96875 8.015625 28.125 8.015625 
Q 34.234375 8.015625 37.453125 11.9375 
Q 40.671875 15.875 40.671875 22.90625 
Q 40.671875 31.453125 36.421875 37.15625 
Q 32.171875 42.875 26.21875 42.875 
Q 20.953125 42.875 17.5 38.640625 
Q 14.0625 34.421875 14.0625 27.25 
z
" id="Constantia-57"/>
       <path d="M 47.125 64.546875 
Q 32.03125 61.53125 24.515625 53.9375 
Q 17 46.34375 14.796875 35.25 
L 14.890625 35.203125 
Q 20.796875 41.65625 30.21875 41.65625 
Q 38.96875 41.65625 44.9375 35.796875 
Q 50.921875 29.9375 50.921875 20.90625 
Q 50.921875 11.328125 44.375 5.03125 
Q 37.84375 -1.265625 28.125 -1.265625 
Q 17.390625 -1.265625 10.75 6.5 
Q 4.109375 14.265625 4.109375 26.515625 
Q 4.109375 41.546875 14.453125 53.125 
Q 24.8125 64.703125 46.4375 68.015625 
z
M 41.109375 18.0625 
Q 41.109375 26.609375 37.15625 31.953125 
Q 33.203125 37.3125 27.046875 37.3125 
Q 21.4375 37.3125 17.921875 33.328125 
Q 14.40625 29.34375 14.40625 22.515625 
Q 14.40625 14.15625 18.5 8.203125 
Q 22.609375 2.25 28.953125 2.25 
Q 34.46875 2.25 37.78125 6.8125 
Q 41.109375 11.375 41.109375 18.0625 
z
" id="Constantia-54"/>
       <path d="M 13.09375 10.25 
Q 15.625 10.25 17.25 8.65625 
Q 18.890625 7.078125 18.890625 4.5 
Q 18.890625 1.90625 17.25 0.265625 
Q 15.625 -1.375 13.09375 -1.375 
Q 10.40625 -1.375 8.78125 0.265625 
Q 7.171875 1.90625 7.171875 4.5 
Q 7.171875 7.078125 8.78125 8.65625 
Q 10.40625 10.25 13.09375 10.25 
z
" id="Constantia-46"/>
       <path d="M 6.453125 16.796875 
L 9.28125 45.3125 
Q 15.375 45.125 23.875 45.125 
Q 33.6875 45.125 42.28125 45.3125 
L 42.578125 44.921875 
L 41.359375 36.859375 
L 13.1875 37.546875 
L 11.8125 23.78125 
Q 15.96875 24.46875 19.625 24.46875 
Q 30.8125 24.46875 37.46875 19.046875 
Q 44.140625 13.625 44.140625 4.15625 
Q 44.140625 -7.953125 32.984375 -15.15625 
Q 21.828125 -22.359375 4.890625 -22.46875 
L 4.390625 -18.84375 
Q 17.71875 -18.359375 26.09375 -12.796875 
Q 34.46875 -7.234375 34.46875 2.203125 
Q 34.46875 9.46875 29.5625 13.46875 
Q 24.65625 17.484375 15.765625 17.484375 
Q 11.328125 17.484375 6.734375 16.453125 
z
" id="Constantia-53"/>
       <path d="M 10.421875 51.921875 
Q 10.421875 43.03125 12.5625 38.3125 
Q 14.71875 33.609375 18.96875 33.609375 
Q 22.921875 33.609375 25.015625 37.65625 
Q 27.125 41.71875 27.125 51.34375 
Q 27.125 60.421875 24.921875 64.765625 
Q 22.71875 69.109375 18.578125 69.109375 
Q 14.625 69.109375 12.515625 65.265625 
Q 10.421875 61.4375 10.421875 51.921875 
z
M 34.59375 52.265625 
Q 34.59375 41.859375 30.015625 36.3125 
Q 25.453125 30.78125 18.375 30.78125 
Q 11.4375 30.78125 7.1875 35.953125 
Q 2.953125 41.125 2.953125 50.890625 
Q 2.953125 61 7.390625 66.46875 
Q 11.828125 71.9375 19.15625 71.9375 
Q 26.140625 71.9375 30.359375 66.984375 
Q 34.59375 62.03125 34.59375 52.265625 
z
M 16.78125 0 
L 62.984375 72.125 
L 66.640625 69.828125 
L 20.40625 -2.296875 
z
M 55.796875 19.921875 
Q 55.796875 11.03125 57.9375 6.3125 
Q 60.09375 1.609375 64.34375 1.609375 
Q 68.296875 1.609375 70.390625 5.65625 
Q 72.5 9.71875 72.5 19.34375 
Q 72.5 28.421875 70.296875 32.765625 
Q 68.09375 37.109375 63.953125 37.109375 
Q 60 37.109375 57.890625 33.265625 
Q 55.796875 29.4375 55.796875 19.921875 
z
M 79.96875 20.265625 
Q 79.96875 9.859375 75.390625 4.3125 
Q 70.828125 -1.21875 63.75 -1.21875 
Q 56.8125 -1.21875 52.5625 3.953125 
Q 48.328125 9.125 48.328125 18.890625 
Q 48.328125 29 52.765625 34.46875 
Q 57.203125 39.9375 64.53125 39.9375 
Q 71.515625 39.9375 75.734375 34.984375 
Q 79.96875 30.03125 79.96875 20.265625 
z
" id="Constantia-37"/>
      </defs>
      <use xlink:href="#Constantia-57"/>
      <use x="54.638672" xlink:href="#Constantia-54"/>
      <use x="108.740234" xlink:href="#Constantia-46"/>
      <use x="134.326172" xlink:href="#Constantia-53"/>
      <use x="181.884766" xlink:href="#Constantia-54"/>
      <use x="235.986328" xlink:href="#Constantia-53"/>
      <use x="283.544922" xlink:href="#Constantia-37"/>
     </g>
    </g>
    <g id="patch_9">
     <path d="M 753.485469 414.452891 
L 793.485469 414.452891 
L 793.485469 400.452891 
L 753.485469 400.452891 
z
" style="fill:#f08080;stroke:#000000;stroke-linejoin:miter;"/>
    </g>
    <g id="text_5">
     <!-- 3.435% -->
     <g transform="translate(809.485469 414.452891)scale(0.2 -0.2)">
      <defs>
       <path d="M 10.25 16.21875 
Q 19 17.140625 24.265625 20.75 
Q 29.546875 24.359375 29.546875 30.125 
Q 29.546875 34.71875 26.09375 37.59375 
Q 22.65625 40.484375 17.390625 40.484375 
Q 10.5 40.484375 3.46875 36.8125 
L 1.46875 40.046875 
Q 11.140625 46.390625 21.34375 46.390625 
Q 28.90625 46.390625 34.078125 42.75 
Q 39.265625 39.109375 39.265625 33.203125 
Q 39.265625 22.359375 23.25 17 
L 23.25 16.796875 
Q 32.421875 16.453125 37.5625 12.15625 
Q 42.71875 7.859375 42.71875 1.609375 
Q 42.71875 -8.5 31.96875 -15.140625 
Q 21.234375 -21.78125 1.03125 -22.46875 
L 0.484375 -18.84375 
Q 16.546875 -17.78125 24.53125 -12.625 
Q 32.515625 -7.46875 32.515625 0.25 
Q 32.515625 6.296875 28.359375 9.765625 
Q 24.21875 13.234375 16.84375 13.234375 
Q 13.96875 13.234375 10.59375 12.640625 
z
" id="Constantia-51"/>
       <path d="M 30.953125 35.015625 
Q 25.4375 28.8125 19.890625 21.78125 
Q 14.359375 14.75 8.984375 7.28125 
L 30.953125 7.28125 
z
M 39.984375 -5.71875 
Q 39.984375 -12.546875 40.234375 -19.53125 
Q 35.546875 -20.015625 31.34375 -20.796875 
L 30.859375 -20.40625 
Q 30.953125 -13.578125 30.953125 -6.5 
L 30.953125 2.4375 
L 18.796875 2.4375 
Q 12.109375 2.4375 2.546875 2.296875 
L 2.203125 5.859375 
Q 9.90625 16.0625 18.078125 26.234375 
Q 26.265625 36.421875 34.578125 46.046875 
L 40.28125 46.390625 
Q 39.984375 35.453125 39.984375 25.984375 
L 39.984375 7.28125 
L 51.171875 7.28125 
L 51.375 2.296875 
Q 46 2.4375 39.984375 2.4375 
z
" id="Constantia-52"/>
      </defs>
      <use xlink:href="#Constantia-51"/>
      <use x="45.654297" xlink:href="#Constantia-46"/>
      <use x="71.240234" xlink:href="#Constantia-52"/>
      <use x="124.316406" xlink:href="#Constantia-51"/>
      <use x="169.970703" xlink:href="#Constantia-53"/>
      <use x="217.529297" xlink:href="#Constantia-37"/>
     </g>
    </g>
   </g>
  </g>
 </g>
 <defs>
  <clipPath id="pc26757a744">
   <rect height="728.285469" width="728.285469" x="7.2" y="30.594531"/>
  </clipPath>
 </defs>
</svg>
