<?xml version="1.0" encoding="utf-8" standalone="no"?>
<!DOCTYPE svg PUBLIC "-//W3C//DTD SVG 1.1//EN"
  "http://www.w3.org/Graphics/SVG/1.1/DTD/svg11.dtd">
<!-- Created with matplotlib (https://matplotlib.org/) -->
<svg height="763.488pt" version="1.1" viewBox="0 0 1370.88 763.488" width="1370.88pt" xmlns="http://www.w3.org/2000/svg" xmlns:xlink="http://www.w3.org/1999/xlink">
 <metadata>
  <rdf:RDF xmlns:cc="http://creativecommons.org/ns#" xmlns:dc="http://purl.org/dc/elements/1.1/" xmlns:rdf="http://www.w3.org/1999/02/22-rdf-syntax-ns#">
   <cc:Work>
    <dc:type rdf:resource="http://purl.org/dc/dcmitype/StillImage"/>
    <dc:date>2020-11-04T22:09:32.223454</dc:date>
    <dc:format>image/svg+xml</dc:format>
    <dc:creator>
     <cc:Agent>
      <dc:title>Matplotlib v3.3.2, https://matplotlib.org/</dc:title>
     </cc:Agent>
    </dc:creator>
   </cc:Work>
  </rdf:RDF>
 </metadata>
 <defs>
  <style type="text/css">*{stroke-linecap:butt;stroke-linejoin:round;}</style>
 </defs>
 <g id="figure_1">
  <g id="patch_1">
   <path d="M 0 763.488 
L 1370.88 763.488 
L 1370.88 0 
L 0 0 
z
" style="fill:#ffffff;"/>
  </g>
  <g id="axes_1">
   <g id="patch_2">
    <path d="M 78.8 643.203 
L 1349.30375 643.203 
L 1349.30375 69.21425 
L 78.8 69.21425 
z
" style="fill:#ffffff;"/>
   </g>
   <g id="patch_3">
    <path clip-path="url(#p9bf5281e62)" d="M 0 0 
z
" style="fill:#ffa500;stroke:#000000;stroke-linejoin:miter;"/>
   </g>
   <g id="patch_4">
    <path clip-path="url(#p9bf5281e62)" d="M 78.8 643.203 
L 90.376344 643.203 
L 90.376344 107.097508 
L 78.8 107.097508 
z
" style="fill:#ffa500;stroke:#000000;stroke-linejoin:miter;"/>
   </g>
   <g id="patch_5">
    <path clip-path="url(#p9bf5281e62)" d="M 136.68172 643.203 
L 148.258064 643.203 
L 148.258064 382.120117 
L 136.68172 382.120117 
z
" style="fill:#ffa500;stroke:#000000;stroke-linejoin:miter;"/>
   </g>
   <g id="patch_6">
    <path clip-path="url(#p9bf5281e62)" d="M 194.56344 643.203 
L 206.139784 643.203 
L 206.139784 245.75679 
L 194.56344 245.75679 
z
" style="fill:#ffa500;stroke:#000000;stroke-linejoin:miter;"/>
   </g>
   <g id="patch_7">
    <path clip-path="url(#p9bf5281e62)" d="M 209.03387 643.203 
L 220.610214 643.203 
L 220.610214 589.904045 
L 209.03387 589.904045 
z
" style="fill:#ffa500;stroke:#000000;stroke-linejoin:miter;"/>
   </g>
   <g id="patch_8">
    <path clip-path="url(#p9bf5281e62)" d="M 223.5043 643.203 
L 235.080644 643.203 
L 235.080644 566.698499 
L 223.5043 566.698499 
z
" style="fill:#ffa500;stroke:#000000;stroke-linejoin:miter;"/>
   </g>
   <g id="patch_9">
    <path clip-path="url(#p9bf5281e62)" d="M 237.974729 643.203 
L 249.551073 643.203 
L 249.551073 569.322448 
L 237.974729 569.322448 
z
" style="fill:#ffa500;stroke:#000000;stroke-linejoin:miter;"/>
   </g>
   <g id="patch_10">
    <path clip-path="url(#p9bf5281e62)" d="M 252.445159 643.203 
L 264.021503 643.203 
L 264.021503 535.375113 
L 252.445159 535.375113 
z
" style="fill:#ffa500;stroke:#000000;stroke-linejoin:miter;"/>
   </g>
   <g id="patch_11">
    <path clip-path="url(#p9bf5281e62)" d="M 295.856449 643.203 
L 307.432793 643.203 
L 307.432793 316.931395 
L 295.856449 316.931395 
z
" style="fill:#ffa500;stroke:#000000;stroke-linejoin:miter;"/>
   </g>
   <g id="patch_12">
    <path clip-path="url(#p9bf5281e62)" d="M 310.326879 643.203 
L 321.903223 643.203 
L 321.903223 624.179373 
L 310.326879 624.179373 
z
" style="fill:#ffa500;stroke:#000000;stroke-linejoin:miter;"/>
   </g>
   <g id="patch_13">
    <path clip-path="url(#p9bf5281e62)" d="M 324.797309 643.203 
L 336.373653 643.203 
L 336.373653 544.476935 
L 324.797309 544.476935 
z
" style="fill:#ffa500;stroke:#000000;stroke-linejoin:miter;"/>
   </g>
   <g id="patch_14">
    <path clip-path="url(#p9bf5281e62)" d="M 339.267739 643.203 
L 350.844083 643.203 
L 350.844083 530.619207 
L 339.267739 530.619207 
z
" style="fill:#ffa500;stroke:#000000;stroke-linejoin:miter;"/>
   </g>
   <g id="patch_15">
    <path clip-path="url(#p9bf5281e62)" d="M 353.738169 643.203 
L 365.314513 643.203 
L 365.314513 547.510876 
L 353.738169 547.510876 
z
" style="fill:#ffa500;stroke:#000000;stroke-linejoin:miter;"/>
   </g>
   <g id="patch_16">
    <path clip-path="url(#p9bf5281e62)" d="M 368.208599 643.203 
L 379.784943 643.203 
L 379.784943 551.036806 
L 368.208599 551.036806 
z
" style="fill:#ffa500;stroke:#000000;stroke-linejoin:miter;"/>
   </g>
   <g id="patch_17">
    <path clip-path="url(#p9bf5281e62)" d="M 382.679029 643.203 
L 394.255373 643.203 
L 394.255373 603.92577 
L 382.679029 603.92577 
z
" style="fill:#ffa500;stroke:#000000;stroke-linejoin:miter;"/>
   </g>
   <g id="patch_18">
    <path clip-path="url(#p9bf5281e62)" d="M 397.149459 643.203 
L 408.725803 643.203 
L 408.725803 551.200803 
L 397.149459 551.200803 
z
" style="fill:#ffa500;stroke:#000000;stroke-linejoin:miter;"/>
   </g>
   <g id="patch_19">
    <path clip-path="url(#p9bf5281e62)" d="M 411.619889 643.203 
L 423.196233 643.203 
L 423.196233 620.24345 
L 411.619889 620.24345 
z
" style="fill:#ffa500;stroke:#000000;stroke-linejoin:miter;"/>
   </g>
   <g id="patch_20">
    <path clip-path="url(#p9bf5281e62)" d="M 426.090319 643.203 
L 437.666663 643.203 
L 437.666663 551.3648 
L 426.090319 551.3648 
z
" style="fill:#ffa500;stroke:#000000;stroke-linejoin:miter;"/>
   </g>
   <g id="patch_21">
    <path clip-path="url(#p9bf5281e62)" d="M 440.560749 643.203 
L 452.137093 643.203 
L 452.137093 553.988749 
L 440.560749 553.988749 
z
" style="fill:#ffa500;stroke:#000000;stroke-linejoin:miter;"/>
   </g>
   <g id="patch_22">
    <path clip-path="url(#p9bf5281e62)" d="M 455.031179 643.203 
L 466.607523 643.203 
L 466.607523 559.400643 
L 455.031179 559.400643 
z
" style="fill:#ffa500;stroke:#000000;stroke-linejoin:miter;"/>
   </g>
   <g id="patch_23">
    <path clip-path="url(#p9bf5281e62)" d="M 469.501609 643.203 
L 481.077953 643.203 
L 481.077953 605.401741 
L 469.501609 605.401741 
z
" style="fill:#ffa500;stroke:#000000;stroke-linejoin:miter;"/>
   </g>
   <g id="patch_24">
    <path clip-path="url(#p9bf5281e62)" d="M 483.972039 643.203 
L 495.548383 643.203 
L 495.548383 521.353388 
L 483.972039 521.353388 
z
" style="fill:#ffa500;stroke:#000000;stroke-linejoin:miter;"/>
   </g>
   <g id="patch_25">
    <path clip-path="url(#p9bf5281e62)" d="M 498.442469 643.203 
L 510.018813 643.203 
L 510.018813 615.077551 
L 498.442469 615.077551 
z
" style="fill:#ffa500;stroke:#000000;stroke-linejoin:miter;"/>
   </g>
   <g id="patch_26">
    <path clip-path="url(#p9bf5281e62)" d="M 512.912899 643.203 
L 524.489243 643.203 
L 524.489243 598.103884 
L 512.912899 598.103884 
z
" style="fill:#ffa500;stroke:#000000;stroke-linejoin:miter;"/>
   </g>
   <g id="patch_27">
    <path clip-path="url(#p9bf5281e62)" d="M 527.383329 643.203 
L 538.959673 643.203 
L 538.959673 615.65154 
L 527.383329 615.65154 
z
" style="fill:#ffa500;stroke:#000000;stroke-linejoin:miter;"/>
   </g>
   <g id="patch_28">
    <path clip-path="url(#p9bf5281e62)" d="M 541.853759 643.203 
L 553.430103 643.203 
L 553.430103 573.012376 
L 541.853759 573.012376 
z
" style="fill:#ffa500;stroke:#000000;stroke-linejoin:miter;"/>
   </g>
   <g id="patch_29">
    <path clip-path="url(#p9bf5281e62)" d="M 556.324188 643.203 
L 567.900532 643.203 
L 567.900532 548.412858 
L 556.324188 548.412858 
z
" style="fill:#ffa500;stroke:#000000;stroke-linejoin:miter;"/>
   </g>
   <g id="patch_30">
    <path clip-path="url(#p9bf5281e62)" d="M 570.794618 643.203 
L 582.370962 643.203 
L 582.370962 558.662657 
L 570.794618 558.662657 
z
" style="fill:#ffa500;stroke:#000000;stroke-linejoin:miter;"/>
   </g>
   <g id="patch_31">
    <path clip-path="url(#p9bf5281e62)" d="M 585.265048 643.203 
L 596.841392 643.203 
L 596.841392 565.63252 
L 585.265048 565.63252 
z
" style="fill:#ffa500;stroke:#000000;stroke-linejoin:miter;"/>
   </g>
   <g id="patch_32">
    <path clip-path="url(#p9bf5281e62)" d="M 599.735478 643.203 
L 611.311822 643.203 
L 611.311822 599.579855 
L 599.735478 599.579855 
z
" style="fill:#ffa500;stroke:#000000;stroke-linejoin:miter;"/>
   </g>
   <g id="patch_33">
    <path clip-path="url(#p9bf5281e62)" d="M 614.205908 643.203 
L 625.782252 643.203 
L 625.782252 607.861693 
L 614.205908 607.861693 
z
" style="fill:#ffa500;stroke:#000000;stroke-linejoin:miter;"/>
   </g>
   <g id="patch_34">
    <path clip-path="url(#p9bf5281e62)" d="M 628.676338 643.203 
L 640.252682 643.203 
L 640.252682 581.786204 
L 628.676338 581.786204 
z
" style="fill:#ffa500;stroke:#000000;stroke-linejoin:miter;"/>
   </g>
   <g id="patch_35">
    <path clip-path="url(#p9bf5281e62)" d="M 643.146768 643.203 
L 654.723112 643.203 
L 654.723112 536.933083 
L 643.146768 536.933083 
z
" style="fill:#ffa500;stroke:#000000;stroke-linejoin:miter;"/>
   </g>
   <g id="patch_36">
    <path clip-path="url(#p9bf5281e62)" d="M 672.087628 643.203 
L 683.663972 643.203 
L 683.663972 493.063943 
L 672.087628 493.063943 
z
" style="fill:#ffa500;stroke:#000000;stroke-linejoin:miter;"/>
   </g>
   <g id="patch_37">
    <path clip-path="url(#p9bf5281e62)" d="M 686.558058 643.203 
L 698.134402 643.203 
L 698.134402 570.962416 
L 686.558058 570.962416 
z
" style="fill:#ffa500;stroke:#000000;stroke-linejoin:miter;"/>
   </g>
   <g id="patch_38">
    <path clip-path="url(#p9bf5281e62)" d="M 701.028488 643.203 
L 712.604832 643.203 
L 712.604832 599.743852 
L 701.028488 599.743852 
z
" style="fill:#ffa500;stroke:#000000;stroke-linejoin:miter;"/>
   </g>
   <g id="patch_39">
    <path clip-path="url(#p9bf5281e62)" d="M 715.498918 643.203 
L 727.075262 643.203 
L 727.075262 624.671363 
L 715.498918 624.671363 
z
" style="fill:#ffa500;stroke:#000000;stroke-linejoin:miter;"/>
   </g>
   <g id="patch_40">
    <path clip-path="url(#p9bf5281e62)" d="M 729.969348 643.203 
L 741.545692 643.203 
L 741.545692 587.854085 
L 729.969348 587.854085 
z
" style="fill:#ffa500;stroke:#000000;stroke-linejoin:miter;"/>
   </g>
   <g id="patch_41">
    <path clip-path="url(#p9bf5281e62)" d="M 744.439778 643.203 
L 756.016122 643.203 
L 756.016122 561.122609 
L 744.439778 561.122609 
z
" style="fill:#ffa500;stroke:#000000;stroke-linejoin:miter;"/>
   </g>
   <g id="patch_42">
    <path clip-path="url(#p9bf5281e62)" d="M 758.910208 643.203 
L 770.486552 643.203 
L 770.486552 552.512777 
L 758.910208 552.512777 
z
" style="fill:#ffa500;stroke:#000000;stroke-linejoin:miter;"/>
   </g>
   <g id="patch_43">
    <path clip-path="url(#p9bf5281e62)" d="M 773.380638 643.203 
L 784.956982 643.203 
L 784.956982 571.618403 
L 773.380638 571.618403 
z
" style="fill:#ffa500;stroke:#000000;stroke-linejoin:miter;"/>
   </g>
   <g id="patch_44">
    <path clip-path="url(#p9bf5281e62)" d="M 787.851068 643.203 
L 799.427412 643.203 
L 799.427412 572.110393 
L 787.851068 572.110393 
z
" style="fill:#ffa500;stroke:#000000;stroke-linejoin:miter;"/>
   </g>
   <g id="patch_45">
    <path clip-path="url(#p9bf5281e62)" d="M 802.321498 643.203 
L 813.897842 643.203 
L 813.897842 593.921966 
L 802.321498 593.921966 
z
" style="fill:#ffa500;stroke:#000000;stroke-linejoin:miter;"/>
   </g>
   <g id="patch_46">
    <path clip-path="url(#p9bf5281e62)" d="M 816.791928 643.203 
L 828.368272 643.203 
L 828.368272 626.311331 
L 816.791928 626.311331 
z
" style="fill:#ffa500;stroke:#000000;stroke-linejoin:miter;"/>
   </g>
   <g id="patch_47">
    <path clip-path="url(#p9bf5281e62)" d="M 831.262358 643.203 
L 842.838702 643.203 
L 842.838702 589.986043 
L 831.262358 589.986043 
z
" style="fill:#ffa500;stroke:#000000;stroke-linejoin:miter;"/>
   </g>
   <g id="patch_48">
    <path clip-path="url(#p9bf5281e62)" d="M 845.732788 643.203 
L 857.309132 643.203 
L 857.309132 551.692794 
L 845.732788 551.692794 
z
" style="fill:#ffa500;stroke:#000000;stroke-linejoin:miter;"/>
   </g>
   <g id="patch_49">
    <path clip-path="url(#p9bf5281e62)" d="M 860.203218 643.203 
L 871.779562 643.203 
L 871.779562 573.340369 
L 860.203218 573.340369 
z
" style="fill:#ffa500;stroke:#000000;stroke-linejoin:miter;"/>
   </g>
   <g id="patch_50">
    <path clip-path="url(#p9bf5281e62)" d="M 874.673647 643.203 
L 886.249991 643.203 
L 886.249991 556.612697 
L 874.673647 556.612697 
z
" style="fill:#ffa500;stroke:#000000;stroke-linejoin:miter;"/>
   </g>
   <g id="patch_51">
    <path clip-path="url(#p9bf5281e62)" d="M 889.144077 643.203 
L 900.720421 643.203 
L 900.720421 586.132119 
L 889.144077 586.132119 
z
" style="fill:#ffa500;stroke:#000000;stroke-linejoin:miter;"/>
   </g>
   <g id="patch_52">
    <path clip-path="url(#p9bf5281e62)" d="M 903.614507 643.203 
L 915.190851 643.203 
L 915.190851 603.187784 
L 903.614507 603.187784 
z
" style="fill:#ffa500;stroke:#000000;stroke-linejoin:miter;"/>
   </g>
   <g id="patch_53">
    <path clip-path="url(#p9bf5281e62)" d="M 918.084937 643.203 
L 929.661281 643.203 
L 929.661281 608.845673 
L 918.084937 608.845673 
z
" style="fill:#ffa500;stroke:#000000;stroke-linejoin:miter;"/>
   </g>
   <g id="patch_54">
    <path clip-path="url(#p9bf5281e62)" d="M 932.555367 643.203 
L 944.131711 643.203 
L 944.131711 588.838066 
L 932.555367 588.838066 
z
" style="fill:#ffa500;stroke:#000000;stroke-linejoin:miter;"/>
   </g>
   <g id="patch_55">
    <path clip-path="url(#p9bf5281e62)" d="M 947.025797 643.203 
L 958.602141 643.203 
L 958.602141 568.994454 
L 947.025797 568.994454 
z
" style="fill:#ffa500;stroke:#000000;stroke-linejoin:miter;"/>
   </g>
   <g id="patch_56">
    <path clip-path="url(#p9bf5281e62)" d="M 961.496227 643.203 
L 973.072571 643.203 
L 973.072571 549.560835 
L 961.496227 549.560835 
z
" style="fill:#ffa500;stroke:#000000;stroke-linejoin:miter;"/>
   </g>
   <g id="patch_57">
    <path clip-path="url(#p9bf5281e62)" d="M 975.966657 643.203 
L 987.543001 643.203 
L 987.543001 582.934181 
L 975.966657 582.934181 
z
" style="fill:#ffa500;stroke:#000000;stroke-linejoin:miter;"/>
   </g>
   <g id="patch_58">
    <path clip-path="url(#p9bf5281e62)" d="M 990.437087 643.203 
L 1002.013431 643.203 
L 1002.013431 581.704205 
L 990.437087 581.704205 
z
" style="fill:#ffa500;stroke:#000000;stroke-linejoin:miter;"/>
   </g>
   <g id="patch_59">
    <path clip-path="url(#p9bf5281e62)" d="M 1019.377947 643.203 
L 1030.954291 643.203 
L 1030.954291 567.108491 
L 1019.377947 567.108491 
z
" style="fill:#ffa500;stroke:#000000;stroke-linejoin:miter;"/>
   </g>
   <g id="patch_60">
    <path clip-path="url(#p9bf5281e62)" d="M 1033.848377 643.203 
L 1045.424721 643.203 
L 1045.424721 595.807929 
L 1033.848377 595.807929 
z
" style="fill:#ffa500;stroke:#000000;stroke-linejoin:miter;"/>
   </g>
   <g id="patch_61">
    <path clip-path="url(#p9bf5281e62)" d="M 1048.318807 643.203 
L 1059.895151 643.203 
L 1059.895151 565.14053 
L 1048.318807 565.14053 
z
" style="fill:#ffa500;stroke:#000000;stroke-linejoin:miter;"/>
   </g>
   <g id="patch_62">
    <path clip-path="url(#p9bf5281e62)" d="M 1062.789237 643.203 
L 1074.365581 643.203 
L 1074.365581 612.371604 
L 1062.789237 612.371604 
z
" style="fill:#ffa500;stroke:#000000;stroke-linejoin:miter;"/>
   </g>
   <g id="patch_63">
    <path clip-path="url(#p9bf5281e62)" d="M 1077.259667 643.203 
L 1088.836011 643.203 
L 1088.836011 529.799223 
L 1077.259667 529.799223 
z
" style="fill:#ffa500;stroke:#000000;stroke-linejoin:miter;"/>
   </g>
   <g id="patch_64">
    <path clip-path="url(#p9bf5281e62)" d="M 1091.730097 643.203 
L 1103.306441 643.203 
L 1103.306441 571.864398 
L 1091.730097 571.864398 
z
" style="fill:#ffa500;stroke:#000000;stroke-linejoin:miter;"/>
   </g>
   <g id="patch_65">
    <path clip-path="url(#p9bf5281e62)" d="M 1106.200527 643.203 
L 1117.776871 643.203 
L 1117.776871 610.485641 
L 1106.200527 610.485641 
z
" style="fill:#ffa500;stroke:#000000;stroke-linejoin:miter;"/>
   </g>
   <g id="patch_66">
    <path clip-path="url(#p9bf5281e62)" d="M 1120.670957 643.203 
L 1132.247301 643.203 
L 1132.247301 606.877712 
L 1120.670957 606.877712 
z
" style="fill:#ffa500;stroke:#000000;stroke-linejoin:miter;"/>
   </g>
   <g id="patch_67">
    <path clip-path="url(#p9bf5281e62)" d="M 1135.141387 643.203 
L 1146.717731 643.203 
L 1146.717731 583.262175 
L 1135.141387 583.262175 
z
" style="fill:#ffa500;stroke:#000000;stroke-linejoin:miter;"/>
   </g>
   <g id="patch_68">
    <path clip-path="url(#p9bf5281e62)" d="M 1149.611817 643.203 
L 1161.188161 643.203 
L 1161.188161 562.352585 
L 1149.611817 562.352585 
z
" style="fill:#ffa500;stroke:#000000;stroke-linejoin:miter;"/>
   </g>
   <g id="patch_69">
    <path clip-path="url(#p9bf5281e62)" d="M 1164.082247 643.203 
L 1175.658591 643.203 
L 1175.658591 543.164961 
L 1164.082247 543.164961 
z
" style="fill:#ffa500;stroke:#000000;stroke-linejoin:miter;"/>
   </g>
   <g id="patch_70">
    <path clip-path="url(#p9bf5281e62)" d="M 1178.552677 643.203 
L 1190.129021 643.203 
L 1190.129021 565.550522 
L 1178.552677 565.550522 
z
" style="fill:#ffa500;stroke:#000000;stroke-linejoin:miter;"/>
   </g>
   <g id="patch_71">
    <path clip-path="url(#p9bf5281e62)" d="M 1193.023106 643.203 
L 1204.59945 643.203 
L 1204.59945 550.216823 
L 1193.023106 550.216823 
z
" style="fill:#ffa500;stroke:#000000;stroke-linejoin:miter;"/>
   </g>
   <g id="patch_72">
    <path clip-path="url(#p9bf5281e62)" d="M 1207.493536 643.203 
L 1219.06988 643.203 
L 1219.06988 603.105786 
L 1207.493536 603.105786 
z
" style="fill:#ffa500;stroke:#000000;stroke-linejoin:miter;"/>
   </g>
   <g id="patch_73">
    <path clip-path="url(#p9bf5281e62)" d="M 1221.963966 643.203 
L 1233.54031 643.203 
L 1233.54031 610.813635 
L 1221.963966 610.813635 
z
" style="fill:#ffa500;stroke:#000000;stroke-linejoin:miter;"/>
   </g>
   <g id="patch_74">
    <path clip-path="url(#p9bf5281e62)" d="M 1236.434396 643.203 
L 1248.01074 643.203 
L 1248.01074 557.678676 
L 1236.434396 557.678676 
z
" style="fill:#ffa500;stroke:#000000;stroke-linejoin:miter;"/>
   </g>
   <g id="patch_75">
    <path clip-path="url(#p9bf5281e62)" d="M 1250.904826 643.203 
L 1262.48117 643.203 
L 1262.48117 567.600482 
L 1250.904826 567.600482 
z
" style="fill:#ffa500;stroke:#000000;stroke-linejoin:miter;"/>
   </g>
   <g id="patch_76">
    <path clip-path="url(#p9bf5281e62)" d="M 1265.375256 643.203 
L 1276.9516 643.203 
L 1276.9516 556.4487 
L 1265.375256 556.4487 
z
" style="fill:#ffa500;stroke:#000000;stroke-linejoin:miter;"/>
   </g>
   <g id="patch_77">
    <path clip-path="url(#p9bf5281e62)" d="M 1279.845686 643.203 
L 1291.42203 643.203 
L 1291.42203 565.222528 
L 1279.845686 565.222528 
z
" style="fill:#ffa500;stroke:#000000;stroke-linejoin:miter;"/>
   </g>
   <g id="patch_78">
    <path clip-path="url(#p9bf5281e62)" d="M 1294.316116 643.203 
L 1305.89246 643.203 
L 1305.89246 556.776694 
L 1294.316116 556.776694 
z
" style="fill:#ffa500;stroke:#000000;stroke-linejoin:miter;"/>
   </g>
   <g id="patch_79">
    <path clip-path="url(#p9bf5281e62)" d="M 1308.786546 643.203 
L 1320.36289 643.203 
L 1320.36289 605.97573 
L 1308.786546 605.97573 
z
" style="fill:#ffa500;stroke:#000000;stroke-linejoin:miter;"/>
   </g>
   <g id="patch_80">
    <path clip-path="url(#p9bf5281e62)" d="M 1323.256976 643.203 
L 1334.83332 643.203 
L 1334.83332 605.237744 
L 1323.256976 605.237744 
z
" style="fill:#ffa500;stroke:#000000;stroke-linejoin:miter;"/>
   </g>
   <g id="patch_81">
    <path clip-path="url(#p9bf5281e62)" d="M 1337.727406 643.203 
L 1349.30375 643.203 
L 1349.30375 569.896437 
L 1337.727406 569.896437 
z
" style="fill:#ffa500;stroke:#000000;stroke-linejoin:miter;"/>
   </g>
   <g id="patch_82">
    <path d="M 78.8 643.203 
L 78.8 69.21425 
" style="fill:none;stroke:#000000;stroke-linecap:square;stroke-linejoin:miter;"/>
   </g>
   <g id="patch_83">
    <path d="M 1349.30375 643.203 
L 1349.30375 69.21425 
" style="fill:none;stroke:#000000;stroke-linecap:square;stroke-linejoin:miter;"/>
   </g>
   <g id="patch_84">
    <path d="M 78.8 643.203 
L 1349.30375 643.203 
" style="fill:none;stroke:#000000;stroke-linecap:square;stroke-linejoin:miter;"/>
   </g>
   <g id="patch_85">
    <path d="M 78.8 69.21425 
L 1349.30375 69.21425 
" style="fill:none;stroke:#000000;stroke-linecap:square;stroke-linejoin:miter;"/>
   </g>
   <g id="matplotlib.axis_1">
    <g id="xtick_1">
     <g id="line2d_1">
      <defs>
       <path d="M 0 0 
L 0 -4 
" id="m6b5e314be2" style="stroke:#000000;stroke-width:0.5;"/>
      </defs>
      <g>
       <use style="stroke:#000000;stroke-width:0.5;" x="431.878491" xlink:href="#m6b5e314be2" y="643.203"/>
      </g>
     </g>
     <g id="line2d_2">
      <defs>
       <path d="M 0 0 
L 0 4 
" id="m76b398c25f" style="stroke:#000000;stroke-width:0.5;"/>
      </defs>
      <g>
       <use style="stroke:#000000;stroke-width:0.5;" x="431.878491" xlink:href="#m76b398c25f" y="69.21425"/>
      </g>
     </g>
     <g id="text_1">
      <!--  -->
      <g transform="translate(431.878491 661.918625)scale(0.2 -0.2)"/>
      <!--  -->
      <g transform="translate(431.878491 684.32425)scale(0.2 -0.2)"/>
      <!--  -->
      <g transform="translate(431.878491 706.729875)scale(0.2 -0.2)"/>
      <!-- Sep -->
      <g transform="translate(416.394116 729.1355)scale(0.2 -0.2)">
       <defs>
        <path d="M 37.109375 63.921875 
Q 31.984375 65.625 27.6875 65.625 
Q 21.234375 65.625 17.40625 62.5 
Q 13.578125 59.375 13.578125 53.8125 
Q 13.578125 50.640625 14.921875 48.234375 
Q 16.265625 45.84375 18.53125 44.03125 
Q 20.796875 42.234375 23.671875 40.8125 
Q 26.5625 39.40625 29.640625 38.03125 
Q 33.015625 36.578125 36.1875 34.9375 
Q 39.359375 33.296875 41.921875 31.09375 
Q 44.484375 28.90625 46.015625 25.828125 
Q 47.5625 22.75 47.5625 18.65625 
Q 47.5625 8.9375 40.75 3.8125 
Q 33.9375 -1.3125 21.875 -1.3125 
Q 14.109375 -1.3125 4.6875 1.3125 
L 4.390625 1.703125 
L 6.78125 18.3125 
L 8.984375 18.65625 
L 12.40625 4.78125 
Q 17.578125 2.734375 23 2.734375 
Q 30.28125 2.734375 34.34375 5.953125 
Q 38.421875 9.1875 38.421875 15.140625 
Q 38.421875 18.265625 37.109375 20.625 
Q 35.796875 23 33.5625 24.703125 
Q 31.34375 26.421875 28.515625 27.8125 
Q 25.6875 29.203125 22.65625 30.5625 
Q 19.234375 32.03125 16.015625 33.734375 
Q 12.796875 35.453125 10.171875 37.71875 
Q 7.5625 39.984375 6 43.28125 
Q 4.4375 46.578125 4.4375 50.984375 
Q 4.4375 59.8125 11.046875 64.640625 
Q 17.671875 69.484375 28.609375 69.484375 
Q 36.328125 69.484375 44.78125 67.671875 
L 45.125 67.328125 
L 42.234375 52.09375 
L 40.28125 51.765625 
z
" id="Constantia-83"/>
        <path d="M 44.046875 3.46875 
Q 39.890625 0.875 35.5 -0.25 
Q 31.109375 -1.375 27.34375 -1.375 
Q 16.609375 -1.375 10.203125 4.75 
Q 3.8125 10.890625 3.8125 21.78125 
Q 3.8125 32.625 9.9375 39.5 
Q 16.0625 46.390625 26.3125 46.390625 
Q 34.90625 46.390625 39.6875 41.234375 
Q 44.484375 36.078125 44.484375 27 
Q 44.484375 25.640625 44.34375 24.21875 
L 13.375 24.21875 
Q 13.375 13.71875 18.3125 9.203125 
Q 23.25 4.6875 33.734375 4.6875 
Q 38.421875 4.6875 43.75 5.5625 
z
M 34.765625 28.265625 
L 34.765625 29.734375 
Q 34.765625 36.671875 32.546875 39.640625 
Q 30.328125 42.625 25.921875 42.625 
Q 20.125 42.625 17.046875 38.421875 
Q 13.96875 34.234375 13.578125 28.265625 
z
" id="Constantia-101"/>
        <path d="M 2.09375 41.3125 
L 1.859375 42.96875 
Q 10.0625 44.53125 17.328125 46.390625 
L 17.828125 46.046875 
L 17.828125 41.265625 
Q 25.296875 46.390625 32.28125 46.390625 
Q 41.359375 46.390625 46.703125 40.3125 
Q 52.046875 34.234375 52.046875 24.515625 
Q 52.046875 12.546875 45.15625 5.578125 
Q 38.28125 -1.375 25.640625 -1.375 
Q 21.875 -1.375 17.828125 -0.640625 
L 17.828125 -11.328125 
Q 17.828125 -16.21875 17.921875 -18.171875 
Q 18.015625 -19.625 19.234375 -19.921875 
L 25.640625 -21.734375 
L 25.78125 -23.734375 
Q 18.171875 -23.578125 13.375 -23.578125 
Q 8.59375 -23.578125 2.046875 -23.734375 
L 1.859375 -21.734375 
L 7.46875 -20.0625 
Q 8.640625 -19.734375 8.6875 -18.5625 
Q 8.796875 -14.984375 8.796875 -7.765625 
L 8.796875 12.109375 
Q 8.796875 33.734375 8.59375 39.453125 
z
M 17.828125 3.765625 
Q 22.078125 2.828125 26.03125 2.828125 
Q 34.125 2.828125 38.21875 7.90625 
Q 42.328125 12.984375 42.328125 22.46875 
Q 42.328125 31.390625 38.421875 35.9375 
Q 34.515625 40.484375 27.203125 40.484375 
Q 21.921875 40.484375 17.828125 38.328125 
z
" id="Constantia-112"/>
       </defs>
       <use xlink:href="#Constantia-83"/>
       <use x="50.976562" xlink:href="#Constantia-101"/>
       <use x="98.876953" xlink:href="#Constantia-112"/>
      </g>
      <!-- 2020 -->
      <g transform="translate(411.419116 751.541125)scale(0.2 -0.2)">
       <defs>
        <path d="M 42.390625 15.484375 
L 44.53125 15.875 
L 43.5625 0.203125 
L 43.21875 -0.140625 
Q 33.25 0 22.359375 0 
Q 12.25 0 3.765625 -0.140625 
L 3.421875 3.859375 
Q 8.015625 6.84375 11.671875 9.375 
Q 15.328125 11.921875 18.015625 14.109375 
Q 20.703125 16.265625 22.75 18.21875 
Q 24.8125 20.171875 26.203125 22.09375 
Q 27.59375 24.03125 28.3125 26.03125 
Q 29.046875 28.03125 29.046875 30.21875 
Q 29.046875 34.71875 25.78125 37.34375 
Q 22.515625 39.984375 17.78125 39.984375 
Q 12.203125 39.984375 6.546875 36.96875 
L 4.6875 40.1875 
Q 13.8125 46.390625 23 46.390625 
Q 29.890625 46.390625 34.453125 43.046875 
Q 39.015625 39.703125 39.015625 33.734375 
Q 39.015625 30.03125 37.34375 26.828125 
Q 35.6875 23.640625 32.515625 20.5625 
Q 29.34375 17.484375 24.75 14.328125 
Q 20.171875 11.1875 14.265625 7.671875 
L 14.3125 7.421875 
L 38.578125 7.421875 
z
" id="Constantia-50"/>
        <path d="M 13.671875 23.296875 
Q 13.671875 13.625 17.15625 8.109375 
Q 20.65625 2.59375 27.203125 2.59375 
Q 33.84375 2.59375 37.015625 7.515625 
Q 40.1875 12.453125 40.1875 22.609375 
Q 40.1875 32.5625 36.71875 37.609375 
Q 33.25 42.671875 26.65625 42.671875 
Q 19.921875 42.671875 16.796875 37.84375 
Q 13.671875 33.015625 13.671875 23.296875 
z
M 49.953125 23.6875 
Q 49.953125 12.25 43.4375 5.484375 
Q 36.921875 -1.265625 26.421875 -1.265625 
Q 16.3125 -1.265625 10.109375 4.9375 
Q 3.90625 11.140625 3.90625 22.015625 
Q 3.90625 33.203125 10.390625 39.796875 
Q 16.890625 46.390625 27.484375 46.390625 
Q 37.796875 46.390625 43.875 40.375 
Q 49.953125 34.375 49.953125 23.6875 
z
" id="Constantia-48"/>
       </defs>
       <use xlink:href="#Constantia-50"/>
       <use x="48.4375" xlink:href="#Constantia-48"/>
       <use x="102.294922" xlink:href="#Constantia-50"/>
       <use x="150.732422" xlink:href="#Constantia-48"/>
      </g>
     </g>
    </g>
    <g id="xtick_2">
     <g id="line2d_3">
      <g>
       <use style="stroke:#000000;stroke-width:0.5;" x="865.99139" xlink:href="#m6b5e314be2" y="643.203"/>
      </g>
     </g>
     <g id="line2d_4">
      <g>
       <use style="stroke:#000000;stroke-width:0.5;" x="865.99139" xlink:href="#m76b398c25f" y="69.21425"/>
      </g>
     </g>
     <g id="text_2">
      <!--  -->
      <g transform="translate(865.99139 661.918625)scale(0.2 -0.2)"/>
      <!--  -->
      <g transform="translate(865.99139 684.32425)scale(0.2 -0.2)"/>
      <!--  -->
      <g transform="translate(865.99139 706.729875)scale(0.2 -0.2)"/>
      <!-- Oct -->
      <g transform="translate(849.805452 729.1355)scale(0.2 -0.2)">
       <defs>
        <path d="M 15.578125 35.015625 
Q 15.578125 19.09375 22.015625 10.625 
Q 28.46875 2.15625 40.921875 2.15625 
Q 53.171875 2.15625 59 9.84375 
Q 64.84375 17.53125 64.84375 33.984375 
Q 64.84375 49.421875 58.640625 57.71875 
Q 52.4375 66.015625 39.5 66.015625 
Q 26.953125 66.015625 21.265625 58.328125 
Q 15.578125 50.640625 15.578125 35.015625 
z
M 75.59375 35.640625 
Q 75.59375 18.75 65.984375 8.46875 
Q 56.390625 -1.8125 39.15625 -1.8125 
Q 22.796875 -1.8125 13.84375 7.6875 
Q 4.890625 17.1875 4.890625 33.40625 
Q 4.890625 50.296875 14.53125 60.125 
Q 24.171875 69.96875 41.265625 69.96875 
Q 57.671875 69.96875 66.625 60.765625 
Q 75.59375 51.5625 75.59375 35.640625 
z
" id="Constantia-79"/>
        <path d="M 42.96875 3.46875 
Q 39.9375 1.421875 35.46875 0.015625 
Q 31 -1.375 26.609375 -1.375 
Q 16.0625 -1.375 9.90625 4.796875 
Q 3.765625 10.984375 3.765625 21.296875 
Q 3.765625 32.46875 10.734375 39.421875 
Q 17.71875 46.390625 28.8125 46.390625 
Q 35.984375 46.390625 42.71875 43.453125 
Q 41.109375 36.921875 39.84375 30.078125 
L 37.9375 29.78125 
L 33.984375 41.5 
Q 31.734375 42.28125 28.90625 42.28125 
Q 21.625 42.28125 17.515625 37.203125 
Q 13.421875 32.125 13.421875 23.78125 
Q 13.421875 13.96875 18.0625 9.28125 
Q 22.703125 4.59375 32.765625 4.59375 
Q 37.40625 4.59375 42.671875 5.515625 
z
" id="Constantia-99"/>
        <path d="M 17.484375 39.9375 
Q 17.1875 23.4375 17.1875 13.328125 
Q 17.1875 8.25 18.703125 6.3125 
Q 20.21875 4.390625 24.46875 4.390625 
Q 27.828125 4.390625 33.25 5.28125 
L 33.546875 3.078125 
Q 25.09375 -1.171875 18.453125 -1.171875 
Q 13.140625 -1.171875 10.546875 1.6875 
Q 7.953125 4.546875 7.953125 10.296875 
Q 7.953125 19.78125 8.296875 40.234375 
L 1.5625 41.890625 
L 1.265625 43.890625 
L 8.796875 44.53125 
L 12.15625 56.34375 
Q 14.890625 57.078125 17.140625 57.765625 
L 17.625 57.421875 
Q 17.484375 51.515625 17.484375 46.390625 
L 17.484375 44.578125 
L 32.171875 44.578125 
L 32.171875 39.9375 
z
" id="Constantia-116"/>
       </defs>
       <use xlink:href="#Constantia-79"/>
       <use x="80.419922" xlink:href="#Constantia-99"/>
       <use x="126.5625" xlink:href="#Constantia-116"/>
      </g>
      <!-- 2020 -->
      <g transform="translate(845.532015 751.541125)scale(0.2 -0.2)">
       <use xlink:href="#Constantia-50"/>
       <use x="48.4375" xlink:href="#Constantia-48"/>
       <use x="102.294922" xlink:href="#Constantia-50"/>
       <use x="150.732422" xlink:href="#Constantia-48"/>
      </g>
     </g>
    </g>
    <g id="xtick_3">
     <g id="line2d_5">
      <g>
       <use style="stroke:#000000;stroke-width:0.5;" x="1314.574718" xlink:href="#m6b5e314be2" y="643.203"/>
      </g>
     </g>
     <g id="line2d_6">
      <g>
       <use style="stroke:#000000;stroke-width:0.5;" x="1314.574718" xlink:href="#m76b398c25f" y="69.21425"/>
      </g>
     </g>
     <g id="text_3">
      <!--  -->
      <g transform="translate(1314.574718 661.918625)scale(0.2 -0.2)"/>
      <!--  -->
      <g transform="translate(1314.574718 684.32425)scale(0.2 -0.2)"/>
      <!--  -->
      <g transform="translate(1314.574718 706.729875)scale(0.2 -0.2)"/>
      <!-- Nov -->
      <g transform="translate(1296.999718 729.1355)scale(0.2 -0.2)">
       <defs>
        <path d="M 16.65625 54.4375 
L 16.65625 14.984375 
Q 16.65625 9.234375 16.75 5.421875 
Q 16.796875 4.046875 17.96875 3.765625 
L 23.78125 2.046875 
L 23.875 -0.140625 
Q 17.78125 0 13.875 0 
Q 10.0625 0 3.765625 -0.140625 
L 3.5625 1.953125 
L 9.578125 3.765625 
Q 10.84375 4.15625 10.890625 5.28125 
Q 10.984375 9.234375 10.984375 14.984375 
L 10.984375 54.59375 
Q 10.984375 59.46875 10.890625 62.703125 
Q 10.84375 63.96875 9.71875 64.359375 
L 3.65625 66.265625 
L 3.5625 68.359375 
Q 9.859375 68.171875 13.53125 68.171875 
Q 15.71875 68.171875 17.96875 68.359375 
L 58.984375 17.140625 
L 58.984375 54.78125 
Q 58.984375 59.515625 58.890625 62.9375 
Q 58.84375 64.0625 57.625 64.453125 
L 51.859375 66.109375 
L 51.765625 68.359375 
Q 58.015625 68.171875 61.859375 68.171875 
Q 65.765625 68.171875 71.875 68.359375 
L 72.078125 66.265625 
L 65.921875 64.359375 
Q 64.796875 63.96875 64.75 62.703125 
Q 64.65625 59.46875 64.65625 54.59375 
L 64.65625 0 
L 60.546875 -0.390625 
z
" id="Constantia-78"/>
        <path d="M 13.71875 23.046875 
Q 13.71875 13.921875 17.140625 8.171875 
Q 20.5625 2.4375 27.296875 2.4375 
Q 33.59375 2.4375 36.890625 7.484375 
Q 40.1875 12.546875 40.1875 22.46875 
Q 40.1875 31.78125 36.71875 37.15625 
Q 33.25 42.53125 26.65625 42.53125 
Q 20.40625 42.53125 17.0625 37.6875 
Q 13.71875 32.859375 13.71875 23.046875 
z
M 50.140625 23.484375 
Q 50.140625 12.359375 43.421875 5.484375 
Q 36.71875 -1.375 26.375 -1.375 
Q 16.265625 -1.375 10.03125 5.09375 
Q 3.8125 11.578125 3.8125 22.015625 
Q 3.8125 32.765625 10.328125 39.578125 
Q 16.84375 46.390625 27.59375 46.390625 
Q 37.75 46.390625 43.9375 40.109375 
Q 50.140625 33.84375 50.140625 23.484375 
z
" id="Constantia-111"/>
        <path d="M -1.515625 45.265625 
Q 4.640625 45.125 9.421875 45.125 
Q 13.8125 45.125 19.96875 45.265625 
L 20.171875 43.265625 
L 14.5 41.703125 
Q 18.5 30.328125 23.78125 17.53125 
Q 25.140625 14.15625 26.21875 11.078125 
Q 27.296875 14.15625 28.71875 17.484375 
Q 33.15625 28.421875 38.03125 41.703125 
L 32.46875 43.265625 
L 32.28125 45.265625 
Q 36.234375 45.125 40.53125 45.125 
Q 44.921875 45.125 49.03125 45.265625 
L 49.21875 43.265625 
L 44.34375 41.84375 
Q 43.21875 41.453125 42.4375 39.9375 
Q 38.578125 31 33.46875 18.671875 
Q 28.375 6.34375 25.78125 -0.34375 
L 21.625 -0.78125 
Q 18.953125 6.296875 13.890625 18.59375 
Q 8.84375 30.90625 5.21875 39.703125 
Q 4.4375 41.40625 3.078125 41.890625 
L -1.421875 43.265625 
z
" id="Constantia-118"/>
       </defs>
       <use xlink:href="#Constantia-78"/>
       <use x="73.402344" xlink:href="#Constantia-111"/>
       <use x="127.455078" xlink:href="#Constantia-118"/>
      </g>
      <!-- 2020 -->
      <g transform="translate(1294.115343 751.541125)scale(0.2 -0.2)">
       <use xlink:href="#Constantia-50"/>
       <use x="48.4375" xlink:href="#Constantia-48"/>
       <use x="102.294922" xlink:href="#Constantia-50"/>
       <use x="150.732422" xlink:href="#Constantia-48"/>
      </g>
     </g>
    </g>
    <g id="xtick_4">
     <g id="line2d_7">
      <path clip-path="url(#p9bf5281e62)" d="M 99.058602 643.203 
L 99.058602 69.21425 
" style="fill:none;stroke:#000000;stroke-dasharray:1,3;stroke-dashoffset:0;stroke-width:0.5;"/>
     </g>
     <g id="line2d_8">
      <defs>
       <path d="M 0 0 
L 0 -2 
" id="m18d0e49bae" style="stroke:#000000;stroke-width:0.5;"/>
      </defs>
      <g>
       <use style="stroke:#000000;stroke-width:0.5;" x="99.058602" xlink:href="#m18d0e49bae" y="643.203"/>
      </g>
     </g>
     <g id="line2d_9">
      <defs>
       <path d="M 0 0 
L 0 2 
" id="m2c2f6cd1bc" style="stroke:#000000;stroke-width:0.5;"/>
      </defs>
      <g>
       <use style="stroke:#000000;stroke-width:0.5;" x="99.058602" xlink:href="#m2c2f6cd1bc" y="69.21425"/>
      </g>
     </g>
     <g id="text_4">
      <!-- 09 -->
      <g transform="translate(88.208602 661.918625)scale(0.2 -0.2)">
       <defs>
        <path d="M 8.640625 -19 
Q 20.90625 -16.796875 28.984375 -9.671875 
Q 37.0625 -2.546875 40.375 10.109375 
L 40.28125 10.15625 
Q 34.578125 3.65625 25.4375 3.65625 
Q 16.3125 3.65625 10.234375 9.484375 
Q 4.15625 15.328125 4.15625 24.3125 
Q 4.15625 33.6875 10.796875 40.03125 
Q 17.4375 46.390625 27.046875 46.390625 
Q 37.546875 46.390625 44.265625 38.75 
Q 50.984375 31.109375 50.984375 19.1875 
Q 50.984375 2.828125 39.578125 -8.59375 
Q 28.171875 -20.015625 9.328125 -22.46875 
z
M 14.0625 27.25 
Q 14.0625 18.5625 18.015625 13.28125 
Q 21.96875 8.015625 28.125 8.015625 
Q 34.234375 8.015625 37.453125 11.9375 
Q 40.671875 15.875 40.671875 22.90625 
Q 40.671875 31.453125 36.421875 37.15625 
Q 32.171875 42.875 26.21875 42.875 
Q 20.953125 42.875 17.5 38.640625 
Q 14.0625 34.421875 14.0625 27.25 
z
" id="Constantia-57"/>
       </defs>
       <use xlink:href="#Constantia-48"/>
       <use x="53.857422" xlink:href="#Constantia-57"/>
      </g>
      <!-- Sun -->
      <g transform="translate(82.446102 684.32425)scale(0.2 -0.2)">
       <defs>
        <path d="M 38.875 4.296875 
Q 31.25 -1.375 23.640625 -1.375 
Q 15.96875 -1.375 12.125 2.53125 
Q 8.296875 6.453125 8.296875 13.53125 
L 8.296875 23.875 
Q 8.296875 34.328125 8.109375 39.546875 
L 1.609375 41.3125 
L 1.375 42.96875 
Q 9.90625 44.53125 17.1875 46.390625 
L 17.625 46.046875 
Q 17.328125 40.328125 17.328125 31.34375 
L 17.328125 15.828125 
Q 17.328125 9.90625 20.109375 7.25 
Q 22.90625 4.59375 27.984375 4.59375 
Q 33.0625 4.59375 38.375 7.28125 
L 38.375 28.078125 
Q 38.375 34.90625 38.1875 39.546875 
L 31.734375 41.3125 
L 31.5 42.96875 
Q 39.984375 44.53125 47.265625 46.390625 
L 47.703125 46.046875 
Q 47.40625 40.1875 47.40625 31.0625 
Q 47.40625 13.328125 47.515625 9.421875 
Q 47.5625 7.421875 47.796875 6.203125 
Q 48.046875 4.984375 48.734375 4.3125 
Q 49.421875 3.65625 50.75 3.390625 
Q 52.09375 3.125 54.34375 3.078125 
L 54.59375 1.171875 
Q 52.34375 0.296875 49.40625 -0.5 
Q 46.484375 -1.3125 45.40625 -1.3125 
Q 40.484375 -1.3125 38.875 4.296875 
z
" id="Constantia-117"/>
        <path d="M 2.828125 42.96875 
Q 11.03125 44.53125 18.3125 46.390625 
L 18.796875 46.046875 
L 18.796875 40.375 
Q 27.296875 46.390625 34.625 46.390625 
Q 41.546875 46.390625 45.484375 42.5 
Q 49.421875 38.625 49.421875 31.5 
L 49.421875 14.265625 
Q 49.421875 8.15625 49.515625 5.21875 
Q 49.5625 3.90625 50.78125 3.515625 
L 56.203125 1.859375 
L 56.296875 -0.140625 
Q 49.859375 0 45.0625 0 
Q 40.28125 0 34.421875 -0.140625 
L 34.234375 1.859375 
L 39.109375 3.265625 
Q 40.234375 3.65625 40.328125 4.78125 
Q 40.375 5.46875 40.375 7.859375 
L 40.375 29.15625 
Q 40.375 35.15625 37.5 37.765625 
Q 34.625 40.375 29 40.375 
Q 24.078125 40.375 18.796875 37.546875 
L 18.796875 16.21875 
Q 18.796875 10.109375 18.890625 5.03125 
Q 18.953125 3.71875 20.015625 3.375 
L 25.09375 1.859375 
L 25.203125 -0.140625 
Q 19.140625 0 14.359375 0 
Q 9.578125 0 3.03125 -0.140625 
L 2.828125 1.859375 
L 8.59375 3.515625 
Q 9.671875 3.953125 9.71875 5.03125 
Q 9.765625 8.15625 9.765625 11.03125 
L 9.765625 27.6875 
Q 9.765625 34.078125 9.578125 39.546875 
L 3.078125 41.3125 
z
" id="Constantia-110"/>
       </defs>
       <use xlink:href="#Constantia-83"/>
       <use x="50.976562" xlink:href="#Constantia-117"/>
       <use x="107.910156" xlink:href="#Constantia-110"/>
      </g>
     </g>
    </g>
    <g id="xtick_5">
     <g id="line2d_10">
      <path clip-path="url(#p9bf5281e62)" d="M 200.351612 643.203 
L 200.351612 69.21425 
" style="fill:none;stroke:#000000;stroke-dasharray:1,3;stroke-dashoffset:0;stroke-width:0.5;"/>
     </g>
     <g id="line2d_11">
      <g>
       <use style="stroke:#000000;stroke-width:0.5;" x="200.351612" xlink:href="#m18d0e49bae" y="643.203"/>
      </g>
     </g>
     <g id="line2d_12">
      <g>
       <use style="stroke:#000000;stroke-width:0.5;" x="200.351612" xlink:href="#m2c2f6cd1bc" y="69.21425"/>
      </g>
     </g>
     <g id="text_5">
      <!-- 16 -->
      <g transform="translate(191.810987 661.918625)scale(0.2 -0.2)">
       <defs>
        <path d="M 1.703125 40.625 
L 1.46875 42.671875 
Q 11.28125 44.140625 21.09375 45.90625 
L 21.53125 45.515625 
Q 20.953125 36.96875 20.953125 27.875 
L 20.953125 15.96875 
Q 20.953125 9.515625 21.046875 5.5625 
Q 21.09375 4.15625 22.40625 3.8125 
L 30.171875 1.8125 
L 30.328125 -0.140625 
Q 21.296875 0 16.5 0 
Q 11.71875 0 2.734375 -0.140625 
L 2.546875 1.8125 
L 10.5 3.8125 
Q 11.765625 4.15625 11.8125 5.375 
Q 11.921875 9.328125 11.921875 14.15625 
L 11.921875 22.265625 
Q 11.921875 32.078125 11.71875 39.65625 
z
" id="Constantia-49"/>
        <path d="M 47.125 64.546875 
Q 32.03125 61.53125 24.515625 53.9375 
Q 17 46.34375 14.796875 35.25 
L 14.890625 35.203125 
Q 20.796875 41.65625 30.21875 41.65625 
Q 38.96875 41.65625 44.9375 35.796875 
Q 50.921875 29.9375 50.921875 20.90625 
Q 50.921875 11.328125 44.375 5.03125 
Q 37.84375 -1.265625 28.125 -1.265625 
Q 17.390625 -1.265625 10.75 6.5 
Q 4.109375 14.265625 4.109375 26.515625 
Q 4.109375 41.546875 14.453125 53.125 
Q 24.8125 64.703125 46.4375 68.015625 
z
M 41.109375 18.0625 
Q 41.109375 26.609375 37.15625 31.953125 
Q 33.203125 37.3125 27.046875 37.3125 
Q 21.4375 37.3125 17.921875 33.328125 
Q 14.40625 29.34375 14.40625 22.515625 
Q 14.40625 14.15625 18.5 8.203125 
Q 22.609375 2.25 28.953125 2.25 
Q 34.46875 2.25 37.78125 6.8125 
Q 41.109375 11.375 41.109375 18.0625 
z
" id="Constantia-54"/>
       </defs>
       <use xlink:href="#Constantia-49"/>
       <use x="31.298828" xlink:href="#Constantia-54"/>
      </g>
      <!-- Sun -->
      <g transform="translate(183.739112 684.32425)scale(0.2 -0.2)">
       <use xlink:href="#Constantia-83"/>
       <use x="50.976562" xlink:href="#Constantia-117"/>
       <use x="107.910156" xlink:href="#Constantia-110"/>
      </g>
     </g>
    </g>
    <g id="xtick_6">
     <g id="line2d_13">
      <path clip-path="url(#p9bf5281e62)" d="M 301.644621 643.203 
L 301.644621 69.21425 
" style="fill:none;stroke:#000000;stroke-dasharray:1,3;stroke-dashoffset:0;stroke-width:0.5;"/>
     </g>
     <g id="line2d_14">
      <g>
       <use style="stroke:#000000;stroke-width:0.5;" x="301.644621" xlink:href="#m18d0e49bae" y="643.203"/>
      </g>
     </g>
     <g id="line2d_15">
      <g>
       <use style="stroke:#000000;stroke-width:0.5;" x="301.644621" xlink:href="#m2c2f6cd1bc" y="69.21425"/>
      </g>
     </g>
     <g id="text_6">
      <!-- 23 -->
      <g transform="translate(292.235246 661.918625)scale(0.2 -0.2)">
       <defs>
        <path d="M 10.25 16.21875 
Q 19 17.140625 24.265625 20.75 
Q 29.546875 24.359375 29.546875 30.125 
Q 29.546875 34.71875 26.09375 37.59375 
Q 22.65625 40.484375 17.390625 40.484375 
Q 10.5 40.484375 3.46875 36.8125 
L 1.46875 40.046875 
Q 11.140625 46.390625 21.34375 46.390625 
Q 28.90625 46.390625 34.078125 42.75 
Q 39.265625 39.109375 39.265625 33.203125 
Q 39.265625 22.359375 23.25 17 
L 23.25 16.796875 
Q 32.421875 16.453125 37.5625 12.15625 
Q 42.71875 7.859375 42.71875 1.609375 
Q 42.71875 -8.5 31.96875 -15.140625 
Q 21.234375 -21.78125 1.03125 -22.46875 
L 0.484375 -18.84375 
Q 16.546875 -17.78125 24.53125 -12.625 
Q 32.515625 -7.46875 32.515625 0.25 
Q 32.515625 6.296875 28.359375 9.765625 
Q 24.21875 13.234375 16.84375 13.234375 
Q 13.96875 13.234375 10.59375 12.640625 
z
" id="Constantia-51"/>
       </defs>
       <use xlink:href="#Constantia-50"/>
       <use x="48.4375" xlink:href="#Constantia-51"/>
      </g>
      <!-- Sun -->
      <g transform="translate(285.032121 684.32425)scale(0.2 -0.2)">
       <use xlink:href="#Constantia-83"/>
       <use x="50.976562" xlink:href="#Constantia-117"/>
       <use x="107.910156" xlink:href="#Constantia-110"/>
      </g>
     </g>
    </g>
    <g id="xtick_7">
     <g id="line2d_16">
      <path clip-path="url(#p9bf5281e62)" d="M 402.937631 643.203 
L 402.937631 69.21425 
" style="fill:none;stroke:#000000;stroke-dasharray:1,3;stroke-dashoffset:0;stroke-width:0.5;"/>
     </g>
     <g id="line2d_17">
      <g>
       <use style="stroke:#000000;stroke-width:0.5;" x="402.937631" xlink:href="#m18d0e49bae" y="643.203"/>
      </g>
     </g>
     <g id="line2d_18">
      <g>
       <use style="stroke:#000000;stroke-width:0.5;" x="402.937631" xlink:href="#m2c2f6cd1bc" y="69.21425"/>
      </g>
     </g>
     <g id="text_7">
      <!-- 30 -->
      <g transform="translate(392.986068 661.918625)scale(0.2 -0.2)">
       <use xlink:href="#Constantia-51"/>
       <use x="45.654297" xlink:href="#Constantia-48"/>
      </g>
      <!-- Sun -->
      <g transform="translate(386.325131 684.32425)scale(0.2 -0.2)">
       <use xlink:href="#Constantia-83"/>
       <use x="50.976562" xlink:href="#Constantia-117"/>
       <use x="107.910156" xlink:href="#Constantia-110"/>
      </g>
     </g>
    </g>
    <g id="xtick_8">
     <g id="line2d_19">
      <path clip-path="url(#p9bf5281e62)" d="M 504.230641 643.203 
L 504.230641 69.21425 
" style="fill:none;stroke:#000000;stroke-dasharray:1,3;stroke-dashoffset:0;stroke-width:0.5;"/>
     </g>
     <g id="line2d_20">
      <g>
       <use style="stroke:#000000;stroke-width:0.5;" x="504.230641" xlink:href="#m18d0e49bae" y="643.203"/>
      </g>
     </g>
     <g id="line2d_21">
      <g>
       <use style="stroke:#000000;stroke-width:0.5;" x="504.230641" xlink:href="#m2c2f6cd1bc" y="69.21425"/>
      </g>
     </g>
     <g id="text_8">
      <!-- 06 -->
      <g transform="translate(493.433766 661.918625)scale(0.2 -0.2)">
       <use xlink:href="#Constantia-48"/>
       <use x="53.857422" xlink:href="#Constantia-54"/>
      </g>
      <!-- Sun -->
      <g transform="translate(487.618141 684.32425)scale(0.2 -0.2)">
       <use xlink:href="#Constantia-83"/>
       <use x="50.976562" xlink:href="#Constantia-117"/>
       <use x="107.910156" xlink:href="#Constantia-110"/>
      </g>
     </g>
    </g>
    <g id="xtick_9">
     <g id="line2d_22">
      <path clip-path="url(#p9bf5281e62)" d="M 605.52365 643.203 
L 605.52365 69.21425 
" style="fill:none;stroke:#000000;stroke-dasharray:1,3;stroke-dashoffset:0;stroke-width:0.5;"/>
     </g>
     <g id="line2d_23">
      <g>
       <use style="stroke:#000000;stroke-width:0.5;" x="605.52365" xlink:href="#m18d0e49bae" y="643.203"/>
      </g>
     </g>
     <g id="line2d_24">
      <g>
       <use style="stroke:#000000;stroke-width:0.5;" x="605.52365" xlink:href="#m2c2f6cd1bc" y="69.21425"/>
      </g>
     </g>
     <g id="text_9">
      <!-- 13 -->
      <g transform="translate(597.828338 661.918625)scale(0.2 -0.2)">
       <use xlink:href="#Constantia-49"/>
       <use x="31.298828" xlink:href="#Constantia-51"/>
      </g>
      <!-- Sun -->
      <g transform="translate(588.91115 684.32425)scale(0.2 -0.2)">
       <use xlink:href="#Constantia-83"/>
       <use x="50.976562" xlink:href="#Constantia-117"/>
       <use x="107.910156" xlink:href="#Constantia-110"/>
      </g>
     </g>
    </g>
    <g id="xtick_10">
     <g id="line2d_25">
      <path clip-path="url(#p9bf5281e62)" d="M 706.81666 643.203 
L 706.81666 69.21425 
" style="fill:none;stroke:#000000;stroke-dasharray:1,3;stroke-dashoffset:0;stroke-width:0.5;"/>
     </g>
     <g id="line2d_26">
      <g>
       <use style="stroke:#000000;stroke-width:0.5;" x="706.81666" xlink:href="#m18d0e49bae" y="643.203"/>
      </g>
     </g>
     <g id="line2d_27">
      <g>
       <use style="stroke:#000000;stroke-width:0.5;" x="706.81666" xlink:href="#m2c2f6cd1bc" y="69.21425"/>
      </g>
     </g>
     <g id="text_10">
      <!-- 20 -->
      <g transform="translate(696.586973 661.918625)scale(0.2 -0.2)">
       <use xlink:href="#Constantia-50"/>
       <use x="48.4375" xlink:href="#Constantia-48"/>
      </g>
      <!-- Sun -->
      <g transform="translate(690.20416 684.32425)scale(0.2 -0.2)">
       <use xlink:href="#Constantia-83"/>
       <use x="50.976562" xlink:href="#Constantia-117"/>
       <use x="107.910156" xlink:href="#Constantia-110"/>
      </g>
     </g>
    </g>
    <g id="xtick_11">
     <g id="line2d_28">
      <path clip-path="url(#p9bf5281e62)" d="M 808.10967 643.203 
L 808.10967 69.21425 
" style="fill:none;stroke:#000000;stroke-dasharray:1,3;stroke-dashoffset:0;stroke-width:0.5;"/>
     </g>
     <g id="line2d_29">
      <g>
       <use style="stroke:#000000;stroke-width:0.5;" x="808.10967" xlink:href="#m18d0e49bae" y="643.203"/>
      </g>
     </g>
     <g id="line2d_30">
      <g>
       <use style="stroke:#000000;stroke-width:0.5;" x="808.10967" xlink:href="#m2c2f6cd1bc" y="69.21425"/>
      </g>
     </g>
     <g id="text_11">
      <!-- 27 -->
      <g transform="translate(798.431545 661.918625)scale(0.2 -0.2)">
       <defs>
        <path d="M 10.9375 -19.671875 
L 39.5 37.546875 
L 8.296875 37.546875 
L 5.46875 27.875 
L 3.515625 27.546875 
L 2.6875 44.921875 
L 3.03125 45.3125 
Q 8.796875 45.21875 14.265625 45.171875 
Q 19.734375 45.125 25 45.125 
L 27.734375 45.125 
Q 33.015625 45.125 37.84375 45.171875 
Q 42.671875 45.21875 47.171875 45.3125 
L 47.359375 43.21875 
Q 44.828125 37.984375 42.265625 32.46875 
Q 39.703125 26.953125 37.234375 21.3125 
Q 34.765625 15.671875 32.421875 10.125 
Q 30.078125 4.59375 28.03125 -0.65625 
Q 25.984375 -5.90625 24.25 -10.6875 
Q 22.515625 -15.484375 21.234375 -19.53125 
L 11.1875 -20.015625 
z
" id="Constantia-55"/>
       </defs>
       <use xlink:href="#Constantia-50"/>
       <use x="48.4375" xlink:href="#Constantia-55"/>
      </g>
      <!-- Sun -->
      <g transform="translate(791.49717 684.32425)scale(0.2 -0.2)">
       <use xlink:href="#Constantia-83"/>
       <use x="50.976562" xlink:href="#Constantia-117"/>
       <use x="107.910156" xlink:href="#Constantia-110"/>
      </g>
     </g>
    </g>
    <g id="xtick_12">
     <g id="line2d_31">
      <path clip-path="url(#p9bf5281e62)" d="M 909.402679 643.203 
L 909.402679 69.21425 
" style="fill:none;stroke:#000000;stroke-dasharray:1,3;stroke-dashoffset:0;stroke-width:0.5;"/>
     </g>
     <g id="line2d_32">
      <g>
       <use style="stroke:#000000;stroke-width:0.5;" x="909.402679" xlink:href="#m18d0e49bae" y="643.203"/>
      </g>
     </g>
     <g id="line2d_33">
      <g>
       <use style="stroke:#000000;stroke-width:0.5;" x="909.402679" xlink:href="#m2c2f6cd1bc" y="69.21425"/>
      </g>
     </g>
     <g id="text_12">
      <!-- 04 -->
      <g transform="translate(898.708929 661.918625)scale(0.2 -0.2)">
       <defs>
        <path d="M 30.953125 35.015625 
Q 25.4375 28.8125 19.890625 21.78125 
Q 14.359375 14.75 8.984375 7.28125 
L 30.953125 7.28125 
z
M 39.984375 -5.71875 
Q 39.984375 -12.546875 40.234375 -19.53125 
Q 35.546875 -20.015625 31.34375 -20.796875 
L 30.859375 -20.40625 
Q 30.953125 -13.578125 30.953125 -6.5 
L 30.953125 2.4375 
L 18.796875 2.4375 
Q 12.109375 2.4375 2.546875 2.296875 
L 2.203125 5.859375 
Q 9.90625 16.0625 18.078125 26.234375 
Q 26.265625 36.421875 34.578125 46.046875 
L 40.28125 46.390625 
Q 39.984375 35.453125 39.984375 25.984375 
L 39.984375 7.28125 
L 51.171875 7.28125 
L 51.375 2.296875 
Q 46 2.4375 39.984375 2.4375 
z
" id="Constantia-52"/>
       </defs>
       <use xlink:href="#Constantia-48"/>
       <use x="53.857422" xlink:href="#Constantia-52"/>
      </g>
      <!-- Sun -->
      <g transform="translate(892.790179 684.32425)scale(0.2 -0.2)">
       <use xlink:href="#Constantia-83"/>
       <use x="50.976562" xlink:href="#Constantia-117"/>
       <use x="107.910156" xlink:href="#Constantia-110"/>
      </g>
     </g>
    </g>
    <g id="xtick_13">
     <g id="line2d_34">
      <path clip-path="url(#p9bf5281e62)" d="M 1010.695689 643.203 
L 1010.695689 69.21425 
" style="fill:none;stroke:#000000;stroke-dasharray:1,3;stroke-dashoffset:0;stroke-width:0.5;"/>
     </g>
     <g id="line2d_35">
      <g>
       <use style="stroke:#000000;stroke-width:0.5;" x="1010.695689" xlink:href="#m18d0e49bae" y="643.203"/>
      </g>
     </g>
     <g id="line2d_36">
      <g>
       <use style="stroke:#000000;stroke-width:0.5;" x="1010.695689" xlink:href="#m2c2f6cd1bc" y="69.21425"/>
      </g>
     </g>
     <g id="text_13">
      <!-- 11 -->
      <g transform="translate(1004.436314 661.918625)scale(0.2 -0.2)">
       <use xlink:href="#Constantia-49"/>
       <use x="31.298828" xlink:href="#Constantia-49"/>
      </g>
      <!-- Sun -->
      <g transform="translate(994.083189 684.32425)scale(0.2 -0.2)">
       <use xlink:href="#Constantia-83"/>
       <use x="50.976562" xlink:href="#Constantia-117"/>
       <use x="107.910156" xlink:href="#Constantia-110"/>
      </g>
     </g>
    </g>
    <g id="xtick_14">
     <g id="line2d_37">
      <path clip-path="url(#p9bf5281e62)" d="M 1111.988699 643.203 
L 1111.988699 69.21425 
" style="fill:none;stroke:#000000;stroke-dasharray:1,3;stroke-dashoffset:0;stroke-width:0.5;"/>
     </g>
     <g id="line2d_38">
      <g>
       <use style="stroke:#000000;stroke-width:0.5;" x="1111.988699" xlink:href="#m18d0e49bae" y="643.203"/>
      </g>
     </g>
     <g id="line2d_39">
      <g>
       <use style="stroke:#000000;stroke-width:0.5;" x="1111.988699" xlink:href="#m2c2f6cd1bc" y="69.21425"/>
      </g>
     </g>
     <g id="text_14">
      <!-- 18 -->
      <g transform="translate(1103.493386 661.918625)scale(0.2 -0.2)">
       <defs>
        <path d="M 19.09375 34.234375 
Q 12.0625 37.890625 9.5 41.546875 
Q 6.9375 45.21875 6.9375 50.09375 
Q 6.9375 57.421875 12.96875 62.171875 
Q 19 66.9375 27.984375 66.9375 
Q 36.078125 66.9375 41.375 63.125 
Q 46.6875 59.328125 46.6875 53.265625 
Q 46.6875 44.234375 33.84375 36.765625 
Q 43.609375 32.03125 47.09375 27.75 
Q 50.59375 23.484375 50.59375 17.578125 
Q 50.59375 9.421875 43.40625 4.078125 
Q 36.234375 -1.265625 26.265625 -1.265625 
Q 16.265625 -1.265625 9.90625 3.296875 
Q 3.5625 7.859375 3.5625 15.4375 
Q 3.5625 26.8125 19.09375 34.234375 
z
M 22.5625 32.421875 
Q 12.546875 26.703125 12.546875 16.609375 
Q 12.546875 10.203125 16.375 6.421875 
Q 20.21875 2.640625 26.90625 2.640625 
Q 33.015625 2.640625 37.140625 6.03125 
Q 41.265625 9.421875 41.265625 14.84375 
Q 41.265625 20.015625 37.5 23.75 
Q 33.734375 27.484375 22.5625 32.421875 
z
M 30.21875 38.625 
Q 37.984375 44.234375 37.984375 51.8125 
Q 37.984375 57.234375 34.859375 60.1875 
Q 31.734375 63.140625 26.609375 63.140625 
Q 21.4375 63.140625 18.140625 60.453125 
Q 14.84375 57.765625 14.84375 53.125 
Q 14.84375 48.484375 18.40625 45.40625 
Q 21.96875 42.328125 30.21875 38.625 
z
" id="Constantia-56"/>
       </defs>
       <use xlink:href="#Constantia-49"/>
       <use x="31.298828" xlink:href="#Constantia-56"/>
      </g>
      <!-- Sun -->
      <g transform="translate(1095.376199 684.32425)scale(0.2 -0.2)">
       <use xlink:href="#Constantia-83"/>
       <use x="50.976562" xlink:href="#Constantia-117"/>
       <use x="107.910156" xlink:href="#Constantia-110"/>
      </g>
     </g>
    </g>
    <g id="xtick_15">
     <g id="line2d_40">
      <path clip-path="url(#p9bf5281e62)" d="M 1213.281708 643.203 
L 1213.281708 69.21425 
" style="fill:none;stroke:#000000;stroke-dasharray:1,3;stroke-dashoffset:0;stroke-width:0.5;"/>
     </g>
     <g id="line2d_41">
      <g>
       <use style="stroke:#000000;stroke-width:0.5;" x="1213.281708" xlink:href="#m18d0e49bae" y="643.203"/>
      </g>
     </g>
     <g id="line2d_42">
      <g>
       <use style="stroke:#000000;stroke-width:0.5;" x="1213.281708" xlink:href="#m2c2f6cd1bc" y="69.21425"/>
      </g>
     </g>
     <g id="text_15">
      <!-- 25 -->
      <g transform="translate(1203.681708 661.918625)scale(0.2 -0.2)">
       <defs>
        <path d="M 6.453125 16.796875 
L 9.28125 45.3125 
Q 15.375 45.125 23.875 45.125 
Q 33.6875 45.125 42.28125 45.3125 
L 42.578125 44.921875 
L 41.359375 36.859375 
L 13.1875 37.546875 
L 11.8125 23.78125 
Q 15.96875 24.46875 19.625 24.46875 
Q 30.8125 24.46875 37.46875 19.046875 
Q 44.140625 13.625 44.140625 4.15625 
Q 44.140625 -7.953125 32.984375 -15.15625 
Q 21.828125 -22.359375 4.890625 -22.46875 
L 4.390625 -18.84375 
Q 17.71875 -18.359375 26.09375 -12.796875 
Q 34.46875 -7.234375 34.46875 2.203125 
Q 34.46875 9.46875 29.5625 13.46875 
Q 24.65625 17.484375 15.765625 17.484375 
Q 11.328125 17.484375 6.734375 16.453125 
z
" id="Constantia-53"/>
       </defs>
       <use xlink:href="#Constantia-50"/>
       <use x="48.4375" xlink:href="#Constantia-53"/>
      </g>
      <!-- Sun -->
      <g transform="translate(1196.669208 684.32425)scale(0.2 -0.2)">
       <use xlink:href="#Constantia-83"/>
       <use x="50.976562" xlink:href="#Constantia-117"/>
       <use x="107.910156" xlink:href="#Constantia-110"/>
      </g>
     </g>
    </g>
   </g>
   <g id="matplotlib.axis_2">
    <g id="ytick_1">
     <g id="line2d_43">
      <path clip-path="url(#p9bf5281e62)" d="M 78.8 643.203 
L 1349.30375 643.203 
" style="fill:none;stroke:#000000;stroke-dasharray:1,3;stroke-dashoffset:0;stroke-width:0.5;"/>
     </g>
     <g id="line2d_44">
      <defs>
       <path d="M 0 0 
L 4 0 
" id="ma6568a33f2" style="stroke:#000000;stroke-width:0.5;"/>
      </defs>
      <g>
       <use style="stroke:#000000;stroke-width:0.5;" x="78.8" xlink:href="#ma6568a33f2" y="643.203"/>
      </g>
     </g>
     <g id="text_16">
      <!-- 0 -->
      <g transform="translate(64.028125 648.187375)scale(0.2 -0.2)">
       <use xlink:href="#Constantia-48"/>
      </g>
     </g>
    </g>
    <g id="ytick_2">
     <g id="line2d_45">
      <path clip-path="url(#p9bf5281e62)" d="M 78.8 561.204607 
L 1349.30375 561.204607 
" style="fill:none;stroke:#000000;stroke-dasharray:1,3;stroke-dashoffset:0;stroke-width:0.5;"/>
     </g>
     <g id="line2d_46">
      <g>
       <use style="stroke:#000000;stroke-width:0.5;" x="78.8" xlink:href="#ma6568a33f2" y="561.204607"/>
      </g>
     </g>
     <g id="text_17">
      <!-- 1000 -->
      <g transform="translate(36.225 566.188982)scale(0.2 -0.2)">
       <use xlink:href="#Constantia-49"/>
       <use x="31.298828" xlink:href="#Constantia-48"/>
       <use x="85.15625" xlink:href="#Constantia-48"/>
       <use x="139.013672" xlink:href="#Constantia-48"/>
      </g>
     </g>
    </g>
    <g id="ytick_3">
     <g id="line2d_47">
      <path clip-path="url(#p9bf5281e62)" d="M 78.8 479.206214 
L 1349.30375 479.206214 
" style="fill:none;stroke:#000000;stroke-dasharray:1,3;stroke-dashoffset:0;stroke-width:0.5;"/>
     </g>
     <g id="line2d_48">
      <g>
       <use style="stroke:#000000;stroke-width:0.5;" x="78.8" xlink:href="#ma6568a33f2" y="479.206214"/>
      </g>
     </g>
     <g id="text_18">
      <!-- 2000 -->
      <g transform="translate(32.796875 484.190589)scale(0.2 -0.2)">
       <use xlink:href="#Constantia-50"/>
       <use x="48.4375" xlink:href="#Constantia-48"/>
       <use x="102.294922" xlink:href="#Constantia-48"/>
       <use x="156.152344" xlink:href="#Constantia-48"/>
      </g>
     </g>
    </g>
    <g id="ytick_4">
     <g id="line2d_49">
      <path clip-path="url(#p9bf5281e62)" d="M 78.8 397.207821 
L 1349.30375 397.207821 
" style="fill:none;stroke:#000000;stroke-dasharray:1,3;stroke-dashoffset:0;stroke-width:0.5;"/>
     </g>
     <g id="line2d_50">
      <g>
       <use style="stroke:#000000;stroke-width:0.5;" x="78.8" xlink:href="#ma6568a33f2" y="397.207821"/>
      </g>
     </g>
     <g id="text_19">
      <!-- 3000 -->
      <g transform="translate(33.353125 402.192196)scale(0.2 -0.2)">
       <use xlink:href="#Constantia-51"/>
       <use x="45.654297" xlink:href="#Constantia-48"/>
       <use x="99.511719" xlink:href="#Constantia-48"/>
       <use x="153.369141" xlink:href="#Constantia-48"/>
      </g>
     </g>
    </g>
    <g id="ytick_5">
     <g id="line2d_51">
      <path clip-path="url(#p9bf5281e62)" d="M 78.8 315.209429 
L 1349.30375 315.209429 
" style="fill:none;stroke:#000000;stroke-dasharray:1,3;stroke-dashoffset:0;stroke-width:0.5;"/>
     </g>
     <g id="line2d_52">
      <g>
       <use style="stroke:#000000;stroke-width:0.5;" x="78.8" xlink:href="#ma6568a33f2" y="315.209429"/>
      </g>
     </g>
     <g id="text_20">
      <!-- 4000 -->
      <g transform="translate(31.86875 320.193804)scale(0.2 -0.2)">
       <use xlink:href="#Constantia-52"/>
       <use x="53.076172" xlink:href="#Constantia-48"/>
       <use x="106.933594" xlink:href="#Constantia-48"/>
       <use x="160.791016" xlink:href="#Constantia-48"/>
      </g>
     </g>
    </g>
    <g id="ytick_6">
     <g id="line2d_53">
      <path clip-path="url(#p9bf5281e62)" d="M 78.8 233.211036 
L 1349.30375 233.211036 
" style="fill:none;stroke:#000000;stroke-dasharray:1,3;stroke-dashoffset:0;stroke-width:0.5;"/>
     </g>
     <g id="line2d_54">
      <g>
       <use style="stroke:#000000;stroke-width:0.5;" x="78.8" xlink:href="#ma6568a33f2" y="233.211036"/>
      </g>
     </g>
     <g id="text_21">
      <!-- 5000 -->
      <g transform="translate(32.971875 238.195411)scale(0.2 -0.2)">
       <use xlink:href="#Constantia-53"/>
       <use x="47.558594" xlink:href="#Constantia-48"/>
       <use x="101.416016" xlink:href="#Constantia-48"/>
       <use x="155.273438" xlink:href="#Constantia-48"/>
      </g>
     </g>
    </g>
    <g id="ytick_7">
     <g id="line2d_55">
      <path clip-path="url(#p9bf5281e62)" d="M 78.8 151.212643 
L 1349.30375 151.212643 
" style="fill:none;stroke:#000000;stroke-dasharray:1,3;stroke-dashoffset:0;stroke-width:0.5;"/>
     </g>
     <g id="line2d_56">
      <g>
       <use style="stroke:#000000;stroke-width:0.5;" x="78.8" xlink:href="#ma6568a33f2" y="151.212643"/>
      </g>
     </g>
     <g id="text_22">
      <!-- 6000 -->
      <g transform="translate(31.6625 156.197018)scale(0.2 -0.2)">
       <use xlink:href="#Constantia-54"/>
       <use x="54.101562" xlink:href="#Constantia-48"/>
       <use x="107.958984" xlink:href="#Constantia-48"/>
       <use x="161.816406" xlink:href="#Constantia-48"/>
      </g>
     </g>
    </g>
    <g id="ytick_8">
     <g id="line2d_57">
      <path clip-path="url(#p9bf5281e62)" d="M 78.8 69.21425 
L 1349.30375 69.21425 
" style="fill:none;stroke:#000000;stroke-dasharray:1,3;stroke-dashoffset:0;stroke-width:0.5;"/>
     </g>
     <g id="line2d_58">
      <g>
       <use style="stroke:#000000;stroke-width:0.5;" x="78.8" xlink:href="#ma6568a33f2" y="69.21425"/>
      </g>
     </g>
     <g id="text_23">
      <!-- 7000 -->
      <g transform="translate(32.815625 74.198625)scale(0.2 -0.2)">
       <use xlink:href="#Constantia-55"/>
       <use x="48.339844" xlink:href="#Constantia-48"/>
       <use x="102.197266" xlink:href="#Constantia-48"/>
       <use x="156.054688" xlink:href="#Constantia-48"/>
      </g>
     </g>
    </g>
    <g id="text_24">
     <!-- NewDeaths -->
     <g transform="translate(21.915625 406.132062)rotate(-90)scale(0.2 -0.2)">
      <defs>
       <path d="M -0.828125 45.265625 
Q 6.15625 45.125 9.515625 45.125 
Q 14.359375 45.125 20.453125 45.265625 
L 20.65625 43.265625 
L 14.890625 41.703125 
Q 18.171875 30.8125 23.140625 17.1875 
Q 24.21875 14.3125 25.140625 11.28125 
Q 26.078125 14.265625 27.15625 17.140625 
Q 31.0625 27.59375 33.0625 33.453125 
Q 35.0625 39.3125 36.921875 44.921875 
L 40.484375 45.3125 
Q 42.328125 39.40625 44.28125 33.5 
Q 46.234375 27.59375 49.90625 17.1875 
Q 51.078125 14.0625 51.859375 11.28125 
Q 52.78125 14.109375 53.953125 17.140625 
Q 59.375 30.859375 62.9375 41.75 
L 57.421875 43.3125 
L 57.234375 45.3125 
Q 61.140625 45.171875 65.53125 45.171875 
Q 69.875 45.171875 73.4375 45.3125 
L 73.6875 43.3125 
L 69.78125 42.234375 
Q 68.109375 41.75 67.328125 39.890625 
Q 62.75 28.8125 59.171875 19.890625 
Q 55.609375 10.984375 51.46875 -0.09375 
L 47.078125 -0.53125 
Q 44.09375 8.0625 42.109375 13.453125 
Q 40.140625 18.84375 37.84375 25.203125 
Q 36.859375 27.78125 36.1875 30.171875 
Q 35.40625 27.828125 34.421875 25.34375 
Q 31.9375 18.84375 29.8125 13.375 
Q 27.6875 7.90625 24.859375 -0.09375 
L 20.5625 -0.53125 
Q 16.40625 10.984375 12.984375 19.875 
Q 9.578125 28.765625 5.28125 39.9375 
Q 4.59375 41.75 2.78125 42.234375 
L -0.734375 43.265625 
z
" id="Constantia-119"/>
       <path d="M 17.09375 0 
Q 11.1875 0 4.984375 -0.140625 
L 4.78125 1.953125 
L 10.796875 3.765625 
Q 12.0625 4.15625 12.109375 5.28125 
Q 12.15625 7.234375 12.171875 9.640625 
Q 12.203125 12.0625 12.203125 14.984375 
L 12.203125 54.59375 
Q 12.203125 57.078125 12.171875 59.078125 
Q 12.15625 61.078125 12.109375 62.703125 
Q 12.0625 63.96875 10.9375 64.359375 
L 4.890625 66.265625 
L 4.78125 68.359375 
Q 11.078125 68.171875 17.046875 68.171875 
Q 21.921875 68.171875 26.453125 68.40625 
Q 31 68.65625 35.796875 68.65625 
Q 52.875 68.65625 61.46875 60.859375 
Q 70.0625 53.078125 70.0625 37.75 
Q 70.0625 19.671875 60.515625 9.6875 
Q 50.984375 -0.296875 33.734375 -0.296875 
Q 29 -0.296875 25.28125 -0.140625 
Q 21.578125 0 17.09375 0 
z
M 21.78125 4.34375 
Q 24.65625 3.953125 27.40625 3.828125 
Q 30.171875 3.71875 32.953125 3.71875 
Q 45.84375 3.71875 52.578125 11.296875 
Q 59.328125 18.890625 59.328125 34.578125 
Q 59.328125 49.8125 52.921875 57.15625 
Q 46.53125 64.5 32.671875 64.5 
Q 30.46875 64.5 27.796875 64.40625 
Q 25.140625 64.3125 21.78125 64.0625 
z
" id="Constantia-68"/>
       <path d="M 30.125 22.125 
Q 19.4375 22.125 15.53125 20.015625 
Q 11.625 17.921875 11.625 12.9375 
Q 11.625 8.296875 14.203125 6.359375 
Q 16.796875 4.4375 21.234375 4.4375 
Q 26.265625 4.4375 30.03125 6.15625 
z
M 6.453125 42.234375 
Q 15.96875 46.390625 23.296875 46.390625 
Q 30.765625 46.390625 34.9375 42.484375 
Q 39.109375 38.578125 39.0625 31.203125 
L 38.8125 10.890625 
Q 38.765625 8.40625 38.9375 6.890625 
Q 39.109375 5.375 39.8125 4.5625 
Q 40.53125 3.765625 41.9375 3.4375 
Q 43.359375 3.125 45.75 3.078125 
L 46 1.171875 
Q 43.890625 0.34375 40.859375 -0.484375 
Q 37.84375 -1.3125 36.765625 -1.3125 
Q 32.03125 -1.3125 30.28125 3.5625 
Q 23.4375 -1.375 17.390625 -1.375 
Q 10.59375 -1.375 6.46875 1.96875 
Q 2.34375 5.328125 2.34375 11.421875 
Q 2.34375 18.953125 9.046875 22.515625 
Q 15.765625 26.078125 30.125 26.078125 
L 30.171875 29.890625 
Q 30.21875 35.359375 27.390625 37.984375 
Q 24.5625 40.625 18.703125 40.625 
Q 14.265625 40.625 7.5625 38.96875 
z
" id="Constantia-97"/>
       <path d="M 2.484375 70.125 
Q 10.453125 71.6875 18.40625 73.578125 
L 18.84375 73.1875 
Q 18.609375 68.609375 18.578125 60.109375 
Q 18.5625 51.609375 18.5625 40.921875 
Q 27.046875 46.390625 34.375 46.390625 
Q 41.15625 46.390625 45.15625 42.59375 
Q 49.171875 38.8125 49.171875 31.5 
L 49.171875 14.265625 
Q 49.171875 8.640625 49.265625 5.21875 
Q 49.3125 3.953125 50.484375 3.515625 
L 55.953125 1.859375 
L 56.0625 -0.140625 
Q 49.609375 0 44.828125 0 
Q 40.046875 0 34.1875 -0.140625 
L 33.984375 1.859375 
L 38.8125 3.265625 
Q 39.984375 3.65625 40.09375 4.78125 
Q 40.140625 5.46875 40.140625 7.859375 
L 40.140625 29.15625 
Q 40.140625 35.15625 37.25 37.765625 
Q 34.375 40.375 28.765625 40.375 
Q 23.921875 40.375 18.5625 38.03125 
L 18.5625 16.109375 
Q 18.5625 10.0625 18.65625 5.03125 
Q 18.703125 3.65625 19.875 3.328125 
L 24.953125 1.859375 
L 25.046875 -0.140625 
Q 18.890625 0 14.109375 0 
Q 9.328125 0 2.78125 -0.140625 
L 2.59375 1.859375 
L 8.109375 3.46875 
Q 9.375 3.859375 9.421875 5.03125 
Q 9.515625 9.71875 9.515625 17 
L 9.515625 37.40625 
Q 9.515625 47.359375 9.484375 55.03125 
Q 9.46875 62.703125 9.328125 66.546875 
L 2.734375 68.5 
z
" id="Constantia-104"/>
       <path d="M 27.875 41.453125 
Q 25.046875 42.234375 21.734375 42.234375 
Q 17.140625 42.234375 14.328125 40.453125 
Q 11.53125 38.671875 11.53125 35.59375 
Q 11.53125 32.625 13.359375 30.90625 
Q 15.1875 29.203125 20.171875 27.546875 
L 24.171875 26.171875 
Q 30.90625 23.875 34.046875 20.921875 
Q 37.203125 17.96875 37.203125 13.1875 
Q 37.203125 6.390625 31.921875 2.5 
Q 26.65625 -1.375 18.609375 -1.375 
Q 11.1875 -1.375 3.421875 1.65625 
Q 5.078125 8.015625 6.109375 14.0625 
L 8.015625 14.359375 
L 11.53125 3.859375 
Q 14.3125 2.78125 18.609375 2.78125 
Q 23.140625 2.78125 25.84375 4.640625 
Q 28.5625 6.5 28.5625 9.859375 
Q 28.5625 12.984375 26.734375 14.796875 
Q 24.90625 16.609375 20.90625 17.921875 
L 15.828125 19.625 
Q 9.234375 21.828125 6.71875 24.921875 
Q 4.203125 28.03125 4.203125 32.625 
Q 4.203125 39.015625 9.0625 42.703125 
Q 13.921875 46.390625 21.875 46.390625 
Q 29.296875 46.390625 35.359375 44.234375 
Q 33.984375 38.671875 32.859375 32.46875 
L 31 32.125 
z
" id="Constantia-115"/>
      </defs>
      <use xlink:href="#Constantia-78"/>
      <use x="73.402344" xlink:href="#Constantia-101"/>
      <use x="121.302734" xlink:href="#Constantia-119"/>
      <use x="194.496094" xlink:href="#Constantia-68"/>
      <use x="269.59375" xlink:href="#Constantia-101"/>
      <use x="317.494141" xlink:href="#Constantia-97"/>
      <use x="365.492188" xlink:href="#Constantia-116"/>
      <use x="400.794922" xlink:href="#Constantia-104"/>
      <use x="458.753906" xlink:href="#Constantia-115"/>
     </g>
    </g>
   </g>
  </g>
  <g id="axes_2">
   <g id="line2d_59">
    <path clip-path="url(#p9bf5281e62)" d="M 142.469892 596.614334 
L 200.351612 497.572584 
L 214.822042 630.37401 
L 229.292472 505.88723 
L 243.762901 550.819316 
L 258.233331 503.581245 
L 301.644621 353.735163 
L 316.115051 637.625158 
L 330.585481 146.735719 
L 345.055911 534.110177 
L 359.526341 561.891411 
L 373.996771 551.063132 
L 388.467201 602.434819 
L 402.937631 419.119709 
L 417.408061 619.329433 
L 431.878491 260.543833 
L 446.348921 550.271488 
L 460.819351 553.341403 
L 475.289781 600.050878 
L 489.760211 334.834496 
L 504.230641 621.121558 
L 518.701071 489.804646 
L 533.171501 584.760509 
L 547.641931 399.485555 
L 562.11236 514.010828 
L 576.58279 557.882585 
L 591.05322 555.425218 
L 605.52365 589.404195 
L 619.99408 565.700133 
L 634.46451 476.954905 
L 648.93494 477.673534 
L 677.8758 508.046956 
L 692.34623 597.173136 
L 706.81666 585.652104 
L 721.28709 602.410089 
L 735.75752 357.478512 
L 750.22795 501.335657 
L 764.69838 537.50344 
L 779.16881 567.691822 
L 793.63924 548.195698 
L 808.10967 576.888652 
L 822.5801 610.412739 
L 837.05053 341.812467 
L 851.52096 478.700831 
L 865.99139 570.168589 
L 880.461819 524.632554 
L 894.932249 580.151205 
L 909.402679 576.127686 
L 923.873109 561.064583 
L 938.343539 491.828879 
L 952.813969 512.619838 
L 967.284399 522.485661 
L 981.754829 581.632403 
L 996.225259 545.585866 
L 1025.166119 524.833764 
L 1039.636549 583.618679 
L 1054.106979 485.637461 
L 1068.577409 605.419427 
L 1083.047839 291.329577 
L 1097.518269 583.023413 
L 1111.988699 599.329147 
L 1126.459129 536.988707 
L 1140.929559 485.345296 
L 1155.399989 514.166769 
L 1169.870419 524.834799 
L 1184.340849 568.945166 
L 1198.811278 528.647695 
L 1213.281708 601.950722 
L 1227.752138 565.927759 
L 1242.222568 390.599512 
L 1256.692998 558.636425 
L 1271.163428 533.427133 
L 1285.633858 557.213192 
L 1300.104288 537.177037 
L 1314.574718 601.996344 
L 1329.045148 545.64177 
L 1343.515578 458.485238 
" style="fill:none;stroke:#f08080;stroke-dasharray:6,6;stroke-dashoffset:0;stroke-width:3;"/>
    <defs>
     <path d="M 0 3 
C 0.795609 3 1.55874 2.683901 2.12132 2.12132 
C 2.683901 1.55874 3 0.795609 3 0 
C 3 -0.795609 2.683901 -1.55874 2.12132 -2.12132 
C 1.55874 -2.683901 0.795609 -3 0 -3 
C -0.795609 -3 -1.55874 -2.683901 -2.12132 -2.12132 
C -2.683901 -1.55874 -3 -0.795609 -3 0 
C -3 0.795609 -2.683901 1.55874 -2.12132 2.12132 
C -1.55874 2.683901 -0.795609 3 0 3 
z
" id="me93f1a8bb9" style="stroke:#000000;stroke-width:0.5;"/>
    </defs>
    <g clip-path="url(#p9bf5281e62)">
     <use style="fill:#f08080;stroke:#000000;stroke-width:0.5;" x="142.469892" xlink:href="#me93f1a8bb9" y="596.614334"/>
     <use style="fill:#f08080;stroke:#000000;stroke-width:0.5;" x="200.351612" xlink:href="#me93f1a8bb9" y="497.572584"/>
     <use style="fill:#f08080;stroke:#000000;stroke-width:0.5;" x="214.822042" xlink:href="#me93f1a8bb9" y="630.37401"/>
     <use style="fill:#f08080;stroke:#000000;stroke-width:0.5;" x="229.292472" xlink:href="#me93f1a8bb9" y="505.88723"/>
     <use style="fill:#f08080;stroke:#000000;stroke-width:0.5;" x="243.762901" xlink:href="#me93f1a8bb9" y="550.819316"/>
     <use style="fill:#f08080;stroke:#000000;stroke-width:0.5;" x="258.233331" xlink:href="#me93f1a8bb9" y="503.581245"/>
     <use style="fill:#f08080;stroke:#000000;stroke-width:0.5;" x="301.644621" xlink:href="#me93f1a8bb9" y="353.735163"/>
     <use style="fill:#f08080;stroke:#000000;stroke-width:0.5;" x="316.115051" xlink:href="#me93f1a8bb9" y="637.625158"/>
     <use style="fill:#f08080;stroke:#000000;stroke-width:0.5;" x="330.585481" xlink:href="#me93f1a8bb9" y="146.735719"/>
     <use style="fill:#f08080;stroke:#000000;stroke-width:0.5;" x="345.055911" xlink:href="#me93f1a8bb9" y="534.110177"/>
     <use style="fill:#f08080;stroke:#000000;stroke-width:0.5;" x="359.526341" xlink:href="#me93f1a8bb9" y="561.891411"/>
     <use style="fill:#f08080;stroke:#000000;stroke-width:0.5;" x="373.996771" xlink:href="#me93f1a8bb9" y="551.063132"/>
     <use style="fill:#f08080;stroke:#000000;stroke-width:0.5;" x="388.467201" xlink:href="#me93f1a8bb9" y="602.434819"/>
     <use style="fill:#f08080;stroke:#000000;stroke-width:0.5;" x="402.937631" xlink:href="#me93f1a8bb9" y="419.119709"/>
     <use style="fill:#f08080;stroke:#000000;stroke-width:0.5;" x="417.408061" xlink:href="#me93f1a8bb9" y="619.329433"/>
     <use style="fill:#f08080;stroke:#000000;stroke-width:0.5;" x="431.878491" xlink:href="#me93f1a8bb9" y="260.543833"/>
     <use style="fill:#f08080;stroke:#000000;stroke-width:0.5;" x="446.348921" xlink:href="#me93f1a8bb9" y="550.271488"/>
     <use style="fill:#f08080;stroke:#000000;stroke-width:0.5;" x="460.819351" xlink:href="#me93f1a8bb9" y="553.341403"/>
     <use style="fill:#f08080;stroke:#000000;stroke-width:0.5;" x="475.289781" xlink:href="#me93f1a8bb9" y="600.050878"/>
     <use style="fill:#f08080;stroke:#000000;stroke-width:0.5;" x="489.760211" xlink:href="#me93f1a8bb9" y="334.834496"/>
     <use style="fill:#f08080;stroke:#000000;stroke-width:0.5;" x="504.230641" xlink:href="#me93f1a8bb9" y="621.121558"/>
     <use style="fill:#f08080;stroke:#000000;stroke-width:0.5;" x="518.701071" xlink:href="#me93f1a8bb9" y="489.804646"/>
     <use style="fill:#f08080;stroke:#000000;stroke-width:0.5;" x="533.171501" xlink:href="#me93f1a8bb9" y="584.760509"/>
     <use style="fill:#f08080;stroke:#000000;stroke-width:0.5;" x="547.641931" xlink:href="#me93f1a8bb9" y="399.485555"/>
     <use style="fill:#f08080;stroke:#000000;stroke-width:0.5;" x="562.11236" xlink:href="#me93f1a8bb9" y="514.010828"/>
     <use style="fill:#f08080;stroke:#000000;stroke-width:0.5;" x="576.58279" xlink:href="#me93f1a8bb9" y="557.882585"/>
     <use style="fill:#f08080;stroke:#000000;stroke-width:0.5;" x="591.05322" xlink:href="#me93f1a8bb9" y="555.425218"/>
     <use style="fill:#f08080;stroke:#000000;stroke-width:0.5;" x="605.52365" xlink:href="#me93f1a8bb9" y="589.404195"/>
     <use style="fill:#f08080;stroke:#000000;stroke-width:0.5;" x="619.99408" xlink:href="#me93f1a8bb9" y="565.700133"/>
     <use style="fill:#f08080;stroke:#000000;stroke-width:0.5;" x="634.46451" xlink:href="#me93f1a8bb9" y="476.954905"/>
     <use style="fill:#f08080;stroke:#000000;stroke-width:0.5;" x="648.93494" xlink:href="#me93f1a8bb9" y="477.673534"/>
     <use style="fill:#f08080;stroke:#000000;stroke-width:0.5;" x="677.8758" xlink:href="#me93f1a8bb9" y="508.046956"/>
     <use style="fill:#f08080;stroke:#000000;stroke-width:0.5;" x="692.34623" xlink:href="#me93f1a8bb9" y="597.173136"/>
     <use style="fill:#f08080;stroke:#000000;stroke-width:0.5;" x="706.81666" xlink:href="#me93f1a8bb9" y="585.652104"/>
     <use style="fill:#f08080;stroke:#000000;stroke-width:0.5;" x="721.28709" xlink:href="#me93f1a8bb9" y="602.410089"/>
     <use style="fill:#f08080;stroke:#000000;stroke-width:0.5;" x="735.75752" xlink:href="#me93f1a8bb9" y="357.478512"/>
     <use style="fill:#f08080;stroke:#000000;stroke-width:0.5;" x="750.22795" xlink:href="#me93f1a8bb9" y="501.335657"/>
     <use style="fill:#f08080;stroke:#000000;stroke-width:0.5;" x="764.69838" xlink:href="#me93f1a8bb9" y="537.50344"/>
     <use style="fill:#f08080;stroke:#000000;stroke-width:0.5;" x="779.16881" xlink:href="#me93f1a8bb9" y="567.691822"/>
     <use style="fill:#f08080;stroke:#000000;stroke-width:0.5;" x="793.63924" xlink:href="#me93f1a8bb9" y="548.195698"/>
     <use style="fill:#f08080;stroke:#000000;stroke-width:0.5;" x="808.10967" xlink:href="#me93f1a8bb9" y="576.888652"/>
     <use style="fill:#f08080;stroke:#000000;stroke-width:0.5;" x="822.5801" xlink:href="#me93f1a8bb9" y="610.412739"/>
     <use style="fill:#f08080;stroke:#000000;stroke-width:0.5;" x="837.05053" xlink:href="#me93f1a8bb9" y="341.812467"/>
     <use style="fill:#f08080;stroke:#000000;stroke-width:0.5;" x="851.52096" xlink:href="#me93f1a8bb9" y="478.700831"/>
     <use style="fill:#f08080;stroke:#000000;stroke-width:0.5;" x="865.99139" xlink:href="#me93f1a8bb9" y="570.168589"/>
     <use style="fill:#f08080;stroke:#000000;stroke-width:0.5;" x="880.461819" xlink:href="#me93f1a8bb9" y="524.632554"/>
     <use style="fill:#f08080;stroke:#000000;stroke-width:0.5;" x="894.932249" xlink:href="#me93f1a8bb9" y="580.151205"/>
     <use style="fill:#f08080;stroke:#000000;stroke-width:0.5;" x="909.402679" xlink:href="#me93f1a8bb9" y="576.127686"/>
     <use style="fill:#f08080;stroke:#000000;stroke-width:0.5;" x="923.873109" xlink:href="#me93f1a8bb9" y="561.064583"/>
     <use style="fill:#f08080;stroke:#000000;stroke-width:0.5;" x="938.343539" xlink:href="#me93f1a8bb9" y="491.828879"/>
     <use style="fill:#f08080;stroke:#000000;stroke-width:0.5;" x="952.813969" xlink:href="#me93f1a8bb9" y="512.619838"/>
     <use style="fill:#f08080;stroke:#000000;stroke-width:0.5;" x="967.284399" xlink:href="#me93f1a8bb9" y="522.485661"/>
     <use style="fill:#f08080;stroke:#000000;stroke-width:0.5;" x="981.754829" xlink:href="#me93f1a8bb9" y="581.632403"/>
     <use style="fill:#f08080;stroke:#000000;stroke-width:0.5;" x="996.225259" xlink:href="#me93f1a8bb9" y="545.585866"/>
     <use style="fill:#f08080;stroke:#000000;stroke-width:0.5;" x="1025.166119" xlink:href="#me93f1a8bb9" y="524.833764"/>
     <use style="fill:#f08080;stroke:#000000;stroke-width:0.5;" x="1039.636549" xlink:href="#me93f1a8bb9" y="583.618679"/>
     <use style="fill:#f08080;stroke:#000000;stroke-width:0.5;" x="1054.106979" xlink:href="#me93f1a8bb9" y="485.637461"/>
     <use style="fill:#f08080;stroke:#000000;stroke-width:0.5;" x="1068.577409" xlink:href="#me93f1a8bb9" y="605.419427"/>
     <use style="fill:#f08080;stroke:#000000;stroke-width:0.5;" x="1083.047839" xlink:href="#me93f1a8bb9" y="291.329577"/>
     <use style="fill:#f08080;stroke:#000000;stroke-width:0.5;" x="1097.518269" xlink:href="#me93f1a8bb9" y="583.023413"/>
     <use style="fill:#f08080;stroke:#000000;stroke-width:0.5;" x="1111.988699" xlink:href="#me93f1a8bb9" y="599.329147"/>
     <use style="fill:#f08080;stroke:#000000;stroke-width:0.5;" x="1126.459129" xlink:href="#me93f1a8bb9" y="536.988707"/>
     <use style="fill:#f08080;stroke:#000000;stroke-width:0.5;" x="1140.929559" xlink:href="#me93f1a8bb9" y="485.345296"/>
     <use style="fill:#f08080;stroke:#000000;stroke-width:0.5;" x="1155.399989" xlink:href="#me93f1a8bb9" y="514.166769"/>
     <use style="fill:#f08080;stroke:#000000;stroke-width:0.5;" x="1169.870419" xlink:href="#me93f1a8bb9" y="524.834799"/>
     <use style="fill:#f08080;stroke:#000000;stroke-width:0.5;" x="1184.340849" xlink:href="#me93f1a8bb9" y="568.945166"/>
     <use style="fill:#f08080;stroke:#000000;stroke-width:0.5;" x="1198.811278" xlink:href="#me93f1a8bb9" y="528.647695"/>
     <use style="fill:#f08080;stroke:#000000;stroke-width:0.5;" x="1213.281708" xlink:href="#me93f1a8bb9" y="601.950722"/>
     <use style="fill:#f08080;stroke:#000000;stroke-width:0.5;" x="1227.752138" xlink:href="#me93f1a8bb9" y="565.927759"/>
     <use style="fill:#f08080;stroke:#000000;stroke-width:0.5;" x="1242.222568" xlink:href="#me93f1a8bb9" y="390.599512"/>
     <use style="fill:#f08080;stroke:#000000;stroke-width:0.5;" x="1256.692998" xlink:href="#me93f1a8bb9" y="558.636425"/>
     <use style="fill:#f08080;stroke:#000000;stroke-width:0.5;" x="1271.163428" xlink:href="#me93f1a8bb9" y="533.427133"/>
     <use style="fill:#f08080;stroke:#000000;stroke-width:0.5;" x="1285.633858" xlink:href="#me93f1a8bb9" y="557.213192"/>
     <use style="fill:#f08080;stroke:#000000;stroke-width:0.5;" x="1300.104288" xlink:href="#me93f1a8bb9" y="537.177037"/>
     <use style="fill:#f08080;stroke:#000000;stroke-width:0.5;" x="1314.574718" xlink:href="#me93f1a8bb9" y="601.996344"/>
     <use style="fill:#f08080;stroke:#000000;stroke-width:0.5;" x="1329.045148" xlink:href="#me93f1a8bb9" y="545.64177"/>
     <use style="fill:#f08080;stroke:#000000;stroke-width:0.5;" x="1343.515578" xlink:href="#me93f1a8bb9" y="458.485238"/>
    </g>
   </g>
   <g id="patch_86">
    <path d="M 78.8 643.203 
L 78.8 69.21425 
" style="fill:none;stroke:#000000;stroke-linecap:square;stroke-linejoin:miter;"/>
   </g>
   <g id="patch_87">
    <path d="M 1349.30375 643.203 
L 1349.30375 69.21425 
" style="fill:none;stroke:#000000;stroke-linecap:square;stroke-linejoin:miter;"/>
   </g>
   <g id="patch_88">
    <path d="M 78.8 643.203 
L 1349.30375 643.203 
" style="fill:none;stroke:#000000;stroke-linecap:square;stroke-linejoin:miter;"/>
   </g>
   <g id="patch_89">
    <path d="M 78.8 69.21425 
L 1349.30375 69.21425 
" style="fill:none;stroke:#000000;stroke-linecap:square;stroke-linejoin:miter;"/>
   </g>
   <g id="matplotlib.axis_3">
    <g id="ytick_9">
     <g id="line2d_60">
      <defs>
       <path d="M 0 0 
L -4 0 
" id="m752d5bb4d6" style="stroke:#000000;stroke-width:0.5;"/>
      </defs>
      <g>
       <use style="stroke:#000000;stroke-width:0.5;" x="1349.30375" xlink:href="#m752d5bb4d6" y="643.203"/>
      </g>
     </g>
     <g id="text_25">
      <!-- 1 -->
      <g transform="translate(1353.30375 646.193625)scale(0.12 -0.12)">
       <defs>
        <path d="M 4.546875 25.484375 
L 50.640625 25.484375 
L 50.640625 19.578125 
L 4.546875 19.578125 
z
" id="Constantia-8722"/>
       </defs>
       <use xlink:href="#Constantia-8722"/>
       <use x="55.175781" xlink:href="#Constantia-49"/>
      </g>
     </g>
    </g>
    <g id="ytick_10">
     <g id="line2d_61">
      <g>
       <use style="stroke:#000000;stroke-width:0.5;" x="1349.30375" xlink:href="#m752d5bb4d6" y="547.538208"/>
      </g>
     </g>
     <g id="text_26">
      <!-- 0 -->
      <g transform="translate(1353.30375 550.528833)scale(0.12 -0.12)">
       <use xlink:href="#Constantia-48"/>
      </g>
     </g>
    </g>
    <g id="ytick_11">
     <g id="line2d_62">
      <g>
       <use style="stroke:#000000;stroke-width:0.5;" x="1349.30375" xlink:href="#m752d5bb4d6" y="451.873417"/>
      </g>
     </g>
     <g id="text_27">
      <!-- 1 -->
      <g transform="translate(1353.30375 454.864042)scale(0.12 -0.12)">
       <use xlink:href="#Constantia-49"/>
      </g>
     </g>
    </g>
    <g id="ytick_12">
     <g id="line2d_63">
      <g>
       <use style="stroke:#000000;stroke-width:0.5;" x="1349.30375" xlink:href="#m752d5bb4d6" y="356.208625"/>
      </g>
     </g>
     <g id="text_28">
      <!-- 2 -->
      <g transform="translate(1353.30375 359.19925)scale(0.12 -0.12)">
       <use xlink:href="#Constantia-50"/>
      </g>
     </g>
    </g>
    <g id="ytick_13">
     <g id="line2d_64">
      <g>
       <use style="stroke:#000000;stroke-width:0.5;" x="1349.30375" xlink:href="#m752d5bb4d6" y="260.543833"/>
      </g>
     </g>
     <g id="text_29">
      <!-- 3 -->
      <g transform="translate(1353.30375 263.534458)scale(0.12 -0.12)">
       <use xlink:href="#Constantia-51"/>
      </g>
     </g>
    </g>
    <g id="ytick_14">
     <g id="line2d_65">
      <g>
       <use style="stroke:#000000;stroke-width:0.5;" x="1349.30375" xlink:href="#m752d5bb4d6" y="164.879042"/>
      </g>
     </g>
     <g id="text_30">
      <!-- 4 -->
      <g transform="translate(1353.30375 167.869667)scale(0.12 -0.12)">
       <use xlink:href="#Constantia-52"/>
      </g>
     </g>
    </g>
    <g id="ytick_15">
     <g id="line2d_66">
      <g>
       <use style="stroke:#000000;stroke-width:0.5;" x="1349.30375" xlink:href="#m752d5bb4d6" y="69.21425"/>
      </g>
     </g>
     <g id="text_31">
      <!-- 5 -->
      <g transform="translate(1353.30375 72.204875)scale(0.12 -0.12)">
       <use xlink:href="#Constantia-53"/>
      </g>
     </g>
    </g>
   </g>
  </g>
  <g id="text_32">
   <!-- Usa -->
   <g transform="translate(669.355625 21.915625)scale(0.2 -0.2)">
    <defs>
     <path d="M 3.078125 68.359375 
Q 9.375 68.171875 15.1875 68.171875 
Q 21.046875 68.171875 27.296875 68.359375 
L 27.484375 66.265625 
L 21.4375 64.453125 
Q 20.265625 64.15625 20.171875 62.9375 
Q 20.125 61.234375 20.09375 59.203125 
Q 20.0625 57.171875 20.0625 54.78125 
L 20.0625 28.078125 
Q 20.0625 14.109375 24.5 8.71875 
Q 28.953125 3.328125 38.8125 3.328125 
Q 48.828125 3.328125 53.3125 8.890625 
Q 57.8125 14.453125 57.8125 27.484375 
L 57.8125 54.78125 
Q 57.8125 57.171875 57.78125 59.203125 
Q 57.765625 61.234375 57.671875 62.9375 
Q 57.625 64.0625 56.390625 64.453125 
L 50.6875 66.109375 
L 50.59375 68.359375 
Q 56.78125 68.171875 61.234375 68.171875 
Q 65.484375 68.171875 71.578125 68.359375 
L 71.78125 66.265625 
L 65.625 64.359375 
Q 64.5 63.96875 64.453125 62.703125 
Q 64.40625 61.078125 64.375 59.078125 
Q 64.359375 57.078125 64.359375 54.59375 
L 64.359375 29.546875 
Q 64.359375 13.53125 57.828125 5.859375 
Q 51.3125 -1.8125 37.3125 -1.8125 
Q 23.578125 -1.8125 17.03125 5.09375 
Q 10.5 12.015625 10.5 26.5625 
L 10.5 54.59375 
Q 10.5 57.078125 10.46875 59.078125 
Q 10.453125 61.078125 10.40625 62.703125 
Q 10.359375 63.96875 9.234375 64.359375 
L 3.171875 66.265625 
z
" id="Constantia-85"/>
    </defs>
    <use xlink:href="#Constantia-85"/>
    <use x="72.365234" xlink:href="#Constantia-115"/>
    <use x="112.84375" xlink:href="#Constantia-97"/>
   </g>
   <!-- Daily increase of NewDeaths -->
   <g transform="translate(561.569687 44.32125)scale(0.2 -0.2)">
    <defs>
     <path d="M 19.34375 63.671875 
Q 19.34375 61.078125 17.71875 59.4375 
Q 16.109375 57.8125 13.578125 57.8125 
Q 11.140625 57.8125 9.59375 59.328125 
Q 8.0625 60.84375 8.0625 63.328125 
Q 8.0625 65.96875 9.671875 67.5 
Q 11.28125 69.046875 13.921875 69.046875 
Q 16.3125 69.046875 17.828125 67.65625 
Q 19.34375 66.265625 19.34375 63.671875 
z
M 2.828125 42.96875 
Q 11.375 44.578125 18.65625 46.390625 
L 19.09375 46.046875 
Q 18.796875 39.703125 18.796875 32.078125 
L 18.796875 13.328125 
Q 18.796875 7.46875 18.890625 5.21875 
Q 19 3.90625 20.125 3.515625 
L 25.78125 1.859375 
L 25.875 -0.140625 
Q 19.140625 0 14.359375 0 
Q 9.578125 0 2.984375 -0.140625 
L 2.78125 1.859375 
L 8.453125 3.515625 
Q 9.578125 3.90625 9.671875 5.03125 
Q 9.765625 6.9375 9.765625 11.421875 
L 9.765625 27.734375 
Q 9.765625 34.125 9.578125 39.546875 
L 3.078125 41.3125 
z
" id="Constantia-105"/>
     <path d="M 2.734375 68.5 
L 2.484375 70.125 
Q 11.140625 71.78125 18.40625 73.578125 
L 18.84375 73.1875 
Q 18.5625 65.234375 18.5625 51.078125 
L 18.5625 19.28125 
Q 18.5625 10.546875 18.65625 5.21875 
Q 18.796875 3.8125 20.015625 3.46875 
L 25.34375 1.859375 
L 25.484375 -0.140625 
Q 18.890625 0 14.109375 0 
Q 9.328125 0 2.78125 -0.140625 
L 2.59375 1.859375 
L 8.109375 3.46875 
Q 9.328125 3.859375 9.421875 5.03125 
Q 9.515625 10.546875 9.515625 17.328125 
L 9.515625 37.40625 
Q 9.515625 55.5625 9.328125 66.546875 
z
" id="Constantia-108"/>
     <path d="M -1.703125 45.265625 
Q 4.4375 45.125 9.234375 45.125 
Q 12.5 45.125 19.671875 45.265625 
L 19.875 43.265625 
L 14.15625 41.703125 
Q 15.96875 36.578125 18.359375 30.390625 
Q 20.75 24.21875 23.4375 17.53125 
Q 24.5625 14.75 25.875 11.140625 
Q 27.25 14.796875 28.8125 18.609375 
Q 31.109375 24.265625 33.25 29.75 
Q 35.40625 35.25 37.703125 41.703125 
L 32.125 43.265625 
L 31.9375 45.265625 
Q 35.546875 45.125 40.375 45.125 
Q 44.734375 45.125 48.828125 45.265625 
L 49.078125 43.265625 
L 44.53125 42 
Q 43.015625 41.5 42.328125 39.984375 
Q 40.53125 35.84375 38.421875 30.90625 
Q 31.984375 15.765625 28.65625 6.109375 
Q 26.421875 -0.4375 24.609375 -7.296875 
Q 22.796875 -14.15625 21.828125 -19.09375 
Q 21.390625 -21.484375 20.046875 -22.71875 
Q 18.703125 -23.96875 13.765625 -23.96875 
Q 8.734375 -23.96875 4 -23.640625 
L 3.765625 -21.734375 
Q 9.125 -20.90625 11.71875 -18.265625 
Q 14.84375 -14.890625 21.390625 -0.34375 
L 21.78125 0.59375 
L 21.09375 0.78125 
Q 12.15625 23.046875 4.9375 39.9375 
Q 4.296875 41.40625 2.6875 41.9375 
L -1.609375 43.265625 
z
" id="Constantia-121"/>
     <path id="Constantia-32"/>
     <path d="M 2.828125 42.96875 
Q 10.984375 44.53125 18.3125 46.390625 
L 18.796875 46.046875 
L 18.796875 40.328125 
Q 27.828125 46.390625 36.53125 46.390625 
L 36.765625 46.09375 
Q 35.359375 38.8125 33.984375 31 
L 32.03125 30.671875 
Q 30.671875 34.8125 29.390625 37.328125 
Q 28.125 39.84375 25.390625 39.84375 
Q 22.75 39.84375 18.796875 37.40625 
L 18.796875 16.265625 
Q 18.796875 8.640625 18.890625 5.375 
Q 18.953125 4.046875 20.125 3.71875 
L 26.609375 1.859375 
L 26.765625 -0.140625 
Q 19.140625 0 14.359375 0 
Q 9.578125 0 3.03125 -0.140625 
L 2.828125 1.859375 
L 8.5 3.515625 
Q 9.671875 3.90625 9.71875 5.03125 
Q 9.765625 7.125 9.765625 11.03125 
L 9.765625 27.6875 
Q 9.765625 35.640625 9.578125 39.546875 
L 3.078125 41.3125 
z
" id="Constantia-114"/>
     <path d="M 18.796875 39.9375 
L 18.796875 13.421875 
Q 18.796875 8.84375 18.890625 5.375 
Q 19 4.046875 20.171875 3.71875 
L 26.375 1.859375 
L 26.515625 -0.140625 
Q 19.140625 0 14.40625 0 
Q 9.578125 0 3.03125 -0.140625 
L 2.78125 1.859375 
L 8.25 3.421875 
Q 9.625 3.859375 9.671875 5.03125 
Q 9.765625 8.0625 9.765625 11.421875 
L 9.765625 40.1875 
L 3.125 41.84375 
L 2.78125 43.890625 
L 9.8125 44.484375 
L 9.8125 44.671875 
Q 9.8125 58.453125 15.796875 66.015625 
Q 21.78125 73.578125 31.84375 73.578125 
Q 36.765625 73.578125 41.359375 72.359375 
Q 39.703125 66.40625 38.53125 60.109375 
L 36.46875 59.71875 
L 33.296875 69.484375 
Q 32.171875 69.625 30.46875 69.625 
Q 24.859375 69.625 21.828125 64.59375 
Q 18.796875 59.578125 18.796875 46.1875 
L 18.796875 44.578125 
L 30.953125 44.578125 
L 30.953125 39.9375 
z
" id="Constantia-102"/>
    </defs>
    <use xlink:href="#Constantia-68"/>
    <use x="73.847656" xlink:href="#Constantia-97"/>
    <use x="121.845703" xlink:href="#Constantia-105"/>
    <use x="150.166016" xlink:href="#Constantia-108"/>
    <use x="178.242188" xlink:href="#Constantia-121"/>
    <use x="226.386719" xlink:href="#Constantia-32"/>
    <use x="251.484375" xlink:href="#Constantia-105"/>
    <use x="279.804688" xlink:href="#Constantia-110"/>
    <use x="338.007812" xlink:href="#Constantia-99"/>
    <use x="384.150391" xlink:href="#Constantia-114"/>
    <use x="422.480469" xlink:href="#Constantia-101"/>
    <use x="470.380859" xlink:href="#Constantia-97"/>
    <use x="518.378906" xlink:href="#Constantia-115"/>
    <use x="558.857422" xlink:href="#Constantia-101"/>
    <use x="606.757812" xlink:href="#Constantia-32"/>
    <use x="629.355469" xlink:href="#Constantia-111"/>
    <use x="683.408203" xlink:href="#Constantia-102"/>
    <use x="714.365234" xlink:href="#Constantia-32"/>
    <use x="739.462891" xlink:href="#Constantia-78"/>
    <use x="812.865234" xlink:href="#Constantia-101"/>
    <use x="860.765625" xlink:href="#Constantia-119"/>
    <use x="933.958984" xlink:href="#Constantia-68"/>
    <use x="1009.056641" xlink:href="#Constantia-101"/>
    <use x="1056.957031" xlink:href="#Constantia-97"/>
    <use x="1104.955078" xlink:href="#Constantia-116"/>
    <use x="1140.257812" xlink:href="#Constantia-104"/>
    <use x="1198.216797" xlink:href="#Constantia-115"/>
   </g>
  </g>
 </g>
 <defs>
  <clipPath id="p9bf5281e62">
   <rect height="573.98875" width="1270.50375" x="78.8" y="69.21425"/>
  </clipPath>
 </defs>
</svg>
