<?xml version="1.0" encoding="utf-8" standalone="no"?>
<!DOCTYPE svg PUBLIC "-//W3C//DTD SVG 1.1//EN"
  "http://www.w3.org/Graphics/SVG/1.1/DTD/svg11.dtd">
<!-- Created with matplotlib (https://matplotlib.org/) -->
<svg height="763.488pt" version="1.1" viewBox="0 0 1370.88 763.488" width="1370.88pt" xmlns="http://www.w3.org/2000/svg" xmlns:xlink="http://www.w3.org/1999/xlink">
 <metadata>
  <rdf:RDF xmlns:cc="http://creativecommons.org/ns#" xmlns:dc="http://purl.org/dc/elements/1.1/" xmlns:rdf="http://www.w3.org/1999/02/22-rdf-syntax-ns#">
   <cc:Work>
    <dc:type rdf:resource="http://purl.org/dc/dcmitype/StillImage"/>
    <dc:date>2020-11-15T18:53:09.086462</dc:date>
    <dc:format>image/svg+xml</dc:format>
    <dc:creator>
     <cc:Agent>
      <dc:title>Matplotlib v3.3.2, https://matplotlib.org/</dc:title>
     </cc:Agent>
    </dc:creator>
   </cc:Work>
  </rdf:RDF>
 </metadata>
 <defs>
  <style type="text/css">*{stroke-linecap:butt;stroke-linejoin:round;}</style>
 </defs>
 <g id="figure_1">
  <g id="patch_1">
   <path d="M 0 763.488 
L 1370.88 763.488 
L 1370.88 0 
L 0 0 
z
" style="fill:#ffffff;"/>
  </g>
  <g id="axes_1">
   <g id="patch_2">
    <path d="M 78.8 643.203 
L 1363.68 643.203 
L 1363.68 69.21425 
L 78.8 69.21425 
z
" style="fill:#ffffff;"/>
   </g>
   <g id="patch_3">
    <path clip-path="url(#pea1b0fd17f)" d="M 0 0 
z
" style="fill:#ffa500;stroke:#000000;stroke-linejoin:miter;"/>
   </g>
   <g id="patch_4">
    <path clip-path="url(#pea1b0fd17f)" d="M 78.8 643.203 
L 89.203887 643.203 
L 89.203887 107.097508 
L 78.8 107.097508 
z
" style="fill:#ffa500;stroke:#000000;stroke-linejoin:miter;"/>
   </g>
   <g id="patch_5">
    <path clip-path="url(#pea1b0fd17f)" d="M 130.819433 643.203 
L 141.22332 643.203 
L 141.22332 382.120117 
L 130.819433 382.120117 
z
" style="fill:#ffa500;stroke:#000000;stroke-linejoin:miter;"/>
   </g>
   <g id="patch_6">
    <path clip-path="url(#pea1b0fd17f)" d="M 182.838866 643.203 
L 193.242753 643.203 
L 193.242753 245.75679 
L 182.838866 245.75679 
z
" style="fill:#ffa500;stroke:#000000;stroke-linejoin:miter;"/>
   </g>
   <g id="patch_7">
    <path clip-path="url(#pea1b0fd17f)" d="M 195.843725 643.203 
L 206.247611 643.203 
L 206.247611 589.904045 
L 195.843725 589.904045 
z
" style="fill:#ffa500;stroke:#000000;stroke-linejoin:miter;"/>
   </g>
   <g id="patch_8">
    <path clip-path="url(#pea1b0fd17f)" d="M 208.848583 643.203 
L 219.25247 643.203 
L 219.25247 566.698499 
L 208.848583 566.698499 
z
" style="fill:#ffa500;stroke:#000000;stroke-linejoin:miter;"/>
   </g>
   <g id="patch_9">
    <path clip-path="url(#pea1b0fd17f)" d="M 221.853441 643.203 
L 232.257328 643.203 
L 232.257328 569.322448 
L 221.853441 569.322448 
z
" style="fill:#ffa500;stroke:#000000;stroke-linejoin:miter;"/>
   </g>
   <g id="patch_10">
    <path clip-path="url(#pea1b0fd17f)" d="M 234.8583 643.203 
L 245.262186 643.203 
L 245.262186 535.375113 
L 234.8583 535.375113 
z
" style="fill:#ffa500;stroke:#000000;stroke-linejoin:miter;"/>
   </g>
   <g id="patch_11">
    <path clip-path="url(#pea1b0fd17f)" d="M 273.872874 643.203 
L 284.276761 643.203 
L 284.276761 316.931395 
L 273.872874 316.931395 
z
" style="fill:#ffa500;stroke:#000000;stroke-linejoin:miter;"/>
   </g>
   <g id="patch_12">
    <path clip-path="url(#pea1b0fd17f)" d="M 286.877733 643.203 
L 297.281619 643.203 
L 297.281619 624.179373 
L 286.877733 624.179373 
z
" style="fill:#ffa500;stroke:#000000;stroke-linejoin:miter;"/>
   </g>
   <g id="patch_13">
    <path clip-path="url(#pea1b0fd17f)" d="M 299.882591 643.203 
L 310.286478 643.203 
L 310.286478 544.476935 
L 299.882591 544.476935 
z
" style="fill:#ffa500;stroke:#000000;stroke-linejoin:miter;"/>
   </g>
   <g id="patch_14">
    <path clip-path="url(#pea1b0fd17f)" d="M 312.887449 643.203 
L 323.291336 643.203 
L 323.291336 530.619207 
L 312.887449 530.619207 
z
" style="fill:#ffa500;stroke:#000000;stroke-linejoin:miter;"/>
   </g>
   <g id="patch_15">
    <path clip-path="url(#pea1b0fd17f)" d="M 325.892308 643.203 
L 336.296194 643.203 
L 336.296194 547.510876 
L 325.892308 547.510876 
z
" style="fill:#ffa500;stroke:#000000;stroke-linejoin:miter;"/>
   </g>
   <g id="patch_16">
    <path clip-path="url(#pea1b0fd17f)" d="M 338.897166 643.203 
L 349.301053 643.203 
L 349.301053 551.036806 
L 338.897166 551.036806 
z
" style="fill:#ffa500;stroke:#000000;stroke-linejoin:miter;"/>
   </g>
   <g id="patch_17">
    <path clip-path="url(#pea1b0fd17f)" d="M 351.902024 643.203 
L 362.305911 643.203 
L 362.305911 603.92577 
L 351.902024 603.92577 
z
" style="fill:#ffa500;stroke:#000000;stroke-linejoin:miter;"/>
   </g>
   <g id="patch_18">
    <path clip-path="url(#pea1b0fd17f)" d="M 364.906883 643.203 
L 375.310769 643.203 
L 375.310769 551.200803 
L 364.906883 551.200803 
z
" style="fill:#ffa500;stroke:#000000;stroke-linejoin:miter;"/>
   </g>
   <g id="patch_19">
    <path clip-path="url(#pea1b0fd17f)" d="M 377.911741 643.203 
L 388.315628 643.203 
L 388.315628 620.24345 
L 377.911741 620.24345 
z
" style="fill:#ffa500;stroke:#000000;stroke-linejoin:miter;"/>
   </g>
   <g id="patch_20">
    <path clip-path="url(#pea1b0fd17f)" d="M 390.916599 643.203 
L 401.320486 643.203 
L 401.320486 551.3648 
L 390.916599 551.3648 
z
" style="fill:#ffa500;stroke:#000000;stroke-linejoin:miter;"/>
   </g>
   <g id="patch_21">
    <path clip-path="url(#pea1b0fd17f)" d="M 403.921457 643.203 
L 414.325344 643.203 
L 414.325344 553.988749 
L 403.921457 553.988749 
z
" style="fill:#ffa500;stroke:#000000;stroke-linejoin:miter;"/>
   </g>
   <g id="patch_22">
    <path clip-path="url(#pea1b0fd17f)" d="M 416.926316 643.203 
L 427.330202 643.203 
L 427.330202 559.400643 
L 416.926316 559.400643 
z
" style="fill:#ffa500;stroke:#000000;stroke-linejoin:miter;"/>
   </g>
   <g id="patch_23">
    <path clip-path="url(#pea1b0fd17f)" d="M 429.931174 643.203 
L 440.335061 643.203 
L 440.335061 605.401741 
L 429.931174 605.401741 
z
" style="fill:#ffa500;stroke:#000000;stroke-linejoin:miter;"/>
   </g>
   <g id="patch_24">
    <path clip-path="url(#pea1b0fd17f)" d="M 442.936032 643.203 
L 453.339919 643.203 
L 453.339919 521.353388 
L 442.936032 521.353388 
z
" style="fill:#ffa500;stroke:#000000;stroke-linejoin:miter;"/>
   </g>
   <g id="patch_25">
    <path clip-path="url(#pea1b0fd17f)" d="M 455.940891 643.203 
L 466.344777 643.203 
L 466.344777 615.077551 
L 455.940891 615.077551 
z
" style="fill:#ffa500;stroke:#000000;stroke-linejoin:miter;"/>
   </g>
   <g id="patch_26">
    <path clip-path="url(#pea1b0fd17f)" d="M 468.945749 643.203 
L 479.349636 643.203 
L 479.349636 598.103884 
L 468.945749 598.103884 
z
" style="fill:#ffa500;stroke:#000000;stroke-linejoin:miter;"/>
   </g>
   <g id="patch_27">
    <path clip-path="url(#pea1b0fd17f)" d="M 481.950607 643.203 
L 492.354494 643.203 
L 492.354494 615.65154 
L 481.950607 615.65154 
z
" style="fill:#ffa500;stroke:#000000;stroke-linejoin:miter;"/>
   </g>
   <g id="patch_28">
    <path clip-path="url(#pea1b0fd17f)" d="M 494.955466 643.203 
L 505.359352 643.203 
L 505.359352 573.012376 
L 494.955466 573.012376 
z
" style="fill:#ffa500;stroke:#000000;stroke-linejoin:miter;"/>
   </g>
   <g id="patch_29">
    <path clip-path="url(#pea1b0fd17f)" d="M 507.960324 643.203 
L 518.364211 643.203 
L 518.364211 548.412858 
L 507.960324 548.412858 
z
" style="fill:#ffa500;stroke:#000000;stroke-linejoin:miter;"/>
   </g>
   <g id="patch_30">
    <path clip-path="url(#pea1b0fd17f)" d="M 520.965182 643.203 
L 531.369069 643.203 
L 531.369069 558.662657 
L 520.965182 558.662657 
z
" style="fill:#ffa500;stroke:#000000;stroke-linejoin:miter;"/>
   </g>
   <g id="patch_31">
    <path clip-path="url(#pea1b0fd17f)" d="M 533.97004 643.203 
L 544.373927 643.203 
L 544.373927 565.63252 
L 533.97004 565.63252 
z
" style="fill:#ffa500;stroke:#000000;stroke-linejoin:miter;"/>
   </g>
   <g id="patch_32">
    <path clip-path="url(#pea1b0fd17f)" d="M 546.974899 643.203 
L 557.378785 643.203 
L 557.378785 599.579855 
L 546.974899 599.579855 
z
" style="fill:#ffa500;stroke:#000000;stroke-linejoin:miter;"/>
   </g>
   <g id="patch_33">
    <path clip-path="url(#pea1b0fd17f)" d="M 559.979757 643.203 
L 570.383644 643.203 
L 570.383644 607.861693 
L 559.979757 607.861693 
z
" style="fill:#ffa500;stroke:#000000;stroke-linejoin:miter;"/>
   </g>
   <g id="patch_34">
    <path clip-path="url(#pea1b0fd17f)" d="M 572.984615 643.203 
L 583.388502 643.203 
L 583.388502 581.786204 
L 572.984615 581.786204 
z
" style="fill:#ffa500;stroke:#000000;stroke-linejoin:miter;"/>
   </g>
   <g id="patch_35">
    <path clip-path="url(#pea1b0fd17f)" d="M 585.989474 643.203 
L 596.39336 643.203 
L 596.39336 536.933083 
L 585.989474 536.933083 
z
" style="fill:#ffa500;stroke:#000000;stroke-linejoin:miter;"/>
   </g>
   <g id="patch_36">
    <path clip-path="url(#pea1b0fd17f)" d="M 611.99919 643.203 
L 622.403077 643.203 
L 622.403077 493.063943 
L 611.99919 493.063943 
z
" style="fill:#ffa500;stroke:#000000;stroke-linejoin:miter;"/>
   </g>
   <g id="patch_37">
    <path clip-path="url(#pea1b0fd17f)" d="M 625.004049 643.203 
L 635.407935 643.203 
L 635.407935 570.962416 
L 625.004049 570.962416 
z
" style="fill:#ffa500;stroke:#000000;stroke-linejoin:miter;"/>
   </g>
   <g id="patch_38">
    <path clip-path="url(#pea1b0fd17f)" d="M 638.008907 643.203 
L 648.412794 643.203 
L 648.412794 599.743852 
L 638.008907 599.743852 
z
" style="fill:#ffa500;stroke:#000000;stroke-linejoin:miter;"/>
   </g>
   <g id="patch_39">
    <path clip-path="url(#pea1b0fd17f)" d="M 651.013765 643.203 
L 661.417652 643.203 
L 661.417652 624.671363 
L 651.013765 624.671363 
z
" style="fill:#ffa500;stroke:#000000;stroke-linejoin:miter;"/>
   </g>
   <g id="patch_40">
    <path clip-path="url(#pea1b0fd17f)" d="M 664.018623 643.203 
L 674.42251 643.203 
L 674.42251 587.854085 
L 664.018623 587.854085 
z
" style="fill:#ffa500;stroke:#000000;stroke-linejoin:miter;"/>
   </g>
   <g id="patch_41">
    <path clip-path="url(#pea1b0fd17f)" d="M 677.023482 643.203 
L 687.427368 643.203 
L 687.427368 561.122609 
L 677.023482 561.122609 
z
" style="fill:#ffa500;stroke:#000000;stroke-linejoin:miter;"/>
   </g>
   <g id="patch_42">
    <path clip-path="url(#pea1b0fd17f)" d="M 690.02834 643.203 
L 700.432227 643.203 
L 700.432227 552.512777 
L 690.02834 552.512777 
z
" style="fill:#ffa500;stroke:#000000;stroke-linejoin:miter;"/>
   </g>
   <g id="patch_43">
    <path clip-path="url(#pea1b0fd17f)" d="M 703.033198 643.203 
L 713.437085 643.203 
L 713.437085 571.618403 
L 703.033198 571.618403 
z
" style="fill:#ffa500;stroke:#000000;stroke-linejoin:miter;"/>
   </g>
   <g id="patch_44">
    <path clip-path="url(#pea1b0fd17f)" d="M 716.038057 643.203 
L 726.441943 643.203 
L 726.441943 572.110393 
L 716.038057 572.110393 
z
" style="fill:#ffa500;stroke:#000000;stroke-linejoin:miter;"/>
   </g>
   <g id="patch_45">
    <path clip-path="url(#pea1b0fd17f)" d="M 729.042915 643.203 
L 739.446802 643.203 
L 739.446802 593.921966 
L 729.042915 593.921966 
z
" style="fill:#ffa500;stroke:#000000;stroke-linejoin:miter;"/>
   </g>
   <g id="patch_46">
    <path clip-path="url(#pea1b0fd17f)" d="M 742.047773 643.203 
L 752.45166 643.203 
L 752.45166 626.311331 
L 742.047773 626.311331 
z
" style="fill:#ffa500;stroke:#000000;stroke-linejoin:miter;"/>
   </g>
   <g id="patch_47">
    <path clip-path="url(#pea1b0fd17f)" d="M 755.052632 643.203 
L 765.456518 643.203 
L 765.456518 589.986043 
L 755.052632 589.986043 
z
" style="fill:#ffa500;stroke:#000000;stroke-linejoin:miter;"/>
   </g>
   <g id="patch_48">
    <path clip-path="url(#pea1b0fd17f)" d="M 768.05749 643.203 
L 778.461377 643.203 
L 778.461377 551.692794 
L 768.05749 551.692794 
z
" style="fill:#ffa500;stroke:#000000;stroke-linejoin:miter;"/>
   </g>
   <g id="patch_49">
    <path clip-path="url(#pea1b0fd17f)" d="M 781.062348 643.203 
L 791.466235 643.203 
L 791.466235 573.340369 
L 781.062348 573.340369 
z
" style="fill:#ffa500;stroke:#000000;stroke-linejoin:miter;"/>
   </g>
   <g id="patch_50">
    <path clip-path="url(#pea1b0fd17f)" d="M 794.067206 643.203 
L 804.471093 643.203 
L 804.471093 556.612697 
L 794.067206 556.612697 
z
" style="fill:#ffa500;stroke:#000000;stroke-linejoin:miter;"/>
   </g>
   <g id="patch_51">
    <path clip-path="url(#pea1b0fd17f)" d="M 807.072065 643.203 
L 817.475951 643.203 
L 817.475951 586.132119 
L 807.072065 586.132119 
z
" style="fill:#ffa500;stroke:#000000;stroke-linejoin:miter;"/>
   </g>
   <g id="patch_52">
    <path clip-path="url(#pea1b0fd17f)" d="M 820.076923 643.203 
L 830.48081 643.203 
L 830.48081 603.187784 
L 820.076923 603.187784 
z
" style="fill:#ffa500;stroke:#000000;stroke-linejoin:miter;"/>
   </g>
   <g id="patch_53">
    <path clip-path="url(#pea1b0fd17f)" d="M 833.081781 643.203 
L 843.485668 643.203 
L 843.485668 608.845673 
L 833.081781 608.845673 
z
" style="fill:#ffa500;stroke:#000000;stroke-linejoin:miter;"/>
   </g>
   <g id="patch_54">
    <path clip-path="url(#pea1b0fd17f)" d="M 846.08664 643.203 
L 856.490526 643.203 
L 856.490526 588.838066 
L 846.08664 588.838066 
z
" style="fill:#ffa500;stroke:#000000;stroke-linejoin:miter;"/>
   </g>
   <g id="patch_55">
    <path clip-path="url(#pea1b0fd17f)" d="M 859.091498 643.203 
L 869.495385 643.203 
L 869.495385 568.994454 
L 859.091498 568.994454 
z
" style="fill:#ffa500;stroke:#000000;stroke-linejoin:miter;"/>
   </g>
   <g id="patch_56">
    <path clip-path="url(#pea1b0fd17f)" d="M 872.096356 643.203 
L 882.500243 643.203 
L 882.500243 549.560835 
L 872.096356 549.560835 
z
" style="fill:#ffa500;stroke:#000000;stroke-linejoin:miter;"/>
   </g>
   <g id="patch_57">
    <path clip-path="url(#pea1b0fd17f)" d="M 885.101215 643.203 
L 895.505101 643.203 
L 895.505101 582.934181 
L 885.101215 582.934181 
z
" style="fill:#ffa500;stroke:#000000;stroke-linejoin:miter;"/>
   </g>
   <g id="patch_58">
    <path clip-path="url(#pea1b0fd17f)" d="M 898.106073 643.203 
L 908.50996 643.203 
L 908.50996 581.704205 
L 898.106073 581.704205 
z
" style="fill:#ffa500;stroke:#000000;stroke-linejoin:miter;"/>
   </g>
   <g id="patch_59">
    <path clip-path="url(#pea1b0fd17f)" d="M 924.115789 643.203 
L 934.519676 643.203 
L 934.519676 567.108491 
L 924.115789 567.108491 
z
" style="fill:#ffa500;stroke:#000000;stroke-linejoin:miter;"/>
   </g>
   <g id="patch_60">
    <path clip-path="url(#pea1b0fd17f)" d="M 937.120648 643.203 
L 947.524534 643.203 
L 947.524534 595.807929 
L 937.120648 595.807929 
z
" style="fill:#ffa500;stroke:#000000;stroke-linejoin:miter;"/>
   </g>
   <g id="patch_61">
    <path clip-path="url(#pea1b0fd17f)" d="M 950.125506 643.203 
L 960.529393 643.203 
L 960.529393 565.14053 
L 950.125506 565.14053 
z
" style="fill:#ffa500;stroke:#000000;stroke-linejoin:miter;"/>
   </g>
   <g id="patch_62">
    <path clip-path="url(#pea1b0fd17f)" d="M 963.130364 643.203 
L 973.534251 643.203 
L 973.534251 612.371604 
L 963.130364 612.371604 
z
" style="fill:#ffa500;stroke:#000000;stroke-linejoin:miter;"/>
   </g>
   <g id="patch_63">
    <path clip-path="url(#pea1b0fd17f)" d="M 976.135223 643.203 
L 986.539109 643.203 
L 986.539109 529.799223 
L 976.135223 529.799223 
z
" style="fill:#ffa500;stroke:#000000;stroke-linejoin:miter;"/>
   </g>
   <g id="patch_64">
    <path clip-path="url(#pea1b0fd17f)" d="M 989.140081 643.203 
L 999.543968 643.203 
L 999.543968 571.864398 
L 989.140081 571.864398 
z
" style="fill:#ffa500;stroke:#000000;stroke-linejoin:miter;"/>
   </g>
   <g id="patch_65">
    <path clip-path="url(#pea1b0fd17f)" d="M 1002.144939 643.203 
L 1012.548826 643.203 
L 1012.548826 610.485641 
L 1002.144939 610.485641 
z
" style="fill:#ffa500;stroke:#000000;stroke-linejoin:miter;"/>
   </g>
   <g id="patch_66">
    <path clip-path="url(#pea1b0fd17f)" d="M 1015.149798 643.203 
L 1025.553684 643.203 
L 1025.553684 606.877712 
L 1015.149798 606.877712 
z
" style="fill:#ffa500;stroke:#000000;stroke-linejoin:miter;"/>
   </g>
   <g id="patch_67">
    <path clip-path="url(#pea1b0fd17f)" d="M 1028.154656 643.203 
L 1038.558543 643.203 
L 1038.558543 583.262175 
L 1028.154656 583.262175 
z
" style="fill:#ffa500;stroke:#000000;stroke-linejoin:miter;"/>
   </g>
   <g id="patch_68">
    <path clip-path="url(#pea1b0fd17f)" d="M 1041.159514 643.203 
L 1051.563401 643.203 
L 1051.563401 562.352585 
L 1041.159514 562.352585 
z
" style="fill:#ffa500;stroke:#000000;stroke-linejoin:miter;"/>
   </g>
   <g id="patch_69">
    <path clip-path="url(#pea1b0fd17f)" d="M 1054.164372 643.203 
L 1064.568259 643.203 
L 1064.568259 543.164961 
L 1054.164372 543.164961 
z
" style="fill:#ffa500;stroke:#000000;stroke-linejoin:miter;"/>
   </g>
   <g id="patch_70">
    <path clip-path="url(#pea1b0fd17f)" d="M 1067.169231 643.203 
L 1077.573117 643.203 
L 1077.573117 565.550522 
L 1067.169231 565.550522 
z
" style="fill:#ffa500;stroke:#000000;stroke-linejoin:miter;"/>
   </g>
   <g id="patch_71">
    <path clip-path="url(#pea1b0fd17f)" d="M 1080.174089 643.203 
L 1090.577976 643.203 
L 1090.577976 550.216823 
L 1080.174089 550.216823 
z
" style="fill:#ffa500;stroke:#000000;stroke-linejoin:miter;"/>
   </g>
   <g id="patch_72">
    <path clip-path="url(#pea1b0fd17f)" d="M 1093.178947 643.203 
L 1103.582834 643.203 
L 1103.582834 603.105786 
L 1093.178947 603.105786 
z
" style="fill:#ffa500;stroke:#000000;stroke-linejoin:miter;"/>
   </g>
   <g id="patch_73">
    <path clip-path="url(#pea1b0fd17f)" d="M 1106.183806 643.203 
L 1116.587692 643.203 
L 1116.587692 610.813635 
L 1106.183806 610.813635 
z
" style="fill:#ffa500;stroke:#000000;stroke-linejoin:miter;"/>
   </g>
   <g id="patch_74">
    <path clip-path="url(#pea1b0fd17f)" d="M 1119.188664 643.203 
L 1129.592551 643.203 
L 1129.592551 557.678676 
L 1119.188664 557.678676 
z
" style="fill:#ffa500;stroke:#000000;stroke-linejoin:miter;"/>
   </g>
   <g id="patch_75">
    <path clip-path="url(#pea1b0fd17f)" d="M 1132.193522 643.203 
L 1142.597409 643.203 
L 1142.597409 567.600482 
L 1132.193522 567.600482 
z
" style="fill:#ffa500;stroke:#000000;stroke-linejoin:miter;"/>
   </g>
   <g id="patch_76">
    <path clip-path="url(#pea1b0fd17f)" d="M 1145.198381 643.203 
L 1155.602267 643.203 
L 1155.602267 556.4487 
L 1145.198381 556.4487 
z
" style="fill:#ffa500;stroke:#000000;stroke-linejoin:miter;"/>
   </g>
   <g id="patch_77">
    <path clip-path="url(#pea1b0fd17f)" d="M 1158.203239 643.203 
L 1168.607126 643.203 
L 1168.607126 565.222528 
L 1158.203239 565.222528 
z
" style="fill:#ffa500;stroke:#000000;stroke-linejoin:miter;"/>
   </g>
   <g id="patch_78">
    <path clip-path="url(#pea1b0fd17f)" d="M 1171.208097 643.203 
L 1181.611984 643.203 
L 1181.611984 556.776694 
L 1171.208097 556.776694 
z
" style="fill:#ffa500;stroke:#000000;stroke-linejoin:miter;"/>
   </g>
   <g id="patch_79">
    <path clip-path="url(#pea1b0fd17f)" d="M 1184.212955 643.203 
L 1194.616842 643.203 
L 1194.616842 605.97573 
L 1184.212955 605.97573 
z
" style="fill:#ffa500;stroke:#000000;stroke-linejoin:miter;"/>
   </g>
   <g id="patch_80">
    <path clip-path="url(#pea1b0fd17f)" d="M 1197.217814 643.203 
L 1207.6217 643.203 
L 1207.6217 605.237744 
L 1197.217814 605.237744 
z
" style="fill:#ffa500;stroke:#000000;stroke-linejoin:miter;"/>
   </g>
   <g id="patch_81">
    <path clip-path="url(#pea1b0fd17f)" d="M 1210.222672 643.203 
L 1220.626559 643.203 
L 1220.626559 569.896437 
L 1210.222672 569.896437 
z
" style="fill:#ffa500;stroke:#000000;stroke-linejoin:miter;"/>
   </g>
   <g id="patch_82">
    <path clip-path="url(#pea1b0fd17f)" d="M 1223.22753 643.203 
L 1233.631417 643.203 
L 1233.631417 509.54562 
L 1223.22753 509.54562 
z
" style="fill:#ffa500;stroke:#000000;stroke-linejoin:miter;"/>
   </g>
   <g id="patch_83">
    <path clip-path="url(#pea1b0fd17f)" d="M 1236.232389 643.203 
L 1246.636275 643.203 
L 1246.636275 541.852986 
L 1236.232389 541.852986 
z
" style="fill:#ffa500;stroke:#000000;stroke-linejoin:miter;"/>
   </g>
   <g id="patch_84">
    <path clip-path="url(#pea1b0fd17f)" d="M 1249.237247 643.203 
L 1259.641134 643.203 
L 1259.641134 539.475033 
L 1249.237247 539.475033 
z
" style="fill:#ffa500;stroke:#000000;stroke-linejoin:miter;"/>
   </g>
   <g id="patch_85">
    <path clip-path="url(#pea1b0fd17f)" d="M 1262.242105 643.203 
L 1272.645992 643.203 
L 1272.645992 544.558933 
L 1262.242105 544.558933 
z
" style="fill:#ffa500;stroke:#000000;stroke-linejoin:miter;"/>
   </g>
   <g id="patch_86">
    <path clip-path="url(#pea1b0fd17f)" d="M 1275.246964 643.203 
L 1285.65085 643.203 
L 1285.65085 593.757969 
L 1275.246964 593.757969 
z
" style="fill:#ffa500;stroke:#000000;stroke-linejoin:miter;"/>
   </g>
   <g id="patch_87">
    <path clip-path="url(#pea1b0fd17f)" d="M 1288.251822 643.203 
L 1298.655709 643.203 
L 1298.655709 603.105786 
L 1288.251822 603.105786 
z
" style="fill:#ffa500;stroke:#000000;stroke-linejoin:miter;"/>
   </g>
   <g id="patch_88">
    <path clip-path="url(#pea1b0fd17f)" d="M 1301.25668 643.203 
L 1311.660567 643.203 
L 1311.660567 533.571149 
L 1301.25668 533.571149 
z
" style="fill:#ffa500;stroke:#000000;stroke-linejoin:miter;"/>
   </g>
   <g id="patch_89">
    <path clip-path="url(#pea1b0fd17f)" d="M 1314.261538 643.203 
L 1324.665425 643.203 
L 1324.665425 519.22143 
L 1314.261538 519.22143 
z
" style="fill:#ffa500;stroke:#000000;stroke-linejoin:miter;"/>
   </g>
   <g id="patch_90">
    <path clip-path="url(#pea1b0fd17f)" d="M 1327.266397 643.203 
L 1337.670283 643.203 
L 1337.670283 544.968925 
L 1327.266397 544.968925 
z
" style="fill:#ffa500;stroke:#000000;stroke-linejoin:miter;"/>
   </g>
   <g id="patch_91">
    <path clip-path="url(#pea1b0fd17f)" d="M 1340.271255 643.203 
L 1350.675142 643.203 
L 1350.675142 534.391133 
L 1340.271255 534.391133 
z
" style="fill:#ffa500;stroke:#000000;stroke-linejoin:miter;"/>
   </g>
   <g id="patch_92">
    <path clip-path="url(#pea1b0fd17f)" d="M 1353.276113 643.203 
L 1363.68 643.203 
L 1363.68 520.779399 
L 1353.276113 520.779399 
z
" style="fill:#ffa500;stroke:#000000;stroke-linejoin:miter;"/>
   </g>
   <g id="patch_93">
    <path d="M 78.8 643.203 
L 78.8 69.21425 
" style="fill:none;stroke:#000000;stroke-linecap:square;stroke-linejoin:miter;"/>
   </g>
   <g id="patch_94">
    <path d="M 1363.68 643.203 
L 1363.68 69.21425 
" style="fill:none;stroke:#000000;stroke-linecap:square;stroke-linejoin:miter;"/>
   </g>
   <g id="patch_95">
    <path d="M 78.8 643.203 
L 1363.68 643.203 
" style="fill:none;stroke:#000000;stroke-linecap:square;stroke-linejoin:miter;"/>
   </g>
   <g id="patch_96">
    <path d="M 78.8 69.21425 
L 1363.68 69.21425 
" style="fill:none;stroke:#000000;stroke-linecap:square;stroke-linejoin:miter;"/>
   </g>
   <g id="matplotlib.axis_1">
    <g id="xtick_1">
     <g id="line2d_1">
      <defs>
       <path d="M 0 0 
L 0 -4 
" id="md5a9fc44fb" style="stroke:#000000;stroke-width:0.5;"/>
      </defs>
      <g>
       <use style="stroke:#000000;stroke-width:0.5;" x="396.118543" xlink:href="#md5a9fc44fb" y="643.203"/>
      </g>
     </g>
     <g id="line2d_2">
      <defs>
       <path d="M 0 0 
L 0 4 
" id="mfaf9086e31" style="stroke:#000000;stroke-width:0.5;"/>
      </defs>
      <g>
       <use style="stroke:#000000;stroke-width:0.5;" x="396.118543" xlink:href="#mfaf9086e31" y="69.21425"/>
      </g>
     </g>
     <g id="text_1">
      <!--  -->
      <g transform="translate(396.118543 661.918625)scale(0.2 -0.2)"/>
      <!--  -->
      <g transform="translate(396.118543 684.32425)scale(0.2 -0.2)"/>
      <!--  -->
      <g transform="translate(396.118543 706.729875)scale(0.2 -0.2)"/>
      <!-- Sep -->
      <g transform="translate(380.634168 729.1355)scale(0.2 -0.2)">
       <defs>
        <path d="M 37.109375 63.921875 
Q 31.984375 65.625 27.6875 65.625 
Q 21.234375 65.625 17.40625 62.5 
Q 13.578125 59.375 13.578125 53.8125 
Q 13.578125 50.640625 14.921875 48.234375 
Q 16.265625 45.84375 18.53125 44.03125 
Q 20.796875 42.234375 23.671875 40.8125 
Q 26.5625 39.40625 29.640625 38.03125 
Q 33.015625 36.578125 36.1875 34.9375 
Q 39.359375 33.296875 41.921875 31.09375 
Q 44.484375 28.90625 46.015625 25.828125 
Q 47.5625 22.75 47.5625 18.65625 
Q 47.5625 8.9375 40.75 3.8125 
Q 33.9375 -1.3125 21.875 -1.3125 
Q 14.109375 -1.3125 4.6875 1.3125 
L 4.390625 1.703125 
L 6.78125 18.3125 
L 8.984375 18.65625 
L 12.40625 4.78125 
Q 17.578125 2.734375 23 2.734375 
Q 30.28125 2.734375 34.34375 5.953125 
Q 38.421875 9.1875 38.421875 15.140625 
Q 38.421875 18.265625 37.109375 20.625 
Q 35.796875 23 33.5625 24.703125 
Q 31.34375 26.421875 28.515625 27.8125 
Q 25.6875 29.203125 22.65625 30.5625 
Q 19.234375 32.03125 16.015625 33.734375 
Q 12.796875 35.453125 10.171875 37.71875 
Q 7.5625 39.984375 6 43.28125 
Q 4.4375 46.578125 4.4375 50.984375 
Q 4.4375 59.8125 11.046875 64.640625 
Q 17.671875 69.484375 28.609375 69.484375 
Q 36.328125 69.484375 44.78125 67.671875 
L 45.125 67.328125 
L 42.234375 52.09375 
L 40.28125 51.765625 
z
" id="Constantia-83"/>
        <path d="M 44.046875 3.46875 
Q 39.890625 0.875 35.5 -0.25 
Q 31.109375 -1.375 27.34375 -1.375 
Q 16.609375 -1.375 10.203125 4.75 
Q 3.8125 10.890625 3.8125 21.78125 
Q 3.8125 32.625 9.9375 39.5 
Q 16.0625 46.390625 26.3125 46.390625 
Q 34.90625 46.390625 39.6875 41.234375 
Q 44.484375 36.078125 44.484375 27 
Q 44.484375 25.640625 44.34375 24.21875 
L 13.375 24.21875 
Q 13.375 13.71875 18.3125 9.203125 
Q 23.25 4.6875 33.734375 4.6875 
Q 38.421875 4.6875 43.75 5.5625 
z
M 34.765625 28.265625 
L 34.765625 29.734375 
Q 34.765625 36.671875 32.546875 39.640625 
Q 30.328125 42.625 25.921875 42.625 
Q 20.125 42.625 17.046875 38.421875 
Q 13.96875 34.234375 13.578125 28.265625 
z
" id="Constantia-101"/>
        <path d="M 2.09375 41.3125 
L 1.859375 42.96875 
Q 10.0625 44.53125 17.328125 46.390625 
L 17.828125 46.046875 
L 17.828125 41.265625 
Q 25.296875 46.390625 32.28125 46.390625 
Q 41.359375 46.390625 46.703125 40.3125 
Q 52.046875 34.234375 52.046875 24.515625 
Q 52.046875 12.546875 45.15625 5.578125 
Q 38.28125 -1.375 25.640625 -1.375 
Q 21.875 -1.375 17.828125 -0.640625 
L 17.828125 -11.328125 
Q 17.828125 -16.21875 17.921875 -18.171875 
Q 18.015625 -19.625 19.234375 -19.921875 
L 25.640625 -21.734375 
L 25.78125 -23.734375 
Q 18.171875 -23.578125 13.375 -23.578125 
Q 8.59375 -23.578125 2.046875 -23.734375 
L 1.859375 -21.734375 
L 7.46875 -20.0625 
Q 8.640625 -19.734375 8.6875 -18.5625 
Q 8.796875 -14.984375 8.796875 -7.765625 
L 8.796875 12.109375 
Q 8.796875 33.734375 8.59375 39.453125 
z
M 17.828125 3.765625 
Q 22.078125 2.828125 26.03125 2.828125 
Q 34.125 2.828125 38.21875 7.90625 
Q 42.328125 12.984375 42.328125 22.46875 
Q 42.328125 31.390625 38.421875 35.9375 
Q 34.515625 40.484375 27.203125 40.484375 
Q 21.921875 40.484375 17.828125 38.328125 
z
" id="Constantia-112"/>
       </defs>
       <use xlink:href="#Constantia-83"/>
       <use x="50.976562" xlink:href="#Constantia-101"/>
       <use x="98.876953" xlink:href="#Constantia-112"/>
      </g>
      <!-- 2020 -->
      <g transform="translate(375.659168 751.541125)scale(0.2 -0.2)">
       <defs>
        <path d="M 42.390625 15.484375 
L 44.53125 15.875 
L 43.5625 0.203125 
L 43.21875 -0.140625 
Q 33.25 0 22.359375 0 
Q 12.25 0 3.765625 -0.140625 
L 3.421875 3.859375 
Q 8.015625 6.84375 11.671875 9.375 
Q 15.328125 11.921875 18.015625 14.109375 
Q 20.703125 16.265625 22.75 18.21875 
Q 24.8125 20.171875 26.203125 22.09375 
Q 27.59375 24.03125 28.3125 26.03125 
Q 29.046875 28.03125 29.046875 30.21875 
Q 29.046875 34.71875 25.78125 37.34375 
Q 22.515625 39.984375 17.78125 39.984375 
Q 12.203125 39.984375 6.546875 36.96875 
L 4.6875 40.1875 
Q 13.8125 46.390625 23 46.390625 
Q 29.890625 46.390625 34.453125 43.046875 
Q 39.015625 39.703125 39.015625 33.734375 
Q 39.015625 30.03125 37.34375 26.828125 
Q 35.6875 23.640625 32.515625 20.5625 
Q 29.34375 17.484375 24.75 14.328125 
Q 20.171875 11.1875 14.265625 7.671875 
L 14.3125 7.421875 
L 38.578125 7.421875 
z
" id="Constantia-50"/>
        <path d="M 13.671875 23.296875 
Q 13.671875 13.625 17.15625 8.109375 
Q 20.65625 2.59375 27.203125 2.59375 
Q 33.84375 2.59375 37.015625 7.515625 
Q 40.1875 12.453125 40.1875 22.609375 
Q 40.1875 32.5625 36.71875 37.609375 
Q 33.25 42.671875 26.65625 42.671875 
Q 19.921875 42.671875 16.796875 37.84375 
Q 13.671875 33.015625 13.671875 23.296875 
z
M 49.953125 23.6875 
Q 49.953125 12.25 43.4375 5.484375 
Q 36.921875 -1.265625 26.421875 -1.265625 
Q 16.3125 -1.265625 10.109375 4.9375 
Q 3.90625 11.140625 3.90625 22.015625 
Q 3.90625 33.203125 10.390625 39.796875 
Q 16.890625 46.390625 27.484375 46.390625 
Q 37.796875 46.390625 43.875 40.375 
Q 49.953125 34.375 49.953125 23.6875 
z
" id="Constantia-48"/>
       </defs>
       <use xlink:href="#Constantia-50"/>
       <use x="48.4375" xlink:href="#Constantia-48"/>
       <use x="102.294922" xlink:href="#Constantia-50"/>
       <use x="150.732422" xlink:href="#Constantia-48"/>
      </g>
     </g>
    </g>
    <g id="xtick_2">
     <g id="line2d_3">
      <g>
       <use style="stroke:#000000;stroke-width:0.5;" x="786.264291" xlink:href="#md5a9fc44fb" y="643.203"/>
      </g>
     </g>
     <g id="line2d_4">
      <g>
       <use style="stroke:#000000;stroke-width:0.5;" x="786.264291" xlink:href="#mfaf9086e31" y="69.21425"/>
      </g>
     </g>
     <g id="text_2">
      <!--  -->
      <g transform="translate(786.264291 661.918625)scale(0.2 -0.2)"/>
      <!--  -->
      <g transform="translate(786.264291 684.32425)scale(0.2 -0.2)"/>
      <!--  -->
      <g transform="translate(786.264291 706.729875)scale(0.2 -0.2)"/>
      <!-- Oct -->
      <g transform="translate(770.078354 729.1355)scale(0.2 -0.2)">
       <defs>
        <path d="M 15.578125 35.015625 
Q 15.578125 19.09375 22.015625 10.625 
Q 28.46875 2.15625 40.921875 2.15625 
Q 53.171875 2.15625 59 9.84375 
Q 64.84375 17.53125 64.84375 33.984375 
Q 64.84375 49.421875 58.640625 57.71875 
Q 52.4375 66.015625 39.5 66.015625 
Q 26.953125 66.015625 21.265625 58.328125 
Q 15.578125 50.640625 15.578125 35.015625 
z
M 75.59375 35.640625 
Q 75.59375 18.75 65.984375 8.46875 
Q 56.390625 -1.8125 39.15625 -1.8125 
Q 22.796875 -1.8125 13.84375 7.6875 
Q 4.890625 17.1875 4.890625 33.40625 
Q 4.890625 50.296875 14.53125 60.125 
Q 24.171875 69.96875 41.265625 69.96875 
Q 57.671875 69.96875 66.625 60.765625 
Q 75.59375 51.5625 75.59375 35.640625 
z
" id="Constantia-79"/>
        <path d="M 42.96875 3.46875 
Q 39.9375 1.421875 35.46875 0.015625 
Q 31 -1.375 26.609375 -1.375 
Q 16.0625 -1.375 9.90625 4.796875 
Q 3.765625 10.984375 3.765625 21.296875 
Q 3.765625 32.46875 10.734375 39.421875 
Q 17.71875 46.390625 28.8125 46.390625 
Q 35.984375 46.390625 42.71875 43.453125 
Q 41.109375 36.921875 39.84375 30.078125 
L 37.9375 29.78125 
L 33.984375 41.5 
Q 31.734375 42.28125 28.90625 42.28125 
Q 21.625 42.28125 17.515625 37.203125 
Q 13.421875 32.125 13.421875 23.78125 
Q 13.421875 13.96875 18.0625 9.28125 
Q 22.703125 4.59375 32.765625 4.59375 
Q 37.40625 4.59375 42.671875 5.515625 
z
" id="Constantia-99"/>
        <path d="M 17.484375 39.9375 
Q 17.1875 23.4375 17.1875 13.328125 
Q 17.1875 8.25 18.703125 6.3125 
Q 20.21875 4.390625 24.46875 4.390625 
Q 27.828125 4.390625 33.25 5.28125 
L 33.546875 3.078125 
Q 25.09375 -1.171875 18.453125 -1.171875 
Q 13.140625 -1.171875 10.546875 1.6875 
Q 7.953125 4.546875 7.953125 10.296875 
Q 7.953125 19.78125 8.296875 40.234375 
L 1.5625 41.890625 
L 1.265625 43.890625 
L 8.796875 44.53125 
L 12.15625 56.34375 
Q 14.890625 57.078125 17.140625 57.765625 
L 17.625 57.421875 
Q 17.484375 51.515625 17.484375 46.390625 
L 17.484375 44.578125 
L 32.171875 44.578125 
L 32.171875 39.9375 
z
" id="Constantia-116"/>
       </defs>
       <use xlink:href="#Constantia-79"/>
       <use x="80.419922" xlink:href="#Constantia-99"/>
       <use x="126.5625" xlink:href="#Constantia-116"/>
      </g>
      <!-- 2020 -->
      <g transform="translate(765.804916 751.541125)scale(0.2 -0.2)">
       <use xlink:href="#Constantia-50"/>
       <use x="48.4375" xlink:href="#Constantia-48"/>
       <use x="102.294922" xlink:href="#Constantia-50"/>
       <use x="150.732422" xlink:href="#Constantia-48"/>
      </g>
     </g>
    </g>
    <g id="xtick_3">
     <g id="line2d_5">
      <g>
       <use style="stroke:#000000;stroke-width:0.5;" x="1189.414899" xlink:href="#md5a9fc44fb" y="643.203"/>
      </g>
     </g>
     <g id="line2d_6">
      <g>
       <use style="stroke:#000000;stroke-width:0.5;" x="1189.414899" xlink:href="#mfaf9086e31" y="69.21425"/>
      </g>
     </g>
     <g id="text_3">
      <!--  -->
      <g transform="translate(1189.414899 661.918625)scale(0.2 -0.2)"/>
      <!--  -->
      <g transform="translate(1189.414899 684.32425)scale(0.2 -0.2)"/>
      <!--  -->
      <g transform="translate(1189.414899 706.729875)scale(0.2 -0.2)"/>
      <!-- Nov -->
      <g transform="translate(1171.839899 729.1355)scale(0.2 -0.2)">
       <defs>
        <path d="M 16.65625 54.4375 
L 16.65625 14.984375 
Q 16.65625 9.234375 16.75 5.421875 
Q 16.796875 4.046875 17.96875 3.765625 
L 23.78125 2.046875 
L 23.875 -0.140625 
Q 17.78125 0 13.875 0 
Q 10.0625 0 3.765625 -0.140625 
L 3.5625 1.953125 
L 9.578125 3.765625 
Q 10.84375 4.15625 10.890625 5.28125 
Q 10.984375 9.234375 10.984375 14.984375 
L 10.984375 54.59375 
Q 10.984375 59.46875 10.890625 62.703125 
Q 10.84375 63.96875 9.71875 64.359375 
L 3.65625 66.265625 
L 3.5625 68.359375 
Q 9.859375 68.171875 13.53125 68.171875 
Q 15.71875 68.171875 17.96875 68.359375 
L 58.984375 17.140625 
L 58.984375 54.78125 
Q 58.984375 59.515625 58.890625 62.9375 
Q 58.84375 64.0625 57.625 64.453125 
L 51.859375 66.109375 
L 51.765625 68.359375 
Q 58.015625 68.171875 61.859375 68.171875 
Q 65.765625 68.171875 71.875 68.359375 
L 72.078125 66.265625 
L 65.921875 64.359375 
Q 64.796875 63.96875 64.75 62.703125 
Q 64.65625 59.46875 64.65625 54.59375 
L 64.65625 0 
L 60.546875 -0.390625 
z
" id="Constantia-78"/>
        <path d="M 13.71875 23.046875 
Q 13.71875 13.921875 17.140625 8.171875 
Q 20.5625 2.4375 27.296875 2.4375 
Q 33.59375 2.4375 36.890625 7.484375 
Q 40.1875 12.546875 40.1875 22.46875 
Q 40.1875 31.78125 36.71875 37.15625 
Q 33.25 42.53125 26.65625 42.53125 
Q 20.40625 42.53125 17.0625 37.6875 
Q 13.71875 32.859375 13.71875 23.046875 
z
M 50.140625 23.484375 
Q 50.140625 12.359375 43.421875 5.484375 
Q 36.71875 -1.375 26.375 -1.375 
Q 16.265625 -1.375 10.03125 5.09375 
Q 3.8125 11.578125 3.8125 22.015625 
Q 3.8125 32.765625 10.328125 39.578125 
Q 16.84375 46.390625 27.59375 46.390625 
Q 37.75 46.390625 43.9375 40.109375 
Q 50.140625 33.84375 50.140625 23.484375 
z
" id="Constantia-111"/>
        <path d="M -1.515625 45.265625 
Q 4.640625 45.125 9.421875 45.125 
Q 13.8125 45.125 19.96875 45.265625 
L 20.171875 43.265625 
L 14.5 41.703125 
Q 18.5 30.328125 23.78125 17.53125 
Q 25.140625 14.15625 26.21875 11.078125 
Q 27.296875 14.15625 28.71875 17.484375 
Q 33.15625 28.421875 38.03125 41.703125 
L 32.46875 43.265625 
L 32.28125 45.265625 
Q 36.234375 45.125 40.53125 45.125 
Q 44.921875 45.125 49.03125 45.265625 
L 49.21875 43.265625 
L 44.34375 41.84375 
Q 43.21875 41.453125 42.4375 39.9375 
Q 38.578125 31 33.46875 18.671875 
Q 28.375 6.34375 25.78125 -0.34375 
L 21.625 -0.78125 
Q 18.953125 6.296875 13.890625 18.59375 
Q 8.84375 30.90625 5.21875 39.703125 
Q 4.4375 41.40625 3.078125 41.890625 
L -1.421875 43.265625 
z
" id="Constantia-118"/>
       </defs>
       <use xlink:href="#Constantia-78"/>
       <use x="73.402344" xlink:href="#Constantia-111"/>
       <use x="127.455078" xlink:href="#Constantia-118"/>
      </g>
      <!-- 2020 -->
      <g transform="translate(1168.955524 751.541125)scale(0.2 -0.2)">
       <use xlink:href="#Constantia-50"/>
       <use x="48.4375" xlink:href="#Constantia-48"/>
       <use x="102.294922" xlink:href="#Constantia-50"/>
       <use x="150.732422" xlink:href="#Constantia-48"/>
      </g>
     </g>
    </g>
    <g id="xtick_4">
     <g id="line2d_7">
      <path clip-path="url(#pea1b0fd17f)" d="M 97.006802 643.203 
L 97.006802 69.21425 
" style="fill:none;stroke:#000000;stroke-dasharray:1,3;stroke-dashoffset:0;stroke-width:0.5;"/>
     </g>
     <g id="line2d_8">
      <defs>
       <path d="M 0 0 
L 0 -2 
" id="m1f178fafc1" style="stroke:#000000;stroke-width:0.5;"/>
      </defs>
      <g>
       <use style="stroke:#000000;stroke-width:0.5;" x="97.006802" xlink:href="#m1f178fafc1" y="643.203"/>
      </g>
     </g>
     <g id="line2d_9">
      <defs>
       <path d="M 0 0 
L 0 2 
" id="m785a6716c0" style="stroke:#000000;stroke-width:0.5;"/>
      </defs>
      <g>
       <use style="stroke:#000000;stroke-width:0.5;" x="97.006802" xlink:href="#m785a6716c0" y="69.21425"/>
      </g>
     </g>
     <g id="text_4">
      <!-- 09 -->
      <g transform="translate(87.241802 660.447062)scale(0.18 -0.18)">
       <defs>
        <path d="M 8.640625 -19 
Q 20.90625 -16.796875 28.984375 -9.671875 
Q 37.0625 -2.546875 40.375 10.109375 
L 40.28125 10.15625 
Q 34.578125 3.65625 25.4375 3.65625 
Q 16.3125 3.65625 10.234375 9.484375 
Q 4.15625 15.328125 4.15625 24.3125 
Q 4.15625 33.6875 10.796875 40.03125 
Q 17.4375 46.390625 27.046875 46.390625 
Q 37.546875 46.390625 44.265625 38.75 
Q 50.984375 31.109375 50.984375 19.1875 
Q 50.984375 2.828125 39.578125 -8.59375 
Q 28.171875 -20.015625 9.328125 -22.46875 
z
M 14.0625 27.25 
Q 14.0625 18.5625 18.015625 13.28125 
Q 21.96875 8.015625 28.125 8.015625 
Q 34.234375 8.015625 37.453125 11.9375 
Q 40.671875 15.875 40.671875 22.90625 
Q 40.671875 31.453125 36.421875 37.15625 
Q 32.171875 42.875 26.21875 42.875 
Q 20.953125 42.875 17.5 38.640625 
Q 14.0625 34.421875 14.0625 27.25 
z
" id="Constantia-57"/>
       </defs>
       <use xlink:href="#Constantia-48"/>
       <use x="53.857422" xlink:href="#Constantia-57"/>
      </g>
      <!-- Sun -->
      <g transform="translate(82.055552 680.612125)scale(0.18 -0.18)">
       <defs>
        <path d="M 38.875 4.296875 
Q 31.25 -1.375 23.640625 -1.375 
Q 15.96875 -1.375 12.125 2.53125 
Q 8.296875 6.453125 8.296875 13.53125 
L 8.296875 23.875 
Q 8.296875 34.328125 8.109375 39.546875 
L 1.609375 41.3125 
L 1.375 42.96875 
Q 9.90625 44.53125 17.1875 46.390625 
L 17.625 46.046875 
Q 17.328125 40.328125 17.328125 31.34375 
L 17.328125 15.828125 
Q 17.328125 9.90625 20.109375 7.25 
Q 22.90625 4.59375 27.984375 4.59375 
Q 33.0625 4.59375 38.375 7.28125 
L 38.375 28.078125 
Q 38.375 34.90625 38.1875 39.546875 
L 31.734375 41.3125 
L 31.5 42.96875 
Q 39.984375 44.53125 47.265625 46.390625 
L 47.703125 46.046875 
Q 47.40625 40.1875 47.40625 31.0625 
Q 47.40625 13.328125 47.515625 9.421875 
Q 47.5625 7.421875 47.796875 6.203125 
Q 48.046875 4.984375 48.734375 4.3125 
Q 49.421875 3.65625 50.75 3.390625 
Q 52.09375 3.125 54.34375 3.078125 
L 54.59375 1.171875 
Q 52.34375 0.296875 49.40625 -0.5 
Q 46.484375 -1.3125 45.40625 -1.3125 
Q 40.484375 -1.3125 38.875 4.296875 
z
" id="Constantia-117"/>
        <path d="M 2.828125 42.96875 
Q 11.03125 44.53125 18.3125 46.390625 
L 18.796875 46.046875 
L 18.796875 40.375 
Q 27.296875 46.390625 34.625 46.390625 
Q 41.546875 46.390625 45.484375 42.5 
Q 49.421875 38.625 49.421875 31.5 
L 49.421875 14.265625 
Q 49.421875 8.15625 49.515625 5.21875 
Q 49.5625 3.90625 50.78125 3.515625 
L 56.203125 1.859375 
L 56.296875 -0.140625 
Q 49.859375 0 45.0625 0 
Q 40.28125 0 34.421875 -0.140625 
L 34.234375 1.859375 
L 39.109375 3.265625 
Q 40.234375 3.65625 40.328125 4.78125 
Q 40.375 5.46875 40.375 7.859375 
L 40.375 29.15625 
Q 40.375 35.15625 37.5 37.765625 
Q 34.625 40.375 29 40.375 
Q 24.078125 40.375 18.796875 37.546875 
L 18.796875 16.21875 
Q 18.796875 10.109375 18.890625 5.03125 
Q 18.953125 3.71875 20.015625 3.375 
L 25.09375 1.859375 
L 25.203125 -0.140625 
Q 19.140625 0 14.359375 0 
Q 9.578125 0 3.03125 -0.140625 
L 2.828125 1.859375 
L 8.59375 3.515625 
Q 9.671875 3.953125 9.71875 5.03125 
Q 9.765625 8.15625 9.765625 11.03125 
L 9.765625 27.6875 
Q 9.765625 34.078125 9.578125 39.546875 
L 3.078125 41.3125 
z
" id="Constantia-110"/>
       </defs>
       <use xlink:href="#Constantia-83"/>
       <use x="50.976562" xlink:href="#Constantia-117"/>
       <use x="107.910156" xlink:href="#Constantia-110"/>
      </g>
     </g>
    </g>
    <g id="xtick_5">
     <g id="line2d_10">
      <path clip-path="url(#pea1b0fd17f)" d="M 188.04081 643.203 
L 188.04081 69.21425 
" style="fill:none;stroke:#000000;stroke-dasharray:1,3;stroke-dashoffset:0;stroke-width:0.5;"/>
     </g>
     <g id="line2d_11">
      <g>
       <use style="stroke:#000000;stroke-width:0.5;" x="188.04081" xlink:href="#m1f178fafc1" y="643.203"/>
      </g>
     </g>
     <g id="line2d_12">
      <g>
       <use style="stroke:#000000;stroke-width:0.5;" x="188.04081" xlink:href="#m785a6716c0" y="69.21425"/>
      </g>
     </g>
     <g id="text_5">
      <!-- 16 -->
      <g transform="translate(180.354247 660.447062)scale(0.18 -0.18)">
       <defs>
        <path d="M 1.703125 40.625 
L 1.46875 42.671875 
Q 11.28125 44.140625 21.09375 45.90625 
L 21.53125 45.515625 
Q 20.953125 36.96875 20.953125 27.875 
L 20.953125 15.96875 
Q 20.953125 9.515625 21.046875 5.5625 
Q 21.09375 4.15625 22.40625 3.8125 
L 30.171875 1.8125 
L 30.328125 -0.140625 
Q 21.296875 0 16.5 0 
Q 11.71875 0 2.734375 -0.140625 
L 2.546875 1.8125 
L 10.5 3.8125 
Q 11.765625 4.15625 11.8125 5.375 
Q 11.921875 9.328125 11.921875 14.15625 
L 11.921875 22.265625 
Q 11.921875 32.078125 11.71875 39.65625 
z
" id="Constantia-49"/>
        <path d="M 47.125 64.546875 
Q 32.03125 61.53125 24.515625 53.9375 
Q 17 46.34375 14.796875 35.25 
L 14.890625 35.203125 
Q 20.796875 41.65625 30.21875 41.65625 
Q 38.96875 41.65625 44.9375 35.796875 
Q 50.921875 29.9375 50.921875 20.90625 
Q 50.921875 11.328125 44.375 5.03125 
Q 37.84375 -1.265625 28.125 -1.265625 
Q 17.390625 -1.265625 10.75 6.5 
Q 4.109375 14.265625 4.109375 26.515625 
Q 4.109375 41.546875 14.453125 53.125 
Q 24.8125 64.703125 46.4375 68.015625 
z
M 41.109375 18.0625 
Q 41.109375 26.609375 37.15625 31.953125 
Q 33.203125 37.3125 27.046875 37.3125 
Q 21.4375 37.3125 17.921875 33.328125 
Q 14.40625 29.34375 14.40625 22.515625 
Q 14.40625 14.15625 18.5 8.203125 
Q 22.609375 2.25 28.953125 2.25 
Q 34.46875 2.25 37.78125 6.8125 
Q 41.109375 11.375 41.109375 18.0625 
z
" id="Constantia-54"/>
       </defs>
       <use xlink:href="#Constantia-49"/>
       <use x="31.298828" xlink:href="#Constantia-54"/>
      </g>
      <!-- Sun -->
      <g transform="translate(173.08956 680.612125)scale(0.18 -0.18)">
       <use xlink:href="#Constantia-83"/>
       <use x="50.976562" xlink:href="#Constantia-117"/>
       <use x="107.910156" xlink:href="#Constantia-110"/>
      </g>
     </g>
    </g>
    <g id="xtick_6">
     <g id="line2d_13">
      <path clip-path="url(#pea1b0fd17f)" d="M 279.074818 643.203 
L 279.074818 69.21425 
" style="fill:none;stroke:#000000;stroke-dasharray:1,3;stroke-dashoffset:0;stroke-width:0.5;"/>
     </g>
     <g id="line2d_14">
      <g>
       <use style="stroke:#000000;stroke-width:0.5;" x="279.074818" xlink:href="#m1f178fafc1" y="643.203"/>
      </g>
     </g>
     <g id="line2d_15">
      <g>
       <use style="stroke:#000000;stroke-width:0.5;" x="279.074818" xlink:href="#m785a6716c0" y="69.21425"/>
      </g>
     </g>
     <g id="text_6">
      <!-- 23 -->
      <g transform="translate(270.60638 660.447062)scale(0.18 -0.18)">
       <defs>
        <path d="M 10.25 16.21875 
Q 19 17.140625 24.265625 20.75 
Q 29.546875 24.359375 29.546875 30.125 
Q 29.546875 34.71875 26.09375 37.59375 
Q 22.65625 40.484375 17.390625 40.484375 
Q 10.5 40.484375 3.46875 36.8125 
L 1.46875 40.046875 
Q 11.140625 46.390625 21.34375 46.390625 
Q 28.90625 46.390625 34.078125 42.75 
Q 39.265625 39.109375 39.265625 33.203125 
Q 39.265625 22.359375 23.25 17 
L 23.25 16.796875 
Q 32.421875 16.453125 37.5625 12.15625 
Q 42.71875 7.859375 42.71875 1.609375 
Q 42.71875 -8.5 31.96875 -15.140625 
Q 21.234375 -21.78125 1.03125 -22.46875 
L 0.484375 -18.84375 
Q 16.546875 -17.78125 24.53125 -12.625 
Q 32.515625 -7.46875 32.515625 0.25 
Q 32.515625 6.296875 28.359375 9.765625 
Q 24.21875 13.234375 16.84375 13.234375 
Q 13.96875 13.234375 10.59375 12.640625 
z
" id="Constantia-51"/>
       </defs>
       <use xlink:href="#Constantia-50"/>
       <use x="48.4375" xlink:href="#Constantia-51"/>
      </g>
      <!-- Sun -->
      <g transform="translate(264.123568 680.612125)scale(0.18 -0.18)">
       <use xlink:href="#Constantia-83"/>
       <use x="50.976562" xlink:href="#Constantia-117"/>
       <use x="107.910156" xlink:href="#Constantia-110"/>
      </g>
     </g>
    </g>
    <g id="xtick_7">
     <g id="line2d_16">
      <path clip-path="url(#pea1b0fd17f)" d="M 370.108826 643.203 
L 370.108826 69.21425 
" style="fill:none;stroke:#000000;stroke-dasharray:1,3;stroke-dashoffset:0;stroke-width:0.5;"/>
     </g>
     <g id="line2d_17">
      <g>
       <use style="stroke:#000000;stroke-width:0.5;" x="370.108826" xlink:href="#m1f178fafc1" y="643.203"/>
      </g>
     </g>
     <g id="line2d_18">
      <g>
       <use style="stroke:#000000;stroke-width:0.5;" x="370.108826" xlink:href="#m785a6716c0" y="69.21425"/>
      </g>
     </g>
     <g id="text_7">
      <!-- 30 -->
      <g transform="translate(361.15242 660.447062)scale(0.18 -0.18)">
       <use xlink:href="#Constantia-51"/>
       <use x="45.654297" xlink:href="#Constantia-48"/>
      </g>
      <!-- Sun -->
      <g transform="translate(355.157576 680.612125)scale(0.18 -0.18)">
       <use xlink:href="#Constantia-83"/>
       <use x="50.976562" xlink:href="#Constantia-117"/>
       <use x="107.910156" xlink:href="#Constantia-110"/>
      </g>
     </g>
    </g>
    <g id="xtick_8">
     <g id="line2d_19">
      <path clip-path="url(#pea1b0fd17f)" d="M 461.142834 643.203 
L 461.142834 69.21425 
" style="fill:none;stroke:#000000;stroke-dasharray:1,3;stroke-dashoffset:0;stroke-width:0.5;"/>
     </g>
     <g id="line2d_20">
      <g>
       <use style="stroke:#000000;stroke-width:0.5;" x="461.142834" xlink:href="#m1f178fafc1" y="643.203"/>
      </g>
     </g>
     <g id="line2d_21">
      <g>
       <use style="stroke:#000000;stroke-width:0.5;" x="461.142834" xlink:href="#m785a6716c0" y="69.21425"/>
      </g>
     </g>
     <g id="text_8">
      <!-- 06 -->
      <g transform="translate(451.425647 660.447062)scale(0.18 -0.18)">
       <use xlink:href="#Constantia-48"/>
       <use x="53.857422" xlink:href="#Constantia-54"/>
      </g>
      <!-- Sun -->
      <g transform="translate(446.191584 680.612125)scale(0.18 -0.18)">
       <use xlink:href="#Constantia-83"/>
       <use x="50.976562" xlink:href="#Constantia-117"/>
       <use x="107.910156" xlink:href="#Constantia-110"/>
      </g>
     </g>
    </g>
    <g id="xtick_9">
     <g id="line2d_22">
      <path clip-path="url(#pea1b0fd17f)" d="M 552.176842 643.203 
L 552.176842 69.21425 
" style="fill:none;stroke:#000000;stroke-dasharray:1,3;stroke-dashoffset:0;stroke-width:0.5;"/>
     </g>
     <g id="line2d_23">
      <g>
       <use style="stroke:#000000;stroke-width:0.5;" x="552.176842" xlink:href="#m1f178fafc1" y="643.203"/>
      </g>
     </g>
     <g id="line2d_24">
      <g>
       <use style="stroke:#000000;stroke-width:0.5;" x="552.176842" xlink:href="#m785a6716c0" y="69.21425"/>
      </g>
     </g>
     <g id="text_9">
      <!-- 13 -->
      <g transform="translate(545.251061 660.447062)scale(0.18 -0.18)">
       <use xlink:href="#Constantia-49"/>
       <use x="31.298828" xlink:href="#Constantia-51"/>
      </g>
      <!-- Sun -->
      <g transform="translate(537.225592 680.612125)scale(0.18 -0.18)">
       <use xlink:href="#Constantia-83"/>
       <use x="50.976562" xlink:href="#Constantia-117"/>
       <use x="107.910156" xlink:href="#Constantia-110"/>
      </g>
     </g>
    </g>
    <g id="xtick_10">
     <g id="line2d_25">
      <path clip-path="url(#pea1b0fd17f)" d="M 643.21085 643.203 
L 643.21085 69.21425 
" style="fill:none;stroke:#000000;stroke-dasharray:1,3;stroke-dashoffset:0;stroke-width:0.5;"/>
     </g>
     <g id="line2d_26">
      <g>
       <use style="stroke:#000000;stroke-width:0.5;" x="643.21085" xlink:href="#m1f178fafc1" y="643.203"/>
      </g>
     </g>
     <g id="line2d_27">
      <g>
       <use style="stroke:#000000;stroke-width:0.5;" x="643.21085" xlink:href="#m785a6716c0" y="69.21425"/>
      </g>
     </g>
     <g id="text_10">
      <!-- 20 -->
      <g transform="translate(634.004131 660.447062)scale(0.18 -0.18)">
       <use xlink:href="#Constantia-50"/>
       <use x="48.4375" xlink:href="#Constantia-48"/>
      </g>
      <!-- Sun -->
      <g transform="translate(628.2596 680.612125)scale(0.18 -0.18)">
       <use xlink:href="#Constantia-83"/>
       <use x="50.976562" xlink:href="#Constantia-117"/>
       <use x="107.910156" xlink:href="#Constantia-110"/>
      </g>
     </g>
    </g>
    <g id="xtick_11">
     <g id="line2d_28">
      <path clip-path="url(#pea1b0fd17f)" d="M 734.244858 643.203 
L 734.244858 69.21425 
" style="fill:none;stroke:#000000;stroke-dasharray:1,3;stroke-dashoffset:0;stroke-width:0.5;"/>
     </g>
     <g id="line2d_29">
      <g>
       <use style="stroke:#000000;stroke-width:0.5;" x="734.244858" xlink:href="#m1f178fafc1" y="643.203"/>
      </g>
     </g>
     <g id="line2d_30">
      <g>
       <use style="stroke:#000000;stroke-width:0.5;" x="734.244858" xlink:href="#m785a6716c0" y="69.21425"/>
      </g>
     </g>
     <g id="text_11">
      <!-- 27 -->
      <g transform="translate(725.534546 660.447062)scale(0.18 -0.18)">
       <defs>
        <path d="M 10.9375 -19.671875 
L 39.5 37.546875 
L 8.296875 37.546875 
L 5.46875 27.875 
L 3.515625 27.546875 
L 2.6875 44.921875 
L 3.03125 45.3125 
Q 8.796875 45.21875 14.265625 45.171875 
Q 19.734375 45.125 25 45.125 
L 27.734375 45.125 
Q 33.015625 45.125 37.84375 45.171875 
Q 42.671875 45.21875 47.171875 45.3125 
L 47.359375 43.21875 
Q 44.828125 37.984375 42.265625 32.46875 
Q 39.703125 26.953125 37.234375 21.3125 
Q 34.765625 15.671875 32.421875 10.125 
Q 30.078125 4.59375 28.03125 -0.65625 
Q 25.984375 -5.90625 24.25 -10.6875 
Q 22.515625 -15.484375 21.234375 -19.53125 
L 11.1875 -20.015625 
z
" id="Constantia-55"/>
       </defs>
       <use xlink:href="#Constantia-50"/>
       <use x="48.4375" xlink:href="#Constantia-55"/>
      </g>
      <!-- Sun -->
      <g transform="translate(719.293608 680.612125)scale(0.18 -0.18)">
       <use xlink:href="#Constantia-83"/>
       <use x="50.976562" xlink:href="#Constantia-117"/>
       <use x="107.910156" xlink:href="#Constantia-110"/>
      </g>
     </g>
    </g>
    <g id="xtick_12">
     <g id="line2d_31">
      <path clip-path="url(#pea1b0fd17f)" d="M 825.278866 643.203 
L 825.278866 69.21425 
" style="fill:none;stroke:#000000;stroke-dasharray:1,3;stroke-dashoffset:0;stroke-width:0.5;"/>
     </g>
     <g id="line2d_32">
      <g>
       <use style="stroke:#000000;stroke-width:0.5;" x="825.278866" xlink:href="#m1f178fafc1" y="643.203"/>
      </g>
     </g>
     <g id="line2d_33">
      <g>
       <use style="stroke:#000000;stroke-width:0.5;" x="825.278866" xlink:href="#m785a6716c0" y="69.21425"/>
      </g>
     </g>
     <g id="text_12">
      <!-- 04 -->
      <g transform="translate(815.654491 660.447062)scale(0.18 -0.18)">
       <defs>
        <path d="M 30.953125 35.015625 
Q 25.4375 28.8125 19.890625 21.78125 
Q 14.359375 14.75 8.984375 7.28125 
L 30.953125 7.28125 
z
M 39.984375 -5.71875 
Q 39.984375 -12.546875 40.234375 -19.53125 
Q 35.546875 -20.015625 31.34375 -20.796875 
L 30.859375 -20.40625 
Q 30.953125 -13.578125 30.953125 -6.5 
L 30.953125 2.4375 
L 18.796875 2.4375 
Q 12.109375 2.4375 2.546875 2.296875 
L 2.203125 5.859375 
Q 9.90625 16.0625 18.078125 26.234375 
Q 26.265625 36.421875 34.578125 46.046875 
L 40.28125 46.390625 
Q 39.984375 35.453125 39.984375 25.984375 
L 39.984375 7.28125 
L 51.171875 7.28125 
L 51.375 2.296875 
Q 46 2.4375 39.984375 2.4375 
z
" id="Constantia-52"/>
       </defs>
       <use xlink:href="#Constantia-48"/>
       <use x="53.857422" xlink:href="#Constantia-52"/>
      </g>
      <!-- Sun -->
      <g transform="translate(810.327616 680.612125)scale(0.18 -0.18)">
       <use xlink:href="#Constantia-83"/>
       <use x="50.976562" xlink:href="#Constantia-117"/>
       <use x="107.910156" xlink:href="#Constantia-110"/>
      </g>
     </g>
    </g>
    <g id="xtick_13">
     <g id="line2d_34">
      <path clip-path="url(#pea1b0fd17f)" d="M 916.312874 643.203 
L 916.312874 69.21425 
" style="fill:none;stroke:#000000;stroke-dasharray:1,3;stroke-dashoffset:0;stroke-width:0.5;"/>
     </g>
     <g id="line2d_35">
      <g>
       <use style="stroke:#000000;stroke-width:0.5;" x="916.312874" xlink:href="#m1f178fafc1" y="643.203"/>
      </g>
     </g>
     <g id="line2d_36">
      <g>
       <use style="stroke:#000000;stroke-width:0.5;" x="916.312874" xlink:href="#m785a6716c0" y="69.21425"/>
      </g>
     </g>
     <g id="text_13">
      <!-- 11 -->
      <g transform="translate(910.679437 660.447062)scale(0.18 -0.18)">
       <use xlink:href="#Constantia-49"/>
       <use x="31.298828" xlink:href="#Constantia-49"/>
      </g>
      <!-- Sun -->
      <g transform="translate(901.361624 680.612125)scale(0.18 -0.18)">
       <use xlink:href="#Constantia-83"/>
       <use x="50.976562" xlink:href="#Constantia-117"/>
       <use x="107.910156" xlink:href="#Constantia-110"/>
      </g>
     </g>
    </g>
    <g id="xtick_14">
     <g id="line2d_37">
      <path clip-path="url(#pea1b0fd17f)" d="M 1007.346883 643.203 
L 1007.346883 69.21425 
" style="fill:none;stroke:#000000;stroke-dasharray:1,3;stroke-dashoffset:0;stroke-width:0.5;"/>
     </g>
     <g id="line2d_38">
      <g>
       <use style="stroke:#000000;stroke-width:0.5;" x="1007.346883" xlink:href="#m1f178fafc1" y="643.203"/>
      </g>
     </g>
     <g id="line2d_39">
      <g>
       <use style="stroke:#000000;stroke-width:0.5;" x="1007.346883" xlink:href="#m785a6716c0" y="69.21425"/>
      </g>
     </g>
     <g id="text_14">
      <!-- 18 -->
      <g transform="translate(999.701101 660.447062)scale(0.18 -0.18)">
       <defs>
        <path d="M 19.09375 34.234375 
Q 12.0625 37.890625 9.5 41.546875 
Q 6.9375 45.21875 6.9375 50.09375 
Q 6.9375 57.421875 12.96875 62.171875 
Q 19 66.9375 27.984375 66.9375 
Q 36.078125 66.9375 41.375 63.125 
Q 46.6875 59.328125 46.6875 53.265625 
Q 46.6875 44.234375 33.84375 36.765625 
Q 43.609375 32.03125 47.09375 27.75 
Q 50.59375 23.484375 50.59375 17.578125 
Q 50.59375 9.421875 43.40625 4.078125 
Q 36.234375 -1.265625 26.265625 -1.265625 
Q 16.265625 -1.265625 9.90625 3.296875 
Q 3.5625 7.859375 3.5625 15.4375 
Q 3.5625 26.8125 19.09375 34.234375 
z
M 22.5625 32.421875 
Q 12.546875 26.703125 12.546875 16.609375 
Q 12.546875 10.203125 16.375 6.421875 
Q 20.21875 2.640625 26.90625 2.640625 
Q 33.015625 2.640625 37.140625 6.03125 
Q 41.265625 9.421875 41.265625 14.84375 
Q 41.265625 20.015625 37.5 23.75 
Q 33.734375 27.484375 22.5625 32.421875 
z
M 30.21875 38.625 
Q 37.984375 44.234375 37.984375 51.8125 
Q 37.984375 57.234375 34.859375 60.1875 
Q 31.734375 63.140625 26.609375 63.140625 
Q 21.4375 63.140625 18.140625 60.453125 
Q 14.84375 57.765625 14.84375 53.125 
Q 14.84375 48.484375 18.40625 45.40625 
Q 21.96875 42.328125 30.21875 38.625 
z
" id="Constantia-56"/>
       </defs>
       <use xlink:href="#Constantia-49"/>
       <use x="31.298828" xlink:href="#Constantia-56"/>
      </g>
      <!-- Sun -->
      <g transform="translate(992.395633 680.612125)scale(0.18 -0.18)">
       <use xlink:href="#Constantia-83"/>
       <use x="50.976562" xlink:href="#Constantia-117"/>
       <use x="107.910156" xlink:href="#Constantia-110"/>
      </g>
     </g>
    </g>
    <g id="xtick_15">
     <g id="line2d_40">
      <path clip-path="url(#pea1b0fd17f)" d="M 1098.380891 643.203 
L 1098.380891 69.21425 
" style="fill:none;stroke:#000000;stroke-dasharray:1,3;stroke-dashoffset:0;stroke-width:0.5;"/>
     </g>
     <g id="line2d_41">
      <g>
       <use style="stroke:#000000;stroke-width:0.5;" x="1098.380891" xlink:href="#m1f178fafc1" y="643.203"/>
      </g>
     </g>
     <g id="line2d_42">
      <g>
       <use style="stroke:#000000;stroke-width:0.5;" x="1098.380891" xlink:href="#m785a6716c0" y="69.21425"/>
      </g>
     </g>
     <g id="text_15">
      <!-- 25 -->
      <g transform="translate(1089.740891 660.447062)scale(0.18 -0.18)">
       <defs>
        <path d="M 6.453125 16.796875 
L 9.28125 45.3125 
Q 15.375 45.125 23.875 45.125 
Q 33.6875 45.125 42.28125 45.3125 
L 42.578125 44.921875 
L 41.359375 36.859375 
L 13.1875 37.546875 
L 11.8125 23.78125 
Q 15.96875 24.46875 19.625 24.46875 
Q 30.8125 24.46875 37.46875 19.046875 
Q 44.140625 13.625 44.140625 4.15625 
Q 44.140625 -7.953125 32.984375 -15.15625 
Q 21.828125 -22.359375 4.890625 -22.46875 
L 4.390625 -18.84375 
Q 17.71875 -18.359375 26.09375 -12.796875 
Q 34.46875 -7.234375 34.46875 2.203125 
Q 34.46875 9.46875 29.5625 13.46875 
Q 24.65625 17.484375 15.765625 17.484375 
Q 11.328125 17.484375 6.734375 16.453125 
z
" id="Constantia-53"/>
       </defs>
       <use xlink:href="#Constantia-50"/>
       <use x="48.4375" xlink:href="#Constantia-53"/>
      </g>
      <!-- Sun -->
      <g transform="translate(1083.429641 680.612125)scale(0.18 -0.18)">
       <use xlink:href="#Constantia-83"/>
       <use x="50.976562" xlink:href="#Constantia-117"/>
       <use x="107.910156" xlink:href="#Constantia-110"/>
      </g>
     </g>
    </g>
    <g id="xtick_16">
     <g id="line2d_43">
      <path clip-path="url(#pea1b0fd17f)" d="M 1280.448907 643.203 
L 1280.448907 69.21425 
" style="fill:none;stroke:#000000;stroke-dasharray:1,3;stroke-dashoffset:0;stroke-width:0.5;"/>
     </g>
     <g id="line2d_44">
      <g>
       <use style="stroke:#000000;stroke-width:0.5;" x="1280.448907" xlink:href="#m1f178fafc1" y="643.203"/>
      </g>
     </g>
     <g id="line2d_45">
      <g>
       <use style="stroke:#000000;stroke-width:0.5;" x="1280.448907" xlink:href="#m785a6716c0" y="69.21425"/>
      </g>
     </g>
     <g id="text_16">
      <!-- 08 -->
      <g transform="translate(1270.772501 660.447062)scale(0.18 -0.18)">
       <use xlink:href="#Constantia-48"/>
       <use x="53.857422" xlink:href="#Constantia-56"/>
      </g>
      <!-- Sun -->
      <g transform="translate(1265.497657 680.612125)scale(0.18 -0.18)">
       <use xlink:href="#Constantia-83"/>
       <use x="50.976562" xlink:href="#Constantia-117"/>
       <use x="107.910156" xlink:href="#Constantia-110"/>
      </g>
     </g>
    </g>
   </g>
   <g id="matplotlib.axis_2">
    <g id="ytick_1">
     <g id="line2d_46">
      <path clip-path="url(#pea1b0fd17f)" d="M 78.8 643.203 
L 1363.68 643.203 
" style="fill:none;stroke:#000000;stroke-dasharray:1,3;stroke-dashoffset:0;stroke-width:0.5;"/>
     </g>
     <g id="line2d_47">
      <defs>
       <path d="M 0 0 
L 4 0 
" id="m9fffeced38" style="stroke:#000000;stroke-width:0.5;"/>
      </defs>
      <g>
       <use style="stroke:#000000;stroke-width:0.5;" x="78.8" xlink:href="#m9fffeced38" y="643.203"/>
      </g>
     </g>
     <g id="text_17">
      <!-- 0 -->
      <g transform="translate(64.028125 648.187375)scale(0.2 -0.2)">
       <use xlink:href="#Constantia-48"/>
      </g>
     </g>
    </g>
    <g id="ytick_2">
     <g id="line2d_48">
      <path clip-path="url(#pea1b0fd17f)" d="M 78.8 561.204607 
L 1363.68 561.204607 
" style="fill:none;stroke:#000000;stroke-dasharray:1,3;stroke-dashoffset:0;stroke-width:0.5;"/>
     </g>
     <g id="line2d_49">
      <g>
       <use style="stroke:#000000;stroke-width:0.5;" x="78.8" xlink:href="#m9fffeced38" y="561.204607"/>
      </g>
     </g>
     <g id="text_18">
      <!-- 1000 -->
      <g transform="translate(36.225 566.188982)scale(0.2 -0.2)">
       <use xlink:href="#Constantia-49"/>
       <use x="31.298828" xlink:href="#Constantia-48"/>
       <use x="85.15625" xlink:href="#Constantia-48"/>
       <use x="139.013672" xlink:href="#Constantia-48"/>
      </g>
     </g>
    </g>
    <g id="ytick_3">
     <g id="line2d_50">
      <path clip-path="url(#pea1b0fd17f)" d="M 78.8 479.206214 
L 1363.68 479.206214 
" style="fill:none;stroke:#000000;stroke-dasharray:1,3;stroke-dashoffset:0;stroke-width:0.5;"/>
     </g>
     <g id="line2d_51">
      <g>
       <use style="stroke:#000000;stroke-width:0.5;" x="78.8" xlink:href="#m9fffeced38" y="479.206214"/>
      </g>
     </g>
     <g id="text_19">
      <!-- 2000 -->
      <g transform="translate(32.796875 484.190589)scale(0.2 -0.2)">
       <use xlink:href="#Constantia-50"/>
       <use x="48.4375" xlink:href="#Constantia-48"/>
       <use x="102.294922" xlink:href="#Constantia-48"/>
       <use x="156.152344" xlink:href="#Constantia-48"/>
      </g>
     </g>
    </g>
    <g id="ytick_4">
     <g id="line2d_52">
      <path clip-path="url(#pea1b0fd17f)" d="M 78.8 397.207821 
L 1363.68 397.207821 
" style="fill:none;stroke:#000000;stroke-dasharray:1,3;stroke-dashoffset:0;stroke-width:0.5;"/>
     </g>
     <g id="line2d_53">
      <g>
       <use style="stroke:#000000;stroke-width:0.5;" x="78.8" xlink:href="#m9fffeced38" y="397.207821"/>
      </g>
     </g>
     <g id="text_20">
      <!-- 3000 -->
      <g transform="translate(33.353125 402.192196)scale(0.2 -0.2)">
       <use xlink:href="#Constantia-51"/>
       <use x="45.654297" xlink:href="#Constantia-48"/>
       <use x="99.511719" xlink:href="#Constantia-48"/>
       <use x="153.369141" xlink:href="#Constantia-48"/>
      </g>
     </g>
    </g>
    <g id="ytick_5">
     <g id="line2d_54">
      <path clip-path="url(#pea1b0fd17f)" d="M 78.8 315.209429 
L 1363.68 315.209429 
" style="fill:none;stroke:#000000;stroke-dasharray:1,3;stroke-dashoffset:0;stroke-width:0.5;"/>
     </g>
     <g id="line2d_55">
      <g>
       <use style="stroke:#000000;stroke-width:0.5;" x="78.8" xlink:href="#m9fffeced38" y="315.209429"/>
      </g>
     </g>
     <g id="text_21">
      <!-- 4000 -->
      <g transform="translate(31.86875 320.193804)scale(0.2 -0.2)">
       <use xlink:href="#Constantia-52"/>
       <use x="53.076172" xlink:href="#Constantia-48"/>
       <use x="106.933594" xlink:href="#Constantia-48"/>
       <use x="160.791016" xlink:href="#Constantia-48"/>
      </g>
     </g>
    </g>
    <g id="ytick_6">
     <g id="line2d_56">
      <path clip-path="url(#pea1b0fd17f)" d="M 78.8 233.211036 
L 1363.68 233.211036 
" style="fill:none;stroke:#000000;stroke-dasharray:1,3;stroke-dashoffset:0;stroke-width:0.5;"/>
     </g>
     <g id="line2d_57">
      <g>
       <use style="stroke:#000000;stroke-width:0.5;" x="78.8" xlink:href="#m9fffeced38" y="233.211036"/>
      </g>
     </g>
     <g id="text_22">
      <!-- 5000 -->
      <g transform="translate(32.971875 238.195411)scale(0.2 -0.2)">
       <use xlink:href="#Constantia-53"/>
       <use x="47.558594" xlink:href="#Constantia-48"/>
       <use x="101.416016" xlink:href="#Constantia-48"/>
       <use x="155.273438" xlink:href="#Constantia-48"/>
      </g>
     </g>
    </g>
    <g id="ytick_7">
     <g id="line2d_58">
      <path clip-path="url(#pea1b0fd17f)" d="M 78.8 151.212643 
L 1363.68 151.212643 
" style="fill:none;stroke:#000000;stroke-dasharray:1,3;stroke-dashoffset:0;stroke-width:0.5;"/>
     </g>
     <g id="line2d_59">
      <g>
       <use style="stroke:#000000;stroke-width:0.5;" x="78.8" xlink:href="#m9fffeced38" y="151.212643"/>
      </g>
     </g>
     <g id="text_23">
      <!-- 6000 -->
      <g transform="translate(31.6625 156.197018)scale(0.2 -0.2)">
       <use xlink:href="#Constantia-54"/>
       <use x="54.101562" xlink:href="#Constantia-48"/>
       <use x="107.958984" xlink:href="#Constantia-48"/>
       <use x="161.816406" xlink:href="#Constantia-48"/>
      </g>
     </g>
    </g>
    <g id="ytick_8">
     <g id="line2d_60">
      <path clip-path="url(#pea1b0fd17f)" d="M 78.8 69.21425 
L 1363.68 69.21425 
" style="fill:none;stroke:#000000;stroke-dasharray:1,3;stroke-dashoffset:0;stroke-width:0.5;"/>
     </g>
     <g id="line2d_61">
      <g>
       <use style="stroke:#000000;stroke-width:0.5;" x="78.8" xlink:href="#m9fffeced38" y="69.21425"/>
      </g>
     </g>
     <g id="text_24">
      <!-- 7000 -->
      <g transform="translate(32.815625 74.198625)scale(0.2 -0.2)">
       <use xlink:href="#Constantia-55"/>
       <use x="48.339844" xlink:href="#Constantia-48"/>
       <use x="102.197266" xlink:href="#Constantia-48"/>
       <use x="156.054688" xlink:href="#Constantia-48"/>
      </g>
     </g>
    </g>
    <g id="text_25">
     <!-- NewDeaths -->
     <g transform="translate(21.915625 406.132062)rotate(-90)scale(0.2 -0.2)">
      <defs>
       <path d="M -0.828125 45.265625 
Q 6.15625 45.125 9.515625 45.125 
Q 14.359375 45.125 20.453125 45.265625 
L 20.65625 43.265625 
L 14.890625 41.703125 
Q 18.171875 30.8125 23.140625 17.1875 
Q 24.21875 14.3125 25.140625 11.28125 
Q 26.078125 14.265625 27.15625 17.140625 
Q 31.0625 27.59375 33.0625 33.453125 
Q 35.0625 39.3125 36.921875 44.921875 
L 40.484375 45.3125 
Q 42.328125 39.40625 44.28125 33.5 
Q 46.234375 27.59375 49.90625 17.1875 
Q 51.078125 14.0625 51.859375 11.28125 
Q 52.78125 14.109375 53.953125 17.140625 
Q 59.375 30.859375 62.9375 41.75 
L 57.421875 43.3125 
L 57.234375 45.3125 
Q 61.140625 45.171875 65.53125 45.171875 
Q 69.875 45.171875 73.4375 45.3125 
L 73.6875 43.3125 
L 69.78125 42.234375 
Q 68.109375 41.75 67.328125 39.890625 
Q 62.75 28.8125 59.171875 19.890625 
Q 55.609375 10.984375 51.46875 -0.09375 
L 47.078125 -0.53125 
Q 44.09375 8.0625 42.109375 13.453125 
Q 40.140625 18.84375 37.84375 25.203125 
Q 36.859375 27.78125 36.1875 30.171875 
Q 35.40625 27.828125 34.421875 25.34375 
Q 31.9375 18.84375 29.8125 13.375 
Q 27.6875 7.90625 24.859375 -0.09375 
L 20.5625 -0.53125 
Q 16.40625 10.984375 12.984375 19.875 
Q 9.578125 28.765625 5.28125 39.9375 
Q 4.59375 41.75 2.78125 42.234375 
L -0.734375 43.265625 
z
" id="Constantia-119"/>
       <path d="M 17.09375 0 
Q 11.1875 0 4.984375 -0.140625 
L 4.78125 1.953125 
L 10.796875 3.765625 
Q 12.0625 4.15625 12.109375 5.28125 
Q 12.15625 7.234375 12.171875 9.640625 
Q 12.203125 12.0625 12.203125 14.984375 
L 12.203125 54.59375 
Q 12.203125 57.078125 12.171875 59.078125 
Q 12.15625 61.078125 12.109375 62.703125 
Q 12.0625 63.96875 10.9375 64.359375 
L 4.890625 66.265625 
L 4.78125 68.359375 
Q 11.078125 68.171875 17.046875 68.171875 
Q 21.921875 68.171875 26.453125 68.40625 
Q 31 68.65625 35.796875 68.65625 
Q 52.875 68.65625 61.46875 60.859375 
Q 70.0625 53.078125 70.0625 37.75 
Q 70.0625 19.671875 60.515625 9.6875 
Q 50.984375 -0.296875 33.734375 -0.296875 
Q 29 -0.296875 25.28125 -0.140625 
Q 21.578125 0 17.09375 0 
z
M 21.78125 4.34375 
Q 24.65625 3.953125 27.40625 3.828125 
Q 30.171875 3.71875 32.953125 3.71875 
Q 45.84375 3.71875 52.578125 11.296875 
Q 59.328125 18.890625 59.328125 34.578125 
Q 59.328125 49.8125 52.921875 57.15625 
Q 46.53125 64.5 32.671875 64.5 
Q 30.46875 64.5 27.796875 64.40625 
Q 25.140625 64.3125 21.78125 64.0625 
z
" id="Constantia-68"/>
       <path d="M 30.125 22.125 
Q 19.4375 22.125 15.53125 20.015625 
Q 11.625 17.921875 11.625 12.9375 
Q 11.625 8.296875 14.203125 6.359375 
Q 16.796875 4.4375 21.234375 4.4375 
Q 26.265625 4.4375 30.03125 6.15625 
z
M 6.453125 42.234375 
Q 15.96875 46.390625 23.296875 46.390625 
Q 30.765625 46.390625 34.9375 42.484375 
Q 39.109375 38.578125 39.0625 31.203125 
L 38.8125 10.890625 
Q 38.765625 8.40625 38.9375 6.890625 
Q 39.109375 5.375 39.8125 4.5625 
Q 40.53125 3.765625 41.9375 3.4375 
Q 43.359375 3.125 45.75 3.078125 
L 46 1.171875 
Q 43.890625 0.34375 40.859375 -0.484375 
Q 37.84375 -1.3125 36.765625 -1.3125 
Q 32.03125 -1.3125 30.28125 3.5625 
Q 23.4375 -1.375 17.390625 -1.375 
Q 10.59375 -1.375 6.46875 1.96875 
Q 2.34375 5.328125 2.34375 11.421875 
Q 2.34375 18.953125 9.046875 22.515625 
Q 15.765625 26.078125 30.125 26.078125 
L 30.171875 29.890625 
Q 30.21875 35.359375 27.390625 37.984375 
Q 24.5625 40.625 18.703125 40.625 
Q 14.265625 40.625 7.5625 38.96875 
z
" id="Constantia-97"/>
       <path d="M 2.484375 70.125 
Q 10.453125 71.6875 18.40625 73.578125 
L 18.84375 73.1875 
Q 18.609375 68.609375 18.578125 60.109375 
Q 18.5625 51.609375 18.5625 40.921875 
Q 27.046875 46.390625 34.375 46.390625 
Q 41.15625 46.390625 45.15625 42.59375 
Q 49.171875 38.8125 49.171875 31.5 
L 49.171875 14.265625 
Q 49.171875 8.640625 49.265625 5.21875 
Q 49.3125 3.953125 50.484375 3.515625 
L 55.953125 1.859375 
L 56.0625 -0.140625 
Q 49.609375 0 44.828125 0 
Q 40.046875 0 34.1875 -0.140625 
L 33.984375 1.859375 
L 38.8125 3.265625 
Q 39.984375 3.65625 40.09375 4.78125 
Q 40.140625 5.46875 40.140625 7.859375 
L 40.140625 29.15625 
Q 40.140625 35.15625 37.25 37.765625 
Q 34.375 40.375 28.765625 40.375 
Q 23.921875 40.375 18.5625 38.03125 
L 18.5625 16.109375 
Q 18.5625 10.0625 18.65625 5.03125 
Q 18.703125 3.65625 19.875 3.328125 
L 24.953125 1.859375 
L 25.046875 -0.140625 
Q 18.890625 0 14.109375 0 
Q 9.328125 0 2.78125 -0.140625 
L 2.59375 1.859375 
L 8.109375 3.46875 
Q 9.375 3.859375 9.421875 5.03125 
Q 9.515625 9.71875 9.515625 17 
L 9.515625 37.40625 
Q 9.515625 47.359375 9.484375 55.03125 
Q 9.46875 62.703125 9.328125 66.546875 
L 2.734375 68.5 
z
" id="Constantia-104"/>
       <path d="M 27.875 41.453125 
Q 25.046875 42.234375 21.734375 42.234375 
Q 17.140625 42.234375 14.328125 40.453125 
Q 11.53125 38.671875 11.53125 35.59375 
Q 11.53125 32.625 13.359375 30.90625 
Q 15.1875 29.203125 20.171875 27.546875 
L 24.171875 26.171875 
Q 30.90625 23.875 34.046875 20.921875 
Q 37.203125 17.96875 37.203125 13.1875 
Q 37.203125 6.390625 31.921875 2.5 
Q 26.65625 -1.375 18.609375 -1.375 
Q 11.1875 -1.375 3.421875 1.65625 
Q 5.078125 8.015625 6.109375 14.0625 
L 8.015625 14.359375 
L 11.53125 3.859375 
Q 14.3125 2.78125 18.609375 2.78125 
Q 23.140625 2.78125 25.84375 4.640625 
Q 28.5625 6.5 28.5625 9.859375 
Q 28.5625 12.984375 26.734375 14.796875 
Q 24.90625 16.609375 20.90625 17.921875 
L 15.828125 19.625 
Q 9.234375 21.828125 6.71875 24.921875 
Q 4.203125 28.03125 4.203125 32.625 
Q 4.203125 39.015625 9.0625 42.703125 
Q 13.921875 46.390625 21.875 46.390625 
Q 29.296875 46.390625 35.359375 44.234375 
Q 33.984375 38.671875 32.859375 32.46875 
L 31 32.125 
z
" id="Constantia-115"/>
      </defs>
      <use xlink:href="#Constantia-78"/>
      <use x="73.402344" xlink:href="#Constantia-101"/>
      <use x="121.302734" xlink:href="#Constantia-119"/>
      <use x="194.496094" xlink:href="#Constantia-68"/>
      <use x="269.59375" xlink:href="#Constantia-101"/>
      <use x="317.494141" xlink:href="#Constantia-97"/>
      <use x="365.492188" xlink:href="#Constantia-116"/>
      <use x="400.794922" xlink:href="#Constantia-104"/>
      <use x="458.753906" xlink:href="#Constantia-115"/>
     </g>
    </g>
   </g>
   <g id="legend_1">
    <g id="patch_97">
     <path d="M 1185.663317 103.421281 
L 1357.46488 103.421281 
L 1357.46488 76.71425 
L 1185.663317 76.71425 
z
" style="fill:#ffffff;stroke:#000000;stroke-linejoin:miter;"/>
    </g>
    <g id="line2d_62">
     <path d="M 1196.163317 88.500969 
L 1217.163317 88.500969 
" style="fill:none;stroke:#f08080;stroke-dasharray:6,6;stroke-dashoffset:0;stroke-width:3;"/>
    </g>
    <g id="line2d_63">
     <defs>
      <path d="M 0 3 
C 0.795609 3 1.55874 2.683901 2.12132 2.12132 
C 2.683901 1.55874 3 0.795609 3 0 
C 3 -0.795609 2.683901 -1.55874 2.12132 -2.12132 
C 1.55874 -2.683901 0.795609 -3 0 -3 
C -0.795609 -3 -1.55874 -2.683901 -2.12132 -2.12132 
C -2.683901 -1.55874 -3 -0.795609 -3 0 
C -3 0.795609 -2.683901 1.55874 -2.12132 2.12132 
C -1.55874 2.683901 -0.795609 3 0 3 
z
" id="m2d1ba702b5" style="stroke:#000000;stroke-width:0.5;"/>
     </defs>
     <g>
      <use style="fill:#f08080;stroke:#000000;stroke-width:0.5;" x="1196.163317" xlink:href="#m2d1ba702b5" y="88.500969"/>
      <use style="fill:#f08080;stroke:#000000;stroke-width:0.5;" x="1217.163317" xlink:href="#m2d1ba702b5" y="88.500969"/>
     </g>
    </g>
    <g id="text_26">
     <!-- 7 days moving avg -->
     <g transform="translate(1233.663317 93.750969)scale(0.15 -0.15)">
      <defs>
       <path id="Constantia-32"/>
       <path d="M 37.9375 41.015625 
Q 34.671875 42.046875 30.609375 42.046875 
Q 22.21875 42.046875 17.8125 37.28125 
Q 13.421875 32.515625 13.421875 22.859375 
Q 13.421875 14.5 17.328125 9.5 
Q 21.234375 4.5 28.375 4.5 
Q 32.953125 4.5 37.9375 7.03125 
z
M 30.90625 70.125 
Q 39.59375 71.78125 46.828125 73.578125 
L 47.265625 73.1875 
Q 46.96875 62.75 46.96875 50.734375 
L 46.96875 24.171875 
Q 46.96875 17.4375 47.015625 10.84375 
Q 47.015625 8.34375 47.1875 6.828125 
Q 47.359375 5.328125 48.046875 4.515625 
Q 48.734375 3.71875 50.078125 3.421875 
Q 51.421875 3.125 53.859375 3.078125 
L 54.109375 1.171875 
Q 51.953125 0.34375 48.953125 -0.484375 
Q 45.953125 -1.3125 44.875 -1.3125 
Q 39.9375 -1.3125 38.234375 4.25 
Q 30.671875 -1.375 23.53125 -1.375 
Q 14.5 -1.375 9.109375 5.046875 
Q 3.71875 11.46875 3.71875 20.84375 
Q 3.71875 32.953125 10.890625 39.59375 
Q 18.0625 46.234375 30.953125 46.234375 
Q 34.078125 46.234375 37.9375 45.5625 
Q 37.9375 56.34375 37.75 66.546875 
L 31.15625 68.5 
z
" id="Constantia-100"/>
       <path d="M -1.703125 45.265625 
Q 4.4375 45.125 9.234375 45.125 
Q 12.5 45.125 19.671875 45.265625 
L 19.875 43.265625 
L 14.15625 41.703125 
Q 15.96875 36.578125 18.359375 30.390625 
Q 20.75 24.21875 23.4375 17.53125 
Q 24.5625 14.75 25.875 11.140625 
Q 27.25 14.796875 28.8125 18.609375 
Q 31.109375 24.265625 33.25 29.75 
Q 35.40625 35.25 37.703125 41.703125 
L 32.125 43.265625 
L 31.9375 45.265625 
Q 35.546875 45.125 40.375 45.125 
Q 44.734375 45.125 48.828125 45.265625 
L 49.078125 43.265625 
L 44.53125 42 
Q 43.015625 41.5 42.328125 39.984375 
Q 40.53125 35.84375 38.421875 30.90625 
Q 31.984375 15.765625 28.65625 6.109375 
Q 26.421875 -0.4375 24.609375 -7.296875 
Q 22.796875 -14.15625 21.828125 -19.09375 
Q 21.390625 -21.484375 20.046875 -22.71875 
Q 18.703125 -23.96875 13.765625 -23.96875 
Q 8.734375 -23.96875 4 -23.640625 
L 3.765625 -21.734375 
Q 9.125 -20.90625 11.71875 -18.265625 
Q 14.84375 -14.890625 21.390625 -0.34375 
L 21.78125 0.59375 
L 21.09375 0.78125 
Q 12.15625 23.046875 4.9375 39.9375 
Q 4.296875 41.40625 2.6875 41.9375 
L -1.609375 43.265625 
z
" id="Constantia-121"/>
       <path d="M 47.65625 36.859375 
Q 48.34375 34.515625 48.34375 31.59375 
L 48.34375 14.15625 
Q 48.34375 8.453125 48.4375 4.984375 
Q 48.53125 3.65625 49.703125 3.265625 
L 54.640625 1.859375 
L 54.734375 -0.140625 
Q 48.78125 0 44 0 
Q 39.203125 0 33.34375 -0.140625 
L 33.15625 1.859375 
L 37.796875 3.21875 
Q 39.203125 3.71875 39.265625 4.78125 
Q 39.3125 5.46875 39.3125 7.859375 
L 39.3125 29.15625 
Q 39.3125 35.15625 36.578125 37.765625 
Q 33.84375 40.375 28.46875 40.375 
Q 23.734375 40.375 18.796875 37.546875 
L 18.796875 16.21875 
Q 18.796875 10.109375 18.890625 5.03125 
Q 18.953125 3.5625 19.921875 3.375 
L 25.09375 1.859375 
L 25.203125 -0.140625 
Q 19.140625 0 14.359375 0 
Q 9.578125 0 3.03125 -0.140625 
L 2.828125 1.859375 
L 8.453125 3.515625 
Q 9.671875 3.859375 9.71875 5.03125 
Q 9.765625 7.625 9.765625 11.03125 
L 9.765625 27.6875 
Q 9.765625 34.078125 9.578125 39.546875 
L 3.078125 41.3125 
L 2.828125 42.96875 
Q 10.890625 44.53125 18.265625 46.390625 
L 18.75 46.046875 
L 18.75 40.375 
Q 26.765625 46.390625 33.9375 46.390625 
Q 42.71875 46.390625 46.625 39.59375 
Q 54.34375 46.390625 63.375 46.390625 
Q 70.171875 46.390625 74 42.546875 
Q 77.828125 38.71875 77.828125 31.59375 
L 77.828125 14.3125 
Q 77.828125 8.15625 77.9375 5.21875 
Q 78.03125 3.90625 79.25 3.515625 
L 84.671875 1.859375 
L 84.765625 -0.140625 
Q 78.328125 0 73.53125 0 
Q 68.703125 0 62.890625 -0.140625 
L 62.703125 1.859375 
L 67.53125 3.265625 
Q 68.65625 3.65625 68.796875 4.78125 
Q 68.84375 5.46875 68.84375 7.859375 
L 68.84375 29.15625 
Q 68.84375 35.15625 66.0625 37.765625 
Q 63.28125 40.375 57.859375 40.375 
Q 52.390625 40.375 47.65625 36.859375 
z
" id="Constantia-109"/>
       <path d="M 19.34375 63.671875 
Q 19.34375 61.078125 17.71875 59.4375 
Q 16.109375 57.8125 13.578125 57.8125 
Q 11.140625 57.8125 9.59375 59.328125 
Q 8.0625 60.84375 8.0625 63.328125 
Q 8.0625 65.96875 9.671875 67.5 
Q 11.28125 69.046875 13.921875 69.046875 
Q 16.3125 69.046875 17.828125 67.65625 
Q 19.34375 66.265625 19.34375 63.671875 
z
M 2.828125 42.96875 
Q 11.375 44.578125 18.65625 46.390625 
L 19.09375 46.046875 
Q 18.796875 39.703125 18.796875 32.078125 
L 18.796875 13.328125 
Q 18.796875 7.46875 18.890625 5.21875 
Q 19 3.90625 20.125 3.515625 
L 25.78125 1.859375 
L 25.875 -0.140625 
Q 19.140625 0 14.359375 0 
Q 9.578125 0 2.984375 -0.140625 
L 2.78125 1.859375 
L 8.453125 3.515625 
Q 9.578125 3.90625 9.671875 5.03125 
Q 9.765625 6.9375 9.765625 11.421875 
L 9.765625 27.734375 
Q 9.765625 34.125 9.578125 39.546875 
L 3.078125 41.3125 
z
" id="Constantia-105"/>
       <path d="M 14.015625 30.328125 
Q 14.015625 23.96875 16.578125 20.5 
Q 19.140625 17.046875 24.03125 17.046875 
Q 28.71875 17.046875 31.078125 20.28125 
Q 33.453125 23.53125 33.453125 29.78125 
Q 33.453125 35.796875 30.9375 39.25 
Q 28.421875 42.71875 23.4375 42.71875 
Q 18.75 42.71875 16.375 39.546875 
Q 14.015625 36.375 14.015625 30.328125 
z
M 13.375 -1.953125 
Q 10.0625 -6.9375 10.0625 -11.140625 
Q 10.0625 -15.4375 13.53125 -17.828125 
Q 17 -20.21875 22.953125 -20.21875 
Q 30.03125 -20.21875 35.34375 -17.0625 
Q 40.671875 -13.921875 40.671875 -8.25 
Q 40.671875 -5.171875 38.0625 -3.484375 
Q 35.453125 -1.8125 28.21875 -1.8125 
Q 25.640625 -1.8125 22.578125 -1.953125 
Q 19.53125 -2.09375 16.703125 -2.09375 
Q 15.140625 -2.09375 13.375 -1.953125 
z
M 38.875 40.234375 
Q 42.53125 36.1875 42.53125 30.5625 
Q 42.53125 22.703125 37.0625 18.03125 
Q 31.59375 13.375 23.34375 13.375 
Q 18.65625 13.375 14.9375 14.84375 
Q 12.3125 10.59375 12.3125 8.15625 
Q 12.3125 6.84375 13.640625 6.375 
Q 14.984375 5.90625 18.609375 5.90625 
Q 21.34375 5.90625 25 6.046875 
Q 28.65625 6.203125 31.84375 6.203125 
Q 39.59375 6.203125 44.109375 3.25 
Q 48.640625 0.296875 48.640625 -5.515625 
Q 48.640625 -14.3125 40.359375 -19.390625 
Q 32.078125 -24.46875 21.53125 -24.46875 
Q 12.890625 -24.46875 7.734375 -21.5625 
Q 2.59375 -18.65625 2.59375 -14.015625 
Q 2.59375 -8.40625 10.546875 -1.421875 
Q 5.515625 0.484375 5.515625 3.65625 
Q 5.515625 8.109375 12.5 16.0625 
Q 4.890625 20.703125 4.890625 29.5 
Q 4.890625 37.109375 10.28125 41.75 
Q 15.671875 46.390625 24.21875 46.390625 
Q 26.46875 46.390625 30.328125 45.796875 
Q 33.984375 45.125 36.03125 45.125 
Q 43.40625 45.125 49.609375 45.265625 
L 49.859375 43.265625 
z
" id="Constantia-103"/>
      </defs>
      <use xlink:href="#Constantia-55"/>
      <use x="48.339844" xlink:href="#Constantia-32"/>
      <use x="70.9375" xlink:href="#Constantia-100"/>
      <use x="127.675781" xlink:href="#Constantia-97"/>
      <use x="175.673828" xlink:href="#Constantia-121"/>
      <use x="223.818359" xlink:href="#Constantia-115"/>
      <use x="264.296875" xlink:href="#Constantia-32"/>
      <use x="289.394531" xlink:href="#Constantia-109"/>
      <use x="376.015625" xlink:href="#Constantia-111"/>
      <use x="430.068359" xlink:href="#Constantia-118"/>
      <use x="478.359375" xlink:href="#Constantia-105"/>
      <use x="506.679688" xlink:href="#Constantia-110"/>
      <use x="564.882812" xlink:href="#Constantia-103"/>
      <use x="615.664062" xlink:href="#Constantia-32"/>
      <use x="638.261719" xlink:href="#Constantia-97"/>
      <use x="686.259766" xlink:href="#Constantia-118"/>
      <use x="734.550781" xlink:href="#Constantia-103"/>
     </g>
    </g>
   </g>
  </g>
  <g id="axes_2">
   <g id="line2d_64">
    <path clip-path="url(#pea1b0fd17f)" d="M 240.060243 155.542158 
L 279.074818 239.475713 
L 292.079676 336.299415 
L 305.084534 455.787473 
L 318.089393 432.073538 
L 331.094251 424.398488 
L 344.099109 417.084232 
L 357.103968 444.504494 
L 370.108826 538.212258 
L 383.113684 536.637889 
L 396.118543 539.393035 
L 409.123401 548.740851 
L 422.128259 553.496758 
L 435.133117 575.242732 
L 448.137976 542.213779 
L 461.142834 567.764479 
L 474.147692 558.908652 
L 487.152551 584.623348 
L 500.157409 592.232799 
L 513.162267 587.837685 
L 526.167126 569.142052 
L 539.171984 586.853704 
L 552.176842 580.654626 
L 565.1817 584.557749 
L 578.186559 571.011615 
L 591.191417 556.579898 
L 617.201134 534.440332 
L 630.205992 539.360235 
L 643.21085 553.004768 
L 656.215709 563.041371 
L 669.220567 555.038328 
L 682.225425 546.77289 
L 695.230283 553.004768 
L 708.235142 584.426552 
L 721.24 584.885743 
L 734.244858 582.556989 
L 747.249717 583.212976 
L 760.254575 584.065759 
L 773.259433 580.293833 
L 786.264291 588.62487 
L 799.26915 582.622587 
L 812.274008 588.231277 
L 825.278866 591.937605 
L 838.283725 584.951342 
L 851.288583 584.492151 
L 864.293441 591.412815 
L 877.2983 581.901001 
L 890.303158 592.429595 
L 903.308016 590.65843 
L 929.317733 576.226713 
L 942.322591 571.011615 
L 955.327449 561.532601 
L 968.332308 578.883461 
L 981.337166 570.978816 
L 994.342024 566.550902 
L 1007.346883 578.063477 
L 1020.351741 593.971165 
L 1033.356599 588.952863 
L 1046.361457 587.837685 
L 1059.366316 560.155028 
L 1072.371174 574.455547 
L 1085.376032 565.796517 
L 1098.380891 562.844575 
L 1111.385749 564.418944 
L 1124.390607 554.185545 
L 1137.395466 556.284704 
L 1150.400324 561.598199 
L 1163.405182 561.467002 
L 1176.41004 564.090951 
L 1189.414899 565.238928 
L 1202.419757 563.008572 
L 1215.424615 567.895676 
L 1228.429474 544.673731 
L 1241.434332 538.835446 
L 1254.43919 528.536447 
L 1267.444049 523.649343 
L 1280.448907 518.762239 
L 1293.453765 517.909456 
L 1306.458623 503.37934 
L 1319.463482 507.249665 
L 1332.46834 508.49604 
L 1345.473198 506.46248 
L 1358.478057 496.950666 
" style="fill:none;stroke:#f08080;stroke-dasharray:6,6;stroke-dashoffset:0;stroke-width:3;"/>
    <g clip-path="url(#pea1b0fd17f)">
     <use style="fill:#f08080;stroke:#000000;stroke-width:0.5;" x="240.060243" xlink:href="#m2d1ba702b5" y="155.542158"/>
     <use style="fill:#f08080;stroke:#000000;stroke-width:0.5;" x="279.074818" xlink:href="#m2d1ba702b5" y="239.475713"/>
     <use style="fill:#f08080;stroke:#000000;stroke-width:0.5;" x="292.079676" xlink:href="#m2d1ba702b5" y="336.299415"/>
     <use style="fill:#f08080;stroke:#000000;stroke-width:0.5;" x="305.084534" xlink:href="#m2d1ba702b5" y="455.787473"/>
     <use style="fill:#f08080;stroke:#000000;stroke-width:0.5;" x="318.089393" xlink:href="#m2d1ba702b5" y="432.073538"/>
     <use style="fill:#f08080;stroke:#000000;stroke-width:0.5;" x="331.094251" xlink:href="#m2d1ba702b5" y="424.398488"/>
     <use style="fill:#f08080;stroke:#000000;stroke-width:0.5;" x="344.099109" xlink:href="#m2d1ba702b5" y="417.084232"/>
     <use style="fill:#f08080;stroke:#000000;stroke-width:0.5;" x="357.103968" xlink:href="#m2d1ba702b5" y="444.504494"/>
     <use style="fill:#f08080;stroke:#000000;stroke-width:0.5;" x="370.108826" xlink:href="#m2d1ba702b5" y="538.212258"/>
     <use style="fill:#f08080;stroke:#000000;stroke-width:0.5;" x="383.113684" xlink:href="#m2d1ba702b5" y="536.637889"/>
     <use style="fill:#f08080;stroke:#000000;stroke-width:0.5;" x="396.118543" xlink:href="#m2d1ba702b5" y="539.393035"/>
     <use style="fill:#f08080;stroke:#000000;stroke-width:0.5;" x="409.123401" xlink:href="#m2d1ba702b5" y="548.740851"/>
     <use style="fill:#f08080;stroke:#000000;stroke-width:0.5;" x="422.128259" xlink:href="#m2d1ba702b5" y="553.496758"/>
     <use style="fill:#f08080;stroke:#000000;stroke-width:0.5;" x="435.133117" xlink:href="#m2d1ba702b5" y="575.242732"/>
     <use style="fill:#f08080;stroke:#000000;stroke-width:0.5;" x="448.137976" xlink:href="#m2d1ba702b5" y="542.213779"/>
     <use style="fill:#f08080;stroke:#000000;stroke-width:0.5;" x="461.142834" xlink:href="#m2d1ba702b5" y="567.764479"/>
     <use style="fill:#f08080;stroke:#000000;stroke-width:0.5;" x="474.147692" xlink:href="#m2d1ba702b5" y="558.908652"/>
     <use style="fill:#f08080;stroke:#000000;stroke-width:0.5;" x="487.152551" xlink:href="#m2d1ba702b5" y="584.623348"/>
     <use style="fill:#f08080;stroke:#000000;stroke-width:0.5;" x="500.157409" xlink:href="#m2d1ba702b5" y="592.232799"/>
     <use style="fill:#f08080;stroke:#000000;stroke-width:0.5;" x="513.162267" xlink:href="#m2d1ba702b5" y="587.837685"/>
     <use style="fill:#f08080;stroke:#000000;stroke-width:0.5;" x="526.167126" xlink:href="#m2d1ba702b5" y="569.142052"/>
     <use style="fill:#f08080;stroke:#000000;stroke-width:0.5;" x="539.171984" xlink:href="#m2d1ba702b5" y="586.853704"/>
     <use style="fill:#f08080;stroke:#000000;stroke-width:0.5;" x="552.176842" xlink:href="#m2d1ba702b5" y="580.654626"/>
     <use style="fill:#f08080;stroke:#000000;stroke-width:0.5;" x="565.1817" xlink:href="#m2d1ba702b5" y="584.557749"/>
     <use style="fill:#f08080;stroke:#000000;stroke-width:0.5;" x="578.186559" xlink:href="#m2d1ba702b5" y="571.011615"/>
     <use style="fill:#f08080;stroke:#000000;stroke-width:0.5;" x="591.191417" xlink:href="#m2d1ba702b5" y="556.579898"/>
     <use style="fill:#f08080;stroke:#000000;stroke-width:0.5;" x="617.201134" xlink:href="#m2d1ba702b5" y="534.440332"/>
     <use style="fill:#f08080;stroke:#000000;stroke-width:0.5;" x="630.205992" xlink:href="#m2d1ba702b5" y="539.360235"/>
     <use style="fill:#f08080;stroke:#000000;stroke-width:0.5;" x="643.21085" xlink:href="#m2d1ba702b5" y="553.004768"/>
     <use style="fill:#f08080;stroke:#000000;stroke-width:0.5;" x="656.215709" xlink:href="#m2d1ba702b5" y="563.041371"/>
     <use style="fill:#f08080;stroke:#000000;stroke-width:0.5;" x="669.220567" xlink:href="#m2d1ba702b5" y="555.038328"/>
     <use style="fill:#f08080;stroke:#000000;stroke-width:0.5;" x="682.225425" xlink:href="#m2d1ba702b5" y="546.77289"/>
     <use style="fill:#f08080;stroke:#000000;stroke-width:0.5;" x="695.230283" xlink:href="#m2d1ba702b5" y="553.004768"/>
     <use style="fill:#f08080;stroke:#000000;stroke-width:0.5;" x="708.235142" xlink:href="#m2d1ba702b5" y="584.426552"/>
     <use style="fill:#f08080;stroke:#000000;stroke-width:0.5;" x="721.24" xlink:href="#m2d1ba702b5" y="584.885743"/>
     <use style="fill:#f08080;stroke:#000000;stroke-width:0.5;" x="734.244858" xlink:href="#m2d1ba702b5" y="582.556989"/>
     <use style="fill:#f08080;stroke:#000000;stroke-width:0.5;" x="747.249717" xlink:href="#m2d1ba702b5" y="583.212976"/>
     <use style="fill:#f08080;stroke:#000000;stroke-width:0.5;" x="760.254575" xlink:href="#m2d1ba702b5" y="584.065759"/>
     <use style="fill:#f08080;stroke:#000000;stroke-width:0.5;" x="773.259433" xlink:href="#m2d1ba702b5" y="580.293833"/>
     <use style="fill:#f08080;stroke:#000000;stroke-width:0.5;" x="786.264291" xlink:href="#m2d1ba702b5" y="588.62487"/>
     <use style="fill:#f08080;stroke:#000000;stroke-width:0.5;" x="799.26915" xlink:href="#m2d1ba702b5" y="582.622587"/>
     <use style="fill:#f08080;stroke:#000000;stroke-width:0.5;" x="812.274008" xlink:href="#m2d1ba702b5" y="588.231277"/>
     <use style="fill:#f08080;stroke:#000000;stroke-width:0.5;" x="825.278866" xlink:href="#m2d1ba702b5" y="591.937605"/>
     <use style="fill:#f08080;stroke:#000000;stroke-width:0.5;" x="838.283725" xlink:href="#m2d1ba702b5" y="584.951342"/>
     <use style="fill:#f08080;stroke:#000000;stroke-width:0.5;" x="851.288583" xlink:href="#m2d1ba702b5" y="584.492151"/>
     <use style="fill:#f08080;stroke:#000000;stroke-width:0.5;" x="864.293441" xlink:href="#m2d1ba702b5" y="591.412815"/>
     <use style="fill:#f08080;stroke:#000000;stroke-width:0.5;" x="877.2983" xlink:href="#m2d1ba702b5" y="581.901001"/>
     <use style="fill:#f08080;stroke:#000000;stroke-width:0.5;" x="890.303158" xlink:href="#m2d1ba702b5" y="592.429595"/>
     <use style="fill:#f08080;stroke:#000000;stroke-width:0.5;" x="903.308016" xlink:href="#m2d1ba702b5" y="590.65843"/>
     <use style="fill:#f08080;stroke:#000000;stroke-width:0.5;" x="929.317733" xlink:href="#m2d1ba702b5" y="576.226713"/>
     <use style="fill:#f08080;stroke:#000000;stroke-width:0.5;" x="942.322591" xlink:href="#m2d1ba702b5" y="571.011615"/>
     <use style="fill:#f08080;stroke:#000000;stroke-width:0.5;" x="955.327449" xlink:href="#m2d1ba702b5" y="561.532601"/>
     <use style="fill:#f08080;stroke:#000000;stroke-width:0.5;" x="968.332308" xlink:href="#m2d1ba702b5" y="578.883461"/>
     <use style="fill:#f08080;stroke:#000000;stroke-width:0.5;" x="981.337166" xlink:href="#m2d1ba702b5" y="570.978816"/>
     <use style="fill:#f08080;stroke:#000000;stroke-width:0.5;" x="994.342024" xlink:href="#m2d1ba702b5" y="566.550902"/>
     <use style="fill:#f08080;stroke:#000000;stroke-width:0.5;" x="1007.346883" xlink:href="#m2d1ba702b5" y="578.063477"/>
     <use style="fill:#f08080;stroke:#000000;stroke-width:0.5;" x="1020.351741" xlink:href="#m2d1ba702b5" y="593.971165"/>
     <use style="fill:#f08080;stroke:#000000;stroke-width:0.5;" x="1033.356599" xlink:href="#m2d1ba702b5" y="588.952863"/>
     <use style="fill:#f08080;stroke:#000000;stroke-width:0.5;" x="1046.361457" xlink:href="#m2d1ba702b5" y="587.837685"/>
     <use style="fill:#f08080;stroke:#000000;stroke-width:0.5;" x="1059.366316" xlink:href="#m2d1ba702b5" y="560.155028"/>
     <use style="fill:#f08080;stroke:#000000;stroke-width:0.5;" x="1072.371174" xlink:href="#m2d1ba702b5" y="574.455547"/>
     <use style="fill:#f08080;stroke:#000000;stroke-width:0.5;" x="1085.376032" xlink:href="#m2d1ba702b5" y="565.796517"/>
     <use style="fill:#f08080;stroke:#000000;stroke-width:0.5;" x="1098.380891" xlink:href="#m2d1ba702b5" y="562.844575"/>
     <use style="fill:#f08080;stroke:#000000;stroke-width:0.5;" x="1111.385749" xlink:href="#m2d1ba702b5" y="564.418944"/>
     <use style="fill:#f08080;stroke:#000000;stroke-width:0.5;" x="1124.390607" xlink:href="#m2d1ba702b5" y="554.185545"/>
     <use style="fill:#f08080;stroke:#000000;stroke-width:0.5;" x="1137.395466" xlink:href="#m2d1ba702b5" y="556.284704"/>
     <use style="fill:#f08080;stroke:#000000;stroke-width:0.5;" x="1150.400324" xlink:href="#m2d1ba702b5" y="561.598199"/>
     <use style="fill:#f08080;stroke:#000000;stroke-width:0.5;" x="1163.405182" xlink:href="#m2d1ba702b5" y="561.467002"/>
     <use style="fill:#f08080;stroke:#000000;stroke-width:0.5;" x="1176.41004" xlink:href="#m2d1ba702b5" y="564.090951"/>
     <use style="fill:#f08080;stroke:#000000;stroke-width:0.5;" x="1189.414899" xlink:href="#m2d1ba702b5" y="565.238928"/>
     <use style="fill:#f08080;stroke:#000000;stroke-width:0.5;" x="1202.419757" xlink:href="#m2d1ba702b5" y="563.008572"/>
     <use style="fill:#f08080;stroke:#000000;stroke-width:0.5;" x="1215.424615" xlink:href="#m2d1ba702b5" y="567.895676"/>
     <use style="fill:#f08080;stroke:#000000;stroke-width:0.5;" x="1228.429474" xlink:href="#m2d1ba702b5" y="544.673731"/>
     <use style="fill:#f08080;stroke:#000000;stroke-width:0.5;" x="1241.434332" xlink:href="#m2d1ba702b5" y="538.835446"/>
     <use style="fill:#f08080;stroke:#000000;stroke-width:0.5;" x="1254.43919" xlink:href="#m2d1ba702b5" y="528.536447"/>
     <use style="fill:#f08080;stroke:#000000;stroke-width:0.5;" x="1267.444049" xlink:href="#m2d1ba702b5" y="523.649343"/>
     <use style="fill:#f08080;stroke:#000000;stroke-width:0.5;" x="1280.448907" xlink:href="#m2d1ba702b5" y="518.762239"/>
     <use style="fill:#f08080;stroke:#000000;stroke-width:0.5;" x="1293.453765" xlink:href="#m2d1ba702b5" y="517.909456"/>
     <use style="fill:#f08080;stroke:#000000;stroke-width:0.5;" x="1306.458623" xlink:href="#m2d1ba702b5" y="503.37934"/>
     <use style="fill:#f08080;stroke:#000000;stroke-width:0.5;" x="1319.463482" xlink:href="#m2d1ba702b5" y="507.249665"/>
     <use style="fill:#f08080;stroke:#000000;stroke-width:0.5;" x="1332.46834" xlink:href="#m2d1ba702b5" y="508.49604"/>
     <use style="fill:#f08080;stroke:#000000;stroke-width:0.5;" x="1345.473198" xlink:href="#m2d1ba702b5" y="506.46248"/>
     <use style="fill:#f08080;stroke:#000000;stroke-width:0.5;" x="1358.478057" xlink:href="#m2d1ba702b5" y="496.950666"/>
    </g>
   </g>
  </g>
  <g id="text_27">
   <!-- Usa -->
   <g transform="translate(669.355625 21.915625)scale(0.2 -0.2)">
    <defs>
     <path d="M 3.078125 68.359375 
Q 9.375 68.171875 15.1875 68.171875 
Q 21.046875 68.171875 27.296875 68.359375 
L 27.484375 66.265625 
L 21.4375 64.453125 
Q 20.265625 64.15625 20.171875 62.9375 
Q 20.125 61.234375 20.09375 59.203125 
Q 20.0625 57.171875 20.0625 54.78125 
L 20.0625 28.078125 
Q 20.0625 14.109375 24.5 8.71875 
Q 28.953125 3.328125 38.8125 3.328125 
Q 48.828125 3.328125 53.3125 8.890625 
Q 57.8125 14.453125 57.8125 27.484375 
L 57.8125 54.78125 
Q 57.8125 57.171875 57.78125 59.203125 
Q 57.765625 61.234375 57.671875 62.9375 
Q 57.625 64.0625 56.390625 64.453125 
L 50.6875 66.109375 
L 50.59375 68.359375 
Q 56.78125 68.171875 61.234375 68.171875 
Q 65.484375 68.171875 71.578125 68.359375 
L 71.78125 66.265625 
L 65.625 64.359375 
Q 64.5 63.96875 64.453125 62.703125 
Q 64.40625 61.078125 64.375 59.078125 
Q 64.359375 57.078125 64.359375 54.59375 
L 64.359375 29.546875 
Q 64.359375 13.53125 57.828125 5.859375 
Q 51.3125 -1.8125 37.3125 -1.8125 
Q 23.578125 -1.8125 17.03125 5.09375 
Q 10.5 12.015625 10.5 26.5625 
L 10.5 54.59375 
Q 10.5 57.078125 10.46875 59.078125 
Q 10.453125 61.078125 10.40625 62.703125 
Q 10.359375 63.96875 9.234375 64.359375 
L 3.171875 66.265625 
z
" id="Constantia-85"/>
    </defs>
    <use xlink:href="#Constantia-85"/>
    <use x="72.365234" xlink:href="#Constantia-115"/>
    <use x="112.84375" xlink:href="#Constantia-97"/>
   </g>
   <!-- Daily increase of NewDeaths -->
   <g transform="translate(561.569687 44.32125)scale(0.2 -0.2)">
    <defs>
     <path d="M 2.734375 68.5 
L 2.484375 70.125 
Q 11.140625 71.78125 18.40625 73.578125 
L 18.84375 73.1875 
Q 18.5625 65.234375 18.5625 51.078125 
L 18.5625 19.28125 
Q 18.5625 10.546875 18.65625 5.21875 
Q 18.796875 3.8125 20.015625 3.46875 
L 25.34375 1.859375 
L 25.484375 -0.140625 
Q 18.890625 0 14.109375 0 
Q 9.328125 0 2.78125 -0.140625 
L 2.59375 1.859375 
L 8.109375 3.46875 
Q 9.328125 3.859375 9.421875 5.03125 
Q 9.515625 10.546875 9.515625 17.328125 
L 9.515625 37.40625 
Q 9.515625 55.5625 9.328125 66.546875 
z
" id="Constantia-108"/>
     <path d="M 2.828125 42.96875 
Q 10.984375 44.53125 18.3125 46.390625 
L 18.796875 46.046875 
L 18.796875 40.328125 
Q 27.828125 46.390625 36.53125 46.390625 
L 36.765625 46.09375 
Q 35.359375 38.8125 33.984375 31 
L 32.03125 30.671875 
Q 30.671875 34.8125 29.390625 37.328125 
Q 28.125 39.84375 25.390625 39.84375 
Q 22.75 39.84375 18.796875 37.40625 
L 18.796875 16.265625 
Q 18.796875 8.640625 18.890625 5.375 
Q 18.953125 4.046875 20.125 3.71875 
L 26.609375 1.859375 
L 26.765625 -0.140625 
Q 19.140625 0 14.359375 0 
Q 9.578125 0 3.03125 -0.140625 
L 2.828125 1.859375 
L 8.5 3.515625 
Q 9.671875 3.90625 9.71875 5.03125 
Q 9.765625 7.125 9.765625 11.03125 
L 9.765625 27.6875 
Q 9.765625 35.640625 9.578125 39.546875 
L 3.078125 41.3125 
z
" id="Constantia-114"/>
     <path d="M 18.796875 39.9375 
L 18.796875 13.421875 
Q 18.796875 8.84375 18.890625 5.375 
Q 19 4.046875 20.171875 3.71875 
L 26.375 1.859375 
L 26.515625 -0.140625 
Q 19.140625 0 14.40625 0 
Q 9.578125 0 3.03125 -0.140625 
L 2.78125 1.859375 
L 8.25 3.421875 
Q 9.625 3.859375 9.671875 5.03125 
Q 9.765625 8.0625 9.765625 11.421875 
L 9.765625 40.1875 
L 3.125 41.84375 
L 2.78125 43.890625 
L 9.8125 44.484375 
L 9.8125 44.671875 
Q 9.8125 58.453125 15.796875 66.015625 
Q 21.78125 73.578125 31.84375 73.578125 
Q 36.765625 73.578125 41.359375 72.359375 
Q 39.703125 66.40625 38.53125 60.109375 
L 36.46875 59.71875 
L 33.296875 69.484375 
Q 32.171875 69.625 30.46875 69.625 
Q 24.859375 69.625 21.828125 64.59375 
Q 18.796875 59.578125 18.796875 46.1875 
L 18.796875 44.578125 
L 30.953125 44.578125 
L 30.953125 39.9375 
z
" id="Constantia-102"/>
    </defs>
    <use xlink:href="#Constantia-68"/>
    <use x="73.847656" xlink:href="#Constantia-97"/>
    <use x="121.845703" xlink:href="#Constantia-105"/>
    <use x="150.166016" xlink:href="#Constantia-108"/>
    <use x="178.242188" xlink:href="#Constantia-121"/>
    <use x="226.386719" xlink:href="#Constantia-32"/>
    <use x="251.484375" xlink:href="#Constantia-105"/>
    <use x="279.804688" xlink:href="#Constantia-110"/>
    <use x="338.007812" xlink:href="#Constantia-99"/>
    <use x="384.150391" xlink:href="#Constantia-114"/>
    <use x="422.480469" xlink:href="#Constantia-101"/>
    <use x="470.380859" xlink:href="#Constantia-97"/>
    <use x="518.378906" xlink:href="#Constantia-115"/>
    <use x="558.857422" xlink:href="#Constantia-101"/>
    <use x="606.757812" xlink:href="#Constantia-32"/>
    <use x="629.355469" xlink:href="#Constantia-111"/>
    <use x="683.408203" xlink:href="#Constantia-102"/>
    <use x="714.365234" xlink:href="#Constantia-32"/>
    <use x="739.462891" xlink:href="#Constantia-78"/>
    <use x="812.865234" xlink:href="#Constantia-101"/>
    <use x="860.765625" xlink:href="#Constantia-119"/>
    <use x="933.958984" xlink:href="#Constantia-68"/>
    <use x="1009.056641" xlink:href="#Constantia-101"/>
    <use x="1056.957031" xlink:href="#Constantia-97"/>
    <use x="1104.955078" xlink:href="#Constantia-116"/>
    <use x="1140.257812" xlink:href="#Constantia-104"/>
    <use x="1198.216797" xlink:href="#Constantia-115"/>
   </g>
  </g>
 </g>
 <defs>
  <clipPath id="pea1b0fd17f">
   <rect height="573.98875" width="1284.88" x="78.8" y="69.21425"/>
  </clipPath>
 </defs>
</svg>
