<?xml version="1.0" encoding="utf-8" standalone="no"?>
<!DOCTYPE svg PUBLIC "-//W3C//DTD SVG 1.1//EN"
  "http://www.w3.org/Graphics/SVG/1.1/DTD/svg11.dtd">
<!-- Created with matplotlib (https://matplotlib.org/) -->
<svg height="765.648pt" version="1.1" viewBox="0 0 1375.267833 765.648" width="1375.267833pt" xmlns="http://www.w3.org/2000/svg" xmlns:xlink="http://www.w3.org/1999/xlink">
 <metadata>
  <rdf:RDF xmlns:cc="http://creativecommons.org/ns#" xmlns:dc="http://purl.org/dc/elements/1.1/" xmlns:rdf="http://www.w3.org/1999/02/22-rdf-syntax-ns#">
   <cc:Work>
    <dc:type rdf:resource="http://purl.org/dc/dcmitype/StillImage"/>
    <dc:date>2020-11-25T14:30:14.614202</dc:date>
    <dc:format>image/svg+xml</dc:format>
    <dc:creator>
     <cc:Agent>
      <dc:title>Matplotlib v3.3.2, https://matplotlib.org/</dc:title>
     </cc:Agent>
    </dc:creator>
   </cc:Work>
  </rdf:RDF>
 </metadata>
 <defs>
  <style type="text/css">*{stroke-linecap:butt;stroke-linejoin:round;}</style>
 </defs>
 <g id="figure_1">
  <g id="patch_1">
   <path d="M 0 765.648 
L 1375.267833 765.648 
L 1375.267833 0 
L 0 0 
z
" style="fill:none;"/>
  </g>
  <g id="axes_1">
   <g id="patch_2">
    <path d="M 48.434375 642.216125 
L 1187.627078 642.216125 
L 1187.627078 65.520813 
L 48.434375 65.520813 
z
" style="fill:#ffffff;"/>
   </g>
   <g id="patch_3">
    <path clip-path="url(#pe9113cbf82)" d="M 100.215861 642.216125 
L 107.496211 642.216125 
L 107.496211 390.484397 
L 100.215861 390.484397 
z
" style="fill:#ffa500;"/>
   </g>
   <g id="patch_4">
    <path clip-path="url(#pe9113cbf82)" d="M 154.818483 642.216125 
L 162.098833 642.216125 
L 162.098833 381.636959 
L 154.818483 381.636959 
z
" style="fill:#ffa500;"/>
   </g>
   <g id="patch_5">
    <path clip-path="url(#pe9113cbf82)" d="M 191.220231 642.216125 
L 198.500581 642.216125 
L 198.500581 376.422321 
L 191.220231 376.422321 
z
" style="fill:#ffa500;"/>
   </g>
   <g id="patch_6">
    <path clip-path="url(#pe9113cbf82)" d="M 227.621979 642.216125 
L 234.902329 642.216125 
L 234.902329 368.5804 
L 227.621979 368.5804 
z
" style="fill:#ffa500;"/>
   </g>
   <g id="patch_7">
    <path clip-path="url(#pe9113cbf82)" d="M 236.722416 642.216125 
L 244.002766 642.216125 
L 244.002766 365.796516 
L 236.722416 365.796516 
z
" style="fill:#ffa500;"/>
   </g>
   <g id="patch_8">
    <path clip-path="url(#pe9113cbf82)" d="M 245.822853 642.216125 
L 253.103203 642.216125 
L 253.103203 366.140166 
L 245.822853 366.140166 
z
" style="fill:#ffa500;"/>
   </g>
   <g id="patch_9">
    <path clip-path="url(#pe9113cbf82)" d="M 254.92329 642.216125 
L 262.20364 642.216125 
L 262.20364 366.768461 
L 254.92329 366.768461 
z
" style="fill:#ffa500;"/>
   </g>
   <g id="patch_10">
    <path clip-path="url(#pe9113cbf82)" d="M 264.023727 642.216125 
L 271.304077 642.216125 
L 271.304077 367.408133 
L 264.023727 367.408133 
z
" style="fill:#ffa500;"/>
   </g>
   <g id="patch_11">
    <path clip-path="url(#pe9113cbf82)" d="M 291.325038 642.216125 
L 298.605388 642.216125 
L 298.605388 360.709144 
L 291.325038 360.709144 
z
" style="fill:#ffa500;"/>
   </g>
   <g id="patch_12">
    <path clip-path="url(#pe9113cbf82)" d="M 300.425475 642.216125 
L 307.705825 642.216125 
L 307.705825 360.240572 
L 300.425475 360.240572 
z
" style="fill:#ffa500;"/>
   </g>
   <g id="patch_13">
    <path clip-path="url(#pe9113cbf82)" d="M 309.525912 642.216125 
L 316.806262 642.216125 
L 316.806262 360.623929 
L 309.525912 360.623929 
z
" style="fill:#ffa500;"/>
   </g>
   <g id="patch_14">
    <path clip-path="url(#pe9113cbf82)" d="M 318.626349 642.216125 
L 325.906699 642.216125 
L 325.906699 359.777242 
L 318.626349 359.777242 
z
" style="fill:#ffa500;"/>
   </g>
   <g id="patch_15">
    <path clip-path="url(#pe9113cbf82)" d="M 327.726786 642.216125 
L 335.007136 642.216125 
L 335.007136 361.169574 
L 327.726786 361.169574 
z
" style="fill:#ffa500;"/>
   </g>
   <g id="patch_16">
    <path clip-path="url(#pe9113cbf82)" d="M 336.827223 642.216125 
L 344.107573 642.216125 
L 344.107573 359.397008 
L 336.827223 359.397008 
z
" style="fill:#ffa500;"/>
   </g>
   <g id="patch_17">
    <path clip-path="url(#pe9113cbf82)" d="M 345.92766 642.216125 
L 353.20801 642.216125 
L 353.20801 359.549035 
L 345.92766 359.549035 
z
" style="fill:#ffa500;"/>
   </g>
   <g id="patch_18">
    <path clip-path="url(#pe9113cbf82)" d="M 355.028097 642.216125 
L 362.308447 642.216125 
L 362.308447 356.712728 
L 355.028097 356.712728 
z
" style="fill:#ffa500;"/>
   </g>
   <g id="patch_19">
    <path clip-path="url(#pe9113cbf82)" d="M 364.128534 642.216125 
L 371.408884 642.216125 
L 371.408884 355.775918 
L 364.128534 355.775918 
z
" style="fill:#ffa500;"/>
   </g>
   <g id="patch_20">
    <path clip-path="url(#pe9113cbf82)" d="M 373.228971 642.216125 
L 380.509321 642.216125 
L 380.509321 353.992198 
L 373.228971 353.992198 
z
" style="fill:#ffa500;"/>
   </g>
   <g id="patch_21">
    <path clip-path="url(#pe9113cbf82)" d="M 382.329408 642.216125 
L 389.609758 642.216125 
L 389.609758 355.946683 
L 382.329408 355.946683 
z
" style="fill:#ffa500;"/>
   </g>
   <g id="patch_22">
    <path clip-path="url(#pe9113cbf82)" d="M 391.429845 642.216125 
L 398.710195 642.216125 
L 398.710195 355.683341 
L 391.429845 355.683341 
z
" style="fill:#ffa500;"/>
   </g>
   <g id="patch_23">
    <path clip-path="url(#pe9113cbf82)" d="M 400.530282 642.216125 
L 407.810632 642.216125 
L 407.810632 355.664268 
L 400.530282 355.664268 
z
" style="fill:#ffa500;"/>
   </g>
   <g id="patch_24">
    <path clip-path="url(#pe9113cbf82)" d="M 409.630719 642.216125 
L 416.911069 642.216125 
L 416.911069 358.88159 
L 409.630719 358.88159 
z
" style="fill:#ffa500;"/>
   </g>
   <g id="patch_25">
    <path clip-path="url(#pe9113cbf82)" d="M 418.731156 642.216125 
L 426.011506 642.216125 
L 426.011506 359.492039 
L 418.731156 359.492039 
z
" style="fill:#ffa500;"/>
   </g>
   <g id="patch_26">
    <path clip-path="url(#pe9113cbf82)" d="M 427.831593 642.216125 
L 435.111943 642.216125 
L 435.111943 358.235895 
L 427.831593 358.235895 
z
" style="fill:#ffa500;"/>
   </g>
   <g id="patch_27">
    <path clip-path="url(#pe9113cbf82)" d="M 436.93203 642.216125 
L 444.21238 642.216125 
L 444.21238 360.13238 
L 436.93203 360.13238 
z
" style="fill:#ffa500;"/>
   </g>
   <g id="patch_28">
    <path clip-path="url(#pe9113cbf82)" d="M 446.032467 642.216125 
L 453.312817 642.216125 
L 453.312817 361.430462 
L 446.032467 361.430462 
z
" style="fill:#ffa500;"/>
   </g>
   <g id="patch_29">
    <path clip-path="url(#pe9113cbf82)" d="M 455.132904 642.216125 
L 462.413254 642.216125 
L 462.413254 362.521084 
L 455.132904 362.521084 
z
" style="fill:#ffa500;"/>
   </g>
   <g id="patch_30">
    <path clip-path="url(#pe9113cbf82)" d="M 464.233341 642.216125 
L 471.513691 642.216125 
L 471.513691 360.303034 
L 464.233341 360.303034 
z
" style="fill:#ffa500;"/>
   </g>
   <g id="patch_31">
    <path clip-path="url(#pe9113cbf82)" d="M 473.333778 642.216125 
L 480.614128 642.216125 
L 480.614128 359.741438 
L 473.333778 359.741438 
z
" style="fill:#ffa500;"/>
   </g>
   <g id="patch_32">
    <path clip-path="url(#pe9113cbf82)" d="M 482.434215 642.216125 
L 489.714565 642.216125 
L 489.714565 359.171589 
L 482.434215 359.171589 
z
" style="fill:#ffa500;"/>
   </g>
   <g id="patch_33">
    <path clip-path="url(#pe9113cbf82)" d="M 491.534652 642.216125 
L 498.815002 642.216125 
L 498.815002 360.545629 
L 491.534652 360.545629 
z
" style="fill:#ffa500;"/>
   </g>
   <g id="patch_34">
    <path clip-path="url(#pe9113cbf82)" d="M 500.635089 642.216125 
L 507.915439 642.216125 
L 507.915439 360.923632 
L 500.635089 360.923632 
z
" style="fill:#ffa500;"/>
   </g>
   <g id="patch_35">
    <path clip-path="url(#pe9113cbf82)" d="M 509.735526 642.216125 
L 517.015876 642.216125 
L 517.015876 361.782477 
L 509.735526 361.782477 
z
" style="fill:#ffa500;"/>
   </g>
   <g id="patch_36">
    <path clip-path="url(#pe9113cbf82)" d="M 527.9364 642.216125 
L 535.21675 642.216125 
L 535.21675 361.014648 
L 527.9364 361.014648 
z
" style="fill:#ffa500;"/>
   </g>
   <g id="patch_37">
    <path clip-path="url(#pe9113cbf82)" d="M 537.036837 642.216125 
L 544.317187 642.216125 
L 544.317187 358.581106 
L 537.036837 358.581106 
z
" style="fill:#ffa500;"/>
   </g>
   <g id="patch_38">
    <path clip-path="url(#pe9113cbf82)" d="M 546.137274 642.216125 
L 553.417624 642.216125 
L 553.417624 358.114206 
L 546.137274 358.114206 
z
" style="fill:#ffa500;"/>
   </g>
   <g id="patch_39">
    <path clip-path="url(#pe9113cbf82)" d="M 555.237711 642.216125 
L 562.518061 642.216125 
L 562.518061 358.607763 
L 555.237711 358.607763 
z
" style="fill:#ffa500;"/>
   </g>
   <g id="patch_40">
    <path clip-path="url(#pe9113cbf82)" d="M 564.338148 642.216125 
L 571.618498 642.216125 
L 571.618498 358.709598 
L 564.338148 358.709598 
z
" style="fill:#ffa500;"/>
   </g>
   <g id="patch_41">
    <path clip-path="url(#pe9113cbf82)" d="M 573.438585 642.216125 
L 580.718935 642.216125 
L 580.718935 359.080909 
L 573.438585 359.080909 
z
" style="fill:#ffa500;"/>
   </g>
   <g id="patch_42">
    <path clip-path="url(#pe9113cbf82)" d="M 582.539022 642.216125 
L 589.819372 642.216125 
L 589.819372 359.197132 
L 582.539022 359.197132 
z
" style="fill:#ffa500;"/>
   </g>
   <g id="patch_43">
    <path clip-path="url(#pe9113cbf82)" d="M 591.639459 642.216125 
L 598.919809 642.216125 
L 598.919809 359.035066 
L 591.639459 359.035066 
z
" style="fill:#ffa500;"/>
   </g>
   <g id="patch_44">
    <path clip-path="url(#pe9113cbf82)" d="M 600.739896 642.216125 
L 608.020246 642.216125 
L 608.020246 357.722596 
L 600.739896 357.722596 
z
" style="fill:#ffa500;"/>
   </g>
   <g id="patch_45">
    <path clip-path="url(#pe9113cbf82)" d="M 609.840333 642.216125 
L 617.120683 642.216125 
L 617.120683 356.244602 
L 609.840333 356.244602 
z
" style="fill:#ffa500;"/>
   </g>
   <g id="patch_46">
    <path clip-path="url(#pe9113cbf82)" d="M 618.94077 642.216125 
L 626.22112 642.216125 
L 626.22112 358.335164 
L 618.94077 358.335164 
z
" style="fill:#ffa500;"/>
   </g>
   <g id="patch_47">
    <path clip-path="url(#pe9113cbf82)" d="M 628.041207 642.216125 
L 635.321557 642.216125 
L 635.321557 359.208843 
L 628.041207 359.208843 
z
" style="fill:#ffa500;"/>
   </g>
   <g id="patch_48">
    <path clip-path="url(#pe9113cbf82)" d="M 637.141644 642.216125 
L 644.421994 642.216125 
L 644.421994 358.612225 
L 637.141644 358.612225 
z
" style="fill:#ffa500;"/>
   </g>
   <g id="patch_49">
    <path clip-path="url(#pe9113cbf82)" d="M 646.242081 642.216125 
L 653.522431 642.216125 
L 653.522431 358.517194 
L 646.242081 358.517194 
z
" style="fill:#ffa500;"/>
   </g>
   <g id="patch_50">
    <path clip-path="url(#pe9113cbf82)" d="M 655.342518 642.216125 
L 662.622868 642.216125 
L 662.622868 357.306781 
L 655.342518 357.306781 
z
" style="fill:#ffa500;"/>
   </g>
   <g id="patch_51">
    <path clip-path="url(#pe9113cbf82)" d="M 664.442955 642.216125 
L 671.723304 642.216125 
L 671.723304 356.55479 
L 664.442955 356.55479 
z
" style="fill:#ffa500;"/>
   </g>
   <g id="patch_52">
    <path clip-path="url(#pe9113cbf82)" d="M 673.543392 642.216125 
L 680.823741 642.216125 
L 680.823741 355.596565 
L 673.543392 355.596565 
z
" style="fill:#ffa500;"/>
   </g>
   <g id="patch_53">
    <path clip-path="url(#pe9113cbf82)" d="M 682.643829 642.216125 
L 689.924178 642.216125 
L 689.924178 354.790366 
L 682.643829 354.790366 
z
" style="fill:#ffa500;"/>
   </g>
   <g id="patch_54">
    <path clip-path="url(#pe9113cbf82)" d="M 691.744266 642.216125 
L 699.024615 642.216125 
L 699.024615 355.37873 
L 691.744266 355.37873 
z
" style="fill:#ffa500;"/>
   </g>
   <g id="patch_55">
    <path clip-path="url(#pe9113cbf82)" d="M 700.844703 642.216125 
L 708.125052 642.216125 
L 708.125052 354.876027 
L 700.844703 354.876027 
z
" style="fill:#ffa500;"/>
   </g>
   <g id="patch_56">
    <path clip-path="url(#pe9113cbf82)" d="M 709.94514 642.216125 
L 717.225489 642.216125 
L 717.225489 353.229276 
L 709.94514 353.229276 
z
" style="fill:#ffa500;"/>
   </g>
   <g id="patch_57">
    <path clip-path="url(#pe9113cbf82)" d="M 719.045577 642.216125 
L 726.325926 642.216125 
L 726.325926 351.429606 
L 719.045577 351.429606 
z
" style="fill:#ffa500;"/>
   </g>
   <g id="patch_58">
    <path clip-path="url(#pe9113cbf82)" d="M 728.146014 642.216125 
L 735.426363 642.216125 
L 735.426363 348.938845 
L 728.146014 348.938845 
z
" style="fill:#ffa500;"/>
   </g>
   <g id="patch_59">
    <path clip-path="url(#pe9113cbf82)" d="M 746.346888 642.216125 
L 753.627237 642.216125 
L 753.627237 347.540155 
L 746.346888 347.540155 
z
" style="fill:#ffa500;"/>
   </g>
   <g id="patch_60">
    <path clip-path="url(#pe9113cbf82)" d="M 755.447325 642.216125 
L 762.727674 642.216125 
L 762.727674 347.377533 
L 755.447325 347.377533 
z
" style="fill:#ffa500;"/>
   </g>
   <g id="patch_61">
    <path clip-path="url(#pe9113cbf82)" d="M 764.547762 642.216125 
L 771.828111 642.216125 
L 771.828111 346.233038 
L 764.547762 346.233038 
z
" style="fill:#ffa500;"/>
   </g>
   <g id="patch_62">
    <path clip-path="url(#pe9113cbf82)" d="M 773.648199 642.216125 
L 780.928548 642.216125 
L 780.928548 346.392427 
L 773.648199 346.392427 
z
" style="fill:#ffa500;"/>
   </g>
   <g id="patch_63">
    <path clip-path="url(#pe9113cbf82)" d="M 782.748636 642.216125 
L 790.028985 642.216125 
L 790.028985 341.853265 
L 782.748636 341.853265 
z
" style="fill:#ffa500;"/>
   </g>
   <g id="patch_64">
    <path clip-path="url(#pe9113cbf82)" d="M 791.849073 642.216125 
L 799.129422 642.216125 
L 799.129422 342.687906 
L 791.849073 342.687906 
z
" style="fill:#ffa500;"/>
   </g>
   <g id="patch_65">
    <path clip-path="url(#pe9113cbf82)" d="M 800.94951 642.216125 
L 808.229859 642.216125 
L 808.229859 341.170539 
L 800.94951 341.170539 
z
" style="fill:#ffa500;"/>
   </g>
   <g id="patch_66">
    <path clip-path="url(#pe9113cbf82)" d="M 810.049947 642.216125 
L 817.330296 642.216125 
L 817.330296 339.996153 
L 810.049947 339.996153 
z
" style="fill:#ffa500;"/>
   </g>
   <g id="patch_67">
    <path clip-path="url(#pe9113cbf82)" d="M 819.150384 642.216125 
L 826.430733 642.216125 
L 826.430733 336.602043 
L 819.150384 336.602043 
z
" style="fill:#ffa500;"/>
   </g>
   <g id="patch_68">
    <path clip-path="url(#pe9113cbf82)" d="M 828.250821 642.216125 
L 835.53117 642.216125 
L 835.53117 333.926017 
L 828.250821 333.926017 
z
" style="fill:#ffa500;"/>
   </g>
   <g id="patch_69">
    <path clip-path="url(#pe9113cbf82)" d="M 837.351258 642.216125 
L 844.631607 642.216125 
L 844.631607 333.108999 
L 837.351258 333.108999 
z
" style="fill:#ffa500;"/>
   </g>
   <g id="patch_70">
    <path clip-path="url(#pe9113cbf82)" d="M 846.451695 642.216125 
L 853.732044 642.216125 
L 853.732044 330.296116 
L 846.451695 330.296116 
z
" style="fill:#ffa500;"/>
   </g>
   <g id="patch_71">
    <path clip-path="url(#pe9113cbf82)" d="M 855.552132 642.216125 
L 862.832481 642.216125 
L 862.832481 324.196422 
L 855.552132 324.196422 
z
" style="fill:#ffa500;"/>
   </g>
   <g id="patch_72">
    <path clip-path="url(#pe9113cbf82)" d="M 864.652569 642.216125 
L 871.932918 642.216125 
L 871.932918 319.921272 
L 864.652569 319.921272 
z
" style="fill:#ffa500;"/>
   </g>
   <g id="patch_73">
    <path clip-path="url(#pe9113cbf82)" d="M 873.753006 642.216125 
L 881.033355 642.216125 
L 881.033355 317.571049 
L 873.753006 317.571049 
z
" style="fill:#ffa500;"/>
   </g>
   <g id="patch_74">
    <path clip-path="url(#pe9113cbf82)" d="M 882.853443 642.216125 
L 890.133792 642.216125 
L 890.133792 315.718956 
L 882.853443 315.718956 
z
" style="fill:#ffa500;"/>
   </g>
   <g id="patch_75">
    <path clip-path="url(#pe9113cbf82)" d="M 891.95388 642.216125 
L 899.234229 642.216125 
L 899.234229 312.267293 
L 891.95388 312.267293 
z
" style="fill:#ffa500;"/>
   </g>
   <g id="patch_76">
    <path clip-path="url(#pe9113cbf82)" d="M 901.054317 642.216125 
L 908.334666 642.216125 
L 908.334666 307.888969 
L 901.054317 307.888969 
z
" style="fill:#ffa500;"/>
   </g>
   <g id="patch_77">
    <path clip-path="url(#pe9113cbf82)" d="M 910.154754 642.216125 
L 917.435103 642.216125 
L 917.435103 303.417511 
L 910.154754 303.417511 
z
" style="fill:#ffa500;"/>
   </g>
   <g id="patch_78">
    <path clip-path="url(#pe9113cbf82)" d="M 919.255191 642.216125 
L 926.53554 642.216125 
L 926.53554 297.34771 
L 919.255191 297.34771 
z
" style="fill:#ffa500;"/>
   </g>
   <g id="patch_79">
    <path clip-path="url(#pe9113cbf82)" d="M 928.355628 642.216125 
L 935.635977 642.216125 
L 935.635977 292.519107 
L 928.355628 292.519107 
z
" style="fill:#ffa500;"/>
   </g>
   <g id="patch_80">
    <path clip-path="url(#pe9113cbf82)" d="M 937.456065 642.216125 
L 944.736414 642.216125 
L 944.736414 290.621729 
L 937.456065 290.621729 
z
" style="fill:#ffa500;"/>
   </g>
   <g id="patch_81">
    <path clip-path="url(#pe9113cbf82)" d="M 946.556502 642.216125 
L 953.836851 642.216125 
L 953.836851 286.089037 
L 946.556502 286.089037 
z
" style="fill:#ffa500;"/>
   </g>
   <g id="patch_82">
    <path clip-path="url(#pe9113cbf82)" d="M 955.656939 642.216125 
L 962.937288 642.216125 
L 962.937288 279.303718 
L 955.656939 279.303718 
z
" style="fill:#ffa500;"/>
   </g>
   <g id="patch_83">
    <path clip-path="url(#pe9113cbf82)" d="M 964.757376 642.216125 
L 972.037725 642.216125 
L 972.037725 272.714929 
L 964.757376 272.714929 
z
" style="fill:#ffa500;"/>
   </g>
   <g id="patch_84">
    <path clip-path="url(#pe9113cbf82)" d="M 973.857813 642.216125 
L 981.138162 642.216125 
L 981.138162 262.978307 
L 973.857813 262.978307 
z
" style="fill:#ffa500;"/>
   </g>
   <g id="patch_85">
    <path clip-path="url(#pe9113cbf82)" d="M 982.95825 642.216125 
L 990.238599 642.216125 
L 990.238599 253.841985 
L 982.95825 253.841985 
z
" style="fill:#ffa500;"/>
   </g>
   <g id="patch_86">
    <path clip-path="url(#pe9113cbf82)" d="M 992.058687 642.216125 
L 999.339036 642.216125 
L 999.339036 246.172502 
L 992.058687 246.172502 
z
" style="fill:#ffa500;"/>
   </g>
   <g id="patch_87">
    <path clip-path="url(#pe9113cbf82)" d="M 1001.159124 642.216125 
L 1008.439473 642.216125 
L 1008.439473 240.459288 
L 1001.159124 240.459288 
z
" style="fill:#ffa500;"/>
   </g>
   <g id="patch_88">
    <path clip-path="url(#pe9113cbf82)" d="M 1010.259561 642.216125 
L 1017.53991 642.216125 
L 1017.53991 230.516432 
L 1010.259561 230.516432 
z
" style="fill:#ffa500;"/>
   </g>
   <g id="patch_89">
    <path clip-path="url(#pe9113cbf82)" d="M 1019.359998 642.216125 
L 1026.640347 642.216125 
L 1026.640347 220.580491 
L 1019.359998 220.580491 
z
" style="fill:#ffa500;"/>
   </g>
   <g id="patch_90">
    <path clip-path="url(#pe9113cbf82)" d="M 1028.460435 642.216125 
L 1035.740784 642.216125 
L 1035.740784 207.968525 
L 1028.460435 207.968525 
z
" style="fill:#ffa500;"/>
   </g>
   <g id="patch_91">
    <path clip-path="url(#pe9113cbf82)" d="M 1037.560872 642.216125 
L 1044.841221 642.216125 
L 1044.841221 195.313727 
L 1037.560872 195.313727 
z
" style="fill:#ffa500;"/>
   </g>
   <g id="patch_92">
    <path clip-path="url(#pe9113cbf82)" d="M 1046.661309 642.216125 
L 1053.941658 642.216125 
L 1053.941658 184.182988 
L 1046.661309 184.182988 
z
" style="fill:#ffa500;"/>
   </g>
   <g id="patch_93">
    <path clip-path="url(#pe9113cbf82)" d="M 1055.761746 642.216125 
L 1063.042095 642.216125 
L 1063.042095 178.528444 
L 1055.761746 178.528444 
z
" style="fill:#ffa500;"/>
   </g>
   <g id="patch_94">
    <path clip-path="url(#pe9113cbf82)" d="M 1064.862182 642.216125 
L 1072.142532 642.216125 
L 1072.142532 168.519111 
L 1064.862182 168.519111 
z
" style="fill:#ffa500;"/>
   </g>
   <g id="patch_95">
    <path clip-path="url(#pe9113cbf82)" d="M 1073.962619 642.216125 
L 1081.242969 642.216125 
L 1081.242969 159.230762 
L 1073.962619 159.230762 
z
" style="fill:#ffa500;"/>
   </g>
   <g id="patch_96">
    <path clip-path="url(#pe9113cbf82)" d="M 1083.063056 642.216125 
L 1090.343406 642.216125 
L 1090.343406 149.543997 
L 1083.063056 149.543997 
z
" style="fill:#ffa500;"/>
   </g>
   <g id="patch_97">
    <path clip-path="url(#pe9113cbf82)" d="M 1092.163493 642.216125 
L 1099.443843 642.216125 
L 1099.443843 135.693175 
L 1092.163493 135.693175 
z
" style="fill:#ffa500;"/>
   </g>
   <g id="patch_98">
    <path clip-path="url(#pe9113cbf82)" d="M 1101.26393 642.216125 
L 1108.54428 642.216125 
L 1108.54428 121.358388 
L 1101.26393 121.358388 
z
" style="fill:#ffa500;"/>
   </g>
   <g id="patch_99">
    <path clip-path="url(#pe9113cbf82)" d="M 1110.364367 642.216125 
L 1117.644717 642.216125 
L 1117.644717 111.358424 
L 1110.364367 111.358424 
z
" style="fill:#ffa500;"/>
   </g>
   <g id="patch_100">
    <path clip-path="url(#pe9113cbf82)" d="M 1119.464804 642.216125 
L 1126.745154 642.216125 
L 1126.745154 100.629 
L 1119.464804 100.629 
z
" style="fill:#ffa500;"/>
   </g>
   <g id="patch_101">
    <path clip-path="url(#pe9113cbf82)" d="M 1128.565241 642.216125 
L 1135.845591 642.216125 
L 1135.845591 92.982494 
L 1128.565241 92.982494 
z
" style="fill:#ffa500;"/>
   </g>
   <g id="matplotlib.axis_1">
    <g id="xtick_1">
     <g id="line2d_1">
      <defs>
       <path d="M 0 0 
L 0 3.5 
" id="mf144550df3" style="stroke:#000000;stroke-width:0.8;"/>
      </defs>
      <g>
       <use style="stroke:#000000;stroke-width:0.8;" x="94.755599" xlink:href="#mf144550df3" y="642.216125"/>
      </g>
     </g>
     <g id="text_1">
      <!--  -->
      <g transform="translate(94.755599 663.93175)scale(0.2 -0.2)"/>
      <!--  -->
      <g transform="translate(94.755599 686.337375)scale(0.2 -0.2)"/>
      <!--  -->
      <g transform="translate(94.755599 708.743)scale(0.2 -0.2)"/>
      <!-- Aug -->
      <g transform="translate(77.339974 731.148625)scale(0.2 -0.2)">
       <defs>
        <path d="M 36.8125 69.390625 
L 58.5 9.671875 
Q 59.71875 6.296875 60.71875 5.09375 
Q 61.71875 3.90625 63.578125 3.328125 
L 68.171875 1.953125 
L 68.265625 -0.140625 
Q 61.859375 0 56.390625 0 
Q 50.828125 0 43.265625 -0.140625 
L 43.0625 1.953125 
L 47.703125 3.328125 
Q 48.6875 3.65625 49.09375 4.078125 
Q 49.515625 4.5 49.515625 5.375 
Q 49.515625 6.34375 49 7.921875 
Q 48.484375 9.515625 47.5625 12.15625 
L 42.96875 25.25 
L 19.4375 25.25 
L 14.3125 12.203125 
Q 13.28125 9.46875 12.6875 7.859375 
Q 12.109375 6.25 12.109375 5.328125 
Q 12.109375 4.5 12.5625 4.078125 
Q 13.03125 3.65625 13.96875 3.375 
L 18.5 2.046875 
L 18.609375 -0.140625 
Q 11.671875 0 7.28125 0 
Q 2.875 0 -2.546875 -0.140625 
L -2.78125 1.953125 
L 2.15625 3.46875 
Q 4 4.046875 4.875 5.265625 
Q 5.765625 6.5 6.84375 9.078125 
L 31.78125 68.65625 
z
M 21.234375 29.6875 
L 41.359375 29.6875 
L 31.84375 56.59375 
z
" id="Constantia-65"/>
        <path d="M 38.875 4.296875 
Q 31.25 -1.375 23.640625 -1.375 
Q 15.96875 -1.375 12.125 2.53125 
Q 8.296875 6.453125 8.296875 13.53125 
L 8.296875 23.875 
Q 8.296875 34.328125 8.109375 39.546875 
L 1.609375 41.3125 
L 1.375 42.96875 
Q 9.90625 44.53125 17.1875 46.390625 
L 17.625 46.046875 
Q 17.328125 40.328125 17.328125 31.34375 
L 17.328125 15.828125 
Q 17.328125 9.90625 20.109375 7.25 
Q 22.90625 4.59375 27.984375 4.59375 
Q 33.0625 4.59375 38.375 7.28125 
L 38.375 28.078125 
Q 38.375 34.90625 38.1875 39.546875 
L 31.734375 41.3125 
L 31.5 42.96875 
Q 39.984375 44.53125 47.265625 46.390625 
L 47.703125 46.046875 
Q 47.40625 40.1875 47.40625 31.0625 
Q 47.40625 13.328125 47.515625 9.421875 
Q 47.5625 7.421875 47.796875 6.203125 
Q 48.046875 4.984375 48.734375 4.3125 
Q 49.421875 3.65625 50.75 3.390625 
Q 52.09375 3.125 54.34375 3.078125 
L 54.59375 1.171875 
Q 52.34375 0.296875 49.40625 -0.5 
Q 46.484375 -1.3125 45.40625 -1.3125 
Q 40.484375 -1.3125 38.875 4.296875 
z
" id="Constantia-117"/>
        <path d="M 14.015625 30.328125 
Q 14.015625 23.96875 16.578125 20.5 
Q 19.140625 17.046875 24.03125 17.046875 
Q 28.71875 17.046875 31.078125 20.28125 
Q 33.453125 23.53125 33.453125 29.78125 
Q 33.453125 35.796875 30.9375 39.25 
Q 28.421875 42.71875 23.4375 42.71875 
Q 18.75 42.71875 16.375 39.546875 
Q 14.015625 36.375 14.015625 30.328125 
z
M 13.375 -1.953125 
Q 10.0625 -6.9375 10.0625 -11.140625 
Q 10.0625 -15.4375 13.53125 -17.828125 
Q 17 -20.21875 22.953125 -20.21875 
Q 30.03125 -20.21875 35.34375 -17.0625 
Q 40.671875 -13.921875 40.671875 -8.25 
Q 40.671875 -5.171875 38.0625 -3.484375 
Q 35.453125 -1.8125 28.21875 -1.8125 
Q 25.640625 -1.8125 22.578125 -1.953125 
Q 19.53125 -2.09375 16.703125 -2.09375 
Q 15.140625 -2.09375 13.375 -1.953125 
z
M 38.875 40.234375 
Q 42.53125 36.1875 42.53125 30.5625 
Q 42.53125 22.703125 37.0625 18.03125 
Q 31.59375 13.375 23.34375 13.375 
Q 18.65625 13.375 14.9375 14.84375 
Q 12.3125 10.59375 12.3125 8.15625 
Q 12.3125 6.84375 13.640625 6.375 
Q 14.984375 5.90625 18.609375 5.90625 
Q 21.34375 5.90625 25 6.046875 
Q 28.65625 6.203125 31.84375 6.203125 
Q 39.59375 6.203125 44.109375 3.25 
Q 48.640625 0.296875 48.640625 -5.515625 
Q 48.640625 -14.3125 40.359375 -19.390625 
Q 32.078125 -24.46875 21.53125 -24.46875 
Q 12.890625 -24.46875 7.734375 -21.5625 
Q 2.59375 -18.65625 2.59375 -14.015625 
Q 2.59375 -8.40625 10.546875 -1.421875 
Q 5.515625 0.484375 5.515625 3.65625 
Q 5.515625 8.109375 12.5 16.0625 
Q 4.890625 20.703125 4.890625 29.5 
Q 4.890625 37.109375 10.28125 41.75 
Q 15.671875 46.390625 24.21875 46.390625 
Q 26.46875 46.390625 30.328125 45.796875 
Q 33.984375 45.125 36.03125 45.125 
Q 43.40625 45.125 49.609375 45.265625 
L 49.859375 43.265625 
z
" id="Constantia-103"/>
       </defs>
       <use xlink:href="#Constantia-65"/>
       <use x="66.431641" xlink:href="#Constantia-117"/>
       <use x="123.365234" xlink:href="#Constantia-103"/>
      </g>
      <!-- 2020 -->
      <g transform="translate(74.296224 753.701125)scale(0.2 -0.2)">
       <defs>
        <path d="M 42.390625 15.484375 
L 44.53125 15.875 
L 43.5625 0.203125 
L 43.21875 -0.140625 
Q 33.25 0 22.359375 0 
Q 12.25 0 3.765625 -0.140625 
L 3.421875 3.859375 
Q 8.015625 6.84375 11.671875 9.375 
Q 15.328125 11.921875 18.015625 14.109375 
Q 20.703125 16.265625 22.75 18.21875 
Q 24.8125 20.171875 26.203125 22.09375 
Q 27.59375 24.03125 28.3125 26.03125 
Q 29.046875 28.03125 29.046875 30.21875 
Q 29.046875 34.71875 25.78125 37.34375 
Q 22.515625 39.984375 17.78125 39.984375 
Q 12.203125 39.984375 6.546875 36.96875 
L 4.6875 40.1875 
Q 13.8125 46.390625 23 46.390625 
Q 29.890625 46.390625 34.453125 43.046875 
Q 39.015625 39.703125 39.015625 33.734375 
Q 39.015625 30.03125 37.34375 26.828125 
Q 35.6875 23.640625 32.515625 20.5625 
Q 29.34375 17.484375 24.75 14.328125 
Q 20.171875 11.1875 14.265625 7.671875 
L 14.3125 7.421875 
L 38.578125 7.421875 
z
" id="Constantia-50"/>
        <path d="M 13.671875 23.296875 
Q 13.671875 13.625 17.15625 8.109375 
Q 20.65625 2.59375 27.203125 2.59375 
Q 33.84375 2.59375 37.015625 7.515625 
Q 40.1875 12.453125 40.1875 22.609375 
Q 40.1875 32.5625 36.71875 37.609375 
Q 33.25 42.671875 26.65625 42.671875 
Q 19.921875 42.671875 16.796875 37.84375 
Q 13.671875 33.015625 13.671875 23.296875 
z
M 49.953125 23.6875 
Q 49.953125 12.25 43.4375 5.484375 
Q 36.921875 -1.265625 26.421875 -1.265625 
Q 16.3125 -1.265625 10.109375 4.9375 
Q 3.90625 11.140625 3.90625 22.015625 
Q 3.90625 33.203125 10.390625 39.796875 
Q 16.890625 46.390625 27.484375 46.390625 
Q 37.796875 46.390625 43.875 40.375 
Q 49.953125 34.375 49.953125 23.6875 
z
" id="Constantia-48"/>
       </defs>
       <use xlink:href="#Constantia-50"/>
       <use x="48.4375" xlink:href="#Constantia-48"/>
       <use x="102.294922" xlink:href="#Constantia-50"/>
       <use x="150.732422" xlink:href="#Constantia-48"/>
      </g>
     </g>
    </g>
    <g id="xtick_2">
     <g id="line2d_2">
      <g>
       <use style="stroke:#000000;stroke-width:0.8;" x="376.869146" xlink:href="#mf144550df3" y="642.216125"/>
      </g>
     </g>
     <g id="text_2">
      <!--  -->
      <g transform="translate(376.869146 663.93175)scale(0.2 -0.2)"/>
      <!--  -->
      <g transform="translate(376.869146 686.337375)scale(0.2 -0.2)"/>
      <!--  -->
      <g transform="translate(376.869146 708.743)scale(0.2 -0.2)"/>
      <!-- Sep -->
      <g transform="translate(361.384771 731.148625)scale(0.2 -0.2)">
       <defs>
        <path d="M 37.109375 63.921875 
Q 31.984375 65.625 27.6875 65.625 
Q 21.234375 65.625 17.40625 62.5 
Q 13.578125 59.375 13.578125 53.8125 
Q 13.578125 50.640625 14.921875 48.234375 
Q 16.265625 45.84375 18.53125 44.03125 
Q 20.796875 42.234375 23.671875 40.8125 
Q 26.5625 39.40625 29.640625 38.03125 
Q 33.015625 36.578125 36.1875 34.9375 
Q 39.359375 33.296875 41.921875 31.09375 
Q 44.484375 28.90625 46.015625 25.828125 
Q 47.5625 22.75 47.5625 18.65625 
Q 47.5625 8.9375 40.75 3.8125 
Q 33.9375 -1.3125 21.875 -1.3125 
Q 14.109375 -1.3125 4.6875 1.3125 
L 4.390625 1.703125 
L 6.78125 18.3125 
L 8.984375 18.65625 
L 12.40625 4.78125 
Q 17.578125 2.734375 23 2.734375 
Q 30.28125 2.734375 34.34375 5.953125 
Q 38.421875 9.1875 38.421875 15.140625 
Q 38.421875 18.265625 37.109375 20.625 
Q 35.796875 23 33.5625 24.703125 
Q 31.34375 26.421875 28.515625 27.8125 
Q 25.6875 29.203125 22.65625 30.5625 
Q 19.234375 32.03125 16.015625 33.734375 
Q 12.796875 35.453125 10.171875 37.71875 
Q 7.5625 39.984375 6 43.28125 
Q 4.4375 46.578125 4.4375 50.984375 
Q 4.4375 59.8125 11.046875 64.640625 
Q 17.671875 69.484375 28.609375 69.484375 
Q 36.328125 69.484375 44.78125 67.671875 
L 45.125 67.328125 
L 42.234375 52.09375 
L 40.28125 51.765625 
z
" id="Constantia-83"/>
        <path d="M 44.046875 3.46875 
Q 39.890625 0.875 35.5 -0.25 
Q 31.109375 -1.375 27.34375 -1.375 
Q 16.609375 -1.375 10.203125 4.75 
Q 3.8125 10.890625 3.8125 21.78125 
Q 3.8125 32.625 9.9375 39.5 
Q 16.0625 46.390625 26.3125 46.390625 
Q 34.90625 46.390625 39.6875 41.234375 
Q 44.484375 36.078125 44.484375 27 
Q 44.484375 25.640625 44.34375 24.21875 
L 13.375 24.21875 
Q 13.375 13.71875 18.3125 9.203125 
Q 23.25 4.6875 33.734375 4.6875 
Q 38.421875 4.6875 43.75 5.5625 
z
M 34.765625 28.265625 
L 34.765625 29.734375 
Q 34.765625 36.671875 32.546875 39.640625 
Q 30.328125 42.625 25.921875 42.625 
Q 20.125 42.625 17.046875 38.421875 
Q 13.96875 34.234375 13.578125 28.265625 
z
" id="Constantia-101"/>
        <path d="M 2.09375 41.3125 
L 1.859375 42.96875 
Q 10.0625 44.53125 17.328125 46.390625 
L 17.828125 46.046875 
L 17.828125 41.265625 
Q 25.296875 46.390625 32.28125 46.390625 
Q 41.359375 46.390625 46.703125 40.3125 
Q 52.046875 34.234375 52.046875 24.515625 
Q 52.046875 12.546875 45.15625 5.578125 
Q 38.28125 -1.375 25.640625 -1.375 
Q 21.875 -1.375 17.828125 -0.640625 
L 17.828125 -11.328125 
Q 17.828125 -16.21875 17.921875 -18.171875 
Q 18.015625 -19.625 19.234375 -19.921875 
L 25.640625 -21.734375 
L 25.78125 -23.734375 
Q 18.171875 -23.578125 13.375 -23.578125 
Q 8.59375 -23.578125 2.046875 -23.734375 
L 1.859375 -21.734375 
L 7.46875 -20.0625 
Q 8.640625 -19.734375 8.6875 -18.5625 
Q 8.796875 -14.984375 8.796875 -7.765625 
L 8.796875 12.109375 
Q 8.796875 33.734375 8.59375 39.453125 
z
M 17.828125 3.765625 
Q 22.078125 2.828125 26.03125 2.828125 
Q 34.125 2.828125 38.21875 7.90625 
Q 42.328125 12.984375 42.328125 22.46875 
Q 42.328125 31.390625 38.421875 35.9375 
Q 34.515625 40.484375 27.203125 40.484375 
Q 21.921875 40.484375 17.828125 38.328125 
z
" id="Constantia-112"/>
       </defs>
       <use xlink:href="#Constantia-83"/>
       <use x="50.976562" xlink:href="#Constantia-101"/>
       <use x="98.876953" xlink:href="#Constantia-112"/>
      </g>
      <!-- 2020 -->
      <g transform="translate(356.409771 753.55425)scale(0.2 -0.2)">
       <use xlink:href="#Constantia-50"/>
       <use x="48.4375" xlink:href="#Constantia-48"/>
       <use x="102.294922" xlink:href="#Constantia-50"/>
       <use x="150.732422" xlink:href="#Constantia-48"/>
      </g>
     </g>
    </g>
    <g id="xtick_3">
     <g id="line2d_3">
      <g>
       <use style="stroke:#000000;stroke-width:0.8;" x="649.882256" xlink:href="#mf144550df3" y="642.216125"/>
      </g>
     </g>
     <g id="text_3">
      <!--  -->
      <g transform="translate(649.882256 663.93175)scale(0.2 -0.2)"/>
      <!--  -->
      <g transform="translate(649.882256 686.337375)scale(0.2 -0.2)"/>
      <!--  -->
      <g transform="translate(649.882256 708.743)scale(0.2 -0.2)"/>
      <!-- Oct -->
      <g transform="translate(633.696318 731.148625)scale(0.2 -0.2)">
       <defs>
        <path d="M 15.578125 35.015625 
Q 15.578125 19.09375 22.015625 10.625 
Q 28.46875 2.15625 40.921875 2.15625 
Q 53.171875 2.15625 59 9.84375 
Q 64.84375 17.53125 64.84375 33.984375 
Q 64.84375 49.421875 58.640625 57.71875 
Q 52.4375 66.015625 39.5 66.015625 
Q 26.953125 66.015625 21.265625 58.328125 
Q 15.578125 50.640625 15.578125 35.015625 
z
M 75.59375 35.640625 
Q 75.59375 18.75 65.984375 8.46875 
Q 56.390625 -1.8125 39.15625 -1.8125 
Q 22.796875 -1.8125 13.84375 7.6875 
Q 4.890625 17.1875 4.890625 33.40625 
Q 4.890625 50.296875 14.53125 60.125 
Q 24.171875 69.96875 41.265625 69.96875 
Q 57.671875 69.96875 66.625 60.765625 
Q 75.59375 51.5625 75.59375 35.640625 
z
" id="Constantia-79"/>
        <path d="M 42.96875 3.46875 
Q 39.9375 1.421875 35.46875 0.015625 
Q 31 -1.375 26.609375 -1.375 
Q 16.0625 -1.375 9.90625 4.796875 
Q 3.765625 10.984375 3.765625 21.296875 
Q 3.765625 32.46875 10.734375 39.421875 
Q 17.71875 46.390625 28.8125 46.390625 
Q 35.984375 46.390625 42.71875 43.453125 
Q 41.109375 36.921875 39.84375 30.078125 
L 37.9375 29.78125 
L 33.984375 41.5 
Q 31.734375 42.28125 28.90625 42.28125 
Q 21.625 42.28125 17.515625 37.203125 
Q 13.421875 32.125 13.421875 23.78125 
Q 13.421875 13.96875 18.0625 9.28125 
Q 22.703125 4.59375 32.765625 4.59375 
Q 37.40625 4.59375 42.671875 5.515625 
z
" id="Constantia-99"/>
        <path d="M 17.484375 39.9375 
Q 17.1875 23.4375 17.1875 13.328125 
Q 17.1875 8.25 18.703125 6.3125 
Q 20.21875 4.390625 24.46875 4.390625 
Q 27.828125 4.390625 33.25 5.28125 
L 33.546875 3.078125 
Q 25.09375 -1.171875 18.453125 -1.171875 
Q 13.140625 -1.171875 10.546875 1.6875 
Q 7.953125 4.546875 7.953125 10.296875 
Q 7.953125 19.78125 8.296875 40.234375 
L 1.5625 41.890625 
L 1.265625 43.890625 
L 8.796875 44.53125 
L 12.15625 56.34375 
Q 14.890625 57.078125 17.140625 57.765625 
L 17.625 57.421875 
Q 17.484375 51.515625 17.484375 46.390625 
L 17.484375 44.578125 
L 32.171875 44.578125 
L 32.171875 39.9375 
z
" id="Constantia-116"/>
       </defs>
       <use xlink:href="#Constantia-79"/>
       <use x="80.419922" xlink:href="#Constantia-99"/>
       <use x="126.5625" xlink:href="#Constantia-116"/>
      </g>
      <!-- 2020 -->
      <g transform="translate(629.422881 753.55425)scale(0.2 -0.2)">
       <use xlink:href="#Constantia-50"/>
       <use x="48.4375" xlink:href="#Constantia-48"/>
       <use x="102.294922" xlink:href="#Constantia-50"/>
       <use x="150.732422" xlink:href="#Constantia-48"/>
      </g>
     </g>
    </g>
    <g id="xtick_4">
     <g id="line2d_4">
      <g>
       <use style="stroke:#000000;stroke-width:0.8;" x="931.995802" xlink:href="#mf144550df3" y="642.216125"/>
      </g>
     </g>
     <g id="text_4">
      <!--  -->
      <g transform="translate(931.995802 663.93175)scale(0.2 -0.2)"/>
      <!--  -->
      <g transform="translate(931.995802 686.337375)scale(0.2 -0.2)"/>
      <!--  -->
      <g transform="translate(931.995802 708.743)scale(0.2 -0.2)"/>
      <!-- Nov -->
      <g transform="translate(914.420802 731.148625)scale(0.2 -0.2)">
       <defs>
        <path d="M 16.65625 54.4375 
L 16.65625 14.984375 
Q 16.65625 9.234375 16.75 5.421875 
Q 16.796875 4.046875 17.96875 3.765625 
L 23.78125 2.046875 
L 23.875 -0.140625 
Q 17.78125 0 13.875 0 
Q 10.0625 0 3.765625 -0.140625 
L 3.5625 1.953125 
L 9.578125 3.765625 
Q 10.84375 4.15625 10.890625 5.28125 
Q 10.984375 9.234375 10.984375 14.984375 
L 10.984375 54.59375 
Q 10.984375 59.46875 10.890625 62.703125 
Q 10.84375 63.96875 9.71875 64.359375 
L 3.65625 66.265625 
L 3.5625 68.359375 
Q 9.859375 68.171875 13.53125 68.171875 
Q 15.71875 68.171875 17.96875 68.359375 
L 58.984375 17.140625 
L 58.984375 54.78125 
Q 58.984375 59.515625 58.890625 62.9375 
Q 58.84375 64.0625 57.625 64.453125 
L 51.859375 66.109375 
L 51.765625 68.359375 
Q 58.015625 68.171875 61.859375 68.171875 
Q 65.765625 68.171875 71.875 68.359375 
L 72.078125 66.265625 
L 65.921875 64.359375 
Q 64.796875 63.96875 64.75 62.703125 
Q 64.65625 59.46875 64.65625 54.59375 
L 64.65625 0 
L 60.546875 -0.390625 
z
" id="Constantia-78"/>
        <path d="M 13.71875 23.046875 
Q 13.71875 13.921875 17.140625 8.171875 
Q 20.5625 2.4375 27.296875 2.4375 
Q 33.59375 2.4375 36.890625 7.484375 
Q 40.1875 12.546875 40.1875 22.46875 
Q 40.1875 31.78125 36.71875 37.15625 
Q 33.25 42.53125 26.65625 42.53125 
Q 20.40625 42.53125 17.0625 37.6875 
Q 13.71875 32.859375 13.71875 23.046875 
z
M 50.140625 23.484375 
Q 50.140625 12.359375 43.421875 5.484375 
Q 36.71875 -1.375 26.375 -1.375 
Q 16.265625 -1.375 10.03125 5.09375 
Q 3.8125 11.578125 3.8125 22.015625 
Q 3.8125 32.765625 10.328125 39.578125 
Q 16.84375 46.390625 27.59375 46.390625 
Q 37.75 46.390625 43.9375 40.109375 
Q 50.140625 33.84375 50.140625 23.484375 
z
" id="Constantia-111"/>
        <path d="M -1.515625 45.265625 
Q 4.640625 45.125 9.421875 45.125 
Q 13.8125 45.125 19.96875 45.265625 
L 20.171875 43.265625 
L 14.5 41.703125 
Q 18.5 30.328125 23.78125 17.53125 
Q 25.140625 14.15625 26.21875 11.078125 
Q 27.296875 14.15625 28.71875 17.484375 
Q 33.15625 28.421875 38.03125 41.703125 
L 32.46875 43.265625 
L 32.28125 45.265625 
Q 36.234375 45.125 40.53125 45.125 
Q 44.921875 45.125 49.03125 45.265625 
L 49.21875 43.265625 
L 44.34375 41.84375 
Q 43.21875 41.453125 42.4375 39.9375 
Q 38.578125 31 33.46875 18.671875 
Q 28.375 6.34375 25.78125 -0.34375 
L 21.625 -0.78125 
Q 18.953125 6.296875 13.890625 18.59375 
Q 8.84375 30.90625 5.21875 39.703125 
Q 4.4375 41.40625 3.078125 41.890625 
L -1.421875 43.265625 
z
" id="Constantia-118"/>
       </defs>
       <use xlink:href="#Constantia-78"/>
       <use x="73.402344" xlink:href="#Constantia-111"/>
       <use x="127.455078" xlink:href="#Constantia-118"/>
      </g>
      <!-- 2020 -->
      <g transform="translate(911.536427 753.55425)scale(0.2 -0.2)">
       <use xlink:href="#Constantia-50"/>
       <use x="48.4375" xlink:href="#Constantia-48"/>
       <use x="102.294922" xlink:href="#Constantia-50"/>
       <use x="150.732422" xlink:href="#Constantia-48"/>
      </g>
     </g>
    </g>
    <g id="xtick_5">
     <g id="line2d_5">
      <path clip-path="url(#pe9113cbf82)" d="M 103.856036 642.216125 
L 103.856036 65.520813 
" style="fill:none;stroke:#b0b0b0;stroke-linecap:square;stroke-width:0.8;"/>
     </g>
     <g id="line2d_6">
      <defs>
       <path d="M 0 0 
L 0 2 
" id="mc112d71258" style="stroke:#000000;stroke-width:0.6;"/>
      </defs>
      <g>
       <use style="stroke:#000000;stroke-width:0.6;" x="103.856036" xlink:href="#mc112d71258" y="642.216125"/>
      </g>
     </g>
     <g id="text_5">
      <!-- 02 -->
      <g transform="translate(94.649318 660.860188)scale(0.18 -0.18)">
       <use xlink:href="#Constantia-48"/>
       <use x="53.857422" xlink:href="#Constantia-50"/>
      </g>
      <!-- Sun -->
      <g transform="translate(88.904786 681.02525)scale(0.18 -0.18)">
       <defs>
        <path d="M 2.828125 42.96875 
Q 11.03125 44.53125 18.3125 46.390625 
L 18.796875 46.046875 
L 18.796875 40.375 
Q 27.296875 46.390625 34.625 46.390625 
Q 41.546875 46.390625 45.484375 42.5 
Q 49.421875 38.625 49.421875 31.5 
L 49.421875 14.265625 
Q 49.421875 8.15625 49.515625 5.21875 
Q 49.5625 3.90625 50.78125 3.515625 
L 56.203125 1.859375 
L 56.296875 -0.140625 
Q 49.859375 0 45.0625 0 
Q 40.28125 0 34.421875 -0.140625 
L 34.234375 1.859375 
L 39.109375 3.265625 
Q 40.234375 3.65625 40.328125 4.78125 
Q 40.375 5.46875 40.375 7.859375 
L 40.375 29.15625 
Q 40.375 35.15625 37.5 37.765625 
Q 34.625 40.375 29 40.375 
Q 24.078125 40.375 18.796875 37.546875 
L 18.796875 16.21875 
Q 18.796875 10.109375 18.890625 5.03125 
Q 18.953125 3.71875 20.015625 3.375 
L 25.09375 1.859375 
L 25.203125 -0.140625 
Q 19.140625 0 14.359375 0 
Q 9.578125 0 3.03125 -0.140625 
L 2.828125 1.859375 
L 8.59375 3.515625 
Q 9.671875 3.953125 9.71875 5.03125 
Q 9.765625 8.15625 9.765625 11.03125 
L 9.765625 27.6875 
Q 9.765625 34.078125 9.578125 39.546875 
L 3.078125 41.3125 
z
" id="Constantia-110"/>
       </defs>
       <use xlink:href="#Constantia-83"/>
       <use x="50.976562" xlink:href="#Constantia-117"/>
       <use x="107.910156" xlink:href="#Constantia-110"/>
      </g>
     </g>
    </g>
    <g id="xtick_6">
     <g id="line2d_7">
      <path clip-path="url(#pe9113cbf82)" d="M 167.559095 642.216125 
L 167.559095 65.520813 
" style="fill:none;stroke:#b0b0b0;stroke-linecap:square;stroke-width:0.8;"/>
     </g>
     <g id="line2d_8">
      <g>
       <use style="stroke:#000000;stroke-width:0.6;" x="167.559095" xlink:href="#mc112d71258" y="642.216125"/>
      </g>
     </g>
     <g id="text_6">
      <!-- 09 -->
      <g transform="translate(157.794095 660.860188)scale(0.18 -0.18)">
       <defs>
        <path d="M 8.640625 -19 
Q 20.90625 -16.796875 28.984375 -9.671875 
Q 37.0625 -2.546875 40.375 10.109375 
L 40.28125 10.15625 
Q 34.578125 3.65625 25.4375 3.65625 
Q 16.3125 3.65625 10.234375 9.484375 
Q 4.15625 15.328125 4.15625 24.3125 
Q 4.15625 33.6875 10.796875 40.03125 
Q 17.4375 46.390625 27.046875 46.390625 
Q 37.546875 46.390625 44.265625 38.75 
Q 50.984375 31.109375 50.984375 19.1875 
Q 50.984375 2.828125 39.578125 -8.59375 
Q 28.171875 -20.015625 9.328125 -22.46875 
z
M 14.0625 27.25 
Q 14.0625 18.5625 18.015625 13.28125 
Q 21.96875 8.015625 28.125 8.015625 
Q 34.234375 8.015625 37.453125 11.9375 
Q 40.671875 15.875 40.671875 22.90625 
Q 40.671875 31.453125 36.421875 37.15625 
Q 32.171875 42.875 26.21875 42.875 
Q 20.953125 42.875 17.5 38.640625 
Q 14.0625 34.421875 14.0625 27.25 
z
" id="Constantia-57"/>
       </defs>
       <use xlink:href="#Constantia-48"/>
       <use x="53.857422" xlink:href="#Constantia-57"/>
      </g>
      <!-- Sun -->
      <g transform="translate(152.607845 681.02525)scale(0.18 -0.18)">
       <use xlink:href="#Constantia-83"/>
       <use x="50.976562" xlink:href="#Constantia-117"/>
       <use x="107.910156" xlink:href="#Constantia-110"/>
      </g>
     </g>
    </g>
    <g id="xtick_7">
     <g id="line2d_9">
      <path clip-path="url(#pe9113cbf82)" d="M 231.262154 642.216125 
L 231.262154 65.520813 
" style="fill:none;stroke:#b0b0b0;stroke-linecap:square;stroke-width:0.8;"/>
     </g>
     <g id="line2d_10">
      <g>
       <use style="stroke:#000000;stroke-width:0.6;" x="231.262154" xlink:href="#mc112d71258" y="642.216125"/>
      </g>
     </g>
     <g id="text_7">
      <!-- 16 -->
      <g transform="translate(223.575592 660.860188)scale(0.18 -0.18)">
       <defs>
        <path d="M 1.703125 40.625 
L 1.46875 42.671875 
Q 11.28125 44.140625 21.09375 45.90625 
L 21.53125 45.515625 
Q 20.953125 36.96875 20.953125 27.875 
L 20.953125 15.96875 
Q 20.953125 9.515625 21.046875 5.5625 
Q 21.09375 4.15625 22.40625 3.8125 
L 30.171875 1.8125 
L 30.328125 -0.140625 
Q 21.296875 0 16.5 0 
Q 11.71875 0 2.734375 -0.140625 
L 2.546875 1.8125 
L 10.5 3.8125 
Q 11.765625 4.15625 11.8125 5.375 
Q 11.921875 9.328125 11.921875 14.15625 
L 11.921875 22.265625 
Q 11.921875 32.078125 11.71875 39.65625 
z
" id="Constantia-49"/>
        <path d="M 47.125 64.546875 
Q 32.03125 61.53125 24.515625 53.9375 
Q 17 46.34375 14.796875 35.25 
L 14.890625 35.203125 
Q 20.796875 41.65625 30.21875 41.65625 
Q 38.96875 41.65625 44.9375 35.796875 
Q 50.921875 29.9375 50.921875 20.90625 
Q 50.921875 11.328125 44.375 5.03125 
Q 37.84375 -1.265625 28.125 -1.265625 
Q 17.390625 -1.265625 10.75 6.5 
Q 4.109375 14.265625 4.109375 26.515625 
Q 4.109375 41.546875 14.453125 53.125 
Q 24.8125 64.703125 46.4375 68.015625 
z
M 41.109375 18.0625 
Q 41.109375 26.609375 37.15625 31.953125 
Q 33.203125 37.3125 27.046875 37.3125 
Q 21.4375 37.3125 17.921875 33.328125 
Q 14.40625 29.34375 14.40625 22.515625 
Q 14.40625 14.15625 18.5 8.203125 
Q 22.609375 2.25 28.953125 2.25 
Q 34.46875 2.25 37.78125 6.8125 
Q 41.109375 11.375 41.109375 18.0625 
z
" id="Constantia-54"/>
       </defs>
       <use xlink:href="#Constantia-49"/>
       <use x="31.298828" xlink:href="#Constantia-54"/>
      </g>
      <!-- Sun -->
      <g transform="translate(216.310904 681.02525)scale(0.18 -0.18)">
       <use xlink:href="#Constantia-83"/>
       <use x="50.976562" xlink:href="#Constantia-117"/>
       <use x="107.910156" xlink:href="#Constantia-110"/>
      </g>
     </g>
    </g>
    <g id="xtick_8">
     <g id="line2d_11">
      <path clip-path="url(#pe9113cbf82)" d="M 294.965213 642.216125 
L 294.965213 65.520813 
" style="fill:none;stroke:#b0b0b0;stroke-linecap:square;stroke-width:0.8;"/>
     </g>
     <g id="line2d_12">
      <g>
       <use style="stroke:#000000;stroke-width:0.6;" x="294.965213" xlink:href="#mc112d71258" y="642.216125"/>
      </g>
     </g>
     <g id="text_8">
      <!-- 23 -->
      <g transform="translate(286.496776 660.860188)scale(0.18 -0.18)">
       <defs>
        <path d="M 10.25 16.21875 
Q 19 17.140625 24.265625 20.75 
Q 29.546875 24.359375 29.546875 30.125 
Q 29.546875 34.71875 26.09375 37.59375 
Q 22.65625 40.484375 17.390625 40.484375 
Q 10.5 40.484375 3.46875 36.8125 
L 1.46875 40.046875 
Q 11.140625 46.390625 21.34375 46.390625 
Q 28.90625 46.390625 34.078125 42.75 
Q 39.265625 39.109375 39.265625 33.203125 
Q 39.265625 22.359375 23.25 17 
L 23.25 16.796875 
Q 32.421875 16.453125 37.5625 12.15625 
Q 42.71875 7.859375 42.71875 1.609375 
Q 42.71875 -8.5 31.96875 -15.140625 
Q 21.234375 -21.78125 1.03125 -22.46875 
L 0.484375 -18.84375 
Q 16.546875 -17.78125 24.53125 -12.625 
Q 32.515625 -7.46875 32.515625 0.25 
Q 32.515625 6.296875 28.359375 9.765625 
Q 24.21875 13.234375 16.84375 13.234375 
Q 13.96875 13.234375 10.59375 12.640625 
z
" id="Constantia-51"/>
       </defs>
       <use xlink:href="#Constantia-50"/>
       <use x="48.4375" xlink:href="#Constantia-51"/>
      </g>
      <!-- Sun -->
      <g transform="translate(280.013963 681.02525)scale(0.18 -0.18)">
       <use xlink:href="#Constantia-83"/>
       <use x="50.976562" xlink:href="#Constantia-117"/>
       <use x="107.910156" xlink:href="#Constantia-110"/>
      </g>
     </g>
    </g>
    <g id="xtick_9">
     <g id="line2d_13">
      <path clip-path="url(#pe9113cbf82)" d="M 358.668272 642.216125 
L 358.668272 65.520813 
" style="fill:none;stroke:#b0b0b0;stroke-linecap:square;stroke-width:0.8;"/>
     </g>
     <g id="line2d_14">
      <g>
       <use style="stroke:#000000;stroke-width:0.6;" x="358.668272" xlink:href="#mc112d71258" y="642.216125"/>
      </g>
     </g>
     <g id="text_9">
      <!-- 30 -->
      <g transform="translate(349.711866 660.860188)scale(0.18 -0.18)">
       <use xlink:href="#Constantia-51"/>
       <use x="45.654297" xlink:href="#Constantia-48"/>
      </g>
      <!-- Sun -->
      <g transform="translate(343.717022 681.02525)scale(0.18 -0.18)">
       <use xlink:href="#Constantia-83"/>
       <use x="50.976562" xlink:href="#Constantia-117"/>
       <use x="107.910156" xlink:href="#Constantia-110"/>
      </g>
     </g>
    </g>
    <g id="xtick_10">
     <g id="line2d_15">
      <path clip-path="url(#pe9113cbf82)" d="M 422.371331 642.216125 
L 422.371331 65.520813 
" style="fill:none;stroke:#b0b0b0;stroke-linecap:square;stroke-width:0.8;"/>
     </g>
     <g id="line2d_16">
      <g>
       <use style="stroke:#000000;stroke-width:0.6;" x="422.371331" xlink:href="#mc112d71258" y="642.216125"/>
      </g>
     </g>
     <g id="text_10">
      <!-- 06 -->
      <g transform="translate(412.654143 660.860188)scale(0.18 -0.18)">
       <use xlink:href="#Constantia-48"/>
       <use x="53.857422" xlink:href="#Constantia-54"/>
      </g>
      <!-- Sun -->
      <g transform="translate(407.420081 681.02525)scale(0.18 -0.18)">
       <use xlink:href="#Constantia-83"/>
       <use x="50.976562" xlink:href="#Constantia-117"/>
       <use x="107.910156" xlink:href="#Constantia-110"/>
      </g>
     </g>
    </g>
    <g id="xtick_11">
     <g id="line2d_17">
      <path clip-path="url(#pe9113cbf82)" d="M 486.07439 642.216125 
L 486.07439 65.520813 
" style="fill:none;stroke:#b0b0b0;stroke-linecap:square;stroke-width:0.8;"/>
     </g>
     <g id="line2d_18">
      <g>
       <use style="stroke:#000000;stroke-width:0.6;" x="486.07439" xlink:href="#mc112d71258" y="642.216125"/>
      </g>
     </g>
     <g id="text_11">
      <!-- 13 -->
      <g transform="translate(479.148609 660.860188)scale(0.18 -0.18)">
       <use xlink:href="#Constantia-49"/>
       <use x="31.298828" xlink:href="#Constantia-51"/>
      </g>
      <!-- Sun -->
      <g transform="translate(471.12314 681.02525)scale(0.18 -0.18)">
       <use xlink:href="#Constantia-83"/>
       <use x="50.976562" xlink:href="#Constantia-117"/>
       <use x="107.910156" xlink:href="#Constantia-110"/>
      </g>
     </g>
    </g>
    <g id="xtick_12">
     <g id="line2d_19">
      <path clip-path="url(#pe9113cbf82)" d="M 549.777449 642.216125 
L 549.777449 65.520813 
" style="fill:none;stroke:#b0b0b0;stroke-linecap:square;stroke-width:0.8;"/>
     </g>
     <g id="line2d_20">
      <g>
       <use style="stroke:#000000;stroke-width:0.6;" x="549.777449" xlink:href="#mc112d71258" y="642.216125"/>
      </g>
     </g>
     <g id="text_12">
      <!-- 20 -->
      <g transform="translate(540.57073 660.860188)scale(0.18 -0.18)">
       <use xlink:href="#Constantia-50"/>
       <use x="48.4375" xlink:href="#Constantia-48"/>
      </g>
      <!-- Sun -->
      <g transform="translate(534.826199 681.02525)scale(0.18 -0.18)">
       <use xlink:href="#Constantia-83"/>
       <use x="50.976562" xlink:href="#Constantia-117"/>
       <use x="107.910156" xlink:href="#Constantia-110"/>
      </g>
     </g>
    </g>
    <g id="xtick_13">
     <g id="line2d_21">
      <path clip-path="url(#pe9113cbf82)" d="M 613.480508 642.216125 
L 613.480508 65.520813 
" style="fill:none;stroke:#b0b0b0;stroke-linecap:square;stroke-width:0.8;"/>
     </g>
     <g id="line2d_22">
      <g>
       <use style="stroke:#000000;stroke-width:0.6;" x="613.480508" xlink:href="#mc112d71258" y="642.216125"/>
      </g>
     </g>
     <g id="text_13">
      <!-- 27 -->
      <g transform="translate(604.770195 660.860188)scale(0.18 -0.18)">
       <defs>
        <path d="M 10.9375 -19.671875 
L 39.5 37.546875 
L 8.296875 37.546875 
L 5.46875 27.875 
L 3.515625 27.546875 
L 2.6875 44.921875 
L 3.03125 45.3125 
Q 8.796875 45.21875 14.265625 45.171875 
Q 19.734375 45.125 25 45.125 
L 27.734375 45.125 
Q 33.015625 45.125 37.84375 45.171875 
Q 42.671875 45.21875 47.171875 45.3125 
L 47.359375 43.21875 
Q 44.828125 37.984375 42.265625 32.46875 
Q 39.703125 26.953125 37.234375 21.3125 
Q 34.765625 15.671875 32.421875 10.125 
Q 30.078125 4.59375 28.03125 -0.65625 
Q 25.984375 -5.90625 24.25 -10.6875 
Q 22.515625 -15.484375 21.234375 -19.53125 
L 11.1875 -20.015625 
z
" id="Constantia-55"/>
       </defs>
       <use xlink:href="#Constantia-50"/>
       <use x="48.4375" xlink:href="#Constantia-55"/>
      </g>
      <!-- Sun -->
      <g transform="translate(598.529258 681.02525)scale(0.18 -0.18)">
       <use xlink:href="#Constantia-83"/>
       <use x="50.976562" xlink:href="#Constantia-117"/>
       <use x="107.910156" xlink:href="#Constantia-110"/>
      </g>
     </g>
    </g>
    <g id="xtick_14">
     <g id="line2d_23">
      <path clip-path="url(#pe9113cbf82)" d="M 677.183567 642.216125 
L 677.183567 65.520813 
" style="fill:none;stroke:#b0b0b0;stroke-linecap:square;stroke-width:0.8;"/>
     </g>
     <g id="line2d_24">
      <g>
       <use style="stroke:#000000;stroke-width:0.6;" x="677.183567" xlink:href="#mc112d71258" y="642.216125"/>
      </g>
     </g>
     <g id="text_14">
      <!-- 04 -->
      <g transform="translate(667.559192 660.860188)scale(0.18 -0.18)">
       <defs>
        <path d="M 30.953125 35.015625 
Q 25.4375 28.8125 19.890625 21.78125 
Q 14.359375 14.75 8.984375 7.28125 
L 30.953125 7.28125 
z
M 39.984375 -5.71875 
Q 39.984375 -12.546875 40.234375 -19.53125 
Q 35.546875 -20.015625 31.34375 -20.796875 
L 30.859375 -20.40625 
Q 30.953125 -13.578125 30.953125 -6.5 
L 30.953125 2.4375 
L 18.796875 2.4375 
Q 12.109375 2.4375 2.546875 2.296875 
L 2.203125 5.859375 
Q 9.90625 16.0625 18.078125 26.234375 
Q 26.265625 36.421875 34.578125 46.046875 
L 40.28125 46.390625 
Q 39.984375 35.453125 39.984375 25.984375 
L 39.984375 7.28125 
L 51.171875 7.28125 
L 51.375 2.296875 
Q 46 2.4375 39.984375 2.4375 
z
" id="Constantia-52"/>
       </defs>
       <use xlink:href="#Constantia-48"/>
       <use x="53.857422" xlink:href="#Constantia-52"/>
      </g>
      <!-- Sun -->
      <g transform="translate(662.232317 681.02525)scale(0.18 -0.18)">
       <use xlink:href="#Constantia-83"/>
       <use x="50.976562" xlink:href="#Constantia-117"/>
       <use x="107.910156" xlink:href="#Constantia-110"/>
      </g>
     </g>
    </g>
    <g id="xtick_15">
     <g id="line2d_25">
      <path clip-path="url(#pe9113cbf82)" d="M 740.886626 642.216125 
L 740.886626 65.520813 
" style="fill:none;stroke:#b0b0b0;stroke-linecap:square;stroke-width:0.8;"/>
     </g>
     <g id="line2d_26">
      <g>
       <use style="stroke:#000000;stroke-width:0.6;" x="740.886626" xlink:href="#mc112d71258" y="642.216125"/>
      </g>
     </g>
     <g id="text_15">
      <!-- 11 -->
      <g transform="translate(735.253188 660.860188)scale(0.18 -0.18)">
       <use xlink:href="#Constantia-49"/>
       <use x="31.298828" xlink:href="#Constantia-49"/>
      </g>
      <!-- Sun -->
      <g transform="translate(725.935376 681.02525)scale(0.18 -0.18)">
       <use xlink:href="#Constantia-83"/>
       <use x="50.976562" xlink:href="#Constantia-117"/>
       <use x="107.910156" xlink:href="#Constantia-110"/>
      </g>
     </g>
    </g>
    <g id="xtick_16">
     <g id="line2d_27">
      <path clip-path="url(#pe9113cbf82)" d="M 804.589685 642.216125 
L 804.589685 65.520813 
" style="fill:none;stroke:#b0b0b0;stroke-linecap:square;stroke-width:0.8;"/>
     </g>
     <g id="line2d_28">
      <g>
       <use style="stroke:#000000;stroke-width:0.6;" x="804.589685" xlink:href="#mc112d71258" y="642.216125"/>
      </g>
     </g>
     <g id="text_16">
      <!-- 18 -->
      <g transform="translate(796.943903 660.860188)scale(0.18 -0.18)">
       <defs>
        <path d="M 19.09375 34.234375 
Q 12.0625 37.890625 9.5 41.546875 
Q 6.9375 45.21875 6.9375 50.09375 
Q 6.9375 57.421875 12.96875 62.171875 
Q 19 66.9375 27.984375 66.9375 
Q 36.078125 66.9375 41.375 63.125 
Q 46.6875 59.328125 46.6875 53.265625 
Q 46.6875 44.234375 33.84375 36.765625 
Q 43.609375 32.03125 47.09375 27.75 
Q 50.59375 23.484375 50.59375 17.578125 
Q 50.59375 9.421875 43.40625 4.078125 
Q 36.234375 -1.265625 26.265625 -1.265625 
Q 16.265625 -1.265625 9.90625 3.296875 
Q 3.5625 7.859375 3.5625 15.4375 
Q 3.5625 26.8125 19.09375 34.234375 
z
M 22.5625 32.421875 
Q 12.546875 26.703125 12.546875 16.609375 
Q 12.546875 10.203125 16.375 6.421875 
Q 20.21875 2.640625 26.90625 2.640625 
Q 33.015625 2.640625 37.140625 6.03125 
Q 41.265625 9.421875 41.265625 14.84375 
Q 41.265625 20.015625 37.5 23.75 
Q 33.734375 27.484375 22.5625 32.421875 
z
M 30.21875 38.625 
Q 37.984375 44.234375 37.984375 51.8125 
Q 37.984375 57.234375 34.859375 60.1875 
Q 31.734375 63.140625 26.609375 63.140625 
Q 21.4375 63.140625 18.140625 60.453125 
Q 14.84375 57.765625 14.84375 53.125 
Q 14.84375 48.484375 18.40625 45.40625 
Q 21.96875 42.328125 30.21875 38.625 
z
" id="Constantia-56"/>
       </defs>
       <use xlink:href="#Constantia-49"/>
       <use x="31.298828" xlink:href="#Constantia-56"/>
      </g>
      <!-- Sun -->
      <g transform="translate(789.638435 681.02525)scale(0.18 -0.18)">
       <use xlink:href="#Constantia-83"/>
       <use x="50.976562" xlink:href="#Constantia-117"/>
       <use x="107.910156" xlink:href="#Constantia-110"/>
      </g>
     </g>
    </g>
    <g id="xtick_17">
     <g id="line2d_29">
      <path clip-path="url(#pe9113cbf82)" d="M 868.292743 642.216125 
L 868.292743 65.520813 
" style="fill:none;stroke:#b0b0b0;stroke-linecap:square;stroke-width:0.8;"/>
     </g>
     <g id="line2d_30">
      <g>
       <use style="stroke:#000000;stroke-width:0.6;" x="868.292743" xlink:href="#mc112d71258" y="642.216125"/>
      </g>
     </g>
     <g id="text_17">
      <!-- 25 -->
      <g transform="translate(859.652743 660.860188)scale(0.18 -0.18)">
       <defs>
        <path d="M 6.453125 16.796875 
L 9.28125 45.3125 
Q 15.375 45.125 23.875 45.125 
Q 33.6875 45.125 42.28125 45.3125 
L 42.578125 44.921875 
L 41.359375 36.859375 
L 13.1875 37.546875 
L 11.8125 23.78125 
Q 15.96875 24.46875 19.625 24.46875 
Q 30.8125 24.46875 37.46875 19.046875 
Q 44.140625 13.625 44.140625 4.15625 
Q 44.140625 -7.953125 32.984375 -15.15625 
Q 21.828125 -22.359375 4.890625 -22.46875 
L 4.390625 -18.84375 
Q 17.71875 -18.359375 26.09375 -12.796875 
Q 34.46875 -7.234375 34.46875 2.203125 
Q 34.46875 9.46875 29.5625 13.46875 
Q 24.65625 17.484375 15.765625 17.484375 
Q 11.328125 17.484375 6.734375 16.453125 
z
" id="Constantia-53"/>
       </defs>
       <use xlink:href="#Constantia-50"/>
       <use x="48.4375" xlink:href="#Constantia-53"/>
      </g>
      <!-- Sun -->
      <g transform="translate(853.341493 681.02525)scale(0.18 -0.18)">
       <use xlink:href="#Constantia-83"/>
       <use x="50.976562" xlink:href="#Constantia-117"/>
       <use x="107.910156" xlink:href="#Constantia-110"/>
      </g>
     </g>
    </g>
    <g id="xtick_18">
     <g id="line2d_31">
      <path clip-path="url(#pe9113cbf82)" d="M 995.698861 642.216125 
L 995.698861 65.520813 
" style="fill:none;stroke:#b0b0b0;stroke-linecap:square;stroke-width:0.8;"/>
     </g>
     <g id="line2d_32">
      <g>
       <use style="stroke:#000000;stroke-width:0.6;" x="995.698861" xlink:href="#mc112d71258" y="642.216125"/>
      </g>
     </g>
     <g id="text_18">
      <!-- 08 -->
      <g transform="translate(986.022455 660.860188)scale(0.18 -0.18)">
       <use xlink:href="#Constantia-48"/>
       <use x="53.857422" xlink:href="#Constantia-56"/>
      </g>
      <!-- Sun -->
      <g transform="translate(980.747611 681.02525)scale(0.18 -0.18)">
       <use xlink:href="#Constantia-83"/>
       <use x="50.976562" xlink:href="#Constantia-117"/>
       <use x="107.910156" xlink:href="#Constantia-110"/>
      </g>
     </g>
    </g>
    <g id="xtick_19">
     <g id="line2d_33">
      <path clip-path="url(#pe9113cbf82)" d="M 1059.40192 642.216125 
L 1059.40192 65.520813 
" style="fill:none;stroke:#b0b0b0;stroke-linecap:square;stroke-width:0.8;"/>
     </g>
     <g id="line2d_34">
      <g>
       <use style="stroke:#000000;stroke-width:0.6;" x="1059.40192" xlink:href="#mc112d71258" y="642.216125"/>
      </g>
     </g>
     <g id="text_19">
      <!-- 15 -->
      <g transform="translate(1052.304577 660.860188)scale(0.18 -0.18)">
       <use xlink:href="#Constantia-49"/>
       <use x="31.298828" xlink:href="#Constantia-53"/>
      </g>
      <!-- Sun -->
      <g transform="translate(1044.45067 681.02525)scale(0.18 -0.18)">
       <use xlink:href="#Constantia-83"/>
       <use x="50.976562" xlink:href="#Constantia-117"/>
       <use x="107.910156" xlink:href="#Constantia-110"/>
      </g>
     </g>
    </g>
    <g id="xtick_20">
     <g id="line2d_35">
      <path clip-path="url(#pe9113cbf82)" d="M 1123.104979 642.216125 
L 1123.104979 65.520813 
" style="fill:none;stroke:#b0b0b0;stroke-linecap:square;stroke-width:0.8;"/>
     </g>
     <g id="line2d_36">
      <g>
       <use style="stroke:#000000;stroke-width:0.6;" x="1123.104979" xlink:href="#mc112d71258" y="642.216125"/>
      </g>
     </g>
     <g id="text_20">
      <!-- 22 -->
      <g transform="translate(1114.386229 660.860188)scale(0.18 -0.18)">
       <use xlink:href="#Constantia-50"/>
       <use x="48.4375" xlink:href="#Constantia-50"/>
      </g>
      <!-- Sun -->
      <g transform="translate(1108.153729 681.02525)scale(0.18 -0.18)">
       <use xlink:href="#Constantia-83"/>
       <use x="50.976562" xlink:href="#Constantia-117"/>
       <use x="107.910156" xlink:href="#Constantia-110"/>
      </g>
     </g>
    </g>
    <g id="xtick_21">
     <g id="line2d_37">
      <path clip-path="url(#pe9113cbf82)" d="M 1186.808038 642.216125 
L 1186.808038 65.520813 
" style="fill:none;stroke:#b0b0b0;stroke-linecap:square;stroke-width:0.8;"/>
     </g>
     <g id="line2d_38">
      <g>
       <use style="stroke:#000000;stroke-width:0.6;" x="1186.808038" xlink:href="#mc112d71258" y="642.216125"/>
      </g>
     </g>
     <g id="text_21">
      <!-- 29 -->
      <g transform="translate(1177.531007 660.860188)scale(0.18 -0.18)">
       <use xlink:href="#Constantia-50"/>
       <use x="48.4375" xlink:href="#Constantia-57"/>
      </g>
      <!-- Sun -->
      <g transform="translate(1171.856788 681.02525)scale(0.18 -0.18)">
       <use xlink:href="#Constantia-83"/>
       <use x="50.976562" xlink:href="#Constantia-117"/>
       <use x="107.910156" xlink:href="#Constantia-110"/>
      </g>
     </g>
    </g>
   </g>
   <g id="matplotlib.axis_2">
    <g id="ytick_1">
     <g id="line2d_39">
      <path clip-path="url(#pe9113cbf82)" d="M 48.434375 642.216125 
L 1187.627078 642.216125 
" style="fill:none;stroke:#b0b0b0;stroke-linecap:square;stroke-width:0.8;"/>
     </g>
     <g id="line2d_40">
      <defs>
       <path d="M 0 0 
L -3.5 0 
" id="md8473f76e5" style="stroke:#000000;stroke-width:0.8;"/>
      </defs>
      <g>
       <use style="stroke:#000000;stroke-width:0.8;" x="48.434375" xlink:href="#md8473f76e5" y="642.216125"/>
      </g>
     </g>
     <g id="text_22">
      <!-- 0 -->
      <g transform="translate(30.6625 649.573938)scale(0.2 -0.2)">
       <use xlink:href="#Constantia-48"/>
      </g>
     </g>
    </g>
    <g id="ytick_2">
     <g id="line2d_41">
      <path clip-path="url(#pe9113cbf82)" d="M 48.434375 530.677854 
L 1187.627078 530.677854 
" style="fill:none;stroke:#b0b0b0;stroke-linecap:square;stroke-width:0.8;"/>
     </g>
     <g id="line2d_42">
      <g>
       <use style="stroke:#000000;stroke-width:0.8;" x="48.434375" xlink:href="#md8473f76e5" y="530.677854"/>
      </g>
     </g>
     <g id="text_23">
      <!-- 1 -->
      <g transform="translate(35.175 538.035667)scale(0.2 -0.2)">
       <use xlink:href="#Constantia-49"/>
      </g>
     </g>
    </g>
    <g id="ytick_3">
     <g id="line2d_43">
      <path clip-path="url(#pe9113cbf82)" d="M 48.434375 419.139583 
L 1187.627078 419.139583 
" style="fill:none;stroke:#b0b0b0;stroke-linecap:square;stroke-width:0.8;"/>
     </g>
     <g id="line2d_44">
      <g>
       <use style="stroke:#000000;stroke-width:0.8;" x="48.434375" xlink:href="#md8473f76e5" y="419.139583"/>
      </g>
     </g>
     <g id="text_24">
      <!-- 2 -->
      <g transform="translate(31.746875 426.497396)scale(0.2 -0.2)">
       <use xlink:href="#Constantia-50"/>
      </g>
     </g>
    </g>
    <g id="ytick_4">
     <g id="line2d_45">
      <path clip-path="url(#pe9113cbf82)" d="M 48.434375 307.601312 
L 1187.627078 307.601312 
" style="fill:none;stroke:#b0b0b0;stroke-linecap:square;stroke-width:0.8;"/>
     </g>
     <g id="line2d_46">
      <g>
       <use style="stroke:#000000;stroke-width:0.8;" x="48.434375" xlink:href="#md8473f76e5" y="307.601312"/>
      </g>
     </g>
     <g id="text_25">
      <!-- 3 -->
      <g transform="translate(32.303125 314.959125)scale(0.2 -0.2)">
       <use xlink:href="#Constantia-51"/>
      </g>
     </g>
    </g>
    <g id="ytick_5">
     <g id="line2d_47">
      <path clip-path="url(#pe9113cbf82)" d="M 48.434375 196.063041 
L 1187.627078 196.063041 
" style="fill:none;stroke:#b0b0b0;stroke-linecap:square;stroke-width:0.8;"/>
     </g>
     <g id="line2d_48">
      <g>
       <use style="stroke:#000000;stroke-width:0.8;" x="48.434375" xlink:href="#md8473f76e5" y="196.063041"/>
      </g>
     </g>
     <g id="text_26">
      <!-- 4 -->
      <g transform="translate(30.81875 203.420854)scale(0.2 -0.2)">
       <use xlink:href="#Constantia-52"/>
      </g>
     </g>
    </g>
    <g id="ytick_6">
     <g id="line2d_49">
      <path clip-path="url(#pe9113cbf82)" d="M 48.434375 84.52477 
L 1187.627078 84.52477 
" style="fill:none;stroke:#b0b0b0;stroke-linecap:square;stroke-width:0.8;"/>
     </g>
     <g id="line2d_50">
      <g>
       <use style="stroke:#000000;stroke-width:0.8;" x="48.434375" xlink:href="#md8473f76e5" y="84.52477"/>
      </g>
     </g>
     <g id="text_27">
      <!-- 5 -->
      <g transform="translate(31.921875 91.882583)scale(0.2 -0.2)">
       <use xlink:href="#Constantia-53"/>
      </g>
     </g>
    </g>
    <g id="text_28">
     <!-- ActiveCases -->
     <g transform="translate(21.915625 405.310656)rotate(-90)scale(0.2 -0.2)">
      <defs>
       <path d="M 19.34375 63.671875 
Q 19.34375 61.078125 17.71875 59.4375 
Q 16.109375 57.8125 13.578125 57.8125 
Q 11.140625 57.8125 9.59375 59.328125 
Q 8.0625 60.84375 8.0625 63.328125 
Q 8.0625 65.96875 9.671875 67.5 
Q 11.28125 69.046875 13.921875 69.046875 
Q 16.3125 69.046875 17.828125 67.65625 
Q 19.34375 66.265625 19.34375 63.671875 
z
M 2.828125 42.96875 
Q 11.375 44.578125 18.65625 46.390625 
L 19.09375 46.046875 
Q 18.796875 39.703125 18.796875 32.078125 
L 18.796875 13.328125 
Q 18.796875 7.46875 18.890625 5.21875 
Q 19 3.90625 20.125 3.515625 
L 25.78125 1.859375 
L 25.875 -0.140625 
Q 19.140625 0 14.359375 0 
Q 9.578125 0 2.984375 -0.140625 
L 2.78125 1.859375 
L 8.453125 3.515625 
Q 9.578125 3.90625 9.671875 5.03125 
Q 9.765625 6.9375 9.765625 11.421875 
L 9.765625 27.734375 
Q 9.765625 34.125 9.578125 39.546875 
L 3.078125 41.3125 
z
" id="Constantia-105"/>
       <path d="M 57.515625 51.3125 
L 55.5625 51.03125 
L 52 63.875 
Q 45.953125 65.375 41.015625 65.375 
Q 29.046875 65.375 22.203125 57.03125 
Q 15.375 48.6875 15.375 35.359375 
Q 15.375 21.09375 23.1875 12.59375 
Q 31 4.109375 44.828125 4.109375 
Q 52.59375 4.109375 61.1875 7.078125 
L 61.71875 4.890625 
Q 52.09375 -1.765625 39.9375 -1.765625 
Q 24.171875 -1.765625 14.5 7.859375 
Q 4.828125 17.484375 4.828125 33.203125 
Q 4.828125 49.953125 15.46875 59.71875 
Q 26.125 69.484375 43.3125 69.484375 
Q 51.5625 69.484375 60.203125 67.484375 
L 60.546875 67.09375 
z
" id="Constantia-67"/>
       <path d="M 30.125 22.125 
Q 19.4375 22.125 15.53125 20.015625 
Q 11.625 17.921875 11.625 12.9375 
Q 11.625 8.296875 14.203125 6.359375 
Q 16.796875 4.4375 21.234375 4.4375 
Q 26.265625 4.4375 30.03125 6.15625 
z
M 6.453125 42.234375 
Q 15.96875 46.390625 23.296875 46.390625 
Q 30.765625 46.390625 34.9375 42.484375 
Q 39.109375 38.578125 39.0625 31.203125 
L 38.8125 10.890625 
Q 38.765625 8.40625 38.9375 6.890625 
Q 39.109375 5.375 39.8125 4.5625 
Q 40.53125 3.765625 41.9375 3.4375 
Q 43.359375 3.125 45.75 3.078125 
L 46 1.171875 
Q 43.890625 0.34375 40.859375 -0.484375 
Q 37.84375 -1.3125 36.765625 -1.3125 
Q 32.03125 -1.3125 30.28125 3.5625 
Q 23.4375 -1.375 17.390625 -1.375 
Q 10.59375 -1.375 6.46875 1.96875 
Q 2.34375 5.328125 2.34375 11.421875 
Q 2.34375 18.953125 9.046875 22.515625 
Q 15.765625 26.078125 30.125 26.078125 
L 30.171875 29.890625 
Q 30.21875 35.359375 27.390625 37.984375 
Q 24.5625 40.625 18.703125 40.625 
Q 14.265625 40.625 7.5625 38.96875 
z
" id="Constantia-97"/>
       <path d="M 27.875 41.453125 
Q 25.046875 42.234375 21.734375 42.234375 
Q 17.140625 42.234375 14.328125 40.453125 
Q 11.53125 38.671875 11.53125 35.59375 
Q 11.53125 32.625 13.359375 30.90625 
Q 15.1875 29.203125 20.171875 27.546875 
L 24.171875 26.171875 
Q 30.90625 23.875 34.046875 20.921875 
Q 37.203125 17.96875 37.203125 13.1875 
Q 37.203125 6.390625 31.921875 2.5 
Q 26.65625 -1.375 18.609375 -1.375 
Q 11.1875 -1.375 3.421875 1.65625 
Q 5.078125 8.015625 6.109375 14.0625 
L 8.015625 14.359375 
L 11.53125 3.859375 
Q 14.3125 2.78125 18.609375 2.78125 
Q 23.140625 2.78125 25.84375 4.640625 
Q 28.5625 6.5 28.5625 9.859375 
Q 28.5625 12.984375 26.734375 14.796875 
Q 24.90625 16.609375 20.90625 17.921875 
L 15.828125 19.625 
Q 9.234375 21.828125 6.71875 24.921875 
Q 4.203125 28.03125 4.203125 32.625 
Q 4.203125 39.015625 9.0625 42.703125 
Q 13.921875 46.390625 21.875 46.390625 
Q 29.296875 46.390625 35.359375 44.234375 
Q 33.984375 38.671875 32.859375 32.46875 
L 31 32.125 
z
" id="Constantia-115"/>
      </defs>
      <use xlink:href="#Constantia-65"/>
      <use x="66.431641" xlink:href="#Constantia-99"/>
      <use x="112.574219" xlink:href="#Constantia-116"/>
      <use x="147.876953" xlink:href="#Constantia-105"/>
      <use x="176.197266" xlink:href="#Constantia-118"/>
      <use x="224.488281" xlink:href="#Constantia-101"/>
      <use x="272.388672" xlink:href="#Constantia-67"/>
      <use x="337.525391" xlink:href="#Constantia-97"/>
      <use x="385.523438" xlink:href="#Constantia-115"/>
      <use x="426.001953" xlink:href="#Constantia-101"/>
      <use x="473.902344" xlink:href="#Constantia-115"/>
     </g>
    </g>
    <g id="text_29">
     <!-- 1e6 -->
     <g transform="translate(48.434375 62.520813)scale(0.1 -0.1)">
      <use xlink:href="#Constantia-49"/>
      <use x="31.298828" xlink:href="#Constantia-101"/>
      <use x="79.199219" xlink:href="#Constantia-54"/>
     </g>
    </g>
   </g>
   <g id="patch_102">
    <path d="M 48.434375 642.216125 
L 48.434375 65.520813 
" style="fill:none;stroke:#000000;stroke-linecap:square;stroke-linejoin:miter;stroke-width:0.8;"/>
   </g>
   <g id="patch_103">
    <path d="M 1187.627078 642.216125 
L 1187.627078 65.520813 
" style="fill:none;stroke:#000000;stroke-linecap:square;stroke-linejoin:miter;stroke-width:0.8;"/>
   </g>
   <g id="patch_104">
    <path d="M 48.434375 642.216125 
L 1187.627078 642.216125 
" style="fill:none;stroke:#000000;stroke-linecap:square;stroke-linejoin:miter;stroke-width:0.8;"/>
   </g>
   <g id="patch_105">
    <path d="M 48.434375 65.520813 
L 1187.627078 65.520813 
" style="fill:none;stroke:#000000;stroke-linecap:square;stroke-linejoin:miter;stroke-width:0.8;"/>
   </g>
   <g id="legend_1">
    <g id="patch_106">
     <path d="M 1199.26627 99.727844 
L 1365.067833 99.727844 
Q 1368.067833 99.727844 1368.067833 96.727844 
L 1368.067833 76.020813 
Q 1368.067833 73.020813 1365.067833 73.020813 
L 1199.26627 73.020813 
Q 1196.26627 73.020813 1196.26627 76.020813 
L 1196.26627 96.727844 
Q 1196.26627 99.727844 1199.26627 99.727844 
z
" style="fill:#ffffff;opacity:0.8;stroke:#000000;stroke-linejoin:miter;"/>
    </g>
    <g id="line2d_51">
     <path d="M 1202.26627 84.807531 
L 1232.26627 84.807531 
" style="fill:none;stroke:#f08080;stroke-dasharray:11.1,4.8;stroke-dashoffset:0;stroke-width:3;"/>
    </g>
    <g id="line2d_52">
     <defs>
      <path d="M 0 3 
C 0.795609 3 1.55874 2.683901 2.12132 2.12132 
C 2.683901 1.55874 3 0.795609 3 0 
C 3 -0.795609 2.683901 -1.55874 2.12132 -2.12132 
C 1.55874 -2.683901 0.795609 -3 0 -3 
C -0.795609 -3 -1.55874 -2.683901 -2.12132 -2.12132 
C -2.683901 -1.55874 -3 -0.795609 -3 0 
C -3 0.795609 -2.683901 1.55874 -2.12132 2.12132 
C -1.55874 2.683901 -0.795609 3 0 3 
z
" id="mace2a88fc3" style="stroke:#f08080;"/>
     </defs>
     <g>
      <use style="fill:#f08080;stroke:#f08080;" x="1217.26627" xlink:href="#mace2a88fc3" y="84.807531"/>
     </g>
    </g>
    <g id="text_30">
     <!-- 7 days moving avg -->
     <g transform="translate(1244.26627 90.057531)scale(0.15 -0.15)">
      <defs>
       <path id="Constantia-32"/>
       <path d="M 37.9375 41.015625 
Q 34.671875 42.046875 30.609375 42.046875 
Q 22.21875 42.046875 17.8125 37.28125 
Q 13.421875 32.515625 13.421875 22.859375 
Q 13.421875 14.5 17.328125 9.5 
Q 21.234375 4.5 28.375 4.5 
Q 32.953125 4.5 37.9375 7.03125 
z
M 30.90625 70.125 
Q 39.59375 71.78125 46.828125 73.578125 
L 47.265625 73.1875 
Q 46.96875 62.75 46.96875 50.734375 
L 46.96875 24.171875 
Q 46.96875 17.4375 47.015625 10.84375 
Q 47.015625 8.34375 47.1875 6.828125 
Q 47.359375 5.328125 48.046875 4.515625 
Q 48.734375 3.71875 50.078125 3.421875 
Q 51.421875 3.125 53.859375 3.078125 
L 54.109375 1.171875 
Q 51.953125 0.34375 48.953125 -0.484375 
Q 45.953125 -1.3125 44.875 -1.3125 
Q 39.9375 -1.3125 38.234375 4.25 
Q 30.671875 -1.375 23.53125 -1.375 
Q 14.5 -1.375 9.109375 5.046875 
Q 3.71875 11.46875 3.71875 20.84375 
Q 3.71875 32.953125 10.890625 39.59375 
Q 18.0625 46.234375 30.953125 46.234375 
Q 34.078125 46.234375 37.9375 45.5625 
Q 37.9375 56.34375 37.75 66.546875 
L 31.15625 68.5 
z
" id="Constantia-100"/>
       <path d="M -1.703125 45.265625 
Q 4.4375 45.125 9.234375 45.125 
Q 12.5 45.125 19.671875 45.265625 
L 19.875 43.265625 
L 14.15625 41.703125 
Q 15.96875 36.578125 18.359375 30.390625 
Q 20.75 24.21875 23.4375 17.53125 
Q 24.5625 14.75 25.875 11.140625 
Q 27.25 14.796875 28.8125 18.609375 
Q 31.109375 24.265625 33.25 29.75 
Q 35.40625 35.25 37.703125 41.703125 
L 32.125 43.265625 
L 31.9375 45.265625 
Q 35.546875 45.125 40.375 45.125 
Q 44.734375 45.125 48.828125 45.265625 
L 49.078125 43.265625 
L 44.53125 42 
Q 43.015625 41.5 42.328125 39.984375 
Q 40.53125 35.84375 38.421875 30.90625 
Q 31.984375 15.765625 28.65625 6.109375 
Q 26.421875 -0.4375 24.609375 -7.296875 
Q 22.796875 -14.15625 21.828125 -19.09375 
Q 21.390625 -21.484375 20.046875 -22.71875 
Q 18.703125 -23.96875 13.765625 -23.96875 
Q 8.734375 -23.96875 4 -23.640625 
L 3.765625 -21.734375 
Q 9.125 -20.90625 11.71875 -18.265625 
Q 14.84375 -14.890625 21.390625 -0.34375 
L 21.78125 0.59375 
L 21.09375 0.78125 
Q 12.15625 23.046875 4.9375 39.9375 
Q 4.296875 41.40625 2.6875 41.9375 
L -1.609375 43.265625 
z
" id="Constantia-121"/>
       <path d="M 47.65625 36.859375 
Q 48.34375 34.515625 48.34375 31.59375 
L 48.34375 14.15625 
Q 48.34375 8.453125 48.4375 4.984375 
Q 48.53125 3.65625 49.703125 3.265625 
L 54.640625 1.859375 
L 54.734375 -0.140625 
Q 48.78125 0 44 0 
Q 39.203125 0 33.34375 -0.140625 
L 33.15625 1.859375 
L 37.796875 3.21875 
Q 39.203125 3.71875 39.265625 4.78125 
Q 39.3125 5.46875 39.3125 7.859375 
L 39.3125 29.15625 
Q 39.3125 35.15625 36.578125 37.765625 
Q 33.84375 40.375 28.46875 40.375 
Q 23.734375 40.375 18.796875 37.546875 
L 18.796875 16.21875 
Q 18.796875 10.109375 18.890625 5.03125 
Q 18.953125 3.5625 19.921875 3.375 
L 25.09375 1.859375 
L 25.203125 -0.140625 
Q 19.140625 0 14.359375 0 
Q 9.578125 0 3.03125 -0.140625 
L 2.828125 1.859375 
L 8.453125 3.515625 
Q 9.671875 3.859375 9.71875 5.03125 
Q 9.765625 7.625 9.765625 11.03125 
L 9.765625 27.6875 
Q 9.765625 34.078125 9.578125 39.546875 
L 3.078125 41.3125 
L 2.828125 42.96875 
Q 10.890625 44.53125 18.265625 46.390625 
L 18.75 46.046875 
L 18.75 40.375 
Q 26.765625 46.390625 33.9375 46.390625 
Q 42.71875 46.390625 46.625 39.59375 
Q 54.34375 46.390625 63.375 46.390625 
Q 70.171875 46.390625 74 42.546875 
Q 77.828125 38.71875 77.828125 31.59375 
L 77.828125 14.3125 
Q 77.828125 8.15625 77.9375 5.21875 
Q 78.03125 3.90625 79.25 3.515625 
L 84.671875 1.859375 
L 84.765625 -0.140625 
Q 78.328125 0 73.53125 0 
Q 68.703125 0 62.890625 -0.140625 
L 62.703125 1.859375 
L 67.53125 3.265625 
Q 68.65625 3.65625 68.796875 4.78125 
Q 68.84375 5.46875 68.84375 7.859375 
L 68.84375 29.15625 
Q 68.84375 35.15625 66.0625 37.765625 
Q 63.28125 40.375 57.859375 40.375 
Q 52.390625 40.375 47.65625 36.859375 
z
" id="Constantia-109"/>
      </defs>
      <use xlink:href="#Constantia-55"/>
      <use x="48.339844" xlink:href="#Constantia-32"/>
      <use x="70.9375" xlink:href="#Constantia-100"/>
      <use x="127.675781" xlink:href="#Constantia-97"/>
      <use x="175.673828" xlink:href="#Constantia-121"/>
      <use x="223.818359" xlink:href="#Constantia-115"/>
      <use x="264.296875" xlink:href="#Constantia-32"/>
      <use x="289.394531" xlink:href="#Constantia-109"/>
      <use x="376.015625" xlink:href="#Constantia-111"/>
      <use x="430.068359" xlink:href="#Constantia-118"/>
      <use x="478.359375" xlink:href="#Constantia-105"/>
      <use x="506.679688" xlink:href="#Constantia-110"/>
      <use x="564.882812" xlink:href="#Constantia-103"/>
      <use x="615.664062" xlink:href="#Constantia-32"/>
      <use x="638.261719" xlink:href="#Constantia-97"/>
      <use x="686.259766" xlink:href="#Constantia-118"/>
      <use x="734.550781" xlink:href="#Constantia-103"/>
     </g>
    </g>
   </g>
  </g>
  <g id="axes_2">
   <g id="line2d_53">
    <path clip-path="url(#pe9113cbf82)" d="M 258.563465 616.002702 
L 267.663902 609.069791 
L 294.965213 602.782349 
L 304.06565 597.92079 
L 313.166087 595.53039 
L 322.266524 593.721991 
L 331.366961 592.228653 
L 340.467398 590.014013 
L 349.567835 587.652867 
L 358.668272 586.452205 
L 367.768709 585.110868 
L 376.869146 583.118466 
L 385.969583 581.967633 
L 395.07002 580.319378 
L 404.170457 579.197934 
L 413.270894 578.99741 
L 422.371331 579.832412 
L 431.471768 580.571474 
L 440.572205 582.416198 
L 449.672642 584.063715 
L 458.773079 586.11801 
L 467.873516 587.511656 
L 476.973953 587.769985 
L 486.07439 587.67371 
L 495.174827 588.367635 
L 504.275264 588.605355 
L 513.375701 588.711112 
L 531.576575 588.258526 
L 540.677012 587.741199 
L 549.777449 587.252323 
L 558.877886 587.08293 
L 567.978323 586.531322 
L 577.07876 585.977704 
L 586.179197 585.200976 
L 595.279634 584.606241 
L 604.380071 584.348315 
L 613.480508 583.786621 
L 622.580945 583.704723 
L 631.681382 583.854713 
L 640.781819 583.713905 
L 649.882256 583.509628 
L 658.982693 582.990391 
L 668.08313 582.639542 
L 677.183567 582.444849 
L 686.284004 581.379868 
L 695.384441 580.22917 
L 704.484878 579.106686 
L 713.585315 577.518012 
L 722.685752 575.752305 
L 731.786189 573.464211 
L 749.987063 571.043786 
L 759.0875 568.816713 
L 768.187937 566.06903 
L 777.288374 563.520262 
L 786.388811 560.102513 
L 795.489248 557.476203 
L 804.589685 555.142335 
L 813.690122 552.875854 
L 822.790559 549.638524 
L 831.890996 545.941067 
L 840.991433 541.950265 
L 850.09187 538.478096 
L 859.192307 532.922612 
L 868.292743 526.538595 
L 877.39318 519.801316 
L 886.493617 513.527311 
L 895.594054 507.020279 
L 904.694491 499.443307 
L 913.794928 491.368041 
L 922.895365 483.301757 
L 931.995802 475.069195 
L 941.096239 466.972685 
L 950.196676 458.070829 
L 959.297113 448.167427 
L 968.39755 437.599925 
L 977.497987 425.450584 
L 986.598424 412.379955 
L 995.698861 398.455826 
L 1004.799298 383.385288 
L 1013.899735 366.689349 
L 1023.000172 349.046854 
L 1032.100609 329.594787 
L 1041.201046 309.265998 
L 1050.301483 288.338019 
L 1059.40192 268.015396 
L 1068.502357 246.40207 
L 1077.602794 224.985381 
L 1086.703231 203.643553 
L 1095.803668 181.92953 
L 1104.904105 159.71078 
L 1114.004542 137.831753 
L 1123.104979 114.428057 
L 1132.205416 91.734236 
" style="fill:none;stroke:#f08080;stroke-dasharray:11.1,4.8;stroke-dashoffset:0;stroke-width:3;"/>
    <g clip-path="url(#pe9113cbf82)">
     <use style="fill:#f08080;stroke:#f08080;" x="258.563465" xlink:href="#mace2a88fc3" y="616.002702"/>
     <use style="fill:#f08080;stroke:#f08080;" x="267.663902" xlink:href="#mace2a88fc3" y="609.069791"/>
     <use style="fill:#f08080;stroke:#f08080;" x="294.965213" xlink:href="#mace2a88fc3" y="602.782349"/>
     <use style="fill:#f08080;stroke:#f08080;" x="304.06565" xlink:href="#mace2a88fc3" y="597.92079"/>
     <use style="fill:#f08080;stroke:#f08080;" x="313.166087" xlink:href="#mace2a88fc3" y="595.53039"/>
     <use style="fill:#f08080;stroke:#f08080;" x="322.266524" xlink:href="#mace2a88fc3" y="593.721991"/>
     <use style="fill:#f08080;stroke:#f08080;" x="331.366961" xlink:href="#mace2a88fc3" y="592.228653"/>
     <use style="fill:#f08080;stroke:#f08080;" x="340.467398" xlink:href="#mace2a88fc3" y="590.014013"/>
     <use style="fill:#f08080;stroke:#f08080;" x="349.567835" xlink:href="#mace2a88fc3" y="587.652867"/>
     <use style="fill:#f08080;stroke:#f08080;" x="358.668272" xlink:href="#mace2a88fc3" y="586.452205"/>
     <use style="fill:#f08080;stroke:#f08080;" x="367.768709" xlink:href="#mace2a88fc3" y="585.110868"/>
     <use style="fill:#f08080;stroke:#f08080;" x="376.869146" xlink:href="#mace2a88fc3" y="583.118466"/>
     <use style="fill:#f08080;stroke:#f08080;" x="385.969583" xlink:href="#mace2a88fc3" y="581.967633"/>
     <use style="fill:#f08080;stroke:#f08080;" x="395.07002" xlink:href="#mace2a88fc3" y="580.319378"/>
     <use style="fill:#f08080;stroke:#f08080;" x="404.170457" xlink:href="#mace2a88fc3" y="579.197934"/>
     <use style="fill:#f08080;stroke:#f08080;" x="413.270894" xlink:href="#mace2a88fc3" y="578.99741"/>
     <use style="fill:#f08080;stroke:#f08080;" x="422.371331" xlink:href="#mace2a88fc3" y="579.832412"/>
     <use style="fill:#f08080;stroke:#f08080;" x="431.471768" xlink:href="#mace2a88fc3" y="580.571474"/>
     <use style="fill:#f08080;stroke:#f08080;" x="440.572205" xlink:href="#mace2a88fc3" y="582.416198"/>
     <use style="fill:#f08080;stroke:#f08080;" x="449.672642" xlink:href="#mace2a88fc3" y="584.063715"/>
     <use style="fill:#f08080;stroke:#f08080;" x="458.773079" xlink:href="#mace2a88fc3" y="586.11801"/>
     <use style="fill:#f08080;stroke:#f08080;" x="467.873516" xlink:href="#mace2a88fc3" y="587.511656"/>
     <use style="fill:#f08080;stroke:#f08080;" x="476.973953" xlink:href="#mace2a88fc3" y="587.769985"/>
     <use style="fill:#f08080;stroke:#f08080;" x="486.07439" xlink:href="#mace2a88fc3" y="587.67371"/>
     <use style="fill:#f08080;stroke:#f08080;" x="495.174827" xlink:href="#mace2a88fc3" y="588.367635"/>
     <use style="fill:#f08080;stroke:#f08080;" x="504.275264" xlink:href="#mace2a88fc3" y="588.605355"/>
     <use style="fill:#f08080;stroke:#f08080;" x="513.375701" xlink:href="#mace2a88fc3" y="588.711112"/>
     <use style="fill:#f08080;stroke:#f08080;" x="531.576575" xlink:href="#mace2a88fc3" y="588.258526"/>
     <use style="fill:#f08080;stroke:#f08080;" x="540.677012" xlink:href="#mace2a88fc3" y="587.741199"/>
     <use style="fill:#f08080;stroke:#f08080;" x="549.777449" xlink:href="#mace2a88fc3" y="587.252323"/>
     <use style="fill:#f08080;stroke:#f08080;" x="558.877886" xlink:href="#mace2a88fc3" y="587.08293"/>
     <use style="fill:#f08080;stroke:#f08080;" x="567.978323" xlink:href="#mace2a88fc3" y="586.531322"/>
     <use style="fill:#f08080;stroke:#f08080;" x="577.07876" xlink:href="#mace2a88fc3" y="585.977704"/>
     <use style="fill:#f08080;stroke:#f08080;" x="586.179197" xlink:href="#mace2a88fc3" y="585.200976"/>
     <use style="fill:#f08080;stroke:#f08080;" x="595.279634" xlink:href="#mace2a88fc3" y="584.606241"/>
     <use style="fill:#f08080;stroke:#f08080;" x="604.380071" xlink:href="#mace2a88fc3" y="584.348315"/>
     <use style="fill:#f08080;stroke:#f08080;" x="613.480508" xlink:href="#mace2a88fc3" y="583.786621"/>
     <use style="fill:#f08080;stroke:#f08080;" x="622.580945" xlink:href="#mace2a88fc3" y="583.704723"/>
     <use style="fill:#f08080;stroke:#f08080;" x="631.681382" xlink:href="#mace2a88fc3" y="583.854713"/>
     <use style="fill:#f08080;stroke:#f08080;" x="640.781819" xlink:href="#mace2a88fc3" y="583.713905"/>
     <use style="fill:#f08080;stroke:#f08080;" x="649.882256" xlink:href="#mace2a88fc3" y="583.509628"/>
     <use style="fill:#f08080;stroke:#f08080;" x="658.982693" xlink:href="#mace2a88fc3" y="582.990391"/>
     <use style="fill:#f08080;stroke:#f08080;" x="668.08313" xlink:href="#mace2a88fc3" y="582.639542"/>
     <use style="fill:#f08080;stroke:#f08080;" x="677.183567" xlink:href="#mace2a88fc3" y="582.444849"/>
     <use style="fill:#f08080;stroke:#f08080;" x="686.284004" xlink:href="#mace2a88fc3" y="581.379868"/>
     <use style="fill:#f08080;stroke:#f08080;" x="695.384441" xlink:href="#mace2a88fc3" y="580.22917"/>
     <use style="fill:#f08080;stroke:#f08080;" x="704.484878" xlink:href="#mace2a88fc3" y="579.106686"/>
     <use style="fill:#f08080;stroke:#f08080;" x="713.585315" xlink:href="#mace2a88fc3" y="577.518012"/>
     <use style="fill:#f08080;stroke:#f08080;" x="722.685752" xlink:href="#mace2a88fc3" y="575.752305"/>
     <use style="fill:#f08080;stroke:#f08080;" x="731.786189" xlink:href="#mace2a88fc3" y="573.464211"/>
     <use style="fill:#f08080;stroke:#f08080;" x="749.987063" xlink:href="#mace2a88fc3" y="571.043786"/>
     <use style="fill:#f08080;stroke:#f08080;" x="759.0875" xlink:href="#mace2a88fc3" y="568.816713"/>
     <use style="fill:#f08080;stroke:#f08080;" x="768.187937" xlink:href="#mace2a88fc3" y="566.06903"/>
     <use style="fill:#f08080;stroke:#f08080;" x="777.288374" xlink:href="#mace2a88fc3" y="563.520262"/>
     <use style="fill:#f08080;stroke:#f08080;" x="786.388811" xlink:href="#mace2a88fc3" y="560.102513"/>
     <use style="fill:#f08080;stroke:#f08080;" x="795.489248" xlink:href="#mace2a88fc3" y="557.476203"/>
     <use style="fill:#f08080;stroke:#f08080;" x="804.589685" xlink:href="#mace2a88fc3" y="555.142335"/>
     <use style="fill:#f08080;stroke:#f08080;" x="813.690122" xlink:href="#mace2a88fc3" y="552.875854"/>
     <use style="fill:#f08080;stroke:#f08080;" x="822.790559" xlink:href="#mace2a88fc3" y="549.638524"/>
     <use style="fill:#f08080;stroke:#f08080;" x="831.890996" xlink:href="#mace2a88fc3" y="545.941067"/>
     <use style="fill:#f08080;stroke:#f08080;" x="840.991433" xlink:href="#mace2a88fc3" y="541.950265"/>
     <use style="fill:#f08080;stroke:#f08080;" x="850.09187" xlink:href="#mace2a88fc3" y="538.478096"/>
     <use style="fill:#f08080;stroke:#f08080;" x="859.192307" xlink:href="#mace2a88fc3" y="532.922612"/>
     <use style="fill:#f08080;stroke:#f08080;" x="868.292743" xlink:href="#mace2a88fc3" y="526.538595"/>
     <use style="fill:#f08080;stroke:#f08080;" x="877.39318" xlink:href="#mace2a88fc3" y="519.801316"/>
     <use style="fill:#f08080;stroke:#f08080;" x="886.493617" xlink:href="#mace2a88fc3" y="513.527311"/>
     <use style="fill:#f08080;stroke:#f08080;" x="895.594054" xlink:href="#mace2a88fc3" y="507.020279"/>
     <use style="fill:#f08080;stroke:#f08080;" x="904.694491" xlink:href="#mace2a88fc3" y="499.443307"/>
     <use style="fill:#f08080;stroke:#f08080;" x="913.794928" xlink:href="#mace2a88fc3" y="491.368041"/>
     <use style="fill:#f08080;stroke:#f08080;" x="922.895365" xlink:href="#mace2a88fc3" y="483.301757"/>
     <use style="fill:#f08080;stroke:#f08080;" x="931.995802" xlink:href="#mace2a88fc3" y="475.069195"/>
     <use style="fill:#f08080;stroke:#f08080;" x="941.096239" xlink:href="#mace2a88fc3" y="466.972685"/>
     <use style="fill:#f08080;stroke:#f08080;" x="950.196676" xlink:href="#mace2a88fc3" y="458.070829"/>
     <use style="fill:#f08080;stroke:#f08080;" x="959.297113" xlink:href="#mace2a88fc3" y="448.167427"/>
     <use style="fill:#f08080;stroke:#f08080;" x="968.39755" xlink:href="#mace2a88fc3" y="437.599925"/>
     <use style="fill:#f08080;stroke:#f08080;" x="977.497987" xlink:href="#mace2a88fc3" y="425.450584"/>
     <use style="fill:#f08080;stroke:#f08080;" x="986.598424" xlink:href="#mace2a88fc3" y="412.379955"/>
     <use style="fill:#f08080;stroke:#f08080;" x="995.698861" xlink:href="#mace2a88fc3" y="398.455826"/>
     <use style="fill:#f08080;stroke:#f08080;" x="1004.799298" xlink:href="#mace2a88fc3" y="383.385288"/>
     <use style="fill:#f08080;stroke:#f08080;" x="1013.899735" xlink:href="#mace2a88fc3" y="366.689349"/>
     <use style="fill:#f08080;stroke:#f08080;" x="1023.000172" xlink:href="#mace2a88fc3" y="349.046854"/>
     <use style="fill:#f08080;stroke:#f08080;" x="1032.100609" xlink:href="#mace2a88fc3" y="329.594787"/>
     <use style="fill:#f08080;stroke:#f08080;" x="1041.201046" xlink:href="#mace2a88fc3" y="309.265998"/>
     <use style="fill:#f08080;stroke:#f08080;" x="1050.301483" xlink:href="#mace2a88fc3" y="288.338019"/>
     <use style="fill:#f08080;stroke:#f08080;" x="1059.40192" xlink:href="#mace2a88fc3" y="268.015396"/>
     <use style="fill:#f08080;stroke:#f08080;" x="1068.502357" xlink:href="#mace2a88fc3" y="246.40207"/>
     <use style="fill:#f08080;stroke:#f08080;" x="1077.602794" xlink:href="#mace2a88fc3" y="224.985381"/>
     <use style="fill:#f08080;stroke:#f08080;" x="1086.703231" xlink:href="#mace2a88fc3" y="203.643553"/>
     <use style="fill:#f08080;stroke:#f08080;" x="1095.803668" xlink:href="#mace2a88fc3" y="181.92953"/>
     <use style="fill:#f08080;stroke:#f08080;" x="1104.904105" xlink:href="#mace2a88fc3" y="159.71078"/>
     <use style="fill:#f08080;stroke:#f08080;" x="1114.004542" xlink:href="#mace2a88fc3" y="137.831753"/>
     <use style="fill:#f08080;stroke:#f08080;" x="1123.104979" xlink:href="#mace2a88fc3" y="114.428057"/>
     <use style="fill:#f08080;stroke:#f08080;" x="1132.205416" xlink:href="#mace2a88fc3" y="91.734236"/>
    </g>
   </g>
  </g>
  <g id="text_31">
   <!-- Usa -->
   <g transform="translate(671.515625 21.915625)scale(0.2 -0.2)">
    <defs>
     <path d="M 3.078125 68.359375 
Q 9.375 68.171875 15.1875 68.171875 
Q 21.046875 68.171875 27.296875 68.359375 
L 27.484375 66.265625 
L 21.4375 64.453125 
Q 20.265625 64.15625 20.171875 62.9375 
Q 20.125 61.234375 20.09375 59.203125 
Q 20.0625 57.171875 20.0625 54.78125 
L 20.0625 28.078125 
Q 20.0625 14.109375 24.5 8.71875 
Q 28.953125 3.328125 38.8125 3.328125 
Q 48.828125 3.328125 53.3125 8.890625 
Q 57.8125 14.453125 57.8125 27.484375 
L 57.8125 54.78125 
Q 57.8125 57.171875 57.78125 59.203125 
Q 57.765625 61.234375 57.671875 62.9375 
Q 57.625 64.0625 56.390625 64.453125 
L 50.6875 66.109375 
L 50.59375 68.359375 
Q 56.78125 68.171875 61.234375 68.171875 
Q 65.484375 68.171875 71.578125 68.359375 
L 71.78125 66.265625 
L 65.625 64.359375 
Q 64.5 63.96875 64.453125 62.703125 
Q 64.40625 61.078125 64.375 59.078125 
Q 64.359375 57.078125 64.359375 54.59375 
L 64.359375 29.546875 
Q 64.359375 13.53125 57.828125 5.859375 
Q 51.3125 -1.8125 37.3125 -1.8125 
Q 23.578125 -1.8125 17.03125 5.09375 
Q 10.5 12.015625 10.5 26.5625 
L 10.5 54.59375 
Q 10.5 57.078125 10.46875 59.078125 
Q 10.453125 61.078125 10.40625 62.703125 
Q 10.359375 63.96875 9.234375 64.359375 
L 3.171875 66.265625 
z
" id="Constantia-85"/>
    </defs>
    <use xlink:href="#Constantia-85"/>
    <use x="72.365234" xlink:href="#Constantia-115"/>
    <use x="112.84375" xlink:href="#Constantia-97"/>
   </g>
   <!-- Daily increase of ActiveCases -->
   <g transform="translate(562.360937 44.32125)scale(0.2 -0.2)">
    <defs>
     <path d="M 17.09375 0 
Q 11.1875 0 4.984375 -0.140625 
L 4.78125 1.953125 
L 10.796875 3.765625 
Q 12.0625 4.15625 12.109375 5.28125 
Q 12.15625 7.234375 12.171875 9.640625 
Q 12.203125 12.0625 12.203125 14.984375 
L 12.203125 54.59375 
Q 12.203125 57.078125 12.171875 59.078125 
Q 12.15625 61.078125 12.109375 62.703125 
Q 12.0625 63.96875 10.9375 64.359375 
L 4.890625 66.265625 
L 4.78125 68.359375 
Q 11.078125 68.171875 17.046875 68.171875 
Q 21.921875 68.171875 26.453125 68.40625 
Q 31 68.65625 35.796875 68.65625 
Q 52.875 68.65625 61.46875 60.859375 
Q 70.0625 53.078125 70.0625 37.75 
Q 70.0625 19.671875 60.515625 9.6875 
Q 50.984375 -0.296875 33.734375 -0.296875 
Q 29 -0.296875 25.28125 -0.140625 
Q 21.578125 0 17.09375 0 
z
M 21.78125 4.34375 
Q 24.65625 3.953125 27.40625 3.828125 
Q 30.171875 3.71875 32.953125 3.71875 
Q 45.84375 3.71875 52.578125 11.296875 
Q 59.328125 18.890625 59.328125 34.578125 
Q 59.328125 49.8125 52.921875 57.15625 
Q 46.53125 64.5 32.671875 64.5 
Q 30.46875 64.5 27.796875 64.40625 
Q 25.140625 64.3125 21.78125 64.0625 
z
" id="Constantia-68"/>
     <path d="M 2.734375 68.5 
L 2.484375 70.125 
Q 11.140625 71.78125 18.40625 73.578125 
L 18.84375 73.1875 
Q 18.5625 65.234375 18.5625 51.078125 
L 18.5625 19.28125 
Q 18.5625 10.546875 18.65625 5.21875 
Q 18.796875 3.8125 20.015625 3.46875 
L 25.34375 1.859375 
L 25.484375 -0.140625 
Q 18.890625 0 14.109375 0 
Q 9.328125 0 2.78125 -0.140625 
L 2.59375 1.859375 
L 8.109375 3.46875 
Q 9.328125 3.859375 9.421875 5.03125 
Q 9.515625 10.546875 9.515625 17.328125 
L 9.515625 37.40625 
Q 9.515625 55.5625 9.328125 66.546875 
z
" id="Constantia-108"/>
     <path d="M 2.828125 42.96875 
Q 10.984375 44.53125 18.3125 46.390625 
L 18.796875 46.046875 
L 18.796875 40.328125 
Q 27.828125 46.390625 36.53125 46.390625 
L 36.765625 46.09375 
Q 35.359375 38.8125 33.984375 31 
L 32.03125 30.671875 
Q 30.671875 34.8125 29.390625 37.328125 
Q 28.125 39.84375 25.390625 39.84375 
Q 22.75 39.84375 18.796875 37.40625 
L 18.796875 16.265625 
Q 18.796875 8.640625 18.890625 5.375 
Q 18.953125 4.046875 20.125 3.71875 
L 26.609375 1.859375 
L 26.765625 -0.140625 
Q 19.140625 0 14.359375 0 
Q 9.578125 0 3.03125 -0.140625 
L 2.828125 1.859375 
L 8.5 3.515625 
Q 9.671875 3.90625 9.71875 5.03125 
Q 9.765625 7.125 9.765625 11.03125 
L 9.765625 27.6875 
Q 9.765625 35.640625 9.578125 39.546875 
L 3.078125 41.3125 
z
" id="Constantia-114"/>
     <path d="M 18.796875 39.9375 
L 18.796875 13.421875 
Q 18.796875 8.84375 18.890625 5.375 
Q 19 4.046875 20.171875 3.71875 
L 26.375 1.859375 
L 26.515625 -0.140625 
Q 19.140625 0 14.40625 0 
Q 9.578125 0 3.03125 -0.140625 
L 2.78125 1.859375 
L 8.25 3.421875 
Q 9.625 3.859375 9.671875 5.03125 
Q 9.765625 8.0625 9.765625 11.421875 
L 9.765625 40.1875 
L 3.125 41.84375 
L 2.78125 43.890625 
L 9.8125 44.484375 
L 9.8125 44.671875 
Q 9.8125 58.453125 15.796875 66.015625 
Q 21.78125 73.578125 31.84375 73.578125 
Q 36.765625 73.578125 41.359375 72.359375 
Q 39.703125 66.40625 38.53125 60.109375 
L 36.46875 59.71875 
L 33.296875 69.484375 
Q 32.171875 69.625 30.46875 69.625 
Q 24.859375 69.625 21.828125 64.59375 
Q 18.796875 59.578125 18.796875 46.1875 
L 18.796875 44.578125 
L 30.953125 44.578125 
L 30.953125 39.9375 
z
" id="Constantia-102"/>
    </defs>
    <use xlink:href="#Constantia-68"/>
    <use x="73.847656" xlink:href="#Constantia-97"/>
    <use x="121.845703" xlink:href="#Constantia-105"/>
    <use x="150.166016" xlink:href="#Constantia-108"/>
    <use x="178.242188" xlink:href="#Constantia-121"/>
    <use x="226.386719" xlink:href="#Constantia-32"/>
    <use x="251.484375" xlink:href="#Constantia-105"/>
    <use x="279.804688" xlink:href="#Constantia-110"/>
    <use x="338.007812" xlink:href="#Constantia-99"/>
    <use x="384.150391" xlink:href="#Constantia-114"/>
    <use x="422.480469" xlink:href="#Constantia-101"/>
    <use x="470.380859" xlink:href="#Constantia-97"/>
    <use x="518.378906" xlink:href="#Constantia-115"/>
    <use x="558.857422" xlink:href="#Constantia-101"/>
    <use x="606.757812" xlink:href="#Constantia-32"/>
    <use x="629.355469" xlink:href="#Constantia-111"/>
    <use x="683.408203" xlink:href="#Constantia-102"/>
    <use x="714.365234" xlink:href="#Constantia-32"/>
    <use x="737.962891" xlink:href="#Constantia-65"/>
    <use x="804.394531" xlink:href="#Constantia-99"/>
    <use x="850.537109" xlink:href="#Constantia-116"/>
    <use x="885.839844" xlink:href="#Constantia-105"/>
    <use x="914.160156" xlink:href="#Constantia-118"/>
    <use x="962.451172" xlink:href="#Constantia-101"/>
    <use x="1010.351562" xlink:href="#Constantia-67"/>
    <use x="1075.488281" xlink:href="#Constantia-97"/>
    <use x="1123.486328" xlink:href="#Constantia-115"/>
    <use x="1163.964844" xlink:href="#Constantia-101"/>
    <use x="1211.865234" xlink:href="#Constantia-115"/>
   </g>
  </g>
 </g>
 <defs>
  <clipPath id="pe9113cbf82">
   <rect height="576.695312" width="1139.192702" x="48.434375" y="65.520813"/>
  </clipPath>
 </defs>
</svg>
