<?xml version="1.0" encoding="utf-8" standalone="no"?>
<!DOCTYPE svg PUBLIC "-//W3C//DTD SVG 1.1//EN"
  "http://www.w3.org/Graphics/SVG/1.1/DTD/svg11.dtd">
<!-- Created with matplotlib (https://matplotlib.org/) -->
<svg height="765.648pt" version="1.1" viewBox="0 0 1375.2 765.648" width="1375.2pt" xmlns="http://www.w3.org/2000/svg" xmlns:xlink="http://www.w3.org/1999/xlink">
 <metadata>
  <rdf:RDF xmlns:cc="http://creativecommons.org/ns#" xmlns:dc="http://purl.org/dc/elements/1.1/" xmlns:rdf="http://www.w3.org/1999/02/22-rdf-syntax-ns#">
   <cc:Work>
    <dc:type rdf:resource="http://purl.org/dc/dcmitype/StillImage"/>
    <dc:date>2020-11-25T14:30:07.330942</dc:date>
    <dc:format>image/svg+xml</dc:format>
    <dc:creator>
     <cc:Agent>
      <dc:title>Matplotlib v3.3.2, https://matplotlib.org/</dc:title>
     </cc:Agent>
    </dc:creator>
   </cc:Work>
  </rdf:RDF>
 </metadata>
 <defs>
  <style type="text/css">*{stroke-linecap:butt;stroke-linejoin:round;}</style>
 </defs>
 <g id="figure_1">
  <g id="patch_1">
   <path d="M 0 765.648 
L 1375.2 765.648 
L 1375.2 0 
L 0 0 
z
" style="fill:none;"/>
  </g>
  <g id="axes_1">
   <g id="patch_2">
    <path d="M 80.8 642.363 
L 1368 642.363 
L 1368 55.163 
L 80.8 55.163 
z
" style="fill:#ffffff;"/>
   </g>
   <g id="patch_3">
    <path clip-path="url(#p3aa9afdd48)" d="M 0 0 
z
" style="fill:#ffa500;"/>
   </g>
   <g id="patch_4">
    <path clip-path="url(#p3aa9afdd48)" d="M 139.309091 642.363 
L 147.993186 642.363 
L 147.993186 83.124905 
L 139.309091 83.124905 
z
" style="fill:#ffa500;"/>
   </g>
   <g id="patch_5">
    <path clip-path="url(#p3aa9afdd48)" d="M 182.729567 642.363 
L 191.413662 642.363 
L 191.413662 370.014561 
L 182.729567 370.014561 
z
" style="fill:#ffa500;"/>
   </g>
   <g id="patch_6">
    <path clip-path="url(#p3aa9afdd48)" d="M 226.150042 642.363 
L 234.834137 642.363 
L 234.834137 227.767245 
L 226.150042 227.767245 
z
" style="fill:#ffa500;"/>
   </g>
   <g id="patch_7">
    <path clip-path="url(#p3aa9afdd48)" d="M 237.005161 642.363 
L 245.689256 642.363 
L 245.689256 586.764229 
L 237.005161 586.764229 
z
" style="fill:#ffa500;"/>
   </g>
   <g id="patch_8">
    <path clip-path="url(#p3aa9afdd48)" d="M 247.86028 642.363 
L 256.544375 642.363 
L 256.544375 562.55738 
L 247.86028 562.55738 
z
" style="fill:#ffa500;"/>
   </g>
   <g id="patch_9">
    <path clip-path="url(#p3aa9afdd48)" d="M 258.715399 642.363 
L 267.399494 642.363 
L 267.399494 565.29455 
L 258.715399 565.29455 
z
" style="fill:#ffa500;"/>
   </g>
   <g id="patch_10">
    <path clip-path="url(#p3aa9afdd48)" d="M 269.570518 642.363 
L 278.254613 642.363 
L 278.254613 529.88241 
L 269.570518 529.88241 
z
" style="fill:#ffa500;"/>
   </g>
   <g id="patch_11">
    <path clip-path="url(#p3aa9afdd48)" d="M 302.135875 642.363 
L 310.81997 642.363 
L 310.81997 302.012988 
L 302.135875 302.012988 
z
" style="fill:#ffa500;"/>
   </g>
   <g id="patch_12">
    <path clip-path="url(#p3aa9afdd48)" d="M 312.990993 642.363 
L 321.675089 642.363 
L 321.675089 622.518516 
L 312.990993 622.518516 
z
" style="fill:#ffa500;"/>
   </g>
   <g id="patch_13">
    <path clip-path="url(#p3aa9afdd48)" d="M 323.846112 642.363 
L 332.530207 642.363 
L 332.530207 539.37697 
L 323.846112 539.37697 
z
" style="fill:#ffa500;"/>
   </g>
   <g id="patch_14">
    <path clip-path="url(#p3aa9afdd48)" d="M 334.701231 642.363 
L 343.385326 642.363 
L 343.385326 524.921289 
L 334.701231 524.921289 
z
" style="fill:#ffa500;"/>
   </g>
   <g id="patch_15">
    <path clip-path="url(#p3aa9afdd48)" d="M 345.55635 642.363 
L 354.240445 642.363 
L 354.240445 542.541823 
L 345.55635 542.541823 
z
" style="fill:#ffa500;"/>
   </g>
   <g id="patch_16">
    <path clip-path="url(#p3aa9afdd48)" d="M 356.411469 642.363 
L 365.095564 642.363 
L 365.095564 546.219895 
L 356.411469 546.219895 
z
" style="fill:#ffa500;"/>
   </g>
   <g id="patch_17">
    <path clip-path="url(#p3aa9afdd48)" d="M 367.266588 642.363 
L 375.950683 642.363 
L 375.950683 601.390983 
L 367.266588 601.390983 
z
" style="fill:#ffa500;"/>
   </g>
   <g id="patch_18">
    <path clip-path="url(#p3aa9afdd48)" d="M 378.121707 642.363 
L 386.805802 642.363 
L 386.805802 546.390968 
L 378.121707 546.390968 
z
" style="fill:#ffa500;"/>
   </g>
   <g id="patch_19">
    <path clip-path="url(#p3aa9afdd48)" d="M 388.976826 642.363 
L 397.660921 642.363 
L 397.660921 618.41276 
L 388.976826 618.41276 
z
" style="fill:#ffa500;"/>
   </g>
   <g id="patch_20">
    <path clip-path="url(#p3aa9afdd48)" d="M 399.831945 642.363 
L 408.51604 642.363 
L 408.51604 546.562042 
L 399.831945 546.562042 
z
" style="fill:#ffa500;"/>
   </g>
   <g id="patch_21">
    <path clip-path="url(#p3aa9afdd48)" d="M 410.687064 642.363 
L 419.371159 642.363 
L 419.371159 549.299212 
L 410.687064 549.299212 
z
" style="fill:#ffa500;"/>
   </g>
   <g id="patch_22">
    <path clip-path="url(#p3aa9afdd48)" d="M 421.542182 642.363 
L 430.226278 642.363 
L 430.226278 554.944625 
L 421.542182 554.944625 
z
" style="fill:#ffa500;"/>
   </g>
   <g id="patch_23">
    <path clip-path="url(#p3aa9afdd48)" d="M 432.397301 642.363 
L 441.081397 642.363 
L 441.081397 602.930641 
L 432.397301 602.930641 
z
" style="fill:#ffa500;"/>
   </g>
   <g id="patch_24">
    <path clip-path="url(#p3aa9afdd48)" d="M 443.25242 642.363 
L 451.936515 642.363 
L 451.936515 515.255657 
L 443.25242 515.255657 
z
" style="fill:#ffa500;"/>
   </g>
   <g id="patch_25">
    <path clip-path="url(#p3aa9afdd48)" d="M 454.107539 642.363 
L 462.791634 642.363 
L 462.791634 613.023956 
L 454.107539 613.023956 
z
" style="fill:#ffa500;"/>
   </g>
   <g id="patch_26">
    <path clip-path="url(#p3aa9afdd48)" d="M 464.962658 642.363 
L 473.646753 642.363 
L 473.646753 595.317886 
L 464.962658 595.317886 
z
" style="fill:#ffa500;"/>
   </g>
   <g id="patch_27">
    <path clip-path="url(#p3aa9afdd48)" d="M 475.817777 642.363 
L 484.501872 642.363 
L 484.501872 613.622712 
L 475.817777 613.622712 
z
" style="fill:#ffa500;"/>
   </g>
   <g id="patch_28">
    <path clip-path="url(#p3aa9afdd48)" d="M 486.672896 642.363 
L 495.356991 642.363 
L 495.356991 569.143696 
L 486.672896 569.143696 
z
" style="fill:#ffa500;"/>
   </g>
   <g id="patch_29">
    <path clip-path="url(#p3aa9afdd48)" d="M 497.528015 642.363 
L 506.21211 642.363 
L 506.21211 543.482725 
L 497.528015 543.482725 
z
" style="fill:#ffa500;"/>
   </g>
   <g id="patch_30">
    <path clip-path="url(#p3aa9afdd48)" d="M 508.383134 642.363 
L 517.067229 642.363 
L 517.067229 554.174796 
L 508.383134 554.174796 
z
" style="fill:#ffa500;"/>
   </g>
   <g id="patch_31">
    <path clip-path="url(#p3aa9afdd48)" d="M 519.238253 642.363 
L 527.922348 642.363 
L 527.922348 561.445405 
L 519.238253 561.445405 
z
" style="fill:#ffa500;"/>
   </g>
   <g id="patch_32">
    <path clip-path="url(#p3aa9afdd48)" d="M 530.093372 642.363 
L 538.777467 642.363 
L 538.777467 596.857545 
L 530.093372 596.857545 
z
" style="fill:#ffa500;"/>
   </g>
   <g id="patch_33">
    <path clip-path="url(#p3aa9afdd48)" d="M 540.94849 642.363 
L 549.632586 642.363 
L 549.632586 605.496738 
L 540.94849 605.496738 
z
" style="fill:#ffa500;"/>
   </g>
   <g id="patch_34">
    <path clip-path="url(#p3aa9afdd48)" d="M 551.803609 642.363 
L 560.487705 642.363 
L 560.487705 578.296109 
L 551.803609 578.296109 
z
" style="fill:#ffa500;"/>
   </g>
   <g id="patch_35">
    <path clip-path="url(#p3aa9afdd48)" d="M 562.658728 642.363 
L 571.342823 642.363 
L 571.342823 531.507605 
L 562.658728 531.507605 
z
" style="fill:#ffa500;"/>
   </g>
   <g id="patch_36">
    <path clip-path="url(#p3aa9afdd48)" d="M 584.368966 642.363 
L 593.053061 642.363 
L 593.053061 485.74554 
L 584.368966 485.74554 
z
" style="fill:#ffa500;"/>
   </g>
   <g id="patch_37">
    <path clip-path="url(#p3aa9afdd48)" d="M 595.224085 642.363 
L 603.90818 642.363 
L 603.90818 567.005282 
L 595.224085 567.005282 
z
" style="fill:#ffa500;"/>
   </g>
   <g id="patch_38">
    <path clip-path="url(#p3aa9afdd48)" d="M 606.079204 642.363 
L 614.763299 642.363 
L 614.763299 597.028618 
L 606.079204 597.028618 
z
" style="fill:#ffa500;"/>
   </g>
   <g id="patch_39">
    <path clip-path="url(#p3aa9afdd48)" d="M 616.934323 642.363 
L 625.618418 642.363 
L 625.618418 623.031735 
L 616.934323 623.031735 
z
" style="fill:#ffa500;"/>
   </g>
   <g id="patch_40">
    <path clip-path="url(#p3aa9afdd48)" d="M 627.789442 642.363 
L 636.473537 642.363 
L 636.473537 584.625815 
L 627.789442 584.625815 
z
" style="fill:#ffa500;"/>
   </g>
   <g id="patch_41">
    <path clip-path="url(#p3aa9afdd48)" d="M 638.644561 642.363 
L 647.328656 642.363 
L 647.328656 556.740893 
L 638.644561 556.740893 
z
" style="fill:#ffa500;"/>
   </g>
   <g id="patch_42">
    <path clip-path="url(#p3aa9afdd48)" d="M 649.49968 642.363 
L 658.183775 642.363 
L 658.183775 547.759553 
L 649.49968 547.759553 
z
" style="fill:#ffa500;"/>
   </g>
   <g id="patch_43">
    <path clip-path="url(#p3aa9afdd48)" d="M 660.354798 642.363 
L 669.038894 642.363 
L 669.038894 567.689574 
L 660.354798 567.689574 
z
" style="fill:#ffa500;"/>
   </g>
   <g id="patch_44">
    <path clip-path="url(#p3aa9afdd48)" d="M 671.209917 642.363 
L 679.894012 642.363 
L 679.894012 568.202794 
L 671.209917 568.202794 
z
" style="fill:#ffa500;"/>
   </g>
   <g id="patch_45">
    <path clip-path="url(#p3aa9afdd48)" d="M 682.065036 642.363 
L 690.749131 642.363 
L 690.749131 590.955521 
L 682.065036 590.955521 
z
" style="fill:#ffa500;"/>
   </g>
   <g id="patch_46">
    <path clip-path="url(#p3aa9afdd48)" d="M 692.920155 642.363 
L 701.60425 642.363 
L 701.60425 624.742467 
L 692.920155 624.742467 
z
" style="fill:#ffa500;"/>
   </g>
   <g id="patch_47">
    <path clip-path="url(#p3aa9afdd48)" d="M 703.775274 642.363 
L 712.459369 642.363 
L 712.459369 586.849766 
L 703.775274 586.849766 
z
" style="fill:#ffa500;"/>
   </g>
   <g id="patch_48">
    <path clip-path="url(#p3aa9afdd48)" d="M 714.630393 642.363 
L 723.314488 642.363 
L 723.314488 546.904188 
L 714.630393 546.904188 
z
" style="fill:#ffa500;"/>
   </g>
   <g id="patch_49">
    <path clip-path="url(#p3aa9afdd48)" d="M 725.485512 642.363 
L 734.169607 642.363 
L 734.169607 569.485842 
L 725.485512 569.485842 
z
" style="fill:#ffa500;"/>
   </g>
   <g id="patch_50">
    <path clip-path="url(#p3aa9afdd48)" d="M 736.340631 642.363 
L 745.024726 642.363 
L 745.024726 552.036382 
L 736.340631 552.036382 
z
" style="fill:#ffa500;"/>
   </g>
   <g id="patch_51">
    <path clip-path="url(#p3aa9afdd48)" d="M 747.19575 642.363 
L 755.879845 642.363 
L 755.879845 582.829547 
L 747.19575 582.829547 
z
" style="fill:#ffa500;"/>
   </g>
   <g id="patch_52">
    <path clip-path="url(#p3aa9afdd48)" d="M 758.050869 642.363 
L 766.734964 642.363 
L 766.734964 600.621154 
L 758.050869 600.621154 
z
" style="fill:#ffa500;"/>
   </g>
   <g id="patch_53">
    <path clip-path="url(#p3aa9afdd48)" d="M 768.905988 642.363 
L 777.590083 642.363 
L 777.590083 606.523177 
L 768.905988 606.523177 
z
" style="fill:#ffa500;"/>
   </g>
   <g id="patch_54">
    <path clip-path="url(#p3aa9afdd48)" d="M 779.761106 642.363 
L 788.445202 642.363 
L 788.445202 585.652254 
L 779.761106 585.652254 
z
" style="fill:#ffa500;"/>
   </g>
   <g id="patch_55">
    <path clip-path="url(#p3aa9afdd48)" d="M 790.616225 642.363 
L 799.30032 642.363 
L 799.30032 564.952404 
L 790.616225 564.952404 
z
" style="fill:#ffa500;"/>
   </g>
   <g id="patch_56">
    <path clip-path="url(#p3aa9afdd48)" d="M 801.471344 642.363 
L 810.155439 642.363 
L 810.155439 544.680237 
L 801.471344 544.680237 
z
" style="fill:#ffa500;"/>
   </g>
   <g id="patch_57">
    <path clip-path="url(#p3aa9afdd48)" d="M 812.326463 642.363 
L 821.010558 642.363 
L 821.010558 579.493621 
L 812.326463 579.493621 
z
" style="fill:#ffa500;"/>
   </g>
   <g id="patch_58">
    <path clip-path="url(#p3aa9afdd48)" d="M 823.181582 642.363 
L 831.865677 642.363 
L 831.865677 578.210572 
L 823.181582 578.210572 
z
" style="fill:#ffa500;"/>
   </g>
   <g id="patch_59">
    <path clip-path="url(#p3aa9afdd48)" d="M 844.89182 642.363 
L 853.575915 642.363 
L 853.575915 562.985063 
L 844.89182 562.985063 
z
" style="fill:#ffa500;"/>
   </g>
   <g id="patch_60">
    <path clip-path="url(#p3aa9afdd48)" d="M 855.746939 642.363 
L 864.431034 642.363 
L 864.431034 592.922862 
L 855.746939 592.922862 
z
" style="fill:#ffa500;"/>
   </g>
   <g id="patch_61">
    <path clip-path="url(#p3aa9afdd48)" d="M 866.602058 642.363 
L 875.286153 642.363 
L 875.286153 560.932185 
L 866.602058 560.932185 
z
" style="fill:#ffa500;"/>
   </g>
   <g id="patch_62">
    <path clip-path="url(#p3aa9afdd48)" d="M 877.457177 642.363 
L 886.141272 642.363 
L 886.141272 610.20125 
L 877.457177 610.20125 
z
" style="fill:#ffa500;"/>
   </g>
   <g id="patch_63">
    <path clip-path="url(#p3aa9afdd48)" d="M 888.312295 642.363 
L 896.996391 642.363 
L 896.996391 524.065924 
L 888.312295 524.065924 
z
" style="fill:#ffa500;"/>
   </g>
   <g id="patch_64">
    <path clip-path="url(#p3aa9afdd48)" d="M 899.167414 642.363 
L 907.85151 642.363 
L 907.85151 567.946184 
L 899.167414 567.946184 
z
" style="fill:#ffa500;"/>
   </g>
   <g id="patch_65">
    <path clip-path="url(#p3aa9afdd48)" d="M 910.022533 642.363 
L 918.706628 642.363 
L 918.706628 608.233909 
L 910.022533 608.233909 
z
" style="fill:#ffa500;"/>
   </g>
   <g id="patch_66">
    <path clip-path="url(#p3aa9afdd48)" d="M 920.877652 642.363 
L 929.561747 642.363 
L 929.561747 604.470299 
L 920.877652 604.470299 
z
" style="fill:#ffa500;"/>
   </g>
   <g id="patch_67">
    <path clip-path="url(#p3aa9afdd48)" d="M 931.732771 642.363 
L 940.416866 642.363 
L 940.416866 579.835767 
L 931.732771 579.835767 
z
" style="fill:#ffa500;"/>
   </g>
   <g id="patch_68">
    <path clip-path="url(#p3aa9afdd48)" d="M 942.58789 642.363 
L 951.271985 642.363 
L 951.271985 558.023942 
L 942.58789 558.023942 
z
" style="fill:#ffa500;"/>
   </g>
   <g id="patch_69">
    <path clip-path="url(#p3aa9afdd48)" d="M 953.443009 642.363 
L 962.127104 642.363 
L 962.127104 538.008384 
L 953.443009 538.008384 
z
" style="fill:#ffa500;"/>
   </g>
   <g id="patch_70">
    <path clip-path="url(#p3aa9afdd48)" d="M 964.298128 642.363 
L 972.982223 642.363 
L 972.982223 561.359868 
L 964.298128 561.359868 
z
" style="fill:#ffa500;"/>
   </g>
   <g id="patch_71">
    <path clip-path="url(#p3aa9afdd48)" d="M 975.153247 642.363 
L 983.837342 642.363 
L 983.837342 545.36453 
L 975.153247 545.36453 
z
" style="fill:#ffa500;"/>
   </g>
   <g id="patch_72">
    <path clip-path="url(#p3aa9afdd48)" d="M 986.008366 642.363 
L 994.692461 642.363 
L 994.692461 600.535617 
L 986.008366 600.535617 
z
" style="fill:#ffa500;"/>
   </g>
   <g id="patch_73">
    <path clip-path="url(#p3aa9afdd48)" d="M 996.863485 642.363 
L 1005.54758 642.363 
L 1005.54758 608.576055 
L 996.863485 608.576055 
z
" style="fill:#ffa500;"/>
   </g>
   <g id="patch_74">
    <path clip-path="url(#p3aa9afdd48)" d="M 1007.718603 642.363 
L 1016.402699 642.363 
L 1016.402699 553.148357 
L 1007.718603 553.148357 
z
" style="fill:#ffa500;"/>
   </g>
   <g id="patch_75">
    <path clip-path="url(#p3aa9afdd48)" d="M 1018.573722 642.363 
L 1027.257818 642.363 
L 1027.257818 563.498282 
L 1018.573722 563.498282 
z
" style="fill:#ffa500;"/>
   </g>
   <g id="patch_76">
    <path clip-path="url(#p3aa9afdd48)" d="M 1029.428841 642.363 
L 1038.112936 642.363 
L 1038.112936 551.865309 
L 1029.428841 551.865309 
z
" style="fill:#ffa500;"/>
   </g>
   <g id="patch_77">
    <path clip-path="url(#p3aa9afdd48)" d="M 1040.28396 642.363 
L 1048.968055 642.363 
L 1048.968055 561.017722 
L 1040.28396 561.017722 
z
" style="fill:#ffa500;"/>
   </g>
   <g id="patch_78">
    <path clip-path="url(#p3aa9afdd48)" d="M 1051.139079 642.363 
L 1059.823174 642.363 
L 1059.823174 552.207455 
L 1051.139079 552.207455 
z
" style="fill:#ffa500;"/>
   </g>
   <g id="patch_79">
    <path clip-path="url(#p3aa9afdd48)" d="M 1061.994198 642.363 
L 1070.678293 642.363 
L 1070.678293 603.529397 
L 1061.994198 603.529397 
z
" style="fill:#ffa500;"/>
   </g>
   <g id="patch_80">
    <path clip-path="url(#p3aa9afdd48)" d="M 1072.849317 642.363 
L 1081.533412 642.363 
L 1081.533412 602.759568 
L 1072.849317 602.759568 
z
" style="fill:#ffa500;"/>
   </g>
   <g id="patch_81">
    <path clip-path="url(#p3aa9afdd48)" d="M 1083.704436 642.363 
L 1092.388531 642.363 
L 1092.388531 565.893306 
L 1083.704436 565.893306 
z
" style="fill:#ffa500;"/>
   </g>
   <g id="patch_82">
    <path clip-path="url(#p3aa9afdd48)" d="M 1094.559555 642.363 
L 1103.24365 642.363 
L 1103.24365 502.938391 
L 1094.559555 502.938391 
z
" style="fill:#ffa500;"/>
   </g>
   <g id="patch_83">
    <path clip-path="url(#p3aa9afdd48)" d="M 1105.414674 642.363 
L 1114.098769 642.363 
L 1114.098769 536.639799 
L 1105.414674 536.639799 
z
" style="fill:#ffa500;"/>
   </g>
   <g id="patch_84">
    <path clip-path="url(#p3aa9afdd48)" d="M 1116.269793 642.363 
L 1124.953888 642.363 
L 1124.953888 534.159239 
L 1116.269793 534.159239 
z
" style="fill:#ffa500;"/>
   </g>
   <g id="patch_85">
    <path clip-path="url(#p3aa9afdd48)" d="M 1127.124911 642.363 
L 1135.809007 642.363 
L 1135.809007 539.462506 
L 1127.124911 539.462506 
z
" style="fill:#ffa500;"/>
   </g>
   <g id="patch_86">
    <path clip-path="url(#p3aa9afdd48)" d="M 1137.98003 642.363 
L 1146.664125 642.363 
L 1146.664125 590.784448 
L 1137.98003 590.784448 
z
" style="fill:#ffa500;"/>
   </g>
   <g id="patch_87">
    <path clip-path="url(#p3aa9afdd48)" d="M 1148.835149 642.363 
L 1157.519244 642.363 
L 1157.519244 600.535617 
L 1148.835149 600.535617 
z
" style="fill:#ffa500;"/>
   </g>
   <g id="patch_88">
    <path clip-path="url(#p3aa9afdd48)" d="M 1159.690268 642.363 
L 1168.374363 642.363 
L 1168.374363 528.000606 
L 1159.690268 528.000606 
z
" style="fill:#ffa500;"/>
   </g>
   <g id="patch_89">
    <path clip-path="url(#p3aa9afdd48)" d="M 1170.545387 642.363 
L 1179.229482 642.363 
L 1179.229482 513.031706 
L 1170.545387 513.031706 
z
" style="fill:#ffa500;"/>
   </g>
   <g id="patch_90">
    <path clip-path="url(#p3aa9afdd48)" d="M 1181.400506 642.363 
L 1190.084601 642.363 
L 1190.084601 539.890189 
L 1181.400506 539.890189 
z
" style="fill:#ffa500;"/>
   </g>
   <g id="patch_91">
    <path clip-path="url(#p3aa9afdd48)" d="M 1192.255625 642.363 
L 1200.93972 642.363 
L 1200.93972 528.855971 
L 1192.255625 528.855971 
z
" style="fill:#ffa500;"/>
   </g>
   <g id="patch_92">
    <path clip-path="url(#p3aa9afdd48)" d="M 1203.110744 642.363 
L 1211.794839 642.363 
L 1211.794839 514.656901 
L 1203.110744 514.656901 
z
" style="fill:#ffa500;"/>
   </g>
   <g id="patch_93">
    <path clip-path="url(#p3aa9afdd48)" d="M 1213.965863 642.363 
L 1222.649958 642.363 
L 1222.649958 581.204352 
L 1213.965863 581.204352 
z
" style="fill:#ffa500;"/>
   </g>
   <g id="patch_94">
    <path clip-path="url(#p3aa9afdd48)" d="M 1224.820982 642.363 
L 1233.505077 642.363 
L 1233.505077 590.100156 
L 1224.820982 590.100156 
z
" style="fill:#ffa500;"/>
   </g>
   <g id="patch_95">
    <path clip-path="url(#p3aa9afdd48)" d="M 1235.676101 642.363 
L 1244.360196 642.363 
L 1244.360196 522.098582 
L 1235.676101 522.098582 
z
" style="fill:#ffa500;"/>
   </g>
   <g id="patch_96">
    <path clip-path="url(#p3aa9afdd48)" d="M 1246.531219 642.363 
L 1255.215315 642.363 
L 1255.215315 479.501371 
L 1246.531219 479.501371 
z
" style="fill:#ffa500;"/>
   </g>
   <g id="patch_97">
    <path clip-path="url(#p3aa9afdd48)" d="M 1257.386338 642.363 
L 1266.070433 642.363 
L 1266.070433 475.053469 
L 1257.386338 475.053469 
z
" style="fill:#ffa500;"/>
   </g>
   <g id="patch_98">
    <path clip-path="url(#p3aa9afdd48)" d="M 1268.241457 642.363 
L 1276.925552 642.363 
L 1276.925552 457.518472 
L 1268.241457 457.518472 
z
" style="fill:#ffa500;"/>
   </g>
   <g id="patch_99">
    <path clip-path="url(#p3aa9afdd48)" d="M 1279.096576 642.363 
L 1287.780671 642.363 
L 1287.780671 487.285198 
L 1279.096576 487.285198 
z
" style="fill:#ffa500;"/>
   </g>
   <g id="patch_100">
    <path clip-path="url(#p3aa9afdd48)" d="M 1289.951695 642.363 
L 1298.63579 642.363 
L 1298.63579 559.649137 
L 1289.951695 559.649137 
z
" style="fill:#ffa500;"/>
   </g>
   <g id="patch_101">
    <path clip-path="url(#p3aa9afdd48)" d="M 1300.806814 642.363 
L 1309.490909 642.363 
L 1309.490909 577.01306 
L 1300.806814 577.01306 
z
" style="fill:#ffa500;"/>
   </g>
   <g id="matplotlib.axis_1">
    <g id="xtick_1">
     <g id="line2d_1">
      <defs>
       <path d="M 0 0 
L 0 3.5 
" id="m1c148a022f" style="stroke:#000000;stroke-width:0.8;"/>
      </defs>
      <g>
       <use style="stroke:#000000;stroke-width:0.8;" x="404.173992" xlink:href="#m1c148a022f" y="642.363"/>
      </g>
     </g>
     <g id="text_1">
      <!--  -->
      <g transform="translate(404.173992 664.078625)scale(0.2 -0.2)"/>
      <!--  -->
      <g transform="translate(404.173992 686.48425)scale(0.2 -0.2)"/>
      <!--  -->
      <g transform="translate(404.173992 708.889875)scale(0.2 -0.2)"/>
      <!-- Sep -->
      <g transform="translate(388.689617 731.2955)scale(0.2 -0.2)">
       <defs>
        <path d="M 37.109375 63.921875 
Q 31.984375 65.625 27.6875 65.625 
Q 21.234375 65.625 17.40625 62.5 
Q 13.578125 59.375 13.578125 53.8125 
Q 13.578125 50.640625 14.921875 48.234375 
Q 16.265625 45.84375 18.53125 44.03125 
Q 20.796875 42.234375 23.671875 40.8125 
Q 26.5625 39.40625 29.640625 38.03125 
Q 33.015625 36.578125 36.1875 34.9375 
Q 39.359375 33.296875 41.921875 31.09375 
Q 44.484375 28.90625 46.015625 25.828125 
Q 47.5625 22.75 47.5625 18.65625 
Q 47.5625 8.9375 40.75 3.8125 
Q 33.9375 -1.3125 21.875 -1.3125 
Q 14.109375 -1.3125 4.6875 1.3125 
L 4.390625 1.703125 
L 6.78125 18.3125 
L 8.984375 18.65625 
L 12.40625 4.78125 
Q 17.578125 2.734375 23 2.734375 
Q 30.28125 2.734375 34.34375 5.953125 
Q 38.421875 9.1875 38.421875 15.140625 
Q 38.421875 18.265625 37.109375 20.625 
Q 35.796875 23 33.5625 24.703125 
Q 31.34375 26.421875 28.515625 27.8125 
Q 25.6875 29.203125 22.65625 30.5625 
Q 19.234375 32.03125 16.015625 33.734375 
Q 12.796875 35.453125 10.171875 37.71875 
Q 7.5625 39.984375 6 43.28125 
Q 4.4375 46.578125 4.4375 50.984375 
Q 4.4375 59.8125 11.046875 64.640625 
Q 17.671875 69.484375 28.609375 69.484375 
Q 36.328125 69.484375 44.78125 67.671875 
L 45.125 67.328125 
L 42.234375 52.09375 
L 40.28125 51.765625 
z
" id="Constantia-83"/>
        <path d="M 44.046875 3.46875 
Q 39.890625 0.875 35.5 -0.25 
Q 31.109375 -1.375 27.34375 -1.375 
Q 16.609375 -1.375 10.203125 4.75 
Q 3.8125 10.890625 3.8125 21.78125 
Q 3.8125 32.625 9.9375 39.5 
Q 16.0625 46.390625 26.3125 46.390625 
Q 34.90625 46.390625 39.6875 41.234375 
Q 44.484375 36.078125 44.484375 27 
Q 44.484375 25.640625 44.34375 24.21875 
L 13.375 24.21875 
Q 13.375 13.71875 18.3125 9.203125 
Q 23.25 4.6875 33.734375 4.6875 
Q 38.421875 4.6875 43.75 5.5625 
z
M 34.765625 28.265625 
L 34.765625 29.734375 
Q 34.765625 36.671875 32.546875 39.640625 
Q 30.328125 42.625 25.921875 42.625 
Q 20.125 42.625 17.046875 38.421875 
Q 13.96875 34.234375 13.578125 28.265625 
z
" id="Constantia-101"/>
        <path d="M 2.09375 41.3125 
L 1.859375 42.96875 
Q 10.0625 44.53125 17.328125 46.390625 
L 17.828125 46.046875 
L 17.828125 41.265625 
Q 25.296875 46.390625 32.28125 46.390625 
Q 41.359375 46.390625 46.703125 40.3125 
Q 52.046875 34.234375 52.046875 24.515625 
Q 52.046875 12.546875 45.15625 5.578125 
Q 38.28125 -1.375 25.640625 -1.375 
Q 21.875 -1.375 17.828125 -0.640625 
L 17.828125 -11.328125 
Q 17.828125 -16.21875 17.921875 -18.171875 
Q 18.015625 -19.625 19.234375 -19.921875 
L 25.640625 -21.734375 
L 25.78125 -23.734375 
Q 18.171875 -23.578125 13.375 -23.578125 
Q 8.59375 -23.578125 2.046875 -23.734375 
L 1.859375 -21.734375 
L 7.46875 -20.0625 
Q 8.640625 -19.734375 8.6875 -18.5625 
Q 8.796875 -14.984375 8.796875 -7.765625 
L 8.796875 12.109375 
Q 8.796875 33.734375 8.59375 39.453125 
z
M 17.828125 3.765625 
Q 22.078125 2.828125 26.03125 2.828125 
Q 34.125 2.828125 38.21875 7.90625 
Q 42.328125 12.984375 42.328125 22.46875 
Q 42.328125 31.390625 38.421875 35.9375 
Q 34.515625 40.484375 27.203125 40.484375 
Q 21.921875 40.484375 17.828125 38.328125 
z
" id="Constantia-112"/>
       </defs>
       <use xlink:href="#Constantia-83"/>
       <use x="50.976562" xlink:href="#Constantia-101"/>
       <use x="98.876953" xlink:href="#Constantia-112"/>
      </g>
      <!-- 2020 -->
      <g transform="translate(383.714617 753.701125)scale(0.2 -0.2)">
       <defs>
        <path d="M 42.390625 15.484375 
L 44.53125 15.875 
L 43.5625 0.203125 
L 43.21875 -0.140625 
Q 33.25 0 22.359375 0 
Q 12.25 0 3.765625 -0.140625 
L 3.421875 3.859375 
Q 8.015625 6.84375 11.671875 9.375 
Q 15.328125 11.921875 18.015625 14.109375 
Q 20.703125 16.265625 22.75 18.21875 
Q 24.8125 20.171875 26.203125 22.09375 
Q 27.59375 24.03125 28.3125 26.03125 
Q 29.046875 28.03125 29.046875 30.21875 
Q 29.046875 34.71875 25.78125 37.34375 
Q 22.515625 39.984375 17.78125 39.984375 
Q 12.203125 39.984375 6.546875 36.96875 
L 4.6875 40.1875 
Q 13.8125 46.390625 23 46.390625 
Q 29.890625 46.390625 34.453125 43.046875 
Q 39.015625 39.703125 39.015625 33.734375 
Q 39.015625 30.03125 37.34375 26.828125 
Q 35.6875 23.640625 32.515625 20.5625 
Q 29.34375 17.484375 24.75 14.328125 
Q 20.171875 11.1875 14.265625 7.671875 
L 14.3125 7.421875 
L 38.578125 7.421875 
z
" id="Constantia-50"/>
        <path d="M 13.671875 23.296875 
Q 13.671875 13.625 17.15625 8.109375 
Q 20.65625 2.59375 27.203125 2.59375 
Q 33.84375 2.59375 37.015625 7.515625 
Q 40.1875 12.453125 40.1875 22.609375 
Q 40.1875 32.5625 36.71875 37.609375 
Q 33.25 42.671875 26.65625 42.671875 
Q 19.921875 42.671875 16.796875 37.84375 
Q 13.671875 33.015625 13.671875 23.296875 
z
M 49.953125 23.6875 
Q 49.953125 12.25 43.4375 5.484375 
Q 36.921875 -1.265625 26.421875 -1.265625 
Q 16.3125 -1.265625 10.109375 4.9375 
Q 3.90625 11.140625 3.90625 22.015625 
Q 3.90625 33.203125 10.390625 39.796875 
Q 16.890625 46.390625 27.484375 46.390625 
Q 37.796875 46.390625 43.875 40.375 
Q 49.953125 34.375 49.953125 23.6875 
z
" id="Constantia-48"/>
       </defs>
       <use xlink:href="#Constantia-50"/>
       <use x="48.4375" xlink:href="#Constantia-48"/>
       <use x="102.294922" xlink:href="#Constantia-50"/>
       <use x="150.732422" xlink:href="#Constantia-48"/>
      </g>
     </g>
    </g>
    <g id="xtick_2">
     <g id="line2d_2">
      <g>
       <use style="stroke:#000000;stroke-width:0.8;" x="729.827559" xlink:href="#m1c148a022f" y="642.363"/>
      </g>
     </g>
     <g id="text_2">
      <!--  -->
      <g transform="translate(729.827559 664.078625)scale(0.2 -0.2)"/>
      <!--  -->
      <g transform="translate(729.827559 686.48425)scale(0.2 -0.2)"/>
      <!--  -->
      <g transform="translate(729.827559 708.889875)scale(0.2 -0.2)"/>
      <!-- Oct -->
      <g transform="translate(713.641622 731.2955)scale(0.2 -0.2)">
       <defs>
        <path d="M 15.578125 35.015625 
Q 15.578125 19.09375 22.015625 10.625 
Q 28.46875 2.15625 40.921875 2.15625 
Q 53.171875 2.15625 59 9.84375 
Q 64.84375 17.53125 64.84375 33.984375 
Q 64.84375 49.421875 58.640625 57.71875 
Q 52.4375 66.015625 39.5 66.015625 
Q 26.953125 66.015625 21.265625 58.328125 
Q 15.578125 50.640625 15.578125 35.015625 
z
M 75.59375 35.640625 
Q 75.59375 18.75 65.984375 8.46875 
Q 56.390625 -1.8125 39.15625 -1.8125 
Q 22.796875 -1.8125 13.84375 7.6875 
Q 4.890625 17.1875 4.890625 33.40625 
Q 4.890625 50.296875 14.53125 60.125 
Q 24.171875 69.96875 41.265625 69.96875 
Q 57.671875 69.96875 66.625 60.765625 
Q 75.59375 51.5625 75.59375 35.640625 
z
" id="Constantia-79"/>
        <path d="M 42.96875 3.46875 
Q 39.9375 1.421875 35.46875 0.015625 
Q 31 -1.375 26.609375 -1.375 
Q 16.0625 -1.375 9.90625 4.796875 
Q 3.765625 10.984375 3.765625 21.296875 
Q 3.765625 32.46875 10.734375 39.421875 
Q 17.71875 46.390625 28.8125 46.390625 
Q 35.984375 46.390625 42.71875 43.453125 
Q 41.109375 36.921875 39.84375 30.078125 
L 37.9375 29.78125 
L 33.984375 41.5 
Q 31.734375 42.28125 28.90625 42.28125 
Q 21.625 42.28125 17.515625 37.203125 
Q 13.421875 32.125 13.421875 23.78125 
Q 13.421875 13.96875 18.0625 9.28125 
Q 22.703125 4.59375 32.765625 4.59375 
Q 37.40625 4.59375 42.671875 5.515625 
z
" id="Constantia-99"/>
        <path d="M 17.484375 39.9375 
Q 17.1875 23.4375 17.1875 13.328125 
Q 17.1875 8.25 18.703125 6.3125 
Q 20.21875 4.390625 24.46875 4.390625 
Q 27.828125 4.390625 33.25 5.28125 
L 33.546875 3.078125 
Q 25.09375 -1.171875 18.453125 -1.171875 
Q 13.140625 -1.171875 10.546875 1.6875 
Q 7.953125 4.546875 7.953125 10.296875 
Q 7.953125 19.78125 8.296875 40.234375 
L 1.5625 41.890625 
L 1.265625 43.890625 
L 8.796875 44.53125 
L 12.15625 56.34375 
Q 14.890625 57.078125 17.140625 57.765625 
L 17.625 57.421875 
Q 17.484375 51.515625 17.484375 46.390625 
L 17.484375 44.578125 
L 32.171875 44.578125 
L 32.171875 39.9375 
z
" id="Constantia-116"/>
       </defs>
       <use xlink:href="#Constantia-79"/>
       <use x="80.419922" xlink:href="#Constantia-99"/>
       <use x="126.5625" xlink:href="#Constantia-116"/>
      </g>
      <!-- 2020 -->
      <g transform="translate(709.368184 753.701125)scale(0.2 -0.2)">
       <use xlink:href="#Constantia-50"/>
       <use x="48.4375" xlink:href="#Constantia-48"/>
       <use x="102.294922" xlink:href="#Constantia-50"/>
       <use x="150.732422" xlink:href="#Constantia-48"/>
      </g>
     </g>
    </g>
    <g id="xtick_3">
     <g id="line2d_3">
      <g>
       <use style="stroke:#000000;stroke-width:0.8;" x="1066.336246" xlink:href="#m1c148a022f" y="642.363"/>
      </g>
     </g>
     <g id="text_3">
      <!--  -->
      <g transform="translate(1066.336246 664.078625)scale(0.2 -0.2)"/>
      <!--  -->
      <g transform="translate(1066.336246 686.48425)scale(0.2 -0.2)"/>
      <!--  -->
      <g transform="translate(1066.336246 708.889875)scale(0.2 -0.2)"/>
      <!-- Nov -->
      <g transform="translate(1048.761246 731.2955)scale(0.2 -0.2)">
       <defs>
        <path d="M 16.65625 54.4375 
L 16.65625 14.984375 
Q 16.65625 9.234375 16.75 5.421875 
Q 16.796875 4.046875 17.96875 3.765625 
L 23.78125 2.046875 
L 23.875 -0.140625 
Q 17.78125 0 13.875 0 
Q 10.0625 0 3.765625 -0.140625 
L 3.5625 1.953125 
L 9.578125 3.765625 
Q 10.84375 4.15625 10.890625 5.28125 
Q 10.984375 9.234375 10.984375 14.984375 
L 10.984375 54.59375 
Q 10.984375 59.46875 10.890625 62.703125 
Q 10.84375 63.96875 9.71875 64.359375 
L 3.65625 66.265625 
L 3.5625 68.359375 
Q 9.859375 68.171875 13.53125 68.171875 
Q 15.71875 68.171875 17.96875 68.359375 
L 58.984375 17.140625 
L 58.984375 54.78125 
Q 58.984375 59.515625 58.890625 62.9375 
Q 58.84375 64.0625 57.625 64.453125 
L 51.859375 66.109375 
L 51.765625 68.359375 
Q 58.015625 68.171875 61.859375 68.171875 
Q 65.765625 68.171875 71.875 68.359375 
L 72.078125 66.265625 
L 65.921875 64.359375 
Q 64.796875 63.96875 64.75 62.703125 
Q 64.65625 59.46875 64.65625 54.59375 
L 64.65625 0 
L 60.546875 -0.390625 
z
" id="Constantia-78"/>
        <path d="M 13.71875 23.046875 
Q 13.71875 13.921875 17.140625 8.171875 
Q 20.5625 2.4375 27.296875 2.4375 
Q 33.59375 2.4375 36.890625 7.484375 
Q 40.1875 12.546875 40.1875 22.46875 
Q 40.1875 31.78125 36.71875 37.15625 
Q 33.25 42.53125 26.65625 42.53125 
Q 20.40625 42.53125 17.0625 37.6875 
Q 13.71875 32.859375 13.71875 23.046875 
z
M 50.140625 23.484375 
Q 50.140625 12.359375 43.421875 5.484375 
Q 36.71875 -1.375 26.375 -1.375 
Q 16.265625 -1.375 10.03125 5.09375 
Q 3.8125 11.578125 3.8125 22.015625 
Q 3.8125 32.765625 10.328125 39.578125 
Q 16.84375 46.390625 27.59375 46.390625 
Q 37.75 46.390625 43.9375 40.109375 
Q 50.140625 33.84375 50.140625 23.484375 
z
" id="Constantia-111"/>
        <path d="M -1.515625 45.265625 
Q 4.640625 45.125 9.421875 45.125 
Q 13.8125 45.125 19.96875 45.265625 
L 20.171875 43.265625 
L 14.5 41.703125 
Q 18.5 30.328125 23.78125 17.53125 
Q 25.140625 14.15625 26.21875 11.078125 
Q 27.296875 14.15625 28.71875 17.484375 
Q 33.15625 28.421875 38.03125 41.703125 
L 32.46875 43.265625 
L 32.28125 45.265625 
Q 36.234375 45.125 40.53125 45.125 
Q 44.921875 45.125 49.03125 45.265625 
L 49.21875 43.265625 
L 44.34375 41.84375 
Q 43.21875 41.453125 42.4375 39.9375 
Q 38.578125 31 33.46875 18.671875 
Q 28.375 6.34375 25.78125 -0.34375 
L 21.625 -0.78125 
Q 18.953125 6.296875 13.890625 18.59375 
Q 8.84375 30.90625 5.21875 39.703125 
Q 4.4375 41.40625 3.078125 41.890625 
L -1.421875 43.265625 
z
" id="Constantia-118"/>
       </defs>
       <use xlink:href="#Constantia-78"/>
       <use x="73.402344" xlink:href="#Constantia-111"/>
       <use x="127.455078" xlink:href="#Constantia-118"/>
      </g>
      <!-- 2020 -->
      <g transform="translate(1045.876871 753.701125)scale(0.2 -0.2)">
       <use xlink:href="#Constantia-50"/>
       <use x="48.4375" xlink:href="#Constantia-48"/>
       <use x="102.294922" xlink:href="#Constantia-50"/>
       <use x="150.732422" xlink:href="#Constantia-48"/>
      </g>
     </g>
    </g>
    <g id="xtick_4">
     <g id="line2d_4">
      <path clip-path="url(#p3aa9afdd48)" d="M 154.506257 642.363 
L 154.506257 55.163 
" style="fill:none;stroke:#b0b0b0;stroke-linecap:square;stroke-width:0.8;"/>
     </g>
     <g id="line2d_5">
      <defs>
       <path d="M 0 0 
L 0 2 
" id="me8a64aab19" style="stroke:#000000;stroke-width:0.6;"/>
      </defs>
      <g>
       <use style="stroke:#000000;stroke-width:0.6;" x="154.506257" xlink:href="#me8a64aab19" y="642.363"/>
      </g>
     </g>
     <g id="text_4">
      <!-- 09 -->
      <g transform="translate(144.741257 661.007062)scale(0.18 -0.18)">
       <defs>
        <path d="M 8.640625 -19 
Q 20.90625 -16.796875 28.984375 -9.671875 
Q 37.0625 -2.546875 40.375 10.109375 
L 40.28125 10.15625 
Q 34.578125 3.65625 25.4375 3.65625 
Q 16.3125 3.65625 10.234375 9.484375 
Q 4.15625 15.328125 4.15625 24.3125 
Q 4.15625 33.6875 10.796875 40.03125 
Q 17.4375 46.390625 27.046875 46.390625 
Q 37.546875 46.390625 44.265625 38.75 
Q 50.984375 31.109375 50.984375 19.1875 
Q 50.984375 2.828125 39.578125 -8.59375 
Q 28.171875 -20.015625 9.328125 -22.46875 
z
M 14.0625 27.25 
Q 14.0625 18.5625 18.015625 13.28125 
Q 21.96875 8.015625 28.125 8.015625 
Q 34.234375 8.015625 37.453125 11.9375 
Q 40.671875 15.875 40.671875 22.90625 
Q 40.671875 31.453125 36.421875 37.15625 
Q 32.171875 42.875 26.21875 42.875 
Q 20.953125 42.875 17.5 38.640625 
Q 14.0625 34.421875 14.0625 27.25 
z
" id="Constantia-57"/>
       </defs>
       <use xlink:href="#Constantia-48"/>
       <use x="53.857422" xlink:href="#Constantia-57"/>
      </g>
      <!-- Sun -->
      <g transform="translate(139.555007 681.172125)scale(0.18 -0.18)">
       <defs>
        <path d="M 38.875 4.296875 
Q 31.25 -1.375 23.640625 -1.375 
Q 15.96875 -1.375 12.125 2.53125 
Q 8.296875 6.453125 8.296875 13.53125 
L 8.296875 23.875 
Q 8.296875 34.328125 8.109375 39.546875 
L 1.609375 41.3125 
L 1.375 42.96875 
Q 9.90625 44.53125 17.1875 46.390625 
L 17.625 46.046875 
Q 17.328125 40.328125 17.328125 31.34375 
L 17.328125 15.828125 
Q 17.328125 9.90625 20.109375 7.25 
Q 22.90625 4.59375 27.984375 4.59375 
Q 33.0625 4.59375 38.375 7.28125 
L 38.375 28.078125 
Q 38.375 34.90625 38.1875 39.546875 
L 31.734375 41.3125 
L 31.5 42.96875 
Q 39.984375 44.53125 47.265625 46.390625 
L 47.703125 46.046875 
Q 47.40625 40.1875 47.40625 31.0625 
Q 47.40625 13.328125 47.515625 9.421875 
Q 47.5625 7.421875 47.796875 6.203125 
Q 48.046875 4.984375 48.734375 4.3125 
Q 49.421875 3.65625 50.75 3.390625 
Q 52.09375 3.125 54.34375 3.078125 
L 54.59375 1.171875 
Q 52.34375 0.296875 49.40625 -0.5 
Q 46.484375 -1.3125 45.40625 -1.3125 
Q 40.484375 -1.3125 38.875 4.296875 
z
" id="Constantia-117"/>
        <path d="M 2.828125 42.96875 
Q 11.03125 44.53125 18.3125 46.390625 
L 18.796875 46.046875 
L 18.796875 40.375 
Q 27.296875 46.390625 34.625 46.390625 
Q 41.546875 46.390625 45.484375 42.5 
Q 49.421875 38.625 49.421875 31.5 
L 49.421875 14.265625 
Q 49.421875 8.15625 49.515625 5.21875 
Q 49.5625 3.90625 50.78125 3.515625 
L 56.203125 1.859375 
L 56.296875 -0.140625 
Q 49.859375 0 45.0625 0 
Q 40.28125 0 34.421875 -0.140625 
L 34.234375 1.859375 
L 39.109375 3.265625 
Q 40.234375 3.65625 40.328125 4.78125 
Q 40.375 5.46875 40.375 7.859375 
L 40.375 29.15625 
Q 40.375 35.15625 37.5 37.765625 
Q 34.625 40.375 29 40.375 
Q 24.078125 40.375 18.796875 37.546875 
L 18.796875 16.21875 
Q 18.796875 10.109375 18.890625 5.03125 
Q 18.953125 3.71875 20.015625 3.375 
L 25.09375 1.859375 
L 25.203125 -0.140625 
Q 19.140625 0 14.359375 0 
Q 9.578125 0 3.03125 -0.140625 
L 2.828125 1.859375 
L 8.59375 3.515625 
Q 9.671875 3.953125 9.71875 5.03125 
Q 9.765625 8.15625 9.765625 11.03125 
L 9.765625 27.6875 
Q 9.765625 34.078125 9.578125 39.546875 
L 3.078125 41.3125 
z
" id="Constantia-110"/>
       </defs>
       <use xlink:href="#Constantia-83"/>
       <use x="50.976562" xlink:href="#Constantia-117"/>
       <use x="107.910156" xlink:href="#Constantia-110"/>
      </g>
     </g>
    </g>
    <g id="xtick_5">
     <g id="line2d_6">
      <path clip-path="url(#p3aa9afdd48)" d="M 230.49209 642.363 
L 230.49209 55.163 
" style="fill:none;stroke:#b0b0b0;stroke-linecap:square;stroke-width:0.8;"/>
     </g>
     <g id="line2d_7">
      <g>
       <use style="stroke:#000000;stroke-width:0.6;" x="230.49209" xlink:href="#me8a64aab19" y="642.363"/>
      </g>
     </g>
     <g id="text_5">
      <!-- 16 -->
      <g transform="translate(222.805527 661.007062)scale(0.18 -0.18)">
       <defs>
        <path d="M 1.703125 40.625 
L 1.46875 42.671875 
Q 11.28125 44.140625 21.09375 45.90625 
L 21.53125 45.515625 
Q 20.953125 36.96875 20.953125 27.875 
L 20.953125 15.96875 
Q 20.953125 9.515625 21.046875 5.5625 
Q 21.09375 4.15625 22.40625 3.8125 
L 30.171875 1.8125 
L 30.328125 -0.140625 
Q 21.296875 0 16.5 0 
Q 11.71875 0 2.734375 -0.140625 
L 2.546875 1.8125 
L 10.5 3.8125 
Q 11.765625 4.15625 11.8125 5.375 
Q 11.921875 9.328125 11.921875 14.15625 
L 11.921875 22.265625 
Q 11.921875 32.078125 11.71875 39.65625 
z
" id="Constantia-49"/>
        <path d="M 47.125 64.546875 
Q 32.03125 61.53125 24.515625 53.9375 
Q 17 46.34375 14.796875 35.25 
L 14.890625 35.203125 
Q 20.796875 41.65625 30.21875 41.65625 
Q 38.96875 41.65625 44.9375 35.796875 
Q 50.921875 29.9375 50.921875 20.90625 
Q 50.921875 11.328125 44.375 5.03125 
Q 37.84375 -1.265625 28.125 -1.265625 
Q 17.390625 -1.265625 10.75 6.5 
Q 4.109375 14.265625 4.109375 26.515625 
Q 4.109375 41.546875 14.453125 53.125 
Q 24.8125 64.703125 46.4375 68.015625 
z
M 41.109375 18.0625 
Q 41.109375 26.609375 37.15625 31.953125 
Q 33.203125 37.3125 27.046875 37.3125 
Q 21.4375 37.3125 17.921875 33.328125 
Q 14.40625 29.34375 14.40625 22.515625 
Q 14.40625 14.15625 18.5 8.203125 
Q 22.609375 2.25 28.953125 2.25 
Q 34.46875 2.25 37.78125 6.8125 
Q 41.109375 11.375 41.109375 18.0625 
z
" id="Constantia-54"/>
       </defs>
       <use xlink:href="#Constantia-49"/>
       <use x="31.298828" xlink:href="#Constantia-54"/>
      </g>
      <!-- Sun -->
      <g transform="translate(215.54084 681.172125)scale(0.18 -0.18)">
       <use xlink:href="#Constantia-83"/>
       <use x="50.976562" xlink:href="#Constantia-117"/>
       <use x="107.910156" xlink:href="#Constantia-110"/>
      </g>
     </g>
    </g>
    <g id="xtick_6">
     <g id="line2d_8">
      <path clip-path="url(#p3aa9afdd48)" d="M 306.477922 642.363 
L 306.477922 55.163 
" style="fill:none;stroke:#b0b0b0;stroke-linecap:square;stroke-width:0.8;"/>
     </g>
     <g id="line2d_9">
      <g>
       <use style="stroke:#000000;stroke-width:0.6;" x="306.477922" xlink:href="#me8a64aab19" y="642.363"/>
      </g>
     </g>
     <g id="text_6">
      <!-- 23 -->
      <g transform="translate(298.009485 661.007062)scale(0.18 -0.18)">
       <defs>
        <path d="M 10.25 16.21875 
Q 19 17.140625 24.265625 20.75 
Q 29.546875 24.359375 29.546875 30.125 
Q 29.546875 34.71875 26.09375 37.59375 
Q 22.65625 40.484375 17.390625 40.484375 
Q 10.5 40.484375 3.46875 36.8125 
L 1.46875 40.046875 
Q 11.140625 46.390625 21.34375 46.390625 
Q 28.90625 46.390625 34.078125 42.75 
Q 39.265625 39.109375 39.265625 33.203125 
Q 39.265625 22.359375 23.25 17 
L 23.25 16.796875 
Q 32.421875 16.453125 37.5625 12.15625 
Q 42.71875 7.859375 42.71875 1.609375 
Q 42.71875 -8.5 31.96875 -15.140625 
Q 21.234375 -21.78125 1.03125 -22.46875 
L 0.484375 -18.84375 
Q 16.546875 -17.78125 24.53125 -12.625 
Q 32.515625 -7.46875 32.515625 0.25 
Q 32.515625 6.296875 28.359375 9.765625 
Q 24.21875 13.234375 16.84375 13.234375 
Q 13.96875 13.234375 10.59375 12.640625 
z
" id="Constantia-51"/>
       </defs>
       <use xlink:href="#Constantia-50"/>
       <use x="48.4375" xlink:href="#Constantia-51"/>
      </g>
      <!-- Sun -->
      <g transform="translate(291.526672 681.172125)scale(0.18 -0.18)">
       <use xlink:href="#Constantia-83"/>
       <use x="50.976562" xlink:href="#Constantia-117"/>
       <use x="107.910156" xlink:href="#Constantia-110"/>
      </g>
     </g>
    </g>
    <g id="xtick_7">
     <g id="line2d_10">
      <path clip-path="url(#p3aa9afdd48)" d="M 382.463754 642.363 
L 382.463754 55.163 
" style="fill:none;stroke:#b0b0b0;stroke-linecap:square;stroke-width:0.8;"/>
     </g>
     <g id="line2d_11">
      <g>
       <use style="stroke:#000000;stroke-width:0.6;" x="382.463754" xlink:href="#me8a64aab19" y="642.363"/>
      </g>
     </g>
     <g id="text_7">
      <!-- 30 -->
      <g transform="translate(373.507348 661.007062)scale(0.18 -0.18)">
       <use xlink:href="#Constantia-51"/>
       <use x="45.654297" xlink:href="#Constantia-48"/>
      </g>
      <!-- Sun -->
      <g transform="translate(367.512504 681.172125)scale(0.18 -0.18)">
       <use xlink:href="#Constantia-83"/>
       <use x="50.976562" xlink:href="#Constantia-117"/>
       <use x="107.910156" xlink:href="#Constantia-110"/>
      </g>
     </g>
    </g>
    <g id="xtick_8">
     <g id="line2d_12">
      <path clip-path="url(#p3aa9afdd48)" d="M 458.449587 642.363 
L 458.449587 55.163 
" style="fill:none;stroke:#b0b0b0;stroke-linecap:square;stroke-width:0.8;"/>
     </g>
     <g id="line2d_13">
      <g>
       <use style="stroke:#000000;stroke-width:0.6;" x="458.449587" xlink:href="#me8a64aab19" y="642.363"/>
      </g>
     </g>
     <g id="text_8">
      <!-- 06 -->
      <g transform="translate(448.732399 661.007062)scale(0.18 -0.18)">
       <use xlink:href="#Constantia-48"/>
       <use x="53.857422" xlink:href="#Constantia-54"/>
      </g>
      <!-- Sun -->
      <g transform="translate(443.498337 681.172125)scale(0.18 -0.18)">
       <use xlink:href="#Constantia-83"/>
       <use x="50.976562" xlink:href="#Constantia-117"/>
       <use x="107.910156" xlink:href="#Constantia-110"/>
      </g>
     </g>
    </g>
    <g id="xtick_9">
     <g id="line2d_14">
      <path clip-path="url(#p3aa9afdd48)" d="M 534.435419 642.363 
L 534.435419 55.163 
" style="fill:none;stroke:#b0b0b0;stroke-linecap:square;stroke-width:0.8;"/>
     </g>
     <g id="line2d_15">
      <g>
       <use style="stroke:#000000;stroke-width:0.6;" x="534.435419" xlink:href="#me8a64aab19" y="642.363"/>
      </g>
     </g>
     <g id="text_9">
      <!-- 13 -->
      <g transform="translate(527.509638 661.007062)scale(0.18 -0.18)">
       <use xlink:href="#Constantia-49"/>
       <use x="31.298828" xlink:href="#Constantia-51"/>
      </g>
      <!-- Sun -->
      <g transform="translate(519.484169 681.172125)scale(0.18 -0.18)">
       <use xlink:href="#Constantia-83"/>
       <use x="50.976562" xlink:href="#Constantia-117"/>
       <use x="107.910156" xlink:href="#Constantia-110"/>
      </g>
     </g>
    </g>
    <g id="xtick_10">
     <g id="line2d_16">
      <path clip-path="url(#p3aa9afdd48)" d="M 610.421251 642.363 
L 610.421251 55.163 
" style="fill:none;stroke:#b0b0b0;stroke-linecap:square;stroke-width:0.8;"/>
     </g>
     <g id="line2d_17">
      <g>
       <use style="stroke:#000000;stroke-width:0.6;" x="610.421251" xlink:href="#me8a64aab19" y="642.363"/>
      </g>
     </g>
     <g id="text_10">
      <!-- 20 -->
      <g transform="translate(601.214533 661.007062)scale(0.18 -0.18)">
       <use xlink:href="#Constantia-50"/>
       <use x="48.4375" xlink:href="#Constantia-48"/>
      </g>
      <!-- Sun -->
      <g transform="translate(595.470001 681.172125)scale(0.18 -0.18)">
       <use xlink:href="#Constantia-83"/>
       <use x="50.976562" xlink:href="#Constantia-117"/>
       <use x="107.910156" xlink:href="#Constantia-110"/>
      </g>
     </g>
    </g>
    <g id="xtick_11">
     <g id="line2d_18">
      <path clip-path="url(#p3aa9afdd48)" d="M 686.407084 642.363 
L 686.407084 55.163 
" style="fill:none;stroke:#b0b0b0;stroke-linecap:square;stroke-width:0.8;"/>
     </g>
     <g id="line2d_19">
      <g>
       <use style="stroke:#000000;stroke-width:0.6;" x="686.407084" xlink:href="#me8a64aab19" y="642.363"/>
      </g>
     </g>
     <g id="text_11">
      <!-- 27 -->
      <g transform="translate(677.696771 661.007062)scale(0.18 -0.18)">
       <defs>
        <path d="M 10.9375 -19.671875 
L 39.5 37.546875 
L 8.296875 37.546875 
L 5.46875 27.875 
L 3.515625 27.546875 
L 2.6875 44.921875 
L 3.03125 45.3125 
Q 8.796875 45.21875 14.265625 45.171875 
Q 19.734375 45.125 25 45.125 
L 27.734375 45.125 
Q 33.015625 45.125 37.84375 45.171875 
Q 42.671875 45.21875 47.171875 45.3125 
L 47.359375 43.21875 
Q 44.828125 37.984375 42.265625 32.46875 
Q 39.703125 26.953125 37.234375 21.3125 
Q 34.765625 15.671875 32.421875 10.125 
Q 30.078125 4.59375 28.03125 -0.65625 
Q 25.984375 -5.90625 24.25 -10.6875 
Q 22.515625 -15.484375 21.234375 -19.53125 
L 11.1875 -20.015625 
z
" id="Constantia-55"/>
       </defs>
       <use xlink:href="#Constantia-50"/>
       <use x="48.4375" xlink:href="#Constantia-55"/>
      </g>
      <!-- Sun -->
      <g transform="translate(671.455834 681.172125)scale(0.18 -0.18)">
       <use xlink:href="#Constantia-83"/>
       <use x="50.976562" xlink:href="#Constantia-117"/>
       <use x="107.910156" xlink:href="#Constantia-110"/>
      </g>
     </g>
    </g>
    <g id="xtick_12">
     <g id="line2d_20">
      <path clip-path="url(#p3aa9afdd48)" d="M 762.392916 642.363 
L 762.392916 55.163 
" style="fill:none;stroke:#b0b0b0;stroke-linecap:square;stroke-width:0.8;"/>
     </g>
     <g id="line2d_21">
      <g>
       <use style="stroke:#000000;stroke-width:0.6;" x="762.392916" xlink:href="#me8a64aab19" y="642.363"/>
      </g>
     </g>
     <g id="text_12">
      <!-- 04 -->
      <g transform="translate(752.768541 661.007062)scale(0.18 -0.18)">
       <defs>
        <path d="M 30.953125 35.015625 
Q 25.4375 28.8125 19.890625 21.78125 
Q 14.359375 14.75 8.984375 7.28125 
L 30.953125 7.28125 
z
M 39.984375 -5.71875 
Q 39.984375 -12.546875 40.234375 -19.53125 
Q 35.546875 -20.015625 31.34375 -20.796875 
L 30.859375 -20.40625 
Q 30.953125 -13.578125 30.953125 -6.5 
L 30.953125 2.4375 
L 18.796875 2.4375 
Q 12.109375 2.4375 2.546875 2.296875 
L 2.203125 5.859375 
Q 9.90625 16.0625 18.078125 26.234375 
Q 26.265625 36.421875 34.578125 46.046875 
L 40.28125 46.390625 
Q 39.984375 35.453125 39.984375 25.984375 
L 39.984375 7.28125 
L 51.171875 7.28125 
L 51.375 2.296875 
Q 46 2.4375 39.984375 2.4375 
z
" id="Constantia-52"/>
       </defs>
       <use xlink:href="#Constantia-48"/>
       <use x="53.857422" xlink:href="#Constantia-52"/>
      </g>
      <!-- Sun -->
      <g transform="translate(747.441666 681.172125)scale(0.18 -0.18)">
       <use xlink:href="#Constantia-83"/>
       <use x="50.976562" xlink:href="#Constantia-117"/>
       <use x="107.910156" xlink:href="#Constantia-110"/>
      </g>
     </g>
    </g>
    <g id="xtick_13">
     <g id="line2d_22">
      <path clip-path="url(#p3aa9afdd48)" d="M 838.378749 642.363 
L 838.378749 55.163 
" style="fill:none;stroke:#b0b0b0;stroke-linecap:square;stroke-width:0.8;"/>
     </g>
     <g id="line2d_23">
      <g>
       <use style="stroke:#000000;stroke-width:0.6;" x="838.378749" xlink:href="#me8a64aab19" y="642.363"/>
      </g>
     </g>
     <g id="text_13">
      <!-- 11 -->
      <g transform="translate(832.745311 661.007062)scale(0.18 -0.18)">
       <use xlink:href="#Constantia-49"/>
       <use x="31.298828" xlink:href="#Constantia-49"/>
      </g>
      <!-- Sun -->
      <g transform="translate(823.427499 681.172125)scale(0.18 -0.18)">
       <use xlink:href="#Constantia-83"/>
       <use x="50.976562" xlink:href="#Constantia-117"/>
       <use x="107.910156" xlink:href="#Constantia-110"/>
      </g>
     </g>
    </g>
    <g id="xtick_14">
     <g id="line2d_24">
      <path clip-path="url(#p3aa9afdd48)" d="M 914.364581 642.363 
L 914.364581 55.163 
" style="fill:none;stroke:#b0b0b0;stroke-linecap:square;stroke-width:0.8;"/>
     </g>
     <g id="line2d_25">
      <g>
       <use style="stroke:#000000;stroke-width:0.6;" x="914.364581" xlink:href="#me8a64aab19" y="642.363"/>
      </g>
     </g>
     <g id="text_14">
      <!-- 18 -->
      <g transform="translate(906.7188 661.007062)scale(0.18 -0.18)">
       <defs>
        <path d="M 19.09375 34.234375 
Q 12.0625 37.890625 9.5 41.546875 
Q 6.9375 45.21875 6.9375 50.09375 
Q 6.9375 57.421875 12.96875 62.171875 
Q 19 66.9375 27.984375 66.9375 
Q 36.078125 66.9375 41.375 63.125 
Q 46.6875 59.328125 46.6875 53.265625 
Q 46.6875 44.234375 33.84375 36.765625 
Q 43.609375 32.03125 47.09375 27.75 
Q 50.59375 23.484375 50.59375 17.578125 
Q 50.59375 9.421875 43.40625 4.078125 
Q 36.234375 -1.265625 26.265625 -1.265625 
Q 16.265625 -1.265625 9.90625 3.296875 
Q 3.5625 7.859375 3.5625 15.4375 
Q 3.5625 26.8125 19.09375 34.234375 
z
M 22.5625 32.421875 
Q 12.546875 26.703125 12.546875 16.609375 
Q 12.546875 10.203125 16.375 6.421875 
Q 20.21875 2.640625 26.90625 2.640625 
Q 33.015625 2.640625 37.140625 6.03125 
Q 41.265625 9.421875 41.265625 14.84375 
Q 41.265625 20.015625 37.5 23.75 
Q 33.734375 27.484375 22.5625 32.421875 
z
M 30.21875 38.625 
Q 37.984375 44.234375 37.984375 51.8125 
Q 37.984375 57.234375 34.859375 60.1875 
Q 31.734375 63.140625 26.609375 63.140625 
Q 21.4375 63.140625 18.140625 60.453125 
Q 14.84375 57.765625 14.84375 53.125 
Q 14.84375 48.484375 18.40625 45.40625 
Q 21.96875 42.328125 30.21875 38.625 
z
" id="Constantia-56"/>
       </defs>
       <use xlink:href="#Constantia-49"/>
       <use x="31.298828" xlink:href="#Constantia-56"/>
      </g>
      <!-- Sun -->
      <g transform="translate(899.413331 681.172125)scale(0.18 -0.18)">
       <use xlink:href="#Constantia-83"/>
       <use x="50.976562" xlink:href="#Constantia-117"/>
       <use x="107.910156" xlink:href="#Constantia-110"/>
      </g>
     </g>
    </g>
    <g id="xtick_15">
     <g id="line2d_26">
      <path clip-path="url(#p3aa9afdd48)" d="M 990.350413 642.363 
L 990.350413 55.163 
" style="fill:none;stroke:#b0b0b0;stroke-linecap:square;stroke-width:0.8;"/>
     </g>
     <g id="line2d_27">
      <g>
       <use style="stroke:#000000;stroke-width:0.6;" x="990.350413" xlink:href="#me8a64aab19" y="642.363"/>
      </g>
     </g>
     <g id="text_15">
      <!-- 25 -->
      <g transform="translate(981.710413 661.007062)scale(0.18 -0.18)">
       <defs>
        <path d="M 6.453125 16.796875 
L 9.28125 45.3125 
Q 15.375 45.125 23.875 45.125 
Q 33.6875 45.125 42.28125 45.3125 
L 42.578125 44.921875 
L 41.359375 36.859375 
L 13.1875 37.546875 
L 11.8125 23.78125 
Q 15.96875 24.46875 19.625 24.46875 
Q 30.8125 24.46875 37.46875 19.046875 
Q 44.140625 13.625 44.140625 4.15625 
Q 44.140625 -7.953125 32.984375 -15.15625 
Q 21.828125 -22.359375 4.890625 -22.46875 
L 4.390625 -18.84375 
Q 17.71875 -18.359375 26.09375 -12.796875 
Q 34.46875 -7.234375 34.46875 2.203125 
Q 34.46875 9.46875 29.5625 13.46875 
Q 24.65625 17.484375 15.765625 17.484375 
Q 11.328125 17.484375 6.734375 16.453125 
z
" id="Constantia-53"/>
       </defs>
       <use xlink:href="#Constantia-50"/>
       <use x="48.4375" xlink:href="#Constantia-53"/>
      </g>
      <!-- Sun -->
      <g transform="translate(975.399163 681.172125)scale(0.18 -0.18)">
       <use xlink:href="#Constantia-83"/>
       <use x="50.976562" xlink:href="#Constantia-117"/>
       <use x="107.910156" xlink:href="#Constantia-110"/>
      </g>
     </g>
    </g>
    <g id="xtick_16">
     <g id="line2d_28">
      <path clip-path="url(#p3aa9afdd48)" d="M 1142.322078 642.363 
L 1142.322078 55.163 
" style="fill:none;stroke:#b0b0b0;stroke-linecap:square;stroke-width:0.8;"/>
     </g>
     <g id="line2d_29">
      <g>
       <use style="stroke:#000000;stroke-width:0.6;" x="1142.322078" xlink:href="#me8a64aab19" y="642.363"/>
      </g>
     </g>
     <g id="text_16">
      <!-- 08 -->
      <g transform="translate(1132.645672 661.007062)scale(0.18 -0.18)">
       <use xlink:href="#Constantia-48"/>
       <use x="53.857422" xlink:href="#Constantia-56"/>
      </g>
      <!-- Sun -->
      <g transform="translate(1127.370828 681.172125)scale(0.18 -0.18)">
       <use xlink:href="#Constantia-83"/>
       <use x="50.976562" xlink:href="#Constantia-117"/>
       <use x="107.910156" xlink:href="#Constantia-110"/>
      </g>
     </g>
    </g>
    <g id="xtick_17">
     <g id="line2d_30">
      <path clip-path="url(#p3aa9afdd48)" d="M 1218.30791 642.363 
L 1218.30791 55.163 
" style="fill:none;stroke:#b0b0b0;stroke-linecap:square;stroke-width:0.8;"/>
     </g>
     <g id="line2d_31">
      <g>
       <use style="stroke:#000000;stroke-width:0.6;" x="1218.30791" xlink:href="#me8a64aab19" y="642.363"/>
      </g>
     </g>
     <g id="text_17">
      <!-- 15 -->
      <g transform="translate(1211.210567 661.007062)scale(0.18 -0.18)">
       <use xlink:href="#Constantia-49"/>
       <use x="31.298828" xlink:href="#Constantia-53"/>
      </g>
      <!-- Sun -->
      <g transform="translate(1203.35666 681.172125)scale(0.18 -0.18)">
       <use xlink:href="#Constantia-83"/>
       <use x="50.976562" xlink:href="#Constantia-117"/>
       <use x="107.910156" xlink:href="#Constantia-110"/>
      </g>
     </g>
    </g>
    <g id="xtick_18">
     <g id="line2d_32">
      <path clip-path="url(#p3aa9afdd48)" d="M 1294.293743 642.363 
L 1294.293743 55.163 
" style="fill:none;stroke:#b0b0b0;stroke-linecap:square;stroke-width:0.8;"/>
     </g>
     <g id="line2d_33">
      <g>
       <use style="stroke:#000000;stroke-width:0.6;" x="1294.293743" xlink:href="#me8a64aab19" y="642.363"/>
      </g>
     </g>
     <g id="text_18">
      <!-- 22 -->
      <g transform="translate(1285.574993 661.007062)scale(0.18 -0.18)">
       <use xlink:href="#Constantia-50"/>
       <use x="48.4375" xlink:href="#Constantia-50"/>
      </g>
      <!-- Sun -->
      <g transform="translate(1279.342493 681.172125)scale(0.18 -0.18)">
       <use xlink:href="#Constantia-83"/>
       <use x="50.976562" xlink:href="#Constantia-117"/>
       <use x="107.910156" xlink:href="#Constantia-110"/>
      </g>
     </g>
    </g>
   </g>
   <g id="matplotlib.axis_2">
    <g id="ytick_1">
     <g id="line2d_34">
      <path clip-path="url(#p3aa9afdd48)" d="M 80.8 642.363 
L 1368 642.363 
" style="fill:none;stroke:#b0b0b0;stroke-linecap:square;stroke-width:0.8;"/>
     </g>
     <g id="line2d_35">
      <defs>
       <path d="M 0 0 
L -3.5 0 
" id="m6349ff9c53" style="stroke:#000000;stroke-width:0.8;"/>
      </defs>
      <g>
       <use style="stroke:#000000;stroke-width:0.8;" x="80.8" xlink:href="#m6349ff9c53" y="642.363"/>
      </g>
     </g>
     <g id="text_19">
      <!-- 0 -->
      <g transform="translate(63.028125 649.720812)scale(0.2 -0.2)">
       <use xlink:href="#Constantia-48"/>
      </g>
     </g>
    </g>
    <g id="ytick_2">
     <g id="line2d_36">
      <path clip-path="url(#p3aa9afdd48)" d="M 80.8 556.82643 
L 1368 556.82643 
" style="fill:none;stroke:#b0b0b0;stroke-linecap:square;stroke-width:0.8;"/>
     </g>
     <g id="line2d_37">
      <g>
       <use style="stroke:#000000;stroke-width:0.8;" x="80.8" xlink:href="#m6349ff9c53" y="556.82643"/>
      </g>
     </g>
     <g id="text_20">
      <!-- 1000 -->
      <g transform="translate(35.225 564.184242)scale(0.2 -0.2)">
       <use xlink:href="#Constantia-49"/>
       <use x="31.298828" xlink:href="#Constantia-48"/>
       <use x="85.15625" xlink:href="#Constantia-48"/>
       <use x="139.013672" xlink:href="#Constantia-48"/>
      </g>
     </g>
    </g>
    <g id="ytick_3">
     <g id="line2d_38">
      <path clip-path="url(#p3aa9afdd48)" d="M 80.8 471.28986 
L 1368 471.28986 
" style="fill:none;stroke:#b0b0b0;stroke-linecap:square;stroke-width:0.8;"/>
     </g>
     <g id="line2d_39">
      <g>
       <use style="stroke:#000000;stroke-width:0.8;" x="80.8" xlink:href="#m6349ff9c53" y="471.28986"/>
      </g>
     </g>
     <g id="text_21">
      <!-- 2000 -->
      <g transform="translate(31.796875 478.647672)scale(0.2 -0.2)">
       <use xlink:href="#Constantia-50"/>
       <use x="48.4375" xlink:href="#Constantia-48"/>
       <use x="102.294922" xlink:href="#Constantia-48"/>
       <use x="156.152344" xlink:href="#Constantia-48"/>
      </g>
     </g>
    </g>
    <g id="ytick_4">
     <g id="line2d_40">
      <path clip-path="url(#p3aa9afdd48)" d="M 80.8 385.75329 
L 1368 385.75329 
" style="fill:none;stroke:#b0b0b0;stroke-linecap:square;stroke-width:0.8;"/>
     </g>
     <g id="line2d_41">
      <g>
       <use style="stroke:#000000;stroke-width:0.8;" x="80.8" xlink:href="#m6349ff9c53" y="385.75329"/>
      </g>
     </g>
     <g id="text_22">
      <!-- 3000 -->
      <g transform="translate(32.353125 393.111102)scale(0.2 -0.2)">
       <use xlink:href="#Constantia-51"/>
       <use x="45.654297" xlink:href="#Constantia-48"/>
       <use x="99.511719" xlink:href="#Constantia-48"/>
       <use x="153.369141" xlink:href="#Constantia-48"/>
      </g>
     </g>
    </g>
    <g id="ytick_5">
     <g id="line2d_42">
      <path clip-path="url(#p3aa9afdd48)" d="M 80.8 300.21672 
L 1368 300.21672 
" style="fill:none;stroke:#b0b0b0;stroke-linecap:square;stroke-width:0.8;"/>
     </g>
     <g id="line2d_43">
      <g>
       <use style="stroke:#000000;stroke-width:0.8;" x="80.8" xlink:href="#m6349ff9c53" y="300.21672"/>
      </g>
     </g>
     <g id="text_23">
      <!-- 4000 -->
      <g transform="translate(30.86875 307.574532)scale(0.2 -0.2)">
       <use xlink:href="#Constantia-52"/>
       <use x="53.076172" xlink:href="#Constantia-48"/>
       <use x="106.933594" xlink:href="#Constantia-48"/>
       <use x="160.791016" xlink:href="#Constantia-48"/>
      </g>
     </g>
    </g>
    <g id="ytick_6">
     <g id="line2d_44">
      <path clip-path="url(#p3aa9afdd48)" d="M 80.8 214.68015 
L 1368 214.68015 
" style="fill:none;stroke:#b0b0b0;stroke-linecap:square;stroke-width:0.8;"/>
     </g>
     <g id="line2d_45">
      <g>
       <use style="stroke:#000000;stroke-width:0.8;" x="80.8" xlink:href="#m6349ff9c53" y="214.68015"/>
      </g>
     </g>
     <g id="text_24">
      <!-- 5000 -->
      <g transform="translate(31.971875 222.037962)scale(0.2 -0.2)">
       <use xlink:href="#Constantia-53"/>
       <use x="47.558594" xlink:href="#Constantia-48"/>
       <use x="101.416016" xlink:href="#Constantia-48"/>
       <use x="155.273438" xlink:href="#Constantia-48"/>
      </g>
     </g>
    </g>
    <g id="ytick_7">
     <g id="line2d_46">
      <path clip-path="url(#p3aa9afdd48)" d="M 80.8 129.143579 
L 1368 129.143579 
" style="fill:none;stroke:#b0b0b0;stroke-linecap:square;stroke-width:0.8;"/>
     </g>
     <g id="line2d_47">
      <g>
       <use style="stroke:#000000;stroke-width:0.8;" x="80.8" xlink:href="#m6349ff9c53" y="129.143579"/>
      </g>
     </g>
     <g id="text_25">
      <!-- 6000 -->
      <g transform="translate(30.6625 136.501392)scale(0.2 -0.2)">
       <use xlink:href="#Constantia-54"/>
       <use x="54.101562" xlink:href="#Constantia-48"/>
       <use x="107.958984" xlink:href="#Constantia-48"/>
       <use x="161.816406" xlink:href="#Constantia-48"/>
      </g>
     </g>
    </g>
    <g id="text_26">
     <!-- NewDeaths -->
     <g transform="translate(21.915625 398.686437)rotate(-90)scale(0.2 -0.2)">
      <defs>
       <path d="M -0.828125 45.265625 
Q 6.15625 45.125 9.515625 45.125 
Q 14.359375 45.125 20.453125 45.265625 
L 20.65625 43.265625 
L 14.890625 41.703125 
Q 18.171875 30.8125 23.140625 17.1875 
Q 24.21875 14.3125 25.140625 11.28125 
Q 26.078125 14.265625 27.15625 17.140625 
Q 31.0625 27.59375 33.0625 33.453125 
Q 35.0625 39.3125 36.921875 44.921875 
L 40.484375 45.3125 
Q 42.328125 39.40625 44.28125 33.5 
Q 46.234375 27.59375 49.90625 17.1875 
Q 51.078125 14.0625 51.859375 11.28125 
Q 52.78125 14.109375 53.953125 17.140625 
Q 59.375 30.859375 62.9375 41.75 
L 57.421875 43.3125 
L 57.234375 45.3125 
Q 61.140625 45.171875 65.53125 45.171875 
Q 69.875 45.171875 73.4375 45.3125 
L 73.6875 43.3125 
L 69.78125 42.234375 
Q 68.109375 41.75 67.328125 39.890625 
Q 62.75 28.8125 59.171875 19.890625 
Q 55.609375 10.984375 51.46875 -0.09375 
L 47.078125 -0.53125 
Q 44.09375 8.0625 42.109375 13.453125 
Q 40.140625 18.84375 37.84375 25.203125 
Q 36.859375 27.78125 36.1875 30.171875 
Q 35.40625 27.828125 34.421875 25.34375 
Q 31.9375 18.84375 29.8125 13.375 
Q 27.6875 7.90625 24.859375 -0.09375 
L 20.5625 -0.53125 
Q 16.40625 10.984375 12.984375 19.875 
Q 9.578125 28.765625 5.28125 39.9375 
Q 4.59375 41.75 2.78125 42.234375 
L -0.734375 43.265625 
z
" id="Constantia-119"/>
       <path d="M 17.09375 0 
Q 11.1875 0 4.984375 -0.140625 
L 4.78125 1.953125 
L 10.796875 3.765625 
Q 12.0625 4.15625 12.109375 5.28125 
Q 12.15625 7.234375 12.171875 9.640625 
Q 12.203125 12.0625 12.203125 14.984375 
L 12.203125 54.59375 
Q 12.203125 57.078125 12.171875 59.078125 
Q 12.15625 61.078125 12.109375 62.703125 
Q 12.0625 63.96875 10.9375 64.359375 
L 4.890625 66.265625 
L 4.78125 68.359375 
Q 11.078125 68.171875 17.046875 68.171875 
Q 21.921875 68.171875 26.453125 68.40625 
Q 31 68.65625 35.796875 68.65625 
Q 52.875 68.65625 61.46875 60.859375 
Q 70.0625 53.078125 70.0625 37.75 
Q 70.0625 19.671875 60.515625 9.6875 
Q 50.984375 -0.296875 33.734375 -0.296875 
Q 29 -0.296875 25.28125 -0.140625 
Q 21.578125 0 17.09375 0 
z
M 21.78125 4.34375 
Q 24.65625 3.953125 27.40625 3.828125 
Q 30.171875 3.71875 32.953125 3.71875 
Q 45.84375 3.71875 52.578125 11.296875 
Q 59.328125 18.890625 59.328125 34.578125 
Q 59.328125 49.8125 52.921875 57.15625 
Q 46.53125 64.5 32.671875 64.5 
Q 30.46875 64.5 27.796875 64.40625 
Q 25.140625 64.3125 21.78125 64.0625 
z
" id="Constantia-68"/>
       <path d="M 30.125 22.125 
Q 19.4375 22.125 15.53125 20.015625 
Q 11.625 17.921875 11.625 12.9375 
Q 11.625 8.296875 14.203125 6.359375 
Q 16.796875 4.4375 21.234375 4.4375 
Q 26.265625 4.4375 30.03125 6.15625 
z
M 6.453125 42.234375 
Q 15.96875 46.390625 23.296875 46.390625 
Q 30.765625 46.390625 34.9375 42.484375 
Q 39.109375 38.578125 39.0625 31.203125 
L 38.8125 10.890625 
Q 38.765625 8.40625 38.9375 6.890625 
Q 39.109375 5.375 39.8125 4.5625 
Q 40.53125 3.765625 41.9375 3.4375 
Q 43.359375 3.125 45.75 3.078125 
L 46 1.171875 
Q 43.890625 0.34375 40.859375 -0.484375 
Q 37.84375 -1.3125 36.765625 -1.3125 
Q 32.03125 -1.3125 30.28125 3.5625 
Q 23.4375 -1.375 17.390625 -1.375 
Q 10.59375 -1.375 6.46875 1.96875 
Q 2.34375 5.328125 2.34375 11.421875 
Q 2.34375 18.953125 9.046875 22.515625 
Q 15.765625 26.078125 30.125 26.078125 
L 30.171875 29.890625 
Q 30.21875 35.359375 27.390625 37.984375 
Q 24.5625 40.625 18.703125 40.625 
Q 14.265625 40.625 7.5625 38.96875 
z
" id="Constantia-97"/>
       <path d="M 2.484375 70.125 
Q 10.453125 71.6875 18.40625 73.578125 
L 18.84375 73.1875 
Q 18.609375 68.609375 18.578125 60.109375 
Q 18.5625 51.609375 18.5625 40.921875 
Q 27.046875 46.390625 34.375 46.390625 
Q 41.15625 46.390625 45.15625 42.59375 
Q 49.171875 38.8125 49.171875 31.5 
L 49.171875 14.265625 
Q 49.171875 8.640625 49.265625 5.21875 
Q 49.3125 3.953125 50.484375 3.515625 
L 55.953125 1.859375 
L 56.0625 -0.140625 
Q 49.609375 0 44.828125 0 
Q 40.046875 0 34.1875 -0.140625 
L 33.984375 1.859375 
L 38.8125 3.265625 
Q 39.984375 3.65625 40.09375 4.78125 
Q 40.140625 5.46875 40.140625 7.859375 
L 40.140625 29.15625 
Q 40.140625 35.15625 37.25 37.765625 
Q 34.375 40.375 28.765625 40.375 
Q 23.921875 40.375 18.5625 38.03125 
L 18.5625 16.109375 
Q 18.5625 10.0625 18.65625 5.03125 
Q 18.703125 3.65625 19.875 3.328125 
L 24.953125 1.859375 
L 25.046875 -0.140625 
Q 18.890625 0 14.109375 0 
Q 9.328125 0 2.78125 -0.140625 
L 2.59375 1.859375 
L 8.109375 3.46875 
Q 9.375 3.859375 9.421875 5.03125 
Q 9.515625 9.71875 9.515625 17 
L 9.515625 37.40625 
Q 9.515625 47.359375 9.484375 55.03125 
Q 9.46875 62.703125 9.328125 66.546875 
L 2.734375 68.5 
z
" id="Constantia-104"/>
       <path d="M 27.875 41.453125 
Q 25.046875 42.234375 21.734375 42.234375 
Q 17.140625 42.234375 14.328125 40.453125 
Q 11.53125 38.671875 11.53125 35.59375 
Q 11.53125 32.625 13.359375 30.90625 
Q 15.1875 29.203125 20.171875 27.546875 
L 24.171875 26.171875 
Q 30.90625 23.875 34.046875 20.921875 
Q 37.203125 17.96875 37.203125 13.1875 
Q 37.203125 6.390625 31.921875 2.5 
Q 26.65625 -1.375 18.609375 -1.375 
Q 11.1875 -1.375 3.421875 1.65625 
Q 5.078125 8.015625 6.109375 14.0625 
L 8.015625 14.359375 
L 11.53125 3.859375 
Q 14.3125 2.78125 18.609375 2.78125 
Q 23.140625 2.78125 25.84375 4.640625 
Q 28.5625 6.5 28.5625 9.859375 
Q 28.5625 12.984375 26.734375 14.796875 
Q 24.90625 16.609375 20.90625 17.921875 
L 15.828125 19.625 
Q 9.234375 21.828125 6.71875 24.921875 
Q 4.203125 28.03125 4.203125 32.625 
Q 4.203125 39.015625 9.0625 42.703125 
Q 13.921875 46.390625 21.875 46.390625 
Q 29.296875 46.390625 35.359375 44.234375 
Q 33.984375 38.671875 32.859375 32.46875 
L 31 32.125 
z
" id="Constantia-115"/>
      </defs>
      <use xlink:href="#Constantia-78"/>
      <use x="73.402344" xlink:href="#Constantia-101"/>
      <use x="121.302734" xlink:href="#Constantia-119"/>
      <use x="194.496094" xlink:href="#Constantia-68"/>
      <use x="269.59375" xlink:href="#Constantia-101"/>
      <use x="317.494141" xlink:href="#Constantia-97"/>
      <use x="365.492188" xlink:href="#Constantia-116"/>
      <use x="400.794922" xlink:href="#Constantia-104"/>
      <use x="458.753906" xlink:href="#Constantia-115"/>
     </g>
    </g>
   </g>
   <g id="patch_102">
    <path d="M 80.8 642.363 
L 80.8 55.163 
" style="fill:none;stroke:#000000;stroke-linecap:square;stroke-linejoin:miter;stroke-width:0.8;"/>
   </g>
   <g id="patch_103">
    <path d="M 1368 642.363 
L 1368 55.163 
" style="fill:none;stroke:#000000;stroke-linecap:square;stroke-linejoin:miter;stroke-width:0.8;"/>
   </g>
   <g id="patch_104">
    <path d="M 80.8 642.363 
L 1368 642.363 
" style="fill:none;stroke:#000000;stroke-linecap:square;stroke-linejoin:miter;stroke-width:0.8;"/>
   </g>
   <g id="patch_105">
    <path d="M 80.8 55.163 
L 1368 55.163 
" style="fill:none;stroke:#000000;stroke-linecap:square;stroke-linejoin:miter;stroke-width:0.8;"/>
   </g>
   <g id="legend_1">
    <g id="patch_106">
     <path d="M 1192.985637 89.370031 
L 1358.7872 89.370031 
Q 1361.7872 89.370031 1361.7872 86.370031 
L 1361.7872 65.663 
Q 1361.7872 62.663 1358.7872 62.663 
L 1192.985637 62.663 
Q 1189.985637 62.663 1189.985637 65.663 
L 1189.985637 86.370031 
Q 1189.985637 89.370031 1192.985637 89.370031 
z
" style="fill:#ffffff;opacity:0.8;stroke:#000000;stroke-linejoin:miter;"/>
    </g>
    <g id="line2d_48">
     <path d="M 1195.985637 74.449719 
L 1225.985637 74.449719 
" style="fill:none;stroke:#f08080;stroke-dasharray:11.1,4.8;stroke-dashoffset:0;stroke-width:3;"/>
    </g>
    <g id="line2d_49">
     <defs>
      <path d="M 0 3 
C 0.795609 3 1.55874 2.683901 2.12132 2.12132 
C 2.683901 1.55874 3 0.795609 3 0 
C 3 -0.795609 2.683901 -1.55874 2.12132 -2.12132 
C 1.55874 -2.683901 0.795609 -3 0 -3 
C -0.795609 -3 -1.55874 -2.683901 -2.12132 -2.12132 
C -2.683901 -1.55874 -3 -0.795609 -3 0 
C -3 0.795609 -2.683901 1.55874 -2.12132 2.12132 
C -1.55874 2.683901 -0.795609 3 0 3 
z
" id="mb663ad63cc" style="stroke:#f08080;"/>
     </defs>
     <g>
      <use style="fill:#f08080;stroke:#f08080;" x="1210.985637" xlink:href="#mb663ad63cc" y="74.449719"/>
     </g>
    </g>
    <g id="text_27">
     <!-- 7 days moving avg -->
     <g transform="translate(1237.985637 79.699719)scale(0.15 -0.15)">
      <defs>
       <path id="Constantia-32"/>
       <path d="M 37.9375 41.015625 
Q 34.671875 42.046875 30.609375 42.046875 
Q 22.21875 42.046875 17.8125 37.28125 
Q 13.421875 32.515625 13.421875 22.859375 
Q 13.421875 14.5 17.328125 9.5 
Q 21.234375 4.5 28.375 4.5 
Q 32.953125 4.5 37.9375 7.03125 
z
M 30.90625 70.125 
Q 39.59375 71.78125 46.828125 73.578125 
L 47.265625 73.1875 
Q 46.96875 62.75 46.96875 50.734375 
L 46.96875 24.171875 
Q 46.96875 17.4375 47.015625 10.84375 
Q 47.015625 8.34375 47.1875 6.828125 
Q 47.359375 5.328125 48.046875 4.515625 
Q 48.734375 3.71875 50.078125 3.421875 
Q 51.421875 3.125 53.859375 3.078125 
L 54.109375 1.171875 
Q 51.953125 0.34375 48.953125 -0.484375 
Q 45.953125 -1.3125 44.875 -1.3125 
Q 39.9375 -1.3125 38.234375 4.25 
Q 30.671875 -1.375 23.53125 -1.375 
Q 14.5 -1.375 9.109375 5.046875 
Q 3.71875 11.46875 3.71875 20.84375 
Q 3.71875 32.953125 10.890625 39.59375 
Q 18.0625 46.234375 30.953125 46.234375 
Q 34.078125 46.234375 37.9375 45.5625 
Q 37.9375 56.34375 37.75 66.546875 
L 31.15625 68.5 
z
" id="Constantia-100"/>
       <path d="M -1.703125 45.265625 
Q 4.4375 45.125 9.234375 45.125 
Q 12.5 45.125 19.671875 45.265625 
L 19.875 43.265625 
L 14.15625 41.703125 
Q 15.96875 36.578125 18.359375 30.390625 
Q 20.75 24.21875 23.4375 17.53125 
Q 24.5625 14.75 25.875 11.140625 
Q 27.25 14.796875 28.8125 18.609375 
Q 31.109375 24.265625 33.25 29.75 
Q 35.40625 35.25 37.703125 41.703125 
L 32.125 43.265625 
L 31.9375 45.265625 
Q 35.546875 45.125 40.375 45.125 
Q 44.734375 45.125 48.828125 45.265625 
L 49.078125 43.265625 
L 44.53125 42 
Q 43.015625 41.5 42.328125 39.984375 
Q 40.53125 35.84375 38.421875 30.90625 
Q 31.984375 15.765625 28.65625 6.109375 
Q 26.421875 -0.4375 24.609375 -7.296875 
Q 22.796875 -14.15625 21.828125 -19.09375 
Q 21.390625 -21.484375 20.046875 -22.71875 
Q 18.703125 -23.96875 13.765625 -23.96875 
Q 8.734375 -23.96875 4 -23.640625 
L 3.765625 -21.734375 
Q 9.125 -20.90625 11.71875 -18.265625 
Q 14.84375 -14.890625 21.390625 -0.34375 
L 21.78125 0.59375 
L 21.09375 0.78125 
Q 12.15625 23.046875 4.9375 39.9375 
Q 4.296875 41.40625 2.6875 41.9375 
L -1.609375 43.265625 
z
" id="Constantia-121"/>
       <path d="M 47.65625 36.859375 
Q 48.34375 34.515625 48.34375 31.59375 
L 48.34375 14.15625 
Q 48.34375 8.453125 48.4375 4.984375 
Q 48.53125 3.65625 49.703125 3.265625 
L 54.640625 1.859375 
L 54.734375 -0.140625 
Q 48.78125 0 44 0 
Q 39.203125 0 33.34375 -0.140625 
L 33.15625 1.859375 
L 37.796875 3.21875 
Q 39.203125 3.71875 39.265625 4.78125 
Q 39.3125 5.46875 39.3125 7.859375 
L 39.3125 29.15625 
Q 39.3125 35.15625 36.578125 37.765625 
Q 33.84375 40.375 28.46875 40.375 
Q 23.734375 40.375 18.796875 37.546875 
L 18.796875 16.21875 
Q 18.796875 10.109375 18.890625 5.03125 
Q 18.953125 3.5625 19.921875 3.375 
L 25.09375 1.859375 
L 25.203125 -0.140625 
Q 19.140625 0 14.359375 0 
Q 9.578125 0 3.03125 -0.140625 
L 2.828125 1.859375 
L 8.453125 3.515625 
Q 9.671875 3.859375 9.71875 5.03125 
Q 9.765625 7.625 9.765625 11.03125 
L 9.765625 27.6875 
Q 9.765625 34.078125 9.578125 39.546875 
L 3.078125 41.3125 
L 2.828125 42.96875 
Q 10.890625 44.53125 18.265625 46.390625 
L 18.75 46.046875 
L 18.75 40.375 
Q 26.765625 46.390625 33.9375 46.390625 
Q 42.71875 46.390625 46.625 39.59375 
Q 54.34375 46.390625 63.375 46.390625 
Q 70.171875 46.390625 74 42.546875 
Q 77.828125 38.71875 77.828125 31.59375 
L 77.828125 14.3125 
Q 77.828125 8.15625 77.9375 5.21875 
Q 78.03125 3.90625 79.25 3.515625 
L 84.671875 1.859375 
L 84.765625 -0.140625 
Q 78.328125 0 73.53125 0 
Q 68.703125 0 62.890625 -0.140625 
L 62.703125 1.859375 
L 67.53125 3.265625 
Q 68.65625 3.65625 68.796875 4.78125 
Q 68.84375 5.46875 68.84375 7.859375 
L 68.84375 29.15625 
Q 68.84375 35.15625 66.0625 37.765625 
Q 63.28125 40.375 57.859375 40.375 
Q 52.390625 40.375 47.65625 36.859375 
z
" id="Constantia-109"/>
       <path d="M 19.34375 63.671875 
Q 19.34375 61.078125 17.71875 59.4375 
Q 16.109375 57.8125 13.578125 57.8125 
Q 11.140625 57.8125 9.59375 59.328125 
Q 8.0625 60.84375 8.0625 63.328125 
Q 8.0625 65.96875 9.671875 67.5 
Q 11.28125 69.046875 13.921875 69.046875 
Q 16.3125 69.046875 17.828125 67.65625 
Q 19.34375 66.265625 19.34375 63.671875 
z
M 2.828125 42.96875 
Q 11.375 44.578125 18.65625 46.390625 
L 19.09375 46.046875 
Q 18.796875 39.703125 18.796875 32.078125 
L 18.796875 13.328125 
Q 18.796875 7.46875 18.890625 5.21875 
Q 19 3.90625 20.125 3.515625 
L 25.78125 1.859375 
L 25.875 -0.140625 
Q 19.140625 0 14.359375 0 
Q 9.578125 0 2.984375 -0.140625 
L 2.78125 1.859375 
L 8.453125 3.515625 
Q 9.578125 3.90625 9.671875 5.03125 
Q 9.765625 6.9375 9.765625 11.421875 
L 9.765625 27.734375 
Q 9.765625 34.125 9.578125 39.546875 
L 3.078125 41.3125 
z
" id="Constantia-105"/>
       <path d="M 14.015625 30.328125 
Q 14.015625 23.96875 16.578125 20.5 
Q 19.140625 17.046875 24.03125 17.046875 
Q 28.71875 17.046875 31.078125 20.28125 
Q 33.453125 23.53125 33.453125 29.78125 
Q 33.453125 35.796875 30.9375 39.25 
Q 28.421875 42.71875 23.4375 42.71875 
Q 18.75 42.71875 16.375 39.546875 
Q 14.015625 36.375 14.015625 30.328125 
z
M 13.375 -1.953125 
Q 10.0625 -6.9375 10.0625 -11.140625 
Q 10.0625 -15.4375 13.53125 -17.828125 
Q 17 -20.21875 22.953125 -20.21875 
Q 30.03125 -20.21875 35.34375 -17.0625 
Q 40.671875 -13.921875 40.671875 -8.25 
Q 40.671875 -5.171875 38.0625 -3.484375 
Q 35.453125 -1.8125 28.21875 -1.8125 
Q 25.640625 -1.8125 22.578125 -1.953125 
Q 19.53125 -2.09375 16.703125 -2.09375 
Q 15.140625 -2.09375 13.375 -1.953125 
z
M 38.875 40.234375 
Q 42.53125 36.1875 42.53125 30.5625 
Q 42.53125 22.703125 37.0625 18.03125 
Q 31.59375 13.375 23.34375 13.375 
Q 18.65625 13.375 14.9375 14.84375 
Q 12.3125 10.59375 12.3125 8.15625 
Q 12.3125 6.84375 13.640625 6.375 
Q 14.984375 5.90625 18.609375 5.90625 
Q 21.34375 5.90625 25 6.046875 
Q 28.65625 6.203125 31.84375 6.203125 
Q 39.59375 6.203125 44.109375 3.25 
Q 48.640625 0.296875 48.640625 -5.515625 
Q 48.640625 -14.3125 40.359375 -19.390625 
Q 32.078125 -24.46875 21.53125 -24.46875 
Q 12.890625 -24.46875 7.734375 -21.5625 
Q 2.59375 -18.65625 2.59375 -14.015625 
Q 2.59375 -8.40625 10.546875 -1.421875 
Q 5.515625 0.484375 5.515625 3.65625 
Q 5.515625 8.109375 12.5 16.0625 
Q 4.890625 20.703125 4.890625 29.5 
Q 4.890625 37.109375 10.28125 41.75 
Q 15.671875 46.390625 24.21875 46.390625 
Q 26.46875 46.390625 30.328125 45.796875 
Q 33.984375 45.125 36.03125 45.125 
Q 43.40625 45.125 49.609375 45.265625 
L 49.859375 43.265625 
z
" id="Constantia-103"/>
      </defs>
      <use xlink:href="#Constantia-55"/>
      <use x="48.339844" xlink:href="#Constantia-32"/>
      <use x="70.9375" xlink:href="#Constantia-100"/>
      <use x="127.675781" xlink:href="#Constantia-97"/>
      <use x="175.673828" xlink:href="#Constantia-121"/>
      <use x="223.818359" xlink:href="#Constantia-115"/>
      <use x="264.296875" xlink:href="#Constantia-32"/>
      <use x="289.394531" xlink:href="#Constantia-109"/>
      <use x="376.015625" xlink:href="#Constantia-111"/>
      <use x="430.068359" xlink:href="#Constantia-118"/>
      <use x="478.359375" xlink:href="#Constantia-105"/>
      <use x="506.679688" xlink:href="#Constantia-110"/>
      <use x="564.882812" xlink:href="#Constantia-103"/>
      <use x="615.664062" xlink:href="#Constantia-32"/>
      <use x="638.261719" xlink:href="#Constantia-97"/>
      <use x="686.259766" xlink:href="#Constantia-118"/>
      <use x="734.550781" xlink:href="#Constantia-103"/>
     </g>
    </g>
   </g>
  </g>
  <g id="axes_2">
   <g id="line2d_50">
    <path clip-path="url(#p3aa9afdd48)" d="M 273.912565 81.853909 
L 306.477922 184.048921 
L 317.333041 301.938595 
L 328.18816 447.423718 
L 339.043279 418.550332 
L 349.898398 409.205419 
L 360.753517 400.299797 
L 371.608636 433.685897 
L 382.463754 547.781696 
L 393.318873 545.864791 
L 404.173992 549.219375 
L 415.029111 560.601 
L 425.88423 566.391651 
L 436.739349 592.868905 
L 447.594468 552.65383 
L 458.449587 583.763605 
L 469.304706 572.981013 
L 480.159825 604.290466 
L 491.014943 613.555508 
L 501.870062 608.204147 
L 512.725181 585.440897 
L 523.5803 607.006082 
L 534.435419 599.458267 
L 545.290538 604.210595 
L 556.145657 587.717222 
L 567.000776 570.145591 
L 588.711014 543.18911 
L 599.566133 549.179439 
L 610.421251 565.792618 
L 621.27637 578.012889 
L 632.131489 568.268621 
L 642.986608 558.204868 
L 653.841727 565.792618 
L 664.696846 604.050853 
L 675.551965 604.60995 
L 686.407084 601.774528 
L 697.262203 602.573238 
L 708.117322 603.611562 
L 718.972441 599.018976 
L 729.827559 609.1626 
L 740.682678 601.854399 
L 751.537797 608.683374 
L 762.392916 613.196088 
L 773.248035 604.689821 
L 784.103154 604.130724 
L 794.958273 612.55712 
L 805.813392 600.975817 
L 816.668511 613.795121 
L 827.52363 611.638603 
L 849.233867 594.066971 
L 860.088986 587.717222 
L 870.944105 576.175855 
L 881.799224 597.301749 
L 892.654343 587.677287 
L 903.509462 582.285991 
L 914.364581 596.303361 
L 925.2197 615.672091 
L 936.074819 609.561955 
L 946.929938 608.204147 
L 957.785057 574.498563 
L 968.640175 591.910453 
L 979.495294 581.367474 
L 990.350413 577.773276 
L 1001.205532 579.690182 
L 1012.060651 567.230297 
L 1022.91577 569.786171 
L 1033.770889 576.255726 
L 1044.626008 576.095984 
L 1055.481127 579.290826 
L 1066.336246 580.68857 
L 1077.191364 577.972954 
L 1088.046483 583.923347 
L 1098.901602 555.648995 
L 1109.756721 548.540471 
L 1120.61184 536.000716 
L 1131.466959 530.050322 
L 1142.322078 524.099929 
L 1153.177197 523.061605 
L 1164.032316 505.370167 
L 1174.887435 510.082559 
L 1185.742554 511.600109 
L 1196.597672 509.124106 
L 1207.452791 497.542804 
L 1218.30791 493.070025 
L 1229.163029 488.197891 
L 1240.018148 485.442339 
L 1250.873267 469.787613 
L 1261.728386 439.516484 
L 1272.583505 406.210255 
L 1283.438624 393.430886 
L 1294.293743 383.367134 
L 1305.148862 377.256998 
" style="fill:none;stroke:#f08080;stroke-dasharray:11.1,4.8;stroke-dashoffset:0;stroke-width:3;"/>
    <g clip-path="url(#p3aa9afdd48)">
     <use style="fill:#f08080;stroke:#f08080;" x="273.912565" xlink:href="#mb663ad63cc" y="81.853909"/>
     <use style="fill:#f08080;stroke:#f08080;" x="306.477922" xlink:href="#mb663ad63cc" y="184.048921"/>
     <use style="fill:#f08080;stroke:#f08080;" x="317.333041" xlink:href="#mb663ad63cc" y="301.938595"/>
     <use style="fill:#f08080;stroke:#f08080;" x="328.18816" xlink:href="#mb663ad63cc" y="447.423718"/>
     <use style="fill:#f08080;stroke:#f08080;" x="339.043279" xlink:href="#mb663ad63cc" y="418.550332"/>
     <use style="fill:#f08080;stroke:#f08080;" x="349.898398" xlink:href="#mb663ad63cc" y="409.205419"/>
     <use style="fill:#f08080;stroke:#f08080;" x="360.753517" xlink:href="#mb663ad63cc" y="400.299797"/>
     <use style="fill:#f08080;stroke:#f08080;" x="371.608636" xlink:href="#mb663ad63cc" y="433.685897"/>
     <use style="fill:#f08080;stroke:#f08080;" x="382.463754" xlink:href="#mb663ad63cc" y="547.781696"/>
     <use style="fill:#f08080;stroke:#f08080;" x="393.318873" xlink:href="#mb663ad63cc" y="545.864791"/>
     <use style="fill:#f08080;stroke:#f08080;" x="404.173992" xlink:href="#mb663ad63cc" y="549.219375"/>
     <use style="fill:#f08080;stroke:#f08080;" x="415.029111" xlink:href="#mb663ad63cc" y="560.601"/>
     <use style="fill:#f08080;stroke:#f08080;" x="425.88423" xlink:href="#mb663ad63cc" y="566.391651"/>
     <use style="fill:#f08080;stroke:#f08080;" x="436.739349" xlink:href="#mb663ad63cc" y="592.868905"/>
     <use style="fill:#f08080;stroke:#f08080;" x="447.594468" xlink:href="#mb663ad63cc" y="552.65383"/>
     <use style="fill:#f08080;stroke:#f08080;" x="458.449587" xlink:href="#mb663ad63cc" y="583.763605"/>
     <use style="fill:#f08080;stroke:#f08080;" x="469.304706" xlink:href="#mb663ad63cc" y="572.981013"/>
     <use style="fill:#f08080;stroke:#f08080;" x="480.159825" xlink:href="#mb663ad63cc" y="604.290466"/>
     <use style="fill:#f08080;stroke:#f08080;" x="491.014943" xlink:href="#mb663ad63cc" y="613.555508"/>
     <use style="fill:#f08080;stroke:#f08080;" x="501.870062" xlink:href="#mb663ad63cc" y="608.204147"/>
     <use style="fill:#f08080;stroke:#f08080;" x="512.725181" xlink:href="#mb663ad63cc" y="585.440897"/>
     <use style="fill:#f08080;stroke:#f08080;" x="523.5803" xlink:href="#mb663ad63cc" y="607.006082"/>
     <use style="fill:#f08080;stroke:#f08080;" x="534.435419" xlink:href="#mb663ad63cc" y="599.458267"/>
     <use style="fill:#f08080;stroke:#f08080;" x="545.290538" xlink:href="#mb663ad63cc" y="604.210595"/>
     <use style="fill:#f08080;stroke:#f08080;" x="556.145657" xlink:href="#mb663ad63cc" y="587.717222"/>
     <use style="fill:#f08080;stroke:#f08080;" x="567.000776" xlink:href="#mb663ad63cc" y="570.145591"/>
     <use style="fill:#f08080;stroke:#f08080;" x="588.711014" xlink:href="#mb663ad63cc" y="543.18911"/>
     <use style="fill:#f08080;stroke:#f08080;" x="599.566133" xlink:href="#mb663ad63cc" y="549.179439"/>
     <use style="fill:#f08080;stroke:#f08080;" x="610.421251" xlink:href="#mb663ad63cc" y="565.792618"/>
     <use style="fill:#f08080;stroke:#f08080;" x="621.27637" xlink:href="#mb663ad63cc" y="578.012889"/>
     <use style="fill:#f08080;stroke:#f08080;" x="632.131489" xlink:href="#mb663ad63cc" y="568.268621"/>
     <use style="fill:#f08080;stroke:#f08080;" x="642.986608" xlink:href="#mb663ad63cc" y="558.204868"/>
     <use style="fill:#f08080;stroke:#f08080;" x="653.841727" xlink:href="#mb663ad63cc" y="565.792618"/>
     <use style="fill:#f08080;stroke:#f08080;" x="664.696846" xlink:href="#mb663ad63cc" y="604.050853"/>
     <use style="fill:#f08080;stroke:#f08080;" x="675.551965" xlink:href="#mb663ad63cc" y="604.60995"/>
     <use style="fill:#f08080;stroke:#f08080;" x="686.407084" xlink:href="#mb663ad63cc" y="601.774528"/>
     <use style="fill:#f08080;stroke:#f08080;" x="697.262203" xlink:href="#mb663ad63cc" y="602.573238"/>
     <use style="fill:#f08080;stroke:#f08080;" x="708.117322" xlink:href="#mb663ad63cc" y="603.611562"/>
     <use style="fill:#f08080;stroke:#f08080;" x="718.972441" xlink:href="#mb663ad63cc" y="599.018976"/>
     <use style="fill:#f08080;stroke:#f08080;" x="729.827559" xlink:href="#mb663ad63cc" y="609.1626"/>
     <use style="fill:#f08080;stroke:#f08080;" x="740.682678" xlink:href="#mb663ad63cc" y="601.854399"/>
     <use style="fill:#f08080;stroke:#f08080;" x="751.537797" xlink:href="#mb663ad63cc" y="608.683374"/>
     <use style="fill:#f08080;stroke:#f08080;" x="762.392916" xlink:href="#mb663ad63cc" y="613.196088"/>
     <use style="fill:#f08080;stroke:#f08080;" x="773.248035" xlink:href="#mb663ad63cc" y="604.689821"/>
     <use style="fill:#f08080;stroke:#f08080;" x="784.103154" xlink:href="#mb663ad63cc" y="604.130724"/>
     <use style="fill:#f08080;stroke:#f08080;" x="794.958273" xlink:href="#mb663ad63cc" y="612.55712"/>
     <use style="fill:#f08080;stroke:#f08080;" x="805.813392" xlink:href="#mb663ad63cc" y="600.975817"/>
     <use style="fill:#f08080;stroke:#f08080;" x="816.668511" xlink:href="#mb663ad63cc" y="613.795121"/>
     <use style="fill:#f08080;stroke:#f08080;" x="827.52363" xlink:href="#mb663ad63cc" y="611.638603"/>
     <use style="fill:#f08080;stroke:#f08080;" x="849.233867" xlink:href="#mb663ad63cc" y="594.066971"/>
     <use style="fill:#f08080;stroke:#f08080;" x="860.088986" xlink:href="#mb663ad63cc" y="587.717222"/>
     <use style="fill:#f08080;stroke:#f08080;" x="870.944105" xlink:href="#mb663ad63cc" y="576.175855"/>
     <use style="fill:#f08080;stroke:#f08080;" x="881.799224" xlink:href="#mb663ad63cc" y="597.301749"/>
     <use style="fill:#f08080;stroke:#f08080;" x="892.654343" xlink:href="#mb663ad63cc" y="587.677287"/>
     <use style="fill:#f08080;stroke:#f08080;" x="903.509462" xlink:href="#mb663ad63cc" y="582.285991"/>
     <use style="fill:#f08080;stroke:#f08080;" x="914.364581" xlink:href="#mb663ad63cc" y="596.303361"/>
     <use style="fill:#f08080;stroke:#f08080;" x="925.2197" xlink:href="#mb663ad63cc" y="615.672091"/>
     <use style="fill:#f08080;stroke:#f08080;" x="936.074819" xlink:href="#mb663ad63cc" y="609.561955"/>
     <use style="fill:#f08080;stroke:#f08080;" x="946.929938" xlink:href="#mb663ad63cc" y="608.204147"/>
     <use style="fill:#f08080;stroke:#f08080;" x="957.785057" xlink:href="#mb663ad63cc" y="574.498563"/>
     <use style="fill:#f08080;stroke:#f08080;" x="968.640175" xlink:href="#mb663ad63cc" y="591.910453"/>
     <use style="fill:#f08080;stroke:#f08080;" x="979.495294" xlink:href="#mb663ad63cc" y="581.367474"/>
     <use style="fill:#f08080;stroke:#f08080;" x="990.350413" xlink:href="#mb663ad63cc" y="577.773276"/>
     <use style="fill:#f08080;stroke:#f08080;" x="1001.205532" xlink:href="#mb663ad63cc" y="579.690182"/>
     <use style="fill:#f08080;stroke:#f08080;" x="1012.060651" xlink:href="#mb663ad63cc" y="567.230297"/>
     <use style="fill:#f08080;stroke:#f08080;" x="1022.91577" xlink:href="#mb663ad63cc" y="569.786171"/>
     <use style="fill:#f08080;stroke:#f08080;" x="1033.770889" xlink:href="#mb663ad63cc" y="576.255726"/>
     <use style="fill:#f08080;stroke:#f08080;" x="1044.626008" xlink:href="#mb663ad63cc" y="576.095984"/>
     <use style="fill:#f08080;stroke:#f08080;" x="1055.481127" xlink:href="#mb663ad63cc" y="579.290826"/>
     <use style="fill:#f08080;stroke:#f08080;" x="1066.336246" xlink:href="#mb663ad63cc" y="580.68857"/>
     <use style="fill:#f08080;stroke:#f08080;" x="1077.191364" xlink:href="#mb663ad63cc" y="577.972954"/>
     <use style="fill:#f08080;stroke:#f08080;" x="1088.046483" xlink:href="#mb663ad63cc" y="583.923347"/>
     <use style="fill:#f08080;stroke:#f08080;" x="1098.901602" xlink:href="#mb663ad63cc" y="555.648995"/>
     <use style="fill:#f08080;stroke:#f08080;" x="1109.756721" xlink:href="#mb663ad63cc" y="548.540471"/>
     <use style="fill:#f08080;stroke:#f08080;" x="1120.61184" xlink:href="#mb663ad63cc" y="536.000716"/>
     <use style="fill:#f08080;stroke:#f08080;" x="1131.466959" xlink:href="#mb663ad63cc" y="530.050322"/>
     <use style="fill:#f08080;stroke:#f08080;" x="1142.322078" xlink:href="#mb663ad63cc" y="524.099929"/>
     <use style="fill:#f08080;stroke:#f08080;" x="1153.177197" xlink:href="#mb663ad63cc" y="523.061605"/>
     <use style="fill:#f08080;stroke:#f08080;" x="1164.032316" xlink:href="#mb663ad63cc" y="505.370167"/>
     <use style="fill:#f08080;stroke:#f08080;" x="1174.887435" xlink:href="#mb663ad63cc" y="510.082559"/>
     <use style="fill:#f08080;stroke:#f08080;" x="1185.742554" xlink:href="#mb663ad63cc" y="511.600109"/>
     <use style="fill:#f08080;stroke:#f08080;" x="1196.597672" xlink:href="#mb663ad63cc" y="509.124106"/>
     <use style="fill:#f08080;stroke:#f08080;" x="1207.452791" xlink:href="#mb663ad63cc" y="497.542804"/>
     <use style="fill:#f08080;stroke:#f08080;" x="1218.30791" xlink:href="#mb663ad63cc" y="493.070025"/>
     <use style="fill:#f08080;stroke:#f08080;" x="1229.163029" xlink:href="#mb663ad63cc" y="488.197891"/>
     <use style="fill:#f08080;stroke:#f08080;" x="1240.018148" xlink:href="#mb663ad63cc" y="485.442339"/>
     <use style="fill:#f08080;stroke:#f08080;" x="1250.873267" xlink:href="#mb663ad63cc" y="469.787613"/>
     <use style="fill:#f08080;stroke:#f08080;" x="1261.728386" xlink:href="#mb663ad63cc" y="439.516484"/>
     <use style="fill:#f08080;stroke:#f08080;" x="1272.583505" xlink:href="#mb663ad63cc" y="406.210255"/>
     <use style="fill:#f08080;stroke:#f08080;" x="1283.438624" xlink:href="#mb663ad63cc" y="393.430886"/>
     <use style="fill:#f08080;stroke:#f08080;" x="1294.293743" xlink:href="#mb663ad63cc" y="383.367134"/>
     <use style="fill:#f08080;stroke:#f08080;" x="1305.148862" xlink:href="#mb663ad63cc" y="377.256998"/>
    </g>
   </g>
  </g>
  <g id="text_28">
   <!-- Usa -->
   <g transform="translate(671.515625 21.915625)scale(0.2 -0.2)">
    <defs>
     <path d="M 3.078125 68.359375 
Q 9.375 68.171875 15.1875 68.171875 
Q 21.046875 68.171875 27.296875 68.359375 
L 27.484375 66.265625 
L 21.4375 64.453125 
Q 20.265625 64.15625 20.171875 62.9375 
Q 20.125 61.234375 20.09375 59.203125 
Q 20.0625 57.171875 20.0625 54.78125 
L 20.0625 28.078125 
Q 20.0625 14.109375 24.5 8.71875 
Q 28.953125 3.328125 38.8125 3.328125 
Q 48.828125 3.328125 53.3125 8.890625 
Q 57.8125 14.453125 57.8125 27.484375 
L 57.8125 54.78125 
Q 57.8125 57.171875 57.78125 59.203125 
Q 57.765625 61.234375 57.671875 62.9375 
Q 57.625 64.0625 56.390625 64.453125 
L 50.6875 66.109375 
L 50.59375 68.359375 
Q 56.78125 68.171875 61.234375 68.171875 
Q 65.484375 68.171875 71.578125 68.359375 
L 71.78125 66.265625 
L 65.625 64.359375 
Q 64.5 63.96875 64.453125 62.703125 
Q 64.40625 61.078125 64.375 59.078125 
Q 64.359375 57.078125 64.359375 54.59375 
L 64.359375 29.546875 
Q 64.359375 13.53125 57.828125 5.859375 
Q 51.3125 -1.8125 37.3125 -1.8125 
Q 23.578125 -1.8125 17.03125 5.09375 
Q 10.5 12.015625 10.5 26.5625 
L 10.5 54.59375 
Q 10.5 57.078125 10.46875 59.078125 
Q 10.453125 61.078125 10.40625 62.703125 
Q 10.359375 63.96875 9.234375 64.359375 
L 3.171875 66.265625 
z
" id="Constantia-85"/>
    </defs>
    <use xlink:href="#Constantia-85"/>
    <use x="72.365234" xlink:href="#Constantia-115"/>
    <use x="112.84375" xlink:href="#Constantia-97"/>
   </g>
   <!-- Daily increase of NewDeaths -->
   <g transform="translate(563.729687 44.32125)scale(0.2 -0.2)">
    <defs>
     <path d="M 2.734375 68.5 
L 2.484375 70.125 
Q 11.140625 71.78125 18.40625 73.578125 
L 18.84375 73.1875 
Q 18.5625 65.234375 18.5625 51.078125 
L 18.5625 19.28125 
Q 18.5625 10.546875 18.65625 5.21875 
Q 18.796875 3.8125 20.015625 3.46875 
L 25.34375 1.859375 
L 25.484375 -0.140625 
Q 18.890625 0 14.109375 0 
Q 9.328125 0 2.78125 -0.140625 
L 2.59375 1.859375 
L 8.109375 3.46875 
Q 9.328125 3.859375 9.421875 5.03125 
Q 9.515625 10.546875 9.515625 17.328125 
L 9.515625 37.40625 
Q 9.515625 55.5625 9.328125 66.546875 
z
" id="Constantia-108"/>
     <path d="M 2.828125 42.96875 
Q 10.984375 44.53125 18.3125 46.390625 
L 18.796875 46.046875 
L 18.796875 40.328125 
Q 27.828125 46.390625 36.53125 46.390625 
L 36.765625 46.09375 
Q 35.359375 38.8125 33.984375 31 
L 32.03125 30.671875 
Q 30.671875 34.8125 29.390625 37.328125 
Q 28.125 39.84375 25.390625 39.84375 
Q 22.75 39.84375 18.796875 37.40625 
L 18.796875 16.265625 
Q 18.796875 8.640625 18.890625 5.375 
Q 18.953125 4.046875 20.125 3.71875 
L 26.609375 1.859375 
L 26.765625 -0.140625 
Q 19.140625 0 14.359375 0 
Q 9.578125 0 3.03125 -0.140625 
L 2.828125 1.859375 
L 8.5 3.515625 
Q 9.671875 3.90625 9.71875 5.03125 
Q 9.765625 7.125 9.765625 11.03125 
L 9.765625 27.6875 
Q 9.765625 35.640625 9.578125 39.546875 
L 3.078125 41.3125 
z
" id="Constantia-114"/>
     <path d="M 18.796875 39.9375 
L 18.796875 13.421875 
Q 18.796875 8.84375 18.890625 5.375 
Q 19 4.046875 20.171875 3.71875 
L 26.375 1.859375 
L 26.515625 -0.140625 
Q 19.140625 0 14.40625 0 
Q 9.578125 0 3.03125 -0.140625 
L 2.78125 1.859375 
L 8.25 3.421875 
Q 9.625 3.859375 9.671875 5.03125 
Q 9.765625 8.0625 9.765625 11.421875 
L 9.765625 40.1875 
L 3.125 41.84375 
L 2.78125 43.890625 
L 9.8125 44.484375 
L 9.8125 44.671875 
Q 9.8125 58.453125 15.796875 66.015625 
Q 21.78125 73.578125 31.84375 73.578125 
Q 36.765625 73.578125 41.359375 72.359375 
Q 39.703125 66.40625 38.53125 60.109375 
L 36.46875 59.71875 
L 33.296875 69.484375 
Q 32.171875 69.625 30.46875 69.625 
Q 24.859375 69.625 21.828125 64.59375 
Q 18.796875 59.578125 18.796875 46.1875 
L 18.796875 44.578125 
L 30.953125 44.578125 
L 30.953125 39.9375 
z
" id="Constantia-102"/>
    </defs>
    <use xlink:href="#Constantia-68"/>
    <use x="73.847656" xlink:href="#Constantia-97"/>
    <use x="121.845703" xlink:href="#Constantia-105"/>
    <use x="150.166016" xlink:href="#Constantia-108"/>
    <use x="178.242188" xlink:href="#Constantia-121"/>
    <use x="226.386719" xlink:href="#Constantia-32"/>
    <use x="251.484375" xlink:href="#Constantia-105"/>
    <use x="279.804688" xlink:href="#Constantia-110"/>
    <use x="338.007812" xlink:href="#Constantia-99"/>
    <use x="384.150391" xlink:href="#Constantia-114"/>
    <use x="422.480469" xlink:href="#Constantia-101"/>
    <use x="470.380859" xlink:href="#Constantia-97"/>
    <use x="518.378906" xlink:href="#Constantia-115"/>
    <use x="558.857422" xlink:href="#Constantia-101"/>
    <use x="606.757812" xlink:href="#Constantia-32"/>
    <use x="629.355469" xlink:href="#Constantia-111"/>
    <use x="683.408203" xlink:href="#Constantia-102"/>
    <use x="714.365234" xlink:href="#Constantia-32"/>
    <use x="739.462891" xlink:href="#Constantia-78"/>
    <use x="812.865234" xlink:href="#Constantia-101"/>
    <use x="860.765625" xlink:href="#Constantia-119"/>
    <use x="933.958984" xlink:href="#Constantia-68"/>
    <use x="1009.056641" xlink:href="#Constantia-101"/>
    <use x="1056.957031" xlink:href="#Constantia-97"/>
    <use x="1104.955078" xlink:href="#Constantia-116"/>
    <use x="1140.257812" xlink:href="#Constantia-104"/>
    <use x="1198.216797" xlink:href="#Constantia-115"/>
   </g>
  </g>
 </g>
 <defs>
  <clipPath id="p3aa9afdd48">
   <rect height="587.2" width="1287.2" x="80.8" y="55.163"/>
  </clipPath>
 </defs>
</svg>
