<?xml version="1.0" encoding="utf-8" standalone="no"?>
<!DOCTYPE svg PUBLIC "-//W3C//DTD SVG 1.1//EN"
  "http://www.w3.org/Graphics/SVG/1.1/DTD/svg11.dtd">
<!-- Created with matplotlib (https://matplotlib.org/) -->
<svg height="763.488pt" version="1.1" viewBox="0 0 1370.88 763.488" width="1370.88pt" xmlns="http://www.w3.org/2000/svg" xmlns:xlink="http://www.w3.org/1999/xlink">
 <metadata>
  <rdf:RDF xmlns:cc="http://creativecommons.org/ns#" xmlns:dc="http://purl.org/dc/elements/1.1/" xmlns:rdf="http://www.w3.org/1999/02/22-rdf-syntax-ns#">
   <cc:Work>
    <dc:type rdf:resource="http://purl.org/dc/dcmitype/StillImage"/>
    <dc:date>2020-11-15T18:40:48.144575</dc:date>
    <dc:format>image/svg+xml</dc:format>
    <dc:creator>
     <cc:Agent>
      <dc:title>Matplotlib v3.3.2, https://matplotlib.org/</dc:title>
     </cc:Agent>
    </dc:creator>
   </cc:Work>
  </rdf:RDF>
 </metadata>
 <defs>
  <style type="text/css">*{stroke-linecap:butt;stroke-linejoin:round;}</style>
 </defs>
 <g id="figure_1">
  <g id="patch_1">
   <path d="M -0 763.488 
L 1370.88 763.488 
L 1370.88 0 
L -0 0 
z
" style="fill:#ffffff;"/>
  </g>
  <g id="axes_1">
   <g id="patch_2">
    <path d="M 99.209375 643.203 
L 1363.68 643.203 
L 1363.68 69.21425 
L 99.209375 69.21425 
z
" style="fill:#ffffff;"/>
   </g>
   <g id="patch_3">
    <path clip-path="url(#pb54bfd28df)" d="M 0 0 
z
" style="fill:#ffa500;stroke:#000000;stroke-linejoin:miter;"/>
   </g>
   <g id="patch_4">
    <path clip-path="url(#pb54bfd28df)" d="M 99.209375 643.203 
L 109.448004 643.203 
L 109.448004 81.058098 
L 99.209375 81.058098 
z
" style="fill:#ffa500;stroke:#000000;stroke-linejoin:miter;"/>
   </g>
   <g id="patch_5">
    <path clip-path="url(#pb54bfd28df)" d="M 150.402518 643.203 
L 160.641146 643.203 
L 160.641146 338.339535 
L 150.402518 338.339535 
z
" style="fill:#ffa500;stroke:#000000;stroke-linejoin:miter;"/>
   </g>
   <g id="patch_6">
    <path clip-path="url(#pb54bfd28df)" d="M 201.59566 643.203 
L 211.834289 643.203 
L 211.834289 277.199894 
L 201.59566 277.199894 
z
" style="fill:#ffa500;stroke:#000000;stroke-linejoin:miter;"/>
   </g>
   <g id="patch_7">
    <path clip-path="url(#pb54bfd28df)" d="M 214.393946 643.203 
L 224.632575 643.203 
L 224.632575 561.765476 
L 214.393946 561.765476 
z
" style="fill:#ffa500;stroke:#000000;stroke-linejoin:miter;"/>
   </g>
   <g id="patch_8">
    <path clip-path="url(#pb54bfd28df)" d="M 227.192232 643.203 
L 237.43086 643.203 
L 237.43086 568.796018 
L 227.192232 568.796018 
z
" style="fill:#ffa500;stroke:#000000;stroke-linejoin:miter;"/>
   </g>
   <g id="patch_9">
    <path clip-path="url(#pb54bfd28df)" d="M 239.990517 643.203 
L 250.229146 643.203 
L 250.229146 592.122921 
L 239.990517 592.122921 
z
" style="fill:#ffa500;stroke:#000000;stroke-linejoin:miter;"/>
   </g>
   <g id="patch_10">
    <path clip-path="url(#pb54bfd28df)" d="M 252.788803 643.203 
L 263.027432 643.203 
L 263.027432 565.447204 
L 252.788803 565.447204 
z
" style="fill:#ffa500;stroke:#000000;stroke-linejoin:miter;"/>
   </g>
   <g id="patch_11">
    <path clip-path="url(#pb54bfd28df)" d="M 291.18366 643.203 
L 301.422289 643.203 
L 301.422289 392.732349 
L 291.18366 392.732349 
z
" style="fill:#ffa500;stroke:#000000;stroke-linejoin:miter;"/>
   </g>
   <g id="patch_12">
    <path clip-path="url(#pb54bfd28df)" d="M 303.981946 643.203 
L 314.220574 643.203 
L 314.220574 611.07111 
L 303.981946 611.07111 
z
" style="fill:#ffa500;stroke:#000000;stroke-linejoin:miter;"/>
   </g>
   <g id="patch_13">
    <path clip-path="url(#pb54bfd28df)" d="M 316.780232 643.203 
L 327.01886 643.203 
L 327.01886 545.966026 
L 316.780232 545.966026 
z
" style="fill:#ffa500;stroke:#000000;stroke-linejoin:miter;"/>
   </g>
   <g id="patch_14">
    <path clip-path="url(#pb54bfd28df)" d="M 329.578517 643.203 
L 339.817146 643.203 
L 339.817146 565.461964 
L 329.578517 565.461964 
z
" style="fill:#ffa500;stroke:#000000;stroke-linejoin:miter;"/>
   </g>
   <g id="patch_15">
    <path clip-path="url(#pb54bfd28df)" d="M 342.376803 643.203 
L 352.615431 643.203 
L 352.615431 562.193508 
L 342.376803 562.193508 
z
" style="fill:#ffa500;stroke:#000000;stroke-linejoin:miter;"/>
   </g>
   <g id="patch_16">
    <path clip-path="url(#pb54bfd28df)" d="M 355.175089 643.203 
L 365.413717 643.203 
L 365.413717 564.801057 
L 355.175089 564.801057 
z
" style="fill:#ffa500;stroke:#000000;stroke-linejoin:miter;"/>
   </g>
   <g id="patch_17">
    <path clip-path="url(#pb54bfd28df)" d="M 367.973374 643.203 
L 378.212003 643.203 
L 378.212003 615.459664 
L 367.973374 615.459664 
z
" style="fill:#ffa500;stroke:#000000;stroke-linejoin:miter;"/>
   </g>
   <g id="patch_18">
    <path clip-path="url(#pb54bfd28df)" d="M 380.77166 643.203 
L 391.010288 643.203 
L 391.010288 535.0422 
L 380.77166 535.0422 
z
" style="fill:#ffa500;stroke:#000000;stroke-linejoin:miter;"/>
   </g>
   <g id="patch_19">
    <path clip-path="url(#pb54bfd28df)" d="M 393.569946 643.203 
L 403.808574 643.203 
L 403.808574 612.560201 
L 393.569946 612.560201 
z
" style="fill:#ffa500;stroke:#000000;stroke-linejoin:miter;"/>
   </g>
   <g id="patch_20">
    <path clip-path="url(#pb54bfd28df)" d="M 406.368231 643.203 
L 416.60686 643.203 
L 416.60686 542.641811 
L 406.368231 542.641811 
z
" style="fill:#ffa500;stroke:#000000;stroke-linejoin:miter;"/>
   </g>
   <g id="patch_21">
    <path clip-path="url(#pb54bfd28df)" d="M 419.166517 643.203 
L 429.405145 643.203 
L 429.405145 575.406729 
L 419.166517 575.406729 
z
" style="fill:#ffa500;stroke:#000000;stroke-linejoin:miter;"/>
   </g>
   <g id="patch_22">
    <path clip-path="url(#pb54bfd28df)" d="M 431.964803 643.203 
L 442.203431 643.203 
L 442.203431 588.170599 
L 431.964803 588.170599 
z
" style="fill:#ffa500;stroke:#000000;stroke-linejoin:miter;"/>
   </g>
   <g id="patch_23">
    <path clip-path="url(#pb54bfd28df)" d="M 444.763088 643.203 
L 455.001717 643.203 
L 455.001717 614.283807 
L 444.763088 614.283807 
z
" style="fill:#ffa500;stroke:#000000;stroke-linejoin:miter;"/>
   </g>
   <g id="patch_24">
    <path clip-path="url(#pb54bfd28df)" d="M 457.561374 643.203 
L 467.800003 643.203 
L 467.800003 505.284983 
L 457.561374 505.284983 
z
" style="fill:#ffa500;stroke:#000000;stroke-linejoin:miter;"/>
   </g>
   <g id="patch_25">
    <path clip-path="url(#pb54bfd28df)" d="M 470.35966 643.203 
L 480.598288 643.203 
L 480.598288 617.770378 
L 470.35966 617.770378 
z
" style="fill:#ffa500;stroke:#000000;stroke-linejoin:miter;"/>
   </g>
   <g id="patch_26">
    <path clip-path="url(#pb54bfd28df)" d="M 483.157945 643.203 
L 493.396574 643.203 
L 493.396574 569.616002 
L 483.157945 569.616002 
z
" style="fill:#ffa500;stroke:#000000;stroke-linejoin:miter;"/>
   </g>
   <g id="patch_27">
    <path clip-path="url(#pb54bfd28df)" d="M 495.956231 643.203 
L 506.19486 643.203 
L 506.19486 612.560201 
L 495.956231 612.560201 
z
" style="fill:#ffa500;stroke:#000000;stroke-linejoin:miter;"/>
   </g>
   <g id="patch_28">
    <path clip-path="url(#pb54bfd28df)" d="M 508.754517 643.203 
L 518.993145 643.203 
L 518.993145 592.326277 
L 508.754517 592.326277 
z
" style="fill:#ffa500;stroke:#000000;stroke-linejoin:miter;"/>
   </g>
   <g id="patch_29">
    <path clip-path="url(#pb54bfd28df)" d="M 521.552802 643.203 
L 531.791431 643.203 
L 531.791431 591.68505 
L 521.552802 591.68505 
z
" style="fill:#ffa500;stroke:#000000;stroke-linejoin:miter;"/>
   </g>
   <g id="patch_30">
    <path clip-path="url(#pb54bfd28df)" d="M 534.351088 643.203 
L 544.589717 643.203 
L 544.589717 562.544461 
L 534.351088 562.544461 
z
" style="fill:#ffa500;stroke:#000000;stroke-linejoin:miter;"/>
   </g>
   <g id="patch_31">
    <path clip-path="url(#pb54bfd28df)" d="M 547.149374 643.203 
L 557.388002 643.203 
L 557.388002 563.862995 
L 547.149374 563.862995 
z
" style="fill:#ffa500;stroke:#000000;stroke-linejoin:miter;"/>
   </g>
   <g id="patch_32">
    <path clip-path="url(#pb54bfd28df)" d="M 559.947659 643.203 
L 570.186288 643.203 
L 570.186288 580.069157 
L 559.947659 580.069157 
z
" style="fill:#ffa500;stroke:#000000;stroke-linejoin:miter;"/>
   </g>
   <g id="patch_33">
    <path clip-path="url(#pb54bfd28df)" d="M 572.745945 643.203 
L 582.984574 643.203 
L 582.984574 595.640652 
L 572.745945 595.640652 
z
" style="fill:#ffa500;stroke:#000000;stroke-linejoin:miter;"/>
   </g>
   <g id="patch_34">
    <path clip-path="url(#pb54bfd28df)" d="M 585.544231 643.203 
L 595.782859 643.203 
L 595.782859 583.458971 
L 585.544231 583.458971 
z
" style="fill:#ffa500;stroke:#000000;stroke-linejoin:miter;"/>
   </g>
   <g id="patch_35">
    <path clip-path="url(#pb54bfd28df)" d="M 598.342516 643.203 
L 608.581145 643.203 
L 608.581145 577.992958 
L 598.342516 577.992958 
z
" style="fill:#ffa500;stroke:#000000;stroke-linejoin:miter;"/>
   </g>
   <g id="patch_36">
    <path clip-path="url(#pb54bfd28df)" d="M 623.939088 643.203 
L 634.177716 643.203 
L 634.177716 493.242699 
L 623.939088 493.242699 
z
" style="fill:#ffa500;stroke:#000000;stroke-linejoin:miter;"/>
   </g>
   <g id="patch_37">
    <path clip-path="url(#pb54bfd28df)" d="M 636.737373 643.203 
L 646.976002 643.203 
L 646.976002 552.504578 
L 636.737373 552.504578 
z
" style="fill:#ffa500;stroke:#000000;stroke-linejoin:miter;"/>
   </g>
   <g id="patch_38">
    <path clip-path="url(#pb54bfd28df)" d="M 649.535659 643.203 
L 659.774288 643.203 
L 659.774288 577.973278 
L 649.535659 577.973278 
z
" style="fill:#ffa500;stroke:#000000;stroke-linejoin:miter;"/>
   </g>
   <g id="patch_39">
    <path clip-path="url(#pb54bfd28df)" d="M 662.333945 643.203 
L 672.572573 643.203 
L 672.572573 594.418876 
L 662.333945 594.418876 
z
" style="fill:#ffa500;stroke:#000000;stroke-linejoin:miter;"/>
   </g>
   <g id="patch_40">
    <path clip-path="url(#pb54bfd28df)" d="M 675.132231 643.203 
L 685.370859 643.203 
L 685.370859 575.434608 
L 675.132231 575.434608 
z
" style="fill:#ffa500;stroke:#000000;stroke-linejoin:miter;"/>
   </g>
   <g id="patch_41">
    <path clip-path="url(#pb54bfd28df)" d="M 687.930516 643.203 
L 698.169145 643.203 
L 698.169145 560.824135 
L 687.930516 560.824135 
z
" style="fill:#ffa500;stroke:#000000;stroke-linejoin:miter;"/>
   </g>
   <g id="patch_42">
    <path clip-path="url(#pb54bfd28df)" d="M 700.728802 643.203 
L 710.96743 643.203 
L 710.96743 565.65876 
L 700.728802 565.65876 
z
" style="fill:#ffa500;stroke:#000000;stroke-linejoin:miter;"/>
   </g>
   <g id="patch_43">
    <path clip-path="url(#pb54bfd28df)" d="M 713.527088 643.203 
L 723.765716 643.203 
L 723.765716 564.851896 
L 713.527088 564.851896 
z
" style="fill:#ffa500;stroke:#000000;stroke-linejoin:miter;"/>
   </g>
   <g id="patch_44">
    <path clip-path="url(#pb54bfd28df)" d="M 726.325373 643.203 
L 736.564002 643.203 
L 736.564002 550.426738 
L 726.325373 550.426738 
z
" style="fill:#ffa500;stroke:#000000;stroke-linejoin:miter;"/>
   </g>
   <g id="patch_45">
    <path clip-path="url(#pb54bfd28df)" d="M 739.123659 643.203 
L 749.362287 643.203 
L 749.362287 562.026231 
L 739.123659 562.026231 
z
" style="fill:#ffa500;stroke:#000000;stroke-linejoin:miter;"/>
   </g>
   <g id="patch_46">
    <path clip-path="url(#pb54bfd28df)" d="M 751.921945 643.203 
L 762.160573 643.203 
L 762.160573 604.206204 
L 751.921945 604.206204 
z
" style="fill:#ffa500;stroke:#000000;stroke-linejoin:miter;"/>
   </g>
   <g id="patch_47">
    <path clip-path="url(#pb54bfd28df)" d="M 764.72023 643.203 
L 774.958859 643.203 
L 774.958859 572.075954 
L 764.72023 572.075954 
z
" style="fill:#ffa500;stroke:#000000;stroke-linejoin:miter;"/>
   </g>
   <g id="patch_48">
    <path clip-path="url(#pb54bfd28df)" d="M 777.518516 643.203 
L 787.757144 643.203 
L 787.757144 561.189847 
L 777.518516 561.189847 
z
" style="fill:#ffa500;stroke:#000000;stroke-linejoin:miter;"/>
   </g>
   <g id="patch_49">
    <path clip-path="url(#pb54bfd28df)" d="M 790.316802 643.203 
L 800.55543 643.203 
L 800.55543 571.652842 
L 790.316802 571.652842 
z
" style="fill:#ffa500;stroke:#000000;stroke-linejoin:miter;"/>
   </g>
   <g id="patch_50">
    <path clip-path="url(#pb54bfd28df)" d="M 803.115087 643.203 
L 813.353716 643.203 
L 813.353716 551.85351 
L 803.115087 551.85351 
z
" style="fill:#ffa500;stroke:#000000;stroke-linejoin:miter;"/>
   </g>
   <g id="patch_51">
    <path clip-path="url(#pb54bfd28df)" d="M 815.913373 643.203 
L 826.152002 643.203 
L 826.152002 559.736836 
L 815.913373 559.736836 
z
" style="fill:#ffa500;stroke:#000000;stroke-linejoin:miter;"/>
   </g>
   <g id="patch_52">
    <path clip-path="url(#pb54bfd28df)" d="M 828.711659 643.203 
L 838.950287 643.203 
L 838.950287 579.778883 
L 828.711659 579.778883 
z
" style="fill:#ffa500;stroke:#000000;stroke-linejoin:miter;"/>
   </g>
   <g id="patch_53">
    <path clip-path="url(#pb54bfd28df)" d="M 841.509944 643.203 
L 851.748573 643.203 
L 851.748573 568.551663 
L 841.509944 568.551663 
z
" style="fill:#ffa500;stroke:#000000;stroke-linejoin:miter;"/>
   </g>
   <g id="patch_54">
    <path clip-path="url(#pb54bfd28df)" d="M 854.30823 643.203 
L 864.546859 643.203 
L 864.546859 571.556084 
L 854.30823 571.556084 
z
" style="fill:#ffa500;stroke:#000000;stroke-linejoin:miter;"/>
   </g>
   <g id="patch_55">
    <path clip-path="url(#pb54bfd28df)" d="M 867.106516 643.203 
L 877.345144 643.203 
L 877.345144 561.204607 
L 867.106516 561.204607 
z
" style="fill:#ffa500;stroke:#000000;stroke-linejoin:miter;"/>
   </g>
   <g id="patch_56">
    <path clip-path="url(#pb54bfd28df)" d="M 879.904801 643.203 
L 890.14343 643.203 
L 890.14343 537.456233 
L 879.904801 537.456233 
z
" style="fill:#ffa500;stroke:#000000;stroke-linejoin:miter;"/>
   </g>
   <g id="patch_57">
    <path clip-path="url(#pb54bfd28df)" d="M 892.703087 643.203 
L 902.941716 643.203 
L 902.941716 555.094087 
L 892.703087 555.094087 
z
" style="fill:#ffa500;stroke:#000000;stroke-linejoin:miter;"/>
   </g>
   <g id="patch_58">
    <path clip-path="url(#pb54bfd28df)" d="M 905.501373 643.203 
L 915.740001 643.203 
L 915.740001 556.430661 
L 905.501373 556.430661 
z
" style="fill:#ffa500;stroke:#000000;stroke-linejoin:miter;"/>
   </g>
   <g id="patch_59">
    <path clip-path="url(#pb54bfd28df)" d="M 931.097944 643.203 
L 941.336573 643.203 
L 941.336573 480.206595 
L 931.097944 480.206595 
z
" style="fill:#ffa500;stroke:#000000;stroke-linejoin:miter;"/>
   </g>
   <g id="patch_60">
    <path clip-path="url(#pb54bfd28df)" d="M 943.89623 643.203 
L 954.134858 643.203 
L 954.134858 569.079733 
L 943.89623 569.079733 
z
" style="fill:#ffa500;stroke:#000000;stroke-linejoin:miter;"/>
   </g>
   <g id="patch_61">
    <path clip-path="url(#pb54bfd28df)" d="M 956.694515 643.203 
L 966.933144 643.203 
L 966.933144 547.048405 
L 956.694515 547.048405 
z
" style="fill:#ffa500;stroke:#000000;stroke-linejoin:miter;"/>
   </g>
   <g id="patch_62">
    <path clip-path="url(#pb54bfd28df)" d="M 969.492801 643.203 
L 979.73143 643.203 
L 979.73143 605.345982 
L 969.492801 605.345982 
z
" style="fill:#ffa500;stroke:#000000;stroke-linejoin:miter;"/>
   </g>
   <g id="patch_63">
    <path clip-path="url(#pb54bfd28df)" d="M 982.291087 643.203 
L 992.529715 643.203 
L 992.529715 480.819943 
L 982.291087 480.819943 
z
" style="fill:#ffa500;stroke:#000000;stroke-linejoin:miter;"/>
   </g>
   <g id="patch_64">
    <path clip-path="url(#pb54bfd28df)" d="M 995.089372 643.203 
L 1005.328001 643.203 
L 1005.328001 516.608961 
L 995.089372 516.608961 
z
" style="fill:#ffa500;stroke:#000000;stroke-linejoin:miter;"/>
   </g>
   <g id="patch_65">
    <path clip-path="url(#pb54bfd28df)" d="M 1007.887658 643.203 
L 1018.126287 643.203 
L 1018.126287 578.025757 
L 1007.887658 578.025757 
z
" style="fill:#ffa500;stroke:#000000;stroke-linejoin:miter;"/>
   </g>
   <g id="patch_66">
    <path clip-path="url(#pb54bfd28df)" d="M 1020.685944 643.203 
L 1030.924572 643.203 
L 1030.924572 577.519007 
L 1020.685944 577.519007 
z
" style="fill:#ffa500;stroke:#000000;stroke-linejoin:miter;"/>
   </g>
   <g id="patch_67">
    <path clip-path="url(#pb54bfd28df)" d="M 1033.48423 643.203 
L 1043.722858 643.203 
L 1043.722858 520.446486 
L 1033.48423 520.446486 
z
" style="fill:#ffa500;stroke:#000000;stroke-linejoin:miter;"/>
   </g>
   <g id="patch_68">
    <path clip-path="url(#pb54bfd28df)" d="M 1046.282515 643.203 
L 1056.521144 643.203 
L 1056.521144 539.560311 
L 1046.282515 539.560311 
z
" style="fill:#ffa500;stroke:#000000;stroke-linejoin:miter;"/>
   </g>
   <g id="patch_69">
    <path clip-path="url(#pb54bfd28df)" d="M 1059.080801 643.203 
L 1069.319429 643.203 
L 1069.319429 511.712017 
L 1059.080801 511.712017 
z
" style="fill:#ffa500;stroke:#000000;stroke-linejoin:miter;"/>
   </g>
   <g id="patch_70">
    <path clip-path="url(#pb54bfd28df)" d="M 1071.879087 643.203 
L 1082.117715 643.203 
L 1082.117715 521.455066 
L 1071.879087 521.455066 
z
" style="fill:#ffa500;stroke:#000000;stroke-linejoin:miter;"/>
   </g>
   <g id="patch_71">
    <path clip-path="url(#pb54bfd28df)" d="M 1084.677372 643.203 
L 1094.916001 643.203 
L 1094.916001 458.609858 
L 1084.677372 458.609858 
z
" style="fill:#ffa500;stroke:#000000;stroke-linejoin:miter;"/>
   </g>
   <g id="patch_72">
    <path clip-path="url(#pb54bfd28df)" d="M 1097.475658 643.203 
L 1107.714286 643.203 
L 1107.714286 532.424811 
L 1097.475658 532.424811 
z
" style="fill:#ffa500;stroke:#000000;stroke-linejoin:miter;"/>
   </g>
   <g id="patch_73">
    <path clip-path="url(#pb54bfd28df)" d="M 1110.273944 643.203 
L 1120.512572 643.203 
L 1120.512572 547.927427 
L 1110.273944 547.927427 
z
" style="fill:#ffa500;stroke:#000000;stroke-linejoin:miter;"/>
   </g>
   <g id="patch_74">
    <path clip-path="url(#pb54bfd28df)" d="M 1123.072229 643.203 
L 1133.310858 643.203 
L 1133.310858 507.338223 
L 1123.072229 507.338223 
z
" style="fill:#ffa500;stroke:#000000;stroke-linejoin:miter;"/>
   </g>
   <g id="patch_75">
    <path clip-path="url(#pb54bfd28df)" d="M 1135.870515 643.203 
L 1146.109143 643.203 
L 1146.109143 520.031574 
L 1135.870515 520.031574 
z
" style="fill:#ffa500;stroke:#000000;stroke-linejoin:miter;"/>
   </g>
   <g id="patch_76">
    <path clip-path="url(#pb54bfd28df)" d="M 1148.668801 643.203 
L 1158.907429 643.203 
L 1158.907429 493.100022 
L 1148.668801 493.100022 
z
" style="fill:#ffa500;stroke:#000000;stroke-linejoin:miter;"/>
   </g>
   <g id="patch_77">
    <path clip-path="url(#pb54bfd28df)" d="M 1161.467086 643.203 
L 1171.705715 643.203 
L 1171.705715 495.73709 
L 1161.467086 495.73709 
z
" style="fill:#ffa500;stroke:#000000;stroke-linejoin:miter;"/>
   </g>
   <g id="patch_78">
    <path clip-path="url(#pb54bfd28df)" d="M 1174.265372 643.203 
L 1184.504001 643.203 
L 1184.504001 472.77262 
L 1174.265372 472.77262 
z
" style="fill:#ffa500;stroke:#000000;stroke-linejoin:miter;"/>
   </g>
   <g id="patch_79">
    <path clip-path="url(#pb54bfd28df)" d="M 1187.063658 643.203 
L 1197.302286 643.203 
L 1197.302286 523.080274 
L 1187.063658 523.080274 
z
" style="fill:#ffa500;stroke:#000000;stroke-linejoin:miter;"/>
   </g>
   <g id="patch_80">
    <path clip-path="url(#pb54bfd28df)" d="M 1199.861943 643.203 
L 1210.100572 643.203 
L 1210.100572 525.092515 
L 1199.861943 525.092515 
z
" style="fill:#ffa500;stroke:#000000;stroke-linejoin:miter;"/>
   </g>
   <g id="patch_81">
    <path clip-path="url(#pb54bfd28df)" d="M 1212.660229 643.203 
L 1222.898858 643.203 
L 1222.898858 486.372874 
L 1212.660229 486.372874 
z
" style="fill:#ffa500;stroke:#000000;stroke-linejoin:miter;"/>
   </g>
   <g id="patch_82">
    <path clip-path="url(#pb54bfd28df)" d="M 1225.458515 643.203 
L 1235.697143 643.203 
L 1235.697143 425.661264 
L 1225.458515 425.661264 
z
" style="fill:#ffa500;stroke:#000000;stroke-linejoin:miter;"/>
   </g>
   <g id="patch_83">
    <path clip-path="url(#pb54bfd28df)" d="M 1238.2568 643.203 
L 1248.495429 643.203 
L 1248.495429 443.612352 
L 1238.2568 443.612352 
z
" style="fill:#ffa500;stroke:#000000;stroke-linejoin:miter;"/>
   </g>
   <g id="patch_84">
    <path clip-path="url(#pb54bfd28df)" d="M 1251.055086 643.203 
L 1261.293715 643.203 
L 1261.293715 418.068213 
L 1251.055086 418.068213 
z
" style="fill:#ffa500;stroke:#000000;stroke-linejoin:miter;"/>
   </g>
   <g id="patch_85">
    <path clip-path="url(#pb54bfd28df)" d="M 1263.853372 643.203 
L 1274.092 643.203 
L 1274.092 418.884917 
L 1263.853372 418.884917 
z
" style="fill:#ffa500;stroke:#000000;stroke-linejoin:miter;"/>
   </g>
   <g id="patch_86">
    <path clip-path="url(#pb54bfd28df)" d="M 1276.651657 643.203 
L 1286.890286 643.203 
L 1286.890286 465.858516 
L 1276.651657 465.858516 
z
" style="fill:#ffa500;stroke:#000000;stroke-linejoin:miter;"/>
   </g>
   <g id="patch_87">
    <path clip-path="url(#pb54bfd28df)" d="M 1289.449943 643.203 
L 1299.688572 643.203 
L 1299.688572 466.824457 
L 1289.449943 466.824457 
z
" style="fill:#ffa500;stroke:#000000;stroke-linejoin:miter;"/>
   </g>
   <g id="patch_88">
    <path clip-path="url(#pb54bfd28df)" d="M 1302.248229 643.203 
L 1312.486857 643.203 
L 1312.486857 393.234179 
L 1302.248229 393.234179 
z
" style="fill:#ffa500;stroke:#000000;stroke-linejoin:miter;"/>
   </g>
   <g id="patch_89">
    <path clip-path="url(#pb54bfd28df)" d="M 1315.046514 643.203 
L 1325.285143 643.203 
L 1325.285143 420.966036 
L 1315.046514 420.966036 
z
" style="fill:#ffa500;stroke:#000000;stroke-linejoin:miter;"/>
   </g>
   <g id="patch_90">
    <path clip-path="url(#pb54bfd28df)" d="M 1327.8448 643.203 
L 1338.083429 643.203 
L 1338.083429 364.159189 
L 1327.8448 364.159189 
z
" style="fill:#ffa500;stroke:#000000;stroke-linejoin:miter;"/>
   </g>
   <g id="patch_91">
    <path clip-path="url(#pb54bfd28df)" d="M 1340.643086 643.203 
L 1350.881714 643.203 
L 1350.881714 328.443969 
L 1340.643086 328.443969 
z
" style="fill:#ffa500;stroke:#000000;stroke-linejoin:miter;"/>
   </g>
   <g id="patch_92">
    <path clip-path="url(#pb54bfd28df)" d="M 1353.441371 643.203 
L 1363.68 643.203 
L 1363.68 366.64702 
L 1353.441371 366.64702 
z
" style="fill:#ffa500;stroke:#000000;stroke-linejoin:miter;"/>
   </g>
   <g id="patch_93">
    <path d="M 99.209375 643.203 
L 99.209375 69.21425 
" style="fill:none;stroke:#000000;stroke-linecap:square;stroke-linejoin:miter;"/>
   </g>
   <g id="patch_94">
    <path d="M 1363.68 643.203 
L 1363.68 69.21425 
" style="fill:none;stroke:#000000;stroke-linecap:square;stroke-linejoin:miter;"/>
   </g>
   <g id="patch_95">
    <path d="M 99.209375 643.203 
L 1363.68 643.203 
" style="fill:none;stroke:#000000;stroke-linecap:square;stroke-linejoin:miter;"/>
   </g>
   <g id="patch_96">
    <path d="M 99.209375 69.21425 
L 1363.68 69.21425 
" style="fill:none;stroke:#000000;stroke-linecap:square;stroke-linejoin:miter;"/>
   </g>
   <g id="matplotlib.axis_1">
    <g id="xtick_1">
     <g id="line2d_1">
      <defs>
       <path d="M 0 0 
L 0 -4 
" id="ma319e0a748" style="stroke:#000000;stroke-width:0.5;"/>
      </defs>
      <g>
       <use style="stroke:#000000;stroke-width:0.5;" x="411.487546" xlink:href="#ma319e0a748" y="643.203"/>
      </g>
     </g>
     <g id="line2d_2">
      <defs>
       <path d="M 0 0 
L 0 4 
" id="m363492fc43" style="stroke:#000000;stroke-width:0.5;"/>
      </defs>
      <g>
       <use style="stroke:#000000;stroke-width:0.5;" x="411.487546" xlink:href="#m363492fc43" y="69.21425"/>
      </g>
     </g>
     <g id="text_1">
      <!--  -->
      <g transform="translate(411.487546 661.918625)scale(0.2 -0.2)"/>
      <!--  -->
      <g transform="translate(411.487546 684.32425)scale(0.2 -0.2)"/>
      <!--  -->
      <g transform="translate(411.487546 706.729875)scale(0.2 -0.2)"/>
      <!-- Sep -->
      <g transform="translate(396.003171 729.1355)scale(0.2 -0.2)">
       <defs>
        <path d="M 37.109375 63.921875 
Q 31.984375 65.625 27.6875 65.625 
Q 21.234375 65.625 17.40625 62.5 
Q 13.578125 59.375 13.578125 53.8125 
Q 13.578125 50.640625 14.921875 48.234375 
Q 16.265625 45.84375 18.53125 44.03125 
Q 20.796875 42.234375 23.671875 40.8125 
Q 26.5625 39.40625 29.640625 38.03125 
Q 33.015625 36.578125 36.1875 34.9375 
Q 39.359375 33.296875 41.921875 31.09375 
Q 44.484375 28.90625 46.015625 25.828125 
Q 47.5625 22.75 47.5625 18.65625 
Q 47.5625 8.9375 40.75 3.8125 
Q 33.9375 -1.3125 21.875 -1.3125 
Q 14.109375 -1.3125 4.6875 1.3125 
L 4.390625 1.703125 
L 6.78125 18.3125 
L 8.984375 18.65625 
L 12.40625 4.78125 
Q 17.578125 2.734375 23 2.734375 
Q 30.28125 2.734375 34.34375 5.953125 
Q 38.421875 9.1875 38.421875 15.140625 
Q 38.421875 18.265625 37.109375 20.625 
Q 35.796875 23 33.5625 24.703125 
Q 31.34375 26.421875 28.515625 27.8125 
Q 25.6875 29.203125 22.65625 30.5625 
Q 19.234375 32.03125 16.015625 33.734375 
Q 12.796875 35.453125 10.171875 37.71875 
Q 7.5625 39.984375 6 43.28125 
Q 4.4375 46.578125 4.4375 50.984375 
Q 4.4375 59.8125 11.046875 64.640625 
Q 17.671875 69.484375 28.609375 69.484375 
Q 36.328125 69.484375 44.78125 67.671875 
L 45.125 67.328125 
L 42.234375 52.09375 
L 40.28125 51.765625 
z
" id="Constantia-83"/>
        <path d="M 44.046875 3.46875 
Q 39.890625 0.875 35.5 -0.25 
Q 31.109375 -1.375 27.34375 -1.375 
Q 16.609375 -1.375 10.203125 4.75 
Q 3.8125 10.890625 3.8125 21.78125 
Q 3.8125 32.625 9.9375 39.5 
Q 16.0625 46.390625 26.3125 46.390625 
Q 34.90625 46.390625 39.6875 41.234375 
Q 44.484375 36.078125 44.484375 27 
Q 44.484375 25.640625 44.34375 24.21875 
L 13.375 24.21875 
Q 13.375 13.71875 18.3125 9.203125 
Q 23.25 4.6875 33.734375 4.6875 
Q 38.421875 4.6875 43.75 5.5625 
z
M 34.765625 28.265625 
L 34.765625 29.734375 
Q 34.765625 36.671875 32.546875 39.640625 
Q 30.328125 42.625 25.921875 42.625 
Q 20.125 42.625 17.046875 38.421875 
Q 13.96875 34.234375 13.578125 28.265625 
z
" id="Constantia-101"/>
        <path d="M 2.09375 41.3125 
L 1.859375 42.96875 
Q 10.0625 44.53125 17.328125 46.390625 
L 17.828125 46.046875 
L 17.828125 41.265625 
Q 25.296875 46.390625 32.28125 46.390625 
Q 41.359375 46.390625 46.703125 40.3125 
Q 52.046875 34.234375 52.046875 24.515625 
Q 52.046875 12.546875 45.15625 5.578125 
Q 38.28125 -1.375 25.640625 -1.375 
Q 21.875 -1.375 17.828125 -0.640625 
L 17.828125 -11.328125 
Q 17.828125 -16.21875 17.921875 -18.171875 
Q 18.015625 -19.625 19.234375 -19.921875 
L 25.640625 -21.734375 
L 25.78125 -23.734375 
Q 18.171875 -23.578125 13.375 -23.578125 
Q 8.59375 -23.578125 2.046875 -23.734375 
L 1.859375 -21.734375 
L 7.46875 -20.0625 
Q 8.640625 -19.734375 8.6875 -18.5625 
Q 8.796875 -14.984375 8.796875 -7.765625 
L 8.796875 12.109375 
Q 8.796875 33.734375 8.59375 39.453125 
z
M 17.828125 3.765625 
Q 22.078125 2.828125 26.03125 2.828125 
Q 34.125 2.828125 38.21875 7.90625 
Q 42.328125 12.984375 42.328125 22.46875 
Q 42.328125 31.390625 38.421875 35.9375 
Q 34.515625 40.484375 27.203125 40.484375 
Q 21.921875 40.484375 17.828125 38.328125 
z
" id="Constantia-112"/>
       </defs>
       <use xlink:href="#Constantia-83"/>
       <use x="50.976562" xlink:href="#Constantia-101"/>
       <use x="98.876953" xlink:href="#Constantia-112"/>
      </g>
      <!-- 2020 -->
      <g transform="translate(391.028171 751.541125)scale(0.2 -0.2)">
       <defs>
        <path d="M 42.390625 15.484375 
L 44.53125 15.875 
L 43.5625 0.203125 
L 43.21875 -0.140625 
Q 33.25 0 22.359375 0 
Q 12.25 0 3.765625 -0.140625 
L 3.421875 3.859375 
Q 8.015625 6.84375 11.671875 9.375 
Q 15.328125 11.921875 18.015625 14.109375 
Q 20.703125 16.265625 22.75 18.21875 
Q 24.8125 20.171875 26.203125 22.09375 
Q 27.59375 24.03125 28.3125 26.03125 
Q 29.046875 28.03125 29.046875 30.21875 
Q 29.046875 34.71875 25.78125 37.34375 
Q 22.515625 39.984375 17.78125 39.984375 
Q 12.203125 39.984375 6.546875 36.96875 
L 4.6875 40.1875 
Q 13.8125 46.390625 23 46.390625 
Q 29.890625 46.390625 34.453125 43.046875 
Q 39.015625 39.703125 39.015625 33.734375 
Q 39.015625 30.03125 37.34375 26.828125 
Q 35.6875 23.640625 32.515625 20.5625 
Q 29.34375 17.484375 24.75 14.328125 
Q 20.171875 11.1875 14.265625 7.671875 
L 14.3125 7.421875 
L 38.578125 7.421875 
z
" id="Constantia-50"/>
        <path d="M 13.671875 23.296875 
Q 13.671875 13.625 17.15625 8.109375 
Q 20.65625 2.59375 27.203125 2.59375 
Q 33.84375 2.59375 37.015625 7.515625 
Q 40.1875 12.453125 40.1875 22.609375 
Q 40.1875 32.5625 36.71875 37.609375 
Q 33.25 42.671875 26.65625 42.671875 
Q 19.921875 42.671875 16.796875 37.84375 
Q 13.671875 33.015625 13.671875 23.296875 
z
M 49.953125 23.6875 
Q 49.953125 12.25 43.4375 5.484375 
Q 36.921875 -1.265625 26.421875 -1.265625 
Q 16.3125 -1.265625 10.109375 4.9375 
Q 3.90625 11.140625 3.90625 22.015625 
Q 3.90625 33.203125 10.390625 39.796875 
Q 16.890625 46.390625 27.484375 46.390625 
Q 37.796875 46.390625 43.875 40.375 
Q 49.953125 34.375 49.953125 23.6875 
z
" id="Constantia-48"/>
       </defs>
       <use xlink:href="#Constantia-50"/>
       <use x="48.4375" xlink:href="#Constantia-48"/>
       <use x="102.294922" xlink:href="#Constantia-50"/>
       <use x="150.732422" xlink:href="#Constantia-48"/>
      </g>
     </g>
    </g>
    <g id="xtick_2">
     <g id="line2d_3">
      <g>
       <use style="stroke:#000000;stroke-width:0.5;" x="795.436116" xlink:href="#ma319e0a748" y="643.203"/>
      </g>
     </g>
     <g id="line2d_4">
      <g>
       <use style="stroke:#000000;stroke-width:0.5;" x="795.436116" xlink:href="#m363492fc43" y="69.21425"/>
      </g>
     </g>
     <g id="text_2">
      <!--  -->
      <g transform="translate(795.436116 661.918625)scale(0.2 -0.2)"/>
      <!--  -->
      <g transform="translate(795.436116 684.32425)scale(0.2 -0.2)"/>
      <!--  -->
      <g transform="translate(795.436116 706.729875)scale(0.2 -0.2)"/>
      <!-- Oct -->
      <g transform="translate(779.250178 729.1355)scale(0.2 -0.2)">
       <defs>
        <path d="M 15.578125 35.015625 
Q 15.578125 19.09375 22.015625 10.625 
Q 28.46875 2.15625 40.921875 2.15625 
Q 53.171875 2.15625 59 9.84375 
Q 64.84375 17.53125 64.84375 33.984375 
Q 64.84375 49.421875 58.640625 57.71875 
Q 52.4375 66.015625 39.5 66.015625 
Q 26.953125 66.015625 21.265625 58.328125 
Q 15.578125 50.640625 15.578125 35.015625 
z
M 75.59375 35.640625 
Q 75.59375 18.75 65.984375 8.46875 
Q 56.390625 -1.8125 39.15625 -1.8125 
Q 22.796875 -1.8125 13.84375 7.6875 
Q 4.890625 17.1875 4.890625 33.40625 
Q 4.890625 50.296875 14.53125 60.125 
Q 24.171875 69.96875 41.265625 69.96875 
Q 57.671875 69.96875 66.625 60.765625 
Q 75.59375 51.5625 75.59375 35.640625 
z
" id="Constantia-79"/>
        <path d="M 42.96875 3.46875 
Q 39.9375 1.421875 35.46875 0.015625 
Q 31 -1.375 26.609375 -1.375 
Q 16.0625 -1.375 9.90625 4.796875 
Q 3.765625 10.984375 3.765625 21.296875 
Q 3.765625 32.46875 10.734375 39.421875 
Q 17.71875 46.390625 28.8125 46.390625 
Q 35.984375 46.390625 42.71875 43.453125 
Q 41.109375 36.921875 39.84375 30.078125 
L 37.9375 29.78125 
L 33.984375 41.5 
Q 31.734375 42.28125 28.90625 42.28125 
Q 21.625 42.28125 17.515625 37.203125 
Q 13.421875 32.125 13.421875 23.78125 
Q 13.421875 13.96875 18.0625 9.28125 
Q 22.703125 4.59375 32.765625 4.59375 
Q 37.40625 4.59375 42.671875 5.515625 
z
" id="Constantia-99"/>
        <path d="M 17.484375 39.9375 
Q 17.1875 23.4375 17.1875 13.328125 
Q 17.1875 8.25 18.703125 6.3125 
Q 20.21875 4.390625 24.46875 4.390625 
Q 27.828125 4.390625 33.25 5.28125 
L 33.546875 3.078125 
Q 25.09375 -1.171875 18.453125 -1.171875 
Q 13.140625 -1.171875 10.546875 1.6875 
Q 7.953125 4.546875 7.953125 10.296875 
Q 7.953125 19.78125 8.296875 40.234375 
L 1.5625 41.890625 
L 1.265625 43.890625 
L 8.796875 44.53125 
L 12.15625 56.34375 
Q 14.890625 57.078125 17.140625 57.765625 
L 17.625 57.421875 
Q 17.484375 51.515625 17.484375 46.390625 
L 17.484375 44.578125 
L 32.171875 44.578125 
L 32.171875 39.9375 
z
" id="Constantia-116"/>
       </defs>
       <use xlink:href="#Constantia-79"/>
       <use x="80.419922" xlink:href="#Constantia-99"/>
       <use x="126.5625" xlink:href="#Constantia-116"/>
      </g>
      <!-- 2020 -->
      <g transform="translate(774.976741 751.541125)scale(0.2 -0.2)">
       <use xlink:href="#Constantia-50"/>
       <use x="48.4375" xlink:href="#Constantia-48"/>
       <use x="102.294922" xlink:href="#Constantia-50"/>
       <use x="150.732422" xlink:href="#Constantia-48"/>
      </g>
     </g>
    </g>
    <g id="xtick_3">
     <g id="line2d_5">
      <g>
       <use style="stroke:#000000;stroke-width:0.5;" x="1192.182972" xlink:href="#ma319e0a748" y="643.203"/>
      </g>
     </g>
     <g id="line2d_6">
      <g>
       <use style="stroke:#000000;stroke-width:0.5;" x="1192.182972" xlink:href="#m363492fc43" y="69.21425"/>
      </g>
     </g>
     <g id="text_3">
      <!--  -->
      <g transform="translate(1192.182972 661.918625)scale(0.2 -0.2)"/>
      <!--  -->
      <g transform="translate(1192.182972 684.32425)scale(0.2 -0.2)"/>
      <!--  -->
      <g transform="translate(1192.182972 706.729875)scale(0.2 -0.2)"/>
      <!-- Nov -->
      <g transform="translate(1174.607972 729.1355)scale(0.2 -0.2)">
       <defs>
        <path d="M 16.65625 54.4375 
L 16.65625 14.984375 
Q 16.65625 9.234375 16.75 5.421875 
Q 16.796875 4.046875 17.96875 3.765625 
L 23.78125 2.046875 
L 23.875 -0.140625 
Q 17.78125 0 13.875 0 
Q 10.0625 0 3.765625 -0.140625 
L 3.5625 1.953125 
L 9.578125 3.765625 
Q 10.84375 4.15625 10.890625 5.28125 
Q 10.984375 9.234375 10.984375 14.984375 
L 10.984375 54.59375 
Q 10.984375 59.46875 10.890625 62.703125 
Q 10.84375 63.96875 9.71875 64.359375 
L 3.65625 66.265625 
L 3.5625 68.359375 
Q 9.859375 68.171875 13.53125 68.171875 
Q 15.71875 68.171875 17.96875 68.359375 
L 58.984375 17.140625 
L 58.984375 54.78125 
Q 58.984375 59.515625 58.890625 62.9375 
Q 58.84375 64.0625 57.625 64.453125 
L 51.859375 66.109375 
L 51.765625 68.359375 
Q 58.015625 68.171875 61.859375 68.171875 
Q 65.765625 68.171875 71.875 68.359375 
L 72.078125 66.265625 
L 65.921875 64.359375 
Q 64.796875 63.96875 64.75 62.703125 
Q 64.65625 59.46875 64.65625 54.59375 
L 64.65625 0 
L 60.546875 -0.390625 
z
" id="Constantia-78"/>
        <path d="M 13.71875 23.046875 
Q 13.71875 13.921875 17.140625 8.171875 
Q 20.5625 2.4375 27.296875 2.4375 
Q 33.59375 2.4375 36.890625 7.484375 
Q 40.1875 12.546875 40.1875 22.46875 
Q 40.1875 31.78125 36.71875 37.15625 
Q 33.25 42.53125 26.65625 42.53125 
Q 20.40625 42.53125 17.0625 37.6875 
Q 13.71875 32.859375 13.71875 23.046875 
z
M 50.140625 23.484375 
Q 50.140625 12.359375 43.421875 5.484375 
Q 36.71875 -1.375 26.375 -1.375 
Q 16.265625 -1.375 10.03125 5.09375 
Q 3.8125 11.578125 3.8125 22.015625 
Q 3.8125 32.765625 10.328125 39.578125 
Q 16.84375 46.390625 27.59375 46.390625 
Q 37.75 46.390625 43.9375 40.109375 
Q 50.140625 33.84375 50.140625 23.484375 
z
" id="Constantia-111"/>
        <path d="M -1.515625 45.265625 
Q 4.640625 45.125 9.421875 45.125 
Q 13.8125 45.125 19.96875 45.265625 
L 20.171875 43.265625 
L 14.5 41.703125 
Q 18.5 30.328125 23.78125 17.53125 
Q 25.140625 14.15625 26.21875 11.078125 
Q 27.296875 14.15625 28.71875 17.484375 
Q 33.15625 28.421875 38.03125 41.703125 
L 32.46875 43.265625 
L 32.28125 45.265625 
Q 36.234375 45.125 40.53125 45.125 
Q 44.921875 45.125 49.03125 45.265625 
L 49.21875 43.265625 
L 44.34375 41.84375 
Q 43.21875 41.453125 42.4375 39.9375 
Q 38.578125 31 33.46875 18.671875 
Q 28.375 6.34375 25.78125 -0.34375 
L 21.625 -0.78125 
Q 18.953125 6.296875 13.890625 18.59375 
Q 8.84375 30.90625 5.21875 39.703125 
Q 4.4375 41.40625 3.078125 41.890625 
L -1.421875 43.265625 
z
" id="Constantia-118"/>
       </defs>
       <use xlink:href="#Constantia-78"/>
       <use x="73.402344" xlink:href="#Constantia-111"/>
       <use x="127.455078" xlink:href="#Constantia-118"/>
      </g>
      <!-- 2020 -->
      <g transform="translate(1171.723597 751.541125)scale(0.2 -0.2)">
       <use xlink:href="#Constantia-50"/>
       <use x="48.4375" xlink:href="#Constantia-48"/>
       <use x="102.294922" xlink:href="#Constantia-50"/>
       <use x="150.732422" xlink:href="#Constantia-48"/>
      </g>
     </g>
    </g>
    <g id="xtick_4">
     <g id="line2d_7">
      <path clip-path="url(#pb54bfd28df)" d="M 117.126975 643.203 
L 117.126975 69.21425 
" style="fill:none;stroke:#000000;stroke-dasharray:1,3;stroke-dashoffset:0;stroke-width:0.5;"/>
     </g>
     <g id="line2d_8">
      <defs>
       <path d="M 0 0 
L 0 -2 
" id="m0d335c1f96" style="stroke:#000000;stroke-width:0.5;"/>
      </defs>
      <g>
       <use style="stroke:#000000;stroke-width:0.5;" x="117.126975" xlink:href="#m0d335c1f96" y="643.203"/>
      </g>
     </g>
     <g id="line2d_9">
      <defs>
       <path d="M 0 0 
L 0 2 
" id="mbbcc0ec948" style="stroke:#000000;stroke-width:0.5;"/>
      </defs>
      <g>
       <use style="stroke:#000000;stroke-width:0.5;" x="117.126975" xlink:href="#mbbcc0ec948" y="69.21425"/>
      </g>
     </g>
     <g id="text_4">
      <!-- 09 -->
      <g transform="translate(107.361975 660.447062)scale(0.18 -0.18)">
       <defs>
        <path d="M 8.640625 -19 
Q 20.90625 -16.796875 28.984375 -9.671875 
Q 37.0625 -2.546875 40.375 10.109375 
L 40.28125 10.15625 
Q 34.578125 3.65625 25.4375 3.65625 
Q 16.3125 3.65625 10.234375 9.484375 
Q 4.15625 15.328125 4.15625 24.3125 
Q 4.15625 33.6875 10.796875 40.03125 
Q 17.4375 46.390625 27.046875 46.390625 
Q 37.546875 46.390625 44.265625 38.75 
Q 50.984375 31.109375 50.984375 19.1875 
Q 50.984375 2.828125 39.578125 -8.59375 
Q 28.171875 -20.015625 9.328125 -22.46875 
z
M 14.0625 27.25 
Q 14.0625 18.5625 18.015625 13.28125 
Q 21.96875 8.015625 28.125 8.015625 
Q 34.234375 8.015625 37.453125 11.9375 
Q 40.671875 15.875 40.671875 22.90625 
Q 40.671875 31.453125 36.421875 37.15625 
Q 32.171875 42.875 26.21875 42.875 
Q 20.953125 42.875 17.5 38.640625 
Q 14.0625 34.421875 14.0625 27.25 
z
" id="Constantia-57"/>
       </defs>
       <use xlink:href="#Constantia-48"/>
       <use x="53.857422" xlink:href="#Constantia-57"/>
      </g>
      <!-- Sun -->
      <g transform="translate(102.175725 680.612125)scale(0.18 -0.18)">
       <defs>
        <path d="M 38.875 4.296875 
Q 31.25 -1.375 23.640625 -1.375 
Q 15.96875 -1.375 12.125 2.53125 
Q 8.296875 6.453125 8.296875 13.53125 
L 8.296875 23.875 
Q 8.296875 34.328125 8.109375 39.546875 
L 1.609375 41.3125 
L 1.375 42.96875 
Q 9.90625 44.53125 17.1875 46.390625 
L 17.625 46.046875 
Q 17.328125 40.328125 17.328125 31.34375 
L 17.328125 15.828125 
Q 17.328125 9.90625 20.109375 7.25 
Q 22.90625 4.59375 27.984375 4.59375 
Q 33.0625 4.59375 38.375 7.28125 
L 38.375 28.078125 
Q 38.375 34.90625 38.1875 39.546875 
L 31.734375 41.3125 
L 31.5 42.96875 
Q 39.984375 44.53125 47.265625 46.390625 
L 47.703125 46.046875 
Q 47.40625 40.1875 47.40625 31.0625 
Q 47.40625 13.328125 47.515625 9.421875 
Q 47.5625 7.421875 47.796875 6.203125 
Q 48.046875 4.984375 48.734375 4.3125 
Q 49.421875 3.65625 50.75 3.390625 
Q 52.09375 3.125 54.34375 3.078125 
L 54.59375 1.171875 
Q 52.34375 0.296875 49.40625 -0.5 
Q 46.484375 -1.3125 45.40625 -1.3125 
Q 40.484375 -1.3125 38.875 4.296875 
z
" id="Constantia-117"/>
        <path d="M 2.828125 42.96875 
Q 11.03125 44.53125 18.3125 46.390625 
L 18.796875 46.046875 
L 18.796875 40.375 
Q 27.296875 46.390625 34.625 46.390625 
Q 41.546875 46.390625 45.484375 42.5 
Q 49.421875 38.625 49.421875 31.5 
L 49.421875 14.265625 
Q 49.421875 8.15625 49.515625 5.21875 
Q 49.5625 3.90625 50.78125 3.515625 
L 56.203125 1.859375 
L 56.296875 -0.140625 
Q 49.859375 0 45.0625 0 
Q 40.28125 0 34.421875 -0.140625 
L 34.234375 1.859375 
L 39.109375 3.265625 
Q 40.234375 3.65625 40.328125 4.78125 
Q 40.375 5.46875 40.375 7.859375 
L 40.375 29.15625 
Q 40.375 35.15625 37.5 37.765625 
Q 34.625 40.375 29 40.375 
Q 24.078125 40.375 18.796875 37.546875 
L 18.796875 16.21875 
Q 18.796875 10.109375 18.890625 5.03125 
Q 18.953125 3.71875 20.015625 3.375 
L 25.09375 1.859375 
L 25.203125 -0.140625 
Q 19.140625 0 14.359375 0 
Q 9.578125 0 3.03125 -0.140625 
L 2.828125 1.859375 
L 8.59375 3.515625 
Q 9.671875 3.953125 9.71875 5.03125 
Q 9.765625 8.15625 9.765625 11.03125 
L 9.765625 27.6875 
Q 9.765625 34.078125 9.578125 39.546875 
L 3.078125 41.3125 
z
" id="Constantia-110"/>
       </defs>
       <use xlink:href="#Constantia-83"/>
       <use x="50.976562" xlink:href="#Constantia-117"/>
       <use x="107.910156" xlink:href="#Constantia-110"/>
      </g>
     </g>
    </g>
    <g id="xtick_5">
     <g id="line2d_10">
      <path clip-path="url(#pb54bfd28df)" d="M 206.714975 643.203 
L 206.714975 69.21425 
" style="fill:none;stroke:#000000;stroke-dasharray:1,3;stroke-dashoffset:0;stroke-width:0.5;"/>
     </g>
     <g id="line2d_11">
      <g>
       <use style="stroke:#000000;stroke-width:0.5;" x="206.714975" xlink:href="#m0d335c1f96" y="643.203"/>
      </g>
     </g>
     <g id="line2d_12">
      <g>
       <use style="stroke:#000000;stroke-width:0.5;" x="206.714975" xlink:href="#mbbcc0ec948" y="69.21425"/>
      </g>
     </g>
     <g id="text_5">
      <!-- 16 -->
      <g transform="translate(199.028412 660.447062)scale(0.18 -0.18)">
       <defs>
        <path d="M 1.703125 40.625 
L 1.46875 42.671875 
Q 11.28125 44.140625 21.09375 45.90625 
L 21.53125 45.515625 
Q 20.953125 36.96875 20.953125 27.875 
L 20.953125 15.96875 
Q 20.953125 9.515625 21.046875 5.5625 
Q 21.09375 4.15625 22.40625 3.8125 
L 30.171875 1.8125 
L 30.328125 -0.140625 
Q 21.296875 0 16.5 0 
Q 11.71875 0 2.734375 -0.140625 
L 2.546875 1.8125 
L 10.5 3.8125 
Q 11.765625 4.15625 11.8125 5.375 
Q 11.921875 9.328125 11.921875 14.15625 
L 11.921875 22.265625 
Q 11.921875 32.078125 11.71875 39.65625 
z
" id="Constantia-49"/>
        <path d="M 47.125 64.546875 
Q 32.03125 61.53125 24.515625 53.9375 
Q 17 46.34375 14.796875 35.25 
L 14.890625 35.203125 
Q 20.796875 41.65625 30.21875 41.65625 
Q 38.96875 41.65625 44.9375 35.796875 
Q 50.921875 29.9375 50.921875 20.90625 
Q 50.921875 11.328125 44.375 5.03125 
Q 37.84375 -1.265625 28.125 -1.265625 
Q 17.390625 -1.265625 10.75 6.5 
Q 4.109375 14.265625 4.109375 26.515625 
Q 4.109375 41.546875 14.453125 53.125 
Q 24.8125 64.703125 46.4375 68.015625 
z
M 41.109375 18.0625 
Q 41.109375 26.609375 37.15625 31.953125 
Q 33.203125 37.3125 27.046875 37.3125 
Q 21.4375 37.3125 17.921875 33.328125 
Q 14.40625 29.34375 14.40625 22.515625 
Q 14.40625 14.15625 18.5 8.203125 
Q 22.609375 2.25 28.953125 2.25 
Q 34.46875 2.25 37.78125 6.8125 
Q 41.109375 11.375 41.109375 18.0625 
z
" id="Constantia-54"/>
       </defs>
       <use xlink:href="#Constantia-49"/>
       <use x="31.298828" xlink:href="#Constantia-54"/>
      </g>
      <!-- Sun -->
      <g transform="translate(191.763725 680.612125)scale(0.18 -0.18)">
       <use xlink:href="#Constantia-83"/>
       <use x="50.976562" xlink:href="#Constantia-117"/>
       <use x="107.910156" xlink:href="#Constantia-110"/>
      </g>
     </g>
    </g>
    <g id="xtick_6">
     <g id="line2d_13">
      <path clip-path="url(#pb54bfd28df)" d="M 296.302974 643.203 
L 296.302974 69.21425 
" style="fill:none;stroke:#000000;stroke-dasharray:1,3;stroke-dashoffset:0;stroke-width:0.5;"/>
     </g>
     <g id="line2d_14">
      <g>
       <use style="stroke:#000000;stroke-width:0.5;" x="296.302974" xlink:href="#m0d335c1f96" y="643.203"/>
      </g>
     </g>
     <g id="line2d_15">
      <g>
       <use style="stroke:#000000;stroke-width:0.5;" x="296.302974" xlink:href="#mbbcc0ec948" y="69.21425"/>
      </g>
     </g>
     <g id="text_6">
      <!-- 23 -->
      <g transform="translate(287.834537 660.447062)scale(0.18 -0.18)">
       <defs>
        <path d="M 10.25 16.21875 
Q 19 17.140625 24.265625 20.75 
Q 29.546875 24.359375 29.546875 30.125 
Q 29.546875 34.71875 26.09375 37.59375 
Q 22.65625 40.484375 17.390625 40.484375 
Q 10.5 40.484375 3.46875 36.8125 
L 1.46875 40.046875 
Q 11.140625 46.390625 21.34375 46.390625 
Q 28.90625 46.390625 34.078125 42.75 
Q 39.265625 39.109375 39.265625 33.203125 
Q 39.265625 22.359375 23.25 17 
L 23.25 16.796875 
Q 32.421875 16.453125 37.5625 12.15625 
Q 42.71875 7.859375 42.71875 1.609375 
Q 42.71875 -8.5 31.96875 -15.140625 
Q 21.234375 -21.78125 1.03125 -22.46875 
L 0.484375 -18.84375 
Q 16.546875 -17.78125 24.53125 -12.625 
Q 32.515625 -7.46875 32.515625 0.25 
Q 32.515625 6.296875 28.359375 9.765625 
Q 24.21875 13.234375 16.84375 13.234375 
Q 13.96875 13.234375 10.59375 12.640625 
z
" id="Constantia-51"/>
       </defs>
       <use xlink:href="#Constantia-50"/>
       <use x="48.4375" xlink:href="#Constantia-51"/>
      </g>
      <!-- Sun -->
      <g transform="translate(281.351724 680.612125)scale(0.18 -0.18)">
       <use xlink:href="#Constantia-83"/>
       <use x="50.976562" xlink:href="#Constantia-117"/>
       <use x="107.910156" xlink:href="#Constantia-110"/>
      </g>
     </g>
    </g>
    <g id="xtick_7">
     <g id="line2d_16">
      <path clip-path="url(#pb54bfd28df)" d="M 385.890974 643.203 
L 385.890974 69.21425 
" style="fill:none;stroke:#000000;stroke-dasharray:1,3;stroke-dashoffset:0;stroke-width:0.5;"/>
     </g>
     <g id="line2d_17">
      <g>
       <use style="stroke:#000000;stroke-width:0.5;" x="385.890974" xlink:href="#m0d335c1f96" y="643.203"/>
      </g>
     </g>
     <g id="line2d_18">
      <g>
       <use style="stroke:#000000;stroke-width:0.5;" x="385.890974" xlink:href="#mbbcc0ec948" y="69.21425"/>
      </g>
     </g>
     <g id="text_7">
      <!-- 30 -->
      <g transform="translate(376.934568 660.447062)scale(0.18 -0.18)">
       <use xlink:href="#Constantia-51"/>
       <use x="45.654297" xlink:href="#Constantia-48"/>
      </g>
      <!-- Sun -->
      <g transform="translate(370.939724 680.612125)scale(0.18 -0.18)">
       <use xlink:href="#Constantia-83"/>
       <use x="50.976562" xlink:href="#Constantia-117"/>
       <use x="107.910156" xlink:href="#Constantia-110"/>
      </g>
     </g>
    </g>
    <g id="xtick_8">
     <g id="line2d_19">
      <path clip-path="url(#pb54bfd28df)" d="M 475.478974 643.203 
L 475.478974 69.21425 
" style="fill:none;stroke:#000000;stroke-dasharray:1,3;stroke-dashoffset:0;stroke-width:0.5;"/>
     </g>
     <g id="line2d_20">
      <g>
       <use style="stroke:#000000;stroke-width:0.5;" x="475.478974" xlink:href="#m0d335c1f96" y="643.203"/>
      </g>
     </g>
     <g id="line2d_21">
      <g>
       <use style="stroke:#000000;stroke-width:0.5;" x="475.478974" xlink:href="#mbbcc0ec948" y="69.21425"/>
      </g>
     </g>
     <g id="text_8">
      <!-- 06 -->
      <g transform="translate(465.761786 660.447062)scale(0.18 -0.18)">
       <use xlink:href="#Constantia-48"/>
       <use x="53.857422" xlink:href="#Constantia-54"/>
      </g>
      <!-- Sun -->
      <g transform="translate(460.527724 680.612125)scale(0.18 -0.18)">
       <use xlink:href="#Constantia-83"/>
       <use x="50.976562" xlink:href="#Constantia-117"/>
       <use x="107.910156" xlink:href="#Constantia-110"/>
      </g>
     </g>
    </g>
    <g id="xtick_9">
     <g id="line2d_22">
      <path clip-path="url(#pb54bfd28df)" d="M 565.066974 643.203 
L 565.066974 69.21425 
" style="fill:none;stroke:#000000;stroke-dasharray:1,3;stroke-dashoffset:0;stroke-width:0.5;"/>
     </g>
     <g id="line2d_23">
      <g>
       <use style="stroke:#000000;stroke-width:0.5;" x="565.066974" xlink:href="#m0d335c1f96" y="643.203"/>
      </g>
     </g>
     <g id="line2d_24">
      <g>
       <use style="stroke:#000000;stroke-width:0.5;" x="565.066974" xlink:href="#mbbcc0ec948" y="69.21425"/>
      </g>
     </g>
     <g id="text_9">
      <!-- 13 -->
      <g transform="translate(558.141192 660.447062)scale(0.18 -0.18)">
       <use xlink:href="#Constantia-49"/>
       <use x="31.298828" xlink:href="#Constantia-51"/>
      </g>
      <!-- Sun -->
      <g transform="translate(550.115724 680.612125)scale(0.18 -0.18)">
       <use xlink:href="#Constantia-83"/>
       <use x="50.976562" xlink:href="#Constantia-117"/>
       <use x="107.910156" xlink:href="#Constantia-110"/>
      </g>
     </g>
    </g>
    <g id="xtick_10">
     <g id="line2d_25">
      <path clip-path="url(#pb54bfd28df)" d="M 654.654973 643.203 
L 654.654973 69.21425 
" style="fill:none;stroke:#000000;stroke-dasharray:1,3;stroke-dashoffset:0;stroke-width:0.5;"/>
     </g>
     <g id="line2d_26">
      <g>
       <use style="stroke:#000000;stroke-width:0.5;" x="654.654973" xlink:href="#m0d335c1f96" y="643.203"/>
      </g>
     </g>
     <g id="line2d_27">
      <g>
       <use style="stroke:#000000;stroke-width:0.5;" x="654.654973" xlink:href="#mbbcc0ec948" y="69.21425"/>
      </g>
     </g>
     <g id="text_10">
      <!-- 20 -->
      <g transform="translate(645.448255 660.447062)scale(0.18 -0.18)">
       <use xlink:href="#Constantia-50"/>
       <use x="48.4375" xlink:href="#Constantia-48"/>
      </g>
      <!-- Sun -->
      <g transform="translate(639.703723 680.612125)scale(0.18 -0.18)">
       <use xlink:href="#Constantia-83"/>
       <use x="50.976562" xlink:href="#Constantia-117"/>
       <use x="107.910156" xlink:href="#Constantia-110"/>
      </g>
     </g>
    </g>
    <g id="xtick_11">
     <g id="line2d_28">
      <path clip-path="url(#pb54bfd28df)" d="M 744.242973 643.203 
L 744.242973 69.21425 
" style="fill:none;stroke:#000000;stroke-dasharray:1,3;stroke-dashoffset:0;stroke-width:0.5;"/>
     </g>
     <g id="line2d_29">
      <g>
       <use style="stroke:#000000;stroke-width:0.5;" x="744.242973" xlink:href="#m0d335c1f96" y="643.203"/>
      </g>
     </g>
     <g id="line2d_30">
      <g>
       <use style="stroke:#000000;stroke-width:0.5;" x="744.242973" xlink:href="#mbbcc0ec948" y="69.21425"/>
      </g>
     </g>
     <g id="text_11">
      <!-- 27 -->
      <g transform="translate(735.532661 660.447062)scale(0.18 -0.18)">
       <defs>
        <path d="M 10.9375 -19.671875 
L 39.5 37.546875 
L 8.296875 37.546875 
L 5.46875 27.875 
L 3.515625 27.546875 
L 2.6875 44.921875 
L 3.03125 45.3125 
Q 8.796875 45.21875 14.265625 45.171875 
Q 19.734375 45.125 25 45.125 
L 27.734375 45.125 
Q 33.015625 45.125 37.84375 45.171875 
Q 42.671875 45.21875 47.171875 45.3125 
L 47.359375 43.21875 
Q 44.828125 37.984375 42.265625 32.46875 
Q 39.703125 26.953125 37.234375 21.3125 
Q 34.765625 15.671875 32.421875 10.125 
Q 30.078125 4.59375 28.03125 -0.65625 
Q 25.984375 -5.90625 24.25 -10.6875 
Q 22.515625 -15.484375 21.234375 -19.53125 
L 11.1875 -20.015625 
z
" id="Constantia-55"/>
       </defs>
       <use xlink:href="#Constantia-50"/>
       <use x="48.4375" xlink:href="#Constantia-55"/>
      </g>
      <!-- Sun -->
      <g transform="translate(729.291723 680.612125)scale(0.18 -0.18)">
       <use xlink:href="#Constantia-83"/>
       <use x="50.976562" xlink:href="#Constantia-117"/>
       <use x="107.910156" xlink:href="#Constantia-110"/>
      </g>
     </g>
    </g>
    <g id="xtick_12">
     <g id="line2d_31">
      <path clip-path="url(#pb54bfd28df)" d="M 833.830973 643.203 
L 833.830973 69.21425 
" style="fill:none;stroke:#000000;stroke-dasharray:1,3;stroke-dashoffset:0;stroke-width:0.5;"/>
     </g>
     <g id="line2d_32">
      <g>
       <use style="stroke:#000000;stroke-width:0.5;" x="833.830973" xlink:href="#m0d335c1f96" y="643.203"/>
      </g>
     </g>
     <g id="line2d_33">
      <g>
       <use style="stroke:#000000;stroke-width:0.5;" x="833.830973" xlink:href="#mbbcc0ec948" y="69.21425"/>
      </g>
     </g>
     <g id="text_12">
      <!-- 04 -->
      <g transform="translate(824.206598 660.447062)scale(0.18 -0.18)">
       <defs>
        <path d="M 30.953125 35.015625 
Q 25.4375 28.8125 19.890625 21.78125 
Q 14.359375 14.75 8.984375 7.28125 
L 30.953125 7.28125 
z
M 39.984375 -5.71875 
Q 39.984375 -12.546875 40.234375 -19.53125 
Q 35.546875 -20.015625 31.34375 -20.796875 
L 30.859375 -20.40625 
Q 30.953125 -13.578125 30.953125 -6.5 
L 30.953125 2.4375 
L 18.796875 2.4375 
Q 12.109375 2.4375 2.546875 2.296875 
L 2.203125 5.859375 
Q 9.90625 16.0625 18.078125 26.234375 
Q 26.265625 36.421875 34.578125 46.046875 
L 40.28125 46.390625 
Q 39.984375 35.453125 39.984375 25.984375 
L 39.984375 7.28125 
L 51.171875 7.28125 
L 51.375 2.296875 
Q 46 2.4375 39.984375 2.4375 
z
" id="Constantia-52"/>
       </defs>
       <use xlink:href="#Constantia-48"/>
       <use x="53.857422" xlink:href="#Constantia-52"/>
      </g>
      <!-- Sun -->
      <g transform="translate(818.879723 680.612125)scale(0.18 -0.18)">
       <use xlink:href="#Constantia-83"/>
       <use x="50.976562" xlink:href="#Constantia-117"/>
       <use x="107.910156" xlink:href="#Constantia-110"/>
      </g>
     </g>
    </g>
    <g id="xtick_13">
     <g id="line2d_34">
      <path clip-path="url(#pb54bfd28df)" d="M 923.418973 643.203 
L 923.418973 69.21425 
" style="fill:none;stroke:#000000;stroke-dasharray:1,3;stroke-dashoffset:0;stroke-width:0.5;"/>
     </g>
     <g id="line2d_35">
      <g>
       <use style="stroke:#000000;stroke-width:0.5;" x="923.418973" xlink:href="#m0d335c1f96" y="643.203"/>
      </g>
     </g>
     <g id="line2d_36">
      <g>
       <use style="stroke:#000000;stroke-width:0.5;" x="923.418973" xlink:href="#mbbcc0ec948" y="69.21425"/>
      </g>
     </g>
     <g id="text_13">
      <!-- 11 -->
      <g transform="translate(917.785535 660.447062)scale(0.18 -0.18)">
       <use xlink:href="#Constantia-49"/>
       <use x="31.298828" xlink:href="#Constantia-49"/>
      </g>
      <!-- Sun -->
      <g transform="translate(908.467723 680.612125)scale(0.18 -0.18)">
       <use xlink:href="#Constantia-83"/>
       <use x="50.976562" xlink:href="#Constantia-117"/>
       <use x="107.910156" xlink:href="#Constantia-110"/>
      </g>
     </g>
    </g>
    <g id="xtick_14">
     <g id="line2d_37">
      <path clip-path="url(#pb54bfd28df)" d="M 1013.006972 643.203 
L 1013.006972 69.21425 
" style="fill:none;stroke:#000000;stroke-dasharray:1,3;stroke-dashoffset:0;stroke-width:0.5;"/>
     </g>
     <g id="line2d_38">
      <g>
       <use style="stroke:#000000;stroke-width:0.5;" x="1013.006972" xlink:href="#m0d335c1f96" y="643.203"/>
      </g>
     </g>
     <g id="line2d_39">
      <g>
       <use style="stroke:#000000;stroke-width:0.5;" x="1013.006972" xlink:href="#mbbcc0ec948" y="69.21425"/>
      </g>
     </g>
     <g id="text_14">
      <!-- 18 -->
      <g transform="translate(1005.361191 660.447062)scale(0.18 -0.18)">
       <defs>
        <path d="M 19.09375 34.234375 
Q 12.0625 37.890625 9.5 41.546875 
Q 6.9375 45.21875 6.9375 50.09375 
Q 6.9375 57.421875 12.96875 62.171875 
Q 19 66.9375 27.984375 66.9375 
Q 36.078125 66.9375 41.375 63.125 
Q 46.6875 59.328125 46.6875 53.265625 
Q 46.6875 44.234375 33.84375 36.765625 
Q 43.609375 32.03125 47.09375 27.75 
Q 50.59375 23.484375 50.59375 17.578125 
Q 50.59375 9.421875 43.40625 4.078125 
Q 36.234375 -1.265625 26.265625 -1.265625 
Q 16.265625 -1.265625 9.90625 3.296875 
Q 3.5625 7.859375 3.5625 15.4375 
Q 3.5625 26.8125 19.09375 34.234375 
z
M 22.5625 32.421875 
Q 12.546875 26.703125 12.546875 16.609375 
Q 12.546875 10.203125 16.375 6.421875 
Q 20.21875 2.640625 26.90625 2.640625 
Q 33.015625 2.640625 37.140625 6.03125 
Q 41.265625 9.421875 41.265625 14.84375 
Q 41.265625 20.015625 37.5 23.75 
Q 33.734375 27.484375 22.5625 32.421875 
z
M 30.21875 38.625 
Q 37.984375 44.234375 37.984375 51.8125 
Q 37.984375 57.234375 34.859375 60.1875 
Q 31.734375 63.140625 26.609375 63.140625 
Q 21.4375 63.140625 18.140625 60.453125 
Q 14.84375 57.765625 14.84375 53.125 
Q 14.84375 48.484375 18.40625 45.40625 
Q 21.96875 42.328125 30.21875 38.625 
z
" id="Constantia-56"/>
       </defs>
       <use xlink:href="#Constantia-49"/>
       <use x="31.298828" xlink:href="#Constantia-56"/>
      </g>
      <!-- Sun -->
      <g transform="translate(998.055722 680.612125)scale(0.18 -0.18)">
       <use xlink:href="#Constantia-83"/>
       <use x="50.976562" xlink:href="#Constantia-117"/>
       <use x="107.910156" xlink:href="#Constantia-110"/>
      </g>
     </g>
    </g>
    <g id="xtick_15">
     <g id="line2d_40">
      <path clip-path="url(#pb54bfd28df)" d="M 1102.594972 643.203 
L 1102.594972 69.21425 
" style="fill:none;stroke:#000000;stroke-dasharray:1,3;stroke-dashoffset:0;stroke-width:0.5;"/>
     </g>
     <g id="line2d_41">
      <g>
       <use style="stroke:#000000;stroke-width:0.5;" x="1102.594972" xlink:href="#m0d335c1f96" y="643.203"/>
      </g>
     </g>
     <g id="line2d_42">
      <g>
       <use style="stroke:#000000;stroke-width:0.5;" x="1102.594972" xlink:href="#mbbcc0ec948" y="69.21425"/>
      </g>
     </g>
     <g id="text_15">
      <!-- 25 -->
      <g transform="translate(1093.954972 660.447062)scale(0.18 -0.18)">
       <defs>
        <path d="M 6.453125 16.796875 
L 9.28125 45.3125 
Q 15.375 45.125 23.875 45.125 
Q 33.6875 45.125 42.28125 45.3125 
L 42.578125 44.921875 
L 41.359375 36.859375 
L 13.1875 37.546875 
L 11.8125 23.78125 
Q 15.96875 24.46875 19.625 24.46875 
Q 30.8125 24.46875 37.46875 19.046875 
Q 44.140625 13.625 44.140625 4.15625 
Q 44.140625 -7.953125 32.984375 -15.15625 
Q 21.828125 -22.359375 4.890625 -22.46875 
L 4.390625 -18.84375 
Q 17.71875 -18.359375 26.09375 -12.796875 
Q 34.46875 -7.234375 34.46875 2.203125 
Q 34.46875 9.46875 29.5625 13.46875 
Q 24.65625 17.484375 15.765625 17.484375 
Q 11.328125 17.484375 6.734375 16.453125 
z
" id="Constantia-53"/>
       </defs>
       <use xlink:href="#Constantia-50"/>
       <use x="48.4375" xlink:href="#Constantia-53"/>
      </g>
      <!-- Sun -->
      <g transform="translate(1087.643722 680.612125)scale(0.18 -0.18)">
       <use xlink:href="#Constantia-83"/>
       <use x="50.976562" xlink:href="#Constantia-117"/>
       <use x="107.910156" xlink:href="#Constantia-110"/>
      </g>
     </g>
    </g>
    <g id="xtick_16">
     <g id="line2d_43">
      <path clip-path="url(#pb54bfd28df)" d="M 1281.770972 643.203 
L 1281.770972 69.21425 
" style="fill:none;stroke:#000000;stroke-dasharray:1,3;stroke-dashoffset:0;stroke-width:0.5;"/>
     </g>
     <g id="line2d_44">
      <g>
       <use style="stroke:#000000;stroke-width:0.5;" x="1281.770972" xlink:href="#m0d335c1f96" y="643.203"/>
      </g>
     </g>
     <g id="line2d_45">
      <g>
       <use style="stroke:#000000;stroke-width:0.5;" x="1281.770972" xlink:href="#mbbcc0ec948" y="69.21425"/>
      </g>
     </g>
     <g id="text_16">
      <!-- 08 -->
      <g transform="translate(1272.094565 660.447062)scale(0.18 -0.18)">
       <use xlink:href="#Constantia-48"/>
       <use x="53.857422" xlink:href="#Constantia-56"/>
      </g>
      <!-- Sun -->
      <g transform="translate(1266.819722 680.612125)scale(0.18 -0.18)">
       <use xlink:href="#Constantia-83"/>
       <use x="50.976562" xlink:href="#Constantia-117"/>
       <use x="107.910156" xlink:href="#Constantia-110"/>
      </g>
     </g>
    </g>
   </g>
   <g id="matplotlib.axis_2">
    <g id="ytick_1">
     <g id="line2d_46">
      <path clip-path="url(#pb54bfd28df)" d="M 99.209375 643.203 
L 1363.68 643.203 
" style="fill:none;stroke:#000000;stroke-dasharray:1,3;stroke-dashoffset:0;stroke-width:0.5;"/>
     </g>
     <g id="line2d_47">
      <defs>
       <path d="M 0 0 
L 4 0 
" id="me7ce28a199" style="stroke:#000000;stroke-width:0.5;"/>
      </defs>
      <g>
       <use style="stroke:#000000;stroke-width:0.5;" x="99.209375" xlink:href="#me7ce28a199" y="643.203"/>
      </g>
     </g>
     <g id="text_17">
      <!-- 0 -->
      <g transform="translate(84.4375 648.187375)scale(0.2 -0.2)">
       <use xlink:href="#Constantia-48"/>
      </g>
     </g>
    </g>
    <g id="ytick_2">
     <g id="line2d_48">
      <path clip-path="url(#pb54bfd28df)" d="M 99.209375 561.204607 
L 1363.68 561.204607 
" style="fill:none;stroke:#000000;stroke-dasharray:1,3;stroke-dashoffset:0;stroke-width:0.5;"/>
     </g>
     <g id="line2d_49">
      <g>
       <use style="stroke:#000000;stroke-width:0.5;" x="99.209375" xlink:href="#me7ce28a199" y="561.204607"/>
      </g>
     </g>
     <g id="text_18">
      <!-- 50000 -->
      <g transform="translate(42.609375 566.188982)scale(0.2 -0.2)">
       <use xlink:href="#Constantia-53"/>
       <use x="47.558594" xlink:href="#Constantia-48"/>
       <use x="101.416016" xlink:href="#Constantia-48"/>
       <use x="155.273438" xlink:href="#Constantia-48"/>
       <use x="209.130859" xlink:href="#Constantia-48"/>
      </g>
     </g>
    </g>
    <g id="ytick_3">
     <g id="line2d_50">
      <path clip-path="url(#pb54bfd28df)" d="M 99.209375 479.206214 
L 1363.68 479.206214 
" style="fill:none;stroke:#000000;stroke-dasharray:1,3;stroke-dashoffset:0;stroke-width:0.5;"/>
     </g>
     <g id="line2d_51">
      <g>
       <use style="stroke:#000000;stroke-width:0.5;" x="99.209375" xlink:href="#me7ce28a199" y="479.206214"/>
      </g>
     </g>
     <g id="text_19">
      <!-- 100000 -->
      <g transform="translate(35.090625 484.190589)scale(0.2 -0.2)">
       <use xlink:href="#Constantia-49"/>
       <use x="31.298828" xlink:href="#Constantia-48"/>
       <use x="85.15625" xlink:href="#Constantia-48"/>
       <use x="139.013672" xlink:href="#Constantia-48"/>
       <use x="192.871094" xlink:href="#Constantia-48"/>
       <use x="246.728516" xlink:href="#Constantia-48"/>
      </g>
     </g>
    </g>
    <g id="ytick_4">
     <g id="line2d_52">
      <path clip-path="url(#pb54bfd28df)" d="M 99.209375 397.207821 
L 1363.68 397.207821 
" style="fill:none;stroke:#000000;stroke-dasharray:1,3;stroke-dashoffset:0;stroke-width:0.5;"/>
     </g>
     <g id="line2d_53">
      <g>
       <use style="stroke:#000000;stroke-width:0.5;" x="99.209375" xlink:href="#me7ce28a199" y="397.207821"/>
      </g>
     </g>
     <g id="text_20">
      <!-- 150000 -->
      <g transform="translate(36.35 402.192196)scale(0.2 -0.2)">
       <use xlink:href="#Constantia-49"/>
       <use x="31.298828" xlink:href="#Constantia-53"/>
       <use x="78.857422" xlink:href="#Constantia-48"/>
       <use x="132.714844" xlink:href="#Constantia-48"/>
       <use x="186.572266" xlink:href="#Constantia-48"/>
       <use x="240.429688" xlink:href="#Constantia-48"/>
      </g>
     </g>
    </g>
    <g id="ytick_5">
     <g id="line2d_54">
      <path clip-path="url(#pb54bfd28df)" d="M 99.209375 315.209429 
L 1363.68 315.209429 
" style="fill:none;stroke:#000000;stroke-dasharray:1,3;stroke-dashoffset:0;stroke-width:0.5;"/>
     </g>
     <g id="line2d_55">
      <g>
       <use style="stroke:#000000;stroke-width:0.5;" x="99.209375" xlink:href="#me7ce28a199" y="315.209429"/>
      </g>
     </g>
     <g id="text_21">
      <!-- 200000 -->
      <g transform="translate(31.6625 320.193804)scale(0.2 -0.2)">
       <use xlink:href="#Constantia-50"/>
       <use x="48.4375" xlink:href="#Constantia-48"/>
       <use x="102.294922" xlink:href="#Constantia-48"/>
       <use x="156.152344" xlink:href="#Constantia-48"/>
       <use x="210.009766" xlink:href="#Constantia-48"/>
       <use x="263.867188" xlink:href="#Constantia-48"/>
      </g>
     </g>
    </g>
    <g id="ytick_6">
     <g id="line2d_56">
      <path clip-path="url(#pb54bfd28df)" d="M 99.209375 233.211036 
L 1363.68 233.211036 
" style="fill:none;stroke:#000000;stroke-dasharray:1,3;stroke-dashoffset:0;stroke-width:0.5;"/>
     </g>
     <g id="line2d_57">
      <g>
       <use style="stroke:#000000;stroke-width:0.5;" x="99.209375" xlink:href="#me7ce28a199" y="233.211036"/>
      </g>
     </g>
     <g id="text_22">
      <!-- 250000 -->
      <g transform="translate(32.921875 238.195411)scale(0.2 -0.2)">
       <use xlink:href="#Constantia-50"/>
       <use x="48.4375" xlink:href="#Constantia-53"/>
       <use x="95.996094" xlink:href="#Constantia-48"/>
       <use x="149.853516" xlink:href="#Constantia-48"/>
       <use x="203.710938" xlink:href="#Constantia-48"/>
       <use x="257.568359" xlink:href="#Constantia-48"/>
      </g>
     </g>
    </g>
    <g id="ytick_7">
     <g id="line2d_58">
      <path clip-path="url(#pb54bfd28df)" d="M 99.209375 151.212643 
L 1363.68 151.212643 
" style="fill:none;stroke:#000000;stroke-dasharray:1,3;stroke-dashoffset:0;stroke-width:0.5;"/>
     </g>
     <g id="line2d_59">
      <g>
       <use style="stroke:#000000;stroke-width:0.5;" x="99.209375" xlink:href="#me7ce28a199" y="151.212643"/>
      </g>
     </g>
     <g id="text_23">
      <!-- 300000 -->
      <g transform="translate(32.21875 156.197018)scale(0.2 -0.2)">
       <use xlink:href="#Constantia-51"/>
       <use x="45.654297" xlink:href="#Constantia-48"/>
       <use x="99.511719" xlink:href="#Constantia-48"/>
       <use x="153.369141" xlink:href="#Constantia-48"/>
       <use x="207.226562" xlink:href="#Constantia-48"/>
       <use x="261.083984" xlink:href="#Constantia-48"/>
      </g>
     </g>
    </g>
    <g id="ytick_8">
     <g id="line2d_60">
      <path clip-path="url(#pb54bfd28df)" d="M 99.209375 69.21425 
L 1363.68 69.21425 
" style="fill:none;stroke:#000000;stroke-dasharray:1,3;stroke-dashoffset:0;stroke-width:0.5;"/>
     </g>
     <g id="line2d_61">
      <g>
       <use style="stroke:#000000;stroke-width:0.5;" x="99.209375" xlink:href="#me7ce28a199" y="69.21425"/>
      </g>
     </g>
     <g id="text_24">
      <!-- 350000 -->
      <g transform="translate(33.478125 74.198625)scale(0.2 -0.2)">
       <use xlink:href="#Constantia-51"/>
       <use x="45.654297" xlink:href="#Constantia-53"/>
       <use x="93.212891" xlink:href="#Constantia-48"/>
       <use x="147.070312" xlink:href="#Constantia-48"/>
       <use x="200.927734" xlink:href="#Constantia-48"/>
       <use x="254.785156" xlink:href="#Constantia-48"/>
      </g>
     </g>
    </g>
    <g id="text_25">
     <!-- NewCases -->
     <g transform="translate(21.915625 399.860187)rotate(-90)scale(0.2 -0.2)">
      <defs>
       <path d="M -0.828125 45.265625 
Q 6.15625 45.125 9.515625 45.125 
Q 14.359375 45.125 20.453125 45.265625 
L 20.65625 43.265625 
L 14.890625 41.703125 
Q 18.171875 30.8125 23.140625 17.1875 
Q 24.21875 14.3125 25.140625 11.28125 
Q 26.078125 14.265625 27.15625 17.140625 
Q 31.0625 27.59375 33.0625 33.453125 
Q 35.0625 39.3125 36.921875 44.921875 
L 40.484375 45.3125 
Q 42.328125 39.40625 44.28125 33.5 
Q 46.234375 27.59375 49.90625 17.1875 
Q 51.078125 14.0625 51.859375 11.28125 
Q 52.78125 14.109375 53.953125 17.140625 
Q 59.375 30.859375 62.9375 41.75 
L 57.421875 43.3125 
L 57.234375 45.3125 
Q 61.140625 45.171875 65.53125 45.171875 
Q 69.875 45.171875 73.4375 45.3125 
L 73.6875 43.3125 
L 69.78125 42.234375 
Q 68.109375 41.75 67.328125 39.890625 
Q 62.75 28.8125 59.171875 19.890625 
Q 55.609375 10.984375 51.46875 -0.09375 
L 47.078125 -0.53125 
Q 44.09375 8.0625 42.109375 13.453125 
Q 40.140625 18.84375 37.84375 25.203125 
Q 36.859375 27.78125 36.1875 30.171875 
Q 35.40625 27.828125 34.421875 25.34375 
Q 31.9375 18.84375 29.8125 13.375 
Q 27.6875 7.90625 24.859375 -0.09375 
L 20.5625 -0.53125 
Q 16.40625 10.984375 12.984375 19.875 
Q 9.578125 28.765625 5.28125 39.9375 
Q 4.59375 41.75 2.78125 42.234375 
L -0.734375 43.265625 
z
" id="Constantia-119"/>
       <path d="M 57.515625 51.3125 
L 55.5625 51.03125 
L 52 63.875 
Q 45.953125 65.375 41.015625 65.375 
Q 29.046875 65.375 22.203125 57.03125 
Q 15.375 48.6875 15.375 35.359375 
Q 15.375 21.09375 23.1875 12.59375 
Q 31 4.109375 44.828125 4.109375 
Q 52.59375 4.109375 61.1875 7.078125 
L 61.71875 4.890625 
Q 52.09375 -1.765625 39.9375 -1.765625 
Q 24.171875 -1.765625 14.5 7.859375 
Q 4.828125 17.484375 4.828125 33.203125 
Q 4.828125 49.953125 15.46875 59.71875 
Q 26.125 69.484375 43.3125 69.484375 
Q 51.5625 69.484375 60.203125 67.484375 
L 60.546875 67.09375 
z
" id="Constantia-67"/>
       <path d="M 30.125 22.125 
Q 19.4375 22.125 15.53125 20.015625 
Q 11.625 17.921875 11.625 12.9375 
Q 11.625 8.296875 14.203125 6.359375 
Q 16.796875 4.4375 21.234375 4.4375 
Q 26.265625 4.4375 30.03125 6.15625 
z
M 6.453125 42.234375 
Q 15.96875 46.390625 23.296875 46.390625 
Q 30.765625 46.390625 34.9375 42.484375 
Q 39.109375 38.578125 39.0625 31.203125 
L 38.8125 10.890625 
Q 38.765625 8.40625 38.9375 6.890625 
Q 39.109375 5.375 39.8125 4.5625 
Q 40.53125 3.765625 41.9375 3.4375 
Q 43.359375 3.125 45.75 3.078125 
L 46 1.171875 
Q 43.890625 0.34375 40.859375 -0.484375 
Q 37.84375 -1.3125 36.765625 -1.3125 
Q 32.03125 -1.3125 30.28125 3.5625 
Q 23.4375 -1.375 17.390625 -1.375 
Q 10.59375 -1.375 6.46875 1.96875 
Q 2.34375 5.328125 2.34375 11.421875 
Q 2.34375 18.953125 9.046875 22.515625 
Q 15.765625 26.078125 30.125 26.078125 
L 30.171875 29.890625 
Q 30.21875 35.359375 27.390625 37.984375 
Q 24.5625 40.625 18.703125 40.625 
Q 14.265625 40.625 7.5625 38.96875 
z
" id="Constantia-97"/>
       <path d="M 27.875 41.453125 
Q 25.046875 42.234375 21.734375 42.234375 
Q 17.140625 42.234375 14.328125 40.453125 
Q 11.53125 38.671875 11.53125 35.59375 
Q 11.53125 32.625 13.359375 30.90625 
Q 15.1875 29.203125 20.171875 27.546875 
L 24.171875 26.171875 
Q 30.90625 23.875 34.046875 20.921875 
Q 37.203125 17.96875 37.203125 13.1875 
Q 37.203125 6.390625 31.921875 2.5 
Q 26.65625 -1.375 18.609375 -1.375 
Q 11.1875 -1.375 3.421875 1.65625 
Q 5.078125 8.015625 6.109375 14.0625 
L 8.015625 14.359375 
L 11.53125 3.859375 
Q 14.3125 2.78125 18.609375 2.78125 
Q 23.140625 2.78125 25.84375 4.640625 
Q 28.5625 6.5 28.5625 9.859375 
Q 28.5625 12.984375 26.734375 14.796875 
Q 24.90625 16.609375 20.90625 17.921875 
L 15.828125 19.625 
Q 9.234375 21.828125 6.71875 24.921875 
Q 4.203125 28.03125 4.203125 32.625 
Q 4.203125 39.015625 9.0625 42.703125 
Q 13.921875 46.390625 21.875 46.390625 
Q 29.296875 46.390625 35.359375 44.234375 
Q 33.984375 38.671875 32.859375 32.46875 
L 31 32.125 
z
" id="Constantia-115"/>
      </defs>
      <use xlink:href="#Constantia-78"/>
      <use x="73.402344" xlink:href="#Constantia-101"/>
      <use x="121.302734" xlink:href="#Constantia-119"/>
      <use x="194.496094" xlink:href="#Constantia-67"/>
      <use x="259.632812" xlink:href="#Constantia-97"/>
      <use x="307.630859" xlink:href="#Constantia-115"/>
      <use x="348.109375" xlink:href="#Constantia-101"/>
      <use x="396.009766" xlink:href="#Constantia-115"/>
     </g>
    </g>
   </g>
   <g id="legend_1">
    <g id="patch_97">
     <path d="M 1185.642908 103.421281 
L 1357.444471 103.421281 
L 1357.444471 76.71425 
L 1185.642908 76.71425 
z
" style="fill:#ffffff;stroke:#000000;stroke-linejoin:miter;"/>
    </g>
    <g id="line2d_62">
     <path d="M 1196.142908 88.500969 
L 1217.142908 88.500969 
" style="fill:none;stroke:#f08080;stroke-dasharray:6,6;stroke-dashoffset:0;stroke-width:3;"/>
    </g>
    <g id="line2d_63">
     <defs>
      <path d="M 0 3 
C 0.795609 3 1.55874 2.683901 2.12132 2.12132 
C 2.683901 1.55874 3 0.795609 3 0 
C 3 -0.795609 2.683901 -1.55874 2.12132 -2.12132 
C 1.55874 -2.683901 0.795609 -3 0 -3 
C -0.795609 -3 -1.55874 -2.683901 -2.12132 -2.12132 
C -2.683901 -1.55874 -3 -0.795609 -3 0 
C -3 0.795609 -2.683901 1.55874 -2.12132 2.12132 
C -1.55874 2.683901 -0.795609 3 0 3 
z
" id="m437a4866b1" style="stroke:#000000;stroke-width:0.5;"/>
     </defs>
     <g>
      <use style="fill:#f08080;stroke:#000000;stroke-width:0.5;" x="1196.142908" xlink:href="#m437a4866b1" y="88.500969"/>
      <use style="fill:#f08080;stroke:#000000;stroke-width:0.5;" x="1217.142908" xlink:href="#m437a4866b1" y="88.500969"/>
     </g>
    </g>
    <g id="text_26">
     <!-- 7 days moving avg -->
     <g transform="translate(1233.642908 93.750969)scale(0.15 -0.15)">
      <defs>
       <path id="Constantia-32"/>
       <path d="M 37.9375 41.015625 
Q 34.671875 42.046875 30.609375 42.046875 
Q 22.21875 42.046875 17.8125 37.28125 
Q 13.421875 32.515625 13.421875 22.859375 
Q 13.421875 14.5 17.328125 9.5 
Q 21.234375 4.5 28.375 4.5 
Q 32.953125 4.5 37.9375 7.03125 
z
M 30.90625 70.125 
Q 39.59375 71.78125 46.828125 73.578125 
L 47.265625 73.1875 
Q 46.96875 62.75 46.96875 50.734375 
L 46.96875 24.171875 
Q 46.96875 17.4375 47.015625 10.84375 
Q 47.015625 8.34375 47.1875 6.828125 
Q 47.359375 5.328125 48.046875 4.515625 
Q 48.734375 3.71875 50.078125 3.421875 
Q 51.421875 3.125 53.859375 3.078125 
L 54.109375 1.171875 
Q 51.953125 0.34375 48.953125 -0.484375 
Q 45.953125 -1.3125 44.875 -1.3125 
Q 39.9375 -1.3125 38.234375 4.25 
Q 30.671875 -1.375 23.53125 -1.375 
Q 14.5 -1.375 9.109375 5.046875 
Q 3.71875 11.46875 3.71875 20.84375 
Q 3.71875 32.953125 10.890625 39.59375 
Q 18.0625 46.234375 30.953125 46.234375 
Q 34.078125 46.234375 37.9375 45.5625 
Q 37.9375 56.34375 37.75 66.546875 
L 31.15625 68.5 
z
" id="Constantia-100"/>
       <path d="M -1.703125 45.265625 
Q 4.4375 45.125 9.234375 45.125 
Q 12.5 45.125 19.671875 45.265625 
L 19.875 43.265625 
L 14.15625 41.703125 
Q 15.96875 36.578125 18.359375 30.390625 
Q 20.75 24.21875 23.4375 17.53125 
Q 24.5625 14.75 25.875 11.140625 
Q 27.25 14.796875 28.8125 18.609375 
Q 31.109375 24.265625 33.25 29.75 
Q 35.40625 35.25 37.703125 41.703125 
L 32.125 43.265625 
L 31.9375 45.265625 
Q 35.546875 45.125 40.375 45.125 
Q 44.734375 45.125 48.828125 45.265625 
L 49.078125 43.265625 
L 44.53125 42 
Q 43.015625 41.5 42.328125 39.984375 
Q 40.53125 35.84375 38.421875 30.90625 
Q 31.984375 15.765625 28.65625 6.109375 
Q 26.421875 -0.4375 24.609375 -7.296875 
Q 22.796875 -14.15625 21.828125 -19.09375 
Q 21.390625 -21.484375 20.046875 -22.71875 
Q 18.703125 -23.96875 13.765625 -23.96875 
Q 8.734375 -23.96875 4 -23.640625 
L 3.765625 -21.734375 
Q 9.125 -20.90625 11.71875 -18.265625 
Q 14.84375 -14.890625 21.390625 -0.34375 
L 21.78125 0.59375 
L 21.09375 0.78125 
Q 12.15625 23.046875 4.9375 39.9375 
Q 4.296875 41.40625 2.6875 41.9375 
L -1.609375 43.265625 
z
" id="Constantia-121"/>
       <path d="M 47.65625 36.859375 
Q 48.34375 34.515625 48.34375 31.59375 
L 48.34375 14.15625 
Q 48.34375 8.453125 48.4375 4.984375 
Q 48.53125 3.65625 49.703125 3.265625 
L 54.640625 1.859375 
L 54.734375 -0.140625 
Q 48.78125 0 44 0 
Q 39.203125 0 33.34375 -0.140625 
L 33.15625 1.859375 
L 37.796875 3.21875 
Q 39.203125 3.71875 39.265625 4.78125 
Q 39.3125 5.46875 39.3125 7.859375 
L 39.3125 29.15625 
Q 39.3125 35.15625 36.578125 37.765625 
Q 33.84375 40.375 28.46875 40.375 
Q 23.734375 40.375 18.796875 37.546875 
L 18.796875 16.21875 
Q 18.796875 10.109375 18.890625 5.03125 
Q 18.953125 3.5625 19.921875 3.375 
L 25.09375 1.859375 
L 25.203125 -0.140625 
Q 19.140625 0 14.359375 0 
Q 9.578125 0 3.03125 -0.140625 
L 2.828125 1.859375 
L 8.453125 3.515625 
Q 9.671875 3.859375 9.71875 5.03125 
Q 9.765625 7.625 9.765625 11.03125 
L 9.765625 27.6875 
Q 9.765625 34.078125 9.578125 39.546875 
L 3.078125 41.3125 
L 2.828125 42.96875 
Q 10.890625 44.53125 18.265625 46.390625 
L 18.75 46.046875 
L 18.75 40.375 
Q 26.765625 46.390625 33.9375 46.390625 
Q 42.71875 46.390625 46.625 39.59375 
Q 54.34375 46.390625 63.375 46.390625 
Q 70.171875 46.390625 74 42.546875 
Q 77.828125 38.71875 77.828125 31.59375 
L 77.828125 14.3125 
Q 77.828125 8.15625 77.9375 5.21875 
Q 78.03125 3.90625 79.25 3.515625 
L 84.671875 1.859375 
L 84.765625 -0.140625 
Q 78.328125 0 73.53125 0 
Q 68.703125 0 62.890625 -0.140625 
L 62.703125 1.859375 
L 67.53125 3.265625 
Q 68.65625 3.65625 68.796875 4.78125 
Q 68.84375 5.46875 68.84375 7.859375 
L 68.84375 29.15625 
Q 68.84375 35.15625 66.0625 37.765625 
Q 63.28125 40.375 57.859375 40.375 
Q 52.390625 40.375 47.65625 36.859375 
z
" id="Constantia-109"/>
       <path d="M 19.34375 63.671875 
Q 19.34375 61.078125 17.71875 59.4375 
Q 16.109375 57.8125 13.578125 57.8125 
Q 11.140625 57.8125 9.59375 59.328125 
Q 8.0625 60.84375 8.0625 63.328125 
Q 8.0625 65.96875 9.671875 67.5 
Q 11.28125 69.046875 13.921875 69.046875 
Q 16.3125 69.046875 17.828125 67.65625 
Q 19.34375 66.265625 19.34375 63.671875 
z
M 2.828125 42.96875 
Q 11.375 44.578125 18.65625 46.390625 
L 19.09375 46.046875 
Q 18.796875 39.703125 18.796875 32.078125 
L 18.796875 13.328125 
Q 18.796875 7.46875 18.890625 5.21875 
Q 19 3.90625 20.125 3.515625 
L 25.78125 1.859375 
L 25.875 -0.140625 
Q 19.140625 0 14.359375 0 
Q 9.578125 0 2.984375 -0.140625 
L 2.78125 1.859375 
L 8.453125 3.515625 
Q 9.578125 3.90625 9.671875 5.03125 
Q 9.765625 6.9375 9.765625 11.421875 
L 9.765625 27.734375 
Q 9.765625 34.125 9.578125 39.546875 
L 3.078125 41.3125 
z
" id="Constantia-105"/>
       <path d="M 14.015625 30.328125 
Q 14.015625 23.96875 16.578125 20.5 
Q 19.140625 17.046875 24.03125 17.046875 
Q 28.71875 17.046875 31.078125 20.28125 
Q 33.453125 23.53125 33.453125 29.78125 
Q 33.453125 35.796875 30.9375 39.25 
Q 28.421875 42.71875 23.4375 42.71875 
Q 18.75 42.71875 16.375 39.546875 
Q 14.015625 36.375 14.015625 30.328125 
z
M 13.375 -1.953125 
Q 10.0625 -6.9375 10.0625 -11.140625 
Q 10.0625 -15.4375 13.53125 -17.828125 
Q 17 -20.21875 22.953125 -20.21875 
Q 30.03125 -20.21875 35.34375 -17.0625 
Q 40.671875 -13.921875 40.671875 -8.25 
Q 40.671875 -5.171875 38.0625 -3.484375 
Q 35.453125 -1.8125 28.21875 -1.8125 
Q 25.640625 -1.8125 22.578125 -1.953125 
Q 19.53125 -2.09375 16.703125 -2.09375 
Q 15.140625 -2.09375 13.375 -1.953125 
z
M 38.875 40.234375 
Q 42.53125 36.1875 42.53125 30.5625 
Q 42.53125 22.703125 37.0625 18.03125 
Q 31.59375 13.375 23.34375 13.375 
Q 18.65625 13.375 14.9375 14.84375 
Q 12.3125 10.59375 12.3125 8.15625 
Q 12.3125 6.84375 13.640625 6.375 
Q 14.984375 5.90625 18.609375 5.90625 
Q 21.34375 5.90625 25 6.046875 
Q 28.65625 6.203125 31.84375 6.203125 
Q 39.59375 6.203125 44.109375 3.25 
Q 48.640625 0.296875 48.640625 -5.515625 
Q 48.640625 -14.3125 40.359375 -19.390625 
Q 32.078125 -24.46875 21.53125 -24.46875 
Q 12.890625 -24.46875 7.734375 -21.5625 
Q 2.59375 -18.65625 2.59375 -14.015625 
Q 2.59375 -8.40625 10.546875 -1.421875 
Q 5.515625 0.484375 5.515625 3.65625 
Q 5.515625 8.109375 12.5 16.0625 
Q 4.890625 20.703125 4.890625 29.5 
Q 4.890625 37.109375 10.28125 41.75 
Q 15.671875 46.390625 24.21875 46.390625 
Q 26.46875 46.390625 30.328125 45.796875 
Q 33.984375 45.125 36.03125 45.125 
Q 43.40625 45.125 49.609375 45.265625 
L 49.859375 43.265625 
z
" id="Constantia-103"/>
      </defs>
      <use xlink:href="#Constantia-55"/>
      <use x="48.339844" xlink:href="#Constantia-32"/>
      <use x="70.9375" xlink:href="#Constantia-100"/>
      <use x="127.675781" xlink:href="#Constantia-97"/>
      <use x="175.673828" xlink:href="#Constantia-121"/>
      <use x="223.818359" xlink:href="#Constantia-115"/>
      <use x="264.296875" xlink:href="#Constantia-32"/>
      <use x="289.394531" xlink:href="#Constantia-109"/>
      <use x="376.015625" xlink:href="#Constantia-111"/>
      <use x="430.068359" xlink:href="#Constantia-118"/>
      <use x="478.359375" xlink:href="#Constantia-105"/>
      <use x="506.679688" xlink:href="#Constantia-110"/>
      <use x="564.882812" xlink:href="#Constantia-103"/>
      <use x="615.664062" xlink:href="#Constantia-32"/>
      <use x="638.261719" xlink:href="#Constantia-97"/>
      <use x="686.259766" xlink:href="#Constantia-118"/>
      <use x="734.550781" xlink:href="#Constantia-103"/>
     </g>
    </g>
   </g>
  </g>
  <g id="axes_2">
   <g id="line2d_64">
    <path clip-path="url(#pb54bfd28df)" d="M 257.908117 183.168588 
L 296.302974 294.480821 
L 309.10126 391.884954 
L 321.899546 487.872859 
L 334.697831 489.193033 
L 347.496117 486.834993 
L 360.294403 477.077185 
L 373.092689 494.938777 
L 385.890974 545.763724 
L 398.68926 546.295542 
L 411.487546 545.108323 
L 424.285831 548.660024 
L 437.084117 557.937557 
L 449.882403 575.609968 
L 462.680688 536.261867 
L 475.478974 565.807645 
L 488.27726 550.470432 
L 501.075545 575.441285 
L 513.873831 581.483981 
L 526.672117 582.739142 
L 539.470402 564.260804 
L 552.268688 585.181523 
L 565.066974 571.716801 
L 577.865259 581.011319 
L 590.663545 570.618023 
L 603.461831 565.49898 
L 629.058402 530.340998 
L 641.856688 526.755325 
L 654.654973 531.794712 
L 667.453259 536.919612 
L 680.251545 529.703167 
L 693.04983 521.619297 
L 705.848116 517.214226 
L 718.646402 542.78894 
L 731.444688 542.046854 
L 744.242973 536.35148 
L 757.041259 539.846954 
L 769.839545 538.647435 
L 782.63783 538.778047 
L 795.436116 540.91879 
L 808.234402 536.27651 
L 821.032687 539.601545 
L 833.830973 545.941778 
L 846.629259 533.208013 
L 859.427544 533.022345 
L 872.22583 533.027617 
L 885.024116 520.814542 
L 897.822401 521.97189 
L 910.620687 520.791114 
L 936.217258 485.229582 
L 949.015544 485.418178 
L 961.81383 476.665436 
L 974.612115 492.430212 
L 987.410401 472.202966 
L 1000.208687 458.458278 
L 1013.006972 466.170813 
L 1025.805258 500.925246 
L 1038.603544 483.556229 
L 1051.401829 480.88191 
L 1064.200115 447.441208 
L 1076.998401 461.953752 
L 1089.796686 441.239787 
L 1102.594972 424.953735 
L 1115.393258 414.385313 
L 1128.191544 409.703791 
L 1140.989829 402.729242 
L 1153.788115 396.082101 
L 1166.586401 386.897109 
L 1179.384686 391.955239 
L 1192.182972 388.617904 
L 1204.981258 380.462578 
L 1217.779543 372.974954 
L 1230.577829 339.271271 
L 1243.376115 321.597103 
L 1256.1744 293.858218 
L 1268.972686 274.61261 
L 1281.770972 254.176268 
L 1294.569257 233.366247 
L 1307.367543 200.102427 
L 1320.165829 198.42556 
L 1332.964114 170.049431 
L 1345.7624 138.040772 
L 1358.560686 119.384381 
" style="fill:none;stroke:#f08080;stroke-dasharray:6,6;stroke-dashoffset:0;stroke-width:3;"/>
    <g clip-path="url(#pb54bfd28df)">
     <use style="fill:#f08080;stroke:#000000;stroke-width:0.5;" x="257.908117" xlink:href="#m437a4866b1" y="183.168588"/>
     <use style="fill:#f08080;stroke:#000000;stroke-width:0.5;" x="296.302974" xlink:href="#m437a4866b1" y="294.480821"/>
     <use style="fill:#f08080;stroke:#000000;stroke-width:0.5;" x="309.10126" xlink:href="#m437a4866b1" y="391.884954"/>
     <use style="fill:#f08080;stroke:#000000;stroke-width:0.5;" x="321.899546" xlink:href="#m437a4866b1" y="487.872859"/>
     <use style="fill:#f08080;stroke:#000000;stroke-width:0.5;" x="334.697831" xlink:href="#m437a4866b1" y="489.193033"/>
     <use style="fill:#f08080;stroke:#000000;stroke-width:0.5;" x="347.496117" xlink:href="#m437a4866b1" y="486.834993"/>
     <use style="fill:#f08080;stroke:#000000;stroke-width:0.5;" x="360.294403" xlink:href="#m437a4866b1" y="477.077185"/>
     <use style="fill:#f08080;stroke:#000000;stroke-width:0.5;" x="373.092689" xlink:href="#m437a4866b1" y="494.938777"/>
     <use style="fill:#f08080;stroke:#000000;stroke-width:0.5;" x="385.890974" xlink:href="#m437a4866b1" y="545.763724"/>
     <use style="fill:#f08080;stroke:#000000;stroke-width:0.5;" x="398.68926" xlink:href="#m437a4866b1" y="546.295542"/>
     <use style="fill:#f08080;stroke:#000000;stroke-width:0.5;" x="411.487546" xlink:href="#m437a4866b1" y="545.108323"/>
     <use style="fill:#f08080;stroke:#000000;stroke-width:0.5;" x="424.285831" xlink:href="#m437a4866b1" y="548.660024"/>
     <use style="fill:#f08080;stroke:#000000;stroke-width:0.5;" x="437.084117" xlink:href="#m437a4866b1" y="557.937557"/>
     <use style="fill:#f08080;stroke:#000000;stroke-width:0.5;" x="449.882403" xlink:href="#m437a4866b1" y="575.609968"/>
     <use style="fill:#f08080;stroke:#000000;stroke-width:0.5;" x="462.680688" xlink:href="#m437a4866b1" y="536.261867"/>
     <use style="fill:#f08080;stroke:#000000;stroke-width:0.5;" x="475.478974" xlink:href="#m437a4866b1" y="565.807645"/>
     <use style="fill:#f08080;stroke:#000000;stroke-width:0.5;" x="488.27726" xlink:href="#m437a4866b1" y="550.470432"/>
     <use style="fill:#f08080;stroke:#000000;stroke-width:0.5;" x="501.075545" xlink:href="#m437a4866b1" y="575.441285"/>
     <use style="fill:#f08080;stroke:#000000;stroke-width:0.5;" x="513.873831" xlink:href="#m437a4866b1" y="581.483981"/>
     <use style="fill:#f08080;stroke:#000000;stroke-width:0.5;" x="526.672117" xlink:href="#m437a4866b1" y="582.739142"/>
     <use style="fill:#f08080;stroke:#000000;stroke-width:0.5;" x="539.470402" xlink:href="#m437a4866b1" y="564.260804"/>
     <use style="fill:#f08080;stroke:#000000;stroke-width:0.5;" x="552.268688" xlink:href="#m437a4866b1" y="585.181523"/>
     <use style="fill:#f08080;stroke:#000000;stroke-width:0.5;" x="565.066974" xlink:href="#m437a4866b1" y="571.716801"/>
     <use style="fill:#f08080;stroke:#000000;stroke-width:0.5;" x="577.865259" xlink:href="#m437a4866b1" y="581.011319"/>
     <use style="fill:#f08080;stroke:#000000;stroke-width:0.5;" x="590.663545" xlink:href="#m437a4866b1" y="570.618023"/>
     <use style="fill:#f08080;stroke:#000000;stroke-width:0.5;" x="603.461831" xlink:href="#m437a4866b1" y="565.49898"/>
     <use style="fill:#f08080;stroke:#000000;stroke-width:0.5;" x="629.058402" xlink:href="#m437a4866b1" y="530.340998"/>
     <use style="fill:#f08080;stroke:#000000;stroke-width:0.5;" x="641.856688" xlink:href="#m437a4866b1" y="526.755325"/>
     <use style="fill:#f08080;stroke:#000000;stroke-width:0.5;" x="654.654973" xlink:href="#m437a4866b1" y="531.794712"/>
     <use style="fill:#f08080;stroke:#000000;stroke-width:0.5;" x="667.453259" xlink:href="#m437a4866b1" y="536.919612"/>
     <use style="fill:#f08080;stroke:#000000;stroke-width:0.5;" x="680.251545" xlink:href="#m437a4866b1" y="529.703167"/>
     <use style="fill:#f08080;stroke:#000000;stroke-width:0.5;" x="693.04983" xlink:href="#m437a4866b1" y="521.619297"/>
     <use style="fill:#f08080;stroke:#000000;stroke-width:0.5;" x="705.848116" xlink:href="#m437a4866b1" y="517.214226"/>
     <use style="fill:#f08080;stroke:#000000;stroke-width:0.5;" x="718.646402" xlink:href="#m437a4866b1" y="542.78894"/>
     <use style="fill:#f08080;stroke:#000000;stroke-width:0.5;" x="731.444688" xlink:href="#m437a4866b1" y="542.046854"/>
     <use style="fill:#f08080;stroke:#000000;stroke-width:0.5;" x="744.242973" xlink:href="#m437a4866b1" y="536.35148"/>
     <use style="fill:#f08080;stroke:#000000;stroke-width:0.5;" x="757.041259" xlink:href="#m437a4866b1" y="539.846954"/>
     <use style="fill:#f08080;stroke:#000000;stroke-width:0.5;" x="769.839545" xlink:href="#m437a4866b1" y="538.647435"/>
     <use style="fill:#f08080;stroke:#000000;stroke-width:0.5;" x="782.63783" xlink:href="#m437a4866b1" y="538.778047"/>
     <use style="fill:#f08080;stroke:#000000;stroke-width:0.5;" x="795.436116" xlink:href="#m437a4866b1" y="540.91879"/>
     <use style="fill:#f08080;stroke:#000000;stroke-width:0.5;" x="808.234402" xlink:href="#m437a4866b1" y="536.27651"/>
     <use style="fill:#f08080;stroke:#000000;stroke-width:0.5;" x="821.032687" xlink:href="#m437a4866b1" y="539.601545"/>
     <use style="fill:#f08080;stroke:#000000;stroke-width:0.5;" x="833.830973" xlink:href="#m437a4866b1" y="545.941778"/>
     <use style="fill:#f08080;stroke:#000000;stroke-width:0.5;" x="846.629259" xlink:href="#m437a4866b1" y="533.208013"/>
     <use style="fill:#f08080;stroke:#000000;stroke-width:0.5;" x="859.427544" xlink:href="#m437a4866b1" y="533.022345"/>
     <use style="fill:#f08080;stroke:#000000;stroke-width:0.5;" x="872.22583" xlink:href="#m437a4866b1" y="533.027617"/>
     <use style="fill:#f08080;stroke:#000000;stroke-width:0.5;" x="885.024116" xlink:href="#m437a4866b1" y="520.814542"/>
     <use style="fill:#f08080;stroke:#000000;stroke-width:0.5;" x="897.822401" xlink:href="#m437a4866b1" y="521.97189"/>
     <use style="fill:#f08080;stroke:#000000;stroke-width:0.5;" x="910.620687" xlink:href="#m437a4866b1" y="520.791114"/>
     <use style="fill:#f08080;stroke:#000000;stroke-width:0.5;" x="936.217258" xlink:href="#m437a4866b1" y="485.229582"/>
     <use style="fill:#f08080;stroke:#000000;stroke-width:0.5;" x="949.015544" xlink:href="#m437a4866b1" y="485.418178"/>
     <use style="fill:#f08080;stroke:#000000;stroke-width:0.5;" x="961.81383" xlink:href="#m437a4866b1" y="476.665436"/>
     <use style="fill:#f08080;stroke:#000000;stroke-width:0.5;" x="974.612115" xlink:href="#m437a4866b1" y="492.430212"/>
     <use style="fill:#f08080;stroke:#000000;stroke-width:0.5;" x="987.410401" xlink:href="#m437a4866b1" y="472.202966"/>
     <use style="fill:#f08080;stroke:#000000;stroke-width:0.5;" x="1000.208687" xlink:href="#m437a4866b1" y="458.458278"/>
     <use style="fill:#f08080;stroke:#000000;stroke-width:0.5;" x="1013.006972" xlink:href="#m437a4866b1" y="466.170813"/>
     <use style="fill:#f08080;stroke:#000000;stroke-width:0.5;" x="1025.805258" xlink:href="#m437a4866b1" y="500.925246"/>
     <use style="fill:#f08080;stroke:#000000;stroke-width:0.5;" x="1038.603544" xlink:href="#m437a4866b1" y="483.556229"/>
     <use style="fill:#f08080;stroke:#000000;stroke-width:0.5;" x="1051.401829" xlink:href="#m437a4866b1" y="480.88191"/>
     <use style="fill:#f08080;stroke:#000000;stroke-width:0.5;" x="1064.200115" xlink:href="#m437a4866b1" y="447.441208"/>
     <use style="fill:#f08080;stroke:#000000;stroke-width:0.5;" x="1076.998401" xlink:href="#m437a4866b1" y="461.953752"/>
     <use style="fill:#f08080;stroke:#000000;stroke-width:0.5;" x="1089.796686" xlink:href="#m437a4866b1" y="441.239787"/>
     <use style="fill:#f08080;stroke:#000000;stroke-width:0.5;" x="1102.594972" xlink:href="#m437a4866b1" y="424.953735"/>
     <use style="fill:#f08080;stroke:#000000;stroke-width:0.5;" x="1115.393258" xlink:href="#m437a4866b1" y="414.385313"/>
     <use style="fill:#f08080;stroke:#000000;stroke-width:0.5;" x="1128.191544" xlink:href="#m437a4866b1" y="409.703791"/>
     <use style="fill:#f08080;stroke:#000000;stroke-width:0.5;" x="1140.989829" xlink:href="#m437a4866b1" y="402.729242"/>
     <use style="fill:#f08080;stroke:#000000;stroke-width:0.5;" x="1153.788115" xlink:href="#m437a4866b1" y="396.082101"/>
     <use style="fill:#f08080;stroke:#000000;stroke-width:0.5;" x="1166.586401" xlink:href="#m437a4866b1" y="386.897109"/>
     <use style="fill:#f08080;stroke:#000000;stroke-width:0.5;" x="1179.384686" xlink:href="#m437a4866b1" y="391.955239"/>
     <use style="fill:#f08080;stroke:#000000;stroke-width:0.5;" x="1192.182972" xlink:href="#m437a4866b1" y="388.617904"/>
     <use style="fill:#f08080;stroke:#000000;stroke-width:0.5;" x="1204.981258" xlink:href="#m437a4866b1" y="380.462578"/>
     <use style="fill:#f08080;stroke:#000000;stroke-width:0.5;" x="1217.779543" xlink:href="#m437a4866b1" y="372.974954"/>
     <use style="fill:#f08080;stroke:#000000;stroke-width:0.5;" x="1230.577829" xlink:href="#m437a4866b1" y="339.271271"/>
     <use style="fill:#f08080;stroke:#000000;stroke-width:0.5;" x="1243.376115" xlink:href="#m437a4866b1" y="321.597103"/>
     <use style="fill:#f08080;stroke:#000000;stroke-width:0.5;" x="1256.1744" xlink:href="#m437a4866b1" y="293.858218"/>
     <use style="fill:#f08080;stroke:#000000;stroke-width:0.5;" x="1268.972686" xlink:href="#m437a4866b1" y="274.61261"/>
     <use style="fill:#f08080;stroke:#000000;stroke-width:0.5;" x="1281.770972" xlink:href="#m437a4866b1" y="254.176268"/>
     <use style="fill:#f08080;stroke:#000000;stroke-width:0.5;" x="1294.569257" xlink:href="#m437a4866b1" y="233.366247"/>
     <use style="fill:#f08080;stroke:#000000;stroke-width:0.5;" x="1307.367543" xlink:href="#m437a4866b1" y="200.102427"/>
     <use style="fill:#f08080;stroke:#000000;stroke-width:0.5;" x="1320.165829" xlink:href="#m437a4866b1" y="198.42556"/>
     <use style="fill:#f08080;stroke:#000000;stroke-width:0.5;" x="1332.964114" xlink:href="#m437a4866b1" y="170.049431"/>
     <use style="fill:#f08080;stroke:#000000;stroke-width:0.5;" x="1345.7624" xlink:href="#m437a4866b1" y="138.040772"/>
     <use style="fill:#f08080;stroke:#000000;stroke-width:0.5;" x="1358.560686" xlink:href="#m437a4866b1" y="119.384381"/>
    </g>
   </g>
  </g>
  <g id="text_27">
   <!-- Usa -->
   <g transform="translate(669.355625 21.915625)scale(0.2 -0.2)">
    <defs>
     <path d="M 3.078125 68.359375 
Q 9.375 68.171875 15.1875 68.171875 
Q 21.046875 68.171875 27.296875 68.359375 
L 27.484375 66.265625 
L 21.4375 64.453125 
Q 20.265625 64.15625 20.171875 62.9375 
Q 20.125 61.234375 20.09375 59.203125 
Q 20.0625 57.171875 20.0625 54.78125 
L 20.0625 28.078125 
Q 20.0625 14.109375 24.5 8.71875 
Q 28.953125 3.328125 38.8125 3.328125 
Q 48.828125 3.328125 53.3125 8.890625 
Q 57.8125 14.453125 57.8125 27.484375 
L 57.8125 54.78125 
Q 57.8125 57.171875 57.78125 59.203125 
Q 57.765625 61.234375 57.671875 62.9375 
Q 57.625 64.0625 56.390625 64.453125 
L 50.6875 66.109375 
L 50.59375 68.359375 
Q 56.78125 68.171875 61.234375 68.171875 
Q 65.484375 68.171875 71.578125 68.359375 
L 71.78125 66.265625 
L 65.625 64.359375 
Q 64.5 63.96875 64.453125 62.703125 
Q 64.40625 61.078125 64.375 59.078125 
Q 64.359375 57.078125 64.359375 54.59375 
L 64.359375 29.546875 
Q 64.359375 13.53125 57.828125 5.859375 
Q 51.3125 -1.8125 37.3125 -1.8125 
Q 23.578125 -1.8125 17.03125 5.09375 
Q 10.5 12.015625 10.5 26.5625 
L 10.5 54.59375 
Q 10.5 57.078125 10.46875 59.078125 
Q 10.453125 61.078125 10.40625 62.703125 
Q 10.359375 63.96875 9.234375 64.359375 
L 3.171875 66.265625 
z
" id="Constantia-85"/>
    </defs>
    <use xlink:href="#Constantia-85"/>
    <use x="72.365234" xlink:href="#Constantia-115"/>
    <use x="112.84375" xlink:href="#Constantia-97"/>
   </g>
   <!-- Daily increase of NewCases -->
   <g transform="translate(567.841562 44.32125)scale(0.2 -0.2)">
    <defs>
     <path d="M 17.09375 0 
Q 11.1875 0 4.984375 -0.140625 
L 4.78125 1.953125 
L 10.796875 3.765625 
Q 12.0625 4.15625 12.109375 5.28125 
Q 12.15625 7.234375 12.171875 9.640625 
Q 12.203125 12.0625 12.203125 14.984375 
L 12.203125 54.59375 
Q 12.203125 57.078125 12.171875 59.078125 
Q 12.15625 61.078125 12.109375 62.703125 
Q 12.0625 63.96875 10.9375 64.359375 
L 4.890625 66.265625 
L 4.78125 68.359375 
Q 11.078125 68.171875 17.046875 68.171875 
Q 21.921875 68.171875 26.453125 68.40625 
Q 31 68.65625 35.796875 68.65625 
Q 52.875 68.65625 61.46875 60.859375 
Q 70.0625 53.078125 70.0625 37.75 
Q 70.0625 19.671875 60.515625 9.6875 
Q 50.984375 -0.296875 33.734375 -0.296875 
Q 29 -0.296875 25.28125 -0.140625 
Q 21.578125 0 17.09375 0 
z
M 21.78125 4.34375 
Q 24.65625 3.953125 27.40625 3.828125 
Q 30.171875 3.71875 32.953125 3.71875 
Q 45.84375 3.71875 52.578125 11.296875 
Q 59.328125 18.890625 59.328125 34.578125 
Q 59.328125 49.8125 52.921875 57.15625 
Q 46.53125 64.5 32.671875 64.5 
Q 30.46875 64.5 27.796875 64.40625 
Q 25.140625 64.3125 21.78125 64.0625 
z
" id="Constantia-68"/>
     <path d="M 2.734375 68.5 
L 2.484375 70.125 
Q 11.140625 71.78125 18.40625 73.578125 
L 18.84375 73.1875 
Q 18.5625 65.234375 18.5625 51.078125 
L 18.5625 19.28125 
Q 18.5625 10.546875 18.65625 5.21875 
Q 18.796875 3.8125 20.015625 3.46875 
L 25.34375 1.859375 
L 25.484375 -0.140625 
Q 18.890625 0 14.109375 0 
Q 9.328125 0 2.78125 -0.140625 
L 2.59375 1.859375 
L 8.109375 3.46875 
Q 9.328125 3.859375 9.421875 5.03125 
Q 9.515625 10.546875 9.515625 17.328125 
L 9.515625 37.40625 
Q 9.515625 55.5625 9.328125 66.546875 
z
" id="Constantia-108"/>
     <path d="M 2.828125 42.96875 
Q 10.984375 44.53125 18.3125 46.390625 
L 18.796875 46.046875 
L 18.796875 40.328125 
Q 27.828125 46.390625 36.53125 46.390625 
L 36.765625 46.09375 
Q 35.359375 38.8125 33.984375 31 
L 32.03125 30.671875 
Q 30.671875 34.8125 29.390625 37.328125 
Q 28.125 39.84375 25.390625 39.84375 
Q 22.75 39.84375 18.796875 37.40625 
L 18.796875 16.265625 
Q 18.796875 8.640625 18.890625 5.375 
Q 18.953125 4.046875 20.125 3.71875 
L 26.609375 1.859375 
L 26.765625 -0.140625 
Q 19.140625 0 14.359375 0 
Q 9.578125 0 3.03125 -0.140625 
L 2.828125 1.859375 
L 8.5 3.515625 
Q 9.671875 3.90625 9.71875 5.03125 
Q 9.765625 7.125 9.765625 11.03125 
L 9.765625 27.6875 
Q 9.765625 35.640625 9.578125 39.546875 
L 3.078125 41.3125 
z
" id="Constantia-114"/>
     <path d="M 18.796875 39.9375 
L 18.796875 13.421875 
Q 18.796875 8.84375 18.890625 5.375 
Q 19 4.046875 20.171875 3.71875 
L 26.375 1.859375 
L 26.515625 -0.140625 
Q 19.140625 0 14.40625 0 
Q 9.578125 0 3.03125 -0.140625 
L 2.78125 1.859375 
L 8.25 3.421875 
Q 9.625 3.859375 9.671875 5.03125 
Q 9.765625 8.0625 9.765625 11.421875 
L 9.765625 40.1875 
L 3.125 41.84375 
L 2.78125 43.890625 
L 9.8125 44.484375 
L 9.8125 44.671875 
Q 9.8125 58.453125 15.796875 66.015625 
Q 21.78125 73.578125 31.84375 73.578125 
Q 36.765625 73.578125 41.359375 72.359375 
Q 39.703125 66.40625 38.53125 60.109375 
L 36.46875 59.71875 
L 33.296875 69.484375 
Q 32.171875 69.625 30.46875 69.625 
Q 24.859375 69.625 21.828125 64.59375 
Q 18.796875 59.578125 18.796875 46.1875 
L 18.796875 44.578125 
L 30.953125 44.578125 
L 30.953125 39.9375 
z
" id="Constantia-102"/>
    </defs>
    <use xlink:href="#Constantia-68"/>
    <use x="73.847656" xlink:href="#Constantia-97"/>
    <use x="121.845703" xlink:href="#Constantia-105"/>
    <use x="150.166016" xlink:href="#Constantia-108"/>
    <use x="178.242188" xlink:href="#Constantia-121"/>
    <use x="226.386719" xlink:href="#Constantia-32"/>
    <use x="251.484375" xlink:href="#Constantia-105"/>
    <use x="279.804688" xlink:href="#Constantia-110"/>
    <use x="338.007812" xlink:href="#Constantia-99"/>
    <use x="384.150391" xlink:href="#Constantia-114"/>
    <use x="422.480469" xlink:href="#Constantia-101"/>
    <use x="470.380859" xlink:href="#Constantia-97"/>
    <use x="518.378906" xlink:href="#Constantia-115"/>
    <use x="558.857422" xlink:href="#Constantia-101"/>
    <use x="606.757812" xlink:href="#Constantia-32"/>
    <use x="629.355469" xlink:href="#Constantia-111"/>
    <use x="683.408203" xlink:href="#Constantia-102"/>
    <use x="714.365234" xlink:href="#Constantia-32"/>
    <use x="739.462891" xlink:href="#Constantia-78"/>
    <use x="812.865234" xlink:href="#Constantia-101"/>
    <use x="860.765625" xlink:href="#Constantia-119"/>
    <use x="933.958984" xlink:href="#Constantia-67"/>
    <use x="999.095703" xlink:href="#Constantia-97"/>
    <use x="1047.09375" xlink:href="#Constantia-115"/>
    <use x="1087.572266" xlink:href="#Constantia-101"/>
    <use x="1135.472656" xlink:href="#Constantia-115"/>
   </g>
  </g>
 </g>
 <defs>
  <clipPath id="pb54bfd28df">
   <rect height="573.98875" width="1264.470625" x="99.209375" y="69.21425"/>
  </clipPath>
 </defs>
</svg>
