<?xml version="1.0" encoding="utf-8" standalone="no"?>
<!DOCTYPE svg PUBLIC "-//W3C//DTD SVG 1.1//EN"
  "http://www.w3.org/Graphics/SVG/1.1/DTD/svg11.dtd">
<!-- Created with matplotlib (https://matplotlib.org/) -->
<svg height="765.648pt" version="1.1" viewBox="0 0 1375.2 765.648" width="1375.2pt" xmlns="http://www.w3.org/2000/svg" xmlns:xlink="http://www.w3.org/1999/xlink">
 <metadata>
  <rdf:RDF xmlns:cc="http://creativecommons.org/ns#" xmlns:dc="http://purl.org/dc/elements/1.1/" xmlns:rdf="http://www.w3.org/1999/02/22-rdf-syntax-ns#">
   <cc:Work>
    <dc:type rdf:resource="http://purl.org/dc/dcmitype/StillImage"/>
    <dc:date>2020-11-25T14:30:10.291553</dc:date>
    <dc:format>image/svg+xml</dc:format>
    <dc:creator>
     <cc:Agent>
      <dc:title>Matplotlib v3.3.2, https://matplotlib.org/</dc:title>
     </cc:Agent>
    </dc:creator>
   </cc:Work>
  </rdf:RDF>
 </metadata>
 <defs>
  <style type="text/css">*{stroke-linecap:butt;stroke-linejoin:round;}</style>
 </defs>
 <g id="figure_1">
  <g id="patch_1">
   <path d="M 0 765.648 
L 1375.2 765.648 
L 1375.2 0 
L 0 0 
z
" style="fill:none;"/>
  </g>
  <g id="axes_1">
   <g id="patch_2">
    <path d="M 101.209375 642.363 
L 1368 642.363 
L 1368 55.163 
L 101.209375 55.163 
z
" style="fill:#ffffff;"/>
   </g>
   <g id="patch_3">
    <path clip-path="url(#pb5967b8cf1)" d="M 0 0 
z
" style="fill:#ffa500;"/>
   </g>
   <g id="patch_4">
    <path clip-path="url(#pb5967b8cf1)" d="M 158.790767 642.363 
L 167.33717 642.363 
L 167.33717 83.124905 
L 158.790767 83.124905 
z
" style="fill:#ffa500;"/>
   </g>
   <g id="patch_5">
    <path clip-path="url(#pb5967b8cf1)" d="M 201.522783 642.363 
L 210.069187 642.363 
L 210.069187 346.416389 
L 201.522783 346.416389 
z
" style="fill:#ffa500;"/>
   </g>
   <g id="patch_6">
    <path clip-path="url(#pb5967b8cf1)" d="M 244.2548 642.363 
L 252.801203 642.363 
L 252.801203 320.158637 
L 244.2548 320.158637 
z
" style="fill:#ffa500;"/>
   </g>
   <g id="patch_7">
    <path clip-path="url(#pb5967b8cf1)" d="M 254.937804 642.363 
L 263.484207 642.363 
L 263.484207 590.015103 
L 254.937804 590.015103 
z
" style="fill:#ffa500;"/>
   </g>
   <g id="patch_8">
    <path clip-path="url(#pb5967b8cf1)" d="M 265.620808 642.363 
L 274.167211 642.363 
L 274.167211 538.927526 
L 265.620808 538.927526 
z
" style="fill:#ffa500;"/>
   </g>
   <g id="patch_9">
    <path clip-path="url(#pb5967b8cf1)" d="M 276.303812 642.363 
L 284.850215 642.363 
L 284.850215 564.264526 
L 276.303812 564.264526 
z
" style="fill:#ffa500;"/>
   </g>
   <g id="patch_10">
    <path clip-path="url(#pb5967b8cf1)" d="M 286.986816 642.363 
L 295.533219 642.363 
L 295.533219 529.537164 
L 286.986816 529.537164 
z
" style="fill:#ffa500;"/>
   </g>
   <g id="patch_11">
    <path clip-path="url(#pb5967b8cf1)" d="M 319.035828 642.363 
L 327.582232 642.363 
L 327.582232 449.30986 
L 319.035828 449.30986 
z
" style="fill:#ffa500;"/>
   </g>
   <g id="patch_12">
    <path clip-path="url(#pb5967b8cf1)" d="M 329.718832 642.363 
L 338.265236 642.363 
L 338.265236 609.363952 
L 329.718832 609.363952 
z
" style="fill:#ffa500;"/>
   </g>
   <g id="patch_13">
    <path clip-path="url(#pb5967b8cf1)" d="M 340.401837 642.363 
L 348.94824 642.363 
L 348.94824 508.440411 
L 340.401837 508.440411 
z
" style="fill:#ffa500;"/>
   </g>
   <g id="patch_14">
    <path clip-path="url(#pb5967b8cf1)" d="M 351.084841 642.363 
L 359.631244 642.363 
L 359.631244 558.689951 
L 351.084841 558.689951 
z
" style="fill:#ffa500;"/>
   </g>
   <g id="patch_15">
    <path clip-path="url(#pb5967b8cf1)" d="M 361.767845 642.363 
L 370.314248 642.363 
L 370.314248 510.207906 
L 361.767845 510.207906 
z
" style="fill:#ffa500;"/>
   </g>
   <g id="patch_16">
    <path clip-path="url(#pb5967b8cf1)" d="M 372.450849 642.363 
L 380.997252 642.363 
L 380.997252 575.339669 
L 372.450849 575.339669 
z
" style="fill:#ffa500;"/>
   </g>
   <g id="patch_17">
    <path clip-path="url(#pb5967b8cf1)" d="M 383.133853 642.363 
L 391.680256 642.363 
L 391.680256 603.615239 
L 383.133853 603.615239 
z
" style="fill:#ffa500;"/>
   </g>
   <g id="patch_18">
    <path clip-path="url(#pb5967b8cf1)" d="M 393.816857 642.363 
L 402.36326 642.363 
L 402.36326 556.595948 
L 393.816857 556.595948 
z
" style="fill:#ffa500;"/>
   </g>
   <g id="patch_19">
    <path clip-path="url(#pb5967b8cf1)" d="M 404.499861 642.363 
L 413.046264 642.363 
L 413.046264 620.582757 
L 404.499861 620.582757 
z
" style="fill:#ffa500;"/>
   </g>
   <g id="patch_20">
    <path clip-path="url(#pb5967b8cf1)" d="M 415.182865 642.363 
L 423.729268 642.363 
L 423.729268 546.136817 
L 415.182865 546.136817 
z
" style="fill:#ffa500;"/>
   </g>
   <g id="patch_21">
    <path clip-path="url(#pb5967b8cf1)" d="M 425.865869 642.363 
L 434.412273 642.363 
L 434.412273 516.603104 
L 425.865869 516.603104 
z
" style="fill:#ffa500;"/>
   </g>
   <g id="patch_22">
    <path clip-path="url(#pb5967b8cf1)" d="M 436.548873 642.363 
L 445.095277 642.363 
L 445.095277 576.682704 
L 436.548873 576.682704 
z
" style="fill:#ffa500;"/>
   </g>
   <g id="patch_23">
    <path clip-path="url(#pb5967b8cf1)" d="M 447.231877 642.363 
L 455.778281 642.363 
L 455.778281 605.354437 
L 447.231877 605.354437 
z
" style="fill:#ffa500;"/>
   </g>
   <g id="patch_24">
    <path clip-path="url(#pb5967b8cf1)" d="M 457.914882 642.363 
L 466.461285 642.363 
L 466.461285 399.752516 
L 457.914882 399.752516 
z
" style="fill:#ffa500;"/>
   </g>
   <g id="patch_25">
    <path clip-path="url(#pb5967b8cf1)" d="M 468.597886 642.363 
L 477.144289 642.363 
L 477.144289 597.439889 
L 468.597886 597.439889 
z
" style="fill:#ffa500;"/>
   </g>
   <g id="patch_26">
    <path clip-path="url(#pb5967b8cf1)" d="M 479.28089 642.363 
L 487.827293 642.363 
L 487.827293 570.402872 
L 479.28089 570.402872 
z
" style="fill:#ffa500;"/>
   </g>
   <g id="patch_27">
    <path clip-path="url(#pb5967b8cf1)" d="M 489.963894 642.363 
L 498.510297 642.363 
L 498.510297 565.411657 
L 489.963894 565.411657 
z
" style="fill:#ffa500;"/>
   </g>
   <g id="patch_28">
    <path clip-path="url(#pb5967b8cf1)" d="M 500.646898 642.363 
L 509.193301 642.363 
L 509.193301 551.365294 
L 500.646898 551.365294 
z
" style="fill:#ffa500;"/>
   </g>
   <g id="patch_29">
    <path clip-path="url(#pb5967b8cf1)" d="M 511.329902 642.363 
L 519.876305 642.363 
L 519.876305 555.215909 
L 511.329902 555.215909 
z
" style="fill:#ffa500;"/>
   </g>
   <g id="patch_30">
    <path clip-path="url(#pb5967b8cf1)" d="M 522.012906 642.363 
L 530.559309 642.363 
L 530.559309 580.835882 
L 522.012906 580.835882 
z
" style="fill:#ffa500;"/>
   </g>
   <g id="patch_31">
    <path clip-path="url(#pb5967b8cf1)" d="M 532.69591 642.363 
L 541.242313 642.363 
L 541.242313 550.0745 
L 532.69591 550.0745 
z
" style="fill:#ffa500;"/>
   </g>
   <g id="patch_32">
    <path clip-path="url(#pb5967b8cf1)" d="M 543.378914 642.363 
L 551.925318 642.363 
L 551.925318 570.844746 
L 543.378914 570.844746 
z
" style="fill:#ffa500;"/>
   </g>
   <g id="patch_33">
    <path clip-path="url(#pb5967b8cf1)" d="M 554.061918 642.363 
L 562.608322 642.363 
L 562.608322 553.356991 
L 554.061918 553.356991 
z
" style="fill:#ffa500;"/>
   </g>
   <g id="patch_34">
    <path clip-path="url(#pb5967b8cf1)" d="M 564.744922 642.363 
L 573.291326 642.363 
L 573.291326 557.318619 
L 564.744922 557.318619 
z
" style="fill:#ffa500;"/>
   </g>
   <g id="patch_35">
    <path clip-path="url(#pb5967b8cf1)" d="M 575.427927 642.363 
L 583.97433 642.363 
L 583.97433 541.870449 
L 575.427927 541.870449 
z
" style="fill:#ffa500;"/>
   </g>
   <g id="patch_36">
    <path clip-path="url(#pb5967b8cf1)" d="M 596.793935 642.363 
L 605.340338 642.363 
L 605.340338 462.291807 
L 596.793935 462.291807 
z
" style="fill:#ffa500;"/>
   </g>
   <g id="patch_37">
    <path clip-path="url(#pb5967b8cf1)" d="M 607.476939 642.363 
L 616.023342 642.363 
L 616.023342 571.388925 
L 607.476939 571.388925 
z
" style="fill:#ffa500;"/>
   </g>
   <g id="patch_38">
    <path clip-path="url(#pb5967b8cf1)" d="M 618.159943 642.363 
L 626.706346 642.363 
L 626.706346 566.049435 
L 618.159943 566.049435 
z
" style="fill:#ffa500;"/>
   </g>
   <g id="patch_39">
    <path clip-path="url(#pb5967b8cf1)" d="M 628.842947 642.363 
L 637.38935 642.363 
L 637.38935 568.472123 
L 628.842947 568.472123 
z
" style="fill:#ffa500;"/>
   </g>
   <g id="patch_40">
    <path clip-path="url(#pb5967b8cf1)" d="M 639.525951 642.363 
L 648.072354 642.363 
L 648.072354 551.896413 
L 639.525951 551.896413 
z
" style="fill:#ffa500;"/>
   </g>
   <g id="patch_41">
    <path clip-path="url(#pb5967b8cf1)" d="M 650.208955 642.363 
L 658.755358 642.363 
L 658.755358 527.95469 
L 650.208955 527.95469 
z
" style="fill:#ffa500;"/>
   </g>
   <g id="patch_42">
    <path clip-path="url(#pb5967b8cf1)" d="M 660.891959 642.363 
L 669.438363 642.363 
L 669.438363 539.578365 
L 660.891959 539.578365 
z
" style="fill:#ffa500;"/>
   </g>
   <g id="patch_43">
    <path clip-path="url(#pb5967b8cf1)" d="M 671.574963 642.363 
L 680.121367 642.363 
L 680.121367 543.431156 
L 671.574963 543.431156 
z
" style="fill:#ffa500;"/>
   </g>
   <g id="patch_44">
    <path clip-path="url(#pb5967b8cf1)" d="M 682.257967 642.363 
L 690.804371 642.363 
L 690.804371 546.722354 
L 682.257967 546.722354 
z
" style="fill:#ffa500;"/>
   </g>
   <g id="patch_45">
    <path clip-path="url(#pb5967b8cf1)" d="M 692.940972 642.363 
L 701.487375 642.363 
L 701.487375 564.769525 
L 692.940972 564.769525 
z
" style="fill:#ffa500;"/>
   </g>
   <g id="patch_46">
    <path clip-path="url(#pb5967b8cf1)" d="M 703.623976 642.363 
L 712.170379 642.363 
L 712.170379 550.252991 
L 703.623976 550.252991 
z
" style="fill:#ffa500;"/>
   </g>
   <g id="patch_47">
    <path clip-path="url(#pb5967b8cf1)" d="M 714.30698 642.363 
L 722.853383 642.363 
L 722.853383 532.31901 
L 714.30698 532.31901 
z
" style="fill:#ffa500;"/>
   </g>
   <g id="patch_48">
    <path clip-path="url(#pb5967b8cf1)" d="M 724.989984 642.363 
L 733.536387 642.363 
L 733.536387 547.579981 
L 724.989984 547.579981 
z
" style="fill:#ffa500;"/>
   </g>
   <g id="patch_49">
    <path clip-path="url(#pb5967b8cf1)" d="M 735.672988 642.363 
L 744.219391 642.363 
L 744.219391 551.104088 
L 735.672988 551.104088 
z
" style="fill:#ffa500;"/>
   </g>
   <g id="patch_50">
    <path clip-path="url(#pb5967b8cf1)" d="M 746.355992 642.363 
L 754.902395 642.363 
L 754.902395 547.035802 
L 746.355992 547.035802 
z
" style="fill:#ffa500;"/>
   </g>
   <g id="patch_51">
    <path clip-path="url(#pb5967b8cf1)" d="M 757.038996 642.363 
L 765.585399 642.363 
L 765.585399 547.769356 
L 757.038996 547.769356 
z
" style="fill:#ffa500;"/>
   </g>
   <g id="patch_52">
    <path clip-path="url(#pb5967b8cf1)" d="M 767.722 642.363 
L 776.268403 642.363 
L 776.268403 577.943024 
L 767.722 577.943024 
z
" style="fill:#ffa500;"/>
   </g>
   <g id="patch_53">
    <path clip-path="url(#pb5967b8cf1)" d="M 778.405004 642.363 
L 786.951408 642.363 
L 786.951408 559.92415 
L 778.405004 559.92415 
z
" style="fill:#ffa500;"/>
   </g>
   <g id="patch_54">
    <path clip-path="url(#pb5967b8cf1)" d="M 789.088008 642.363 
L 797.634412 642.363 
L 797.634412 537.227509 
L 789.088008 537.227509 
z
" style="fill:#ffa500;"/>
   </g>
   <g id="patch_55">
    <path clip-path="url(#pb5967b8cf1)" d="M 799.771012 642.363 
L 808.317416 642.363 
L 808.317416 545.307487 
L 799.771012 545.307487 
z
" style="fill:#ffa500;"/>
   </g>
   <g id="patch_56">
    <path clip-path="url(#pb5967b8cf1)" d="M 810.454017 642.363 
L 819.00042 642.363 
L 819.00042 536.628912 
L 810.454017 536.628912 
z
" style="fill:#ffa500;"/>
   </g>
   <g id="patch_57">
    <path clip-path="url(#pb5967b8cf1)" d="M 821.137021 642.363 
L 829.683424 642.363 
L 829.683424 562.137873 
L 821.137021 562.137873 
z
" style="fill:#ffa500;"/>
   </g>
   <g id="patch_58">
    <path clip-path="url(#pb5967b8cf1)" d="M 831.820025 642.363 
L 840.366428 642.363 
L 840.366428 577.431495 
L 831.820025 577.431495 
z
" style="fill:#ffa500;"/>
   </g>
   <g id="patch_59">
    <path clip-path="url(#pb5967b8cf1)" d="M 853.186033 642.363 
L 861.732436 642.363 
L 861.732436 455.335016 
L 853.186033 455.335016 
z
" style="fill:#ffa500;"/>
   </g>
   <g id="patch_60">
    <path clip-path="url(#pb5967b8cf1)" d="M 863.869037 642.363 
L 872.41544 642.363 
L 872.41544 548.411488 
L 863.869037 548.411488 
z
" style="fill:#ffa500;"/>
   </g>
   <g id="patch_61">
    <path clip-path="url(#pb5967b8cf1)" d="M 874.552041 642.363 
L 883.098444 642.363 
L 883.098444 539.145198 
L 874.552041 539.145198 
z
" style="fill:#ffa500;"/>
   </g>
   <g id="patch_62">
    <path clip-path="url(#pb5967b8cf1)" d="M 885.235045 642.363 
L 893.781448 642.363 
L 893.781448 589.823552 
L 885.235045 589.823552 
z
" style="fill:#ffa500;"/>
   </g>
   <g id="patch_63">
    <path clip-path="url(#pb5967b8cf1)" d="M 895.918049 642.363 
L 904.464453 642.363 
L 904.464453 518.427194 
L 895.918049 518.427194 
z
" style="fill:#ffa500;"/>
   </g>
   <g id="patch_64">
    <path clip-path="url(#pb5967b8cf1)" d="M 906.601053 642.363 
L 915.147457 642.363 
L 915.147457 459.940952 
L 906.601053 459.940952 
z
" style="fill:#ffa500;"/>
   </g>
   <g id="patch_65">
    <path clip-path="url(#pb5967b8cf1)" d="M 917.284057 642.363 
L 925.830461 642.363 
L 925.830461 586.334273 
L 917.284057 586.334273 
z
" style="fill:#ffa500;"/>
   </g>
   <g id="patch_66">
    <path clip-path="url(#pb5967b8cf1)" d="M 927.967062 642.363 
L 936.513465 642.363 
L 936.513465 579.064034 
L 927.967062 579.064034 
z
" style="fill:#ffa500;"/>
   </g>
   <g id="patch_67">
    <path clip-path="url(#pb5967b8cf1)" d="M 938.650066 642.363 
L 947.196469 642.363 
L 947.196469 547.257827 
L 938.650066 547.257827 
z
" style="fill:#ffa500;"/>
   </g>
   <g id="patch_68">
    <path clip-path="url(#pb5967b8cf1)" d="M 949.33307 642.363 
L 957.879473 642.363 
L 957.879473 559.168829 
L 949.33307 559.168829 
z
" style="fill:#ffa500;"/>
   </g>
   <g id="patch_69">
    <path clip-path="url(#pb5967b8cf1)" d="M 960.016074 642.363 
L 968.562477 642.363 
L 968.562477 486.435966 
L 960.016074 486.435966 
z
" style="fill:#ffa500;"/>
   </g>
   <g id="patch_70">
    <path clip-path="url(#pb5967b8cf1)" d="M 970.699078 642.363 
L 979.245481 642.363 
L 979.245481 537.723801 
L 970.699078 537.723801 
z
" style="fill:#ffa500;"/>
   </g>
   <g id="patch_71">
    <path clip-path="url(#pb5967b8cf1)" d="M 981.382082 642.363 
L 989.928485 642.363 
L 989.928485 518.860361 
L 981.382082 518.860361 
z
" style="fill:#ffa500;"/>
   </g>
   <g id="patch_72">
    <path clip-path="url(#pb5967b8cf1)" d="M 992.065086 642.363 
L 1000.611489 642.363 
L 1000.611489 579.823708 
L 992.065086 579.823708 
z
" style="fill:#ffa500;"/>
   </g>
   <g id="patch_73">
    <path clip-path="url(#pb5967b8cf1)" d="M 1002.74809 642.363 
L 1011.294493 642.363 
L 1011.294493 562.629811 
L 1002.74809 562.629811 
z
" style="fill:#ffa500;"/>
   </g>
   <g id="patch_74">
    <path clip-path="url(#pb5967b8cf1)" d="M 1013.431094 642.363 
L 1021.977498 642.363 
L 1021.977498 500.445325 
L 1013.431094 500.445325 
z
" style="fill:#ffa500;"/>
   </g>
   <g id="patch_75">
    <path clip-path="url(#pb5967b8cf1)" d="M 1024.114098 642.363 
L 1032.660502 642.363 
L 1032.660502 548.246057 
L 1024.114098 548.246057 
z
" style="fill:#ffa500;"/>
   </g>
   <g id="patch_76">
    <path clip-path="url(#pb5967b8cf1)" d="M 1034.797102 642.363 
L 1043.343506 642.363 
L 1043.343506 530.880199 
L 1034.797102 530.880199 
z
" style="fill:#ffa500;"/>
   </g>
   <g id="patch_77">
    <path clip-path="url(#pb5967b8cf1)" d="M 1045.480107 642.363 
L 1054.02651 642.363 
L 1054.02651 535.965013 
L 1045.480107 535.965013 
z
" style="fill:#ffa500;"/>
   </g>
   <g id="patch_78">
    <path clip-path="url(#pb5967b8cf1)" d="M 1056.163111 642.363 
L 1064.709514 642.363 
L 1064.709514 536.901002 
L 1056.163111 536.901002 
z
" style="fill:#ffa500;"/>
   </g>
   <g id="patch_79">
    <path clip-path="url(#pb5967b8cf1)" d="M 1066.846115 642.363 
L 1075.392518 642.363 
L 1075.392518 578.145459 
L 1066.846115 578.145459 
z
" style="fill:#ffa500;"/>
   </g>
   <g id="patch_80">
    <path clip-path="url(#pb5967b8cf1)" d="M 1077.529119 642.363 
L 1086.075522 642.363 
L 1086.075522 523.631727 
L 1077.529119 523.631727 
z
" style="fill:#ffa500;"/>
   </g>
   <g id="patch_81">
    <path clip-path="url(#pb5967b8cf1)" d="M 1088.212123 642.363 
L 1096.758526 642.363 
L 1096.758526 524.606897 
L 1088.212123 524.606897 
z
" style="fill:#ffa500;"/>
   </g>
   <g id="patch_82">
    <path clip-path="url(#pb5967b8cf1)" d="M 1098.895127 642.363 
L 1107.44153 642.363 
L 1107.44153 489.587854 
L 1098.895127 489.587854 
z
" style="fill:#ffa500;"/>
   </g>
   <g id="patch_83">
    <path clip-path="url(#pb5967b8cf1)" d="M 1109.578131 642.363 
L 1118.124534 642.363 
L 1118.124534 508.721207 
L 1109.578131 508.721207 
z
" style="fill:#ffa500;"/>
   </g>
   <g id="patch_84">
    <path clip-path="url(#pb5967b8cf1)" d="M 1120.261135 642.363 
L 1128.807538 642.363 
L 1128.807538 536.311111 
L 1120.261135 536.311111 
z
" style="fill:#ffa500;"/>
   </g>
   <g id="patch_85">
    <path clip-path="url(#pb5967b8cf1)" d="M 1130.944139 642.363 
L 1139.490543 642.363 
L 1139.490543 525.545063 
L 1130.944139 525.545063 
z
" style="fill:#ffa500;"/>
   </g>
   <g id="patch_86">
    <path clip-path="url(#pb5967b8cf1)" d="M 1141.627143 642.363 
L 1150.173547 642.363 
L 1150.173547 557.96075 
L 1141.627143 557.96075 
z
" style="fill:#ffa500;"/>
   </g>
   <g id="patch_87">
    <path clip-path="url(#pb5967b8cf1)" d="M 1152.310147 642.363 
L 1160.856551 642.363 
L 1160.856551 520.817231 
L 1152.310147 520.817231 
z
" style="fill:#ffa500;"/>
   </g>
   <g id="patch_88">
    <path clip-path="url(#pb5967b8cf1)" d="M 1162.993152 642.363 
L 1171.539555 642.363 
L 1171.539555 507.530542 
L 1162.993152 507.530542 
z
" style="fill:#ffa500;"/>
   </g>
   <g id="patch_89">
    <path clip-path="url(#pb5967b8cf1)" d="M 1173.676156 642.363 
L 1182.222559 642.363 
L 1182.222559 544.584817 
L 1173.676156 544.584817 
z
" style="fill:#ffa500;"/>
   </g>
   <g id="patch_90">
    <path clip-path="url(#pb5967b8cf1)" d="M 1184.35916 642.363 
L 1192.905563 642.363 
L 1192.905563 520.725808 
L 1184.35916 520.725808 
z
" style="fill:#ffa500;"/>
   </g>
   <g id="patch_91">
    <path clip-path="url(#pb5967b8cf1)" d="M 1195.042164 642.363 
L 1203.588567 642.363 
L 1203.588567 474.437895 
L 1195.042164 474.437895 
z
" style="fill:#ffa500;"/>
   </g>
   <g id="patch_92">
    <path clip-path="url(#pb5967b8cf1)" d="M 1205.725168 642.363 
L 1214.271571 642.363 
L 1214.271571 495.763204 
L 1205.725168 495.763204 
z
" style="fill:#ffa500;"/>
   </g>
   <g id="patch_93">
    <path clip-path="url(#pb5967b8cf1)" d="M 1216.408172 642.363 
L 1224.954575 642.363 
L 1224.954575 447.416115 
L 1216.408172 447.416115 
z
" style="fill:#ffa500;"/>
   </g>
   <g id="patch_94">
    <path clip-path="url(#pb5967b8cf1)" d="M 1227.091176 642.363 
L 1235.637579 642.363 
L 1235.637579 530.588519 
L 1227.091176 530.588519 
z
" style="fill:#ffa500;"/>
   </g>
   <g id="patch_95">
    <path clip-path="url(#pb5967b8cf1)" d="M 1237.77418 642.363 
L 1246.320583 642.363 
L 1246.320583 448.791801 
L 1237.77418 448.791801 
z
" style="fill:#ffa500;"/>
   </g>
   <g id="patch_96">
    <path clip-path="url(#pb5967b8cf1)" d="M 1248.457184 642.363 
L 1257.003588 642.363 
L 1257.003588 467.078411 
L 1248.457184 467.078411 
z
" style="fill:#ffa500;"/>
   </g>
   <g id="patch_97">
    <path clip-path="url(#pb5967b8cf1)" d="M 1259.140188 642.363 
L 1267.686592 642.363 
L 1267.686592 497.717897 
L 1259.140188 497.717897 
z
" style="fill:#ffa500;"/>
   </g>
   <g id="patch_98">
    <path clip-path="url(#pb5967b8cf1)" d="M 1269.823192 642.363 
L 1278.369596 642.363 
L 1278.369596 471.523269 
L 1269.823192 471.523269 
z
" style="fill:#ffa500;"/>
   </g>
   <g id="patch_99">
    <path clip-path="url(#pb5967b8cf1)" d="M 1280.506197 642.363 
L 1289.0526 642.363 
L 1289.0526 424.194885 
L 1280.506197 424.194885 
z
" style="fill:#ffa500;"/>
   </g>
   <g id="patch_100">
    <path clip-path="url(#pb5967b8cf1)" d="M 1291.189201 642.363 
L 1299.735604 642.363 
L 1299.735604 517.42155 
L 1291.189201 517.42155 
z
" style="fill:#ffa500;"/>
   </g>
   <g id="patch_101">
    <path clip-path="url(#pb5967b8cf1)" d="M 1301.872205 642.363 
L 1310.418608 642.363 
L 1310.418608 492.232567 
L 1301.872205 492.232567 
z
" style="fill:#ffa500;"/>
   </g>
   <g id="matplotlib.axis_1">
    <g id="xtick_1">
     <g id="line2d_1">
      <defs>
       <path d="M 0 0 
L 0 3.5 
" id="ma1b679af5d" style="stroke:#000000;stroke-width:0.8;"/>
      </defs>
      <g>
       <use style="stroke:#000000;stroke-width:0.8;" x="419.456067" xlink:href="#ma1b679af5d" y="642.363"/>
      </g>
     </g>
     <g id="text_1">
      <!--  -->
      <g transform="translate(419.456067 664.078625)scale(0.2 -0.2)"/>
      <!--  -->
      <g transform="translate(419.456067 686.48425)scale(0.2 -0.2)"/>
      <!--  -->
      <g transform="translate(419.456067 708.889875)scale(0.2 -0.2)"/>
      <!-- Sep -->
      <g transform="translate(403.971692 731.2955)scale(0.2 -0.2)">
       <defs>
        <path d="M 37.109375 63.921875 
Q 31.984375 65.625 27.6875 65.625 
Q 21.234375 65.625 17.40625 62.5 
Q 13.578125 59.375 13.578125 53.8125 
Q 13.578125 50.640625 14.921875 48.234375 
Q 16.265625 45.84375 18.53125 44.03125 
Q 20.796875 42.234375 23.671875 40.8125 
Q 26.5625 39.40625 29.640625 38.03125 
Q 33.015625 36.578125 36.1875 34.9375 
Q 39.359375 33.296875 41.921875 31.09375 
Q 44.484375 28.90625 46.015625 25.828125 
Q 47.5625 22.75 47.5625 18.65625 
Q 47.5625 8.9375 40.75 3.8125 
Q 33.9375 -1.3125 21.875 -1.3125 
Q 14.109375 -1.3125 4.6875 1.3125 
L 4.390625 1.703125 
L 6.78125 18.3125 
L 8.984375 18.65625 
L 12.40625 4.78125 
Q 17.578125 2.734375 23 2.734375 
Q 30.28125 2.734375 34.34375 5.953125 
Q 38.421875 9.1875 38.421875 15.140625 
Q 38.421875 18.265625 37.109375 20.625 
Q 35.796875 23 33.5625 24.703125 
Q 31.34375 26.421875 28.515625 27.8125 
Q 25.6875 29.203125 22.65625 30.5625 
Q 19.234375 32.03125 16.015625 33.734375 
Q 12.796875 35.453125 10.171875 37.71875 
Q 7.5625 39.984375 6 43.28125 
Q 4.4375 46.578125 4.4375 50.984375 
Q 4.4375 59.8125 11.046875 64.640625 
Q 17.671875 69.484375 28.609375 69.484375 
Q 36.328125 69.484375 44.78125 67.671875 
L 45.125 67.328125 
L 42.234375 52.09375 
L 40.28125 51.765625 
z
" id="Constantia-83"/>
        <path d="M 44.046875 3.46875 
Q 39.890625 0.875 35.5 -0.25 
Q 31.109375 -1.375 27.34375 -1.375 
Q 16.609375 -1.375 10.203125 4.75 
Q 3.8125 10.890625 3.8125 21.78125 
Q 3.8125 32.625 9.9375 39.5 
Q 16.0625 46.390625 26.3125 46.390625 
Q 34.90625 46.390625 39.6875 41.234375 
Q 44.484375 36.078125 44.484375 27 
Q 44.484375 25.640625 44.34375 24.21875 
L 13.375 24.21875 
Q 13.375 13.71875 18.3125 9.203125 
Q 23.25 4.6875 33.734375 4.6875 
Q 38.421875 4.6875 43.75 5.5625 
z
M 34.765625 28.265625 
L 34.765625 29.734375 
Q 34.765625 36.671875 32.546875 39.640625 
Q 30.328125 42.625 25.921875 42.625 
Q 20.125 42.625 17.046875 38.421875 
Q 13.96875 34.234375 13.578125 28.265625 
z
" id="Constantia-101"/>
        <path d="M 2.09375 41.3125 
L 1.859375 42.96875 
Q 10.0625 44.53125 17.328125 46.390625 
L 17.828125 46.046875 
L 17.828125 41.265625 
Q 25.296875 46.390625 32.28125 46.390625 
Q 41.359375 46.390625 46.703125 40.3125 
Q 52.046875 34.234375 52.046875 24.515625 
Q 52.046875 12.546875 45.15625 5.578125 
Q 38.28125 -1.375 25.640625 -1.375 
Q 21.875 -1.375 17.828125 -0.640625 
L 17.828125 -11.328125 
Q 17.828125 -16.21875 17.921875 -18.171875 
Q 18.015625 -19.625 19.234375 -19.921875 
L 25.640625 -21.734375 
L 25.78125 -23.734375 
Q 18.171875 -23.578125 13.375 -23.578125 
Q 8.59375 -23.578125 2.046875 -23.734375 
L 1.859375 -21.734375 
L 7.46875 -20.0625 
Q 8.640625 -19.734375 8.6875 -18.5625 
Q 8.796875 -14.984375 8.796875 -7.765625 
L 8.796875 12.109375 
Q 8.796875 33.734375 8.59375 39.453125 
z
M 17.828125 3.765625 
Q 22.078125 2.828125 26.03125 2.828125 
Q 34.125 2.828125 38.21875 7.90625 
Q 42.328125 12.984375 42.328125 22.46875 
Q 42.328125 31.390625 38.421875 35.9375 
Q 34.515625 40.484375 27.203125 40.484375 
Q 21.921875 40.484375 17.828125 38.328125 
z
" id="Constantia-112"/>
       </defs>
       <use xlink:href="#Constantia-83"/>
       <use x="50.976562" xlink:href="#Constantia-101"/>
       <use x="98.876953" xlink:href="#Constantia-112"/>
      </g>
      <!-- 2020 -->
      <g transform="translate(398.996692 753.701125)scale(0.2 -0.2)">
       <defs>
        <path d="M 42.390625 15.484375 
L 44.53125 15.875 
L 43.5625 0.203125 
L 43.21875 -0.140625 
Q 33.25 0 22.359375 0 
Q 12.25 0 3.765625 -0.140625 
L 3.421875 3.859375 
Q 8.015625 6.84375 11.671875 9.375 
Q 15.328125 11.921875 18.015625 14.109375 
Q 20.703125 16.265625 22.75 18.21875 
Q 24.8125 20.171875 26.203125 22.09375 
Q 27.59375 24.03125 28.3125 26.03125 
Q 29.046875 28.03125 29.046875 30.21875 
Q 29.046875 34.71875 25.78125 37.34375 
Q 22.515625 39.984375 17.78125 39.984375 
Q 12.203125 39.984375 6.546875 36.96875 
L 4.6875 40.1875 
Q 13.8125 46.390625 23 46.390625 
Q 29.890625 46.390625 34.453125 43.046875 
Q 39.015625 39.703125 39.015625 33.734375 
Q 39.015625 30.03125 37.34375 26.828125 
Q 35.6875 23.640625 32.515625 20.5625 
Q 29.34375 17.484375 24.75 14.328125 
Q 20.171875 11.1875 14.265625 7.671875 
L 14.3125 7.421875 
L 38.578125 7.421875 
z
" id="Constantia-50"/>
        <path d="M 13.671875 23.296875 
Q 13.671875 13.625 17.15625 8.109375 
Q 20.65625 2.59375 27.203125 2.59375 
Q 33.84375 2.59375 37.015625 7.515625 
Q 40.1875 12.453125 40.1875 22.609375 
Q 40.1875 32.5625 36.71875 37.609375 
Q 33.25 42.671875 26.65625 42.671875 
Q 19.921875 42.671875 16.796875 37.84375 
Q 13.671875 33.015625 13.671875 23.296875 
z
M 49.953125 23.6875 
Q 49.953125 12.25 43.4375 5.484375 
Q 36.921875 -1.265625 26.421875 -1.265625 
Q 16.3125 -1.265625 10.109375 4.9375 
Q 3.90625 11.140625 3.90625 22.015625 
Q 3.90625 33.203125 10.390625 39.796875 
Q 16.890625 46.390625 27.484375 46.390625 
Q 37.796875 46.390625 43.875 40.375 
Q 49.953125 34.375 49.953125 23.6875 
z
" id="Constantia-48"/>
       </defs>
       <use xlink:href="#Constantia-50"/>
       <use x="48.4375" xlink:href="#Constantia-48"/>
       <use x="102.294922" xlink:href="#Constantia-50"/>
       <use x="150.732422" xlink:href="#Constantia-48"/>
      </g>
     </g>
    </g>
    <g id="xtick_2">
     <g id="line2d_2">
      <g>
       <use style="stroke:#000000;stroke-width:0.8;" x="739.94619" xlink:href="#ma1b679af5d" y="642.363"/>
      </g>
     </g>
     <g id="text_2">
      <!--  -->
      <g transform="translate(739.94619 664.078625)scale(0.2 -0.2)"/>
      <!--  -->
      <g transform="translate(739.94619 686.48425)scale(0.2 -0.2)"/>
      <!--  -->
      <g transform="translate(739.94619 708.889875)scale(0.2 -0.2)"/>
      <!-- Oct -->
      <g transform="translate(723.760252 731.2955)scale(0.2 -0.2)">
       <defs>
        <path d="M 15.578125 35.015625 
Q 15.578125 19.09375 22.015625 10.625 
Q 28.46875 2.15625 40.921875 2.15625 
Q 53.171875 2.15625 59 9.84375 
Q 64.84375 17.53125 64.84375 33.984375 
Q 64.84375 49.421875 58.640625 57.71875 
Q 52.4375 66.015625 39.5 66.015625 
Q 26.953125 66.015625 21.265625 58.328125 
Q 15.578125 50.640625 15.578125 35.015625 
z
M 75.59375 35.640625 
Q 75.59375 18.75 65.984375 8.46875 
Q 56.390625 -1.8125 39.15625 -1.8125 
Q 22.796875 -1.8125 13.84375 7.6875 
Q 4.890625 17.1875 4.890625 33.40625 
Q 4.890625 50.296875 14.53125 60.125 
Q 24.171875 69.96875 41.265625 69.96875 
Q 57.671875 69.96875 66.625 60.765625 
Q 75.59375 51.5625 75.59375 35.640625 
z
" id="Constantia-79"/>
        <path d="M 42.96875 3.46875 
Q 39.9375 1.421875 35.46875 0.015625 
Q 31 -1.375 26.609375 -1.375 
Q 16.0625 -1.375 9.90625 4.796875 
Q 3.765625 10.984375 3.765625 21.296875 
Q 3.765625 32.46875 10.734375 39.421875 
Q 17.71875 46.390625 28.8125 46.390625 
Q 35.984375 46.390625 42.71875 43.453125 
Q 41.109375 36.921875 39.84375 30.078125 
L 37.9375 29.78125 
L 33.984375 41.5 
Q 31.734375 42.28125 28.90625 42.28125 
Q 21.625 42.28125 17.515625 37.203125 
Q 13.421875 32.125 13.421875 23.78125 
Q 13.421875 13.96875 18.0625 9.28125 
Q 22.703125 4.59375 32.765625 4.59375 
Q 37.40625 4.59375 42.671875 5.515625 
z
" id="Constantia-99"/>
        <path d="M 17.484375 39.9375 
Q 17.1875 23.4375 17.1875 13.328125 
Q 17.1875 8.25 18.703125 6.3125 
Q 20.21875 4.390625 24.46875 4.390625 
Q 27.828125 4.390625 33.25 5.28125 
L 33.546875 3.078125 
Q 25.09375 -1.171875 18.453125 -1.171875 
Q 13.140625 -1.171875 10.546875 1.6875 
Q 7.953125 4.546875 7.953125 10.296875 
Q 7.953125 19.78125 8.296875 40.234375 
L 1.5625 41.890625 
L 1.265625 43.890625 
L 8.796875 44.53125 
L 12.15625 56.34375 
Q 14.890625 57.078125 17.140625 57.765625 
L 17.625 57.421875 
Q 17.484375 51.515625 17.484375 46.390625 
L 17.484375 44.578125 
L 32.171875 44.578125 
L 32.171875 39.9375 
z
" id="Constantia-116"/>
       </defs>
       <use xlink:href="#Constantia-79"/>
       <use x="80.419922" xlink:href="#Constantia-99"/>
       <use x="126.5625" xlink:href="#Constantia-116"/>
      </g>
      <!-- 2020 -->
      <g transform="translate(719.486815 753.701125)scale(0.2 -0.2)">
       <use xlink:href="#Constantia-50"/>
       <use x="48.4375" xlink:href="#Constantia-48"/>
       <use x="102.294922" xlink:href="#Constantia-50"/>
       <use x="150.732422" xlink:href="#Constantia-48"/>
      </g>
     </g>
    </g>
    <g id="xtick_3">
     <g id="line2d_3">
      <g>
       <use style="stroke:#000000;stroke-width:0.8;" x="1071.119316" xlink:href="#ma1b679af5d" y="642.363"/>
      </g>
     </g>
     <g id="text_3">
      <!--  -->
      <g transform="translate(1071.119316 664.078625)scale(0.2 -0.2)"/>
      <!--  -->
      <g transform="translate(1071.119316 686.48425)scale(0.2 -0.2)"/>
      <!--  -->
      <g transform="translate(1071.119316 708.889875)scale(0.2 -0.2)"/>
      <!-- Nov -->
      <g transform="translate(1053.544316 731.2955)scale(0.2 -0.2)">
       <defs>
        <path d="M 16.65625 54.4375 
L 16.65625 14.984375 
Q 16.65625 9.234375 16.75 5.421875 
Q 16.796875 4.046875 17.96875 3.765625 
L 23.78125 2.046875 
L 23.875 -0.140625 
Q 17.78125 0 13.875 0 
Q 10.0625 0 3.765625 -0.140625 
L 3.5625 1.953125 
L 9.578125 3.765625 
Q 10.84375 4.15625 10.890625 5.28125 
Q 10.984375 9.234375 10.984375 14.984375 
L 10.984375 54.59375 
Q 10.984375 59.46875 10.890625 62.703125 
Q 10.84375 63.96875 9.71875 64.359375 
L 3.65625 66.265625 
L 3.5625 68.359375 
Q 9.859375 68.171875 13.53125 68.171875 
Q 15.71875 68.171875 17.96875 68.359375 
L 58.984375 17.140625 
L 58.984375 54.78125 
Q 58.984375 59.515625 58.890625 62.9375 
Q 58.84375 64.0625 57.625 64.453125 
L 51.859375 66.109375 
L 51.765625 68.359375 
Q 58.015625 68.171875 61.859375 68.171875 
Q 65.765625 68.171875 71.875 68.359375 
L 72.078125 66.265625 
L 65.921875 64.359375 
Q 64.796875 63.96875 64.75 62.703125 
Q 64.65625 59.46875 64.65625 54.59375 
L 64.65625 0 
L 60.546875 -0.390625 
z
" id="Constantia-78"/>
        <path d="M 13.71875 23.046875 
Q 13.71875 13.921875 17.140625 8.171875 
Q 20.5625 2.4375 27.296875 2.4375 
Q 33.59375 2.4375 36.890625 7.484375 
Q 40.1875 12.546875 40.1875 22.46875 
Q 40.1875 31.78125 36.71875 37.15625 
Q 33.25 42.53125 26.65625 42.53125 
Q 20.40625 42.53125 17.0625 37.6875 
Q 13.71875 32.859375 13.71875 23.046875 
z
M 50.140625 23.484375 
Q 50.140625 12.359375 43.421875 5.484375 
Q 36.71875 -1.375 26.375 -1.375 
Q 16.265625 -1.375 10.03125 5.09375 
Q 3.8125 11.578125 3.8125 22.015625 
Q 3.8125 32.765625 10.328125 39.578125 
Q 16.84375 46.390625 27.59375 46.390625 
Q 37.75 46.390625 43.9375 40.109375 
Q 50.140625 33.84375 50.140625 23.484375 
z
" id="Constantia-111"/>
        <path d="M -1.515625 45.265625 
Q 4.640625 45.125 9.421875 45.125 
Q 13.8125 45.125 19.96875 45.265625 
L 20.171875 43.265625 
L 14.5 41.703125 
Q 18.5 30.328125 23.78125 17.53125 
Q 25.140625 14.15625 26.21875 11.078125 
Q 27.296875 14.15625 28.71875 17.484375 
Q 33.15625 28.421875 38.03125 41.703125 
L 32.46875 43.265625 
L 32.28125 45.265625 
Q 36.234375 45.125 40.53125 45.125 
Q 44.921875 45.125 49.03125 45.265625 
L 49.21875 43.265625 
L 44.34375 41.84375 
Q 43.21875 41.453125 42.4375 39.9375 
Q 38.578125 31 33.46875 18.671875 
Q 28.375 6.34375 25.78125 -0.34375 
L 21.625 -0.78125 
Q 18.953125 6.296875 13.890625 18.59375 
Q 8.84375 30.90625 5.21875 39.703125 
Q 4.4375 41.40625 3.078125 41.890625 
L -1.421875 43.265625 
z
" id="Constantia-118"/>
       </defs>
       <use xlink:href="#Constantia-78"/>
       <use x="73.402344" xlink:href="#Constantia-111"/>
       <use x="127.455078" xlink:href="#Constantia-118"/>
      </g>
      <!-- 2020 -->
      <g transform="translate(1050.659941 753.701125)scale(0.2 -0.2)">
       <use xlink:href="#Constantia-50"/>
       <use x="48.4375" xlink:href="#Constantia-48"/>
       <use x="102.294922" xlink:href="#Constantia-50"/>
       <use x="150.732422" xlink:href="#Constantia-48"/>
      </g>
     </g>
    </g>
    <g id="xtick_4">
     <g id="line2d_4">
      <path clip-path="url(#pb5967b8cf1)" d="M 173.746973 642.363 
L 173.746973 55.163 
" style="fill:none;stroke:#b0b0b0;stroke-linecap:square;stroke-width:0.8;"/>
     </g>
     <g id="line2d_5">
      <defs>
       <path d="M 0 0 
L 0 2 
" id="mf545571e83" style="stroke:#000000;stroke-width:0.6;"/>
      </defs>
      <g>
       <use style="stroke:#000000;stroke-width:0.6;" x="173.746973" xlink:href="#mf545571e83" y="642.363"/>
      </g>
     </g>
     <g id="text_4">
      <!-- 09 -->
      <g transform="translate(163.981973 661.007062)scale(0.18 -0.18)">
       <defs>
        <path d="M 8.640625 -19 
Q 20.90625 -16.796875 28.984375 -9.671875 
Q 37.0625 -2.546875 40.375 10.109375 
L 40.28125 10.15625 
Q 34.578125 3.65625 25.4375 3.65625 
Q 16.3125 3.65625 10.234375 9.484375 
Q 4.15625 15.328125 4.15625 24.3125 
Q 4.15625 33.6875 10.796875 40.03125 
Q 17.4375 46.390625 27.046875 46.390625 
Q 37.546875 46.390625 44.265625 38.75 
Q 50.984375 31.109375 50.984375 19.1875 
Q 50.984375 2.828125 39.578125 -8.59375 
Q 28.171875 -20.015625 9.328125 -22.46875 
z
M 14.0625 27.25 
Q 14.0625 18.5625 18.015625 13.28125 
Q 21.96875 8.015625 28.125 8.015625 
Q 34.234375 8.015625 37.453125 11.9375 
Q 40.671875 15.875 40.671875 22.90625 
Q 40.671875 31.453125 36.421875 37.15625 
Q 32.171875 42.875 26.21875 42.875 
Q 20.953125 42.875 17.5 38.640625 
Q 14.0625 34.421875 14.0625 27.25 
z
" id="Constantia-57"/>
       </defs>
       <use xlink:href="#Constantia-48"/>
       <use x="53.857422" xlink:href="#Constantia-57"/>
      </g>
      <!-- Sun -->
      <g transform="translate(158.795723 681.172125)scale(0.18 -0.18)">
       <defs>
        <path d="M 38.875 4.296875 
Q 31.25 -1.375 23.640625 -1.375 
Q 15.96875 -1.375 12.125 2.53125 
Q 8.296875 6.453125 8.296875 13.53125 
L 8.296875 23.875 
Q 8.296875 34.328125 8.109375 39.546875 
L 1.609375 41.3125 
L 1.375 42.96875 
Q 9.90625 44.53125 17.1875 46.390625 
L 17.625 46.046875 
Q 17.328125 40.328125 17.328125 31.34375 
L 17.328125 15.828125 
Q 17.328125 9.90625 20.109375 7.25 
Q 22.90625 4.59375 27.984375 4.59375 
Q 33.0625 4.59375 38.375 7.28125 
L 38.375 28.078125 
Q 38.375 34.90625 38.1875 39.546875 
L 31.734375 41.3125 
L 31.5 42.96875 
Q 39.984375 44.53125 47.265625 46.390625 
L 47.703125 46.046875 
Q 47.40625 40.1875 47.40625 31.0625 
Q 47.40625 13.328125 47.515625 9.421875 
Q 47.5625 7.421875 47.796875 6.203125 
Q 48.046875 4.984375 48.734375 4.3125 
Q 49.421875 3.65625 50.75 3.390625 
Q 52.09375 3.125 54.34375 3.078125 
L 54.59375 1.171875 
Q 52.34375 0.296875 49.40625 -0.5 
Q 46.484375 -1.3125 45.40625 -1.3125 
Q 40.484375 -1.3125 38.875 4.296875 
z
" id="Constantia-117"/>
        <path d="M 2.828125 42.96875 
Q 11.03125 44.53125 18.3125 46.390625 
L 18.796875 46.046875 
L 18.796875 40.375 
Q 27.296875 46.390625 34.625 46.390625 
Q 41.546875 46.390625 45.484375 42.5 
Q 49.421875 38.625 49.421875 31.5 
L 49.421875 14.265625 
Q 49.421875 8.15625 49.515625 5.21875 
Q 49.5625 3.90625 50.78125 3.515625 
L 56.203125 1.859375 
L 56.296875 -0.140625 
Q 49.859375 0 45.0625 0 
Q 40.28125 0 34.421875 -0.140625 
L 34.234375 1.859375 
L 39.109375 3.265625 
Q 40.234375 3.65625 40.328125 4.78125 
Q 40.375 5.46875 40.375 7.859375 
L 40.375 29.15625 
Q 40.375 35.15625 37.5 37.765625 
Q 34.625 40.375 29 40.375 
Q 24.078125 40.375 18.796875 37.546875 
L 18.796875 16.21875 
Q 18.796875 10.109375 18.890625 5.03125 
Q 18.953125 3.71875 20.015625 3.375 
L 25.09375 1.859375 
L 25.203125 -0.140625 
Q 19.140625 0 14.359375 0 
Q 9.578125 0 3.03125 -0.140625 
L 2.828125 1.859375 
L 8.59375 3.515625 
Q 9.671875 3.953125 9.71875 5.03125 
Q 9.765625 8.15625 9.765625 11.03125 
L 9.765625 27.6875 
Q 9.765625 34.078125 9.578125 39.546875 
L 3.078125 41.3125 
z
" id="Constantia-110"/>
       </defs>
       <use xlink:href="#Constantia-83"/>
       <use x="50.976562" xlink:href="#Constantia-117"/>
       <use x="107.910156" xlink:href="#Constantia-110"/>
      </g>
     </g>
    </g>
    <g id="xtick_5">
     <g id="line2d_6">
      <path clip-path="url(#pb5967b8cf1)" d="M 248.528001 642.363 
L 248.528001 55.163 
" style="fill:none;stroke:#b0b0b0;stroke-linecap:square;stroke-width:0.8;"/>
     </g>
     <g id="line2d_7">
      <g>
       <use style="stroke:#000000;stroke-width:0.6;" x="248.528001" xlink:href="#mf545571e83" y="642.363"/>
      </g>
     </g>
     <g id="text_5">
      <!-- 16 -->
      <g transform="translate(240.841439 661.007062)scale(0.18 -0.18)">
       <defs>
        <path d="M 1.703125 40.625 
L 1.46875 42.671875 
Q 11.28125 44.140625 21.09375 45.90625 
L 21.53125 45.515625 
Q 20.953125 36.96875 20.953125 27.875 
L 20.953125 15.96875 
Q 20.953125 9.515625 21.046875 5.5625 
Q 21.09375 4.15625 22.40625 3.8125 
L 30.171875 1.8125 
L 30.328125 -0.140625 
Q 21.296875 0 16.5 0 
Q 11.71875 0 2.734375 -0.140625 
L 2.546875 1.8125 
L 10.5 3.8125 
Q 11.765625 4.15625 11.8125 5.375 
Q 11.921875 9.328125 11.921875 14.15625 
L 11.921875 22.265625 
Q 11.921875 32.078125 11.71875 39.65625 
z
" id="Constantia-49"/>
        <path d="M 47.125 64.546875 
Q 32.03125 61.53125 24.515625 53.9375 
Q 17 46.34375 14.796875 35.25 
L 14.890625 35.203125 
Q 20.796875 41.65625 30.21875 41.65625 
Q 38.96875 41.65625 44.9375 35.796875 
Q 50.921875 29.9375 50.921875 20.90625 
Q 50.921875 11.328125 44.375 5.03125 
Q 37.84375 -1.265625 28.125 -1.265625 
Q 17.390625 -1.265625 10.75 6.5 
Q 4.109375 14.265625 4.109375 26.515625 
Q 4.109375 41.546875 14.453125 53.125 
Q 24.8125 64.703125 46.4375 68.015625 
z
M 41.109375 18.0625 
Q 41.109375 26.609375 37.15625 31.953125 
Q 33.203125 37.3125 27.046875 37.3125 
Q 21.4375 37.3125 17.921875 33.328125 
Q 14.40625 29.34375 14.40625 22.515625 
Q 14.40625 14.15625 18.5 8.203125 
Q 22.609375 2.25 28.953125 2.25 
Q 34.46875 2.25 37.78125 6.8125 
Q 41.109375 11.375 41.109375 18.0625 
z
" id="Constantia-54"/>
       </defs>
       <use xlink:href="#Constantia-49"/>
       <use x="31.298828" xlink:href="#Constantia-54"/>
      </g>
      <!-- Sun -->
      <g transform="translate(233.576751 681.172125)scale(0.18 -0.18)">
       <use xlink:href="#Constantia-83"/>
       <use x="50.976562" xlink:href="#Constantia-117"/>
       <use x="107.910156" xlink:href="#Constantia-110"/>
      </g>
     </g>
    </g>
    <g id="xtick_6">
     <g id="line2d_8">
      <path clip-path="url(#pb5967b8cf1)" d="M 323.30903 642.363 
L 323.30903 55.163 
" style="fill:none;stroke:#b0b0b0;stroke-linecap:square;stroke-width:0.8;"/>
     </g>
     <g id="line2d_9">
      <g>
       <use style="stroke:#000000;stroke-width:0.6;" x="323.30903" xlink:href="#mf545571e83" y="642.363"/>
      </g>
     </g>
     <g id="text_6">
      <!-- 23 -->
      <g transform="translate(314.840593 661.007062)scale(0.18 -0.18)">
       <defs>
        <path d="M 10.25 16.21875 
Q 19 17.140625 24.265625 20.75 
Q 29.546875 24.359375 29.546875 30.125 
Q 29.546875 34.71875 26.09375 37.59375 
Q 22.65625 40.484375 17.390625 40.484375 
Q 10.5 40.484375 3.46875 36.8125 
L 1.46875 40.046875 
Q 11.140625 46.390625 21.34375 46.390625 
Q 28.90625 46.390625 34.078125 42.75 
Q 39.265625 39.109375 39.265625 33.203125 
Q 39.265625 22.359375 23.25 17 
L 23.25 16.796875 
Q 32.421875 16.453125 37.5625 12.15625 
Q 42.71875 7.859375 42.71875 1.609375 
Q 42.71875 -8.5 31.96875 -15.140625 
Q 21.234375 -21.78125 1.03125 -22.46875 
L 0.484375 -18.84375 
Q 16.546875 -17.78125 24.53125 -12.625 
Q 32.515625 -7.46875 32.515625 0.25 
Q 32.515625 6.296875 28.359375 9.765625 
Q 24.21875 13.234375 16.84375 13.234375 
Q 13.96875 13.234375 10.59375 12.640625 
z
" id="Constantia-51"/>
       </defs>
       <use xlink:href="#Constantia-50"/>
       <use x="48.4375" xlink:href="#Constantia-51"/>
      </g>
      <!-- Sun -->
      <g transform="translate(308.35778 681.172125)scale(0.18 -0.18)">
       <use xlink:href="#Constantia-83"/>
       <use x="50.976562" xlink:href="#Constantia-117"/>
       <use x="107.910156" xlink:href="#Constantia-110"/>
      </g>
     </g>
    </g>
    <g id="xtick_7">
     <g id="line2d_10">
      <path clip-path="url(#pb5967b8cf1)" d="M 398.090059 642.363 
L 398.090059 55.163 
" style="fill:none;stroke:#b0b0b0;stroke-linecap:square;stroke-width:0.8;"/>
     </g>
     <g id="line2d_11">
      <g>
       <use style="stroke:#000000;stroke-width:0.6;" x="398.090059" xlink:href="#mf545571e83" y="642.363"/>
      </g>
     </g>
     <g id="text_7">
      <!-- 30 -->
      <g transform="translate(389.133652 661.007062)scale(0.18 -0.18)">
       <use xlink:href="#Constantia-51"/>
       <use x="45.654297" xlink:href="#Constantia-48"/>
      </g>
      <!-- Sun -->
      <g transform="translate(383.138809 681.172125)scale(0.18 -0.18)">
       <use xlink:href="#Constantia-83"/>
       <use x="50.976562" xlink:href="#Constantia-117"/>
       <use x="107.910156" xlink:href="#Constantia-110"/>
      </g>
     </g>
    </g>
    <g id="xtick_8">
     <g id="line2d_12">
      <path clip-path="url(#pb5967b8cf1)" d="M 472.871087 642.363 
L 472.871087 55.163 
" style="fill:none;stroke:#b0b0b0;stroke-linecap:square;stroke-width:0.8;"/>
     </g>
     <g id="line2d_13">
      <g>
       <use style="stroke:#000000;stroke-width:0.6;" x="472.871087" xlink:href="#mf545571e83" y="642.363"/>
      </g>
     </g>
     <g id="text_8">
      <!-- 06 -->
      <g transform="translate(463.1539 661.007062)scale(0.18 -0.18)">
       <use xlink:href="#Constantia-48"/>
       <use x="53.857422" xlink:href="#Constantia-54"/>
      </g>
      <!-- Sun -->
      <g transform="translate(457.919837 681.172125)scale(0.18 -0.18)">
       <use xlink:href="#Constantia-83"/>
       <use x="50.976562" xlink:href="#Constantia-117"/>
       <use x="107.910156" xlink:href="#Constantia-110"/>
      </g>
     </g>
    </g>
    <g id="xtick_9">
     <g id="line2d_14">
      <path clip-path="url(#pb5967b8cf1)" d="M 547.652116 642.363 
L 547.652116 55.163 
" style="fill:none;stroke:#b0b0b0;stroke-linecap:square;stroke-width:0.8;"/>
     </g>
     <g id="line2d_15">
      <g>
       <use style="stroke:#000000;stroke-width:0.6;" x="547.652116" xlink:href="#mf545571e83" y="642.363"/>
      </g>
     </g>
     <g id="text_9">
      <!-- 13 -->
      <g transform="translate(540.726335 661.007062)scale(0.18 -0.18)">
       <use xlink:href="#Constantia-49"/>
       <use x="31.298828" xlink:href="#Constantia-51"/>
      </g>
      <!-- Sun -->
      <g transform="translate(532.700866 681.172125)scale(0.18 -0.18)">
       <use xlink:href="#Constantia-83"/>
       <use x="50.976562" xlink:href="#Constantia-117"/>
       <use x="107.910156" xlink:href="#Constantia-110"/>
      </g>
     </g>
    </g>
    <g id="xtick_10">
     <g id="line2d_16">
      <path clip-path="url(#pb5967b8cf1)" d="M 622.433145 642.363 
L 622.433145 55.163 
" style="fill:none;stroke:#b0b0b0;stroke-linecap:square;stroke-width:0.8;"/>
     </g>
     <g id="line2d_17">
      <g>
       <use style="stroke:#000000;stroke-width:0.6;" x="622.433145" xlink:href="#mf545571e83" y="642.363"/>
      </g>
     </g>
     <g id="text_10">
      <!-- 20 -->
      <g transform="translate(613.226426 661.007062)scale(0.18 -0.18)">
       <use xlink:href="#Constantia-50"/>
       <use x="48.4375" xlink:href="#Constantia-48"/>
      </g>
      <!-- Sun -->
      <g transform="translate(607.481895 681.172125)scale(0.18 -0.18)">
       <use xlink:href="#Constantia-83"/>
       <use x="50.976562" xlink:href="#Constantia-117"/>
       <use x="107.910156" xlink:href="#Constantia-110"/>
      </g>
     </g>
    </g>
    <g id="xtick_11">
     <g id="line2d_18">
      <path clip-path="url(#pb5967b8cf1)" d="M 697.214173 642.363 
L 697.214173 55.163 
" style="fill:none;stroke:#b0b0b0;stroke-linecap:square;stroke-width:0.8;"/>
     </g>
     <g id="line2d_19">
      <g>
       <use style="stroke:#000000;stroke-width:0.6;" x="697.214173" xlink:href="#mf545571e83" y="642.363"/>
      </g>
     </g>
     <g id="text_11">
      <!-- 27 -->
      <g transform="translate(688.503861 661.007062)scale(0.18 -0.18)">
       <defs>
        <path d="M 10.9375 -19.671875 
L 39.5 37.546875 
L 8.296875 37.546875 
L 5.46875 27.875 
L 3.515625 27.546875 
L 2.6875 44.921875 
L 3.03125 45.3125 
Q 8.796875 45.21875 14.265625 45.171875 
Q 19.734375 45.125 25 45.125 
L 27.734375 45.125 
Q 33.015625 45.125 37.84375 45.171875 
Q 42.671875 45.21875 47.171875 45.3125 
L 47.359375 43.21875 
Q 44.828125 37.984375 42.265625 32.46875 
Q 39.703125 26.953125 37.234375 21.3125 
Q 34.765625 15.671875 32.421875 10.125 
Q 30.078125 4.59375 28.03125 -0.65625 
Q 25.984375 -5.90625 24.25 -10.6875 
Q 22.515625 -15.484375 21.234375 -19.53125 
L 11.1875 -20.015625 
z
" id="Constantia-55"/>
       </defs>
       <use xlink:href="#Constantia-50"/>
       <use x="48.4375" xlink:href="#Constantia-55"/>
      </g>
      <!-- Sun -->
      <g transform="translate(682.262923 681.172125)scale(0.18 -0.18)">
       <use xlink:href="#Constantia-83"/>
       <use x="50.976562" xlink:href="#Constantia-117"/>
       <use x="107.910156" xlink:href="#Constantia-110"/>
      </g>
     </g>
    </g>
    <g id="xtick_12">
     <g id="line2d_20">
      <path clip-path="url(#pb5967b8cf1)" d="M 771.995202 642.363 
L 771.995202 55.163 
" style="fill:none;stroke:#b0b0b0;stroke-linecap:square;stroke-width:0.8;"/>
     </g>
     <g id="line2d_21">
      <g>
       <use style="stroke:#000000;stroke-width:0.6;" x="771.995202" xlink:href="#mf545571e83" y="642.363"/>
      </g>
     </g>
     <g id="text_12">
      <!-- 04 -->
      <g transform="translate(762.370827 661.007062)scale(0.18 -0.18)">
       <defs>
        <path d="M 30.953125 35.015625 
Q 25.4375 28.8125 19.890625 21.78125 
Q 14.359375 14.75 8.984375 7.28125 
L 30.953125 7.28125 
z
M 39.984375 -5.71875 
Q 39.984375 -12.546875 40.234375 -19.53125 
Q 35.546875 -20.015625 31.34375 -20.796875 
L 30.859375 -20.40625 
Q 30.953125 -13.578125 30.953125 -6.5 
L 30.953125 2.4375 
L 18.796875 2.4375 
Q 12.109375 2.4375 2.546875 2.296875 
L 2.203125 5.859375 
Q 9.90625 16.0625 18.078125 26.234375 
Q 26.265625 36.421875 34.578125 46.046875 
L 40.28125 46.390625 
Q 39.984375 35.453125 39.984375 25.984375 
L 39.984375 7.28125 
L 51.171875 7.28125 
L 51.375 2.296875 
Q 46 2.4375 39.984375 2.4375 
z
" id="Constantia-52"/>
       </defs>
       <use xlink:href="#Constantia-48"/>
       <use x="53.857422" xlink:href="#Constantia-52"/>
      </g>
      <!-- Sun -->
      <g transform="translate(757.043952 681.172125)scale(0.18 -0.18)">
       <use xlink:href="#Constantia-83"/>
       <use x="50.976562" xlink:href="#Constantia-117"/>
       <use x="107.910156" xlink:href="#Constantia-110"/>
      </g>
     </g>
    </g>
    <g id="xtick_13">
     <g id="line2d_22">
      <path clip-path="url(#pb5967b8cf1)" d="M 846.77623 642.363 
L 846.77623 55.163 
" style="fill:none;stroke:#b0b0b0;stroke-linecap:square;stroke-width:0.8;"/>
     </g>
     <g id="line2d_23">
      <g>
       <use style="stroke:#000000;stroke-width:0.6;" x="846.77623" xlink:href="#mf545571e83" y="642.363"/>
      </g>
     </g>
     <g id="text_13">
      <!-- 11 -->
      <g transform="translate(841.142793 661.007062)scale(0.18 -0.18)">
       <use xlink:href="#Constantia-49"/>
       <use x="31.298828" xlink:href="#Constantia-49"/>
      </g>
      <!-- Sun -->
      <g transform="translate(831.82498 681.172125)scale(0.18 -0.18)">
       <use xlink:href="#Constantia-83"/>
       <use x="50.976562" xlink:href="#Constantia-117"/>
       <use x="107.910156" xlink:href="#Constantia-110"/>
      </g>
     </g>
    </g>
    <g id="xtick_14">
     <g id="line2d_24">
      <path clip-path="url(#pb5967b8cf1)" d="M 921.557259 642.363 
L 921.557259 55.163 
" style="fill:none;stroke:#b0b0b0;stroke-linecap:square;stroke-width:0.8;"/>
     </g>
     <g id="line2d_25">
      <g>
       <use style="stroke:#000000;stroke-width:0.6;" x="921.557259" xlink:href="#mf545571e83" y="642.363"/>
      </g>
     </g>
     <g id="text_14">
      <!-- 18 -->
      <g transform="translate(913.911478 661.007062)scale(0.18 -0.18)">
       <defs>
        <path d="M 19.09375 34.234375 
Q 12.0625 37.890625 9.5 41.546875 
Q 6.9375 45.21875 6.9375 50.09375 
Q 6.9375 57.421875 12.96875 62.171875 
Q 19 66.9375 27.984375 66.9375 
Q 36.078125 66.9375 41.375 63.125 
Q 46.6875 59.328125 46.6875 53.265625 
Q 46.6875 44.234375 33.84375 36.765625 
Q 43.609375 32.03125 47.09375 27.75 
Q 50.59375 23.484375 50.59375 17.578125 
Q 50.59375 9.421875 43.40625 4.078125 
Q 36.234375 -1.265625 26.265625 -1.265625 
Q 16.265625 -1.265625 9.90625 3.296875 
Q 3.5625 7.859375 3.5625 15.4375 
Q 3.5625 26.8125 19.09375 34.234375 
z
M 22.5625 32.421875 
Q 12.546875 26.703125 12.546875 16.609375 
Q 12.546875 10.203125 16.375 6.421875 
Q 20.21875 2.640625 26.90625 2.640625 
Q 33.015625 2.640625 37.140625 6.03125 
Q 41.265625 9.421875 41.265625 14.84375 
Q 41.265625 20.015625 37.5 23.75 
Q 33.734375 27.484375 22.5625 32.421875 
z
M 30.21875 38.625 
Q 37.984375 44.234375 37.984375 51.8125 
Q 37.984375 57.234375 34.859375 60.1875 
Q 31.734375 63.140625 26.609375 63.140625 
Q 21.4375 63.140625 18.140625 60.453125 
Q 14.84375 57.765625 14.84375 53.125 
Q 14.84375 48.484375 18.40625 45.40625 
Q 21.96875 42.328125 30.21875 38.625 
z
" id="Constantia-56"/>
       </defs>
       <use xlink:href="#Constantia-49"/>
       <use x="31.298828" xlink:href="#Constantia-56"/>
      </g>
      <!-- Sun -->
      <g transform="translate(906.606009 681.172125)scale(0.18 -0.18)">
       <use xlink:href="#Constantia-83"/>
       <use x="50.976562" xlink:href="#Constantia-117"/>
       <use x="107.910156" xlink:href="#Constantia-110"/>
      </g>
     </g>
    </g>
    <g id="xtick_15">
     <g id="line2d_26">
      <path clip-path="url(#pb5967b8cf1)" d="M 996.338288 642.363 
L 996.338288 55.163 
" style="fill:none;stroke:#b0b0b0;stroke-linecap:square;stroke-width:0.8;"/>
     </g>
     <g id="line2d_27">
      <g>
       <use style="stroke:#000000;stroke-width:0.6;" x="996.338288" xlink:href="#mf545571e83" y="642.363"/>
      </g>
     </g>
     <g id="text_15">
      <!-- 25 -->
      <g transform="translate(987.698288 661.007062)scale(0.18 -0.18)">
       <defs>
        <path d="M 6.453125 16.796875 
L 9.28125 45.3125 
Q 15.375 45.125 23.875 45.125 
Q 33.6875 45.125 42.28125 45.3125 
L 42.578125 44.921875 
L 41.359375 36.859375 
L 13.1875 37.546875 
L 11.8125 23.78125 
Q 15.96875 24.46875 19.625 24.46875 
Q 30.8125 24.46875 37.46875 19.046875 
Q 44.140625 13.625 44.140625 4.15625 
Q 44.140625 -7.953125 32.984375 -15.15625 
Q 21.828125 -22.359375 4.890625 -22.46875 
L 4.390625 -18.84375 
Q 17.71875 -18.359375 26.09375 -12.796875 
Q 34.46875 -7.234375 34.46875 2.203125 
Q 34.46875 9.46875 29.5625 13.46875 
Q 24.65625 17.484375 15.765625 17.484375 
Q 11.328125 17.484375 6.734375 16.453125 
z
" id="Constantia-53"/>
       </defs>
       <use xlink:href="#Constantia-50"/>
       <use x="48.4375" xlink:href="#Constantia-53"/>
      </g>
      <!-- Sun -->
      <g transform="translate(981.387038 681.172125)scale(0.18 -0.18)">
       <use xlink:href="#Constantia-83"/>
       <use x="50.976562" xlink:href="#Constantia-117"/>
       <use x="107.910156" xlink:href="#Constantia-110"/>
      </g>
     </g>
    </g>
    <g id="xtick_16">
     <g id="line2d_28">
      <path clip-path="url(#pb5967b8cf1)" d="M 1145.900345 642.363 
L 1145.900345 55.163 
" style="fill:none;stroke:#b0b0b0;stroke-linecap:square;stroke-width:0.8;"/>
     </g>
     <g id="line2d_29">
      <g>
       <use style="stroke:#000000;stroke-width:0.6;" x="1145.900345" xlink:href="#mf545571e83" y="642.363"/>
      </g>
     </g>
     <g id="text_16">
      <!-- 08 -->
      <g transform="translate(1136.223939 661.007062)scale(0.18 -0.18)">
       <use xlink:href="#Constantia-48"/>
       <use x="53.857422" xlink:href="#Constantia-56"/>
      </g>
      <!-- Sun -->
      <g transform="translate(1130.949095 681.172125)scale(0.18 -0.18)">
       <use xlink:href="#Constantia-83"/>
       <use x="50.976562" xlink:href="#Constantia-117"/>
       <use x="107.910156" xlink:href="#Constantia-110"/>
      </g>
     </g>
    </g>
    <g id="xtick_17">
     <g id="line2d_30">
      <path clip-path="url(#pb5967b8cf1)" d="M 1220.681374 642.363 
L 1220.681374 55.163 
" style="fill:none;stroke:#b0b0b0;stroke-linecap:square;stroke-width:0.8;"/>
     </g>
     <g id="line2d_31">
      <g>
       <use style="stroke:#000000;stroke-width:0.6;" x="1220.681374" xlink:href="#mf545571e83" y="642.363"/>
      </g>
     </g>
     <g id="text_17">
      <!-- 15 -->
      <g transform="translate(1213.58403 661.007062)scale(0.18 -0.18)">
       <use xlink:href="#Constantia-49"/>
       <use x="31.298828" xlink:href="#Constantia-53"/>
      </g>
      <!-- Sun -->
      <g transform="translate(1205.730124 681.172125)scale(0.18 -0.18)">
       <use xlink:href="#Constantia-83"/>
       <use x="50.976562" xlink:href="#Constantia-117"/>
       <use x="107.910156" xlink:href="#Constantia-110"/>
      </g>
     </g>
    </g>
    <g id="xtick_18">
     <g id="line2d_32">
      <path clip-path="url(#pb5967b8cf1)" d="M 1295.462402 642.363 
L 1295.462402 55.163 
" style="fill:none;stroke:#b0b0b0;stroke-linecap:square;stroke-width:0.8;"/>
     </g>
     <g id="line2d_33">
      <g>
       <use style="stroke:#000000;stroke-width:0.6;" x="1295.462402" xlink:href="#mf545571e83" y="642.363"/>
      </g>
     </g>
     <g id="text_18">
      <!-- 22 -->
      <g transform="translate(1286.743652 661.007062)scale(0.18 -0.18)">
       <use xlink:href="#Constantia-50"/>
       <use x="48.4375" xlink:href="#Constantia-50"/>
      </g>
      <!-- Sun -->
      <g transform="translate(1280.511152 681.172125)scale(0.18 -0.18)">
       <use xlink:href="#Constantia-83"/>
       <use x="50.976562" xlink:href="#Constantia-117"/>
       <use x="107.910156" xlink:href="#Constantia-110"/>
      </g>
     </g>
    </g>
   </g>
   <g id="matplotlib.axis_2">
    <g id="ytick_1">
     <g id="line2d_34">
      <path clip-path="url(#pb5967b8cf1)" d="M 101.209375 642.363 
L 1368 642.363 
" style="fill:none;stroke:#b0b0b0;stroke-linecap:square;stroke-width:0.8;"/>
     </g>
     <g id="line2d_35">
      <defs>
       <path d="M 0 0 
L -3.5 0 
" id="m1c96879ee4" style="stroke:#000000;stroke-width:0.8;"/>
      </defs>
      <g>
       <use style="stroke:#000000;stroke-width:0.8;" x="101.209375" xlink:href="#m1c96879ee4" y="642.363"/>
      </g>
     </g>
     <g id="text_19">
      <!-- 0 -->
      <g transform="translate(83.4375 649.720812)scale(0.2 -0.2)">
       <use xlink:href="#Constantia-48"/>
      </g>
     </g>
    </g>
    <g id="ytick_2">
     <g id="line2d_36">
      <path clip-path="url(#pb5967b8cf1)" d="M 101.209375 533.527088 
L 1368 533.527088 
" style="fill:none;stroke:#b0b0b0;stroke-linecap:square;stroke-width:0.8;"/>
     </g>
     <g id="line2d_37">
      <g>
       <use style="stroke:#000000;stroke-width:0.8;" x="101.209375" xlink:href="#m1c96879ee4" y="533.527088"/>
      </g>
     </g>
     <g id="text_20">
      <!-- 50000 -->
      <g transform="translate(41.609375 540.884901)scale(0.2 -0.2)">
       <use xlink:href="#Constantia-53"/>
       <use x="47.558594" xlink:href="#Constantia-48"/>
       <use x="101.416016" xlink:href="#Constantia-48"/>
       <use x="155.273438" xlink:href="#Constantia-48"/>
       <use x="209.130859" xlink:href="#Constantia-48"/>
      </g>
     </g>
    </g>
    <g id="ytick_3">
     <g id="line2d_38">
      <path clip-path="url(#pb5967b8cf1)" d="M 101.209375 424.691177 
L 1368 424.691177 
" style="fill:none;stroke:#b0b0b0;stroke-linecap:square;stroke-width:0.8;"/>
     </g>
     <g id="line2d_39">
      <g>
       <use style="stroke:#000000;stroke-width:0.8;" x="101.209375" xlink:href="#m1c96879ee4" y="424.691177"/>
      </g>
     </g>
     <g id="text_21">
      <!-- 100000 -->
      <g transform="translate(34.090625 432.048989)scale(0.2 -0.2)">
       <use xlink:href="#Constantia-49"/>
       <use x="31.298828" xlink:href="#Constantia-48"/>
       <use x="85.15625" xlink:href="#Constantia-48"/>
       <use x="139.013672" xlink:href="#Constantia-48"/>
       <use x="192.871094" xlink:href="#Constantia-48"/>
       <use x="246.728516" xlink:href="#Constantia-48"/>
      </g>
     </g>
    </g>
    <g id="ytick_4">
     <g id="line2d_40">
      <path clip-path="url(#pb5967b8cf1)" d="M 101.209375 315.855265 
L 1368 315.855265 
" style="fill:none;stroke:#b0b0b0;stroke-linecap:square;stroke-width:0.8;"/>
     </g>
     <g id="line2d_41">
      <g>
       <use style="stroke:#000000;stroke-width:0.8;" x="101.209375" xlink:href="#m1c96879ee4" y="315.855265"/>
      </g>
     </g>
     <g id="text_22">
      <!-- 150000 -->
      <g transform="translate(35.35 323.213077)scale(0.2 -0.2)">
       <use xlink:href="#Constantia-49"/>
       <use x="31.298828" xlink:href="#Constantia-53"/>
       <use x="78.857422" xlink:href="#Constantia-48"/>
       <use x="132.714844" xlink:href="#Constantia-48"/>
       <use x="186.572266" xlink:href="#Constantia-48"/>
       <use x="240.429688" xlink:href="#Constantia-48"/>
      </g>
     </g>
    </g>
    <g id="ytick_5">
     <g id="line2d_42">
      <path clip-path="url(#pb5967b8cf1)" d="M 101.209375 207.019353 
L 1368 207.019353 
" style="fill:none;stroke:#b0b0b0;stroke-linecap:square;stroke-width:0.8;"/>
     </g>
     <g id="line2d_43">
      <g>
       <use style="stroke:#000000;stroke-width:0.8;" x="101.209375" xlink:href="#m1c96879ee4" y="207.019353"/>
      </g>
     </g>
     <g id="text_23">
      <!-- 200000 -->
      <g transform="translate(30.6625 214.377166)scale(0.2 -0.2)">
       <use xlink:href="#Constantia-50"/>
       <use x="48.4375" xlink:href="#Constantia-48"/>
       <use x="102.294922" xlink:href="#Constantia-48"/>
       <use x="156.152344" xlink:href="#Constantia-48"/>
       <use x="210.009766" xlink:href="#Constantia-48"/>
       <use x="263.867188" xlink:href="#Constantia-48"/>
      </g>
     </g>
    </g>
    <g id="ytick_6">
     <g id="line2d_44">
      <path clip-path="url(#pb5967b8cf1)" d="M 101.209375 98.183442 
L 1368 98.183442 
" style="fill:none;stroke:#b0b0b0;stroke-linecap:square;stroke-width:0.8;"/>
     </g>
     <g id="line2d_45">
      <g>
       <use style="stroke:#000000;stroke-width:0.8;" x="101.209375" xlink:href="#m1c96879ee4" y="98.183442"/>
      </g>
     </g>
     <g id="text_24">
      <!-- 250000 -->
      <g transform="translate(31.921875 105.541254)scale(0.2 -0.2)">
       <use xlink:href="#Constantia-50"/>
       <use x="48.4375" xlink:href="#Constantia-53"/>
       <use x="95.996094" xlink:href="#Constantia-48"/>
       <use x="149.853516" xlink:href="#Constantia-48"/>
       <use x="203.710938" xlink:href="#Constantia-48"/>
       <use x="257.568359" xlink:href="#Constantia-48"/>
      </g>
     </g>
    </g>
    <g id="text_25">
     <!-- NewRecovered -->
     <g transform="translate(21.915625 413.103625)rotate(-90)scale(0.2 -0.2)">
      <defs>
       <path d="M -0.828125 45.265625 
Q 6.15625 45.125 9.515625 45.125 
Q 14.359375 45.125 20.453125 45.265625 
L 20.65625 43.265625 
L 14.890625 41.703125 
Q 18.171875 30.8125 23.140625 17.1875 
Q 24.21875 14.3125 25.140625 11.28125 
Q 26.078125 14.265625 27.15625 17.140625 
Q 31.0625 27.59375 33.0625 33.453125 
Q 35.0625 39.3125 36.921875 44.921875 
L 40.484375 45.3125 
Q 42.328125 39.40625 44.28125 33.5 
Q 46.234375 27.59375 49.90625 17.1875 
Q 51.078125 14.0625 51.859375 11.28125 
Q 52.78125 14.109375 53.953125 17.140625 
Q 59.375 30.859375 62.9375 41.75 
L 57.421875 43.3125 
L 57.234375 45.3125 
Q 61.140625 45.171875 65.53125 45.171875 
Q 69.875 45.171875 73.4375 45.3125 
L 73.6875 43.3125 
L 69.78125 42.234375 
Q 68.109375 41.75 67.328125 39.890625 
Q 62.75 28.8125 59.171875 19.890625 
Q 55.609375 10.984375 51.46875 -0.09375 
L 47.078125 -0.53125 
Q 44.09375 8.0625 42.109375 13.453125 
Q 40.140625 18.84375 37.84375 25.203125 
Q 36.859375 27.78125 36.1875 30.171875 
Q 35.40625 27.828125 34.421875 25.34375 
Q 31.9375 18.84375 29.8125 13.375 
Q 27.6875 7.90625 24.859375 -0.09375 
L 20.5625 -0.53125 
Q 16.40625 10.984375 12.984375 19.875 
Q 9.578125 28.765625 5.28125 39.9375 
Q 4.59375 41.75 2.78125 42.234375 
L -0.734375 43.265625 
z
" id="Constantia-119"/>
       <path d="M 21.78125 14.984375 
Q 21.78125 12.0625 21.796875 9.71875 
Q 21.828125 7.375 21.875 5.46875 
Q 21.921875 3.953125 23.140625 3.5625 
L 28.5625 1.953125 
L 28.71875 -0.140625 
Q 22.90625 0 17.09375 0 
Q 11.1875 0 4.984375 -0.140625 
L 4.78125 1.953125 
L 10.796875 3.765625 
Q 12.015625 4.109375 12.109375 5.28125 
Q 12.15625 7.234375 12.171875 9.640625 
Q 12.203125 12.0625 12.203125 14.984375 
L 12.203125 54.59375 
Q 12.203125 57.078125 12.171875 59.078125 
Q 12.15625 61.078125 12.109375 62.703125 
Q 12.0625 63.96875 10.9375 64.359375 
L 4.890625 66.265625 
L 4.78125 68.359375 
Q 11.078125 68.171875 17.046875 68.171875 
Q 18.21875 68.171875 20.015625 68.234375 
Q 21.828125 68.3125 24.421875 68.40625 
Q 27.046875 68.5 28.796875 68.546875 
Q 30.5625 68.609375 31.59375 68.609375 
Q 42.71875 68.609375 48.28125 64.40625 
Q 53.859375 60.203125 53.859375 52.15625 
Q 53.859375 44.875 50.046875 40.359375 
Q 46.234375 35.84375 38.421875 33.40625 
Q 41.5 28.71875 44.09375 24.34375 
Q 46.6875 19.96875 48.90625 16.328125 
Q 51.125 12.703125 52.96875 9.90625 
Q 54.828125 7.125 56.453125 5.515625 
Q 57.28125 4.6875 58.109375 4.078125 
Q 58.9375 3.46875 59.84375 3.078125 
Q 60.75 2.6875 61.75 2.390625 
Q 62.75 2.09375 63.96875 1.8125 
L 64.109375 -0.34375 
Q 60.59375 -0.78125 58.203125 -0.78125 
Q 56.203125 -0.78125 54.6875 -0.6875 
Q 53.171875 -0.59375 52 -0.296875 
Q 50.828125 0 49.875 0.453125 
Q 48.921875 0.921875 48 1.65625 
Q 46 3.171875 44.0625 6.03125 
Q 42.140625 8.890625 40.0625 12.5 
Q 37.984375 16.109375 35.734375 20.1875 
Q 33.5 24.265625 31 28.171875 
Q 30.28125 29.34375 29.765625 30.03125 
Q 29.25 30.71875 28.640625 31.109375 
Q 28.03125 31.5 27.21875 31.640625 
Q 26.421875 31.78125 25.140625 31.84375 
L 21.78125 31.9375 
z
M 21.78125 35.59375 
Q 24.75 35.453125 27.296875 35.453125 
Q 35.75 35.453125 39.671875 39.03125 
Q 43.609375 42.625 43.609375 50.296875 
Q 43.609375 57.71875 39.84375 61.125 
Q 36.078125 64.546875 28.078125 64.546875 
Q 26.703125 64.546875 25.140625 64.453125 
Q 23.578125 64.359375 21.78125 64.15625 
z
" id="Constantia-82"/>
       <path d="M 2.828125 42.96875 
Q 10.984375 44.53125 18.3125 46.390625 
L 18.796875 46.046875 
L 18.796875 40.328125 
Q 27.828125 46.390625 36.53125 46.390625 
L 36.765625 46.09375 
Q 35.359375 38.8125 33.984375 31 
L 32.03125 30.671875 
Q 30.671875 34.8125 29.390625 37.328125 
Q 28.125 39.84375 25.390625 39.84375 
Q 22.75 39.84375 18.796875 37.40625 
L 18.796875 16.265625 
Q 18.796875 8.640625 18.890625 5.375 
Q 18.953125 4.046875 20.125 3.71875 
L 26.609375 1.859375 
L 26.765625 -0.140625 
Q 19.140625 0 14.359375 0 
Q 9.578125 0 3.03125 -0.140625 
L 2.828125 1.859375 
L 8.5 3.515625 
Q 9.671875 3.90625 9.71875 5.03125 
Q 9.765625 7.125 9.765625 11.03125 
L 9.765625 27.6875 
Q 9.765625 35.640625 9.578125 39.546875 
L 3.078125 41.3125 
z
" id="Constantia-114"/>
       <path d="M 37.9375 41.015625 
Q 34.671875 42.046875 30.609375 42.046875 
Q 22.21875 42.046875 17.8125 37.28125 
Q 13.421875 32.515625 13.421875 22.859375 
Q 13.421875 14.5 17.328125 9.5 
Q 21.234375 4.5 28.375 4.5 
Q 32.953125 4.5 37.9375 7.03125 
z
M 30.90625 70.125 
Q 39.59375 71.78125 46.828125 73.578125 
L 47.265625 73.1875 
Q 46.96875 62.75 46.96875 50.734375 
L 46.96875 24.171875 
Q 46.96875 17.4375 47.015625 10.84375 
Q 47.015625 8.34375 47.1875 6.828125 
Q 47.359375 5.328125 48.046875 4.515625 
Q 48.734375 3.71875 50.078125 3.421875 
Q 51.421875 3.125 53.859375 3.078125 
L 54.109375 1.171875 
Q 51.953125 0.34375 48.953125 -0.484375 
Q 45.953125 -1.3125 44.875 -1.3125 
Q 39.9375 -1.3125 38.234375 4.25 
Q 30.671875 -1.375 23.53125 -1.375 
Q 14.5 -1.375 9.109375 5.046875 
Q 3.71875 11.46875 3.71875 20.84375 
Q 3.71875 32.953125 10.890625 39.59375 
Q 18.0625 46.234375 30.953125 46.234375 
Q 34.078125 46.234375 37.9375 45.5625 
Q 37.9375 56.34375 37.75 66.546875 
L 31.15625 68.5 
z
" id="Constantia-100"/>
      </defs>
      <use xlink:href="#Constantia-78"/>
      <use x="73.402344" xlink:href="#Constantia-101"/>
      <use x="121.302734" xlink:href="#Constantia-119"/>
      <use x="194.496094" xlink:href="#Constantia-82"/>
      <use x="256.130859" xlink:href="#Constantia-101"/>
      <use x="304.03125" xlink:href="#Constantia-99"/>
      <use x="350.173828" xlink:href="#Constantia-111"/>
      <use x="404.226562" xlink:href="#Constantia-118"/>
      <use x="452.517578" xlink:href="#Constantia-101"/>
      <use x="500.417969" xlink:href="#Constantia-114"/>
      <use x="538.748047" xlink:href="#Constantia-101"/>
      <use x="586.648438" xlink:href="#Constantia-100"/>
     </g>
    </g>
   </g>
   <g id="patch_102">
    <path d="M 101.209375 642.363 
L 101.209375 55.163 
" style="fill:none;stroke:#000000;stroke-linecap:square;stroke-linejoin:miter;stroke-width:0.8;"/>
   </g>
   <g id="patch_103">
    <path d="M 1368 642.363 
L 1368 55.163 
" style="fill:none;stroke:#000000;stroke-linecap:square;stroke-linejoin:miter;stroke-width:0.8;"/>
   </g>
   <g id="patch_104">
    <path d="M 101.209375 642.363 
L 1368 642.363 
" style="fill:none;stroke:#000000;stroke-linecap:square;stroke-linejoin:miter;stroke-width:0.8;"/>
   </g>
   <g id="patch_105">
    <path d="M 101.209375 55.163 
L 1368 55.163 
" style="fill:none;stroke:#000000;stroke-linecap:square;stroke-linejoin:miter;stroke-width:0.8;"/>
   </g>
   <g id="legend_1">
    <g id="patch_106">
     <path d="M 1192.965228 89.370031 
L 1358.766791 89.370031 
Q 1361.766791 89.370031 1361.766791 86.370031 
L 1361.766791 65.663 
Q 1361.766791 62.663 1358.766791 62.663 
L 1192.965228 62.663 
Q 1189.965228 62.663 1189.965228 65.663 
L 1189.965228 86.370031 
Q 1189.965228 89.370031 1192.965228 89.370031 
z
" style="fill:#ffffff;opacity:0.8;stroke:#000000;stroke-linejoin:miter;"/>
    </g>
    <g id="line2d_46">
     <path d="M 1195.965228 74.449719 
L 1225.965228 74.449719 
" style="fill:none;stroke:#f08080;stroke-dasharray:11.1,4.8;stroke-dashoffset:0;stroke-width:3;"/>
    </g>
    <g id="line2d_47">
     <defs>
      <path d="M 0 3 
C 0.795609 3 1.55874 2.683901 2.12132 2.12132 
C 2.683901 1.55874 3 0.795609 3 0 
C 3 -0.795609 2.683901 -1.55874 2.12132 -2.12132 
C 1.55874 -2.683901 0.795609 -3 0 -3 
C -0.795609 -3 -1.55874 -2.683901 -2.12132 -2.12132 
C -2.683901 -1.55874 -3 -0.795609 -3 0 
C -3 0.795609 -2.683901 1.55874 -2.12132 2.12132 
C -1.55874 2.683901 -0.795609 3 0 3 
z
" id="m92ccda1541" style="stroke:#f08080;"/>
     </defs>
     <g>
      <use style="fill:#f08080;stroke:#f08080;" x="1210.965228" xlink:href="#m92ccda1541" y="74.449719"/>
     </g>
    </g>
    <g id="text_26">
     <!-- 7 days moving avg -->
     <g transform="translate(1237.965228 79.699719)scale(0.15 -0.15)">
      <defs>
       <path id="Constantia-32"/>
       <path d="M 30.125 22.125 
Q 19.4375 22.125 15.53125 20.015625 
Q 11.625 17.921875 11.625 12.9375 
Q 11.625 8.296875 14.203125 6.359375 
Q 16.796875 4.4375 21.234375 4.4375 
Q 26.265625 4.4375 30.03125 6.15625 
z
M 6.453125 42.234375 
Q 15.96875 46.390625 23.296875 46.390625 
Q 30.765625 46.390625 34.9375 42.484375 
Q 39.109375 38.578125 39.0625 31.203125 
L 38.8125 10.890625 
Q 38.765625 8.40625 38.9375 6.890625 
Q 39.109375 5.375 39.8125 4.5625 
Q 40.53125 3.765625 41.9375 3.4375 
Q 43.359375 3.125 45.75 3.078125 
L 46 1.171875 
Q 43.890625 0.34375 40.859375 -0.484375 
Q 37.84375 -1.3125 36.765625 -1.3125 
Q 32.03125 -1.3125 30.28125 3.5625 
Q 23.4375 -1.375 17.390625 -1.375 
Q 10.59375 -1.375 6.46875 1.96875 
Q 2.34375 5.328125 2.34375 11.421875 
Q 2.34375 18.953125 9.046875 22.515625 
Q 15.765625 26.078125 30.125 26.078125 
L 30.171875 29.890625 
Q 30.21875 35.359375 27.390625 37.984375 
Q 24.5625 40.625 18.703125 40.625 
Q 14.265625 40.625 7.5625 38.96875 
z
" id="Constantia-97"/>
       <path d="M -1.703125 45.265625 
Q 4.4375 45.125 9.234375 45.125 
Q 12.5 45.125 19.671875 45.265625 
L 19.875 43.265625 
L 14.15625 41.703125 
Q 15.96875 36.578125 18.359375 30.390625 
Q 20.75 24.21875 23.4375 17.53125 
Q 24.5625 14.75 25.875 11.140625 
Q 27.25 14.796875 28.8125 18.609375 
Q 31.109375 24.265625 33.25 29.75 
Q 35.40625 35.25 37.703125 41.703125 
L 32.125 43.265625 
L 31.9375 45.265625 
Q 35.546875 45.125 40.375 45.125 
Q 44.734375 45.125 48.828125 45.265625 
L 49.078125 43.265625 
L 44.53125 42 
Q 43.015625 41.5 42.328125 39.984375 
Q 40.53125 35.84375 38.421875 30.90625 
Q 31.984375 15.765625 28.65625 6.109375 
Q 26.421875 -0.4375 24.609375 -7.296875 
Q 22.796875 -14.15625 21.828125 -19.09375 
Q 21.390625 -21.484375 20.046875 -22.71875 
Q 18.703125 -23.96875 13.765625 -23.96875 
Q 8.734375 -23.96875 4 -23.640625 
L 3.765625 -21.734375 
Q 9.125 -20.90625 11.71875 -18.265625 
Q 14.84375 -14.890625 21.390625 -0.34375 
L 21.78125 0.59375 
L 21.09375 0.78125 
Q 12.15625 23.046875 4.9375 39.9375 
Q 4.296875 41.40625 2.6875 41.9375 
L -1.609375 43.265625 
z
" id="Constantia-121"/>
       <path d="M 27.875 41.453125 
Q 25.046875 42.234375 21.734375 42.234375 
Q 17.140625 42.234375 14.328125 40.453125 
Q 11.53125 38.671875 11.53125 35.59375 
Q 11.53125 32.625 13.359375 30.90625 
Q 15.1875 29.203125 20.171875 27.546875 
L 24.171875 26.171875 
Q 30.90625 23.875 34.046875 20.921875 
Q 37.203125 17.96875 37.203125 13.1875 
Q 37.203125 6.390625 31.921875 2.5 
Q 26.65625 -1.375 18.609375 -1.375 
Q 11.1875 -1.375 3.421875 1.65625 
Q 5.078125 8.015625 6.109375 14.0625 
L 8.015625 14.359375 
L 11.53125 3.859375 
Q 14.3125 2.78125 18.609375 2.78125 
Q 23.140625 2.78125 25.84375 4.640625 
Q 28.5625 6.5 28.5625 9.859375 
Q 28.5625 12.984375 26.734375 14.796875 
Q 24.90625 16.609375 20.90625 17.921875 
L 15.828125 19.625 
Q 9.234375 21.828125 6.71875 24.921875 
Q 4.203125 28.03125 4.203125 32.625 
Q 4.203125 39.015625 9.0625 42.703125 
Q 13.921875 46.390625 21.875 46.390625 
Q 29.296875 46.390625 35.359375 44.234375 
Q 33.984375 38.671875 32.859375 32.46875 
L 31 32.125 
z
" id="Constantia-115"/>
       <path d="M 47.65625 36.859375 
Q 48.34375 34.515625 48.34375 31.59375 
L 48.34375 14.15625 
Q 48.34375 8.453125 48.4375 4.984375 
Q 48.53125 3.65625 49.703125 3.265625 
L 54.640625 1.859375 
L 54.734375 -0.140625 
Q 48.78125 0 44 0 
Q 39.203125 0 33.34375 -0.140625 
L 33.15625 1.859375 
L 37.796875 3.21875 
Q 39.203125 3.71875 39.265625 4.78125 
Q 39.3125 5.46875 39.3125 7.859375 
L 39.3125 29.15625 
Q 39.3125 35.15625 36.578125 37.765625 
Q 33.84375 40.375 28.46875 40.375 
Q 23.734375 40.375 18.796875 37.546875 
L 18.796875 16.21875 
Q 18.796875 10.109375 18.890625 5.03125 
Q 18.953125 3.5625 19.921875 3.375 
L 25.09375 1.859375 
L 25.203125 -0.140625 
Q 19.140625 0 14.359375 0 
Q 9.578125 0 3.03125 -0.140625 
L 2.828125 1.859375 
L 8.453125 3.515625 
Q 9.671875 3.859375 9.71875 5.03125 
Q 9.765625 7.625 9.765625 11.03125 
L 9.765625 27.6875 
Q 9.765625 34.078125 9.578125 39.546875 
L 3.078125 41.3125 
L 2.828125 42.96875 
Q 10.890625 44.53125 18.265625 46.390625 
L 18.75 46.046875 
L 18.75 40.375 
Q 26.765625 46.390625 33.9375 46.390625 
Q 42.71875 46.390625 46.625 39.59375 
Q 54.34375 46.390625 63.375 46.390625 
Q 70.171875 46.390625 74 42.546875 
Q 77.828125 38.71875 77.828125 31.59375 
L 77.828125 14.3125 
Q 77.828125 8.15625 77.9375 5.21875 
Q 78.03125 3.90625 79.25 3.515625 
L 84.671875 1.859375 
L 84.765625 -0.140625 
Q 78.328125 0 73.53125 0 
Q 68.703125 0 62.890625 -0.140625 
L 62.703125 1.859375 
L 67.53125 3.265625 
Q 68.65625 3.65625 68.796875 4.78125 
Q 68.84375 5.46875 68.84375 7.859375 
L 68.84375 29.15625 
Q 68.84375 35.15625 66.0625 37.765625 
Q 63.28125 40.375 57.859375 40.375 
Q 52.390625 40.375 47.65625 36.859375 
z
" id="Constantia-109"/>
       <path d="M 19.34375 63.671875 
Q 19.34375 61.078125 17.71875 59.4375 
Q 16.109375 57.8125 13.578125 57.8125 
Q 11.140625 57.8125 9.59375 59.328125 
Q 8.0625 60.84375 8.0625 63.328125 
Q 8.0625 65.96875 9.671875 67.5 
Q 11.28125 69.046875 13.921875 69.046875 
Q 16.3125 69.046875 17.828125 67.65625 
Q 19.34375 66.265625 19.34375 63.671875 
z
M 2.828125 42.96875 
Q 11.375 44.578125 18.65625 46.390625 
L 19.09375 46.046875 
Q 18.796875 39.703125 18.796875 32.078125 
L 18.796875 13.328125 
Q 18.796875 7.46875 18.890625 5.21875 
Q 19 3.90625 20.125 3.515625 
L 25.78125 1.859375 
L 25.875 -0.140625 
Q 19.140625 0 14.359375 0 
Q 9.578125 0 2.984375 -0.140625 
L 2.78125 1.859375 
L 8.453125 3.515625 
Q 9.578125 3.90625 9.671875 5.03125 
Q 9.765625 6.9375 9.765625 11.421875 
L 9.765625 27.734375 
Q 9.765625 34.125 9.578125 39.546875 
L 3.078125 41.3125 
z
" id="Constantia-105"/>
       <path d="M 14.015625 30.328125 
Q 14.015625 23.96875 16.578125 20.5 
Q 19.140625 17.046875 24.03125 17.046875 
Q 28.71875 17.046875 31.078125 20.28125 
Q 33.453125 23.53125 33.453125 29.78125 
Q 33.453125 35.796875 30.9375 39.25 
Q 28.421875 42.71875 23.4375 42.71875 
Q 18.75 42.71875 16.375 39.546875 
Q 14.015625 36.375 14.015625 30.328125 
z
M 13.375 -1.953125 
Q 10.0625 -6.9375 10.0625 -11.140625 
Q 10.0625 -15.4375 13.53125 -17.828125 
Q 17 -20.21875 22.953125 -20.21875 
Q 30.03125 -20.21875 35.34375 -17.0625 
Q 40.671875 -13.921875 40.671875 -8.25 
Q 40.671875 -5.171875 38.0625 -3.484375 
Q 35.453125 -1.8125 28.21875 -1.8125 
Q 25.640625 -1.8125 22.578125 -1.953125 
Q 19.53125 -2.09375 16.703125 -2.09375 
Q 15.140625 -2.09375 13.375 -1.953125 
z
M 38.875 40.234375 
Q 42.53125 36.1875 42.53125 30.5625 
Q 42.53125 22.703125 37.0625 18.03125 
Q 31.59375 13.375 23.34375 13.375 
Q 18.65625 13.375 14.9375 14.84375 
Q 12.3125 10.59375 12.3125 8.15625 
Q 12.3125 6.84375 13.640625 6.375 
Q 14.984375 5.90625 18.609375 5.90625 
Q 21.34375 5.90625 25 6.046875 
Q 28.65625 6.203125 31.84375 6.203125 
Q 39.59375 6.203125 44.109375 3.25 
Q 48.640625 0.296875 48.640625 -5.515625 
Q 48.640625 -14.3125 40.359375 -19.390625 
Q 32.078125 -24.46875 21.53125 -24.46875 
Q 12.890625 -24.46875 7.734375 -21.5625 
Q 2.59375 -18.65625 2.59375 -14.015625 
Q 2.59375 -8.40625 10.546875 -1.421875 
Q 5.515625 0.484375 5.515625 3.65625 
Q 5.515625 8.109375 12.5 16.0625 
Q 4.890625 20.703125 4.890625 29.5 
Q 4.890625 37.109375 10.28125 41.75 
Q 15.671875 46.390625 24.21875 46.390625 
Q 26.46875 46.390625 30.328125 45.796875 
Q 33.984375 45.125 36.03125 45.125 
Q 43.40625 45.125 49.609375 45.265625 
L 49.859375 43.265625 
z
" id="Constantia-103"/>
      </defs>
      <use xlink:href="#Constantia-55"/>
      <use x="48.339844" xlink:href="#Constantia-32"/>
      <use x="70.9375" xlink:href="#Constantia-100"/>
      <use x="127.675781" xlink:href="#Constantia-97"/>
      <use x="175.673828" xlink:href="#Constantia-121"/>
      <use x="223.818359" xlink:href="#Constantia-115"/>
      <use x="264.296875" xlink:href="#Constantia-32"/>
      <use x="289.394531" xlink:href="#Constantia-109"/>
      <use x="376.015625" xlink:href="#Constantia-111"/>
      <use x="430.068359" xlink:href="#Constantia-118"/>
      <use x="478.359375" xlink:href="#Constantia-105"/>
      <use x="506.679688" xlink:href="#Constantia-110"/>
      <use x="564.882812" xlink:href="#Constantia-103"/>
      <use x="615.664062" xlink:href="#Constantia-32"/>
      <use x="638.261719" xlink:href="#Constantia-97"/>
      <use x="686.259766" xlink:href="#Constantia-118"/>
      <use x="734.550781" xlink:href="#Constantia-103"/>
     </g>
    </g>
   </g>
  </g>
  <g id="axes_2">
   <g id="line2d_48">
    <path clip-path="url(#pb5967b8cf1)" d="M 291.260018 81.853909 
L 323.30903 267.46897 
L 333.992034 400.754151 
L 344.675038 496.192077 
L 355.358042 480.313708 
L 366.041046 465.756053 
L 376.72405 471.369919 
L 387.407055 508.919267 
L 398.090059 563.301386 
L 408.773063 568.988074 
L 419.456067 588.095961 
L 430.139071 566.762608 
L 440.822075 600.457941 
L 451.505079 615.672091 
L 462.188083 512.336355 
L 472.871087 533.039692 
L 483.554091 507.604069 
L 494.237095 517.37427 
L 504.9201 534.994836 
L 515.603104 524.113557 
L 526.286108 511.685376 
L 536.969112 587.88191 
L 547.652116 574.401129 
L 558.33512 565.760763 
L 569.018124 561.658492 
L 579.701128 556.845661 
L 601.067136 509.743473 
L 611.75014 504.954916 
L 622.433145 513.052432 
L 633.116149 511.849776 
L 643.799153 511.109425 
L 654.482157 496.225178 
L 665.165161 495.063346 
L 675.848165 536.191975 
L 686.531169 523.688766 
L 697.214173 523.039994 
L 707.897177 513.80492 
L 718.580181 503.881352 
L 729.263185 513.829193 
L 739.94619 519.671454 
L 750.629194 521.498608 
L 761.312198 522.029321 
L 771.995202 528.706821 
L 782.678206 533.609023 
L 793.36121 536.097087 
L 804.044214 534.945185 
L 814.727218 527.60788 
L 825.410222 535.262951 
L 836.093226 550.298358 
L 857.459235 488.149729 
L 868.142239 482.314089 
L 878.825243 483.286144 
L 889.508247 505.85084 
L 900.191251 496.624592 
L 910.874255 444.822115 
L 921.557259 449.334834 
L 932.240263 512.05169 
L 942.923267 511.466912 
L 953.606271 521.616667 
L 964.289275 469.210655 
L 974.97228 478.99189 
L 985.655284 508.85748 
L 996.338288 505.557347 
L 1007.021292 497.227024 
L 1017.704296 473.498289 
L 1028.3873 467.961658 
L 1039.070304 490.489943 
L 1049.753308 489.598433 
L 1060.436312 498.743032 
L 1071.119316 497.892346 
L 1081.80232 478.124653 
L 1092.485325 490.371884 
L 1103.168329 460.638697 
L 1113.851333 449.406552 
L 1124.534337 449.581985 
L 1135.217341 443.825786 
L 1145.900345 433.594383 
L 1156.583349 432.167746 
L 1167.266353 423.511933 
L 1177.949357 451.389279 
L 1188.632361 457.474277 
L 1199.315365 426.111436 
L 1209.99837 411.015344 
L 1220.681374 354.981504 
L 1231.364378 359.934461 
L 1242.047382 330.160449 
L 1252.730386 290.873318 
L 1263.41339 279.210865 
L 1274.096394 277.733474 
L 1284.779398 241.456293 
L 1295.462402 276.941265 
L 1306.145406 257.499062 
" style="fill:none;stroke:#f08080;stroke-dasharray:11.1,4.8;stroke-dashoffset:0;stroke-width:3;"/>
    <g clip-path="url(#pb5967b8cf1)">
     <use style="fill:#f08080;stroke:#f08080;" x="291.260018" xlink:href="#m92ccda1541" y="81.853909"/>
     <use style="fill:#f08080;stroke:#f08080;" x="323.30903" xlink:href="#m92ccda1541" y="267.46897"/>
     <use style="fill:#f08080;stroke:#f08080;" x="333.992034" xlink:href="#m92ccda1541" y="400.754151"/>
     <use style="fill:#f08080;stroke:#f08080;" x="344.675038" xlink:href="#m92ccda1541" y="496.192077"/>
     <use style="fill:#f08080;stroke:#f08080;" x="355.358042" xlink:href="#m92ccda1541" y="480.313708"/>
     <use style="fill:#f08080;stroke:#f08080;" x="366.041046" xlink:href="#m92ccda1541" y="465.756053"/>
     <use style="fill:#f08080;stroke:#f08080;" x="376.72405" xlink:href="#m92ccda1541" y="471.369919"/>
     <use style="fill:#f08080;stroke:#f08080;" x="387.407055" xlink:href="#m92ccda1541" y="508.919267"/>
     <use style="fill:#f08080;stroke:#f08080;" x="398.090059" xlink:href="#m92ccda1541" y="563.301386"/>
     <use style="fill:#f08080;stroke:#f08080;" x="408.773063" xlink:href="#m92ccda1541" y="568.988074"/>
     <use style="fill:#f08080;stroke:#f08080;" x="419.456067" xlink:href="#m92ccda1541" y="588.095961"/>
     <use style="fill:#f08080;stroke:#f08080;" x="430.139071" xlink:href="#m92ccda1541" y="566.762608"/>
     <use style="fill:#f08080;stroke:#f08080;" x="440.822075" xlink:href="#m92ccda1541" y="600.457941"/>
     <use style="fill:#f08080;stroke:#f08080;" x="451.505079" xlink:href="#m92ccda1541" y="615.672091"/>
     <use style="fill:#f08080;stroke:#f08080;" x="462.188083" xlink:href="#m92ccda1541" y="512.336355"/>
     <use style="fill:#f08080;stroke:#f08080;" x="472.871087" xlink:href="#m92ccda1541" y="533.039692"/>
     <use style="fill:#f08080;stroke:#f08080;" x="483.554091" xlink:href="#m92ccda1541" y="507.604069"/>
     <use style="fill:#f08080;stroke:#f08080;" x="494.237095" xlink:href="#m92ccda1541" y="517.37427"/>
     <use style="fill:#f08080;stroke:#f08080;" x="504.9201" xlink:href="#m92ccda1541" y="534.994836"/>
     <use style="fill:#f08080;stroke:#f08080;" x="515.603104" xlink:href="#m92ccda1541" y="524.113557"/>
     <use style="fill:#f08080;stroke:#f08080;" x="526.286108" xlink:href="#m92ccda1541" y="511.685376"/>
     <use style="fill:#f08080;stroke:#f08080;" x="536.969112" xlink:href="#m92ccda1541" y="587.88191"/>
     <use style="fill:#f08080;stroke:#f08080;" x="547.652116" xlink:href="#m92ccda1541" y="574.401129"/>
     <use style="fill:#f08080;stroke:#f08080;" x="558.33512" xlink:href="#m92ccda1541" y="565.760763"/>
     <use style="fill:#f08080;stroke:#f08080;" x="569.018124" xlink:href="#m92ccda1541" y="561.658492"/>
     <use style="fill:#f08080;stroke:#f08080;" x="579.701128" xlink:href="#m92ccda1541" y="556.845661"/>
     <use style="fill:#f08080;stroke:#f08080;" x="601.067136" xlink:href="#m92ccda1541" y="509.743473"/>
     <use style="fill:#f08080;stroke:#f08080;" x="611.75014" xlink:href="#m92ccda1541" y="504.954916"/>
     <use style="fill:#f08080;stroke:#f08080;" x="622.433145" xlink:href="#m92ccda1541" y="513.052432"/>
     <use style="fill:#f08080;stroke:#f08080;" x="633.116149" xlink:href="#m92ccda1541" y="511.849776"/>
     <use style="fill:#f08080;stroke:#f08080;" x="643.799153" xlink:href="#m92ccda1541" y="511.109425"/>
     <use style="fill:#f08080;stroke:#f08080;" x="654.482157" xlink:href="#m92ccda1541" y="496.225178"/>
     <use style="fill:#f08080;stroke:#f08080;" x="665.165161" xlink:href="#m92ccda1541" y="495.063346"/>
     <use style="fill:#f08080;stroke:#f08080;" x="675.848165" xlink:href="#m92ccda1541" y="536.191975"/>
     <use style="fill:#f08080;stroke:#f08080;" x="686.531169" xlink:href="#m92ccda1541" y="523.688766"/>
     <use style="fill:#f08080;stroke:#f08080;" x="697.214173" xlink:href="#m92ccda1541" y="523.039994"/>
     <use style="fill:#f08080;stroke:#f08080;" x="707.897177" xlink:href="#m92ccda1541" y="513.80492"/>
     <use style="fill:#f08080;stroke:#f08080;" x="718.580181" xlink:href="#m92ccda1541" y="503.881352"/>
     <use style="fill:#f08080;stroke:#f08080;" x="729.263185" xlink:href="#m92ccda1541" y="513.829193"/>
     <use style="fill:#f08080;stroke:#f08080;" x="739.94619" xlink:href="#m92ccda1541" y="519.671454"/>
     <use style="fill:#f08080;stroke:#f08080;" x="750.629194" xlink:href="#m92ccda1541" y="521.498608"/>
     <use style="fill:#f08080;stroke:#f08080;" x="761.312198" xlink:href="#m92ccda1541" y="522.029321"/>
     <use style="fill:#f08080;stroke:#f08080;" x="771.995202" xlink:href="#m92ccda1541" y="528.706821"/>
     <use style="fill:#f08080;stroke:#f08080;" x="782.678206" xlink:href="#m92ccda1541" y="533.609023"/>
     <use style="fill:#f08080;stroke:#f08080;" x="793.36121" xlink:href="#m92ccda1541" y="536.097087"/>
     <use style="fill:#f08080;stroke:#f08080;" x="804.044214" xlink:href="#m92ccda1541" y="534.945185"/>
     <use style="fill:#f08080;stroke:#f08080;" x="814.727218" xlink:href="#m92ccda1541" y="527.60788"/>
     <use style="fill:#f08080;stroke:#f08080;" x="825.410222" xlink:href="#m92ccda1541" y="535.262951"/>
     <use style="fill:#f08080;stroke:#f08080;" x="836.093226" xlink:href="#m92ccda1541" y="550.298358"/>
     <use style="fill:#f08080;stroke:#f08080;" x="857.459235" xlink:href="#m92ccda1541" y="488.149729"/>
     <use style="fill:#f08080;stroke:#f08080;" x="868.142239" xlink:href="#m92ccda1541" y="482.314089"/>
     <use style="fill:#f08080;stroke:#f08080;" x="878.825243" xlink:href="#m92ccda1541" y="483.286144"/>
     <use style="fill:#f08080;stroke:#f08080;" x="889.508247" xlink:href="#m92ccda1541" y="505.85084"/>
     <use style="fill:#f08080;stroke:#f08080;" x="900.191251" xlink:href="#m92ccda1541" y="496.624592"/>
     <use style="fill:#f08080;stroke:#f08080;" x="910.874255" xlink:href="#m92ccda1541" y="444.822115"/>
     <use style="fill:#f08080;stroke:#f08080;" x="921.557259" xlink:href="#m92ccda1541" y="449.334834"/>
     <use style="fill:#f08080;stroke:#f08080;" x="932.240263" xlink:href="#m92ccda1541" y="512.05169"/>
     <use style="fill:#f08080;stroke:#f08080;" x="942.923267" xlink:href="#m92ccda1541" y="511.466912"/>
     <use style="fill:#f08080;stroke:#f08080;" x="953.606271" xlink:href="#m92ccda1541" y="521.616667"/>
     <use style="fill:#f08080;stroke:#f08080;" x="964.289275" xlink:href="#m92ccda1541" y="469.210655"/>
     <use style="fill:#f08080;stroke:#f08080;" x="974.97228" xlink:href="#m92ccda1541" y="478.99189"/>
     <use style="fill:#f08080;stroke:#f08080;" x="985.655284" xlink:href="#m92ccda1541" y="508.85748"/>
     <use style="fill:#f08080;stroke:#f08080;" x="996.338288" xlink:href="#m92ccda1541" y="505.557347"/>
     <use style="fill:#f08080;stroke:#f08080;" x="1007.021292" xlink:href="#m92ccda1541" y="497.227024"/>
     <use style="fill:#f08080;stroke:#f08080;" x="1017.704296" xlink:href="#m92ccda1541" y="473.498289"/>
     <use style="fill:#f08080;stroke:#f08080;" x="1028.3873" xlink:href="#m92ccda1541" y="467.961658"/>
     <use style="fill:#f08080;stroke:#f08080;" x="1039.070304" xlink:href="#m92ccda1541" y="490.489943"/>
     <use style="fill:#f08080;stroke:#f08080;" x="1049.753308" xlink:href="#m92ccda1541" y="489.598433"/>
     <use style="fill:#f08080;stroke:#f08080;" x="1060.436312" xlink:href="#m92ccda1541" y="498.743032"/>
     <use style="fill:#f08080;stroke:#f08080;" x="1071.119316" xlink:href="#m92ccda1541" y="497.892346"/>
     <use style="fill:#f08080;stroke:#f08080;" x="1081.80232" xlink:href="#m92ccda1541" y="478.124653"/>
     <use style="fill:#f08080;stroke:#f08080;" x="1092.485325" xlink:href="#m92ccda1541" y="490.371884"/>
     <use style="fill:#f08080;stroke:#f08080;" x="1103.168329" xlink:href="#m92ccda1541" y="460.638697"/>
     <use style="fill:#f08080;stroke:#f08080;" x="1113.851333" xlink:href="#m92ccda1541" y="449.406552"/>
     <use style="fill:#f08080;stroke:#f08080;" x="1124.534337" xlink:href="#m92ccda1541" y="449.581985"/>
     <use style="fill:#f08080;stroke:#f08080;" x="1135.217341" xlink:href="#m92ccda1541" y="443.825786"/>
     <use style="fill:#f08080;stroke:#f08080;" x="1145.900345" xlink:href="#m92ccda1541" y="433.594383"/>
     <use style="fill:#f08080;stroke:#f08080;" x="1156.583349" xlink:href="#m92ccda1541" y="432.167746"/>
     <use style="fill:#f08080;stroke:#f08080;" x="1167.266353" xlink:href="#m92ccda1541" y="423.511933"/>
     <use style="fill:#f08080;stroke:#f08080;" x="1177.949357" xlink:href="#m92ccda1541" y="451.389279"/>
     <use style="fill:#f08080;stroke:#f08080;" x="1188.632361" xlink:href="#m92ccda1541" y="457.474277"/>
     <use style="fill:#f08080;stroke:#f08080;" x="1199.315365" xlink:href="#m92ccda1541" y="426.111436"/>
     <use style="fill:#f08080;stroke:#f08080;" x="1209.99837" xlink:href="#m92ccda1541" y="411.015344"/>
     <use style="fill:#f08080;stroke:#f08080;" x="1220.681374" xlink:href="#m92ccda1541" y="354.981504"/>
     <use style="fill:#f08080;stroke:#f08080;" x="1231.364378" xlink:href="#m92ccda1541" y="359.934461"/>
     <use style="fill:#f08080;stroke:#f08080;" x="1242.047382" xlink:href="#m92ccda1541" y="330.160449"/>
     <use style="fill:#f08080;stroke:#f08080;" x="1252.730386" xlink:href="#m92ccda1541" y="290.873318"/>
     <use style="fill:#f08080;stroke:#f08080;" x="1263.41339" xlink:href="#m92ccda1541" y="279.210865"/>
     <use style="fill:#f08080;stroke:#f08080;" x="1274.096394" xlink:href="#m92ccda1541" y="277.733474"/>
     <use style="fill:#f08080;stroke:#f08080;" x="1284.779398" xlink:href="#m92ccda1541" y="241.456293"/>
     <use style="fill:#f08080;stroke:#f08080;" x="1295.462402" xlink:href="#m92ccda1541" y="276.941265"/>
     <use style="fill:#f08080;stroke:#f08080;" x="1306.145406" xlink:href="#m92ccda1541" y="257.499062"/>
    </g>
   </g>
  </g>
  <g id="text_27">
   <!-- Usa -->
   <g transform="translate(671.515625 21.915625)scale(0.2 -0.2)">
    <defs>
     <path d="M 3.078125 68.359375 
Q 9.375 68.171875 15.1875 68.171875 
Q 21.046875 68.171875 27.296875 68.359375 
L 27.484375 66.265625 
L 21.4375 64.453125 
Q 20.265625 64.15625 20.171875 62.9375 
Q 20.125 61.234375 20.09375 59.203125 
Q 20.0625 57.171875 20.0625 54.78125 
L 20.0625 28.078125 
Q 20.0625 14.109375 24.5 8.71875 
Q 28.953125 3.328125 38.8125 3.328125 
Q 48.828125 3.328125 53.3125 8.890625 
Q 57.8125 14.453125 57.8125 27.484375 
L 57.8125 54.78125 
Q 57.8125 57.171875 57.78125 59.203125 
Q 57.765625 61.234375 57.671875 62.9375 
Q 57.625 64.0625 56.390625 64.453125 
L 50.6875 66.109375 
L 50.59375 68.359375 
Q 56.78125 68.171875 61.234375 68.171875 
Q 65.484375 68.171875 71.578125 68.359375 
L 71.78125 66.265625 
L 65.625 64.359375 
Q 64.5 63.96875 64.453125 62.703125 
Q 64.40625 61.078125 64.375 59.078125 
Q 64.359375 57.078125 64.359375 54.59375 
L 64.359375 29.546875 
Q 64.359375 13.53125 57.828125 5.859375 
Q 51.3125 -1.8125 37.3125 -1.8125 
Q 23.578125 -1.8125 17.03125 5.09375 
Q 10.5 12.015625 10.5 26.5625 
L 10.5 54.59375 
Q 10.5 57.078125 10.46875 59.078125 
Q 10.453125 61.078125 10.40625 62.703125 
Q 10.359375 63.96875 9.234375 64.359375 
L 3.171875 66.265625 
z
" id="Constantia-85"/>
    </defs>
    <use xlink:href="#Constantia-85"/>
    <use x="72.365234" xlink:href="#Constantia-115"/>
    <use x="112.84375" xlink:href="#Constantia-97"/>
   </g>
   <!-- Daily increase of NewRecovered -->
   <g transform="translate(549.3125 44.32125)scale(0.2 -0.2)">
    <defs>
     <path d="M 17.09375 0 
Q 11.1875 0 4.984375 -0.140625 
L 4.78125 1.953125 
L 10.796875 3.765625 
Q 12.0625 4.15625 12.109375 5.28125 
Q 12.15625 7.234375 12.171875 9.640625 
Q 12.203125 12.0625 12.203125 14.984375 
L 12.203125 54.59375 
Q 12.203125 57.078125 12.171875 59.078125 
Q 12.15625 61.078125 12.109375 62.703125 
Q 12.0625 63.96875 10.9375 64.359375 
L 4.890625 66.265625 
L 4.78125 68.359375 
Q 11.078125 68.171875 17.046875 68.171875 
Q 21.921875 68.171875 26.453125 68.40625 
Q 31 68.65625 35.796875 68.65625 
Q 52.875 68.65625 61.46875 60.859375 
Q 70.0625 53.078125 70.0625 37.75 
Q 70.0625 19.671875 60.515625 9.6875 
Q 50.984375 -0.296875 33.734375 -0.296875 
Q 29 -0.296875 25.28125 -0.140625 
Q 21.578125 0 17.09375 0 
z
M 21.78125 4.34375 
Q 24.65625 3.953125 27.40625 3.828125 
Q 30.171875 3.71875 32.953125 3.71875 
Q 45.84375 3.71875 52.578125 11.296875 
Q 59.328125 18.890625 59.328125 34.578125 
Q 59.328125 49.8125 52.921875 57.15625 
Q 46.53125 64.5 32.671875 64.5 
Q 30.46875 64.5 27.796875 64.40625 
Q 25.140625 64.3125 21.78125 64.0625 
z
" id="Constantia-68"/>
     <path d="M 2.734375 68.5 
L 2.484375 70.125 
Q 11.140625 71.78125 18.40625 73.578125 
L 18.84375 73.1875 
Q 18.5625 65.234375 18.5625 51.078125 
L 18.5625 19.28125 
Q 18.5625 10.546875 18.65625 5.21875 
Q 18.796875 3.8125 20.015625 3.46875 
L 25.34375 1.859375 
L 25.484375 -0.140625 
Q 18.890625 0 14.109375 0 
Q 9.328125 0 2.78125 -0.140625 
L 2.59375 1.859375 
L 8.109375 3.46875 
Q 9.328125 3.859375 9.421875 5.03125 
Q 9.515625 10.546875 9.515625 17.328125 
L 9.515625 37.40625 
Q 9.515625 55.5625 9.328125 66.546875 
z
" id="Constantia-108"/>
     <path d="M 18.796875 39.9375 
L 18.796875 13.421875 
Q 18.796875 8.84375 18.890625 5.375 
Q 19 4.046875 20.171875 3.71875 
L 26.375 1.859375 
L 26.515625 -0.140625 
Q 19.140625 0 14.40625 0 
Q 9.578125 0 3.03125 -0.140625 
L 2.78125 1.859375 
L 8.25 3.421875 
Q 9.625 3.859375 9.671875 5.03125 
Q 9.765625 8.0625 9.765625 11.421875 
L 9.765625 40.1875 
L 3.125 41.84375 
L 2.78125 43.890625 
L 9.8125 44.484375 
L 9.8125 44.671875 
Q 9.8125 58.453125 15.796875 66.015625 
Q 21.78125 73.578125 31.84375 73.578125 
Q 36.765625 73.578125 41.359375 72.359375 
Q 39.703125 66.40625 38.53125 60.109375 
L 36.46875 59.71875 
L 33.296875 69.484375 
Q 32.171875 69.625 30.46875 69.625 
Q 24.859375 69.625 21.828125 64.59375 
Q 18.796875 59.578125 18.796875 46.1875 
L 18.796875 44.578125 
L 30.953125 44.578125 
L 30.953125 39.9375 
z
" id="Constantia-102"/>
    </defs>
    <use xlink:href="#Constantia-68"/>
    <use x="73.847656" xlink:href="#Constantia-97"/>
    <use x="121.845703" xlink:href="#Constantia-105"/>
    <use x="150.166016" xlink:href="#Constantia-108"/>
    <use x="178.242188" xlink:href="#Constantia-121"/>
    <use x="226.386719" xlink:href="#Constantia-32"/>
    <use x="251.484375" xlink:href="#Constantia-105"/>
    <use x="279.804688" xlink:href="#Constantia-110"/>
    <use x="338.007812" xlink:href="#Constantia-99"/>
    <use x="384.150391" xlink:href="#Constantia-114"/>
    <use x="422.480469" xlink:href="#Constantia-101"/>
    <use x="470.380859" xlink:href="#Constantia-97"/>
    <use x="518.378906" xlink:href="#Constantia-115"/>
    <use x="558.857422" xlink:href="#Constantia-101"/>
    <use x="606.757812" xlink:href="#Constantia-32"/>
    <use x="629.355469" xlink:href="#Constantia-111"/>
    <use x="683.408203" xlink:href="#Constantia-102"/>
    <use x="714.365234" xlink:href="#Constantia-32"/>
    <use x="739.462891" xlink:href="#Constantia-78"/>
    <use x="812.865234" xlink:href="#Constantia-101"/>
    <use x="860.765625" xlink:href="#Constantia-119"/>
    <use x="933.958984" xlink:href="#Constantia-82"/>
    <use x="995.59375" xlink:href="#Constantia-101"/>
    <use x="1043.494141" xlink:href="#Constantia-99"/>
    <use x="1089.636719" xlink:href="#Constantia-111"/>
    <use x="1143.689453" xlink:href="#Constantia-118"/>
    <use x="1191.980469" xlink:href="#Constantia-101"/>
    <use x="1239.880859" xlink:href="#Constantia-114"/>
    <use x="1278.210938" xlink:href="#Constantia-101"/>
    <use x="1326.111328" xlink:href="#Constantia-100"/>
   </g>
  </g>
 </g>
 <defs>
  <clipPath id="pb5967b8cf1">
   <rect height="587.2" width="1266.790625" x="101.209375" y="55.163"/>
  </clipPath>
 </defs>
</svg>
