<?xml version="1.0" encoding="utf-8" standalone="no"?>
<!DOCTYPE svg PUBLIC "-//W3C//DTD SVG 1.1//EN"
  "http://www.w3.org/Graphics/SVG/1.1/DTD/svg11.dtd">
<!-- Created with matplotlib (https://matplotlib.org/) -->
<svg height="766.08pt" version="1.1" viewBox="0 0 897.344844 766.08" width="897.344844pt" xmlns="http://www.w3.org/2000/svg" xmlns:xlink="http://www.w3.org/1999/xlink">
 <metadata>
  <rdf:RDF xmlns:cc="http://creativecommons.org/ns#" xmlns:dc="http://purl.org/dc/elements/1.1/" xmlns:rdf="http://www.w3.org/1999/02/22-rdf-syntax-ns#">
   <cc:Work>
    <dc:type rdf:resource="http://purl.org/dc/dcmitype/StillImage"/>
    <dc:date>2021-03-15T15:33:05.026502</dc:date>
    <dc:format>image/svg+xml</dc:format>
    <dc:creator>
     <cc:Agent>
      <dc:title>Matplotlib v3.3.3, https://matplotlib.org/</dc:title>
     </cc:Agent>
    </dc:creator>
   </cc:Work>
  </rdf:RDF>
 </metadata>
 <defs>
  <style type="text/css">*{stroke-linecap:butt;stroke-linejoin:round;}</style>
 </defs>
 <g id="figure_1">
  <g id="patch_1">
   <path d="M 0 766.08 
L 897.344844 766.08 
L 897.344844 0 
L 0 0 
z
" style="fill:#ffffff;"/>
  </g>
  <g id="axes_1">
   <g id="patch_2">
    <path d="M 371.342734 103.423078 
C 334.229337 103.423078 297.455554 110.515443 263.004138 124.317769 
C 228.552722 138.120095 197.054184 158.379779 170.206848 184.004471 
C 143.359511 209.629162 121.654722 240.14989 106.262749 273.921053 
C 90.870776 307.692216 82.073315 344.095752 80.344703 381.168871 
C 78.61609 418.24199 83.987964 455.306201 96.170684 490.363091 
C 108.353404 525.419982 127.12401 557.827961 151.470437 585.839669 
C 175.816863 613.851377 205.293535 636.954159 238.311143 653.90237 
C 271.32875 670.850581 307.283023 681.334044 344.235395 684.787516 
C 381.187767 688.240989 418.461956 684.601267 454.048229 674.064595 
C 489.634502 663.527924 522.881579 646.287139 551.996857 623.271822 
C 581.112136 600.256506 605.562766 571.887871 624.030428 539.695485 
C 642.49809 507.503099 654.6448 472.076129 659.815636 435.324711 
C 664.986473 398.573293 663.086802 361.170031 654.219049 325.131618 
C 645.351297 289.093205 629.677756 255.079195 608.043505 224.923541 
C 586.409254 194.767888 559.210232 169.022482 527.912942 149.075454 
C 496.615653 129.128425 461.792882 115.344834 425.322189 108.467857 
L 409.128353 194.34868 
C 434.657838 199.162563 459.033777 208.811077 480.94188 222.773997 
C 502.849982 236.736917 521.889298 254.758701 537.033274 275.867659 
C 552.17725 296.976616 563.148728 320.786423 569.356155 346.013312 
C 575.563582 371.240202 576.893351 397.422485 573.273766 423.148477 
C 569.65418 448.87447 561.151483 473.673349 548.22412 496.208019 
C 535.296757 518.742689 518.181316 538.600734 497.800621 554.711455 
C 477.419925 570.822177 454.146972 582.890726 429.236581 590.266396 
C 404.32619 597.642066 378.234257 600.189872 352.367597 597.772441 
C 326.500937 595.355011 301.332946 588.016587 278.22062 576.152839 
C 255.108295 564.289091 234.474625 548.117144 217.432126 528.508948 
C 200.389628 508.900752 187.250203 486.215167 178.722299 461.675344 
C 170.194395 437.13552 166.434084 411.190573 167.644112 385.239389 
C 168.854141 359.288206 175.012364 333.805731 185.786745 310.165917 
C 196.561126 286.526103 211.754478 265.161593 230.547614 247.224309 
C 249.340749 229.287025 271.389726 215.105246 295.505717 205.443618 
C 319.621708 195.78199 345.363356 190.817334 371.342734 190.817334 
L 371.342734 103.423078 
z
" style="fill:#2ca02c;stroke:#000000;stroke-linejoin:miter;"/>
   </g>
   <g id="patch_3">
    <path d="M 425.322189 108.467857 
C 416.428405 106.79083 407.461298 105.52918 398.450051 104.687013 
C 389.438805 103.844846 380.393205 103.423077 371.34269 103.423078 
L 371.342703 190.817334 
C 377.678063 190.817333 384.009984 191.112572 390.317856 191.702089 
C 396.625729 192.291605 402.902704 193.17476 409.128353 194.34868 
L 425.322189 108.467857 
z
" style="fill:#d62728;stroke:#000000;stroke-linejoin:miter;"/>
   </g>
   <g id="matplotlib.axis_1"/>
   <g id="matplotlib.axis_2"/>
   <g id="text_1">
    <!-- TotalRecovered -->
    <g transform="translate(208.143411 718.776917)scale(0.2 -0.2)">
     <defs>
      <path d="M 30.765625 0 
Q 24.75 0 17.484375 -0.140625 
L 17.28125 1.953125 
L 24.515625 4.109375 
Q 25.734375 4.4375 25.78125 5.609375 
Q 25.875 9.328125 25.875 15.09375 
L 25.875 63.8125 
L 8.640625 63.8125 
L 4.296875 50.828125 
L 2.34375 50.484375 
L 1.078125 67.96875 
L 1.421875 68.359375 
Q 13.421875 68.171875 24.421875 68.171875 
L 37.453125 68.171875 
Q 48.390625 68.171875 60.546875 68.359375 
L 60.84375 67.96875 
L 57.765625 50.828125 
L 55.8125 50.484375 
L 52.6875 63.8125 
L 35.453125 63.8125 
L 35.453125 15.09375 
Q 35.453125 9.328125 35.546875 5.609375 
Q 35.59375 4.4375 36.8125 4.109375 
L 44.046875 1.953125 
L 44.140625 -0.140625 
Q 36.578125 0 30.765625 0 
z
" id="Constantia-84"/>
      <path d="M 13.71875 23.046875 
Q 13.71875 13.921875 17.140625 8.171875 
Q 20.5625 2.4375 27.296875 2.4375 
Q 33.59375 2.4375 36.890625 7.484375 
Q 40.1875 12.546875 40.1875 22.46875 
Q 40.1875 31.78125 36.71875 37.15625 
Q 33.25 42.53125 26.65625 42.53125 
Q 20.40625 42.53125 17.0625 37.6875 
Q 13.71875 32.859375 13.71875 23.046875 
z
M 50.140625 23.484375 
Q 50.140625 12.359375 43.421875 5.484375 
Q 36.71875 -1.375 26.375 -1.375 
Q 16.265625 -1.375 10.03125 5.09375 
Q 3.8125 11.578125 3.8125 22.015625 
Q 3.8125 32.765625 10.328125 39.578125 
Q 16.84375 46.390625 27.59375 46.390625 
Q 37.75 46.390625 43.9375 40.109375 
Q 50.140625 33.84375 50.140625 23.484375 
z
" id="Constantia-111"/>
      <path d="M 17.484375 39.9375 
Q 17.1875 23.4375 17.1875 13.328125 
Q 17.1875 8.25 18.703125 6.3125 
Q 20.21875 4.390625 24.46875 4.390625 
Q 27.828125 4.390625 33.25 5.28125 
L 33.546875 3.078125 
Q 25.09375 -1.171875 18.453125 -1.171875 
Q 13.140625 -1.171875 10.546875 1.6875 
Q 7.953125 4.546875 7.953125 10.296875 
Q 7.953125 19.78125 8.296875 40.234375 
L 1.5625 41.890625 
L 1.265625 43.890625 
L 8.796875 44.53125 
L 12.15625 56.34375 
Q 14.890625 57.078125 17.140625 57.765625 
L 17.625 57.421875 
Q 17.484375 51.515625 17.484375 46.390625 
L 17.484375 44.578125 
L 32.171875 44.578125 
L 32.171875 39.9375 
z
" id="Constantia-116"/>
      <path d="M 30.125 22.125 
Q 19.4375 22.125 15.53125 20.015625 
Q 11.625 17.921875 11.625 12.9375 
Q 11.625 8.296875 14.203125 6.359375 
Q 16.796875 4.4375 21.234375 4.4375 
Q 26.265625 4.4375 30.03125 6.15625 
z
M 6.453125 42.234375 
Q 15.96875 46.390625 23.296875 46.390625 
Q 30.765625 46.390625 34.9375 42.484375 
Q 39.109375 38.578125 39.0625 31.203125 
L 38.8125 10.890625 
Q 38.765625 8.40625 38.9375 6.890625 
Q 39.109375 5.375 39.8125 4.5625 
Q 40.53125 3.765625 41.9375 3.4375 
Q 43.359375 3.125 45.75 3.078125 
L 46 1.171875 
Q 43.890625 0.34375 40.859375 -0.484375 
Q 37.84375 -1.3125 36.765625 -1.3125 
Q 32.03125 -1.3125 30.28125 3.5625 
Q 23.4375 -1.375 17.390625 -1.375 
Q 10.59375 -1.375 6.46875 1.96875 
Q 2.34375 5.328125 2.34375 11.421875 
Q 2.34375 18.953125 9.046875 22.515625 
Q 15.765625 26.078125 30.125 26.078125 
L 30.171875 29.890625 
Q 30.21875 35.359375 27.390625 37.984375 
Q 24.5625 40.625 18.703125 40.625 
Q 14.265625 40.625 7.5625 38.96875 
z
" id="Constantia-97"/>
      <path d="M 2.734375 68.5 
L 2.484375 70.125 
Q 11.140625 71.78125 18.40625 73.578125 
L 18.84375 73.1875 
Q 18.5625 65.234375 18.5625 51.078125 
L 18.5625 19.28125 
Q 18.5625 10.546875 18.65625 5.21875 
Q 18.796875 3.8125 20.015625 3.46875 
L 25.34375 1.859375 
L 25.484375 -0.140625 
Q 18.890625 0 14.109375 0 
Q 9.328125 0 2.78125 -0.140625 
L 2.59375 1.859375 
L 8.109375 3.46875 
Q 9.328125 3.859375 9.421875 5.03125 
Q 9.515625 10.546875 9.515625 17.328125 
L 9.515625 37.40625 
Q 9.515625 55.5625 9.328125 66.546875 
z
" id="Constantia-108"/>
      <path d="M 21.78125 14.984375 
Q 21.78125 12.0625 21.796875 9.71875 
Q 21.828125 7.375 21.875 5.46875 
Q 21.921875 3.953125 23.140625 3.5625 
L 28.5625 1.953125 
L 28.71875 -0.140625 
Q 22.90625 0 17.09375 0 
Q 11.1875 0 4.984375 -0.140625 
L 4.78125 1.953125 
L 10.796875 3.765625 
Q 12.015625 4.109375 12.109375 5.28125 
Q 12.15625 7.234375 12.171875 9.640625 
Q 12.203125 12.0625 12.203125 14.984375 
L 12.203125 54.59375 
Q 12.203125 57.078125 12.171875 59.078125 
Q 12.15625 61.078125 12.109375 62.703125 
Q 12.0625 63.96875 10.9375 64.359375 
L 4.890625 66.265625 
L 4.78125 68.359375 
Q 11.078125 68.171875 17.046875 68.171875 
Q 18.21875 68.171875 20.015625 68.234375 
Q 21.828125 68.3125 24.421875 68.40625 
Q 27.046875 68.5 28.796875 68.546875 
Q 30.5625 68.609375 31.59375 68.609375 
Q 42.71875 68.609375 48.28125 64.40625 
Q 53.859375 60.203125 53.859375 52.15625 
Q 53.859375 44.875 50.046875 40.359375 
Q 46.234375 35.84375 38.421875 33.40625 
Q 41.5 28.71875 44.09375 24.34375 
Q 46.6875 19.96875 48.90625 16.328125 
Q 51.125 12.703125 52.96875 9.90625 
Q 54.828125 7.125 56.453125 5.515625 
Q 57.28125 4.6875 58.109375 4.078125 
Q 58.9375 3.46875 59.84375 3.078125 
Q 60.75 2.6875 61.75 2.390625 
Q 62.75 2.09375 63.96875 1.8125 
L 64.109375 -0.34375 
Q 60.59375 -0.78125 58.203125 -0.78125 
Q 56.203125 -0.78125 54.6875 -0.6875 
Q 53.171875 -0.59375 52 -0.296875 
Q 50.828125 0 49.875 0.453125 
Q 48.921875 0.921875 48 1.65625 
Q 46 3.171875 44.0625 6.03125 
Q 42.140625 8.890625 40.0625 12.5 
Q 37.984375 16.109375 35.734375 20.1875 
Q 33.5 24.265625 31 28.171875 
Q 30.28125 29.34375 29.765625 30.03125 
Q 29.25 30.71875 28.640625 31.109375 
Q 28.03125 31.5 27.21875 31.640625 
Q 26.421875 31.78125 25.140625 31.84375 
L 21.78125 31.9375 
z
M 21.78125 35.59375 
Q 24.75 35.453125 27.296875 35.453125 
Q 35.75 35.453125 39.671875 39.03125 
Q 43.609375 42.625 43.609375 50.296875 
Q 43.609375 57.71875 39.84375 61.125 
Q 36.078125 64.546875 28.078125 64.546875 
Q 26.703125 64.546875 25.140625 64.453125 
Q 23.578125 64.359375 21.78125 64.15625 
z
" id="Constantia-82"/>
      <path d="M 44.046875 3.46875 
Q 39.890625 0.875 35.5 -0.25 
Q 31.109375 -1.375 27.34375 -1.375 
Q 16.609375 -1.375 10.203125 4.75 
Q 3.8125 10.890625 3.8125 21.78125 
Q 3.8125 32.625 9.9375 39.5 
Q 16.0625 46.390625 26.3125 46.390625 
Q 34.90625 46.390625 39.6875 41.234375 
Q 44.484375 36.078125 44.484375 27 
Q 44.484375 25.640625 44.34375 24.21875 
L 13.375 24.21875 
Q 13.375 13.71875 18.3125 9.203125 
Q 23.25 4.6875 33.734375 4.6875 
Q 38.421875 4.6875 43.75 5.5625 
z
M 34.765625 28.265625 
L 34.765625 29.734375 
Q 34.765625 36.671875 32.546875 39.640625 
Q 30.328125 42.625 25.921875 42.625 
Q 20.125 42.625 17.046875 38.421875 
Q 13.96875 34.234375 13.578125 28.265625 
z
" id="Constantia-101"/>
      <path d="M 42.96875 3.46875 
Q 39.9375 1.421875 35.46875 0.015625 
Q 31 -1.375 26.609375 -1.375 
Q 16.0625 -1.375 9.90625 4.796875 
Q 3.765625 10.984375 3.765625 21.296875 
Q 3.765625 32.46875 10.734375 39.421875 
Q 17.71875 46.390625 28.8125 46.390625 
Q 35.984375 46.390625 42.71875 43.453125 
Q 41.109375 36.921875 39.84375 30.078125 
L 37.9375 29.78125 
L 33.984375 41.5 
Q 31.734375 42.28125 28.90625 42.28125 
Q 21.625 42.28125 17.515625 37.203125 
Q 13.421875 32.125 13.421875 23.78125 
Q 13.421875 13.96875 18.0625 9.28125 
Q 22.703125 4.59375 32.765625 4.59375 
Q 37.40625 4.59375 42.671875 5.515625 
z
" id="Constantia-99"/>
      <path d="M -1.515625 45.265625 
Q 4.640625 45.125 9.421875 45.125 
Q 13.8125 45.125 19.96875 45.265625 
L 20.171875 43.265625 
L 14.5 41.703125 
Q 18.5 30.328125 23.78125 17.53125 
Q 25.140625 14.15625 26.21875 11.078125 
Q 27.296875 14.15625 28.71875 17.484375 
Q 33.15625 28.421875 38.03125 41.703125 
L 32.46875 43.265625 
L 32.28125 45.265625 
Q 36.234375 45.125 40.53125 45.125 
Q 44.921875 45.125 49.03125 45.265625 
L 49.21875 43.265625 
L 44.34375 41.84375 
Q 43.21875 41.453125 42.4375 39.9375 
Q 38.578125 31 33.46875 18.671875 
Q 28.375 6.34375 25.78125 -0.34375 
L 21.625 -0.78125 
Q 18.953125 6.296875 13.890625 18.59375 
Q 8.84375 30.90625 5.21875 39.703125 
Q 4.4375 41.40625 3.078125 41.890625 
L -1.421875 43.265625 
z
" id="Constantia-118"/>
      <path d="M 2.828125 42.96875 
Q 10.984375 44.53125 18.3125 46.390625 
L 18.796875 46.046875 
L 18.796875 40.328125 
Q 27.828125 46.390625 36.53125 46.390625 
L 36.765625 46.09375 
Q 35.359375 38.8125 33.984375 31 
L 32.03125 30.671875 
Q 30.671875 34.8125 29.390625 37.328125 
Q 28.125 39.84375 25.390625 39.84375 
Q 22.75 39.84375 18.796875 37.40625 
L 18.796875 16.265625 
Q 18.796875 8.640625 18.890625 5.375 
Q 18.953125 4.046875 20.125 3.71875 
L 26.609375 1.859375 
L 26.765625 -0.140625 
Q 19.140625 0 14.359375 0 
Q 9.578125 0 3.03125 -0.140625 
L 2.828125 1.859375 
L 8.5 3.515625 
Q 9.671875 3.90625 9.71875 5.03125 
Q 9.765625 7.125 9.765625 11.03125 
L 9.765625 27.6875 
Q 9.765625 35.640625 9.578125 39.546875 
L 3.078125 41.3125 
z
" id="Constantia-114"/>
      <path d="M 37.9375 41.015625 
Q 34.671875 42.046875 30.609375 42.046875 
Q 22.21875 42.046875 17.8125 37.28125 
Q 13.421875 32.515625 13.421875 22.859375 
Q 13.421875 14.5 17.328125 9.5 
Q 21.234375 4.5 28.375 4.5 
Q 32.953125 4.5 37.9375 7.03125 
z
M 30.90625 70.125 
Q 39.59375 71.78125 46.828125 73.578125 
L 47.265625 73.1875 
Q 46.96875 62.75 46.96875 50.734375 
L 46.96875 24.171875 
Q 46.96875 17.4375 47.015625 10.84375 
Q 47.015625 8.34375 47.1875 6.828125 
Q 47.359375 5.328125 48.046875 4.515625 
Q 48.734375 3.71875 50.078125 3.421875 
Q 51.421875 3.125 53.859375 3.078125 
L 54.109375 1.171875 
Q 51.953125 0.34375 48.953125 -0.484375 
Q 45.953125 -1.3125 44.875 -1.3125 
Q 39.9375 -1.3125 38.234375 4.25 
Q 30.671875 -1.375 23.53125 -1.375 
Q 14.5 -1.375 9.109375 5.046875 
Q 3.71875 11.46875 3.71875 20.84375 
Q 3.71875 32.953125 10.890625 39.59375 
Q 18.0625 46.234375 30.953125 46.234375 
Q 34.078125 46.234375 37.9375 45.5625 
Q 37.9375 56.34375 37.75 66.546875 
L 31.15625 68.5 
z
" id="Constantia-100"/>
     </defs>
     <use xlink:href="#Constantia-84"/>
     <use x="52.578125" xlink:href="#Constantia-111"/>
     <use x="106.630859" xlink:href="#Constantia-116"/>
     <use x="141.933594" xlink:href="#Constantia-97"/>
     <use x="189.931641" xlink:href="#Constantia-108"/>
     <use x="218.007812" xlink:href="#Constantia-82"/>
     <use x="279.642578" xlink:href="#Constantia-101"/>
     <use x="327.542969" xlink:href="#Constantia-99"/>
     <use x="373.685547" xlink:href="#Constantia-111"/>
     <use x="427.738281" xlink:href="#Constantia-118"/>
     <use x="476.029297" xlink:href="#Constantia-101"/>
     <use x="523.929688" xlink:href="#Constantia-114"/>
     <use x="562.259766" xlink:href="#Constantia-101"/>
     <use x="610.160156" xlink:href="#Constantia-100"/>
    </g>
   </g>
   <g id="text_2">
    <!-- TotalDeaths -->
    <g transform="translate(401.160783 80.666362)scale(0.2 -0.2)">
     <defs>
      <path d="M 17.09375 0 
Q 11.1875 0 4.984375 -0.140625 
L 4.78125 1.953125 
L 10.796875 3.765625 
Q 12.0625 4.15625 12.109375 5.28125 
Q 12.15625 7.234375 12.171875 9.640625 
Q 12.203125 12.0625 12.203125 14.984375 
L 12.203125 54.59375 
Q 12.203125 57.078125 12.171875 59.078125 
Q 12.15625 61.078125 12.109375 62.703125 
Q 12.0625 63.96875 10.9375 64.359375 
L 4.890625 66.265625 
L 4.78125 68.359375 
Q 11.078125 68.171875 17.046875 68.171875 
Q 21.921875 68.171875 26.453125 68.40625 
Q 31 68.65625 35.796875 68.65625 
Q 52.875 68.65625 61.46875 60.859375 
Q 70.0625 53.078125 70.0625 37.75 
Q 70.0625 19.671875 60.515625 9.6875 
Q 50.984375 -0.296875 33.734375 -0.296875 
Q 29 -0.296875 25.28125 -0.140625 
Q 21.578125 0 17.09375 0 
z
M 21.78125 4.34375 
Q 24.65625 3.953125 27.40625 3.828125 
Q 30.171875 3.71875 32.953125 3.71875 
Q 45.84375 3.71875 52.578125 11.296875 
Q 59.328125 18.890625 59.328125 34.578125 
Q 59.328125 49.8125 52.921875 57.15625 
Q 46.53125 64.5 32.671875 64.5 
Q 30.46875 64.5 27.796875 64.40625 
Q 25.140625 64.3125 21.78125 64.0625 
z
" id="Constantia-68"/>
      <path d="M 2.484375 70.125 
Q 10.453125 71.6875 18.40625 73.578125 
L 18.84375 73.1875 
Q 18.609375 68.609375 18.578125 60.109375 
Q 18.5625 51.609375 18.5625 40.921875 
Q 27.046875 46.390625 34.375 46.390625 
Q 41.15625 46.390625 45.15625 42.59375 
Q 49.171875 38.8125 49.171875 31.5 
L 49.171875 14.265625 
Q 49.171875 8.640625 49.265625 5.21875 
Q 49.3125 3.953125 50.484375 3.515625 
L 55.953125 1.859375 
L 56.0625 -0.140625 
Q 49.609375 0 44.828125 0 
Q 40.046875 0 34.1875 -0.140625 
L 33.984375 1.859375 
L 38.8125 3.265625 
Q 39.984375 3.65625 40.09375 4.78125 
Q 40.140625 5.46875 40.140625 7.859375 
L 40.140625 29.15625 
Q 40.140625 35.15625 37.25 37.765625 
Q 34.375 40.375 28.765625 40.375 
Q 23.921875 40.375 18.5625 38.03125 
L 18.5625 16.109375 
Q 18.5625 10.0625 18.65625 5.03125 
Q 18.703125 3.65625 19.875 3.328125 
L 24.953125 1.859375 
L 25.046875 -0.140625 
Q 18.890625 0 14.109375 0 
Q 9.328125 0 2.78125 -0.140625 
L 2.59375 1.859375 
L 8.109375 3.46875 
Q 9.375 3.859375 9.421875 5.03125 
Q 9.515625 9.71875 9.515625 17 
L 9.515625 37.40625 
Q 9.515625 47.359375 9.484375 55.03125 
Q 9.46875 62.703125 9.328125 66.546875 
L 2.734375 68.5 
z
" id="Constantia-104"/>
      <path d="M 27.875 41.453125 
Q 25.046875 42.234375 21.734375 42.234375 
Q 17.140625 42.234375 14.328125 40.453125 
Q 11.53125 38.671875 11.53125 35.59375 
Q 11.53125 32.625 13.359375 30.90625 
Q 15.1875 29.203125 20.171875 27.546875 
L 24.171875 26.171875 
Q 30.90625 23.875 34.046875 20.921875 
Q 37.203125 17.96875 37.203125 13.1875 
Q 37.203125 6.390625 31.921875 2.5 
Q 26.65625 -1.375 18.609375 -1.375 
Q 11.1875 -1.375 3.421875 1.65625 
Q 5.078125 8.015625 6.109375 14.0625 
L 8.015625 14.359375 
L 11.53125 3.859375 
Q 14.3125 2.78125 18.609375 2.78125 
Q 23.140625 2.78125 25.84375 4.640625 
Q 28.5625 6.5 28.5625 9.859375 
Q 28.5625 12.984375 26.734375 14.796875 
Q 24.90625 16.609375 20.90625 17.921875 
L 15.828125 19.625 
Q 9.234375 21.828125 6.71875 24.921875 
Q 4.203125 28.03125 4.203125 32.625 
Q 4.203125 39.015625 9.0625 42.703125 
Q 13.921875 46.390625 21.875 46.390625 
Q 29.296875 46.390625 35.359375 44.234375 
Q 33.984375 38.671875 32.859375 32.46875 
L 31 32.125 
z
" id="Constantia-115"/>
     </defs>
     <use xlink:href="#Constantia-84"/>
     <use x="52.578125" xlink:href="#Constantia-111"/>
     <use x="106.630859" xlink:href="#Constantia-116"/>
     <use x="141.933594" xlink:href="#Constantia-97"/>
     <use x="189.931641" xlink:href="#Constantia-108"/>
     <use x="218.007812" xlink:href="#Constantia-68"/>
     <use x="293.105469" xlink:href="#Constantia-101"/>
     <use x="341.005859" xlink:href="#Constantia-97"/>
     <use x="389.003906" xlink:href="#Constantia-116"/>
     <use x="424.306641" xlink:href="#Constantia-104"/>
     <use x="482.265625" xlink:href="#Constantia-115"/>
    </g>
   </g>
   <g id="text_3">
    <!-- North america Closed Cases Ratio -->
    <g transform="translate(172.129844 25.594531)scale(0.25 -0.25)">
     <defs>
      <path d="M 17.484375 5.8125 
Q 17.53125 4.390625 18.703125 4.109375 
L 24.953125 2.390625 
L 25.09375 -0.140625 
Q 18.5 0 14.265625 0 
Q 10.0625 0 3.265625 -0.140625 
L 3.03125 2.296875 
L 9.578125 4.109375 
Q 10.84375 4.5 10.890625 5.609375 
Q 10.984375 9.578125 10.984375 15.328125 
L 10.984375 54.25 
Q 10.984375 59.125 10.890625 62.359375 
Q 10.84375 63.625 9.71875 63.96875 
L 3.171875 65.875 
L 3.03125 68.359375 
Q 9.859375 68.171875 13.53125 68.171875 
Q 18.3125 68.171875 22.609375 68.359375 
L 55.078125 27.6875 
Q 57.03125 25.25 59.078125 22.515625 
Q 58.984375 25.875 58.984375 29 
L 58.984375 54.4375 
Q 58.984375 59.1875 58.890625 62.59375 
Q 58.84375 63.71875 57.625 64.0625 
L 51.375 65.765625 
L 51.21875 68.359375 
Q 57.953125 68.171875 62.15625 68.171875 
Q 66.453125 68.171875 73.046875 68.359375 
L 73.296875 65.875 
L 66.65625 63.96875 
Q 65.53125 63.625 65.484375 62.359375 
Q 65.328125 59.125 65.328125 54.25 
L 65.328125 0 
L 59.71875 -0.53125 
L 21.234375 47.65625 
Q 19.53125 49.859375 17.28125 52.875 
Q 17.390625 49.265625 17.390625 46.234375 
L 17.390625 15.328125 
Q 17.390625 9.578125 17.484375 5.8125 
z
" id="Constantia-Bold-78"/>
      <path d="M 19.046875 23.1875 
Q 19.046875 14.3125 21.703125 8.765625 
Q 24.359375 3.21875 30.21875 3.21875 
Q 35.6875 3.21875 38.25 8.09375 
Q 40.828125 12.984375 40.828125 22.609375 
Q 40.828125 31.640625 38.109375 36.84375 
Q 35.40625 42.046875 29.640625 42.046875 
Q 24.265625 42.046875 21.65625 37.359375 
Q 19.046875 32.671875 19.046875 23.1875 
z
M 55.953125 23.578125 
Q 55.953125 12.453125 48.53125 5.53125 
Q 41.109375 -1.375 29.203125 -1.375 
Q 17.625 -1.375 10.734375 5.140625 
Q 3.859375 11.671875 3.859375 22.21875 
Q 3.859375 32.90625 11.078125 39.765625 
Q 18.3125 46.625 30.609375 46.625 
Q 42.28125 46.625 49.109375 40.296875 
Q 55.953125 33.984375 55.953125 23.578125 
z
" id="Constantia-Bold-111"/>
      <path d="M 2.296875 43.0625 
Q 13.578125 44.734375 22.90625 46.78125 
L 23.640625 46.390625 
L 23.640625 41.109375 
Q 32.28125 46.625 41.703125 46.625 
L 41.9375 46.296875 
Q 40.375 38.53125 38.96875 29.6875 
L 36.140625 29.203125 
Q 34.859375 34.03125 33.640625 36.609375 
Q 32.421875 39.203125 29.828125 39.203125 
Q 27.34375 39.203125 23.640625 37.546875 
L 23.640625 16.609375 
Q 23.640625 9.03125 23.734375 5.765625 
Q 23.78125 4.390625 24.953125 4.046875 
L 31.9375 2.203125 
L 32.078125 -0.140625 
Q 23.96875 0 16.609375 0 
Q 9.578125 0 2.546875 -0.140625 
L 2.296875 2.203125 
L 8.5 3.90625 
Q 9.671875 4.25 9.71875 5.375 
Q 9.765625 7.46875 9.765625 11.375 
L 9.765625 27.6875 
Q 9.765625 35.640625 9.578125 39.265625 
L 2.59375 41.0625 
z
" id="Constantia-Bold-114"/>
      <path d="M 22.125 39.546875 
Q 21.828125 24.3125 21.828125 13.71875 
Q 21.828125 8.796875 23.34375 6.90625 
Q 24.859375 5.03125 29.15625 5.03125 
Q 32.46875 5.03125 36.375 5.421875 
L 36.765625 2.484375 
Q 29 -1.3125 22.265625 -1.3125 
Q 15.4375 -1.3125 11.6875 1.53125 
Q 7.953125 4.390625 7.953125 10.15625 
Q 7.953125 20.3125 8.25 39.796875 
L 1.65625 41.5 
L 1.21875 44.140625 
L 9.375 44.875 
L 14.015625 56.34375 
Q 18.171875 57.078125 21.578125 57.765625 
L 22.265625 57.421875 
Q 22.125 51.515625 22.125 44.875 
L 35.796875 44.875 
L 35.796875 39.546875 
z
" id="Constantia-Bold-116"/>
      <path d="M 39.703125 46.625 
Q 46.828125 46.625 50.875 42.75 
Q 54.9375 38.875 54.9375 31.734375 
L 54.9375 14.59375 
Q 54.9375 8.5 55.03125 5.5625 
Q 55.078125 4.25 56.296875 3.90625 
L 62.203125 2.203125 
L 62.359375 -0.140625 
Q 55.375 0 48.296875 0 
Q 40.96875 0 35.109375 -0.140625 
L 34.90625 2.203125 
L 39.796875 3.65625 
Q 40.921875 4 41.015625 5.125 
Q 41.0625 5.859375 41.0625 8.203125 
L 41.0625 28.65625 
Q 41.0625 34.671875 38.71875 37.28125 
Q 36.375 39.890625 31.734375 39.890625 
Q 27.6875 39.890625 23.390625 38.03125 
L 23.390625 16.546875 
Q 23.390625 10.453125 23.484375 5.375 
Q 23.53125 4.046875 24.609375 3.765625 
L 29.6875 2.203125 
L 29.78125 -0.140625 
Q 23.734375 0 16.609375 0 
Q 9.328125 0 2.296875 -0.140625 
L 2.046875 2.203125 
L 8.34375 3.90625 
Q 9.421875 4.203125 9.46875 5.375 
Q 9.515625 8.5 9.515625 11.375 
L 9.515625 54.109375 
Q 9.515625 60.5 9.328125 65.875 
L 2.15625 67.828125 
L 1.859375 69.828125 
Q 14.0625 71.625 23.140625 73.578125 
L 23.6875 73.1875 
Q 23.390625 66.453125 23.390625 58.84375 
L 23.390625 41.703125 
Q 31.640625 46.625 39.703125 46.625 
z
" id="Constantia-Bold-104"/>
      <path id="Constantia-Bold-32"/>
      <path d="M 31 21.734375 
Q 23.34375 21.734375 20.0625 19.78125 
Q 16.796875 17.828125 16.796875 13.09375 
Q 16.796875 8.796875 19.109375 6.953125 
Q 21.4375 5.125 24.609375 5.125 
Q 28.21875 5.125 30.90625 6.984375 
z
M 7.125 41.890625 
Q 17.53125 46.625 27.15625 46.625 
Q 35.9375 46.625 40.296875 42.6875 
Q 44.671875 38.765625 44.625 31.390625 
L 44.390625 11.078125 
Q 44.28125 8.59375 44.46875 7.078125 
Q 44.671875 5.5625 45.375 4.75 
Q 46.09375 3.953125 47.484375 3.609375 
Q 48.875 3.265625 51.515625 3.21875 
L 51.8125 0.984375 
Q 44.96875 -1.375 40.046875 -1.375 
Q 33.40625 -1.375 31.296875 3.859375 
Q 25.09375 -1.375 18.171875 -1.375 
Q 11.375 -1.375 6.984375 2.015625 
Q 2.59375 5.421875 2.59375 11.578125 
Q 2.59375 19.234375 9.6875 22.796875 
Q 16.796875 26.375 31 26.375 
L 31.0625 30.03125 
Q 31.109375 35.25 28.546875 37.71875 
Q 25.984375 40.1875 20.5625 40.1875 
Q 15.53125 40.1875 8.5 37.984375 
z
" id="Constantia-Bold-97"/>
      <path d="M 84.8125 14.59375 
Q 84.8125 8.5 84.90625 5.5625 
Q 84.96875 4.25 86.1875 3.90625 
L 92.09375 2.203125 
L 92.234375 -0.140625 
Q 85.25 0 78.171875 0 
Q 70.84375 0 65.28125 -0.140625 
L 65.046875 2.203125 
L 69.671875 3.65625 
Q 70.796875 4 70.90625 5.125 
Q 70.953125 5.859375 70.953125 8.203125 
L 70.953125 28.65625 
Q 70.953125 34.671875 68.71875 37.28125 
Q 66.5 39.890625 62.0625 39.890625 
Q 58.0625 39.890625 53.5625 37.0625 
Q 54.25 34.671875 54.25 31.734375 
L 54.25 14.59375 
Q 54.25 8.5 54.34375 5.375 
Q 54.390625 4.046875 55.46875 3.765625 
L 60.359375 2.203125 
L 60.453125 -0.140625 
Q 54.6875 0 47.609375 0 
Q 40.28125 0 34.71875 -0.140625 
L 34.515625 2.203125 
L 39.109375 3.65625 
Q 40.234375 4 40.328125 5.125 
Q 40.375 5.859375 40.375 8.203125 
L 40.375 28.65625 
Q 40.375 34.671875 38.15625 37.28125 
Q 35.9375 39.890625 31.546875 39.890625 
Q 27.734375 39.890625 23.640625 37.546875 
L 23.640625 16.546875 
Q 23.640625 10.453125 23.734375 5.375 
Q 23.78125 4.046875 24.859375 3.765625 
L 29.734375 2.203125 
L 29.828125 -0.140625 
Q 23.96875 0 16.84375 0 
Q 9.578125 0 2.546875 -0.140625 
L 2.296875 2.203125 
L 8.59375 3.90625 
Q 9.671875 4.203125 9.71875 5.375 
Q 9.765625 8.5 9.765625 11.375 
L 9.765625 27.4375 
Q 9.765625 33.84375 9.578125 39.265625 
L 2.59375 41.0625 
L 2.296875 43.0625 
Q 13.578125 44.734375 22.90625 46.78125 
L 23.640625 46.390625 
L 23.640625 41.15625 
Q 31.640625 46.625 39.453125 46.625 
Q 48.34375 46.625 52.296875 40.1875 
Q 61.375 46.625 70.015625 46.625 
Q 76.90625 46.625 80.859375 42.75 
Q 84.8125 38.875 84.8125 31.734375 
z
" id="Constantia-Bold-109"/>
      <path d="M 49.90625 3.21875 
Q 40.875 -1.375 30.859375 -1.375 
Q 18.953125 -1.375 11.40625 4.515625 
Q 3.859375 10.40625 3.859375 21.875 
Q 3.859375 32.8125 11.109375 39.71875 
Q 18.359375 46.625 29.59375 46.625 
Q 39.40625 46.625 44.75 41.328125 
Q 50.09375 36.03125 50.09375 26.703125 
Q 50.09375 25.296875 49.953125 23.78125 
L 18.75 23.78125 
Q 18.75 13.96875 23.5625 9.671875 
Q 28.375 5.375 39.359375 5.375 
Q 44.671875 5.375 49.515625 6.296875 
z
M 35.25 28.515625 
L 35.25 29.6875 
Q 35.25 36.328125 33.5625 39.203125 
Q 31.890625 42.09375 28.421875 42.09375 
Q 24.265625 42.09375 21.796875 38.109375 
Q 19.34375 34.125 18.953125 28.515625 
z
" id="Constantia-Bold-101"/>
      <path d="M 23.78125 62.984375 
Q 23.78125 59.625 21.609375 57.515625 
Q 19.4375 55.421875 15.921875 55.421875 
Q 12.703125 55.421875 10.625 57.390625 
Q 8.546875 59.375 8.546875 62.546875 
Q 8.546875 66.015625 10.734375 68.015625 
Q 12.9375 70.015625 16.453125 70.015625 
Q 19.671875 70.015625 21.71875 68.1875 
Q 23.78125 66.359375 23.78125 62.984375 
z
M 2.296875 43.0625 
Q 14.3125 44.875 23.390625 46.828125 
L 23.921875 46.4375 
Q 23.640625 39.703125 23.640625 32.078125 
L 23.640625 13.671875 
Q 23.640625 7.859375 23.734375 5.5625 
Q 23.828125 4.25 24.953125 3.90625 
L 31.0625 2.203125 
L 31.203125 -0.140625 
Q 23.96875 0 16.84375 0 
Q 9.578125 0 2.484375 -0.140625 
L 2.25 2.203125 
L 8.453125 3.90625 
Q 9.578125 4.203125 9.671875 5.375 
Q 9.765625 7.28125 9.765625 11.765625 
L 9.765625 27.484375 
Q 9.765625 33.890625 9.578125 39.265625 
L 2.59375 41.0625 
z
" id="Constantia-Bold-105"/>
      <path d="M 45.015625 3.21875 
Q 36.921875 -1.375 28.265625 -1.375 
Q 17.578125 -1.375 10.6875 4.828125 
Q 3.8125 11.03125 3.8125 21.390625 
Q 3.8125 32.671875 11.296875 39.640625 
Q 18.796875 46.625 30.421875 46.625 
Q 37.796875 46.625 44.625 43.84375 
Q 42.875 36.96875 41.546875 29.390625 
L 38.875 28.953125 
L 35.109375 41.15625 
Q 33.796875 41.65625 31.546875 41.65625 
Q 25.984375 41.65625 22.40625 36.796875 
Q 18.84375 31.9375 18.84375 23.78125 
Q 18.84375 14.265625 23.359375 9.734375 
Q 27.875 5.21875 36.234375 5.21875 
Q 40.234375 5.21875 44.625 6.15625 
z
" id="Constantia-Bold-99"/>
      <path d="M 58.5 49.90625 
L 55.8125 49.46875 
L 52.09375 63.484375 
Q 48.25 64.703125 43.75 64.703125 
Q 32.953125 64.703125 27.046875 56.609375 
Q 21.140625 48.53125 21.140625 35.453125 
Q 21.140625 21.484375 28.09375 13.1875 
Q 35.0625 4.890625 47.40625 4.890625 
Q 54.296875 4.890625 61.921875 7.671875 
L 62.546875 4.890625 
Q 52.78125 -1.765625 40.484375 -1.765625 
Q 24.515625 -1.765625 14.671875 7.859375 
Q 4.828125 17.484375 4.828125 33.203125 
Q 4.828125 49.953125 15.625 59.71875 
Q 26.421875 69.484375 43.796875 69.484375 
Q 52.390625 69.484375 61.375 67.484375 
L 61.671875 67 
z
" id="Constantia-Bold-67"/>
      <path d="M 1.859375 69.828125 
Q 14.0625 71.625 23.140625 73.578125 
L 23.6875 73.1875 
Q 23.390625 66.453125 23.390625 58.84375 
L 23.390625 13.671875 
Q 23.390625 7.859375 23.484375 5.5625 
Q 23.578125 4.25 24.703125 3.90625 
L 30.8125 2.203125 
L 30.953125 -0.140625 
Q 23.734375 0 16.609375 0 
Q 9.328125 0 2.25 -0.140625 
L 2 2.203125 
L 8.203125 3.90625 
Q 9.328125 4.203125 9.421875 5.375 
Q 9.515625 7.28125 9.515625 11.765625 
L 9.515625 54.109375 
Q 9.515625 60.5 9.328125 65.875 
L 2.15625 67.828125 
z
" id="Constantia-Bold-108"/>
      <path d="M 31.9375 41.109375 
Q 28.859375 41.84375 25.296875 41.84375 
Q 20.84375 41.84375 18.03125 40.28125 
Q 15.234375 38.71875 15.234375 35.84375 
Q 15.234375 33.640625 16.453125 32.4375 
Q 17.671875 31.25 20.65625 30.21875 
L 28.46875 27.484375 
Q 35.453125 25.09375 38.671875 21.703125 
Q 41.890625 18.3125 41.890625 13.765625 
Q 41.890625 6.59375 35.859375 2.609375 
Q 29.828125 -1.375 20.015625 -1.375 
Q 11.8125 -1.375 3.90625 2 
Q 5.5625 8.546875 6.640625 14.703125 
L 9.125 15.09375 
L 12.640625 4.4375 
Q 15.625 3.421875 20.125 3.421875 
Q 24.359375 3.421875 27 5.03125 
Q 29.640625 6.640625 29.640625 9.515625 
Q 29.640625 11.921875 28.046875 13.546875 
Q 26.46875 15.1875 21.734375 16.796875 
L 15.765625 18.84375 
Q 10.0625 20.84375 7.171875 24.046875 
Q 4.296875 27.25 4.296875 31.890625 
Q 4.296875 39.015625 9.90625 42.8125 
Q 15.53125 46.625 25.390625 46.625 
Q 33.5 46.625 40.046875 44.234375 
Q 38.578125 37.84375 37.546875 32.125 
L 34.859375 31.734375 
z
" id="Constantia-Bold-115"/>
      <path d="M 38.421875 40.578125 
Q 35.796875 41.5 32.515625 41.5 
Q 25.828125 41.5 22.3125 36.890625 
Q 18.796875 32.28125 18.796875 23 
Q 18.796875 14.9375 21.921875 10.109375 
Q 25.046875 5.28125 30.71875 5.28125 
Q 34.90625 5.28125 38.421875 7.078125 
z
M 30.71875 69.828125 
Q 42.625 71.625 52 73.578125 
L 52.59375 73.1875 
Q 52.25 62.75 52.25 50.734375 
L 52.25 24.171875 
Q 52.25 17.78125 52.296875 10.984375 
Q 52.296875 8.5 52.484375 6.984375 
Q 52.6875 5.46875 53.34375 4.65625 
Q 54 3.859375 55.359375 3.5625 
Q 56.734375 3.265625 59.375 3.21875 
L 59.671875 1.078125 
Q 52.546875 -1.375 47.515625 -1.375 
Q 40.96875 -1.375 38.921875 3.953125 
Q 32.515625 -1.375 24.75 -1.375 
Q 15.09375 -1.375 9.46875 5 
Q 3.859375 11.375 3.859375 20.953125 
Q 3.859375 33.15625 11.109375 39.8125 
Q 18.359375 46.484375 31.390625 46.484375 
Q 34.625 46.484375 38.421875 45.953125 
Q 38.421875 56.25 38.234375 65.875 
L 31.0625 67.828125 
z
" id="Constantia-Bold-100"/>
      <path d="M 26.703125 15.328125 
Q 26.703125 12.40625 26.734375 10.078125 
Q 26.765625 7.765625 26.8125 5.859375 
Q 26.859375 4.296875 27.9375 3.953125 
L 33.015625 2.296875 
L 33.15625 -0.140625 
Q 27.734375 0 19.734375 0 
Q 11.1875 0 4.5 -0.140625 
L 4.25 2.296875 
L 10.796875 4.109375 
Q 12.015625 4.4375 12.109375 5.609375 
Q 12.15625 7.5625 12.171875 9.984375 
Q 12.203125 12.40625 12.203125 15.328125 
L 12.203125 54.25 
Q 12.203125 56.6875 12.171875 58.6875 
Q 12.15625 60.6875 12.109375 62.359375 
Q 12.0625 63.625 10.9375 63.96875 
L 4.390625 65.875 
L 4.25 68.359375 
Q 11.078125 68.171875 18.265625 68.171875 
Q 19.78125 68.171875 22.015625 68.234375 
Q 24.265625 68.3125 27.484375 68.40625 
Q 30.421875 68.5 32.390625 68.546875 
Q 34.375 68.609375 35.5 68.609375 
Q 48.046875 68.609375 54.3125 64.40625 
Q 60.59375 60.203125 60.59375 52.15625 
Q 60.59375 44.875 56.765625 40.40625 
Q 52.9375 35.9375 45.515625 33.546875 
Q 49.609375 27.484375 51.828125 23.71875 
Q 54.046875 19.96875 56.296875 16.328125 
Q 58.546875 12.703125 60.375 9.90625 
Q 62.203125 7.125 63.8125 5.515625 
Q 64.703125 4.78125 65.5 4.25 
Q 66.3125 3.71875 67.1875 3.328125 
Q 68.0625 2.9375 69.0625 2.65625 
Q 70.0625 2.390625 71.296875 2.15625 
L 71.484375 -0.34375 
Q 66.703125 -1.03125 60.546875 -1.03125 
Q 55.671875 -1.03125 53.71875 -0.390625 
Q 51.765625 0.25 50.25 1.421875 
Q 48 3.171875 46.109375 6 
Q 44.234375 8.84375 42.140625 12.40625 
Q 40.046875 15.96875 37.8125 19.96875 
Q 35.59375 23.96875 33.15625 27.875 
Q 32.421875 29 31.953125 29.734375 
Q 31.5 30.46875 31.03125 30.828125 
Q 30.5625 31.203125 30.046875 31.375 
Q 29.546875 31.546875 28.765625 31.59375 
L 26.703125 31.640625 
z
M 26.703125 35.890625 
Q 29.296875 35.75 31.390625 35.75 
Q 38.328125 35.75 41.546875 39.234375 
Q 44.78125 42.71875 44.78125 50.140625 
Q 44.78125 57.328125 41.671875 60.625 
Q 38.578125 63.921875 32.03125 63.921875 
Q 30.90625 63.921875 29.609375 63.8125 
Q 28.328125 63.71875 26.703125 63.53125 
z
" id="Constantia-Bold-82"/>
     </defs>
     <use xlink:href="#Constantia-Bold-78"/>
     <use x="74.085938" xlink:href="#Constantia-Bold-111"/>
     <use x="133.949219" xlink:href="#Constantia-Bold-114"/>
     <use x="177.357422" xlink:href="#Constantia-Bold-116"/>
     <use x="216.322266" xlink:href="#Constantia-Bold-104"/>
     <use x="280.042969" xlink:href="#Constantia-Bold-32"/>
     <use x="301.59375" xlink:href="#Constantia-Bold-97"/>
     <use x="355.158203" xlink:href="#Constantia-Bold-109"/>
     <use x="448.761719" xlink:href="#Constantia-Bold-101"/>
     <use x="502.521484" xlink:href="#Constantia-Bold-114"/>
     <use x="545.929688" xlink:href="#Constantia-Bold-105"/>
     <use x="579.083984" xlink:href="#Constantia-Bold-99"/>
     <use x="627.521484" xlink:href="#Constantia-Bold-97"/>
     <use x="681.085938" xlink:href="#Constantia-Bold-32"/>
     <use x="705.011719" xlink:href="#Constantia-Bold-67"/>
     <use x="770.978516" xlink:href="#Constantia-Bold-108"/>
     <use x="803.888672" xlink:href="#Constantia-Bold-111"/>
     <use x="863.751953" xlink:href="#Constantia-Bold-115"/>
     <use x="909.40625" xlink:href="#Constantia-Bold-101"/>
     <use x="963.166016" xlink:href="#Constantia-Bold-100"/>
     <use x="1025.177734" xlink:href="#Constantia-Bold-32"/>
     <use x="1049.103516" xlink:href="#Constantia-Bold-67"/>
     <use x="1115.070312" xlink:href="#Constantia-Bold-97"/>
     <use x="1168.634766" xlink:href="#Constantia-Bold-115"/>
     <use x="1214.289062" xlink:href="#Constantia-Bold-101"/>
     <use x="1268.048828" xlink:href="#Constantia-Bold-115"/>
     <use x="1313.703125" xlink:href="#Constantia-Bold-32"/>
     <use x="1337.628906" xlink:href="#Constantia-Bold-82"/>
     <use x="1408.136719" xlink:href="#Constantia-Bold-97"/>
     <use x="1461.701172" xlink:href="#Constantia-Bold-116"/>
     <use x="1500.666016" xlink:href="#Constantia-Bold-105"/>
     <use x="1533.820312" xlink:href="#Constantia-Bold-111"/>
    </g>
   </g>
   <g id="legend_1">
    <g id="patch_4">
     <path d="M 745.485469 427.199766 
L 890.144844 427.199766 
L 890.144844 362.274766 
L 745.485469 362.274766 
z
" style="fill:#ffffff;stroke:#000000;stroke-linejoin:miter;"/>
    </g>
    <g id="patch_5">
     <path d="M 753.485469 384.990391 
L 793.485469 384.990391 
L 793.485469 370.990391 
L 753.485469 370.990391 
z
" style="fill:#2ca02c;stroke:#000000;stroke-linejoin:miter;"/>
    </g>
    <g id="text_4">
     <!-- 97.034% -->
     <g transform="translate(809.485469 384.990391)scale(0.2 -0.2)">
      <defs>
       <path d="M 8.640625 -19 
Q 20.90625 -16.796875 28.984375 -9.671875 
Q 37.0625 -2.546875 40.375 10.109375 
L 40.28125 10.15625 
Q 34.578125 3.65625 25.4375 3.65625 
Q 16.3125 3.65625 10.234375 9.484375 
Q 4.15625 15.328125 4.15625 24.3125 
Q 4.15625 33.6875 10.796875 40.03125 
Q 17.4375 46.390625 27.046875 46.390625 
Q 37.546875 46.390625 44.265625 38.75 
Q 50.984375 31.109375 50.984375 19.1875 
Q 50.984375 2.828125 39.578125 -8.59375 
Q 28.171875 -20.015625 9.328125 -22.46875 
z
M 14.0625 27.25 
Q 14.0625 18.5625 18.015625 13.28125 
Q 21.96875 8.015625 28.125 8.015625 
Q 34.234375 8.015625 37.453125 11.9375 
Q 40.671875 15.875 40.671875 22.90625 
Q 40.671875 31.453125 36.421875 37.15625 
Q 32.171875 42.875 26.21875 42.875 
Q 20.953125 42.875 17.5 38.640625 
Q 14.0625 34.421875 14.0625 27.25 
z
" id="Constantia-57"/>
       <path d="M 10.9375 -19.671875 
L 39.5 37.546875 
L 8.296875 37.546875 
L 5.46875 27.875 
L 3.515625 27.546875 
L 2.6875 44.921875 
L 3.03125 45.3125 
Q 8.796875 45.21875 14.265625 45.171875 
Q 19.734375 45.125 25 45.125 
L 27.734375 45.125 
Q 33.015625 45.125 37.84375 45.171875 
Q 42.671875 45.21875 47.171875 45.3125 
L 47.359375 43.21875 
Q 44.828125 37.984375 42.265625 32.46875 
Q 39.703125 26.953125 37.234375 21.3125 
Q 34.765625 15.671875 32.421875 10.125 
Q 30.078125 4.59375 28.03125 -0.65625 
Q 25.984375 -5.90625 24.25 -10.6875 
Q 22.515625 -15.484375 21.234375 -19.53125 
L 11.1875 -20.015625 
z
" id="Constantia-55"/>
       <path d="M 13.09375 10.25 
Q 15.625 10.25 17.25 8.65625 
Q 18.890625 7.078125 18.890625 4.5 
Q 18.890625 1.90625 17.25 0.265625 
Q 15.625 -1.375 13.09375 -1.375 
Q 10.40625 -1.375 8.78125 0.265625 
Q 7.171875 1.90625 7.171875 4.5 
Q 7.171875 7.078125 8.78125 8.65625 
Q 10.40625 10.25 13.09375 10.25 
z
" id="Constantia-46"/>
       <path d="M 13.671875 23.296875 
Q 13.671875 13.625 17.15625 8.109375 
Q 20.65625 2.59375 27.203125 2.59375 
Q 33.84375 2.59375 37.015625 7.515625 
Q 40.1875 12.453125 40.1875 22.609375 
Q 40.1875 32.5625 36.71875 37.609375 
Q 33.25 42.671875 26.65625 42.671875 
Q 19.921875 42.671875 16.796875 37.84375 
Q 13.671875 33.015625 13.671875 23.296875 
z
M 49.953125 23.6875 
Q 49.953125 12.25 43.4375 5.484375 
Q 36.921875 -1.265625 26.421875 -1.265625 
Q 16.3125 -1.265625 10.109375 4.9375 
Q 3.90625 11.140625 3.90625 22.015625 
Q 3.90625 33.203125 10.390625 39.796875 
Q 16.890625 46.390625 27.484375 46.390625 
Q 37.796875 46.390625 43.875 40.375 
Q 49.953125 34.375 49.953125 23.6875 
z
" id="Constantia-48"/>
       <path d="M 10.25 16.21875 
Q 19 17.140625 24.265625 20.75 
Q 29.546875 24.359375 29.546875 30.125 
Q 29.546875 34.71875 26.09375 37.59375 
Q 22.65625 40.484375 17.390625 40.484375 
Q 10.5 40.484375 3.46875 36.8125 
L 1.46875 40.046875 
Q 11.140625 46.390625 21.34375 46.390625 
Q 28.90625 46.390625 34.078125 42.75 
Q 39.265625 39.109375 39.265625 33.203125 
Q 39.265625 22.359375 23.25 17 
L 23.25 16.796875 
Q 32.421875 16.453125 37.5625 12.15625 
Q 42.71875 7.859375 42.71875 1.609375 
Q 42.71875 -8.5 31.96875 -15.140625 
Q 21.234375 -21.78125 1.03125 -22.46875 
L 0.484375 -18.84375 
Q 16.546875 -17.78125 24.53125 -12.625 
Q 32.515625 -7.46875 32.515625 0.25 
Q 32.515625 6.296875 28.359375 9.765625 
Q 24.21875 13.234375 16.84375 13.234375 
Q 13.96875 13.234375 10.59375 12.640625 
z
" id="Constantia-51"/>
       <path d="M 30.953125 35.015625 
Q 25.4375 28.8125 19.890625 21.78125 
Q 14.359375 14.75 8.984375 7.28125 
L 30.953125 7.28125 
z
M 39.984375 -5.71875 
Q 39.984375 -12.546875 40.234375 -19.53125 
Q 35.546875 -20.015625 31.34375 -20.796875 
L 30.859375 -20.40625 
Q 30.953125 -13.578125 30.953125 -6.5 
L 30.953125 2.4375 
L 18.796875 2.4375 
Q 12.109375 2.4375 2.546875 2.296875 
L 2.203125 5.859375 
Q 9.90625 16.0625 18.078125 26.234375 
Q 26.265625 36.421875 34.578125 46.046875 
L 40.28125 46.390625 
Q 39.984375 35.453125 39.984375 25.984375 
L 39.984375 7.28125 
L 51.171875 7.28125 
L 51.375 2.296875 
Q 46 2.4375 39.984375 2.4375 
z
" id="Constantia-52"/>
       <path d="M 10.421875 51.921875 
Q 10.421875 43.03125 12.5625 38.3125 
Q 14.71875 33.609375 18.96875 33.609375 
Q 22.921875 33.609375 25.015625 37.65625 
Q 27.125 41.71875 27.125 51.34375 
Q 27.125 60.421875 24.921875 64.765625 
Q 22.71875 69.109375 18.578125 69.109375 
Q 14.625 69.109375 12.515625 65.265625 
Q 10.421875 61.4375 10.421875 51.921875 
z
M 34.59375 52.265625 
Q 34.59375 41.859375 30.015625 36.3125 
Q 25.453125 30.78125 18.375 30.78125 
Q 11.4375 30.78125 7.1875 35.953125 
Q 2.953125 41.125 2.953125 50.890625 
Q 2.953125 61 7.390625 66.46875 
Q 11.828125 71.9375 19.15625 71.9375 
Q 26.140625 71.9375 30.359375 66.984375 
Q 34.59375 62.03125 34.59375 52.265625 
z
M 16.78125 0 
L 62.984375 72.125 
L 66.640625 69.828125 
L 20.40625 -2.296875 
z
M 55.796875 19.921875 
Q 55.796875 11.03125 57.9375 6.3125 
Q 60.09375 1.609375 64.34375 1.609375 
Q 68.296875 1.609375 70.390625 5.65625 
Q 72.5 9.71875 72.5 19.34375 
Q 72.5 28.421875 70.296875 32.765625 
Q 68.09375 37.109375 63.953125 37.109375 
Q 60 37.109375 57.890625 33.265625 
Q 55.796875 29.4375 55.796875 19.921875 
z
M 79.96875 20.265625 
Q 79.96875 9.859375 75.390625 4.3125 
Q 70.828125 -1.21875 63.75 -1.21875 
Q 56.8125 -1.21875 52.5625 3.953125 
Q 48.328125 9.125 48.328125 18.890625 
Q 48.328125 29 52.765625 34.46875 
Q 57.203125 39.9375 64.53125 39.9375 
Q 71.515625 39.9375 75.734375 34.984375 
Q 79.96875 30.03125 79.96875 20.265625 
z
" id="Constantia-37"/>
      </defs>
      <use xlink:href="#Constantia-57"/>
      <use x="54.638672" xlink:href="#Constantia-55"/>
      <use x="102.978516" xlink:href="#Constantia-46"/>
      <use x="128.564453" xlink:href="#Constantia-48"/>
      <use x="182.421875" xlink:href="#Constantia-51"/>
      <use x="228.076172" xlink:href="#Constantia-52"/>
      <use x="281.152344" xlink:href="#Constantia-37"/>
     </g>
    </g>
    <g id="patch_6">
     <path d="M 753.485469 414.452891 
L 793.485469 414.452891 
L 793.485469 400.452891 
L 753.485469 400.452891 
z
" style="fill:#d62728;stroke:#000000;stroke-linejoin:miter;"/>
    </g>
    <g id="text_5">
     <!-- 2.966% -->
     <g transform="translate(809.485469 414.452891)scale(0.2 -0.2)">
      <defs>
       <path d="M 42.390625 15.484375 
L 44.53125 15.875 
L 43.5625 0.203125 
L 43.21875 -0.140625 
Q 33.25 0 22.359375 0 
Q 12.25 0 3.765625 -0.140625 
L 3.421875 3.859375 
Q 8.015625 6.84375 11.671875 9.375 
Q 15.328125 11.921875 18.015625 14.109375 
Q 20.703125 16.265625 22.75 18.21875 
Q 24.8125 20.171875 26.203125 22.09375 
Q 27.59375 24.03125 28.3125 26.03125 
Q 29.046875 28.03125 29.046875 30.21875 
Q 29.046875 34.71875 25.78125 37.34375 
Q 22.515625 39.984375 17.78125 39.984375 
Q 12.203125 39.984375 6.546875 36.96875 
L 4.6875 40.1875 
Q 13.8125 46.390625 23 46.390625 
Q 29.890625 46.390625 34.453125 43.046875 
Q 39.015625 39.703125 39.015625 33.734375 
Q 39.015625 30.03125 37.34375 26.828125 
Q 35.6875 23.640625 32.515625 20.5625 
Q 29.34375 17.484375 24.75 14.328125 
Q 20.171875 11.1875 14.265625 7.671875 
L 14.3125 7.421875 
L 38.578125 7.421875 
z
" id="Constantia-50"/>
       <path d="M 47.125 64.546875 
Q 32.03125 61.53125 24.515625 53.9375 
Q 17 46.34375 14.796875 35.25 
L 14.890625 35.203125 
Q 20.796875 41.65625 30.21875 41.65625 
Q 38.96875 41.65625 44.9375 35.796875 
Q 50.921875 29.9375 50.921875 20.90625 
Q 50.921875 11.328125 44.375 5.03125 
Q 37.84375 -1.265625 28.125 -1.265625 
Q 17.390625 -1.265625 10.75 6.5 
Q 4.109375 14.265625 4.109375 26.515625 
Q 4.109375 41.546875 14.453125 53.125 
Q 24.8125 64.703125 46.4375 68.015625 
z
M 41.109375 18.0625 
Q 41.109375 26.609375 37.15625 31.953125 
Q 33.203125 37.3125 27.046875 37.3125 
Q 21.4375 37.3125 17.921875 33.328125 
Q 14.40625 29.34375 14.40625 22.515625 
Q 14.40625 14.15625 18.5 8.203125 
Q 22.609375 2.25 28.953125 2.25 
Q 34.46875 2.25 37.78125 6.8125 
Q 41.109375 11.375 41.109375 18.0625 
z
" id="Constantia-54"/>
      </defs>
      <use xlink:href="#Constantia-50"/>
      <use x="48.4375" xlink:href="#Constantia-46"/>
      <use x="74.023438" xlink:href="#Constantia-57"/>
      <use x="128.662109" xlink:href="#Constantia-54"/>
      <use x="182.763672" xlink:href="#Constantia-54"/>
      <use x="236.865234" xlink:href="#Constantia-37"/>
     </g>
    </g>
   </g>
  </g>
 </g>
</svg>
