<?xml version="1.0" encoding="utf-8" standalone="no"?>
<!DOCTYPE svg PUBLIC "-//W3C//DTD SVG 1.1//EN"
  "http://www.w3.org/Graphics/SVG/1.1/DTD/svg11.dtd">
<!-- Created with matplotlib (https://matplotlib.org/) -->
<svg height="766.08pt" version="1.1" viewBox="0 0 1370.885982 766.08" width="1370.885982pt" xmlns="http://www.w3.org/2000/svg" xmlns:xlink="http://www.w3.org/1999/xlink">
 <metadata>
  <rdf:RDF xmlns:cc="http://creativecommons.org/ns#" xmlns:dc="http://purl.org/dc/elements/1.1/" xmlns:rdf="http://www.w3.org/1999/02/22-rdf-syntax-ns#">
   <cc:Work>
    <dc:type rdf:resource="http://purl.org/dc/dcmitype/StillImage"/>
    <dc:date>2020-11-05T11:09:14.263298</dc:date>
    <dc:format>image/svg+xml</dc:format>
    <dc:creator>
     <cc:Agent>
      <dc:title>Matplotlib v3.3.2, https://matplotlib.org/</dc:title>
     </cc:Agent>
    </dc:creator>
   </cc:Work>
  </rdf:RDF>
 </metadata>
 <defs>
  <style type="text/css">*{stroke-linecap:butt;stroke-linejoin:round;}</style>
 </defs>
 <g id="figure_1">
  <g id="patch_1">
   <path d="M 0 766.08 
L 1370.885982 766.08 
L 1370.885982 0 
L 0 0 
z
" style="fill:#ffffff;"/>
  </g>
  <g id="axes_1">
   <g id="patch_2">
    <path d="M 74.188125 669.832125 
L 1151.530515 669.832125 
L 1151.530515 38.9273 
L 74.188125 38.9273 
z
" style="fill:#ffffff;"/>
   </g>
   <g id="line2d_1">
    <path clip-path="url(#p52fb4c57c1)" d="M 74.188125 669.509663 
L 142.954661 669.460592 
L 188.799018 669.467602 
L 234.643375 669.474612 
L 246.104464 669.432552 
L 257.565553 669.418532 
L 269.026642 669.418532 
L 280.487732 669.418532 
L 314.870999 669.481622 
L 326.332089 669.481622 
L 337.793178 669.460592 
L 349.254267 669.425542 
L 360.715356 669.495642 
L 372.176446 669.488632 
L 383.637535 669.509663 
L 395.098624 669.523683 
L 406.559713 669.544713 
L 418.020803 669.558733 
L 429.481892 669.586773 
L 440.942981 669.565743 
L 452.40407 669.565743 
L 463.86516 669.593783 
L 475.326249 669.586773 
L 486.787338 669.544713 
L 498.248427 669.565743 
L 509.709517 669.586773 
L 521.170606 669.614813 
L 532.631695 669.649864 
L 544.092784 669.670894 
L 555.553874 669.656874 
L 567.014963 669.649864 
L 578.476052 669.663884 
L 589.937141 669.670894 
L 612.85932 669.670894 
L 624.320409 669.684914 
L 635.781499 669.705944 
L 647.242588 669.719964 
L 658.703677 669.698934 
L 670.164766 669.698934 
L 681.625856 669.698934 
L 693.086945 669.698934 
L 704.548034 669.670894 
L 716.009123 669.677904 
L 727.470213 669.684914 
L 738.931302 669.684914 
L 750.392391 669.677904 
L 761.85348 669.677904 
L 773.31457 669.705944 
L 784.775659 669.705944 
L 796.236748 669.705944 
L 807.697837 669.705944 
L 819.158927 669.740994 
L 830.620016 669.726974 
L 842.081105 669.748004 
L 853.542194 669.740994 
L 865.003284 669.762024 
L 887.925462 669.769035 
L 899.386551 669.762024 
L 910.847641 669.762024 
L 922.30873 669.762024 
L 933.769819 669.769035 
L 945.230908 669.762024 
L 956.691998 669.755014 
L 968.153087 669.755014 
L 979.614176 669.684914 
L 991.075265 669.684914 
L 1002.536355 669.705944 
L 1013.997444 669.705944 
L 1025.458533 669.712954 
L 1036.919622 669.712954 
L 1048.380712 669.712954 
L 1059.841801 669.691924 
L 1071.30289 669.691924 
L 1082.763979 669.656874 
L 1094.225069 669.656874 
L 1105.686158 669.656874 
L 1117.147247 669.656874 
L 1128.608336 669.656874 
L 1140.069426 669.656874 
L 1151.530515 669.642854 
" style="fill:none;stroke:#ffd700;stroke-linecap:square;stroke-width:3;"/>
   </g>
   <g id="line2d_2">
    <path clip-path="url(#p52fb4c57c1)" d="M 74.188125 661.875714 
L 142.954661 661.434081 
L 188.799018 661.37099 
L 234.643375 661.455111 
L 246.104464 661.378 
L 257.565553 661.38501 
L 269.026642 661.35697 
L 280.487732 661.448101 
L 314.870999 661.32192 
L 326.332089 661.33594 
L 337.793178 661.013478 
L 349.254267 660.915337 
L 360.715356 660.845236 
L 372.176446 660.803176 
L 383.637535 660.796166 
L 395.098624 660.880287 
L 406.559713 660.929357 
L 418.020803 660.985437 
L 429.481892 660.873276 
L 440.942981 660.845236 
L 452.40407 659.702598 
L 463.86516 659.898879 
L 475.326249 659.884859 
L 486.787338 659.779708 
L 498.248427 659.569407 
L 509.709517 659.534356 
L 521.170606 659.317045 
L 532.631695 659.422195 
L 544.092784 659.415185 
L 555.553874 659.296014 
L 567.014963 659.296014 
L 578.476052 659.828778 
L 589.937141 659.849809 
L 612.85932 659.597447 
L 624.320409 659.604457 
L 635.781499 659.618477 
L 647.242588 659.527346 
L 658.703677 660.00403 
L 670.164766 659.583427 
L 681.625856 659.632497 
L 693.086945 659.702598 
L 704.548034 659.036642 
L 716.009123 659.043652 
L 727.470213 658.889431 
L 738.931302 658.454808 
L 750.392391 658.545939 
L 761.85348 658.6581 
L 773.31457 658.66511 
L 784.775659 658.784281 
L 796.236748 658.587999 
L 807.697837 658.363677 
L 819.158927 658.559959 
L 830.620016 658.833351 
L 842.081105 658.67212 
L 853.542194 658.489858 
L 865.003284 658.195436 
L 887.925462 657.999155 
L 899.386551 657.508451 
L 910.847641 657.45938 
L 922.30873 657.38227 
L 933.769819 656.786415 
L 945.230908 656.954657 
L 956.691998 656.982697 
L 968.153087 656.933626 
L 979.614176 656.225611 
L 991.075265 656.08541 
L 1002.536355 655.889128 
L 1013.997444 655.419455 
L 1025.458533 655.391415 
L 1036.919622 654.872671 
L 1048.380712 654.571238 
L 1059.841801 654.473098 
L 1071.30289 654.171665 
L 1082.763979 654.164655 
L 1094.225069 653.744052 
L 1105.686158 653.821163 
L 1117.147247 653.603851 
L 1128.608336 653.46365 
L 1140.069426 653.155207 
L 1151.530515 652.874805 
" style="fill:none;stroke:#9acd32;stroke-linecap:square;stroke-width:3;"/>
   </g>
   <g id="line2d_3">
    <path clip-path="url(#p52fb4c57c1)" d="M 74.188125 569.434137 
L 142.954661 568.613961 
L 188.799018 566.538985 
L 234.643375 565.641698 
L 246.104464 566.048281 
L 257.565553 565.676748 
L 269.026642 565.326246 
L 280.487732 565.697779 
L 314.870999 565.536547 
L 326.332089 565.312226 
L 337.793178 564.884612 
L 349.254267 564.884612 
L 360.715356 564.688331 
L 372.176446 564.099486 
L 383.637535 563.861145 
L 395.098624 563.594763 
L 406.559713 563.20921 
L 418.020803 563.181169 
L 429.481892 563.111069 
L 440.942981 562.879737 
L 452.40407 562.543254 
L 463.86516 562.192752 
L 475.326249 566.412804 
L 486.787338 565.683758 
L 498.248427 564.414939 
L 509.709517 564.407929 
L 521.170606 564.485039 
L 532.631695 563.615793 
L 544.092784 562.066571 
L 555.553874 563.005918 
L 567.014963 562.676446 
L 578.476052 562.466144 
L 589.937141 562.192752 
L 612.85932 561.97544 
L 624.320409 561.071143 
L 635.781499 561.316495 
L 647.242588 560.867852 
L 658.703677 560.012625 
L 670.164766 560.264987 
L 681.625856 559.606042 
L 693.086945 559.472851 
L 704.548034 558.554534 
L 716.009123 549.083952 
L 727.470213 549.189102 
L 738.931302 548.810559 
L 750.392391 548.305836 
L 761.85348 548.235735 
L 773.31457 548.123574 
L 784.775659 548.074504 
L 796.236748 548.207695 
L 807.697837 547.54174 
L 819.158927 547.485659 
L 830.620016 543.833421 
L 842.081105 547.948323 
L 853.542194 547.702971 
L 865.003284 547.275358 
L 887.925462 546.651463 
L 899.386551 546.623423 
L 910.847641 546.434151 
L 922.30873 546.532292 
L 933.769819 548.137594 
L 945.230908 547.436589 
L 956.691998 547.008976 
L 968.153087 547.492669 
L 979.614176 547.773072 
L 991.075265 547.457619 
L 1002.536355 546.735584 
L 1013.997444 546.371061 
L 1025.458533 544.786789 
L 1036.919622 543.510959 
L 1048.380712 543.300657 
L 1059.841801 541.996787 
L 1071.30289 542.859024 
L 1082.763979 542.270179 
L 1094.225069 542.599652 
L 1105.686158 543.104376 
L 1117.147247 542.550582 
L 1128.608336 541.905657 
L 1140.069426 543.230557 
L 1151.530515 543.770331 
" style="fill:none;stroke:#f08080;stroke-linecap:square;stroke-width:3;"/>
   </g>
   <g id="line2d_4">
    <path clip-path="url(#p52fb4c57c1)" d="M 74.188125 487.157138 
L 142.954661 492.274477 
L 188.799018 497.742319 
L 234.643375 500.139757 
L 246.104464 500.987974 
L 257.565553 516.094639 
L 269.026642 517.636851 
L 280.487732 519.038862 
L 314.870999 520.307681 
L 326.332089 521.891954 
L 337.793178 523.364065 
L 349.254267 522.389667 
L 360.715356 524.471653 
L 372.176446 525.810574 
L 383.637535 526.441478 
L 395.098624 526.932182 
L 406.559713 529.077259 
L 418.020803 529.567962 
L 429.481892 533.823065 
L 440.942981 534.43294 
L 452.40407 535.82794 
L 463.86516 534.825503 
L 475.326249 536.655126 
L 486.787338 538.940404 
L 498.248427 540.468596 
L 509.709517 539.879751 
L 521.170606 539.802641 
L 532.631695 540.566736 
L 544.092784 541.653295 
L 555.553874 541.316812 
L 567.014963 544.730708 
L 578.476052 544.99008 
L 589.937141 544.506387 
L 612.85932 545.382643 
L 624.320409 545.067191 
L 635.781499 545.445734 
L 647.242588 547.275358 
L 658.703677 546.31498 
L 670.164766 545.670055 
L 681.625856 545.571915 
L 693.086945 545.466764 
L 704.548034 545.165332 
L 716.009123 546.30096 
L 727.470213 547.948323 
L 738.931302 548.656338 
L 750.392391 545.852317 
L 761.85348 546.938875 
L 773.31457 546.861765 
L 784.775659 546.490232 
L 796.236748 547.836162 
L 807.697837 547.352468 
L 819.158927 546.539302 
L 830.620016 544.520407 
L 842.081105 544.197944 
L 853.542194 542.936135 
L 865.003284 541.898647 
L 887.925462 543.209527 
L 899.386551 542.136988 
L 910.847641 540.657867 
L 922.30873 538.015077 
L 933.769819 537.510353 
L 945.230908 537.643544 
L 956.691998 536.542966 
L 968.153087 536.921509 
L 979.614176 536.872438 
L 991.075265 534.986734 
L 1002.536355 535.288166 
L 1013.997444 531.713039 
L 1025.458533 529.617033 
L 1036.919622 529.23148 
L 1048.380712 528.411303 
L 1059.841801 527.261655 
L 1071.30289 525.614292 
L 1082.763979 525.411001 
L 1094.225069 525.018438 
L 1105.686158 523.518286 
L 1117.147247 523.195824 
L 1128.608336 522.922431 
L 1140.069426 520.609114 
L 1151.530515 518.82856 
" style="fill:none;stroke:#87cefa;stroke-linecap:square;stroke-width:3;"/>
   </g>
   <g id="line2d_5">
    <path clip-path="url(#p52fb4c57c1)" d="M 74.188125 536.080302 
L 142.954661 538.568871 
L 188.799018 537.531383 
L 234.643375 537.1248 
L 246.104464 537.727665 
L 257.565553 537.13882 
L 269.026642 537.215931 
L 280.487732 535.86299 
L 314.870999 536.697187 
L 326.332089 536.683167 
L 337.793178 537.08274 
L 349.254267 537.328092 
L 360.715356 537.573444 
L 372.176446 537.265001 
L 383.637535 539.171736 
L 395.098624 537.902916 
L 406.559713 537.846836 
L 418.020803 538.064147 
L 429.481892 537.748695 
L 440.942981 537.279021 
L 452.40407 537.201911 
L 463.86516 536.844398 
L 475.326249 536.549976 
L 486.787338 535.575578 
L 498.248427 535.014774 
L 509.709517 535.274146 
L 521.170606 534.930653 
L 532.631695 534.45397 
L 544.092784 534.44696 
L 555.553874 534.026356 
L 567.014963 533.612763 
L 578.476052 532.876708 
L 589.937141 532.512185 
L 612.85932 532.371984 
L 624.320409 532.119622 
L 635.781499 531.734069 
L 647.242588 531.593868 
L 658.703677 530.745651 
L 670.164766 530.808742 
L 681.625856 525.614292 
L 693.086945 524.702985 
L 704.548034 524.450623 
L 716.009123 524.00899 
L 727.470213 524.646905 
L 738.931302 524.695975 
L 750.392391 524.527734 
L 761.85348 524.247332 
L 773.31457 524.576804 
L 784.775659 524.681955 
L 796.236748 524.240322 
L 807.697837 524.485673 
L 819.158927 524.752055 
L 830.620016 524.366503 
L 842.081105 523.959919 
L 853.542194 523.917859 
L 865.003284 523.518286 
L 887.925462 523.006552 
L 899.386551 522.522858 
L 910.847641 524.128161 
L 922.30873 523.749618 
L 933.769819 523.560346 
L 945.230908 523.413135 
L 956.691998 524.114141 
L 968.153087 523.945899 
L 979.614176 522.999542 
L 991.075265 523.006552 
L 1002.536355 522.431728 
L 1013.997444 522.018135 
L 1025.458533 521.737732 
L 1036.919622 521.702682 
L 1048.380712 521.856903 
L 1059.841801 522.284517 
L 1071.30289 521.688662 
L 1082.763979 520.567053 
L 1094.225069 519.929139 
L 1105.686158 518.337856 
L 1117.147247 515.856297 
L 1128.608336 514.461297 
L 1140.069426 512.540542 
L 1151.530515 512.31622 
" style="fill:none;stroke:#3ab08b;stroke-linecap:square;stroke-width:3;"/>
   </g>
   <g id="line2d_6">
    <path clip-path="url(#p52fb4c57c1)" d="M 74.188125 633.723339 
L 142.954661 633.555098 
L 188.799018 633.449947 
L 234.643375 633.520047 
L 246.104464 633.253665 
L 257.565553 633.372836 
L 269.026642 633.057384 
L 280.487732 633.015323 
L 314.870999 633.449947 
L 326.332089 631.767534 
L 337.793178 630.842207 
L 349.254267 630.631905 
L 360.715356 630.884267 
L 372.176446 630.288413 
L 383.637535 630.330473 
L 395.098624 630.295423 
L 406.559713 630.022031 
L 418.020803 629.040623 
L 429.481892 628.767231 
L 440.942981 628.262507 
L 452.40407 628.318588 
L 463.86516 628.542909 
L 475.326249 628.241477 
L 486.787338 627.27409 
L 498.248427 626.811426 
L 509.709517 626.495974 
L 521.170606 625.269214 
L 532.631695 624.925722 
L 544.092784 624.77851 
L 555.553874 624.76449 
L 567.014963 624.021425 
L 578.476052 623.292379 
L 589.937141 622.864766 
L 612.85932 621.301524 
L 624.320409 620.495368 
L 635.781499 620.235996 
L 647.242588 619.149437 
L 658.703677 617.663306 
L 670.164766 617.004361 
L 681.625856 616.170165 
L 693.086945 614.999486 
L 704.548034 613.520364 
L 716.009123 612.728228 
L 727.470213 610.506041 
L 738.931302 610.239659 
L 750.392391 609.370413 
L 761.85348 608.066543 
L 773.31457 606.965964 
L 784.775659 606.692572 
L 796.236748 605.907446 
L 807.697837 603.601138 
L 819.158927 602.220158 
L 830.620016 601.371941 
L 842.081105 599.955911 
L 853.542194 598.224427 
L 865.003284 597.467342 
L 887.925462 595.357315 
L 899.386551 591.550856 
L 910.847641 590.092765 
L 922.30873 588.767865 
L 933.769819 583.636506 
L 945.230908 580.944645 
L 956.691998 579.367383 
L 968.153087 575.09826 
L 979.614176 571.593234 
L 991.075265 568.873333 
L 1002.536355 564.870592 
L 1013.997444 561.659988 
L 1025.458533 558.575564 
L 1036.919622 555.091567 
L 1048.380712 549.581665 
L 1059.841801 543.307667 
L 1071.30289 536.921509 
L 1082.763979 530.55638 
L 1094.225069 526.581679 
L 1105.686158 521.057757 
L 1117.147247 517.251298 
L 1128.608336 512.393331 
L 1140.069426 503.287271 
L 1151.530515 497.454907 
" style="fill:none;stroke:#f04a6b;stroke-linecap:square;stroke-width:3;"/>
   </g>
   <g id="line2d_7">
    <path clip-path="url(#p52fb4c57c1)" d="M 74.188125 208.591628 
L 142.954661 214.718414 
L 188.799018 216.912561 
L 234.643375 218.167361 
L 246.104464 219.639472 
L 257.565553 233.897921 
L 269.026642 234.823248 
L 280.487732 235.292922 
L 314.870999 237.606239 
L 326.332089 237.283777 
L 337.793178 237.459028 
L 349.254267 236.38649 
L 360.715356 238.769908 
L 372.176446 238.566617 
L 383.637535 240.921995 
L 395.098624 239.940587 
L 406.559713 241.440739 
L 418.020803 241.209407 
L 429.481892 244.721444 
L 440.942981 244.076519 
L 452.40407 243.971368 
L 463.86516 242.709558 
L 475.326249 248.14235 
L 486.787338 247.609586 
L 498.248427 246.656219 
L 509.709517 245.990264 
L 521.170606 244.23074 
L 532.631695 243.445614 
L 544.092784 242.842749 
L 555.553874 242.8778 
L 567.014963 244.798554 
L 578.476052 243.929308 
L 589.937141 242.408126 
L 612.85932 241.111266 
L 624.320409 238.854029 
L 635.781499 238.868049 
L 647.242588 238.94516 
L 658.703677 235.250861 
L 670.164766 233.841841 
L 681.625856 227.105179 
L 693.086945 224.854952 
L 704.548034 221.209724 
L 716.009123 211.655021 
L 727.470213 211.676051 
L 738.931302 211.353589 
L 750.392391 207.091476 
L 761.85348 206.635823 
L 773.31457 205.710496 
L 784.775659 205.240822 
L 796.236748 205.296902 
L 807.697837 201.861976 
L 819.158927 200.109463 
L 830.620016 193.463932 
L 842.081105 195.293556 
L 853.542194 191.823579 
L 865.003284 188.928427 
L 887.925462 186.804381 
L 899.386551 180.915936 
L 910.847641 179.345684 
L 922.30873 175.020481 
L 933.769819 170.211584 
L 945.230908 166.965929 
L 956.691998 164.582511 
L 968.153087 160.958313 
L 979.614176 155.960145 
L 991.075265 150.905896 
L 1002.536355 145.732477 
L 1013.997444 137.698955 
L 1025.458533 130.632821 
L 1036.919622 124.933648 
L 1048.380712 118.246057 
L 1059.841801 109.826982 
L 1071.30289 101.758411 
L 1082.763979 93.437477 
L 1094.225069 88.341168 
L 1105.686158 80.307646 
L 1117.147247 72.92606 
L 1128.608336 65.614574 
L 1140.069426 53.2909 
L 1151.530515 45.699012 
" style="fill:none;stroke:#3f5e99;stroke-linecap:square;stroke-width:3;"/>
   </g>
   <g id="patch_3">
    <path d="M 74.188125 669.832125 
L 74.188125 38.9273 
" style="fill:none;stroke:#000000;stroke-linecap:square;stroke-linejoin:miter;"/>
   </g>
   <g id="patch_4">
    <path d="M 1151.530515 669.832125 
L 1151.530515 38.9273 
" style="fill:none;stroke:#000000;stroke-linecap:square;stroke-linejoin:miter;"/>
   </g>
   <g id="patch_5">
    <path d="M 74.188125 669.832125 
L 1151.530515 669.832125 
" style="fill:none;stroke:#000000;stroke-linecap:square;stroke-linejoin:miter;"/>
   </g>
   <g id="patch_6">
    <path d="M 74.188125 38.9273 
L 1151.530515 38.9273 
" style="fill:none;stroke:#000000;stroke-linecap:square;stroke-linejoin:miter;"/>
   </g>
   <g id="matplotlib.axis_1">
    <g id="xtick_1">
     <g id="line2d_8">
      <defs>
       <path d="M 0 0 
L 0 -4 
" id="mb4061d54f5" style="stroke:#000000;stroke-width:0.5;"/>
      </defs>
      <g>
       <use style="stroke:#000000;stroke-width:0.5;" x="418.020803" xlink:href="#mb4061d54f5" y="669.832125"/>
      </g>
     </g>
     <g id="line2d_9">
      <defs>
       <path d="M 0 0 
L 0 4 
" id="mb94d3ae007" style="stroke:#000000;stroke-width:0.5;"/>
      </defs>
      <g>
       <use style="stroke:#000000;stroke-width:0.5;" x="418.020803" xlink:href="#mb94d3ae007" y="38.9273"/>
      </g>
     </g>
     <g id="text_1">
      <!--  -->
      <g transform="translate(418.020803 682.6615)scale(0.12 -0.12)"/>
      <!--  -->
      <g transform="translate(418.020803 696.104875)scale(0.12 -0.12)"/>
      <!--  -->
      <g transform="translate(418.020803 709.54825)scale(0.12 -0.12)"/>
      <!-- Sep -->
      <g transform="translate(408.730178 722.991625)scale(0.12 -0.12)">
       <defs>
        <path d="M 37.109375 63.921875 
Q 31.984375 65.625 27.6875 65.625 
Q 21.234375 65.625 17.40625 62.5 
Q 13.578125 59.375 13.578125 53.8125 
Q 13.578125 50.640625 14.921875 48.234375 
Q 16.265625 45.84375 18.53125 44.03125 
Q 20.796875 42.234375 23.671875 40.8125 
Q 26.5625 39.40625 29.640625 38.03125 
Q 33.015625 36.578125 36.1875 34.9375 
Q 39.359375 33.296875 41.921875 31.09375 
Q 44.484375 28.90625 46.015625 25.828125 
Q 47.5625 22.75 47.5625 18.65625 
Q 47.5625 8.9375 40.75 3.8125 
Q 33.9375 -1.3125 21.875 -1.3125 
Q 14.109375 -1.3125 4.6875 1.3125 
L 4.390625 1.703125 
L 6.78125 18.3125 
L 8.984375 18.65625 
L 12.40625 4.78125 
Q 17.578125 2.734375 23 2.734375 
Q 30.28125 2.734375 34.34375 5.953125 
Q 38.421875 9.1875 38.421875 15.140625 
Q 38.421875 18.265625 37.109375 20.625 
Q 35.796875 23 33.5625 24.703125 
Q 31.34375 26.421875 28.515625 27.8125 
Q 25.6875 29.203125 22.65625 30.5625 
Q 19.234375 32.03125 16.015625 33.734375 
Q 12.796875 35.453125 10.171875 37.71875 
Q 7.5625 39.984375 6 43.28125 
Q 4.4375 46.578125 4.4375 50.984375 
Q 4.4375 59.8125 11.046875 64.640625 
Q 17.671875 69.484375 28.609375 69.484375 
Q 36.328125 69.484375 44.78125 67.671875 
L 45.125 67.328125 
L 42.234375 52.09375 
L 40.28125 51.765625 
z
" id="Constantia-83"/>
        <path d="M 44.046875 3.46875 
Q 39.890625 0.875 35.5 -0.25 
Q 31.109375 -1.375 27.34375 -1.375 
Q 16.609375 -1.375 10.203125 4.75 
Q 3.8125 10.890625 3.8125 21.78125 
Q 3.8125 32.625 9.9375 39.5 
Q 16.0625 46.390625 26.3125 46.390625 
Q 34.90625 46.390625 39.6875 41.234375 
Q 44.484375 36.078125 44.484375 27 
Q 44.484375 25.640625 44.34375 24.21875 
L 13.375 24.21875 
Q 13.375 13.71875 18.3125 9.203125 
Q 23.25 4.6875 33.734375 4.6875 
Q 38.421875 4.6875 43.75 5.5625 
z
M 34.765625 28.265625 
L 34.765625 29.734375 
Q 34.765625 36.671875 32.546875 39.640625 
Q 30.328125 42.625 25.921875 42.625 
Q 20.125 42.625 17.046875 38.421875 
Q 13.96875 34.234375 13.578125 28.265625 
z
" id="Constantia-101"/>
        <path d="M 2.09375 41.3125 
L 1.859375 42.96875 
Q 10.0625 44.53125 17.328125 46.390625 
L 17.828125 46.046875 
L 17.828125 41.265625 
Q 25.296875 46.390625 32.28125 46.390625 
Q 41.359375 46.390625 46.703125 40.3125 
Q 52.046875 34.234375 52.046875 24.515625 
Q 52.046875 12.546875 45.15625 5.578125 
Q 38.28125 -1.375 25.640625 -1.375 
Q 21.875 -1.375 17.828125 -0.640625 
L 17.828125 -11.328125 
Q 17.828125 -16.21875 17.921875 -18.171875 
Q 18.015625 -19.625 19.234375 -19.921875 
L 25.640625 -21.734375 
L 25.78125 -23.734375 
Q 18.171875 -23.578125 13.375 -23.578125 
Q 8.59375 -23.578125 2.046875 -23.734375 
L 1.859375 -21.734375 
L 7.46875 -20.0625 
Q 8.640625 -19.734375 8.6875 -18.5625 
Q 8.796875 -14.984375 8.796875 -7.765625 
L 8.796875 12.109375 
Q 8.796875 33.734375 8.59375 39.453125 
z
M 17.828125 3.765625 
Q 22.078125 2.828125 26.03125 2.828125 
Q 34.125 2.828125 38.21875 7.90625 
Q 42.328125 12.984375 42.328125 22.46875 
Q 42.328125 31.390625 38.421875 35.9375 
Q 34.515625 40.484375 27.203125 40.484375 
Q 21.921875 40.484375 17.828125 38.328125 
z
" id="Constantia-112"/>
       </defs>
       <use xlink:href="#Constantia-83"/>
       <use x="50.976562" xlink:href="#Constantia-101"/>
       <use x="98.876953" xlink:href="#Constantia-112"/>
      </g>
      <!-- 2020 -->
      <g transform="translate(405.745178 736.435)scale(0.12 -0.12)">
       <defs>
        <path d="M 42.390625 15.484375 
L 44.53125 15.875 
L 43.5625 0.203125 
L 43.21875 -0.140625 
Q 33.25 0 22.359375 0 
Q 12.25 0 3.765625 -0.140625 
L 3.421875 3.859375 
Q 8.015625 6.84375 11.671875 9.375 
Q 15.328125 11.921875 18.015625 14.109375 
Q 20.703125 16.265625 22.75 18.21875 
Q 24.8125 20.171875 26.203125 22.09375 
Q 27.59375 24.03125 28.3125 26.03125 
Q 29.046875 28.03125 29.046875 30.21875 
Q 29.046875 34.71875 25.78125 37.34375 
Q 22.515625 39.984375 17.78125 39.984375 
Q 12.203125 39.984375 6.546875 36.96875 
L 4.6875 40.1875 
Q 13.8125 46.390625 23 46.390625 
Q 29.890625 46.390625 34.453125 43.046875 
Q 39.015625 39.703125 39.015625 33.734375 
Q 39.015625 30.03125 37.34375 26.828125 
Q 35.6875 23.640625 32.515625 20.5625 
Q 29.34375 17.484375 24.75 14.328125 
Q 20.171875 11.1875 14.265625 7.671875 
L 14.3125 7.421875 
L 38.578125 7.421875 
z
" id="Constantia-50"/>
        <path d="M 13.671875 23.296875 
Q 13.671875 13.625 17.15625 8.109375 
Q 20.65625 2.59375 27.203125 2.59375 
Q 33.84375 2.59375 37.015625 7.515625 
Q 40.1875 12.453125 40.1875 22.609375 
Q 40.1875 32.5625 36.71875 37.609375 
Q 33.25 42.671875 26.65625 42.671875 
Q 19.921875 42.671875 16.796875 37.84375 
Q 13.671875 33.015625 13.671875 23.296875 
z
M 49.953125 23.6875 
Q 49.953125 12.25 43.4375 5.484375 
Q 36.921875 -1.265625 26.421875 -1.265625 
Q 16.3125 -1.265625 10.109375 4.9375 
Q 3.90625 11.140625 3.90625 22.015625 
Q 3.90625 33.203125 10.390625 39.796875 
Q 16.890625 46.390625 27.484375 46.390625 
Q 37.796875 46.390625 43.875 40.375 
Q 49.953125 34.375 49.953125 23.6875 
z
" id="Constantia-48"/>
       </defs>
       <use xlink:href="#Constantia-50"/>
       <use x="48.4375" xlink:href="#Constantia-48"/>
       <use x="102.294922" xlink:href="#Constantia-50"/>
       <use x="150.732422" xlink:href="#Constantia-48"/>
      </g>
     </g>
    </g>
    <g id="xtick_2">
     <g id="line2d_10">
      <g>
       <use style="stroke:#000000;stroke-width:0.5;" x="761.85348" xlink:href="#mb4061d54f5" y="669.832125"/>
      </g>
     </g>
     <g id="line2d_11">
      <g>
       <use style="stroke:#000000;stroke-width:0.5;" x="761.85348" xlink:href="#mb94d3ae007" y="38.9273"/>
      </g>
     </g>
     <g id="text_2">
      <!--  -->
      <g transform="translate(761.85348 682.6615)scale(0.12 -0.12)"/>
      <!--  -->
      <g transform="translate(761.85348 696.104875)scale(0.12 -0.12)"/>
      <!--  -->
      <g transform="translate(761.85348 709.54825)scale(0.12 -0.12)"/>
      <!-- Oct -->
      <g transform="translate(752.141918 722.991625)scale(0.12 -0.12)">
       <defs>
        <path d="M 15.578125 35.015625 
Q 15.578125 19.09375 22.015625 10.625 
Q 28.46875 2.15625 40.921875 2.15625 
Q 53.171875 2.15625 59 9.84375 
Q 64.84375 17.53125 64.84375 33.984375 
Q 64.84375 49.421875 58.640625 57.71875 
Q 52.4375 66.015625 39.5 66.015625 
Q 26.953125 66.015625 21.265625 58.328125 
Q 15.578125 50.640625 15.578125 35.015625 
z
M 75.59375 35.640625 
Q 75.59375 18.75 65.984375 8.46875 
Q 56.390625 -1.8125 39.15625 -1.8125 
Q 22.796875 -1.8125 13.84375 7.6875 
Q 4.890625 17.1875 4.890625 33.40625 
Q 4.890625 50.296875 14.53125 60.125 
Q 24.171875 69.96875 41.265625 69.96875 
Q 57.671875 69.96875 66.625 60.765625 
Q 75.59375 51.5625 75.59375 35.640625 
z
" id="Constantia-79"/>
        <path d="M 42.96875 3.46875 
Q 39.9375 1.421875 35.46875 0.015625 
Q 31 -1.375 26.609375 -1.375 
Q 16.0625 -1.375 9.90625 4.796875 
Q 3.765625 10.984375 3.765625 21.296875 
Q 3.765625 32.46875 10.734375 39.421875 
Q 17.71875 46.390625 28.8125 46.390625 
Q 35.984375 46.390625 42.71875 43.453125 
Q 41.109375 36.921875 39.84375 30.078125 
L 37.9375 29.78125 
L 33.984375 41.5 
Q 31.734375 42.28125 28.90625 42.28125 
Q 21.625 42.28125 17.515625 37.203125 
Q 13.421875 32.125 13.421875 23.78125 
Q 13.421875 13.96875 18.0625 9.28125 
Q 22.703125 4.59375 32.765625 4.59375 
Q 37.40625 4.59375 42.671875 5.515625 
z
" id="Constantia-99"/>
        <path d="M 17.484375 39.9375 
Q 17.1875 23.4375 17.1875 13.328125 
Q 17.1875 8.25 18.703125 6.3125 
Q 20.21875 4.390625 24.46875 4.390625 
Q 27.828125 4.390625 33.25 5.28125 
L 33.546875 3.078125 
Q 25.09375 -1.171875 18.453125 -1.171875 
Q 13.140625 -1.171875 10.546875 1.6875 
Q 7.953125 4.546875 7.953125 10.296875 
Q 7.953125 19.78125 8.296875 40.234375 
L 1.5625 41.890625 
L 1.265625 43.890625 
L 8.796875 44.53125 
L 12.15625 56.34375 
Q 14.890625 57.078125 17.140625 57.765625 
L 17.625 57.421875 
Q 17.484375 51.515625 17.484375 46.390625 
L 17.484375 44.578125 
L 32.171875 44.578125 
L 32.171875 39.9375 
z
" id="Constantia-116"/>
       </defs>
       <use xlink:href="#Constantia-79"/>
       <use x="80.419922" xlink:href="#Constantia-99"/>
       <use x="126.5625" xlink:href="#Constantia-116"/>
      </g>
      <!-- 2020 -->
      <g transform="translate(749.577855 736.435)scale(0.12 -0.12)">
       <use xlink:href="#Constantia-50"/>
       <use x="48.4375" xlink:href="#Constantia-48"/>
       <use x="102.294922" xlink:href="#Constantia-50"/>
       <use x="150.732422" xlink:href="#Constantia-48"/>
      </g>
     </g>
    </g>
    <g id="xtick_3">
     <g id="line2d_12">
      <g>
       <use style="stroke:#000000;stroke-width:0.5;" x="1117.147247" xlink:href="#mb4061d54f5" y="669.832125"/>
      </g>
     </g>
     <g id="line2d_13">
      <g>
       <use style="stroke:#000000;stroke-width:0.5;" x="1117.147247" xlink:href="#mb94d3ae007" y="38.9273"/>
      </g>
     </g>
     <g id="text_3">
      <!--  -->
      <g transform="translate(1117.147247 682.6615)scale(0.12 -0.12)"/>
      <!--  -->
      <g transform="translate(1117.147247 696.104875)scale(0.12 -0.12)"/>
      <!--  -->
      <g transform="translate(1117.147247 709.54825)scale(0.12 -0.12)"/>
      <!-- Nov -->
      <g transform="translate(1106.602247 722.991625)scale(0.12 -0.12)">
       <defs>
        <path d="M 16.65625 54.4375 
L 16.65625 14.984375 
Q 16.65625 9.234375 16.75 5.421875 
Q 16.796875 4.046875 17.96875 3.765625 
L 23.78125 2.046875 
L 23.875 -0.140625 
Q 17.78125 0 13.875 0 
Q 10.0625 0 3.765625 -0.140625 
L 3.5625 1.953125 
L 9.578125 3.765625 
Q 10.84375 4.15625 10.890625 5.28125 
Q 10.984375 9.234375 10.984375 14.984375 
L 10.984375 54.59375 
Q 10.984375 59.46875 10.890625 62.703125 
Q 10.84375 63.96875 9.71875 64.359375 
L 3.65625 66.265625 
L 3.5625 68.359375 
Q 9.859375 68.171875 13.53125 68.171875 
Q 15.71875 68.171875 17.96875 68.359375 
L 58.984375 17.140625 
L 58.984375 54.78125 
Q 58.984375 59.515625 58.890625 62.9375 
Q 58.84375 64.0625 57.625 64.453125 
L 51.859375 66.109375 
L 51.765625 68.359375 
Q 58.015625 68.171875 61.859375 68.171875 
Q 65.765625 68.171875 71.875 68.359375 
L 72.078125 66.265625 
L 65.921875 64.359375 
Q 64.796875 63.96875 64.75 62.703125 
Q 64.65625 59.46875 64.65625 54.59375 
L 64.65625 0 
L 60.546875 -0.390625 
z
" id="Constantia-78"/>
        <path d="M 13.71875 23.046875 
Q 13.71875 13.921875 17.140625 8.171875 
Q 20.5625 2.4375 27.296875 2.4375 
Q 33.59375 2.4375 36.890625 7.484375 
Q 40.1875 12.546875 40.1875 22.46875 
Q 40.1875 31.78125 36.71875 37.15625 
Q 33.25 42.53125 26.65625 42.53125 
Q 20.40625 42.53125 17.0625 37.6875 
Q 13.71875 32.859375 13.71875 23.046875 
z
M 50.140625 23.484375 
Q 50.140625 12.359375 43.421875 5.484375 
Q 36.71875 -1.375 26.375 -1.375 
Q 16.265625 -1.375 10.03125 5.09375 
Q 3.8125 11.578125 3.8125 22.015625 
Q 3.8125 32.765625 10.328125 39.578125 
Q 16.84375 46.390625 27.59375 46.390625 
Q 37.75 46.390625 43.9375 40.109375 
Q 50.140625 33.84375 50.140625 23.484375 
z
" id="Constantia-111"/>
        <path d="M -1.515625 45.265625 
Q 4.640625 45.125 9.421875 45.125 
Q 13.8125 45.125 19.96875 45.265625 
L 20.171875 43.265625 
L 14.5 41.703125 
Q 18.5 30.328125 23.78125 17.53125 
Q 25.140625 14.15625 26.21875 11.078125 
Q 27.296875 14.15625 28.71875 17.484375 
Q 33.15625 28.421875 38.03125 41.703125 
L 32.46875 43.265625 
L 32.28125 45.265625 
Q 36.234375 45.125 40.53125 45.125 
Q 44.921875 45.125 49.03125 45.265625 
L 49.21875 43.265625 
L 44.34375 41.84375 
Q 43.21875 41.453125 42.4375 39.9375 
Q 38.578125 31 33.46875 18.671875 
Q 28.375 6.34375 25.78125 -0.34375 
L 21.625 -0.78125 
Q 18.953125 6.296875 13.890625 18.59375 
Q 8.84375 30.90625 5.21875 39.703125 
Q 4.4375 41.40625 3.078125 41.890625 
L -1.421875 43.265625 
z
" id="Constantia-118"/>
       </defs>
       <use xlink:href="#Constantia-78"/>
       <use x="73.402344" xlink:href="#Constantia-111"/>
       <use x="127.455078" xlink:href="#Constantia-118"/>
      </g>
      <!-- 2020 -->
      <g transform="translate(1104.871622 736.435)scale(0.12 -0.12)">
       <use xlink:href="#Constantia-50"/>
       <use x="48.4375" xlink:href="#Constantia-48"/>
       <use x="102.294922" xlink:href="#Constantia-50"/>
       <use x="150.732422" xlink:href="#Constantia-48"/>
      </g>
     </g>
    </g>
    <g id="xtick_4">
     <g id="line2d_14">
      <path clip-path="url(#p52fb4c57c1)" d="M 74.188125 669.832125 
L 74.188125 38.9273 
" style="fill:none;stroke:#000000;stroke-dasharray:1,3;stroke-dashoffset:0;stroke-width:0.5;"/>
     </g>
     <g id="line2d_15">
      <defs>
       <path d="M 0 0 
L 0 -2 
" id="ma6139f5e6d" style="stroke:#000000;stroke-width:0.5;"/>
      </defs>
      <g>
       <use style="stroke:#000000;stroke-width:0.5;" x="74.188125" xlink:href="#ma6139f5e6d" y="669.832125"/>
      </g>
     </g>
     <g id="line2d_16">
      <defs>
       <path d="M 0 0 
L 0 2 
" id="m665e6482a4" style="stroke:#000000;stroke-width:0.5;"/>
      </defs>
      <g>
       <use style="stroke:#000000;stroke-width:0.5;" x="74.188125" xlink:href="#m665e6482a4" y="38.9273"/>
      </g>
     </g>
     <g id="text_4">
      <!-- 02 -->
      <g transform="translate(68.050312 682.6615)scale(0.12 -0.12)">
       <use xlink:href="#Constantia-48"/>
       <use x="53.857422" xlink:href="#Constantia-50"/>
      </g>
      <!-- Sun -->
      <g transform="translate(64.220625 696.104875)scale(0.12 -0.12)">
       <defs>
        <path d="M 38.875 4.296875 
Q 31.25 -1.375 23.640625 -1.375 
Q 15.96875 -1.375 12.125 2.53125 
Q 8.296875 6.453125 8.296875 13.53125 
L 8.296875 23.875 
Q 8.296875 34.328125 8.109375 39.546875 
L 1.609375 41.3125 
L 1.375 42.96875 
Q 9.90625 44.53125 17.1875 46.390625 
L 17.625 46.046875 
Q 17.328125 40.328125 17.328125 31.34375 
L 17.328125 15.828125 
Q 17.328125 9.90625 20.109375 7.25 
Q 22.90625 4.59375 27.984375 4.59375 
Q 33.0625 4.59375 38.375 7.28125 
L 38.375 28.078125 
Q 38.375 34.90625 38.1875 39.546875 
L 31.734375 41.3125 
L 31.5 42.96875 
Q 39.984375 44.53125 47.265625 46.390625 
L 47.703125 46.046875 
Q 47.40625 40.1875 47.40625 31.0625 
Q 47.40625 13.328125 47.515625 9.421875 
Q 47.5625 7.421875 47.796875 6.203125 
Q 48.046875 4.984375 48.734375 4.3125 
Q 49.421875 3.65625 50.75 3.390625 
Q 52.09375 3.125 54.34375 3.078125 
L 54.59375 1.171875 
Q 52.34375 0.296875 49.40625 -0.5 
Q 46.484375 -1.3125 45.40625 -1.3125 
Q 40.484375 -1.3125 38.875 4.296875 
z
" id="Constantia-117"/>
        <path d="M 2.828125 42.96875 
Q 11.03125 44.53125 18.3125 46.390625 
L 18.796875 46.046875 
L 18.796875 40.375 
Q 27.296875 46.390625 34.625 46.390625 
Q 41.546875 46.390625 45.484375 42.5 
Q 49.421875 38.625 49.421875 31.5 
L 49.421875 14.265625 
Q 49.421875 8.15625 49.515625 5.21875 
Q 49.5625 3.90625 50.78125 3.515625 
L 56.203125 1.859375 
L 56.296875 -0.140625 
Q 49.859375 0 45.0625 0 
Q 40.28125 0 34.421875 -0.140625 
L 34.234375 1.859375 
L 39.109375 3.265625 
Q 40.234375 3.65625 40.328125 4.78125 
Q 40.375 5.46875 40.375 7.859375 
L 40.375 29.15625 
Q 40.375 35.15625 37.5 37.765625 
Q 34.625 40.375 29 40.375 
Q 24.078125 40.375 18.796875 37.546875 
L 18.796875 16.21875 
Q 18.796875 10.109375 18.890625 5.03125 
Q 18.953125 3.71875 20.015625 3.375 
L 25.09375 1.859375 
L 25.203125 -0.140625 
Q 19.140625 0 14.359375 0 
Q 9.578125 0 3.03125 -0.140625 
L 2.828125 1.859375 
L 8.59375 3.515625 
Q 9.671875 3.953125 9.71875 5.03125 
Q 9.765625 8.15625 9.765625 11.03125 
L 9.765625 27.6875 
Q 9.765625 34.078125 9.578125 39.546875 
L 3.078125 41.3125 
z
" id="Constantia-110"/>
       </defs>
       <use xlink:href="#Constantia-83"/>
       <use x="50.976562" xlink:href="#Constantia-117"/>
       <use x="107.910156" xlink:href="#Constantia-110"/>
      </g>
     </g>
    </g>
    <g id="xtick_5">
     <g id="line2d_17">
      <path clip-path="url(#p52fb4c57c1)" d="M 154.41575 669.832125 
L 154.41575 38.9273 
" style="fill:none;stroke:#000000;stroke-dasharray:1,3;stroke-dashoffset:0;stroke-width:0.5;"/>
     </g>
     <g id="line2d_18">
      <g>
       <use style="stroke:#000000;stroke-width:0.5;" x="154.41575" xlink:href="#ma6139f5e6d" y="669.832125"/>
      </g>
     </g>
     <g id="line2d_19">
      <g>
       <use style="stroke:#000000;stroke-width:0.5;" x="154.41575" xlink:href="#m665e6482a4" y="38.9273"/>
      </g>
     </g>
     <g id="text_5">
      <!-- 09 -->
      <g transform="translate(147.90575 682.6615)scale(0.12 -0.12)">
       <defs>
        <path d="M 8.640625 -19 
Q 20.90625 -16.796875 28.984375 -9.671875 
Q 37.0625 -2.546875 40.375 10.109375 
L 40.28125 10.15625 
Q 34.578125 3.65625 25.4375 3.65625 
Q 16.3125 3.65625 10.234375 9.484375 
Q 4.15625 15.328125 4.15625 24.3125 
Q 4.15625 33.6875 10.796875 40.03125 
Q 17.4375 46.390625 27.046875 46.390625 
Q 37.546875 46.390625 44.265625 38.75 
Q 50.984375 31.109375 50.984375 19.1875 
Q 50.984375 2.828125 39.578125 -8.59375 
Q 28.171875 -20.015625 9.328125 -22.46875 
z
M 14.0625 27.25 
Q 14.0625 18.5625 18.015625 13.28125 
Q 21.96875 8.015625 28.125 8.015625 
Q 34.234375 8.015625 37.453125 11.9375 
Q 40.671875 15.875 40.671875 22.90625 
Q 40.671875 31.453125 36.421875 37.15625 
Q 32.171875 42.875 26.21875 42.875 
Q 20.953125 42.875 17.5 38.640625 
Q 14.0625 34.421875 14.0625 27.25 
z
" id="Constantia-57"/>
       </defs>
       <use xlink:href="#Constantia-48"/>
       <use x="53.857422" xlink:href="#Constantia-57"/>
      </g>
      <!-- Sun -->
      <g transform="translate(144.44825 696.104875)scale(0.12 -0.12)">
       <use xlink:href="#Constantia-83"/>
       <use x="50.976562" xlink:href="#Constantia-117"/>
       <use x="107.910156" xlink:href="#Constantia-110"/>
      </g>
     </g>
    </g>
    <g id="xtick_6">
     <g id="line2d_20">
      <path clip-path="url(#p52fb4c57c1)" d="M 234.643375 669.832125 
L 234.643375 38.9273 
" style="fill:none;stroke:#000000;stroke-dasharray:1,3;stroke-dashoffset:0;stroke-width:0.5;"/>
     </g>
     <g id="line2d_21">
      <g>
       <use style="stroke:#000000;stroke-width:0.5;" x="234.643375" xlink:href="#ma6139f5e6d" y="669.832125"/>
      </g>
     </g>
     <g id="line2d_22">
      <g>
       <use style="stroke:#000000;stroke-width:0.5;" x="234.643375" xlink:href="#m665e6482a4" y="38.9273"/>
      </g>
     </g>
     <g id="text_6">
      <!-- 16 -->
      <g transform="translate(229.519 682.6615)scale(0.12 -0.12)">
       <defs>
        <path d="M 1.703125 40.625 
L 1.46875 42.671875 
Q 11.28125 44.140625 21.09375 45.90625 
L 21.53125 45.515625 
Q 20.953125 36.96875 20.953125 27.875 
L 20.953125 15.96875 
Q 20.953125 9.515625 21.046875 5.5625 
Q 21.09375 4.15625 22.40625 3.8125 
L 30.171875 1.8125 
L 30.328125 -0.140625 
Q 21.296875 0 16.5 0 
Q 11.71875 0 2.734375 -0.140625 
L 2.546875 1.8125 
L 10.5 3.8125 
Q 11.765625 4.15625 11.8125 5.375 
Q 11.921875 9.328125 11.921875 14.15625 
L 11.921875 22.265625 
Q 11.921875 32.078125 11.71875 39.65625 
z
" id="Constantia-49"/>
        <path d="M 47.125 64.546875 
Q 32.03125 61.53125 24.515625 53.9375 
Q 17 46.34375 14.796875 35.25 
L 14.890625 35.203125 
Q 20.796875 41.65625 30.21875 41.65625 
Q 38.96875 41.65625 44.9375 35.796875 
Q 50.921875 29.9375 50.921875 20.90625 
Q 50.921875 11.328125 44.375 5.03125 
Q 37.84375 -1.265625 28.125 -1.265625 
Q 17.390625 -1.265625 10.75 6.5 
Q 4.109375 14.265625 4.109375 26.515625 
Q 4.109375 41.546875 14.453125 53.125 
Q 24.8125 64.703125 46.4375 68.015625 
z
M 41.109375 18.0625 
Q 41.109375 26.609375 37.15625 31.953125 
Q 33.203125 37.3125 27.046875 37.3125 
Q 21.4375 37.3125 17.921875 33.328125 
Q 14.40625 29.34375 14.40625 22.515625 
Q 14.40625 14.15625 18.5 8.203125 
Q 22.609375 2.25 28.953125 2.25 
Q 34.46875 2.25 37.78125 6.8125 
Q 41.109375 11.375 41.109375 18.0625 
z
" id="Constantia-54"/>
       </defs>
       <use xlink:href="#Constantia-49"/>
       <use x="31.298828" xlink:href="#Constantia-54"/>
      </g>
      <!-- Sun -->
      <g transform="translate(224.675875 696.104875)scale(0.12 -0.12)">
       <use xlink:href="#Constantia-83"/>
       <use x="50.976562" xlink:href="#Constantia-117"/>
       <use x="107.910156" xlink:href="#Constantia-110"/>
      </g>
     </g>
    </g>
    <g id="xtick_7">
     <g id="line2d_23">
      <path clip-path="url(#p52fb4c57c1)" d="M 314.870999 669.832125 
L 314.870999 38.9273 
" style="fill:none;stroke:#000000;stroke-dasharray:1,3;stroke-dashoffset:0;stroke-width:0.5;"/>
     </g>
     <g id="line2d_24">
      <g>
       <use style="stroke:#000000;stroke-width:0.5;" x="314.870999" xlink:href="#ma6139f5e6d" y="669.832125"/>
      </g>
     </g>
     <g id="line2d_25">
      <g>
       <use style="stroke:#000000;stroke-width:0.5;" x="314.870999" xlink:href="#m665e6482a4" y="38.9273"/>
      </g>
     </g>
     <g id="text_7">
      <!-- 23 -->
      <g transform="translate(309.225374 682.6615)scale(0.12 -0.12)">
       <defs>
        <path d="M 10.25 16.21875 
Q 19 17.140625 24.265625 20.75 
Q 29.546875 24.359375 29.546875 30.125 
Q 29.546875 34.71875 26.09375 37.59375 
Q 22.65625 40.484375 17.390625 40.484375 
Q 10.5 40.484375 3.46875 36.8125 
L 1.46875 40.046875 
Q 11.140625 46.390625 21.34375 46.390625 
Q 28.90625 46.390625 34.078125 42.75 
Q 39.265625 39.109375 39.265625 33.203125 
Q 39.265625 22.359375 23.25 17 
L 23.25 16.796875 
Q 32.421875 16.453125 37.5625 12.15625 
Q 42.71875 7.859375 42.71875 1.609375 
Q 42.71875 -8.5 31.96875 -15.140625 
Q 21.234375 -21.78125 1.03125 -22.46875 
L 0.484375 -18.84375 
Q 16.546875 -17.78125 24.53125 -12.625 
Q 32.515625 -7.46875 32.515625 0.25 
Q 32.515625 6.296875 28.359375 9.765625 
Q 24.21875 13.234375 16.84375 13.234375 
Q 13.96875 13.234375 10.59375 12.640625 
z
" id="Constantia-51"/>
       </defs>
       <use xlink:href="#Constantia-50"/>
       <use x="48.4375" xlink:href="#Constantia-51"/>
      </g>
      <!-- Sun -->
      <g transform="translate(304.903499 696.104875)scale(0.12 -0.12)">
       <use xlink:href="#Constantia-83"/>
       <use x="50.976562" xlink:href="#Constantia-117"/>
       <use x="107.910156" xlink:href="#Constantia-110"/>
      </g>
     </g>
    </g>
    <g id="xtick_8">
     <g id="line2d_26">
      <path clip-path="url(#p52fb4c57c1)" d="M 395.098624 669.832125 
L 395.098624 38.9273 
" style="fill:none;stroke:#000000;stroke-dasharray:1,3;stroke-dashoffset:0;stroke-width:0.5;"/>
     </g>
     <g id="line2d_27">
      <g>
       <use style="stroke:#000000;stroke-width:0.5;" x="395.098624" xlink:href="#ma6139f5e6d" y="669.832125"/>
      </g>
     </g>
     <g id="line2d_28">
      <g>
       <use style="stroke:#000000;stroke-width:0.5;" x="395.098624" xlink:href="#m665e6482a4" y="38.9273"/>
      </g>
     </g>
     <g id="text_8">
      <!-- 30 -->
      <g transform="translate(389.127687 682.6615)scale(0.12 -0.12)">
       <use xlink:href="#Constantia-51"/>
       <use x="45.654297" xlink:href="#Constantia-48"/>
      </g>
      <!-- Sun -->
      <g transform="translate(385.131124 696.104875)scale(0.12 -0.12)">
       <use xlink:href="#Constantia-83"/>
       <use x="50.976562" xlink:href="#Constantia-117"/>
       <use x="107.910156" xlink:href="#Constantia-110"/>
      </g>
     </g>
    </g>
    <g id="xtick_9">
     <g id="line2d_29">
      <path clip-path="url(#p52fb4c57c1)" d="M 475.326249 669.832125 
L 475.326249 38.9273 
" style="fill:none;stroke:#000000;stroke-dasharray:1,3;stroke-dashoffset:0;stroke-width:0.5;"/>
     </g>
     <g id="line2d_30">
      <g>
       <use style="stroke:#000000;stroke-width:0.5;" x="475.326249" xlink:href="#ma6139f5e6d" y="669.832125"/>
      </g>
     </g>
     <g id="line2d_31">
      <g>
       <use style="stroke:#000000;stroke-width:0.5;" x="475.326249" xlink:href="#m665e6482a4" y="38.9273"/>
      </g>
     </g>
     <g id="text_9">
      <!-- 06 -->
      <g transform="translate(468.848124 682.6615)scale(0.12 -0.12)">
       <use xlink:href="#Constantia-48"/>
       <use x="53.857422" xlink:href="#Constantia-54"/>
      </g>
      <!-- Sun -->
      <g transform="translate(465.358749 696.104875)scale(0.12 -0.12)">
       <use xlink:href="#Constantia-83"/>
       <use x="50.976562" xlink:href="#Constantia-117"/>
       <use x="107.910156" xlink:href="#Constantia-110"/>
      </g>
     </g>
    </g>
    <g id="xtick_10">
     <g id="line2d_32">
      <path clip-path="url(#p52fb4c57c1)" d="M 555.553874 669.832125 
L 555.553874 38.9273 
" style="fill:none;stroke:#000000;stroke-dasharray:1,3;stroke-dashoffset:0;stroke-width:0.5;"/>
     </g>
     <g id="line2d_33">
      <g>
       <use style="stroke:#000000;stroke-width:0.5;" x="555.553874" xlink:href="#ma6139f5e6d" y="669.832125"/>
      </g>
     </g>
     <g id="line2d_34">
      <g>
       <use style="stroke:#000000;stroke-width:0.5;" x="555.553874" xlink:href="#m665e6482a4" y="38.9273"/>
      </g>
     </g>
     <g id="text_10">
      <!-- 13 -->
      <g transform="translate(550.936686 682.6615)scale(0.12 -0.12)">
       <use xlink:href="#Constantia-49"/>
       <use x="31.298828" xlink:href="#Constantia-51"/>
      </g>
      <!-- Sun -->
      <g transform="translate(545.586374 696.104875)scale(0.12 -0.12)">
       <use xlink:href="#Constantia-83"/>
       <use x="50.976562" xlink:href="#Constantia-117"/>
       <use x="107.910156" xlink:href="#Constantia-110"/>
      </g>
     </g>
    </g>
    <g id="xtick_11">
     <g id="line2d_35">
      <path clip-path="url(#p52fb4c57c1)" d="M 635.781499 669.832125 
L 635.781499 38.9273 
" style="fill:none;stroke:#000000;stroke-dasharray:1,3;stroke-dashoffset:0;stroke-width:0.5;"/>
     </g>
     <g id="line2d_36">
      <g>
       <use style="stroke:#000000;stroke-width:0.5;" x="635.781499" xlink:href="#ma6139f5e6d" y="669.832125"/>
      </g>
     </g>
     <g id="line2d_37">
      <g>
       <use style="stroke:#000000;stroke-width:0.5;" x="635.781499" xlink:href="#m665e6482a4" y="38.9273"/>
      </g>
     </g>
     <g id="text_11">
      <!-- 20 -->
      <g transform="translate(629.643686 682.6615)scale(0.12 -0.12)">
       <use xlink:href="#Constantia-50"/>
       <use x="48.4375" xlink:href="#Constantia-48"/>
      </g>
      <!-- Sun -->
      <g transform="translate(625.813999 696.104875)scale(0.12 -0.12)">
       <use xlink:href="#Constantia-83"/>
       <use x="50.976562" xlink:href="#Constantia-117"/>
       <use x="107.910156" xlink:href="#Constantia-110"/>
      </g>
     </g>
    </g>
    <g id="xtick_12">
     <g id="line2d_38">
      <path clip-path="url(#p52fb4c57c1)" d="M 716.009123 669.832125 
L 716.009123 38.9273 
" style="fill:none;stroke:#000000;stroke-dasharray:1,3;stroke-dashoffset:0;stroke-width:0.5;"/>
     </g>
     <g id="line2d_39">
      <g>
       <use style="stroke:#000000;stroke-width:0.5;" x="716.009123" xlink:href="#ma6139f5e6d" y="669.832125"/>
      </g>
     </g>
     <g id="line2d_40">
      <g>
       <use style="stroke:#000000;stroke-width:0.5;" x="716.009123" xlink:href="#m665e6482a4" y="38.9273"/>
      </g>
     </g>
     <g id="text_12">
      <!-- 27 -->
      <g transform="translate(710.202248 682.6615)scale(0.12 -0.12)">
       <defs>
        <path d="M 10.9375 -19.671875 
L 39.5 37.546875 
L 8.296875 37.546875 
L 5.46875 27.875 
L 3.515625 27.546875 
L 2.6875 44.921875 
L 3.03125 45.3125 
Q 8.796875 45.21875 14.265625 45.171875 
Q 19.734375 45.125 25 45.125 
L 27.734375 45.125 
Q 33.015625 45.125 37.84375 45.171875 
Q 42.671875 45.21875 47.171875 45.3125 
L 47.359375 43.21875 
Q 44.828125 37.984375 42.265625 32.46875 
Q 39.703125 26.953125 37.234375 21.3125 
Q 34.765625 15.671875 32.421875 10.125 
Q 30.078125 4.59375 28.03125 -0.65625 
Q 25.984375 -5.90625 24.25 -10.6875 
Q 22.515625 -15.484375 21.234375 -19.53125 
L 11.1875 -20.015625 
z
" id="Constantia-55"/>
       </defs>
       <use xlink:href="#Constantia-50"/>
       <use x="48.4375" xlink:href="#Constantia-55"/>
      </g>
      <!-- Sun -->
      <g transform="translate(706.041623 696.104875)scale(0.12 -0.12)">
       <use xlink:href="#Constantia-83"/>
       <use x="50.976562" xlink:href="#Constantia-117"/>
       <use x="107.910156" xlink:href="#Constantia-110"/>
      </g>
     </g>
    </g>
    <g id="xtick_13">
     <g id="line2d_41">
      <path clip-path="url(#p52fb4c57c1)" d="M 796.236748 669.832125 
L 796.236748 38.9273 
" style="fill:none;stroke:#000000;stroke-dasharray:1,3;stroke-dashoffset:0;stroke-width:0.5;"/>
     </g>
     <g id="line2d_42">
      <g>
       <use style="stroke:#000000;stroke-width:0.5;" x="796.236748" xlink:href="#ma6139f5e6d" y="669.832125"/>
      </g>
     </g>
     <g id="line2d_43">
      <g>
       <use style="stroke:#000000;stroke-width:0.5;" x="796.236748" xlink:href="#m665e6482a4" y="38.9273"/>
      </g>
     </g>
     <g id="text_13">
      <!-- 04 -->
      <g transform="translate(789.820498 682.6615)scale(0.12 -0.12)">
       <defs>
        <path d="M 30.953125 35.015625 
Q 25.4375 28.8125 19.890625 21.78125 
Q 14.359375 14.75 8.984375 7.28125 
L 30.953125 7.28125 
z
M 39.984375 -5.71875 
Q 39.984375 -12.546875 40.234375 -19.53125 
Q 35.546875 -20.015625 31.34375 -20.796875 
L 30.859375 -20.40625 
Q 30.953125 -13.578125 30.953125 -6.5 
L 30.953125 2.4375 
L 18.796875 2.4375 
Q 12.109375 2.4375 2.546875 2.296875 
L 2.203125 5.859375 
Q 9.90625 16.0625 18.078125 26.234375 
Q 26.265625 36.421875 34.578125 46.046875 
L 40.28125 46.390625 
Q 39.984375 35.453125 39.984375 25.984375 
L 39.984375 7.28125 
L 51.171875 7.28125 
L 51.375 2.296875 
Q 46 2.4375 39.984375 2.4375 
z
" id="Constantia-52"/>
       </defs>
       <use xlink:href="#Constantia-48"/>
       <use x="53.857422" xlink:href="#Constantia-52"/>
      </g>
      <!-- Sun -->
      <g transform="translate(786.269248 696.104875)scale(0.12 -0.12)">
       <use xlink:href="#Constantia-83"/>
       <use x="50.976562" xlink:href="#Constantia-117"/>
       <use x="107.910156" xlink:href="#Constantia-110"/>
      </g>
     </g>
    </g>
    <g id="xtick_14">
     <g id="line2d_44">
      <path clip-path="url(#p52fb4c57c1)" d="M 876.464373 669.832125 
L 876.464373 38.9273 
" style="fill:none;stroke:#000000;stroke-dasharray:1,3;stroke-dashoffset:0;stroke-width:0.5;"/>
     </g>
     <g id="line2d_45">
      <g>
       <use style="stroke:#000000;stroke-width:0.5;" x="876.464373" xlink:href="#ma6139f5e6d" y="669.832125"/>
      </g>
     </g>
     <g id="line2d_46">
      <g>
       <use style="stroke:#000000;stroke-width:0.5;" x="876.464373" xlink:href="#m665e6482a4" y="38.9273"/>
      </g>
     </g>
     <g id="text_14">
      <!-- 11 -->
      <g transform="translate(872.708748 682.6615)scale(0.12 -0.12)">
       <use xlink:href="#Constantia-49"/>
       <use x="31.298828" xlink:href="#Constantia-49"/>
      </g>
      <!-- Sun -->
      <g transform="translate(866.496873 696.104875)scale(0.12 -0.12)">
       <use xlink:href="#Constantia-83"/>
       <use x="50.976562" xlink:href="#Constantia-117"/>
       <use x="107.910156" xlink:href="#Constantia-110"/>
      </g>
     </g>
    </g>
    <g id="xtick_15">
     <g id="line2d_47">
      <path clip-path="url(#p52fb4c57c1)" d="M 956.691998 669.832125 
L 956.691998 38.9273 
" style="fill:none;stroke:#000000;stroke-dasharray:1,3;stroke-dashoffset:0;stroke-width:0.5;"/>
     </g>
     <g id="line2d_48">
      <g>
       <use style="stroke:#000000;stroke-width:0.5;" x="956.691998" xlink:href="#ma6139f5e6d" y="669.832125"/>
      </g>
     </g>
     <g id="line2d_49">
      <g>
       <use style="stroke:#000000;stroke-width:0.5;" x="956.691998" xlink:href="#m665e6482a4" y="38.9273"/>
      </g>
     </g>
     <g id="text_15">
      <!-- 18 -->
      <g transform="translate(951.59481 682.6615)scale(0.12 -0.12)">
       <defs>
        <path d="M 19.09375 34.234375 
Q 12.0625 37.890625 9.5 41.546875 
Q 6.9375 45.21875 6.9375 50.09375 
Q 6.9375 57.421875 12.96875 62.171875 
Q 19 66.9375 27.984375 66.9375 
Q 36.078125 66.9375 41.375 63.125 
Q 46.6875 59.328125 46.6875 53.265625 
Q 46.6875 44.234375 33.84375 36.765625 
Q 43.609375 32.03125 47.09375 27.75 
Q 50.59375 23.484375 50.59375 17.578125 
Q 50.59375 9.421875 43.40625 4.078125 
Q 36.234375 -1.265625 26.265625 -1.265625 
Q 16.265625 -1.265625 9.90625 3.296875 
Q 3.5625 7.859375 3.5625 15.4375 
Q 3.5625 26.8125 19.09375 34.234375 
z
M 22.5625 32.421875 
Q 12.546875 26.703125 12.546875 16.609375 
Q 12.546875 10.203125 16.375 6.421875 
Q 20.21875 2.640625 26.90625 2.640625 
Q 33.015625 2.640625 37.140625 6.03125 
Q 41.265625 9.421875 41.265625 14.84375 
Q 41.265625 20.015625 37.5 23.75 
Q 33.734375 27.484375 22.5625 32.421875 
z
M 30.21875 38.625 
Q 37.984375 44.234375 37.984375 51.8125 
Q 37.984375 57.234375 34.859375 60.1875 
Q 31.734375 63.140625 26.609375 63.140625 
Q 21.4375 63.140625 18.140625 60.453125 
Q 14.84375 57.765625 14.84375 53.125 
Q 14.84375 48.484375 18.40625 45.40625 
Q 21.96875 42.328125 30.21875 38.625 
z
" id="Constantia-56"/>
       </defs>
       <use xlink:href="#Constantia-49"/>
       <use x="31.298828" xlink:href="#Constantia-56"/>
      </g>
      <!-- Sun -->
      <g transform="translate(946.724498 696.104875)scale(0.12 -0.12)">
       <use xlink:href="#Constantia-83"/>
       <use x="50.976562" xlink:href="#Constantia-117"/>
       <use x="107.910156" xlink:href="#Constantia-110"/>
      </g>
     </g>
    </g>
    <g id="xtick_16">
     <g id="line2d_50">
      <path clip-path="url(#p52fb4c57c1)" d="M 1036.919622 669.832125 
L 1036.919622 38.9273 
" style="fill:none;stroke:#000000;stroke-dasharray:1,3;stroke-dashoffset:0;stroke-width:0.5;"/>
     </g>
     <g id="line2d_51">
      <g>
       <use style="stroke:#000000;stroke-width:0.5;" x="1036.919622" xlink:href="#ma6139f5e6d" y="669.832125"/>
      </g>
     </g>
     <g id="line2d_52">
      <g>
       <use style="stroke:#000000;stroke-width:0.5;" x="1036.919622" xlink:href="#m665e6482a4" y="38.9273"/>
      </g>
     </g>
     <g id="text_16">
      <!-- 25 -->
      <g transform="translate(1031.159622 682.6615)scale(0.12 -0.12)">
       <defs>
        <path d="M 6.453125 16.796875 
L 9.28125 45.3125 
Q 15.375 45.125 23.875 45.125 
Q 33.6875 45.125 42.28125 45.3125 
L 42.578125 44.921875 
L 41.359375 36.859375 
L 13.1875 37.546875 
L 11.8125 23.78125 
Q 15.96875 24.46875 19.625 24.46875 
Q 30.8125 24.46875 37.46875 19.046875 
Q 44.140625 13.625 44.140625 4.15625 
Q 44.140625 -7.953125 32.984375 -15.15625 
Q 21.828125 -22.359375 4.890625 -22.46875 
L 4.390625 -18.84375 
Q 17.71875 -18.359375 26.09375 -12.796875 
Q 34.46875 -7.234375 34.46875 2.203125 
Q 34.46875 9.46875 29.5625 13.46875 
Q 24.65625 17.484375 15.765625 17.484375 
Q 11.328125 17.484375 6.734375 16.453125 
z
" id="Constantia-53"/>
       </defs>
       <use xlink:href="#Constantia-50"/>
       <use x="48.4375" xlink:href="#Constantia-53"/>
      </g>
      <!-- Sun -->
      <g transform="translate(1026.952122 696.104875)scale(0.12 -0.12)">
       <use xlink:href="#Constantia-83"/>
       <use x="50.976562" xlink:href="#Constantia-117"/>
       <use x="107.910156" xlink:href="#Constantia-110"/>
      </g>
     </g>
    </g>
    <g id="text_17">
     <!-- Date -->
     <g transform="translate(596.05932 755.319844)scale(0.15 -0.15)">
      <defs>
       <path d="M 17.484375 0 
Q 11.1875 0 4.5 -0.140625 
L 4.25 2.296875 
L 10.796875 4.109375 
Q 12.0625 4.5 12.109375 5.609375 
Q 12.15625 7.5625 12.171875 9.984375 
Q 12.203125 12.40625 12.203125 15.328125 
L 12.203125 54.25 
Q 12.203125 56.6875 12.171875 58.6875 
Q 12.15625 60.6875 12.109375 62.359375 
Q 12.0625 63.625 10.9375 63.96875 
L 4.390625 65.875 
L 4.25 68.359375 
Q 11.078125 68.171875 17.328125 68.171875 
Q 22.609375 68.171875 27.4375 68.40625 
Q 32.28125 68.65625 37.453125 68.65625 
Q 55.671875 68.65625 64.84375 60.859375 
Q 74.03125 53.078125 74.03125 37.75 
Q 74.03125 19.671875 63.84375 9.6875 
Q 53.65625 -0.296875 35.203125 -0.296875 
Q 30.125 -0.296875 26.171875 -0.140625 
Q 22.21875 0 17.484375 0 
z
M 26.859375 4.984375 
Q 29.203125 4.546875 31.4375 4.421875 
Q 33.6875 4.296875 35.984375 4.296875 
Q 46.578125 4.296875 52.09375 11.765625 
Q 57.625 19.234375 57.625 34.515625 
Q 57.625 49.421875 52.34375 56.609375 
Q 47.078125 63.8125 35.75 63.8125 
Q 31.546875 63.8125 26.859375 63.421875 
z
" id="Constantia-Bold-68"/>
       <path d="M 31 21.734375 
Q 23.34375 21.734375 20.0625 19.78125 
Q 16.796875 17.828125 16.796875 13.09375 
Q 16.796875 8.796875 19.109375 6.953125 
Q 21.4375 5.125 24.609375 5.125 
Q 28.21875 5.125 30.90625 6.984375 
z
M 7.125 41.890625 
Q 17.53125 46.625 27.15625 46.625 
Q 35.9375 46.625 40.296875 42.6875 
Q 44.671875 38.765625 44.625 31.390625 
L 44.390625 11.078125 
Q 44.28125 8.59375 44.46875 7.078125 
Q 44.671875 5.5625 45.375 4.75 
Q 46.09375 3.953125 47.484375 3.609375 
Q 48.875 3.265625 51.515625 3.21875 
L 51.8125 0.984375 
Q 44.96875 -1.375 40.046875 -1.375 
Q 33.40625 -1.375 31.296875 3.859375 
Q 25.09375 -1.375 18.171875 -1.375 
Q 11.375 -1.375 6.984375 2.015625 
Q 2.59375 5.421875 2.59375 11.578125 
Q 2.59375 19.234375 9.6875 22.796875 
Q 16.796875 26.375 31 26.375 
L 31.0625 30.03125 
Q 31.109375 35.25 28.546875 37.71875 
Q 25.984375 40.1875 20.5625 40.1875 
Q 15.53125 40.1875 8.5 37.984375 
z
" id="Constantia-Bold-97"/>
       <path d="M 22.125 39.546875 
Q 21.828125 24.3125 21.828125 13.71875 
Q 21.828125 8.796875 23.34375 6.90625 
Q 24.859375 5.03125 29.15625 5.03125 
Q 32.46875 5.03125 36.375 5.421875 
L 36.765625 2.484375 
Q 29 -1.3125 22.265625 -1.3125 
Q 15.4375 -1.3125 11.6875 1.53125 
Q 7.953125 4.390625 7.953125 10.15625 
Q 7.953125 20.3125 8.25 39.796875 
L 1.65625 41.5 
L 1.21875 44.140625 
L 9.375 44.875 
L 14.015625 56.34375 
Q 18.171875 57.078125 21.578125 57.765625 
L 22.265625 57.421875 
Q 22.125 51.515625 22.125 44.875 
L 35.796875 44.875 
L 35.796875 39.546875 
z
" id="Constantia-Bold-116"/>
       <path d="M 49.90625 3.21875 
Q 40.875 -1.375 30.859375 -1.375 
Q 18.953125 -1.375 11.40625 4.515625 
Q 3.859375 10.40625 3.859375 21.875 
Q 3.859375 32.8125 11.109375 39.71875 
Q 18.359375 46.625 29.59375 46.625 
Q 39.40625 46.625 44.75 41.328125 
Q 50.09375 36.03125 50.09375 26.703125 
Q 50.09375 25.296875 49.953125 23.78125 
L 18.75 23.78125 
Q 18.75 13.96875 23.5625 9.671875 
Q 28.375 5.375 39.359375 5.375 
Q 44.671875 5.375 49.515625 6.296875 
z
M 35.25 28.515625 
L 35.25 29.6875 
Q 35.25 36.328125 33.5625 39.203125 
Q 31.890625 42.09375 28.421875 42.09375 
Q 24.265625 42.09375 21.796875 38.109375 
Q 19.34375 34.125 18.953125 28.515625 
z
" id="Constantia-Bold-101"/>
      </defs>
      <use xlink:href="#Constantia-Bold-68"/>
      <use x="77.705078" xlink:href="#Constantia-Bold-97"/>
      <use x="131.269531" xlink:href="#Constantia-Bold-116"/>
      <use x="170.234375" xlink:href="#Constantia-Bold-101"/>
     </g>
    </g>
   </g>
   <g id="matplotlib.axis_2">
    <g id="ytick_1">
     <g id="line2d_53">
      <path clip-path="url(#p52fb4c57c1)" d="M 74.188125 669.832125 
L 1151.530515 669.832125 
" style="fill:none;stroke:#000000;stroke-dasharray:1,3;stroke-dashoffset:0;stroke-width:0.5;"/>
     </g>
     <g id="line2d_54">
      <defs>
       <path d="M 0 0 
L 4 0 
" id="m369027cfd4" style="stroke:#000000;stroke-width:0.5;"/>
      </defs>
      <g>
       <use style="stroke:#000000;stroke-width:0.5;" x="74.188125" xlink:href="#m369027cfd4" y="669.832125"/>
      </g>
     </g>
     <g id="line2d_55">
      <defs>
       <path d="M 0 0 
L -4 0 
" id="m47138617cd" style="stroke:#000000;stroke-width:0.5;"/>
      </defs>
      <g>
       <use style="stroke:#000000;stroke-width:0.5;" x="1151.530515" xlink:href="#m47138617cd" y="669.832125"/>
      </g>
     </g>
     <g id="text_18">
      <!-- 0.000K -->
      <g transform="translate(33.35375 672.82275)scale(0.12 -0.12)">
       <defs>
        <path d="M 13.09375 10.25 
Q 15.625 10.25 17.25 8.65625 
Q 18.890625 7.078125 18.890625 4.5 
Q 18.890625 1.90625 17.25 0.265625 
Q 15.625 -1.375 13.09375 -1.375 
Q 10.40625 -1.375 8.78125 0.265625 
Q 7.171875 1.90625 7.171875 4.5 
Q 7.171875 7.078125 8.78125 8.65625 
Q 10.40625 10.25 13.09375 10.25 
z
" id="Constantia-46"/>
        <path d="M 21.78125 54.78125 
L 21.78125 14.984375 
Q 21.78125 12.0625 21.796875 9.671875 
Q 21.828125 7.28125 21.875 5.328125 
Q 21.921875 4.046875 23.140625 3.65625 
L 28.5625 1.953125 
L 28.71875 -0.140625 
Q 22.90625 0 17.09375 0 
Q 11.1875 0 4.984375 -0.140625 
L 4.78125 1.953125 
L 10.796875 3.765625 
Q 12.0625 4.15625 12.109375 5.28125 
Q 12.15625 7.234375 12.171875 9.640625 
Q 12.203125 12.0625 12.203125 14.984375 
L 12.203125 54.59375 
Q 12.203125 57.078125 12.171875 59.078125 
Q 12.15625 61.078125 12.109375 62.703125 
Q 12.0625 63.96875 10.9375 64.359375 
L 4.890625 66.265625 
L 4.78125 68.359375 
Q 11.078125 68.171875 16.890625 68.171875 
Q 22.703125 68.171875 28.46875 68.359375 
L 28.71875 66.265625 
L 23.140625 64.546875 
Q 21.96875 64.265625 21.875 63.03125 
Q 21.828125 61.28125 21.796875 59.21875 
Q 21.78125 57.171875 21.78125 54.78125 
z
M 23.046875 34.578125 
L 42.71875 56.5 
Q 45.015625 59.078125 46.4375 60.859375 
Q 47.859375 62.640625 47.859375 63.71875 
Q 47.859375 64.703125 46.53125 65.046875 
L 42.53125 66.109375 
L 42.4375 68.359375 
Q 47.265625 68.171875 53.21875 68.171875 
Q 58.9375 68.171875 63.96875 68.359375 
L 64.15625 66.265625 
L 59.234375 64.703125 
Q 56.984375 63.96875 55.34375 62.453125 
Q 53.71875 60.9375 51.859375 58.890625 
L 32.328125 37.40625 
L 54.546875 8.109375 
Q 55.953125 6.25 57.3125 5.09375 
Q 58.6875 3.953125 60.890625 3.328125 
L 65.328125 1.953125 
L 65.4375 -0.140625 
Q 61.328125 0 55.03125 0 
Q 53.375 0 51.65625 -0.015625 
Q 49.953125 -0.046875 48.25 -0.09375 
Q 46.53125 3.421875 39.203125 13.140625 
z
" id="Constantia-75"/>
       </defs>
       <use xlink:href="#Constantia-48"/>
       <use x="53.857422" xlink:href="#Constantia-46"/>
       <use x="79.443359" xlink:href="#Constantia-48"/>
       <use x="133.300781" xlink:href="#Constantia-48"/>
       <use x="187.158203" xlink:href="#Constantia-48"/>
       <use x="241.015625" xlink:href="#Constantia-75"/>
      </g>
     </g>
    </g>
    <g id="ytick_2">
     <g id="line2d_56">
      <path clip-path="url(#p52fb4c57c1)" d="M 74.188125 599.731589 
L 1151.530515 599.731589 
" style="fill:none;stroke:#000000;stroke-dasharray:1,3;stroke-dashoffset:0;stroke-width:0.5;"/>
     </g>
     <g id="line2d_57">
      <g>
       <use style="stroke:#000000;stroke-width:0.5;" x="74.188125" xlink:href="#m369027cfd4" y="599.731589"/>
      </g>
     </g>
     <g id="line2d_58">
      <g>
       <use style="stroke:#000000;stroke-width:0.5;" x="1151.530515" xlink:href="#m47138617cd" y="599.731589"/>
      </g>
     </g>
     <g id="text_19">
      <!-- 10.000K -->
      <g transform="translate(29.598125 602.722214)scale(0.12 -0.12)">
       <use xlink:href="#Constantia-49"/>
       <use x="31.298828" xlink:href="#Constantia-48"/>
       <use x="85.15625" xlink:href="#Constantia-46"/>
       <use x="110.742188" xlink:href="#Constantia-48"/>
       <use x="164.599609" xlink:href="#Constantia-48"/>
       <use x="218.457031" xlink:href="#Constantia-48"/>
       <use x="272.314453" xlink:href="#Constantia-75"/>
      </g>
     </g>
    </g>
    <g id="ytick_3">
     <g id="line2d_59">
      <path clip-path="url(#p52fb4c57c1)" d="M 74.188125 529.631053 
L 1151.530515 529.631053 
" style="fill:none;stroke:#000000;stroke-dasharray:1,3;stroke-dashoffset:0;stroke-width:0.5;"/>
     </g>
     <g id="line2d_60">
      <g>
       <use style="stroke:#000000;stroke-width:0.5;" x="74.188125" xlink:href="#m369027cfd4" y="529.631053"/>
      </g>
     </g>
     <g id="line2d_61">
      <g>
       <use style="stroke:#000000;stroke-width:0.5;" x="1151.530515" xlink:href="#m47138617cd" y="529.631053"/>
      </g>
     </g>
     <g id="text_20">
      <!-- 20.000K -->
      <g transform="translate(27.54125 532.621678)scale(0.12 -0.12)">
       <use xlink:href="#Constantia-50"/>
       <use x="48.4375" xlink:href="#Constantia-48"/>
       <use x="102.294922" xlink:href="#Constantia-46"/>
       <use x="127.880859" xlink:href="#Constantia-48"/>
       <use x="181.738281" xlink:href="#Constantia-48"/>
       <use x="235.595703" xlink:href="#Constantia-48"/>
       <use x="289.453125" xlink:href="#Constantia-75"/>
      </g>
     </g>
    </g>
    <g id="ytick_4">
     <g id="line2d_62">
      <path clip-path="url(#p52fb4c57c1)" d="M 74.188125 459.530517 
L 1151.530515 459.530517 
" style="fill:none;stroke:#000000;stroke-dasharray:1,3;stroke-dashoffset:0;stroke-width:0.5;"/>
     </g>
     <g id="line2d_63">
      <g>
       <use style="stroke:#000000;stroke-width:0.5;" x="74.188125" xlink:href="#m369027cfd4" y="459.530517"/>
      </g>
     </g>
     <g id="line2d_64">
      <g>
       <use style="stroke:#000000;stroke-width:0.5;" x="1151.530515" xlink:href="#m47138617cd" y="459.530517"/>
      </g>
     </g>
     <g id="text_21">
      <!-- 30.000K -->
      <g transform="translate(27.875 462.521142)scale(0.12 -0.12)">
       <use xlink:href="#Constantia-51"/>
       <use x="45.654297" xlink:href="#Constantia-48"/>
       <use x="99.511719" xlink:href="#Constantia-46"/>
       <use x="125.097656" xlink:href="#Constantia-48"/>
       <use x="178.955078" xlink:href="#Constantia-48"/>
       <use x="232.8125" xlink:href="#Constantia-48"/>
       <use x="286.669922" xlink:href="#Constantia-75"/>
      </g>
     </g>
    </g>
    <g id="ytick_5">
     <g id="line2d_65">
      <path clip-path="url(#p52fb4c57c1)" d="M 74.188125 389.429981 
L 1151.530515 389.429981 
" style="fill:none;stroke:#000000;stroke-dasharray:1,3;stroke-dashoffset:0;stroke-width:0.5;"/>
     </g>
     <g id="line2d_66">
      <g>
       <use style="stroke:#000000;stroke-width:0.5;" x="74.188125" xlink:href="#m369027cfd4" y="389.429981"/>
      </g>
     </g>
     <g id="line2d_67">
      <g>
       <use style="stroke:#000000;stroke-width:0.5;" x="1151.530515" xlink:href="#m47138617cd" y="389.429981"/>
      </g>
     </g>
     <g id="text_22">
      <!-- 40.000K -->
      <g transform="translate(26.984375 392.420606)scale(0.12 -0.12)">
       <use xlink:href="#Constantia-52"/>
       <use x="53.076172" xlink:href="#Constantia-48"/>
       <use x="106.933594" xlink:href="#Constantia-46"/>
       <use x="132.519531" xlink:href="#Constantia-48"/>
       <use x="186.376953" xlink:href="#Constantia-48"/>
       <use x="240.234375" xlink:href="#Constantia-48"/>
       <use x="294.091797" xlink:href="#Constantia-75"/>
      </g>
     </g>
    </g>
    <g id="ytick_6">
     <g id="line2d_68">
      <path clip-path="url(#p52fb4c57c1)" d="M 74.188125 319.329444 
L 1151.530515 319.329444 
" style="fill:none;stroke:#000000;stroke-dasharray:1,3;stroke-dashoffset:0;stroke-width:0.5;"/>
     </g>
     <g id="line2d_69">
      <g>
       <use style="stroke:#000000;stroke-width:0.5;" x="74.188125" xlink:href="#m369027cfd4" y="319.329444"/>
      </g>
     </g>
     <g id="line2d_70">
      <g>
       <use style="stroke:#000000;stroke-width:0.5;" x="1151.530515" xlink:href="#m47138617cd" y="319.329444"/>
      </g>
     </g>
     <g id="text_23">
      <!-- 50.000K -->
      <g transform="translate(27.64625 322.320069)scale(0.12 -0.12)">
       <use xlink:href="#Constantia-53"/>
       <use x="47.558594" xlink:href="#Constantia-48"/>
       <use x="101.416016" xlink:href="#Constantia-46"/>
       <use x="127.001953" xlink:href="#Constantia-48"/>
       <use x="180.859375" xlink:href="#Constantia-48"/>
       <use x="234.716797" xlink:href="#Constantia-48"/>
       <use x="288.574219" xlink:href="#Constantia-75"/>
      </g>
     </g>
    </g>
    <g id="ytick_7">
     <g id="line2d_71">
      <path clip-path="url(#p52fb4c57c1)" d="M 74.188125 249.228908 
L 1151.530515 249.228908 
" style="fill:none;stroke:#000000;stroke-dasharray:1,3;stroke-dashoffset:0;stroke-width:0.5;"/>
     </g>
     <g id="line2d_72">
      <g>
       <use style="stroke:#000000;stroke-width:0.5;" x="74.188125" xlink:href="#m369027cfd4" y="249.228908"/>
      </g>
     </g>
     <g id="line2d_73">
      <g>
       <use style="stroke:#000000;stroke-width:0.5;" x="1151.530515" xlink:href="#m47138617cd" y="249.228908"/>
      </g>
     </g>
     <g id="text_24">
      <!-- 60.000K -->
      <g transform="translate(26.860625 252.219533)scale(0.12 -0.12)">
       <use xlink:href="#Constantia-54"/>
       <use x="54.101562" xlink:href="#Constantia-48"/>
       <use x="107.958984" xlink:href="#Constantia-46"/>
       <use x="133.544922" xlink:href="#Constantia-48"/>
       <use x="187.402344" xlink:href="#Constantia-48"/>
       <use x="241.259766" xlink:href="#Constantia-48"/>
       <use x="295.117188" xlink:href="#Constantia-75"/>
      </g>
     </g>
    </g>
    <g id="ytick_8">
     <g id="line2d_74">
      <path clip-path="url(#p52fb4c57c1)" d="M 74.188125 179.128372 
L 1151.530515 179.128372 
" style="fill:none;stroke:#000000;stroke-dasharray:1,3;stroke-dashoffset:0;stroke-width:0.5;"/>
     </g>
     <g id="line2d_75">
      <g>
       <use style="stroke:#000000;stroke-width:0.5;" x="74.188125" xlink:href="#m369027cfd4" y="179.128372"/>
      </g>
     </g>
     <g id="line2d_76">
      <g>
       <use style="stroke:#000000;stroke-width:0.5;" x="1151.530515" xlink:href="#m47138617cd" y="179.128372"/>
      </g>
     </g>
     <g id="text_25">
      <!-- 70.000K -->
      <g transform="translate(27.5525 182.118997)scale(0.12 -0.12)">
       <use xlink:href="#Constantia-55"/>
       <use x="48.339844" xlink:href="#Constantia-48"/>
       <use x="102.197266" xlink:href="#Constantia-46"/>
       <use x="127.783203" xlink:href="#Constantia-48"/>
       <use x="181.640625" xlink:href="#Constantia-48"/>
       <use x="235.498047" xlink:href="#Constantia-48"/>
       <use x="289.355469" xlink:href="#Constantia-75"/>
      </g>
     </g>
    </g>
    <g id="ytick_9">
     <g id="line2d_77">
      <path clip-path="url(#p52fb4c57c1)" d="M 74.188125 109.027836 
L 1151.530515 109.027836 
" style="fill:none;stroke:#000000;stroke-dasharray:1,3;stroke-dashoffset:0;stroke-width:0.5;"/>
     </g>
     <g id="line2d_78">
      <g>
       <use style="stroke:#000000;stroke-width:0.5;" x="74.188125" xlink:href="#m369027cfd4" y="109.027836"/>
      </g>
     </g>
     <g id="line2d_79">
      <g>
       <use style="stroke:#000000;stroke-width:0.5;" x="1151.530515" xlink:href="#m47138617cd" y="109.027836"/>
      </g>
     </g>
     <g id="text_26">
      <!-- 80.000K -->
      <g transform="translate(26.915 112.018461)scale(0.12 -0.12)">
       <use xlink:href="#Constantia-56"/>
       <use x="53.662109" xlink:href="#Constantia-48"/>
       <use x="107.519531" xlink:href="#Constantia-46"/>
       <use x="133.105469" xlink:href="#Constantia-48"/>
       <use x="186.962891" xlink:href="#Constantia-48"/>
       <use x="240.820312" xlink:href="#Constantia-48"/>
       <use x="294.677734" xlink:href="#Constantia-75"/>
      </g>
     </g>
    </g>
    <g id="ytick_10">
     <g id="line2d_80">
      <path clip-path="url(#p52fb4c57c1)" d="M 74.188125 38.9273 
L 1151.530515 38.9273 
" style="fill:none;stroke:#000000;stroke-dasharray:1,3;stroke-dashoffset:0;stroke-width:0.5;"/>
     </g>
     <g id="line2d_81">
      <g>
       <use style="stroke:#000000;stroke-width:0.5;" x="74.188125" xlink:href="#m369027cfd4" y="38.9273"/>
      </g>
     </g>
     <g id="line2d_82">
      <g>
       <use style="stroke:#000000;stroke-width:0.5;" x="1151.530515" xlink:href="#m47138617cd" y="38.9273"/>
      </g>
     </g>
     <g id="text_27">
      <!-- 90.000K -->
      <g transform="translate(26.796875 41.917925)scale(0.12 -0.12)">
       <use xlink:href="#Constantia-57"/>
       <use x="54.638672" xlink:href="#Constantia-48"/>
       <use x="108.496094" xlink:href="#Constantia-46"/>
       <use x="134.082031" xlink:href="#Constantia-48"/>
       <use x="187.939453" xlink:href="#Constantia-48"/>
       <use x="241.796875" xlink:href="#Constantia-48"/>
       <use x="295.654297" xlink:href="#Constantia-75"/>
      </g>
     </g>
    </g>
    <g id="text_28">
     <!-- Values -->
     <g transform="translate(18.236719 377.491431)rotate(-90)scale(0.15 -0.15)">
      <defs>
       <path d="M 35.9375 24.3125 
Q 36.859375 21.53125 37.640625 18.953125 
Q 38.53125 21.53125 39.5 24.265625 
L 51.265625 55.609375 
Q 52.25 58.34375 52.8125 59.953125 
Q 53.375 61.578125 53.375 62.5 
Q 53.375 63.328125 52.90625 63.765625 
Q 52.4375 64.203125 51.515625 64.453125 
L 46.875 65.765625 
L 46.734375 68.359375 
Q 53.8125 68.171875 58.25 68.171875 
Q 62.890625 68.171875 68.796875 68.359375 
L 69.09375 65.875 
L 63.8125 64.359375 
Q 62.015625 63.765625 61.125 62.546875 
Q 60.25 61.328125 59.1875 58.734375 
L 35.203125 -0.25 
L 30.078125 -0.734375 
L 9.125 58.15625 
Q 7.90625 61.53125 6.90625 62.71875 
Q 5.90625 63.921875 4.046875 64.5 
L -0.6875 65.875 
L -0.875 68.359375 
Q 5.765625 68.171875 12.40625 68.171875 
Q 21.234375 68.171875 29.640625 68.359375 
L 29.890625 65.875 
L 25.09375 64.5 
Q 24.125 64.203125 23.6875 63.765625 
Q 23.25 63.328125 23.25 62.453125 
Q 23.25 61.46875 23.734375 59.875 
Q 24.21875 58.296875 25.140625 55.671875 
z
" id="Constantia-Bold-86"/>
       <path d="M 1.859375 69.828125 
Q 14.0625 71.625 23.140625 73.578125 
L 23.6875 73.1875 
Q 23.390625 66.453125 23.390625 58.84375 
L 23.390625 13.671875 
Q 23.390625 7.859375 23.484375 5.5625 
Q 23.578125 4.25 24.703125 3.90625 
L 30.8125 2.203125 
L 30.953125 -0.140625 
Q 23.734375 0 16.609375 0 
Q 9.328125 0 2.25 -0.140625 
L 2 2.203125 
L 8.203125 3.90625 
Q 9.328125 4.203125 9.421875 5.375 
Q 9.515625 7.28125 9.515625 11.765625 
L 9.515625 54.109375 
Q 9.515625 60.5 9.328125 65.875 
L 2.15625 67.828125 
z
" id="Constantia-Bold-108"/>
       <path d="M 39.84375 3.90625 
Q 32.671875 -1.375 24.21875 -1.375 
Q 16.3125 -1.375 12.296875 2.53125 
Q 8.296875 6.453125 8.296875 13.53125 
L 8.296875 23.875 
Q 8.296875 34.328125 8.109375 39.265625 
L 1.125 41.0625 
L 0.828125 43.0625 
Q 12.796875 44.875 21.921875 46.828125 
L 22.46875 46.4375 
Q 22.171875 40.328125 22.171875 31.34375 
L 22.171875 16.3125 
Q 22.171875 10.5 24.4375 7.890625 
Q 26.703125 5.28125 30.859375 5.28125 
Q 35.5 5.28125 39.359375 7.28125 
L 39.359375 28.078125 
Q 39.359375 34.90625 39.15625 39.359375 
L 32.5625 41.0625 
L 32.28125 43.0625 
Q 43.84375 44.875 52.9375 46.828125 
L 53.515625 46.4375 
Q 53.171875 40.1875 53.171875 31.0625 
Q 53.171875 13.328125 53.21875 9.421875 
Q 53.265625 7.46875 53.515625 6.265625 
Q 53.765625 5.078125 54.4375 4.4375 
Q 55.125 3.8125 56.46875 3.53125 
Q 57.8125 3.265625 60.296875 3.21875 
L 60.546875 1.078125 
Q 53.515625 -1.375 48.4375 -1.375 
Q 41.890625 -1.375 39.84375 3.90625 
z
" id="Constantia-Bold-117"/>
       <path d="M 31.9375 41.109375 
Q 28.859375 41.84375 25.296875 41.84375 
Q 20.84375 41.84375 18.03125 40.28125 
Q 15.234375 38.71875 15.234375 35.84375 
Q 15.234375 33.640625 16.453125 32.4375 
Q 17.671875 31.25 20.65625 30.21875 
L 28.46875 27.484375 
Q 35.453125 25.09375 38.671875 21.703125 
Q 41.890625 18.3125 41.890625 13.765625 
Q 41.890625 6.59375 35.859375 2.609375 
Q 29.828125 -1.375 20.015625 -1.375 
Q 11.8125 -1.375 3.90625 2 
Q 5.5625 8.546875 6.640625 14.703125 
L 9.125 15.09375 
L 12.640625 4.4375 
Q 15.625 3.421875 20.125 3.421875 
Q 24.359375 3.421875 27 5.03125 
Q 29.640625 6.640625 29.640625 9.515625 
Q 29.640625 11.921875 28.046875 13.546875 
Q 26.46875 15.1875 21.734375 16.796875 
L 15.765625 18.84375 
Q 10.0625 20.84375 7.171875 24.046875 
Q 4.296875 27.25 4.296875 31.890625 
Q 4.296875 39.015625 9.90625 42.8125 
Q 15.53125 46.625 25.390625 46.625 
Q 33.5 46.625 40.046875 44.234375 
Q 38.578125 37.84375 37.546875 32.125 
L 34.859375 31.734375 
z
" id="Constantia-Bold-115"/>
      </defs>
      <use xlink:href="#Constantia-Bold-86"/>
      <use x="59.558594" xlink:href="#Constantia-Bold-97"/>
      <use x="113.123047" xlink:href="#Constantia-Bold-108"/>
      <use x="146.033203" xlink:href="#Constantia-Bold-117"/>
      <use x="208.728516" xlink:href="#Constantia-Bold-101"/>
      <use x="262.488281" xlink:href="#Constantia-Bold-115"/>
     </g>
    </g>
   </g>
   <g id="text_29">
    <!-- Top 10 continents -->
    <g transform="translate(558.31707 17.79525)scale(0.144 -0.144)">
     <defs>
      <path d="M 30.765625 0 
Q 24.75 0 17.484375 -0.140625 
L 17.28125 1.953125 
L 24.515625 4.109375 
Q 25.734375 4.4375 25.78125 5.609375 
Q 25.875 9.328125 25.875 15.09375 
L 25.875 63.8125 
L 8.640625 63.8125 
L 4.296875 50.828125 
L 2.34375 50.484375 
L 1.078125 67.96875 
L 1.421875 68.359375 
Q 13.421875 68.171875 24.421875 68.171875 
L 37.453125 68.171875 
Q 48.390625 68.171875 60.546875 68.359375 
L 60.84375 67.96875 
L 57.765625 50.828125 
L 55.8125 50.484375 
L 52.6875 63.8125 
L 35.453125 63.8125 
L 35.453125 15.09375 
Q 35.453125 9.328125 35.546875 5.609375 
Q 35.59375 4.4375 36.8125 4.109375 
L 44.046875 1.953125 
L 44.140625 -0.140625 
Q 36.578125 0 30.765625 0 
z
" id="Constantia-84"/>
      <path id="Constantia-32"/>
      <path d="M 19.34375 63.671875 
Q 19.34375 61.078125 17.71875 59.4375 
Q 16.109375 57.8125 13.578125 57.8125 
Q 11.140625 57.8125 9.59375 59.328125 
Q 8.0625 60.84375 8.0625 63.328125 
Q 8.0625 65.96875 9.671875 67.5 
Q 11.28125 69.046875 13.921875 69.046875 
Q 16.3125 69.046875 17.828125 67.65625 
Q 19.34375 66.265625 19.34375 63.671875 
z
M 2.828125 42.96875 
Q 11.375 44.578125 18.65625 46.390625 
L 19.09375 46.046875 
Q 18.796875 39.703125 18.796875 32.078125 
L 18.796875 13.328125 
Q 18.796875 7.46875 18.890625 5.21875 
Q 19 3.90625 20.125 3.515625 
L 25.78125 1.859375 
L 25.875 -0.140625 
Q 19.140625 0 14.359375 0 
Q 9.578125 0 2.984375 -0.140625 
L 2.78125 1.859375 
L 8.453125 3.515625 
Q 9.578125 3.90625 9.671875 5.03125 
Q 9.765625 6.9375 9.765625 11.421875 
L 9.765625 27.734375 
Q 9.765625 34.125 9.578125 39.546875 
L 3.078125 41.3125 
z
" id="Constantia-105"/>
      <path d="M 27.875 41.453125 
Q 25.046875 42.234375 21.734375 42.234375 
Q 17.140625 42.234375 14.328125 40.453125 
Q 11.53125 38.671875 11.53125 35.59375 
Q 11.53125 32.625 13.359375 30.90625 
Q 15.1875 29.203125 20.171875 27.546875 
L 24.171875 26.171875 
Q 30.90625 23.875 34.046875 20.921875 
Q 37.203125 17.96875 37.203125 13.1875 
Q 37.203125 6.390625 31.921875 2.5 
Q 26.65625 -1.375 18.609375 -1.375 
Q 11.1875 -1.375 3.421875 1.65625 
Q 5.078125 8.015625 6.109375 14.0625 
L 8.015625 14.359375 
L 11.53125 3.859375 
Q 14.3125 2.78125 18.609375 2.78125 
Q 23.140625 2.78125 25.84375 4.640625 
Q 28.5625 6.5 28.5625 9.859375 
Q 28.5625 12.984375 26.734375 14.796875 
Q 24.90625 16.609375 20.90625 17.921875 
L 15.828125 19.625 
Q 9.234375 21.828125 6.71875 24.921875 
Q 4.203125 28.03125 4.203125 32.625 
Q 4.203125 39.015625 9.0625 42.703125 
Q 13.921875 46.390625 21.875 46.390625 
Q 29.296875 46.390625 35.359375 44.234375 
Q 33.984375 38.671875 32.859375 32.46875 
L 31 32.125 
z
" id="Constantia-115"/>
     </defs>
     <use xlink:href="#Constantia-84"/>
     <use x="52.578125" xlink:href="#Constantia-111"/>
     <use x="106.630859" xlink:href="#Constantia-112"/>
     <use x="162.587891" xlink:href="#Constantia-32"/>
     <use x="187.685547" xlink:href="#Constantia-49"/>
     <use x="218.984375" xlink:href="#Constantia-48"/>
     <use x="272.841797" xlink:href="#Constantia-32"/>
     <use x="295.439453" xlink:href="#Constantia-99"/>
     <use x="341.582031" xlink:href="#Constantia-111"/>
     <use x="395.634766" xlink:href="#Constantia-110"/>
     <use x="453.837891" xlink:href="#Constantia-116"/>
     <use x="489.140625" xlink:href="#Constantia-105"/>
     <use x="517.460938" xlink:href="#Constantia-110"/>
     <use x="575.664062" xlink:href="#Constantia-101"/>
     <use x="623.564453" xlink:href="#Constantia-110"/>
     <use x="681.767578" xlink:href="#Constantia-116"/>
     <use x="717.070312" xlink:href="#Constantia-115"/>
    </g>
    <!-- by SeriousCritical -->
    <g transform="translate(557.879445 33.9273)scale(0.144 -0.144)">
     <defs>
      <path d="M 17.578125 4.15625 
Q 21.53125 2.875 25.59375 2.875 
Q 33.796875 2.875 37.921875 7.90625 
Q 42.046875 12.9375 42.046875 22.3125 
Q 42.046875 30.90625 38.234375 35.6875 
Q 34.421875 40.484375 26.953125 40.484375 
Q 22.171875 40.484375 17.578125 38.328125 
z
M 17.875 73.1875 
Q 17.578125 65.875 17.578125 51.171875 
L 17.578125 41.265625 
Q 25.4375 46.390625 31.984375 46.390625 
Q 41.15625 46.390625 46.484375 40.234375 
Q 51.8125 34.078125 51.8125 24.171875 
Q 51.8125 12.109375 44.953125 5.390625 
Q 38.09375 -1.3125 25.921875 -1.3125 
Q 17.828125 -1.3125 8.453125 1.46875 
Q 8.546875 7.671875 8.546875 17.4375 
L 8.546875 46.390625 
Q 8.546875 57.171875 8.34375 66.546875 
L 1.765625 68.5 
L 1.515625 70.125 
Q 9.515625 71.625 17.390625 73.578125 
z
" id="Constantia-98"/>
      <path d="M -1.703125 45.265625 
Q 4.4375 45.125 9.234375 45.125 
Q 12.5 45.125 19.671875 45.265625 
L 19.875 43.265625 
L 14.15625 41.703125 
Q 15.96875 36.578125 18.359375 30.390625 
Q 20.75 24.21875 23.4375 17.53125 
Q 24.5625 14.75 25.875 11.140625 
Q 27.25 14.796875 28.8125 18.609375 
Q 31.109375 24.265625 33.25 29.75 
Q 35.40625 35.25 37.703125 41.703125 
L 32.125 43.265625 
L 31.9375 45.265625 
Q 35.546875 45.125 40.375 45.125 
Q 44.734375 45.125 48.828125 45.265625 
L 49.078125 43.265625 
L 44.53125 42 
Q 43.015625 41.5 42.328125 39.984375 
Q 40.53125 35.84375 38.421875 30.90625 
Q 31.984375 15.765625 28.65625 6.109375 
Q 26.421875 -0.4375 24.609375 -7.296875 
Q 22.796875 -14.15625 21.828125 -19.09375 
Q 21.390625 -21.484375 20.046875 -22.71875 
Q 18.703125 -23.96875 13.765625 -23.96875 
Q 8.734375 -23.96875 4 -23.640625 
L 3.765625 -21.734375 
Q 9.125 -20.90625 11.71875 -18.265625 
Q 14.84375 -14.890625 21.390625 -0.34375 
L 21.78125 0.59375 
L 21.09375 0.78125 
Q 12.15625 23.046875 4.9375 39.9375 
Q 4.296875 41.40625 2.6875 41.9375 
L -1.609375 43.265625 
z
" id="Constantia-121"/>
      <path d="M 2.828125 42.96875 
Q 10.984375 44.53125 18.3125 46.390625 
L 18.796875 46.046875 
L 18.796875 40.328125 
Q 27.828125 46.390625 36.53125 46.390625 
L 36.765625 46.09375 
Q 35.359375 38.8125 33.984375 31 
L 32.03125 30.671875 
Q 30.671875 34.8125 29.390625 37.328125 
Q 28.125 39.84375 25.390625 39.84375 
Q 22.75 39.84375 18.796875 37.40625 
L 18.796875 16.265625 
Q 18.796875 8.640625 18.890625 5.375 
Q 18.953125 4.046875 20.125 3.71875 
L 26.609375 1.859375 
L 26.765625 -0.140625 
Q 19.140625 0 14.359375 0 
Q 9.578125 0 3.03125 -0.140625 
L 2.828125 1.859375 
L 8.5 3.515625 
Q 9.671875 3.90625 9.71875 5.03125 
Q 9.765625 7.125 9.765625 11.03125 
L 9.765625 27.6875 
Q 9.765625 35.640625 9.578125 39.546875 
L 3.078125 41.3125 
z
" id="Constantia-114"/>
      <path d="M 57.515625 51.3125 
L 55.5625 51.03125 
L 52 63.875 
Q 45.953125 65.375 41.015625 65.375 
Q 29.046875 65.375 22.203125 57.03125 
Q 15.375 48.6875 15.375 35.359375 
Q 15.375 21.09375 23.1875 12.59375 
Q 31 4.109375 44.828125 4.109375 
Q 52.59375 4.109375 61.1875 7.078125 
L 61.71875 4.890625 
Q 52.09375 -1.765625 39.9375 -1.765625 
Q 24.171875 -1.765625 14.5 7.859375 
Q 4.828125 17.484375 4.828125 33.203125 
Q 4.828125 49.953125 15.46875 59.71875 
Q 26.125 69.484375 43.3125 69.484375 
Q 51.5625 69.484375 60.203125 67.484375 
L 60.546875 67.09375 
z
" id="Constantia-67"/>
      <path d="M 30.125 22.125 
Q 19.4375 22.125 15.53125 20.015625 
Q 11.625 17.921875 11.625 12.9375 
Q 11.625 8.296875 14.203125 6.359375 
Q 16.796875 4.4375 21.234375 4.4375 
Q 26.265625 4.4375 30.03125 6.15625 
z
M 6.453125 42.234375 
Q 15.96875 46.390625 23.296875 46.390625 
Q 30.765625 46.390625 34.9375 42.484375 
Q 39.109375 38.578125 39.0625 31.203125 
L 38.8125 10.890625 
Q 38.765625 8.40625 38.9375 6.890625 
Q 39.109375 5.375 39.8125 4.5625 
Q 40.53125 3.765625 41.9375 3.4375 
Q 43.359375 3.125 45.75 3.078125 
L 46 1.171875 
Q 43.890625 0.34375 40.859375 -0.484375 
Q 37.84375 -1.3125 36.765625 -1.3125 
Q 32.03125 -1.3125 30.28125 3.5625 
Q 23.4375 -1.375 17.390625 -1.375 
Q 10.59375 -1.375 6.46875 1.96875 
Q 2.34375 5.328125 2.34375 11.421875 
Q 2.34375 18.953125 9.046875 22.515625 
Q 15.765625 26.078125 30.125 26.078125 
L 30.171875 29.890625 
Q 30.21875 35.359375 27.390625 37.984375 
Q 24.5625 40.625 18.703125 40.625 
Q 14.265625 40.625 7.5625 38.96875 
z
" id="Constantia-97"/>
      <path d="M 2.734375 68.5 
L 2.484375 70.125 
Q 11.140625 71.78125 18.40625 73.578125 
L 18.84375 73.1875 
Q 18.5625 65.234375 18.5625 51.078125 
L 18.5625 19.28125 
Q 18.5625 10.546875 18.65625 5.21875 
Q 18.796875 3.8125 20.015625 3.46875 
L 25.34375 1.859375 
L 25.484375 -0.140625 
Q 18.890625 0 14.109375 0 
Q 9.328125 0 2.78125 -0.140625 
L 2.59375 1.859375 
L 8.109375 3.46875 
Q 9.328125 3.859375 9.421875 5.03125 
Q 9.515625 10.546875 9.515625 17.328125 
L 9.515625 37.40625 
Q 9.515625 55.5625 9.328125 66.546875 
z
" id="Constantia-108"/>
     </defs>
     <use xlink:href="#Constantia-98"/>
     <use x="55.712891" xlink:href="#Constantia-121"/>
     <use x="103.857422" xlink:href="#Constantia-32"/>
     <use x="128.955078" xlink:href="#Constantia-83"/>
     <use x="179.931641" xlink:href="#Constantia-101"/>
     <use x="227.832031" xlink:href="#Constantia-114"/>
     <use x="266.162109" xlink:href="#Constantia-105"/>
     <use x="294.482422" xlink:href="#Constantia-111"/>
     <use x="348.535156" xlink:href="#Constantia-117"/>
     <use x="405.46875" xlink:href="#Constantia-115"/>
     <use x="445.947266" xlink:href="#Constantia-67"/>
     <use x="511.083984" xlink:href="#Constantia-114"/>
     <use x="549.414062" xlink:href="#Constantia-105"/>
     <use x="577.734375" xlink:href="#Constantia-116"/>
     <use x="613.037109" xlink:href="#Constantia-105"/>
     <use x="641.357422" xlink:href="#Constantia-99"/>
     <use x="687.5" xlink:href="#Constantia-97"/>
     <use x="735.498047" xlink:href="#Constantia-108"/>
    </g>
   </g>
   <g id="legend_1">
    <g id="patch_7">
     <path d="M 1162.607857 261.1648 
L 1363.685982 261.1648 
L 1363.685982 48.9273 
L 1162.607857 48.9273 
z
" style="fill:#ffffff;stroke:#000000;stroke-linejoin:miter;"/>
    </g>
    <g id="line2d_83">
     <path d="M 1176.607857 64.642925 
L 1204.607857 64.642925 
" style="fill:none;stroke:#ffd700;stroke-linecap:square;stroke-width:3;"/>
    </g>
    <g id="line2d_84"/>
    <g id="text_30">
     <!-- Oceania -->
     <g transform="translate(1226.607857 71.642925)scale(0.2 -0.2)">
      <use xlink:href="#Constantia-79"/>
      <use x="80.419922" xlink:href="#Constantia-99"/>
      <use x="126.5625" xlink:href="#Constantia-101"/>
      <use x="174.462891" xlink:href="#Constantia-97"/>
      <use x="222.460938" xlink:href="#Constantia-110"/>
      <use x="280.664062" xlink:href="#Constantia-105"/>
      <use x="308.984375" xlink:href="#Constantia-97"/>
     </g>
    </g>
    <g id="line2d_85">
     <path d="M 1176.607857 94.105425 
L 1204.607857 94.105425 
" style="fill:none;stroke:#9acd32;stroke-linecap:square;stroke-width:3;"/>
    </g>
    <g id="line2d_86"/>
    <g id="text_31">
     <!-- Africa -->
     <g transform="translate(1226.607857 101.105425)scale(0.2 -0.2)">
      <defs>
       <path d="M 36.8125 69.390625 
L 58.5 9.671875 
Q 59.71875 6.296875 60.71875 5.09375 
Q 61.71875 3.90625 63.578125 3.328125 
L 68.171875 1.953125 
L 68.265625 -0.140625 
Q 61.859375 0 56.390625 0 
Q 50.828125 0 43.265625 -0.140625 
L 43.0625 1.953125 
L 47.703125 3.328125 
Q 48.6875 3.65625 49.09375 4.078125 
Q 49.515625 4.5 49.515625 5.375 
Q 49.515625 6.34375 49 7.921875 
Q 48.484375 9.515625 47.5625 12.15625 
L 42.96875 25.25 
L 19.4375 25.25 
L 14.3125 12.203125 
Q 13.28125 9.46875 12.6875 7.859375 
Q 12.109375 6.25 12.109375 5.328125 
Q 12.109375 4.5 12.5625 4.078125 
Q 13.03125 3.65625 13.96875 3.375 
L 18.5 2.046875 
L 18.609375 -0.140625 
Q 11.671875 0 7.28125 0 
Q 2.875 0 -2.546875 -0.140625 
L -2.78125 1.953125 
L 2.15625 3.46875 
Q 4 4.046875 4.875 5.265625 
Q 5.765625 6.5 6.84375 9.078125 
L 31.78125 68.65625 
z
M 21.234375 29.6875 
L 41.359375 29.6875 
L 31.84375 56.59375 
z
" id="Constantia-65"/>
       <path d="M 18.796875 39.9375 
L 18.796875 13.421875 
Q 18.796875 8.84375 18.890625 5.375 
Q 19 4.046875 20.171875 3.71875 
L 26.375 1.859375 
L 26.515625 -0.140625 
Q 19.140625 0 14.40625 0 
Q 9.578125 0 3.03125 -0.140625 
L 2.78125 1.859375 
L 8.25 3.421875 
Q 9.625 3.859375 9.671875 5.03125 
Q 9.765625 8.0625 9.765625 11.421875 
L 9.765625 40.1875 
L 3.125 41.84375 
L 2.78125 43.890625 
L 9.8125 44.484375 
L 9.8125 44.671875 
Q 9.8125 58.453125 15.796875 66.015625 
Q 21.78125 73.578125 31.84375 73.578125 
Q 36.765625 73.578125 41.359375 72.359375 
Q 39.703125 66.40625 38.53125 60.109375 
L 36.46875 59.71875 
L 33.296875 69.484375 
Q 32.171875 69.625 30.46875 69.625 
Q 24.859375 69.625 21.828125 64.59375 
Q 18.796875 59.578125 18.796875 46.1875 
L 18.796875 44.578125 
L 30.953125 44.578125 
L 30.953125 39.9375 
z
" id="Constantia-102"/>
      </defs>
      <use xlink:href="#Constantia-65"/>
      <use x="67.431641" xlink:href="#Constantia-102"/>
      <use x="98.388672" xlink:href="#Constantia-114"/>
      <use x="136.71875" xlink:href="#Constantia-105"/>
      <use x="165.039062" xlink:href="#Constantia-99"/>
      <use x="211.181641" xlink:href="#Constantia-97"/>
     </g>
    </g>
    <g id="line2d_87">
     <path d="M 1176.607857 123.567925 
L 1204.607857 123.567925 
" style="fill:none;stroke:#f08080;stroke-linecap:square;stroke-width:3;"/>
    </g>
    <g id="line2d_88"/>
    <g id="text_32">
     <!-- South America -->
     <g transform="translate(1226.607857 130.567925)scale(0.2 -0.2)">
      <defs>
       <path d="M 2.484375 70.125 
Q 10.453125 71.6875 18.40625 73.578125 
L 18.84375 73.1875 
Q 18.609375 68.609375 18.578125 60.109375 
Q 18.5625 51.609375 18.5625 40.921875 
Q 27.046875 46.390625 34.375 46.390625 
Q 41.15625 46.390625 45.15625 42.59375 
Q 49.171875 38.8125 49.171875 31.5 
L 49.171875 14.265625 
Q 49.171875 8.640625 49.265625 5.21875 
Q 49.3125 3.953125 50.484375 3.515625 
L 55.953125 1.859375 
L 56.0625 -0.140625 
Q 49.609375 0 44.828125 0 
Q 40.046875 0 34.1875 -0.140625 
L 33.984375 1.859375 
L 38.8125 3.265625 
Q 39.984375 3.65625 40.09375 4.78125 
Q 40.140625 5.46875 40.140625 7.859375 
L 40.140625 29.15625 
Q 40.140625 35.15625 37.25 37.765625 
Q 34.375 40.375 28.765625 40.375 
Q 23.921875 40.375 18.5625 38.03125 
L 18.5625 16.109375 
Q 18.5625 10.0625 18.65625 5.03125 
Q 18.703125 3.65625 19.875 3.328125 
L 24.953125 1.859375 
L 25.046875 -0.140625 
Q 18.890625 0 14.109375 0 
Q 9.328125 0 2.78125 -0.140625 
L 2.59375 1.859375 
L 8.109375 3.46875 
Q 9.375 3.859375 9.421875 5.03125 
Q 9.515625 9.71875 9.515625 17 
L 9.515625 37.40625 
Q 9.515625 47.359375 9.484375 55.03125 
Q 9.46875 62.703125 9.328125 66.546875 
L 2.734375 68.5 
z
" id="Constantia-104"/>
       <path d="M 47.65625 36.859375 
Q 48.34375 34.515625 48.34375 31.59375 
L 48.34375 14.15625 
Q 48.34375 8.453125 48.4375 4.984375 
Q 48.53125 3.65625 49.703125 3.265625 
L 54.640625 1.859375 
L 54.734375 -0.140625 
Q 48.78125 0 44 0 
Q 39.203125 0 33.34375 -0.140625 
L 33.15625 1.859375 
L 37.796875 3.21875 
Q 39.203125 3.71875 39.265625 4.78125 
Q 39.3125 5.46875 39.3125 7.859375 
L 39.3125 29.15625 
Q 39.3125 35.15625 36.578125 37.765625 
Q 33.84375 40.375 28.46875 40.375 
Q 23.734375 40.375 18.796875 37.546875 
L 18.796875 16.21875 
Q 18.796875 10.109375 18.890625 5.03125 
Q 18.953125 3.5625 19.921875 3.375 
L 25.09375 1.859375 
L 25.203125 -0.140625 
Q 19.140625 0 14.359375 0 
Q 9.578125 0 3.03125 -0.140625 
L 2.828125 1.859375 
L 8.453125 3.515625 
Q 9.671875 3.859375 9.71875 5.03125 
Q 9.765625 7.625 9.765625 11.03125 
L 9.765625 27.6875 
Q 9.765625 34.078125 9.578125 39.546875 
L 3.078125 41.3125 
L 2.828125 42.96875 
Q 10.890625 44.53125 18.265625 46.390625 
L 18.75 46.046875 
L 18.75 40.375 
Q 26.765625 46.390625 33.9375 46.390625 
Q 42.71875 46.390625 46.625 39.59375 
Q 54.34375 46.390625 63.375 46.390625 
Q 70.171875 46.390625 74 42.546875 
Q 77.828125 38.71875 77.828125 31.59375 
L 77.828125 14.3125 
Q 77.828125 8.15625 77.9375 5.21875 
Q 78.03125 3.90625 79.25 3.515625 
L 84.671875 1.859375 
L 84.765625 -0.140625 
Q 78.328125 0 73.53125 0 
Q 68.703125 0 62.890625 -0.140625 
L 62.703125 1.859375 
L 67.53125 3.265625 
Q 68.65625 3.65625 68.796875 4.78125 
Q 68.84375 5.46875 68.84375 7.859375 
L 68.84375 29.15625 
Q 68.84375 35.15625 66.0625 37.765625 
Q 63.28125 40.375 57.859375 40.375 
Q 52.390625 40.375 47.65625 36.859375 
z
" id="Constantia-109"/>
      </defs>
      <use xlink:href="#Constantia-83"/>
      <use x="50.976562" xlink:href="#Constantia-111"/>
      <use x="105.029297" xlink:href="#Constantia-117"/>
      <use x="161.962891" xlink:href="#Constantia-116"/>
      <use x="197.265625" xlink:href="#Constantia-104"/>
      <use x="255.224609" xlink:href="#Constantia-32"/>
      <use x="278.822266" xlink:href="#Constantia-65"/>
      <use x="346.253906" xlink:href="#Constantia-109"/>
      <use x="432.875" xlink:href="#Constantia-101"/>
      <use x="480.775391" xlink:href="#Constantia-114"/>
      <use x="519.105469" xlink:href="#Constantia-105"/>
      <use x="547.425781" xlink:href="#Constantia-99"/>
      <use x="593.568359" xlink:href="#Constantia-97"/>
     </g>
    </g>
    <g id="line2d_89">
     <path d="M 1176.607857 153.030425 
L 1204.607857 153.030425 
" style="fill:none;stroke:#87cefa;stroke-linecap:square;stroke-width:3;"/>
    </g>
    <g id="line2d_90"/>
    <g id="text_33">
     <!-- North America -->
     <g transform="translate(1226.607857 160.030425)scale(0.2 -0.2)">
      <use xlink:href="#Constantia-78"/>
      <use x="73.402344" xlink:href="#Constantia-111"/>
      <use x="127.455078" xlink:href="#Constantia-114"/>
      <use x="165.785156" xlink:href="#Constantia-116"/>
      <use x="201.087891" xlink:href="#Constantia-104"/>
      <use x="259.046875" xlink:href="#Constantia-32"/>
      <use x="282.644531" xlink:href="#Constantia-65"/>
      <use x="350.076172" xlink:href="#Constantia-109"/>
      <use x="436.697266" xlink:href="#Constantia-101"/>
      <use x="484.597656" xlink:href="#Constantia-114"/>
      <use x="522.927734" xlink:href="#Constantia-105"/>
      <use x="551.248047" xlink:href="#Constantia-99"/>
      <use x="597.390625" xlink:href="#Constantia-97"/>
     </g>
    </g>
    <g id="line2d_91">
     <path d="M 1176.607857 182.492925 
L 1204.607857 182.492925 
" style="fill:none;stroke:#3ab08b;stroke-linecap:square;stroke-width:3;"/>
    </g>
    <g id="line2d_92"/>
    <g id="text_34">
     <!-- Asia -->
     <g transform="translate(1226.607857 189.492925)scale(0.2 -0.2)">
      <use xlink:href="#Constantia-65"/>
      <use x="67.431641" xlink:href="#Constantia-115"/>
      <use x="107.910156" xlink:href="#Constantia-105"/>
      <use x="136.230469" xlink:href="#Constantia-97"/>
     </g>
    </g>
    <g id="line2d_93">
     <path d="M 1176.607857 211.955425 
L 1204.607857 211.955425 
" style="fill:none;stroke:#f04a6b;stroke-linecap:square;stroke-width:3;"/>
    </g>
    <g id="line2d_94"/>
    <g id="text_35">
     <!-- Europe -->
     <g transform="translate(1226.607857 218.955425)scale(0.2 -0.2)">
      <defs>
       <path d="M 16.890625 68.171875 
L 28.765625 68.171875 
Q 39.703125 68.171875 51.859375 68.359375 
L 52.15625 67.96875 
L 49.3125 52.875 
L 47.359375 52.546875 
L 44.34375 63.8125 
L 21.78125 63.8125 
L 21.78125 36.96875 
L 26.21875 36.96875 
Q 31.296875 36.96875 37.546875 37.0625 
Q 38.8125 37.109375 39.203125 38.328125 
L 40.921875 44.921875 
L 43.5625 45.015625 
Q 43.40625 38.1875 43.40625 34.90625 
Q 43.40625 31.734375 43.5625 24.953125 
L 40.921875 24.75 
L 39.15625 31.453125 
Q 38.765625 32.71875 37.640625 32.765625 
Q 31.296875 32.859375 26.171875 32.859375 
L 21.78125 32.859375 
L 21.78125 15.09375 
Q 21.78125 9.671875 21.875 4.390625 
L 45.3125 4.390625 
L 51.265625 16.796875 
L 53.46875 17.1875 
L 52.390625 0.203125 
L 52.046875 -0.140625 
Q 39.40625 0 28.71875 0 
L 17.09375 0 
Q 11.1875 0 4.984375 -0.140625 
L 4.78125 1.953125 
L 10.796875 3.765625 
Q 12.015625 4.109375 12.109375 5.28125 
Q 12.15625 7.234375 12.171875 9.640625 
Q 12.203125 12.0625 12.203125 14.984375 
L 12.203125 54.59375 
Q 12.203125 57.078125 12.171875 59.078125 
Q 12.15625 61.078125 12.109375 62.703125 
Q 12.0625 63.96875 10.9375 64.359375 
L 4.890625 66.265625 
L 4.78125 68.359375 
Q 11.078125 68.171875 16.890625 68.171875 
z
" id="Constantia-69"/>
      </defs>
      <use xlink:href="#Constantia-69"/>
      <use x="57.056641" xlink:href="#Constantia-117"/>
      <use x="113.990234" xlink:href="#Constantia-114"/>
      <use x="152.320312" xlink:href="#Constantia-111"/>
      <use x="206.373047" xlink:href="#Constantia-112"/>
      <use x="262.330078" xlink:href="#Constantia-101"/>
     </g>
    </g>
    <g id="line2d_95">
     <path d="M 1176.607857 241.417925 
L 1204.607857 241.417925 
" style="fill:none;stroke:#3f5e99;stroke-linecap:square;stroke-width:3;"/>
    </g>
    <g id="line2d_96"/>
    <g id="text_36">
     <!-- World -->
     <g transform="translate(1226.607857 248.417925)scale(0.2 -0.2)">
      <defs>
       <path d="M 68.359375 -0.390625 
L 51.21875 51.609375 
L 33.296875 0 
L 28.375 -0.390625 
L 8.84375 59.578125 
Q 8.0625 61.859375 7.0625 63.109375 
Q 6.0625 64.359375 4.25 64.890625 
L -0.203125 66.265625 
L -0.296875 68.359375 
Q 4.5 68.171875 11.03125 68.171875 
Q 16.9375 68.171875 24.421875 68.359375 
L 24.609375 66.265625 
L 20.015625 64.9375 
Q 19 64.703125 18.546875 64.203125 
Q 18.109375 63.71875 18.109375 62.796875 
Q 18.109375 61.8125 18.578125 60.21875 
Q 19.046875 58.640625 19.828125 56.0625 
L 33.0625 14.109375 
L 51.171875 68.265625 
L 55.5625 68.609375 
L 73.1875 13.625 
L 86.96875 56 
Q 87.84375 58.796875 88.328125 60.453125 
Q 88.8125 62.109375 88.8125 62.984375 
Q 88.8125 63.875 88.375 64.265625 
Q 87.9375 64.65625 86.96875 64.890625 
L 82.375 66.109375 
L 82.28125 68.359375 
Q 87.546875 68.171875 92.96875 68.171875 
Q 98.25 68.171875 103.21875 68.359375 
L 103.421875 66.265625 
L 98.484375 64.703125 
Q 97.015625 64.265625 96.15625 63.328125 
Q 95.3125 62.40625 94.484375 60.109375 
L 73.296875 0 
z
" id="Constantia-87"/>
       <path d="M 37.9375 41.015625 
Q 34.671875 42.046875 30.609375 42.046875 
Q 22.21875 42.046875 17.8125 37.28125 
Q 13.421875 32.515625 13.421875 22.859375 
Q 13.421875 14.5 17.328125 9.5 
Q 21.234375 4.5 28.375 4.5 
Q 32.953125 4.5 37.9375 7.03125 
z
M 30.90625 70.125 
Q 39.59375 71.78125 46.828125 73.578125 
L 47.265625 73.1875 
Q 46.96875 62.75 46.96875 50.734375 
L 46.96875 24.171875 
Q 46.96875 17.4375 47.015625 10.84375 
Q 47.015625 8.34375 47.1875 6.828125 
Q 47.359375 5.328125 48.046875 4.515625 
Q 48.734375 3.71875 50.078125 3.421875 
Q 51.421875 3.125 53.859375 3.078125 
L 54.109375 1.171875 
Q 51.953125 0.34375 48.953125 -0.484375 
Q 45.953125 -1.3125 44.875 -1.3125 
Q 39.9375 -1.3125 38.234375 4.25 
Q 30.671875 -1.375 23.53125 -1.375 
Q 14.5 -1.375 9.109375 5.046875 
Q 3.71875 11.46875 3.71875 20.84375 
Q 3.71875 32.953125 10.890625 39.59375 
Q 18.0625 46.234375 30.953125 46.234375 
Q 34.078125 46.234375 37.9375 45.5625 
Q 37.9375 56.34375 37.75 66.546875 
L 31.15625 68.5 
z
" id="Constantia-100"/>
      </defs>
      <use xlink:href="#Constantia-87"/>
      <use x="94.828125" xlink:href="#Constantia-111"/>
      <use x="148.880859" xlink:href="#Constantia-114"/>
      <use x="187.210938" xlink:href="#Constantia-108"/>
      <use x="215.287109" xlink:href="#Constantia-100"/>
     </g>
    </g>
   </g>
  </g>
 </g>
 <defs>
  <clipPath id="p52fb4c57c1">
   <rect height="630.904825" width="1077.34239" x="74.188125" y="38.9273"/>
  </clipPath>
 </defs>
</svg>
