<?xml version="1.0" encoding="utf-8" standalone="no"?>
<!DOCTYPE svg PUBLIC "-//W3C//DTD SVG 1.1//EN"
  "http://www.w3.org/Graphics/SVG/1.1/DTD/svg11.dtd">
<!-- Created with matplotlib (https://matplotlib.org/) -->
<svg height="977.328pt" version="1.1" viewBox="0 0 1375.065227 977.328" width="1375.065227pt" xmlns="http://www.w3.org/2000/svg" xmlns:xlink="http://www.w3.org/1999/xlink">
 <metadata>
  <rdf:RDF xmlns:cc="http://creativecommons.org/ns#" xmlns:dc="http://purl.org/dc/elements/1.1/" xmlns:rdf="http://www.w3.org/1999/02/22-rdf-syntax-ns#">
   <cc:Work>
    <dc:type rdf:resource="http://purl.org/dc/dcmitype/StillImage"/>
    <dc:date>2020-12-29T16:23:54.978011</dc:date>
    <dc:format>image/svg+xml</dc:format>
    <dc:creator>
     <cc:Agent>
      <dc:title>Matplotlib v3.3.2, https://matplotlib.org/</dc:title>
     </cc:Agent>
    </dc:creator>
   </cc:Work>
  </rdf:RDF>
 </metadata>
 <defs>
  <style type="text/css">*{stroke-linecap:butt;stroke-linejoin:round;}</style>
 </defs>
 <g id="figure_1">
  <g id="patch_1">
   <path d="M 0 977.328 
L 1375.065227 977.328 
L 1375.065227 0 
L 0 0 
z
" style="fill:none;"/>
  </g>
  <g id="axes_1">
   <g id="patch_2">
    <path d="M 65.0375 198.997594 
L 1367.865227 198.997594 
L 1367.865227 51.36175 
L 65.0375 51.36175 
z
" style="fill:#ffffff;"/>
   </g>
   <g id="matplotlib.axis_1">
    <g id="xtick_1">
     <g id="line2d_1">
      <defs>
       <path d="M 0 0 
L 0 3.5 
" id="mc213a04c34" style="stroke:#000000;stroke-width:0.8;"/>
      </defs>
      <g>
       <use style="stroke:#000000;stroke-width:0.8;" x="124.256942" xlink:href="#mc213a04c34" y="198.997594"/>
      </g>
     </g>
     <g id="text_1">
      <!--  -->
      <g transform="translate(124.256942 217.770094)scale(0.16 -0.16)"/>
      <!-- Oct -->
      <g transform="translate(111.308192 235.694594)scale(0.16 -0.16)">
       <defs>
        <path d="M 15.578125 35.015625 
Q 15.578125 19.09375 22.015625 10.625 
Q 28.46875 2.15625 40.921875 2.15625 
Q 53.171875 2.15625 59 9.84375 
Q 64.84375 17.53125 64.84375 33.984375 
Q 64.84375 49.421875 58.640625 57.71875 
Q 52.4375 66.015625 39.5 66.015625 
Q 26.953125 66.015625 21.265625 58.328125 
Q 15.578125 50.640625 15.578125 35.015625 
z
M 75.59375 35.640625 
Q 75.59375 18.75 65.984375 8.46875 
Q 56.390625 -1.8125 39.15625 -1.8125 
Q 22.796875 -1.8125 13.84375 7.6875 
Q 4.890625 17.1875 4.890625 33.40625 
Q 4.890625 50.296875 14.53125 60.125 
Q 24.171875 69.96875 41.265625 69.96875 
Q 57.671875 69.96875 66.625 60.765625 
Q 75.59375 51.5625 75.59375 35.640625 
z
" id="Constantia-79"/>
        <path d="M 42.96875 3.46875 
Q 39.9375 1.421875 35.46875 0.015625 
Q 31 -1.375 26.609375 -1.375 
Q 16.0625 -1.375 9.90625 4.796875 
Q 3.765625 10.984375 3.765625 21.296875 
Q 3.765625 32.46875 10.734375 39.421875 
Q 17.71875 46.390625 28.8125 46.390625 
Q 35.984375 46.390625 42.71875 43.453125 
Q 41.109375 36.921875 39.84375 30.078125 
L 37.9375 29.78125 
L 33.984375 41.5 
Q 31.734375 42.28125 28.90625 42.28125 
Q 21.625 42.28125 17.515625 37.203125 
Q 13.421875 32.125 13.421875 23.78125 
Q 13.421875 13.96875 18.0625 9.28125 
Q 22.703125 4.59375 32.765625 4.59375 
Q 37.40625 4.59375 42.671875 5.515625 
z
" id="Constantia-99"/>
        <path d="M 17.484375 39.9375 
Q 17.1875 23.4375 17.1875 13.328125 
Q 17.1875 8.25 18.703125 6.3125 
Q 20.21875 4.390625 24.46875 4.390625 
Q 27.828125 4.390625 33.25 5.28125 
L 33.546875 3.078125 
Q 25.09375 -1.171875 18.453125 -1.171875 
Q 13.140625 -1.171875 10.546875 1.6875 
Q 7.953125 4.546875 7.953125 10.296875 
Q 7.953125 19.78125 8.296875 40.234375 
L 1.5625 41.890625 
L 1.265625 43.890625 
L 8.796875 44.53125 
L 12.15625 56.34375 
Q 14.890625 57.078125 17.140625 57.765625 
L 17.625 57.421875 
Q 17.484375 51.515625 17.484375 46.390625 
L 17.484375 44.578125 
L 32.171875 44.578125 
L 32.171875 39.9375 
z
" id="Constantia-116"/>
       </defs>
       <use xlink:href="#Constantia-79"/>
       <use x="80.419922" xlink:href="#Constantia-99"/>
       <use x="126.5625" xlink:href="#Constantia-116"/>
      </g>
      <!-- 2020 -->
      <g transform="translate(107.889442 253.619094)scale(0.16 -0.16)">
       <defs>
        <path d="M 42.390625 15.484375 
L 44.53125 15.875 
L 43.5625 0.203125 
L 43.21875 -0.140625 
Q 33.25 0 22.359375 0 
Q 12.25 0 3.765625 -0.140625 
L 3.421875 3.859375 
Q 8.015625 6.84375 11.671875 9.375 
Q 15.328125 11.921875 18.015625 14.109375 
Q 20.703125 16.265625 22.75 18.21875 
Q 24.8125 20.171875 26.203125 22.09375 
Q 27.59375 24.03125 28.3125 26.03125 
Q 29.046875 28.03125 29.046875 30.21875 
Q 29.046875 34.71875 25.78125 37.34375 
Q 22.515625 39.984375 17.78125 39.984375 
Q 12.203125 39.984375 6.546875 36.96875 
L 4.6875 40.1875 
Q 13.8125 46.390625 23 46.390625 
Q 29.890625 46.390625 34.453125 43.046875 
Q 39.015625 39.703125 39.015625 33.734375 
Q 39.015625 30.03125 37.34375 26.828125 
Q 35.6875 23.640625 32.515625 20.5625 
Q 29.34375 17.484375 24.75 14.328125 
Q 20.171875 11.1875 14.265625 7.671875 
L 14.3125 7.421875 
L 38.578125 7.421875 
z
" id="Constantia-50"/>
        <path d="M 13.671875 23.296875 
Q 13.671875 13.625 17.15625 8.109375 
Q 20.65625 2.59375 27.203125 2.59375 
Q 33.84375 2.59375 37.015625 7.515625 
Q 40.1875 12.453125 40.1875 22.609375 
Q 40.1875 32.5625 36.71875 37.609375 
Q 33.25 42.671875 26.65625 42.671875 
Q 19.921875 42.671875 16.796875 37.84375 
Q 13.671875 33.015625 13.671875 23.296875 
z
M 49.953125 23.6875 
Q 49.953125 12.25 43.4375 5.484375 
Q 36.921875 -1.265625 26.421875 -1.265625 
Q 16.3125 -1.265625 10.109375 4.9375 
Q 3.90625 11.140625 3.90625 22.015625 
Q 3.90625 33.203125 10.390625 39.796875 
Q 16.890625 46.390625 27.484375 46.390625 
Q 37.796875 46.390625 43.875 40.375 
Q 49.953125 34.375 49.953125 23.6875 
z
" id="Constantia-48"/>
       </defs>
       <use xlink:href="#Constantia-50"/>
       <use x="48.4375" xlink:href="#Constantia-48"/>
       <use x="102.294922" xlink:href="#Constantia-50"/>
       <use x="150.732422" xlink:href="#Constantia-48"/>
      </g>
     </g>
    </g>
    <g id="xtick_2">
     <g id="line2d_2">
      <g>
       <use style="stroke:#000000;stroke-width:0.8;" x="1348.125413" xlink:href="#mc213a04c34" y="198.997594"/>
      </g>
     </g>
     <g id="text_2">
      <!--  -->
      <g transform="translate(1348.125413 217.770094)scale(0.16 -0.16)"/>
      <!-- Nov -->
      <g transform="translate(1334.065413 235.694594)scale(0.16 -0.16)">
       <defs>
        <path d="M 16.65625 54.4375 
L 16.65625 14.984375 
Q 16.65625 9.234375 16.75 5.421875 
Q 16.796875 4.046875 17.96875 3.765625 
L 23.78125 2.046875 
L 23.875 -0.140625 
Q 17.78125 0 13.875 0 
Q 10.0625 0 3.765625 -0.140625 
L 3.5625 1.953125 
L 9.578125 3.765625 
Q 10.84375 4.15625 10.890625 5.28125 
Q 10.984375 9.234375 10.984375 14.984375 
L 10.984375 54.59375 
Q 10.984375 59.46875 10.890625 62.703125 
Q 10.84375 63.96875 9.71875 64.359375 
L 3.65625 66.265625 
L 3.5625 68.359375 
Q 9.859375 68.171875 13.53125 68.171875 
Q 15.71875 68.171875 17.96875 68.359375 
L 58.984375 17.140625 
L 58.984375 54.78125 
Q 58.984375 59.515625 58.890625 62.9375 
Q 58.84375 64.0625 57.625 64.453125 
L 51.859375 66.109375 
L 51.765625 68.359375 
Q 58.015625 68.171875 61.859375 68.171875 
Q 65.765625 68.171875 71.875 68.359375 
L 72.078125 66.265625 
L 65.921875 64.359375 
Q 64.796875 63.96875 64.75 62.703125 
Q 64.65625 59.46875 64.65625 54.59375 
L 64.65625 0 
L 60.546875 -0.390625 
z
" id="Constantia-78"/>
        <path d="M 13.71875 23.046875 
Q 13.71875 13.921875 17.140625 8.171875 
Q 20.5625 2.4375 27.296875 2.4375 
Q 33.59375 2.4375 36.890625 7.484375 
Q 40.1875 12.546875 40.1875 22.46875 
Q 40.1875 31.78125 36.71875 37.15625 
Q 33.25 42.53125 26.65625 42.53125 
Q 20.40625 42.53125 17.0625 37.6875 
Q 13.71875 32.859375 13.71875 23.046875 
z
M 50.140625 23.484375 
Q 50.140625 12.359375 43.421875 5.484375 
Q 36.71875 -1.375 26.375 -1.375 
Q 16.265625 -1.375 10.03125 5.09375 
Q 3.8125 11.578125 3.8125 22.015625 
Q 3.8125 32.765625 10.328125 39.578125 
Q 16.84375 46.390625 27.59375 46.390625 
Q 37.75 46.390625 43.9375 40.109375 
Q 50.140625 33.84375 50.140625 23.484375 
z
" id="Constantia-111"/>
        <path d="M -1.515625 45.265625 
Q 4.640625 45.125 9.421875 45.125 
Q 13.8125 45.125 19.96875 45.265625 
L 20.171875 43.265625 
L 14.5 41.703125 
Q 18.5 30.328125 23.78125 17.53125 
Q 25.140625 14.15625 26.21875 11.078125 
Q 27.296875 14.15625 28.71875 17.484375 
Q 33.15625 28.421875 38.03125 41.703125 
L 32.46875 43.265625 
L 32.28125 45.265625 
Q 36.234375 45.125 40.53125 45.125 
Q 44.921875 45.125 49.03125 45.265625 
L 49.21875 43.265625 
L 44.34375 41.84375 
Q 43.21875 41.453125 42.4375 39.9375 
Q 38.578125 31 33.46875 18.671875 
Q 28.375 6.34375 25.78125 -0.34375 
L 21.625 -0.78125 
Q 18.953125 6.296875 13.890625 18.59375 
Q 8.84375 30.90625 5.21875 39.703125 
Q 4.4375 41.40625 3.078125 41.890625 
L -1.421875 43.265625 
z
" id="Constantia-118"/>
       </defs>
       <use xlink:href="#Constantia-78"/>
       <use x="73.402344" xlink:href="#Constantia-111"/>
       <use x="127.455078" xlink:href="#Constantia-118"/>
      </g>
      <!-- 2020 -->
      <g transform="translate(1331.757913 253.619094)scale(0.16 -0.16)">
       <use xlink:href="#Constantia-50"/>
       <use x="48.4375" xlink:href="#Constantia-48"/>
       <use x="102.294922" xlink:href="#Constantia-50"/>
       <use x="150.732422" xlink:href="#Constantia-48"/>
      </g>
     </g>
    </g>
    <g id="xtick_3">
     <g id="line2d_3">
      <path clip-path="url(#pc2ba8d1a99)" d="M 203.216198 198.997594 
L 203.216198 51.36175 
" style="fill:none;stroke:#b0b0b0;stroke-linecap:square;stroke-width:0.8;"/>
     </g>
     <g id="line2d_4">
      <defs>
       <path d="M 0 0 
L 0 2 
" id="ma711e48f28" style="stroke:#000000;stroke-width:0.6;"/>
      </defs>
      <g>
       <use style="stroke:#000000;stroke-width:0.6;" x="203.216198" xlink:href="#ma711e48f28" y="198.997594"/>
      </g>
     </g>
     <g id="text_3">
      <!-- 03 -->
      <g transform="translate(195.254948 216.170094)scale(0.16 -0.16)">
       <defs>
        <path d="M 10.25 16.21875 
Q 19 17.140625 24.265625 20.75 
Q 29.546875 24.359375 29.546875 30.125 
Q 29.546875 34.71875 26.09375 37.59375 
Q 22.65625 40.484375 17.390625 40.484375 
Q 10.5 40.484375 3.46875 36.8125 
L 1.46875 40.046875 
Q 11.140625 46.390625 21.34375 46.390625 
Q 28.90625 46.390625 34.078125 42.75 
Q 39.265625 39.109375 39.265625 33.203125 
Q 39.265625 22.359375 23.25 17 
L 23.25 16.796875 
Q 32.421875 16.453125 37.5625 12.15625 
Q 42.71875 7.859375 42.71875 1.609375 
Q 42.71875 -8.5 31.96875 -15.140625 
Q 21.234375 -21.78125 1.03125 -22.46875 
L 0.484375 -18.84375 
Q 16.546875 -17.78125 24.53125 -12.625 
Q 32.515625 -7.46875 32.515625 0.25 
Q 32.515625 6.296875 28.359375 9.765625 
Q 24.21875 13.234375 16.84375 13.234375 
Q 13.96875 13.234375 10.59375 12.640625 
z
" id="Constantia-51"/>
       </defs>
       <use xlink:href="#Constantia-48"/>
       <use x="53.857422" xlink:href="#Constantia-51"/>
      </g>
      <!-- Sat -->
      <g transform="translate(192.473698 234.094594)scale(0.16 -0.16)">
       <defs>
        <path d="M 37.109375 63.921875 
Q 31.984375 65.625 27.6875 65.625 
Q 21.234375 65.625 17.40625 62.5 
Q 13.578125 59.375 13.578125 53.8125 
Q 13.578125 50.640625 14.921875 48.234375 
Q 16.265625 45.84375 18.53125 44.03125 
Q 20.796875 42.234375 23.671875 40.8125 
Q 26.5625 39.40625 29.640625 38.03125 
Q 33.015625 36.578125 36.1875 34.9375 
Q 39.359375 33.296875 41.921875 31.09375 
Q 44.484375 28.90625 46.015625 25.828125 
Q 47.5625 22.75 47.5625 18.65625 
Q 47.5625 8.9375 40.75 3.8125 
Q 33.9375 -1.3125 21.875 -1.3125 
Q 14.109375 -1.3125 4.6875 1.3125 
L 4.390625 1.703125 
L 6.78125 18.3125 
L 8.984375 18.65625 
L 12.40625 4.78125 
Q 17.578125 2.734375 23 2.734375 
Q 30.28125 2.734375 34.34375 5.953125 
Q 38.421875 9.1875 38.421875 15.140625 
Q 38.421875 18.265625 37.109375 20.625 
Q 35.796875 23 33.5625 24.703125 
Q 31.34375 26.421875 28.515625 27.8125 
Q 25.6875 29.203125 22.65625 30.5625 
Q 19.234375 32.03125 16.015625 33.734375 
Q 12.796875 35.453125 10.171875 37.71875 
Q 7.5625 39.984375 6 43.28125 
Q 4.4375 46.578125 4.4375 50.984375 
Q 4.4375 59.8125 11.046875 64.640625 
Q 17.671875 69.484375 28.609375 69.484375 
Q 36.328125 69.484375 44.78125 67.671875 
L 45.125 67.328125 
L 42.234375 52.09375 
L 40.28125 51.765625 
z
" id="Constantia-83"/>
        <path d="M 30.125 22.125 
Q 19.4375 22.125 15.53125 20.015625 
Q 11.625 17.921875 11.625 12.9375 
Q 11.625 8.296875 14.203125 6.359375 
Q 16.796875 4.4375 21.234375 4.4375 
Q 26.265625 4.4375 30.03125 6.15625 
z
M 6.453125 42.234375 
Q 15.96875 46.390625 23.296875 46.390625 
Q 30.765625 46.390625 34.9375 42.484375 
Q 39.109375 38.578125 39.0625 31.203125 
L 38.8125 10.890625 
Q 38.765625 8.40625 38.9375 6.890625 
Q 39.109375 5.375 39.8125 4.5625 
Q 40.53125 3.765625 41.9375 3.4375 
Q 43.359375 3.125 45.75 3.078125 
L 46 1.171875 
Q 43.890625 0.34375 40.859375 -0.484375 
Q 37.84375 -1.3125 36.765625 -1.3125 
Q 32.03125 -1.3125 30.28125 3.5625 
Q 23.4375 -1.375 17.390625 -1.375 
Q 10.59375 -1.375 6.46875 1.96875 
Q 2.34375 5.328125 2.34375 11.421875 
Q 2.34375 18.953125 9.046875 22.515625 
Q 15.765625 26.078125 30.125 26.078125 
L 30.171875 29.890625 
Q 30.21875 35.359375 27.390625 37.984375 
Q 24.5625 40.625 18.703125 40.625 
Q 14.265625 40.625 7.5625 38.96875 
z
" id="Constantia-97"/>
       </defs>
       <use xlink:href="#Constantia-83"/>
       <use x="50.976562" xlink:href="#Constantia-97"/>
       <use x="98.974609" xlink:href="#Constantia-116"/>
      </g>
     </g>
    </g>
    <g id="xtick_4">
     <g id="line2d_5">
      <path clip-path="url(#pc2ba8d1a99)" d="M 479.573595 198.997594 
L 479.573595 51.36175 
" style="fill:none;stroke:#b0b0b0;stroke-linecap:square;stroke-width:0.8;"/>
     </g>
     <g id="line2d_6">
      <g>
       <use style="stroke:#000000;stroke-width:0.6;" x="479.573595" xlink:href="#ma711e48f28" y="198.997594"/>
      </g>
     </g>
     <g id="text_4">
      <!-- 10 -->
      <g transform="translate(472.761095 216.170094)scale(0.16 -0.16)">
       <defs>
        <path d="M 1.703125 40.625 
L 1.46875 42.671875 
Q 11.28125 44.140625 21.09375 45.90625 
L 21.53125 45.515625 
Q 20.953125 36.96875 20.953125 27.875 
L 20.953125 15.96875 
Q 20.953125 9.515625 21.046875 5.5625 
Q 21.09375 4.15625 22.40625 3.8125 
L 30.171875 1.8125 
L 30.328125 -0.140625 
Q 21.296875 0 16.5 0 
Q 11.71875 0 2.734375 -0.140625 
L 2.546875 1.8125 
L 10.5 3.8125 
Q 11.765625 4.15625 11.8125 5.375 
Q 11.921875 9.328125 11.921875 14.15625 
L 11.921875 22.265625 
Q 11.921875 32.078125 11.71875 39.65625 
z
" id="Constantia-49"/>
       </defs>
       <use xlink:href="#Constantia-49"/>
       <use x="31.298828" xlink:href="#Constantia-48"/>
      </g>
      <!-- Sat -->
      <g transform="translate(468.831095 234.094594)scale(0.16 -0.16)">
       <use xlink:href="#Constantia-83"/>
       <use x="50.976562" xlink:href="#Constantia-97"/>
       <use x="98.974609" xlink:href="#Constantia-116"/>
      </g>
     </g>
    </g>
    <g id="xtick_5">
     <g id="line2d_7">
      <path clip-path="url(#pc2ba8d1a99)" d="M 755.930992 198.997594 
L 755.930992 51.36175 
" style="fill:none;stroke:#b0b0b0;stroke-linecap:square;stroke-width:0.8;"/>
     </g>
     <g id="line2d_8">
      <g>
       <use style="stroke:#000000;stroke-width:0.6;" x="755.930992" xlink:href="#ma711e48f28" y="198.997594"/>
      </g>
     </g>
     <g id="text_5">
      <!-- 17 -->
      <g transform="translate(749.559742 216.170094)scale(0.16 -0.16)">
       <defs>
        <path d="M 10.9375 -19.671875 
L 39.5 37.546875 
L 8.296875 37.546875 
L 5.46875 27.875 
L 3.515625 27.546875 
L 2.6875 44.921875 
L 3.03125 45.3125 
Q 8.796875 45.21875 14.265625 45.171875 
Q 19.734375 45.125 25 45.125 
L 27.734375 45.125 
Q 33.015625 45.125 37.84375 45.171875 
Q 42.671875 45.21875 47.171875 45.3125 
L 47.359375 43.21875 
Q 44.828125 37.984375 42.265625 32.46875 
Q 39.703125 26.953125 37.234375 21.3125 
Q 34.765625 15.671875 32.421875 10.125 
Q 30.078125 4.59375 28.03125 -0.65625 
Q 25.984375 -5.90625 24.25 -10.6875 
Q 22.515625 -15.484375 21.234375 -19.53125 
L 11.1875 -20.015625 
z
" id="Constantia-55"/>
       </defs>
       <use xlink:href="#Constantia-49"/>
       <use x="31.298828" xlink:href="#Constantia-55"/>
      </g>
      <!-- Sat -->
      <g transform="translate(745.188492 234.094594)scale(0.16 -0.16)">
       <use xlink:href="#Constantia-83"/>
       <use x="50.976562" xlink:href="#Constantia-97"/>
       <use x="98.974609" xlink:href="#Constantia-116"/>
      </g>
     </g>
    </g>
    <g id="xtick_6">
     <g id="line2d_9">
      <path clip-path="url(#pc2ba8d1a99)" d="M 1032.288388 198.997594 
L 1032.288388 51.36175 
" style="fill:none;stroke:#b0b0b0;stroke-linecap:square;stroke-width:0.8;"/>
     </g>
     <g id="line2d_10">
      <g>
       <use style="stroke:#000000;stroke-width:0.6;" x="1032.288388" xlink:href="#ma711e48f28" y="198.997594"/>
      </g>
     </g>
     <g id="text_6">
      <!-- 24 -->
      <g transform="translate(1024.167138 216.170094)scale(0.16 -0.16)">
       <defs>
        <path d="M 30.953125 35.015625 
Q 25.4375 28.8125 19.890625 21.78125 
Q 14.359375 14.75 8.984375 7.28125 
L 30.953125 7.28125 
z
M 39.984375 -5.71875 
Q 39.984375 -12.546875 40.234375 -19.53125 
Q 35.546875 -20.015625 31.34375 -20.796875 
L 30.859375 -20.40625 
Q 30.953125 -13.578125 30.953125 -6.5 
L 30.953125 2.4375 
L 18.796875 2.4375 
Q 12.109375 2.4375 2.546875 2.296875 
L 2.203125 5.859375 
Q 9.90625 16.0625 18.078125 26.234375 
Q 26.265625 36.421875 34.578125 46.046875 
L 40.28125 46.390625 
Q 39.984375 35.453125 39.984375 25.984375 
L 39.984375 7.28125 
L 51.171875 7.28125 
L 51.375 2.296875 
Q 46 2.4375 39.984375 2.4375 
z
" id="Constantia-52"/>
       </defs>
       <use xlink:href="#Constantia-50"/>
       <use x="48.4375" xlink:href="#Constantia-52"/>
      </g>
      <!-- Sat -->
      <g transform="translate(1021.545888 234.094594)scale(0.16 -0.16)">
       <use xlink:href="#Constantia-83"/>
       <use x="50.976562" xlink:href="#Constantia-97"/>
       <use x="98.974609" xlink:href="#Constantia-116"/>
      </g>
     </g>
    </g>
    <g id="xtick_7">
     <g id="line2d_11">
      <path clip-path="url(#pc2ba8d1a99)" d="M 1308.645785 198.997594 
L 1308.645785 51.36175 
" style="fill:none;stroke:#b0b0b0;stroke-linecap:square;stroke-width:0.8;"/>
     </g>
     <g id="line2d_12">
      <g>
       <use style="stroke:#000000;stroke-width:0.6;" x="1308.645785" xlink:href="#ma711e48f28" y="198.997594"/>
      </g>
     </g>
     <g id="text_7">
      <!-- 31 -->
      <g transform="translate(1302.489535 216.170094)scale(0.16 -0.16)">
       <use xlink:href="#Constantia-51"/>
       <use x="45.654297" xlink:href="#Constantia-49"/>
      </g>
      <!-- Sat -->
      <g transform="translate(1297.903285 234.094594)scale(0.16 -0.16)">
       <use xlink:href="#Constantia-83"/>
       <use x="50.976562" xlink:href="#Constantia-97"/>
       <use x="98.974609" xlink:href="#Constantia-116"/>
      </g>
     </g>
    </g>
   </g>
   <g id="matplotlib.axis_2">
    <g id="ytick_1">
     <g id="line2d_13">
      <path clip-path="url(#pc2ba8d1a99)" d="M 65.0375 192.3622 
L 1367.865227 192.3622 
" style="fill:none;stroke:#b0b0b0;stroke-linecap:square;stroke-width:0.8;"/>
     </g>
     <g id="line2d_14">
      <defs>
       <path d="M 0 0 
L -3.5 0 
" id="m4a5573bcad" style="stroke:#000000;stroke-width:0.8;"/>
      </defs>
      <g>
       <use style="stroke:#000000;stroke-width:0.8;" x="65.0375" xlink:href="#m4a5573bcad" y="192.3622"/>
      </g>
     </g>
     <g id="text_8">
      <!-- 200000 -->
      <g transform="translate(7.2 198.24845)scale(0.16 -0.16)">
       <use xlink:href="#Constantia-50"/>
       <use x="48.4375" xlink:href="#Constantia-48"/>
       <use x="102.294922" xlink:href="#Constantia-48"/>
       <use x="156.152344" xlink:href="#Constantia-48"/>
       <use x="210.009766" xlink:href="#Constantia-48"/>
       <use x="263.867188" xlink:href="#Constantia-48"/>
      </g>
     </g>
    </g>
    <g id="ytick_2">
     <g id="line2d_15">
      <path clip-path="url(#pc2ba8d1a99)" d="M 65.0375 153.930458 
L 1367.865227 153.930458 
" style="fill:none;stroke:#b0b0b0;stroke-linecap:square;stroke-width:0.8;"/>
     </g>
     <g id="line2d_16">
      <g>
       <use style="stroke:#000000;stroke-width:0.8;" x="65.0375" xlink:href="#m4a5573bcad" y="153.930458"/>
      </g>
     </g>
     <g id="text_9">
      <!-- 250000 -->
      <g transform="translate(8.2075 159.816708)scale(0.16 -0.16)">
       <defs>
        <path d="M 6.453125 16.796875 
L 9.28125 45.3125 
Q 15.375 45.125 23.875 45.125 
Q 33.6875 45.125 42.28125 45.3125 
L 42.578125 44.921875 
L 41.359375 36.859375 
L 13.1875 37.546875 
L 11.8125 23.78125 
Q 15.96875 24.46875 19.625 24.46875 
Q 30.8125 24.46875 37.46875 19.046875 
Q 44.140625 13.625 44.140625 4.15625 
Q 44.140625 -7.953125 32.984375 -15.15625 
Q 21.828125 -22.359375 4.890625 -22.46875 
L 4.390625 -18.84375 
Q 17.71875 -18.359375 26.09375 -12.796875 
Q 34.46875 -7.234375 34.46875 2.203125 
Q 34.46875 9.46875 29.5625 13.46875 
Q 24.65625 17.484375 15.765625 17.484375 
Q 11.328125 17.484375 6.734375 16.453125 
z
" id="Constantia-53"/>
       </defs>
       <use xlink:href="#Constantia-50"/>
       <use x="48.4375" xlink:href="#Constantia-53"/>
       <use x="95.996094" xlink:href="#Constantia-48"/>
       <use x="149.853516" xlink:href="#Constantia-48"/>
       <use x="203.710938" xlink:href="#Constantia-48"/>
       <use x="257.568359" xlink:href="#Constantia-48"/>
      </g>
     </g>
    </g>
    <g id="ytick_3">
     <g id="line2d_17">
      <path clip-path="url(#pc2ba8d1a99)" d="M 65.0375 115.498716 
L 1367.865227 115.498716 
" style="fill:none;stroke:#b0b0b0;stroke-linecap:square;stroke-width:0.8;"/>
     </g>
     <g id="line2d_18">
      <g>
       <use style="stroke:#000000;stroke-width:0.8;" x="65.0375" xlink:href="#m4a5573bcad" y="115.498716"/>
      </g>
     </g>
     <g id="text_10">
      <!-- 300000 -->
      <g transform="translate(7.645 121.384966)scale(0.16 -0.16)">
       <use xlink:href="#Constantia-51"/>
       <use x="45.654297" xlink:href="#Constantia-48"/>
       <use x="99.511719" xlink:href="#Constantia-48"/>
       <use x="153.369141" xlink:href="#Constantia-48"/>
       <use x="207.226562" xlink:href="#Constantia-48"/>
       <use x="261.083984" xlink:href="#Constantia-48"/>
      </g>
     </g>
    </g>
    <g id="ytick_4">
     <g id="line2d_19">
      <path clip-path="url(#pc2ba8d1a99)" d="M 65.0375 77.066974 
L 1367.865227 77.066974 
" style="fill:none;stroke:#b0b0b0;stroke-linecap:square;stroke-width:0.8;"/>
     </g>
     <g id="line2d_20">
      <g>
       <use style="stroke:#000000;stroke-width:0.8;" x="65.0375" xlink:href="#m4a5573bcad" y="77.066974"/>
      </g>
     </g>
     <g id="text_11">
      <!-- 350000 -->
      <g transform="translate(8.6525 82.953224)scale(0.16 -0.16)">
       <use xlink:href="#Constantia-51"/>
       <use x="45.654297" xlink:href="#Constantia-53"/>
       <use x="93.212891" xlink:href="#Constantia-48"/>
       <use x="147.070312" xlink:href="#Constantia-48"/>
       <use x="200.927734" xlink:href="#Constantia-48"/>
       <use x="254.785156" xlink:href="#Constantia-48"/>
      </g>
     </g>
    </g>
   </g>
   <g id="line2d_21">
    <path clip-path="url(#pc2ba8d1a99)" d="M 124.256942 192.286874 
L 163.73657 189.848764 
L 203.216198 186.680451 
L 242.695826 181.216995 
L 282.175455 175.383056 
L 321.655083 171.405371 
L 361.134711 168.166344 
L 400.614339 164.901183 
L 440.093967 161.186371 
L 479.573595 156.676022 
L 558.532851 142.129607 
L 598.012479 137.460919 
L 637.492107 132.793769 
L 676.971736 128.892178 
L 716.451364 123.94755 
L 755.930992 119.315757 
L 795.41062 111.985286 
L 834.890248 103.933836 
L 874.369876 99.05608 
L 913.849504 95.650259 
L 953.329132 92.381255 
L 992.80876 87.927785 
L 1032.288388 84.347483 
L 1071.768017 77.601175 
L 1111.247645 70.257638 
L 1150.727273 67.655041 
L 1190.206901 64.968662 
L 1229.686529 62.961756 
L 1269.166157 60.34148 
L 1308.645785 58.07247 
" style="fill:none;stroke:#ffd700;stroke-linecap:square;stroke-width:3;"/>
   </g>
   <g id="patch_3">
    <path d="M 65.0375 198.997594 
L 65.0375 51.36175 
" style="fill:none;stroke:#000000;stroke-linecap:square;stroke-linejoin:miter;stroke-width:0.8;"/>
   </g>
   <g id="patch_4">
    <path d="M 65.0375 198.997594 
L 1367.865227 198.997594 
" style="fill:none;stroke:#000000;stroke-linecap:square;stroke-linejoin:miter;stroke-width:0.8;"/>
   </g>
   <g id="text_12">
    <!-- Active Cases -->
    <g transform="translate(662.499801 45.36175)scale(0.2 -0.2)">
     <defs>
      <path d="M 36.8125 69.390625 
L 58.5 9.671875 
Q 59.71875 6.296875 60.71875 5.09375 
Q 61.71875 3.90625 63.578125 3.328125 
L 68.171875 1.953125 
L 68.265625 -0.140625 
Q 61.859375 0 56.390625 0 
Q 50.828125 0 43.265625 -0.140625 
L 43.0625 1.953125 
L 47.703125 3.328125 
Q 48.6875 3.65625 49.09375 4.078125 
Q 49.515625 4.5 49.515625 5.375 
Q 49.515625 6.34375 49 7.921875 
Q 48.484375 9.515625 47.5625 12.15625 
L 42.96875 25.25 
L 19.4375 25.25 
L 14.3125 12.203125 
Q 13.28125 9.46875 12.6875 7.859375 
Q 12.109375 6.25 12.109375 5.328125 
Q 12.109375 4.5 12.5625 4.078125 
Q 13.03125 3.65625 13.96875 3.375 
L 18.5 2.046875 
L 18.609375 -0.140625 
Q 11.671875 0 7.28125 0 
Q 2.875 0 -2.546875 -0.140625 
L -2.78125 1.953125 
L 2.15625 3.46875 
Q 4 4.046875 4.875 5.265625 
Q 5.765625 6.5 6.84375 9.078125 
L 31.78125 68.65625 
z
M 21.234375 29.6875 
L 41.359375 29.6875 
L 31.84375 56.59375 
z
" id="Constantia-65"/>
      <path d="M 19.34375 63.671875 
Q 19.34375 61.078125 17.71875 59.4375 
Q 16.109375 57.8125 13.578125 57.8125 
Q 11.140625 57.8125 9.59375 59.328125 
Q 8.0625 60.84375 8.0625 63.328125 
Q 8.0625 65.96875 9.671875 67.5 
Q 11.28125 69.046875 13.921875 69.046875 
Q 16.3125 69.046875 17.828125 67.65625 
Q 19.34375 66.265625 19.34375 63.671875 
z
M 2.828125 42.96875 
Q 11.375 44.578125 18.65625 46.390625 
L 19.09375 46.046875 
Q 18.796875 39.703125 18.796875 32.078125 
L 18.796875 13.328125 
Q 18.796875 7.46875 18.890625 5.21875 
Q 19 3.90625 20.125 3.515625 
L 25.78125 1.859375 
L 25.875 -0.140625 
Q 19.140625 0 14.359375 0 
Q 9.578125 0 2.984375 -0.140625 
L 2.78125 1.859375 
L 8.453125 3.515625 
Q 9.578125 3.90625 9.671875 5.03125 
Q 9.765625 6.9375 9.765625 11.421875 
L 9.765625 27.734375 
Q 9.765625 34.125 9.578125 39.546875 
L 3.078125 41.3125 
z
" id="Constantia-105"/>
      <path d="M 44.046875 3.46875 
Q 39.890625 0.875 35.5 -0.25 
Q 31.109375 -1.375 27.34375 -1.375 
Q 16.609375 -1.375 10.203125 4.75 
Q 3.8125 10.890625 3.8125 21.78125 
Q 3.8125 32.625 9.9375 39.5 
Q 16.0625 46.390625 26.3125 46.390625 
Q 34.90625 46.390625 39.6875 41.234375 
Q 44.484375 36.078125 44.484375 27 
Q 44.484375 25.640625 44.34375 24.21875 
L 13.375 24.21875 
Q 13.375 13.71875 18.3125 9.203125 
Q 23.25 4.6875 33.734375 4.6875 
Q 38.421875 4.6875 43.75 5.5625 
z
M 34.765625 28.265625 
L 34.765625 29.734375 
Q 34.765625 36.671875 32.546875 39.640625 
Q 30.328125 42.625 25.921875 42.625 
Q 20.125 42.625 17.046875 38.421875 
Q 13.96875 34.234375 13.578125 28.265625 
z
" id="Constantia-101"/>
      <path id="Constantia-32"/>
      <path d="M 57.515625 51.3125 
L 55.5625 51.03125 
L 52 63.875 
Q 45.953125 65.375 41.015625 65.375 
Q 29.046875 65.375 22.203125 57.03125 
Q 15.375 48.6875 15.375 35.359375 
Q 15.375 21.09375 23.1875 12.59375 
Q 31 4.109375 44.828125 4.109375 
Q 52.59375 4.109375 61.1875 7.078125 
L 61.71875 4.890625 
Q 52.09375 -1.765625 39.9375 -1.765625 
Q 24.171875 -1.765625 14.5 7.859375 
Q 4.828125 17.484375 4.828125 33.203125 
Q 4.828125 49.953125 15.46875 59.71875 
Q 26.125 69.484375 43.3125 69.484375 
Q 51.5625 69.484375 60.203125 67.484375 
L 60.546875 67.09375 
z
" id="Constantia-67"/>
      <path d="M 27.875 41.453125 
Q 25.046875 42.234375 21.734375 42.234375 
Q 17.140625 42.234375 14.328125 40.453125 
Q 11.53125 38.671875 11.53125 35.59375 
Q 11.53125 32.625 13.359375 30.90625 
Q 15.1875 29.203125 20.171875 27.546875 
L 24.171875 26.171875 
Q 30.90625 23.875 34.046875 20.921875 
Q 37.203125 17.96875 37.203125 13.1875 
Q 37.203125 6.390625 31.921875 2.5 
Q 26.65625 -1.375 18.609375 -1.375 
Q 11.1875 -1.375 3.421875 1.65625 
Q 5.078125 8.015625 6.109375 14.0625 
L 8.015625 14.359375 
L 11.53125 3.859375 
Q 14.3125 2.78125 18.609375 2.78125 
Q 23.140625 2.78125 25.84375 4.640625 
Q 28.5625 6.5 28.5625 9.859375 
Q 28.5625 12.984375 26.734375 14.796875 
Q 24.90625 16.609375 20.90625 17.921875 
L 15.828125 19.625 
Q 9.234375 21.828125 6.71875 24.921875 
Q 4.203125 28.03125 4.203125 32.625 
Q 4.203125 39.015625 9.0625 42.703125 
Q 13.921875 46.390625 21.875 46.390625 
Q 29.296875 46.390625 35.359375 44.234375 
Q 33.984375 38.671875 32.859375 32.46875 
L 31 32.125 
z
" id="Constantia-115"/>
     </defs>
     <use xlink:href="#Constantia-65"/>
     <use x="66.431641" xlink:href="#Constantia-99"/>
     <use x="112.574219" xlink:href="#Constantia-116"/>
     <use x="147.876953" xlink:href="#Constantia-105"/>
     <use x="176.197266" xlink:href="#Constantia-118"/>
     <use x="224.488281" xlink:href="#Constantia-101"/>
     <use x="272.388672" xlink:href="#Constantia-32"/>
     <use x="297.486328" xlink:href="#Constantia-67"/>
     <use x="362.623047" xlink:href="#Constantia-97"/>
     <use x="410.621094" xlink:href="#Constantia-115"/>
     <use x="451.099609" xlink:href="#Constantia-101"/>
     <use x="499" xlink:href="#Constantia-115"/>
    </g>
   </g>
  </g>
  <g id="axes_2">
   <g id="patch_5">
    <path d="M 65.0375 436.568062 
L 1367.865227 436.568062 
L 1367.865227 288.932219 
L 65.0375 288.932219 
z
" style="fill:#ffffff;"/>
   </g>
   <g id="matplotlib.axis_3">
    <g id="xtick_8">
     <g id="line2d_22">
      <g>
       <use style="stroke:#000000;stroke-width:0.8;" x="124.256942" xlink:href="#mc213a04c34" y="436.568062"/>
      </g>
     </g>
     <g id="text_13">
      <!--  -->
      <g transform="translate(124.256942 455.340562)scale(0.16 -0.16)"/>
      <!-- Oct -->
      <g transform="translate(111.308192 473.265062)scale(0.16 -0.16)">
       <use xlink:href="#Constantia-79"/>
       <use x="80.419922" xlink:href="#Constantia-99"/>
       <use x="126.5625" xlink:href="#Constantia-116"/>
      </g>
      <!-- 2020 -->
      <g transform="translate(107.889442 491.189562)scale(0.16 -0.16)">
       <use xlink:href="#Constantia-50"/>
       <use x="48.4375" xlink:href="#Constantia-48"/>
       <use x="102.294922" xlink:href="#Constantia-50"/>
       <use x="150.732422" xlink:href="#Constantia-48"/>
      </g>
     </g>
    </g>
    <g id="xtick_9">
     <g id="line2d_23">
      <g>
       <use style="stroke:#000000;stroke-width:0.8;" x="1348.125413" xlink:href="#mc213a04c34" y="436.568062"/>
      </g>
     </g>
     <g id="text_14">
      <!--  -->
      <g transform="translate(1348.125413 455.340562)scale(0.16 -0.16)"/>
      <!-- Nov -->
      <g transform="translate(1334.065413 473.265062)scale(0.16 -0.16)">
       <use xlink:href="#Constantia-78"/>
       <use x="73.402344" xlink:href="#Constantia-111"/>
       <use x="127.455078" xlink:href="#Constantia-118"/>
      </g>
      <!-- 2020 -->
      <g transform="translate(1331.757913 491.189562)scale(0.16 -0.16)">
       <use xlink:href="#Constantia-50"/>
       <use x="48.4375" xlink:href="#Constantia-48"/>
       <use x="102.294922" xlink:href="#Constantia-50"/>
       <use x="150.732422" xlink:href="#Constantia-48"/>
      </g>
     </g>
    </g>
    <g id="xtick_10">
     <g id="line2d_24">
      <path clip-path="url(#p7364f3fea7)" d="M 203.216198 436.568062 
L 203.216198 288.932219 
" style="fill:none;stroke:#b0b0b0;stroke-linecap:square;stroke-width:0.8;"/>
     </g>
     <g id="line2d_25">
      <g>
       <use style="stroke:#000000;stroke-width:0.6;" x="203.216198" xlink:href="#ma711e48f28" y="436.568062"/>
      </g>
     </g>
     <g id="text_15">
      <!-- 03 -->
      <g transform="translate(195.254948 453.740562)scale(0.16 -0.16)">
       <use xlink:href="#Constantia-48"/>
       <use x="53.857422" xlink:href="#Constantia-51"/>
      </g>
      <!-- Sat -->
      <g transform="translate(192.473698 471.665062)scale(0.16 -0.16)">
       <use xlink:href="#Constantia-83"/>
       <use x="50.976562" xlink:href="#Constantia-97"/>
       <use x="98.974609" xlink:href="#Constantia-116"/>
      </g>
     </g>
    </g>
    <g id="xtick_11">
     <g id="line2d_26">
      <path clip-path="url(#p7364f3fea7)" d="M 479.573595 436.568062 
L 479.573595 288.932219 
" style="fill:none;stroke:#b0b0b0;stroke-linecap:square;stroke-width:0.8;"/>
     </g>
     <g id="line2d_27">
      <g>
       <use style="stroke:#000000;stroke-width:0.6;" x="479.573595" xlink:href="#ma711e48f28" y="436.568062"/>
      </g>
     </g>
     <g id="text_16">
      <!-- 10 -->
      <g transform="translate(472.761095 453.740562)scale(0.16 -0.16)">
       <use xlink:href="#Constantia-49"/>
       <use x="31.298828" xlink:href="#Constantia-48"/>
      </g>
      <!-- Sat -->
      <g transform="translate(468.831095 471.665062)scale(0.16 -0.16)">
       <use xlink:href="#Constantia-83"/>
       <use x="50.976562" xlink:href="#Constantia-97"/>
       <use x="98.974609" xlink:href="#Constantia-116"/>
      </g>
     </g>
    </g>
    <g id="xtick_12">
     <g id="line2d_28">
      <path clip-path="url(#p7364f3fea7)" d="M 755.930992 436.568062 
L 755.930992 288.932219 
" style="fill:none;stroke:#b0b0b0;stroke-linecap:square;stroke-width:0.8;"/>
     </g>
     <g id="line2d_29">
      <g>
       <use style="stroke:#000000;stroke-width:0.6;" x="755.930992" xlink:href="#ma711e48f28" y="436.568062"/>
      </g>
     </g>
     <g id="text_17">
      <!-- 17 -->
      <g transform="translate(749.559742 453.740562)scale(0.16 -0.16)">
       <use xlink:href="#Constantia-49"/>
       <use x="31.298828" xlink:href="#Constantia-55"/>
      </g>
      <!-- Sat -->
      <g transform="translate(745.188492 471.665062)scale(0.16 -0.16)">
       <use xlink:href="#Constantia-83"/>
       <use x="50.976562" xlink:href="#Constantia-97"/>
       <use x="98.974609" xlink:href="#Constantia-116"/>
      </g>
     </g>
    </g>
    <g id="xtick_13">
     <g id="line2d_30">
      <path clip-path="url(#p7364f3fea7)" d="M 1032.288388 436.568062 
L 1032.288388 288.932219 
" style="fill:none;stroke:#b0b0b0;stroke-linecap:square;stroke-width:0.8;"/>
     </g>
     <g id="line2d_31">
      <g>
       <use style="stroke:#000000;stroke-width:0.6;" x="1032.288388" xlink:href="#ma711e48f28" y="436.568062"/>
      </g>
     </g>
     <g id="text_18">
      <!-- 24 -->
      <g transform="translate(1024.167138 453.740562)scale(0.16 -0.16)">
       <use xlink:href="#Constantia-50"/>
       <use x="48.4375" xlink:href="#Constantia-52"/>
      </g>
      <!-- Sat -->
      <g transform="translate(1021.545888 471.665062)scale(0.16 -0.16)">
       <use xlink:href="#Constantia-83"/>
       <use x="50.976562" xlink:href="#Constantia-97"/>
       <use x="98.974609" xlink:href="#Constantia-116"/>
      </g>
     </g>
    </g>
    <g id="xtick_14">
     <g id="line2d_32">
      <path clip-path="url(#p7364f3fea7)" d="M 1308.645785 436.568062 
L 1308.645785 288.932219 
" style="fill:none;stroke:#b0b0b0;stroke-linecap:square;stroke-width:0.8;"/>
     </g>
     <g id="line2d_33">
      <g>
       <use style="stroke:#000000;stroke-width:0.6;" x="1308.645785" xlink:href="#ma711e48f28" y="436.568062"/>
      </g>
     </g>
     <g id="text_19">
      <!-- 31 -->
      <g transform="translate(1302.489535 453.740562)scale(0.16 -0.16)">
       <use xlink:href="#Constantia-51"/>
       <use x="45.654297" xlink:href="#Constantia-49"/>
      </g>
      <!-- Sat -->
      <g transform="translate(1297.903285 471.665062)scale(0.16 -0.16)">
       <use xlink:href="#Constantia-83"/>
       <use x="50.976562" xlink:href="#Constantia-97"/>
       <use x="98.974609" xlink:href="#Constantia-116"/>
      </g>
     </g>
    </g>
   </g>
   <g id="matplotlib.axis_4">
    <g id="ytick_5">
     <g id="line2d_34">
      <path clip-path="url(#p7364f3fea7)" d="M 65.0375 422.111803 
L 1367.865227 422.111803 
" style="fill:none;stroke:#b0b0b0;stroke-linecap:square;stroke-width:0.8;"/>
     </g>
     <g id="line2d_35">
      <g>
       <use style="stroke:#000000;stroke-width:0.8;" x="65.0375" xlink:href="#m4a5573bcad" y="422.111803"/>
      </g>
     </g>
     <g id="text_20">
      <!-- 10000 -->
      <g transform="translate(18.56 427.998053)scale(0.16 -0.16)">
       <use xlink:href="#Constantia-49"/>
       <use x="31.298828" xlink:href="#Constantia-48"/>
       <use x="85.15625" xlink:href="#Constantia-48"/>
       <use x="139.013672" xlink:href="#Constantia-48"/>
       <use x="192.871094" xlink:href="#Constantia-48"/>
      </g>
     </g>
    </g>
    <g id="ytick_6">
     <g id="line2d_36">
      <path clip-path="url(#p7364f3fea7)" d="M 65.0375 348.694374 
L 1367.865227 348.694374 
" style="fill:none;stroke:#b0b0b0;stroke-linecap:square;stroke-width:0.8;"/>
     </g>
     <g id="line2d_37">
      <g>
       <use style="stroke:#000000;stroke-width:0.8;" x="65.0375" xlink:href="#m4a5573bcad" y="348.694374"/>
      </g>
     </g>
     <g id="text_21">
      <!-- 20000 -->
      <g transform="translate(15.8175 354.580624)scale(0.16 -0.16)">
       <use xlink:href="#Constantia-50"/>
       <use x="48.4375" xlink:href="#Constantia-48"/>
       <use x="102.294922" xlink:href="#Constantia-48"/>
       <use x="156.152344" xlink:href="#Constantia-48"/>
       <use x="210.009766" xlink:href="#Constantia-48"/>
      </g>
     </g>
    </g>
   </g>
   <g id="line2d_38">
    <path clip-path="url(#p7364f3fea7)" d="M 124.256942 429.857342 
L 163.73657 426.428748 
L 203.216198 423.146989 
L 242.695826 418.448274 
L 282.175455 415.592336 
L 321.655083 410.254889 
L 361.134711 413.92576 
L 400.614339 411.150581 
L 440.093967 406.503258 
L 479.573595 401.217203 
L 558.532851 295.642939 
L 598.012479 393.713942 
L 637.492107 391.048889 
L 676.971736 394.5509 
L 716.451364 384.301827 
L 755.930992 385.975745 
L 795.41062 384.676256 
L 834.890248 378.193497 
L 874.369876 375.71933 
L 913.849504 380.263869 
L 953.329132 378.274256 
L 992.80876 368.22341 
L 1032.288388 374.236298 
L 1071.768017 372.848708 
L 1111.247645 368.172018 
L 1150.727273 374.023387 
L 1190.206901 376.578314 
L 1229.686529 365.455573 
L 1269.166157 361.300146 
L 1308.645785 362.350016 
" style="fill:none;stroke:#9acd32;stroke-linecap:square;stroke-width:3;"/>
   </g>
   <g id="patch_6">
    <path d="M 65.0375 436.568062 
L 65.0375 288.932219 
" style="fill:none;stroke:#000000;stroke-linecap:square;stroke-linejoin:miter;stroke-width:0.8;"/>
   </g>
   <g id="patch_7">
    <path d="M 65.0375 436.568062 
L 1367.865227 436.568062 
" style="fill:none;stroke:#000000;stroke-linecap:square;stroke-linejoin:miter;stroke-width:0.8;"/>
   </g>
   <g id="text_22">
    <!-- New Cases -->
    <g transform="translate(670.290426 282.932219)scale(0.2 -0.2)">
     <defs>
      <path d="M -0.828125 45.265625 
Q 6.15625 45.125 9.515625 45.125 
Q 14.359375 45.125 20.453125 45.265625 
L 20.65625 43.265625 
L 14.890625 41.703125 
Q 18.171875 30.8125 23.140625 17.1875 
Q 24.21875 14.3125 25.140625 11.28125 
Q 26.078125 14.265625 27.15625 17.140625 
Q 31.0625 27.59375 33.0625 33.453125 
Q 35.0625 39.3125 36.921875 44.921875 
L 40.484375 45.3125 
Q 42.328125 39.40625 44.28125 33.5 
Q 46.234375 27.59375 49.90625 17.1875 
Q 51.078125 14.0625 51.859375 11.28125 
Q 52.78125 14.109375 53.953125 17.140625 
Q 59.375 30.859375 62.9375 41.75 
L 57.421875 43.3125 
L 57.234375 45.3125 
Q 61.140625 45.171875 65.53125 45.171875 
Q 69.875 45.171875 73.4375 45.3125 
L 73.6875 43.3125 
L 69.78125 42.234375 
Q 68.109375 41.75 67.328125 39.890625 
Q 62.75 28.8125 59.171875 19.890625 
Q 55.609375 10.984375 51.46875 -0.09375 
L 47.078125 -0.53125 
Q 44.09375 8.0625 42.109375 13.453125 
Q 40.140625 18.84375 37.84375 25.203125 
Q 36.859375 27.78125 36.1875 30.171875 
Q 35.40625 27.828125 34.421875 25.34375 
Q 31.9375 18.84375 29.8125 13.375 
Q 27.6875 7.90625 24.859375 -0.09375 
L 20.5625 -0.53125 
Q 16.40625 10.984375 12.984375 19.875 
Q 9.578125 28.765625 5.28125 39.9375 
Q 4.59375 41.75 2.78125 42.234375 
L -0.734375 43.265625 
z
" id="Constantia-119"/>
     </defs>
     <use xlink:href="#Constantia-78"/>
     <use x="73.402344" xlink:href="#Constantia-101"/>
     <use x="121.302734" xlink:href="#Constantia-119"/>
     <use x="194.496094" xlink:href="#Constantia-32"/>
     <use x="219.59375" xlink:href="#Constantia-67"/>
     <use x="284.730469" xlink:href="#Constantia-97"/>
     <use x="332.728516" xlink:href="#Constantia-115"/>
     <use x="373.207031" xlink:href="#Constantia-101"/>
     <use x="421.107422" xlink:href="#Constantia-115"/>
    </g>
   </g>
  </g>
  <g id="axes_3">
   <g id="patch_8">
    <path d="M 65.0375 674.138531 
L 1367.865227 674.138531 
L 1367.865227 526.502687 
L 65.0375 526.502687 
z
" style="fill:#ffffff;"/>
   </g>
   <g id="matplotlib.axis_5">
    <g id="xtick_15">
     <g id="line2d_39">
      <g>
       <use style="stroke:#000000;stroke-width:0.8;" x="124.256942" xlink:href="#mc213a04c34" y="674.138531"/>
      </g>
     </g>
     <g id="text_23">
      <!--  -->
      <g transform="translate(124.256942 692.911031)scale(0.16 -0.16)"/>
      <!-- Oct -->
      <g transform="translate(111.308192 710.835531)scale(0.16 -0.16)">
       <use xlink:href="#Constantia-79"/>
       <use x="80.419922" xlink:href="#Constantia-99"/>
       <use x="126.5625" xlink:href="#Constantia-116"/>
      </g>
      <!-- 2020 -->
      <g transform="translate(107.889442 728.760031)scale(0.16 -0.16)">
       <use xlink:href="#Constantia-50"/>
       <use x="48.4375" xlink:href="#Constantia-48"/>
       <use x="102.294922" xlink:href="#Constantia-50"/>
       <use x="150.732422" xlink:href="#Constantia-48"/>
      </g>
     </g>
    </g>
    <g id="xtick_16">
     <g id="line2d_40">
      <g>
       <use style="stroke:#000000;stroke-width:0.8;" x="1348.125413" xlink:href="#mc213a04c34" y="674.138531"/>
      </g>
     </g>
     <g id="text_24">
      <!--  -->
      <g transform="translate(1348.125413 692.911031)scale(0.16 -0.16)"/>
      <!-- Nov -->
      <g transform="translate(1334.065413 710.835531)scale(0.16 -0.16)">
       <use xlink:href="#Constantia-78"/>
       <use x="73.402344" xlink:href="#Constantia-111"/>
       <use x="127.455078" xlink:href="#Constantia-118"/>
      </g>
      <!-- 2020 -->
      <g transform="translate(1331.757913 728.760031)scale(0.16 -0.16)">
       <use xlink:href="#Constantia-50"/>
       <use x="48.4375" xlink:href="#Constantia-48"/>
       <use x="102.294922" xlink:href="#Constantia-50"/>
       <use x="150.732422" xlink:href="#Constantia-48"/>
      </g>
     </g>
    </g>
    <g id="xtick_17">
     <g id="line2d_41">
      <path clip-path="url(#p17e41f2a36)" d="M 203.216198 674.138531 
L 203.216198 526.502687 
" style="fill:none;stroke:#b0b0b0;stroke-linecap:square;stroke-width:0.8;"/>
     </g>
     <g id="line2d_42">
      <g>
       <use style="stroke:#000000;stroke-width:0.6;" x="203.216198" xlink:href="#ma711e48f28" y="674.138531"/>
      </g>
     </g>
     <g id="text_25">
      <!-- 03 -->
      <g transform="translate(195.254948 691.311031)scale(0.16 -0.16)">
       <use xlink:href="#Constantia-48"/>
       <use x="53.857422" xlink:href="#Constantia-51"/>
      </g>
      <!-- Sat -->
      <g transform="translate(192.473698 709.235531)scale(0.16 -0.16)">
       <use xlink:href="#Constantia-83"/>
       <use x="50.976562" xlink:href="#Constantia-97"/>
       <use x="98.974609" xlink:href="#Constantia-116"/>
      </g>
     </g>
    </g>
    <g id="xtick_18">
     <g id="line2d_43">
      <path clip-path="url(#p17e41f2a36)" d="M 479.573595 674.138531 
L 479.573595 526.502687 
" style="fill:none;stroke:#b0b0b0;stroke-linecap:square;stroke-width:0.8;"/>
     </g>
     <g id="line2d_44">
      <g>
       <use style="stroke:#000000;stroke-width:0.6;" x="479.573595" xlink:href="#ma711e48f28" y="674.138531"/>
      </g>
     </g>
     <g id="text_26">
      <!-- 10 -->
      <g transform="translate(472.761095 691.311031)scale(0.16 -0.16)">
       <use xlink:href="#Constantia-49"/>
       <use x="31.298828" xlink:href="#Constantia-48"/>
      </g>
      <!-- Sat -->
      <g transform="translate(468.831095 709.235531)scale(0.16 -0.16)">
       <use xlink:href="#Constantia-83"/>
       <use x="50.976562" xlink:href="#Constantia-97"/>
       <use x="98.974609" xlink:href="#Constantia-116"/>
      </g>
     </g>
    </g>
    <g id="xtick_19">
     <g id="line2d_45">
      <path clip-path="url(#p17e41f2a36)" d="M 755.930992 674.138531 
L 755.930992 526.502687 
" style="fill:none;stroke:#b0b0b0;stroke-linecap:square;stroke-width:0.8;"/>
     </g>
     <g id="line2d_46">
      <g>
       <use style="stroke:#000000;stroke-width:0.6;" x="755.930992" xlink:href="#ma711e48f28" y="674.138531"/>
      </g>
     </g>
     <g id="text_27">
      <!-- 17 -->
      <g transform="translate(749.559742 691.311031)scale(0.16 -0.16)">
       <use xlink:href="#Constantia-49"/>
       <use x="31.298828" xlink:href="#Constantia-55"/>
      </g>
      <!-- Sat -->
      <g transform="translate(745.188492 709.235531)scale(0.16 -0.16)">
       <use xlink:href="#Constantia-83"/>
       <use x="50.976562" xlink:href="#Constantia-97"/>
       <use x="98.974609" xlink:href="#Constantia-116"/>
      </g>
     </g>
    </g>
    <g id="xtick_20">
     <g id="line2d_47">
      <path clip-path="url(#p17e41f2a36)" d="M 1032.288388 674.138531 
L 1032.288388 526.502687 
" style="fill:none;stroke:#b0b0b0;stroke-linecap:square;stroke-width:0.8;"/>
     </g>
     <g id="line2d_48">
      <g>
       <use style="stroke:#000000;stroke-width:0.6;" x="1032.288388" xlink:href="#ma711e48f28" y="674.138531"/>
      </g>
     </g>
     <g id="text_28">
      <!-- 24 -->
      <g transform="translate(1024.167138 691.311031)scale(0.16 -0.16)">
       <use xlink:href="#Constantia-50"/>
       <use x="48.4375" xlink:href="#Constantia-52"/>
      </g>
      <!-- Sat -->
      <g transform="translate(1021.545888 709.235531)scale(0.16 -0.16)">
       <use xlink:href="#Constantia-83"/>
       <use x="50.976562" xlink:href="#Constantia-97"/>
       <use x="98.974609" xlink:href="#Constantia-116"/>
      </g>
     </g>
    </g>
    <g id="xtick_21">
     <g id="line2d_49">
      <path clip-path="url(#p17e41f2a36)" d="M 1308.645785 674.138531 
L 1308.645785 526.502687 
" style="fill:none;stroke:#b0b0b0;stroke-linecap:square;stroke-width:0.8;"/>
     </g>
     <g id="line2d_50">
      <g>
       <use style="stroke:#000000;stroke-width:0.6;" x="1308.645785" xlink:href="#ma711e48f28" y="674.138531"/>
      </g>
     </g>
     <g id="text_29">
      <!-- 31 -->
      <g transform="translate(1302.489535 691.311031)scale(0.16 -0.16)">
       <use xlink:href="#Constantia-51"/>
       <use x="45.654297" xlink:href="#Constantia-49"/>
      </g>
      <!-- Sat -->
      <g transform="translate(1297.903285 709.235531)scale(0.16 -0.16)">
       <use xlink:href="#Constantia-83"/>
       <use x="50.976562" xlink:href="#Constantia-97"/>
       <use x="98.974609" xlink:href="#Constantia-116"/>
      </g>
     </g>
    </g>
   </g>
   <g id="matplotlib.axis_6">
    <g id="ytick_7">
     <g id="line2d_51">
      <path clip-path="url(#p17e41f2a36)" d="M 65.0375 646.513222 
L 1367.865227 646.513222 
" style="fill:none;stroke:#b0b0b0;stroke-linecap:square;stroke-width:0.8;"/>
     </g>
     <g id="line2d_52">
      <g>
       <use style="stroke:#000000;stroke-width:0.8;" x="65.0375" xlink:href="#m4a5573bcad" y="646.513222"/>
      </g>
     </g>
     <g id="text_30">
      <!-- 5000 -->
      <g transform="translate(24.575 652.399472)scale(0.16 -0.16)">
       <use xlink:href="#Constantia-53"/>
       <use x="47.558594" xlink:href="#Constantia-48"/>
       <use x="101.416016" xlink:href="#Constantia-48"/>
       <use x="155.273438" xlink:href="#Constantia-48"/>
      </g>
     </g>
    </g>
    <g id="ytick_8">
     <g id="line2d_53">
      <path clip-path="url(#p17e41f2a36)" d="M 65.0375 589.023972 
L 1367.865227 589.023972 
" style="fill:none;stroke:#b0b0b0;stroke-linecap:square;stroke-width:0.8;"/>
     </g>
     <g id="line2d_54">
      <g>
       <use style="stroke:#000000;stroke-width:0.8;" x="65.0375" xlink:href="#m4a5573bcad" y="589.023972"/>
      </g>
     </g>
     <g id="text_31">
      <!-- 10000 -->
      <g transform="translate(18.56 594.910222)scale(0.16 -0.16)">
       <use xlink:href="#Constantia-49"/>
       <use x="31.298828" xlink:href="#Constantia-48"/>
       <use x="85.15625" xlink:href="#Constantia-48"/>
       <use x="139.013672" xlink:href="#Constantia-48"/>
       <use x="192.871094" xlink:href="#Constantia-48"/>
      </g>
     </g>
    </g>
    <g id="ytick_9">
     <g id="line2d_55">
      <path clip-path="url(#p17e41f2a36)" d="M 65.0375 531.534722 
L 1367.865227 531.534722 
" style="fill:none;stroke:#b0b0b0;stroke-linecap:square;stroke-width:0.8;"/>
     </g>
     <g id="line2d_56">
      <g>
       <use style="stroke:#000000;stroke-width:0.8;" x="65.0375" xlink:href="#m4a5573bcad" y="531.534722"/>
      </g>
     </g>
     <g id="text_32">
      <!-- 15000 -->
      <g transform="translate(19.5675 537.420972)scale(0.16 -0.16)">
       <use xlink:href="#Constantia-49"/>
       <use x="31.298828" xlink:href="#Constantia-53"/>
       <use x="78.857422" xlink:href="#Constantia-48"/>
       <use x="132.714844" xlink:href="#Constantia-48"/>
       <use x="186.572266" xlink:href="#Constantia-48"/>
      </g>
     </g>
    </g>
   </g>
   <g id="line2d_57">
    <path clip-path="url(#p17e41f2a36)" d="M 124.256942 635.18784 
L 163.73657 634.394488 
L 203.216198 640.039932 
L 242.695826 666.243533 
L 282.175455 667.427811 
L 321.655083 632.117914 
L 361.134711 626.978375 
L 400.614339 622.896638 
L 440.093967 622.45972 
L 479.573595 626.035551 
L 558.532851 611.640243 
L 598.012479 617.193704 
L 637.492107 612.9395 
L 676.971736 607.512515 
L 716.451364 606.443215 
L 755.930992 604.925498 
L 795.41062 642.178532 
L 834.890248 642.741927 
L 874.369876 592.427335 
L 913.849504 578.078018 
L 953.329132 572.605042 
L 992.80876 574.502187 
L 1032.288388 571.006841 
L 1071.768017 615.423035 
L 1111.247645 616.917756 
L 1150.727273 556.324086 
L 1190.206901 561.877548 
L 1229.686529 534.524163 
L 1269.166157 537.065187 
L 1308.645785 533.213408 
" style="fill:none;stroke:#f08080;stroke-linecap:square;stroke-width:3;"/>
   </g>
   <g id="patch_9">
    <path d="M 65.0375 674.138531 
L 65.0375 526.502687 
" style="fill:none;stroke:#000000;stroke-linecap:square;stroke-linejoin:miter;stroke-width:0.8;"/>
   </g>
   <g id="patch_10">
    <path d="M 65.0375 674.138531 
L 1367.865227 674.138531 
" style="fill:none;stroke:#000000;stroke-linecap:square;stroke-linejoin:miter;stroke-width:0.8;"/>
   </g>
   <g id="text_33">
    <!-- New Recovered -->
    <g transform="translate(649.601364 520.502687)scale(0.2 -0.2)">
     <defs>
      <path d="M 21.78125 14.984375 
Q 21.78125 12.0625 21.796875 9.71875 
Q 21.828125 7.375 21.875 5.46875 
Q 21.921875 3.953125 23.140625 3.5625 
L 28.5625 1.953125 
L 28.71875 -0.140625 
Q 22.90625 0 17.09375 0 
Q 11.1875 0 4.984375 -0.140625 
L 4.78125 1.953125 
L 10.796875 3.765625 
Q 12.015625 4.109375 12.109375 5.28125 
Q 12.15625 7.234375 12.171875 9.640625 
Q 12.203125 12.0625 12.203125 14.984375 
L 12.203125 54.59375 
Q 12.203125 57.078125 12.171875 59.078125 
Q 12.15625 61.078125 12.109375 62.703125 
Q 12.0625 63.96875 10.9375 64.359375 
L 4.890625 66.265625 
L 4.78125 68.359375 
Q 11.078125 68.171875 17.046875 68.171875 
Q 18.21875 68.171875 20.015625 68.234375 
Q 21.828125 68.3125 24.421875 68.40625 
Q 27.046875 68.5 28.796875 68.546875 
Q 30.5625 68.609375 31.59375 68.609375 
Q 42.71875 68.609375 48.28125 64.40625 
Q 53.859375 60.203125 53.859375 52.15625 
Q 53.859375 44.875 50.046875 40.359375 
Q 46.234375 35.84375 38.421875 33.40625 
Q 41.5 28.71875 44.09375 24.34375 
Q 46.6875 19.96875 48.90625 16.328125 
Q 51.125 12.703125 52.96875 9.90625 
Q 54.828125 7.125 56.453125 5.515625 
Q 57.28125 4.6875 58.109375 4.078125 
Q 58.9375 3.46875 59.84375 3.078125 
Q 60.75 2.6875 61.75 2.390625 
Q 62.75 2.09375 63.96875 1.8125 
L 64.109375 -0.34375 
Q 60.59375 -0.78125 58.203125 -0.78125 
Q 56.203125 -0.78125 54.6875 -0.6875 
Q 53.171875 -0.59375 52 -0.296875 
Q 50.828125 0 49.875 0.453125 
Q 48.921875 0.921875 48 1.65625 
Q 46 3.171875 44.0625 6.03125 
Q 42.140625 8.890625 40.0625 12.5 
Q 37.984375 16.109375 35.734375 20.1875 
Q 33.5 24.265625 31 28.171875 
Q 30.28125 29.34375 29.765625 30.03125 
Q 29.25 30.71875 28.640625 31.109375 
Q 28.03125 31.5 27.21875 31.640625 
Q 26.421875 31.78125 25.140625 31.84375 
L 21.78125 31.9375 
z
M 21.78125 35.59375 
Q 24.75 35.453125 27.296875 35.453125 
Q 35.75 35.453125 39.671875 39.03125 
Q 43.609375 42.625 43.609375 50.296875 
Q 43.609375 57.71875 39.84375 61.125 
Q 36.078125 64.546875 28.078125 64.546875 
Q 26.703125 64.546875 25.140625 64.453125 
Q 23.578125 64.359375 21.78125 64.15625 
z
" id="Constantia-82"/>
      <path d="M 2.828125 42.96875 
Q 10.984375 44.53125 18.3125 46.390625 
L 18.796875 46.046875 
L 18.796875 40.328125 
Q 27.828125 46.390625 36.53125 46.390625 
L 36.765625 46.09375 
Q 35.359375 38.8125 33.984375 31 
L 32.03125 30.671875 
Q 30.671875 34.8125 29.390625 37.328125 
Q 28.125 39.84375 25.390625 39.84375 
Q 22.75 39.84375 18.796875 37.40625 
L 18.796875 16.265625 
Q 18.796875 8.640625 18.890625 5.375 
Q 18.953125 4.046875 20.125 3.71875 
L 26.609375 1.859375 
L 26.765625 -0.140625 
Q 19.140625 0 14.359375 0 
Q 9.578125 0 3.03125 -0.140625 
L 2.828125 1.859375 
L 8.5 3.515625 
Q 9.671875 3.90625 9.71875 5.03125 
Q 9.765625 7.125 9.765625 11.03125 
L 9.765625 27.6875 
Q 9.765625 35.640625 9.578125 39.546875 
L 3.078125 41.3125 
z
" id="Constantia-114"/>
      <path d="M 37.9375 41.015625 
Q 34.671875 42.046875 30.609375 42.046875 
Q 22.21875 42.046875 17.8125 37.28125 
Q 13.421875 32.515625 13.421875 22.859375 
Q 13.421875 14.5 17.328125 9.5 
Q 21.234375 4.5 28.375 4.5 
Q 32.953125 4.5 37.9375 7.03125 
z
M 30.90625 70.125 
Q 39.59375 71.78125 46.828125 73.578125 
L 47.265625 73.1875 
Q 46.96875 62.75 46.96875 50.734375 
L 46.96875 24.171875 
Q 46.96875 17.4375 47.015625 10.84375 
Q 47.015625 8.34375 47.1875 6.828125 
Q 47.359375 5.328125 48.046875 4.515625 
Q 48.734375 3.71875 50.078125 3.421875 
Q 51.421875 3.125 53.859375 3.078125 
L 54.109375 1.171875 
Q 51.953125 0.34375 48.953125 -0.484375 
Q 45.953125 -1.3125 44.875 -1.3125 
Q 39.9375 -1.3125 38.234375 4.25 
Q 30.671875 -1.375 23.53125 -1.375 
Q 14.5 -1.375 9.109375 5.046875 
Q 3.71875 11.46875 3.71875 20.84375 
Q 3.71875 32.953125 10.890625 39.59375 
Q 18.0625 46.234375 30.953125 46.234375 
Q 34.078125 46.234375 37.9375 45.5625 
Q 37.9375 56.34375 37.75 66.546875 
L 31.15625 68.5 
z
" id="Constantia-100"/>
     </defs>
     <use xlink:href="#Constantia-78"/>
     <use x="73.402344" xlink:href="#Constantia-101"/>
     <use x="121.302734" xlink:href="#Constantia-119"/>
     <use x="194.496094" xlink:href="#Constantia-32"/>
     <use x="219.59375" xlink:href="#Constantia-82"/>
     <use x="281.228516" xlink:href="#Constantia-101"/>
     <use x="329.128906" xlink:href="#Constantia-99"/>
     <use x="375.271484" xlink:href="#Constantia-111"/>
     <use x="429.324219" xlink:href="#Constantia-118"/>
     <use x="477.615234" xlink:href="#Constantia-101"/>
     <use x="525.515625" xlink:href="#Constantia-114"/>
     <use x="563.845703" xlink:href="#Constantia-101"/>
     <use x="611.746094" xlink:href="#Constantia-100"/>
    </g>
   </g>
  </g>
  <g id="axes_4">
   <g id="patch_11">
    <path d="M 65.0375 911.709 
L 1367.865227 911.709 
L 1367.865227 764.073156 
L 65.0375 764.073156 
z
" style="fill:#ffffff;"/>
   </g>
   <g id="matplotlib.axis_7">
    <g id="xtick_22">
     <g id="line2d_58">
      <g>
       <use style="stroke:#000000;stroke-width:0.8;" x="124.256942" xlink:href="#mc213a04c34" y="911.709"/>
      </g>
     </g>
     <g id="text_34">
      <!--  -->
      <g transform="translate(124.256942 930.4815)scale(0.16 -0.16)"/>
      <!-- Oct -->
      <g transform="translate(111.308192 948.406)scale(0.16 -0.16)">
       <use xlink:href="#Constantia-79"/>
       <use x="80.419922" xlink:href="#Constantia-99"/>
       <use x="126.5625" xlink:href="#Constantia-116"/>
      </g>
      <!-- 2020 -->
      <g transform="translate(107.889442 966.3305)scale(0.16 -0.16)">
       <use xlink:href="#Constantia-50"/>
       <use x="48.4375" xlink:href="#Constantia-48"/>
       <use x="102.294922" xlink:href="#Constantia-50"/>
       <use x="150.732422" xlink:href="#Constantia-48"/>
      </g>
     </g>
    </g>
    <g id="xtick_23">
     <g id="line2d_59">
      <g>
       <use style="stroke:#000000;stroke-width:0.8;" x="1348.125413" xlink:href="#mc213a04c34" y="911.709"/>
      </g>
     </g>
     <g id="text_35">
      <!--  -->
      <g transform="translate(1348.125413 930.4815)scale(0.16 -0.16)"/>
      <!-- Nov -->
      <g transform="translate(1334.065413 948.406)scale(0.16 -0.16)">
       <use xlink:href="#Constantia-78"/>
       <use x="73.402344" xlink:href="#Constantia-111"/>
       <use x="127.455078" xlink:href="#Constantia-118"/>
      </g>
      <!-- 2020 -->
      <g transform="translate(1331.757913 966.3305)scale(0.16 -0.16)">
       <use xlink:href="#Constantia-50"/>
       <use x="48.4375" xlink:href="#Constantia-48"/>
       <use x="102.294922" xlink:href="#Constantia-50"/>
       <use x="150.732422" xlink:href="#Constantia-48"/>
      </g>
     </g>
    </g>
    <g id="xtick_24">
     <g id="line2d_60">
      <path clip-path="url(#p0c141ce6ea)" d="M 203.216198 911.709 
L 203.216198 764.073156 
" style="fill:none;stroke:#b0b0b0;stroke-linecap:square;stroke-width:0.8;"/>
     </g>
     <g id="line2d_61">
      <g>
       <use style="stroke:#000000;stroke-width:0.6;" x="203.216198" xlink:href="#ma711e48f28" y="911.709"/>
      </g>
     </g>
     <g id="text_36">
      <!-- 03 -->
      <g transform="translate(195.254948 928.8815)scale(0.16 -0.16)">
       <use xlink:href="#Constantia-48"/>
       <use x="53.857422" xlink:href="#Constantia-51"/>
      </g>
      <!-- Sat -->
      <g transform="translate(192.473698 946.806)scale(0.16 -0.16)">
       <use xlink:href="#Constantia-83"/>
       <use x="50.976562" xlink:href="#Constantia-97"/>
       <use x="98.974609" xlink:href="#Constantia-116"/>
      </g>
     </g>
    </g>
    <g id="xtick_25">
     <g id="line2d_62">
      <path clip-path="url(#p0c141ce6ea)" d="M 479.573595 911.709 
L 479.573595 764.073156 
" style="fill:none;stroke:#b0b0b0;stroke-linecap:square;stroke-width:0.8;"/>
     </g>
     <g id="line2d_63">
      <g>
       <use style="stroke:#000000;stroke-width:0.6;" x="479.573595" xlink:href="#ma711e48f28" y="911.709"/>
      </g>
     </g>
     <g id="text_37">
      <!-- 10 -->
      <g transform="translate(472.761095 928.8815)scale(0.16 -0.16)">
       <use xlink:href="#Constantia-49"/>
       <use x="31.298828" xlink:href="#Constantia-48"/>
      </g>
      <!-- Sat -->
      <g transform="translate(468.831095 946.806)scale(0.16 -0.16)">
       <use xlink:href="#Constantia-83"/>
       <use x="50.976562" xlink:href="#Constantia-97"/>
       <use x="98.974609" xlink:href="#Constantia-116"/>
      </g>
     </g>
    </g>
    <g id="xtick_26">
     <g id="line2d_64">
      <path clip-path="url(#p0c141ce6ea)" d="M 755.930992 911.709 
L 755.930992 764.073156 
" style="fill:none;stroke:#b0b0b0;stroke-linecap:square;stroke-width:0.8;"/>
     </g>
     <g id="line2d_65">
      <g>
       <use style="stroke:#000000;stroke-width:0.6;" x="755.930992" xlink:href="#ma711e48f28" y="911.709"/>
      </g>
     </g>
     <g id="text_38">
      <!-- 17 -->
      <g transform="translate(749.559742 928.8815)scale(0.16 -0.16)">
       <use xlink:href="#Constantia-49"/>
       <use x="31.298828" xlink:href="#Constantia-55"/>
      </g>
      <!-- Sat -->
      <g transform="translate(745.188492 946.806)scale(0.16 -0.16)">
       <use xlink:href="#Constantia-83"/>
       <use x="50.976562" xlink:href="#Constantia-97"/>
       <use x="98.974609" xlink:href="#Constantia-116"/>
      </g>
     </g>
    </g>
    <g id="xtick_27">
     <g id="line2d_66">
      <path clip-path="url(#p0c141ce6ea)" d="M 1032.288388 911.709 
L 1032.288388 764.073156 
" style="fill:none;stroke:#b0b0b0;stroke-linecap:square;stroke-width:0.8;"/>
     </g>
     <g id="line2d_67">
      <g>
       <use style="stroke:#000000;stroke-width:0.6;" x="1032.288388" xlink:href="#ma711e48f28" y="911.709"/>
      </g>
     </g>
     <g id="text_39">
      <!-- 24 -->
      <g transform="translate(1024.167138 928.8815)scale(0.16 -0.16)">
       <use xlink:href="#Constantia-50"/>
       <use x="48.4375" xlink:href="#Constantia-52"/>
      </g>
      <!-- Sat -->
      <g transform="translate(1021.545888 946.806)scale(0.16 -0.16)">
       <use xlink:href="#Constantia-83"/>
       <use x="50.976562" xlink:href="#Constantia-97"/>
       <use x="98.974609" xlink:href="#Constantia-116"/>
      </g>
     </g>
    </g>
    <g id="xtick_28">
     <g id="line2d_68">
      <path clip-path="url(#p0c141ce6ea)" d="M 1308.645785 911.709 
L 1308.645785 764.073156 
" style="fill:none;stroke:#b0b0b0;stroke-linecap:square;stroke-width:0.8;"/>
     </g>
     <g id="line2d_69">
      <g>
       <use style="stroke:#000000;stroke-width:0.6;" x="1308.645785" xlink:href="#ma711e48f28" y="911.709"/>
      </g>
     </g>
     <g id="text_40">
      <!-- 31 -->
      <g transform="translate(1302.489535 928.8815)scale(0.16 -0.16)">
       <use xlink:href="#Constantia-51"/>
       <use x="45.654297" xlink:href="#Constantia-49"/>
      </g>
      <!-- Sat -->
      <g transform="translate(1297.903285 946.806)scale(0.16 -0.16)">
       <use xlink:href="#Constantia-83"/>
       <use x="50.976562" xlink:href="#Constantia-97"/>
       <use x="98.974609" xlink:href="#Constantia-116"/>
      </g>
     </g>
    </g>
   </g>
   <g id="matplotlib.axis_8">
    <g id="ytick_10">
     <g id="line2d_70">
      <path clip-path="url(#p0c141ce6ea)" d="M 65.0375 908.625696 
L 1367.865227 908.625696 
" style="fill:none;stroke:#b0b0b0;stroke-linecap:square;stroke-width:0.8;"/>
     </g>
     <g id="line2d_71">
      <g>
       <use style="stroke:#000000;stroke-width:0.8;" x="65.0375" xlink:href="#m4a5573bcad" y="908.625696"/>
      </g>
     </g>
     <g id="text_41">
      <!-- 100 -->
      <g transform="translate(35.795 914.511946)scale(0.16 -0.16)">
       <use xlink:href="#Constantia-49"/>
       <use x="31.298828" xlink:href="#Constantia-48"/>
       <use x="85.15625" xlink:href="#Constantia-48"/>
      </g>
     </g>
    </g>
    <g id="ytick_11">
     <g id="line2d_72">
      <path clip-path="url(#p0c141ce6ea)" d="M 65.0375 856.805463 
L 1367.865227 856.805463 
" style="fill:none;stroke:#b0b0b0;stroke-linecap:square;stroke-width:0.8;"/>
     </g>
     <g id="line2d_73">
      <g>
       <use style="stroke:#000000;stroke-width:0.8;" x="65.0375" xlink:href="#m4a5573bcad" y="856.805463"/>
      </g>
     </g>
     <g id="text_42">
      <!-- 200 -->
      <g transform="translate(33.0525 862.691713)scale(0.16 -0.16)">
       <use xlink:href="#Constantia-50"/>
       <use x="48.4375" xlink:href="#Constantia-48"/>
       <use x="102.294922" xlink:href="#Constantia-48"/>
      </g>
     </g>
    </g>
    <g id="ytick_12">
     <g id="line2d_74">
      <path clip-path="url(#p0c141ce6ea)" d="M 65.0375 804.98523 
L 1367.865227 804.98523 
" style="fill:none;stroke:#b0b0b0;stroke-linecap:square;stroke-width:0.8;"/>
     </g>
     <g id="line2d_75">
      <g>
       <use style="stroke:#000000;stroke-width:0.8;" x="65.0375" xlink:href="#m4a5573bcad" y="804.98523"/>
      </g>
     </g>
     <g id="text_43">
      <!-- 300 -->
      <g transform="translate(33.4975 810.87148)scale(0.16 -0.16)">
       <use xlink:href="#Constantia-51"/>
       <use x="45.654297" xlink:href="#Constantia-48"/>
       <use x="99.511719" xlink:href="#Constantia-48"/>
      </g>
     </g>
    </g>
   </g>
   <g id="line2d_76">
    <path clip-path="url(#p0c141ce6ea)" d="M 124.256942 872.869735 
L 163.73657 864.060296 
L 203.216198 870.278724 
L 242.695826 904.99828 
L 282.175455 899.816257 
L 321.655083 863.023891 
L 361.134711 855.769059 
L 400.614339 861.469284 
L 440.093967 856.287261 
L 479.573595 858.36007 
L 558.532851 821.567705 
L 598.012479 834.004561 
L 637.492107 836.595572 
L 676.971736 812.240063 
L 716.451364 840.222989 
L 755.930992 815.867479 
L 795.41062 864.578498 
L 834.890248 867.687712 
L 874.369876 821.049502 
L 913.849504 796.175791 
L 953.329132 810.167253 
L 992.80876 813.79467 
L 1032.288388 807.05804 
L 1071.768017 841.777596 
L 1111.247645 846.959619 
L 1150.727273 794.621184 
L 1190.206901 781.147923 
L 1229.686529 770.783876 
L 1269.166157 776.484102 
L 1308.645785 787.366351 
" style="fill:none;stroke:#87cefa;stroke-linecap:square;stroke-width:3;"/>
   </g>
   <g id="patch_12">
    <path d="M 65.0375 911.709 
L 65.0375 764.073156 
" style="fill:none;stroke:#000000;stroke-linecap:square;stroke-linejoin:miter;stroke-width:0.8;"/>
   </g>
   <g id="patch_13">
    <path d="M 65.0375 911.709 
L 1367.865227 911.709 
" style="fill:none;stroke:#000000;stroke-linecap:square;stroke-linejoin:miter;stroke-width:0.8;"/>
   </g>
   <g id="text_44">
    <!-- New Deaths -->
    <g transform="translate(664.018551 758.073156)scale(0.2 -0.2)">
     <defs>
      <path d="M 17.09375 0 
Q 11.1875 0 4.984375 -0.140625 
L 4.78125 1.953125 
L 10.796875 3.765625 
Q 12.0625 4.15625 12.109375 5.28125 
Q 12.15625 7.234375 12.171875 9.640625 
Q 12.203125 12.0625 12.203125 14.984375 
L 12.203125 54.59375 
Q 12.203125 57.078125 12.171875 59.078125 
Q 12.15625 61.078125 12.109375 62.703125 
Q 12.0625 63.96875 10.9375 64.359375 
L 4.890625 66.265625 
L 4.78125 68.359375 
Q 11.078125 68.171875 17.046875 68.171875 
Q 21.921875 68.171875 26.453125 68.40625 
Q 31 68.65625 35.796875 68.65625 
Q 52.875 68.65625 61.46875 60.859375 
Q 70.0625 53.078125 70.0625 37.75 
Q 70.0625 19.671875 60.515625 9.6875 
Q 50.984375 -0.296875 33.734375 -0.296875 
Q 29 -0.296875 25.28125 -0.140625 
Q 21.578125 0 17.09375 0 
z
M 21.78125 4.34375 
Q 24.65625 3.953125 27.40625 3.828125 
Q 30.171875 3.71875 32.953125 3.71875 
Q 45.84375 3.71875 52.578125 11.296875 
Q 59.328125 18.890625 59.328125 34.578125 
Q 59.328125 49.8125 52.921875 57.15625 
Q 46.53125 64.5 32.671875 64.5 
Q 30.46875 64.5 27.796875 64.40625 
Q 25.140625 64.3125 21.78125 64.0625 
z
" id="Constantia-68"/>
      <path d="M 2.484375 70.125 
Q 10.453125 71.6875 18.40625 73.578125 
L 18.84375 73.1875 
Q 18.609375 68.609375 18.578125 60.109375 
Q 18.5625 51.609375 18.5625 40.921875 
Q 27.046875 46.390625 34.375 46.390625 
Q 41.15625 46.390625 45.15625 42.59375 
Q 49.171875 38.8125 49.171875 31.5 
L 49.171875 14.265625 
Q 49.171875 8.640625 49.265625 5.21875 
Q 49.3125 3.953125 50.484375 3.515625 
L 55.953125 1.859375 
L 56.0625 -0.140625 
Q 49.609375 0 44.828125 0 
Q 40.046875 0 34.1875 -0.140625 
L 33.984375 1.859375 
L 38.8125 3.265625 
Q 39.984375 3.65625 40.09375 4.78125 
Q 40.140625 5.46875 40.140625 7.859375 
L 40.140625 29.15625 
Q 40.140625 35.15625 37.25 37.765625 
Q 34.375 40.375 28.765625 40.375 
Q 23.921875 40.375 18.5625 38.03125 
L 18.5625 16.109375 
Q 18.5625 10.0625 18.65625 5.03125 
Q 18.703125 3.65625 19.875 3.328125 
L 24.953125 1.859375 
L 25.046875 -0.140625 
Q 18.890625 0 14.109375 0 
Q 9.328125 0 2.78125 -0.140625 
L 2.59375 1.859375 
L 8.109375 3.46875 
Q 9.375 3.859375 9.421875 5.03125 
Q 9.515625 9.71875 9.515625 17 
L 9.515625 37.40625 
Q 9.515625 47.359375 9.484375 55.03125 
Q 9.46875 62.703125 9.328125 66.546875 
L 2.734375 68.5 
z
" id="Constantia-104"/>
     </defs>
     <use xlink:href="#Constantia-78"/>
     <use x="73.402344" xlink:href="#Constantia-101"/>
     <use x="121.302734" xlink:href="#Constantia-119"/>
     <use x="194.496094" xlink:href="#Constantia-32"/>
     <use x="219.59375" xlink:href="#Constantia-68"/>
     <use x="294.691406" xlink:href="#Constantia-101"/>
     <use x="342.591797" xlink:href="#Constantia-97"/>
     <use x="390.589844" xlink:href="#Constantia-116"/>
     <use x="425.892578" xlink:href="#Constantia-104"/>
     <use x="483.851562" xlink:href="#Constantia-115"/>
    </g>
   </g>
  </g>
  <g id="text_45">
   <!-- Russia during October -->
   <g transform="translate(570.647656 23.387187)scale(0.22 -0.22)">
    <defs>
     <path d="M 26.703125 15.328125 
Q 26.703125 12.40625 26.734375 10.078125 
Q 26.765625 7.765625 26.8125 5.859375 
Q 26.859375 4.296875 27.9375 3.953125 
L 33.015625 2.296875 
L 33.15625 -0.140625 
Q 27.734375 0 19.734375 0 
Q 11.1875 0 4.5 -0.140625 
L 4.25 2.296875 
L 10.796875 4.109375 
Q 12.015625 4.4375 12.109375 5.609375 
Q 12.15625 7.5625 12.171875 9.984375 
Q 12.203125 12.40625 12.203125 15.328125 
L 12.203125 54.25 
Q 12.203125 56.6875 12.171875 58.6875 
Q 12.15625 60.6875 12.109375 62.359375 
Q 12.0625 63.625 10.9375 63.96875 
L 4.390625 65.875 
L 4.25 68.359375 
Q 11.078125 68.171875 18.265625 68.171875 
Q 19.78125 68.171875 22.015625 68.234375 
Q 24.265625 68.3125 27.484375 68.40625 
Q 30.421875 68.5 32.390625 68.546875 
Q 34.375 68.609375 35.5 68.609375 
Q 48.046875 68.609375 54.3125 64.40625 
Q 60.59375 60.203125 60.59375 52.15625 
Q 60.59375 44.875 56.765625 40.40625 
Q 52.9375 35.9375 45.515625 33.546875 
Q 49.609375 27.484375 51.828125 23.71875 
Q 54.046875 19.96875 56.296875 16.328125 
Q 58.546875 12.703125 60.375 9.90625 
Q 62.203125 7.125 63.8125 5.515625 
Q 64.703125 4.78125 65.5 4.25 
Q 66.3125 3.71875 67.1875 3.328125 
Q 68.0625 2.9375 69.0625 2.65625 
Q 70.0625 2.390625 71.296875 2.15625 
L 71.484375 -0.34375 
Q 66.703125 -1.03125 60.546875 -1.03125 
Q 55.671875 -1.03125 53.71875 -0.390625 
Q 51.765625 0.25 50.25 1.421875 
Q 48 3.171875 46.109375 6 
Q 44.234375 8.84375 42.140625 12.40625 
Q 40.046875 15.96875 37.8125 19.96875 
Q 35.59375 23.96875 33.15625 27.875 
Q 32.421875 29 31.953125 29.734375 
Q 31.5 30.46875 31.03125 30.828125 
Q 30.5625 31.203125 30.046875 31.375 
Q 29.546875 31.546875 28.765625 31.59375 
L 26.703125 31.640625 
z
M 26.703125 35.890625 
Q 29.296875 35.75 31.390625 35.75 
Q 38.328125 35.75 41.546875 39.234375 
Q 44.78125 42.71875 44.78125 50.140625 
Q 44.78125 57.328125 41.671875 60.625 
Q 38.578125 63.921875 32.03125 63.921875 
Q 30.90625 63.921875 29.609375 63.8125 
Q 28.328125 63.71875 26.703125 63.53125 
z
" id="Constantia-Bold-82"/>
     <path d="M 39.84375 3.90625 
Q 32.671875 -1.375 24.21875 -1.375 
Q 16.3125 -1.375 12.296875 2.53125 
Q 8.296875 6.453125 8.296875 13.53125 
L 8.296875 23.875 
Q 8.296875 34.328125 8.109375 39.265625 
L 1.125 41.0625 
L 0.828125 43.0625 
Q 12.796875 44.875 21.921875 46.828125 
L 22.46875 46.4375 
Q 22.171875 40.328125 22.171875 31.34375 
L 22.171875 16.3125 
Q 22.171875 10.5 24.4375 7.890625 
Q 26.703125 5.28125 30.859375 5.28125 
Q 35.5 5.28125 39.359375 7.28125 
L 39.359375 28.078125 
Q 39.359375 34.90625 39.15625 39.359375 
L 32.5625 41.0625 
L 32.28125 43.0625 
Q 43.84375 44.875 52.9375 46.828125 
L 53.515625 46.4375 
Q 53.171875 40.1875 53.171875 31.0625 
Q 53.171875 13.328125 53.21875 9.421875 
Q 53.265625 7.46875 53.515625 6.265625 
Q 53.765625 5.078125 54.4375 4.4375 
Q 55.125 3.8125 56.46875 3.53125 
Q 57.8125 3.265625 60.296875 3.21875 
L 60.546875 1.078125 
Q 53.515625 -1.375 48.4375 -1.375 
Q 41.890625 -1.375 39.84375 3.90625 
z
" id="Constantia-Bold-117"/>
     <path d="M 31.9375 41.109375 
Q 28.859375 41.84375 25.296875 41.84375 
Q 20.84375 41.84375 18.03125 40.28125 
Q 15.234375 38.71875 15.234375 35.84375 
Q 15.234375 33.640625 16.453125 32.4375 
Q 17.671875 31.25 20.65625 30.21875 
L 28.46875 27.484375 
Q 35.453125 25.09375 38.671875 21.703125 
Q 41.890625 18.3125 41.890625 13.765625 
Q 41.890625 6.59375 35.859375 2.609375 
Q 29.828125 -1.375 20.015625 -1.375 
Q 11.8125 -1.375 3.90625 2 
Q 5.5625 8.546875 6.640625 14.703125 
L 9.125 15.09375 
L 12.640625 4.4375 
Q 15.625 3.421875 20.125 3.421875 
Q 24.359375 3.421875 27 5.03125 
Q 29.640625 6.640625 29.640625 9.515625 
Q 29.640625 11.921875 28.046875 13.546875 
Q 26.46875 15.1875 21.734375 16.796875 
L 15.765625 18.84375 
Q 10.0625 20.84375 7.171875 24.046875 
Q 4.296875 27.25 4.296875 31.890625 
Q 4.296875 39.015625 9.90625 42.8125 
Q 15.53125 46.625 25.390625 46.625 
Q 33.5 46.625 40.046875 44.234375 
Q 38.578125 37.84375 37.546875 32.125 
L 34.859375 31.734375 
z
" id="Constantia-Bold-115"/>
     <path d="M 23.78125 62.984375 
Q 23.78125 59.625 21.609375 57.515625 
Q 19.4375 55.421875 15.921875 55.421875 
Q 12.703125 55.421875 10.625 57.390625 
Q 8.546875 59.375 8.546875 62.546875 
Q 8.546875 66.015625 10.734375 68.015625 
Q 12.9375 70.015625 16.453125 70.015625 
Q 19.671875 70.015625 21.71875 68.1875 
Q 23.78125 66.359375 23.78125 62.984375 
z
M 2.296875 43.0625 
Q 14.3125 44.875 23.390625 46.828125 
L 23.921875 46.4375 
Q 23.640625 39.703125 23.640625 32.078125 
L 23.640625 13.671875 
Q 23.640625 7.859375 23.734375 5.5625 
Q 23.828125 4.25 24.953125 3.90625 
L 31.0625 2.203125 
L 31.203125 -0.140625 
Q 23.96875 0 16.84375 0 
Q 9.578125 0 2.484375 -0.140625 
L 2.25 2.203125 
L 8.453125 3.90625 
Q 9.578125 4.203125 9.671875 5.375 
Q 9.765625 7.28125 9.765625 11.765625 
L 9.765625 27.484375 
Q 9.765625 33.890625 9.578125 39.265625 
L 2.59375 41.0625 
z
" id="Constantia-Bold-105"/>
     <path d="M 31 21.734375 
Q 23.34375 21.734375 20.0625 19.78125 
Q 16.796875 17.828125 16.796875 13.09375 
Q 16.796875 8.796875 19.109375 6.953125 
Q 21.4375 5.125 24.609375 5.125 
Q 28.21875 5.125 30.90625 6.984375 
z
M 7.125 41.890625 
Q 17.53125 46.625 27.15625 46.625 
Q 35.9375 46.625 40.296875 42.6875 
Q 44.671875 38.765625 44.625 31.390625 
L 44.390625 11.078125 
Q 44.28125 8.59375 44.46875 7.078125 
Q 44.671875 5.5625 45.375 4.75 
Q 46.09375 3.953125 47.484375 3.609375 
Q 48.875 3.265625 51.515625 3.21875 
L 51.8125 0.984375 
Q 44.96875 -1.375 40.046875 -1.375 
Q 33.40625 -1.375 31.296875 3.859375 
Q 25.09375 -1.375 18.171875 -1.375 
Q 11.375 -1.375 6.984375 2.015625 
Q 2.59375 5.421875 2.59375 11.578125 
Q 2.59375 19.234375 9.6875 22.796875 
Q 16.796875 26.375 31 26.375 
L 31.0625 30.03125 
Q 31.109375 35.25 28.546875 37.71875 
Q 25.984375 40.1875 20.5625 40.1875 
Q 15.53125 40.1875 8.5 37.984375 
z
" id="Constantia-Bold-97"/>
     <path id="Constantia-Bold-32"/>
     <path d="M 38.421875 40.578125 
Q 35.796875 41.5 32.515625 41.5 
Q 25.828125 41.5 22.3125 36.890625 
Q 18.796875 32.28125 18.796875 23 
Q 18.796875 14.9375 21.921875 10.109375 
Q 25.046875 5.28125 30.71875 5.28125 
Q 34.90625 5.28125 38.421875 7.078125 
z
M 30.71875 69.828125 
Q 42.625 71.625 52 73.578125 
L 52.59375 73.1875 
Q 52.25 62.75 52.25 50.734375 
L 52.25 24.171875 
Q 52.25 17.78125 52.296875 10.984375 
Q 52.296875 8.5 52.484375 6.984375 
Q 52.6875 5.46875 53.34375 4.65625 
Q 54 3.859375 55.359375 3.5625 
Q 56.734375 3.265625 59.375 3.21875 
L 59.671875 1.078125 
Q 52.546875 -1.375 47.515625 -1.375 
Q 40.96875 -1.375 38.921875 3.953125 
Q 32.515625 -1.375 24.75 -1.375 
Q 15.09375 -1.375 9.46875 5 
Q 3.859375 11.375 3.859375 20.953125 
Q 3.859375 33.15625 11.109375 39.8125 
Q 18.359375 46.484375 31.390625 46.484375 
Q 34.625 46.484375 38.421875 45.953125 
Q 38.421875 56.25 38.234375 65.875 
L 31.0625 67.828125 
z
" id="Constantia-Bold-100"/>
     <path d="M 2.296875 43.0625 
Q 13.578125 44.734375 22.90625 46.78125 
L 23.640625 46.390625 
L 23.640625 41.109375 
Q 32.28125 46.625 41.703125 46.625 
L 41.9375 46.296875 
Q 40.375 38.53125 38.96875 29.6875 
L 36.140625 29.203125 
Q 34.859375 34.03125 33.640625 36.609375 
Q 32.421875 39.203125 29.828125 39.203125 
Q 27.34375 39.203125 23.640625 37.546875 
L 23.640625 16.609375 
Q 23.640625 9.03125 23.734375 5.765625 
Q 23.78125 4.390625 24.953125 4.046875 
L 31.9375 2.203125 
L 32.078125 -0.140625 
Q 23.96875 0 16.609375 0 
Q 9.578125 0 2.546875 -0.140625 
L 2.296875 2.203125 
L 8.5 3.90625 
Q 9.671875 4.25 9.71875 5.375 
Q 9.765625 7.46875 9.765625 11.375 
L 9.765625 27.6875 
Q 9.765625 35.640625 9.578125 39.265625 
L 2.59375 41.0625 
z
" id="Constantia-Bold-114"/>
     <path d="M 2.296875 43.0625 
Q 13.578125 44.734375 22.90625 46.78125 
L 23.640625 46.390625 
L 23.640625 41.15625 
Q 31.890625 46.625 39.9375 46.625 
Q 47.078125 46.625 51.125 42.75 
Q 55.171875 38.875 55.171875 31.734375 
L 55.171875 14.59375 
Q 55.171875 8.5 55.28125 5.5625 
Q 55.328125 4.25 56.546875 3.90625 
L 62.453125 2.203125 
L 62.59375 -0.140625 
Q 55.609375 0 48.53125 0 
Q 41.21875 0 35.359375 -0.140625 
L 35.15625 2.203125 
L 40.046875 3.65625 
Q 41.15625 4 41.265625 5.125 
Q 41.3125 5.859375 41.3125 8.203125 
L 41.3125 28.65625 
Q 41.3125 34.671875 38.96875 37.28125 
Q 36.625 39.890625 31.984375 39.890625 
Q 27.9375 39.890625 23.640625 37.546875 
L 23.640625 16.546875 
Q 23.640625 10.453125 23.734375 5.375 
Q 23.78125 4.046875 24.859375 3.765625 
L 29.9375 2.203125 
L 30.03125 -0.140625 
Q 23.96875 0 16.84375 0 
Q 9.578125 0 2.546875 -0.140625 
L 2.296875 2.203125 
L 8.59375 3.90625 
Q 9.671875 4.203125 9.71875 5.375 
Q 9.765625 8.5 9.765625 11.375 
L 9.765625 27.4375 
Q 9.765625 33.84375 9.578125 39.265625 
L 2.59375 41.0625 
z
" id="Constantia-Bold-110"/>
     <path d="M 54.046875 42.828125 
L 42.71875 39.9375 
Q 46.34375 35.796875 46.34375 30.5625 
Q 46.34375 22.703125 40.65625 18.03125 
Q 34.96875 13.375 25.6875 13.375 
Q 19.921875 13.375 15.53125 15.046875 
Q 13.625 11.578125 13.625 9.28125 
Q 13.625 8.015625 14.921875 7.5625 
Q 16.21875 7.125 20.265625 7.125 
Q 23.1875 7.125 27.4375 7.203125 
Q 31.6875 7.28125 35.15625 7.28125 
Q 43.40625 7.28125 47.84375 4.21875 
Q 52.296875 1.171875 52.296875 -5.03125 
Q 52.296875 -14.15625 43.234375 -19.640625 
Q 34.1875 -25.140625 22.75 -25.140625 
Q 13.328125 -25.140625 7.828125 -22.328125 
Q 2.34375 -19.53125 2.34375 -15.09375 
Q 2.34375 -9.328125 9.96875 -3.171875 
Q 4.9375 -1.125 4.9375 2.875 
Q 4.9375 7.71875 12.3125 16.546875 
Q 4.890625 20.90625 4.890625 29.5 
Q 4.890625 37.109375 10.578125 41.75 
Q 16.265625 46.390625 25.921875 46.390625 
Q 28.46875 46.390625 32.8125 45.796875 
Q 37.015625 45.125 39.3125 45.125 
Q 47.3125 45.125 53.765625 45.265625 
z
M 14.203125 -3.8125 
Q 11.859375 -8.15625 11.859375 -11.859375 
Q 11.859375 -15.671875 15.40625 -17.84375 
Q 18.953125 -20.015625 25.046875 -20.015625 
Q 32.375 -20.015625 37.734375 -17.15625 
Q 43.109375 -14.3125 43.109375 -9.46875 
Q 43.109375 -6.84375 40.90625 -5.28125 
Q 38.71875 -3.71875 31.25 -3.71875 
Q 28.328125 -3.65625 24.90625 -3.796875 
Q 21.484375 -3.953125 18.5625 -3.953125 
Q 16.453125 -3.953125 14.203125 -3.8125 
z
M 18.75 30.328125 
Q 18.75 23.96875 20.359375 20.5 
Q 21.96875 17.046875 25.828125 17.046875 
Q 29.734375 17.046875 31.171875 20.28125 
Q 32.625 23.53125 32.625 29.78125 
Q 32.625 35.796875 31.0625 39.25 
Q 29.5 42.71875 25.484375 42.71875 
Q 21.578125 42.71875 20.15625 39.546875 
Q 18.75 36.375 18.75 30.328125 
z
" id="Constantia-Bold-103"/>
     <path d="M 21.234375 35.015625 
Q 21.234375 19.390625 26.5 11.109375 
Q 31.78125 2.828125 42 2.828125 
Q 52.046875 2.828125 56.859375 10.34375 
Q 61.671875 17.875 61.671875 33.984375 
Q 61.671875 49.125 56.59375 57.25 
Q 51.515625 65.375 40.875 65.375 
Q 30.5625 65.375 25.890625 57.828125 
Q 21.234375 50.296875 21.234375 35.015625 
z
M 78.078125 35.640625 
Q 78.078125 18.75 68.109375 8.46875 
Q 58.15625 -1.8125 40.375 -1.8125 
Q 23.390625 -1.8125 14.109375 7.6875 
Q 4.828125 17.1875 4.828125 33.40625 
Q 4.828125 50.296875 14.84375 60.125 
Q 24.859375 69.96875 42.53125 69.96875 
Q 59.515625 69.96875 68.796875 60.765625 
Q 78.078125 51.5625 78.078125 35.640625 
z
" id="Constantia-Bold-79"/>
     <path d="M 45.015625 3.21875 
Q 36.921875 -1.375 28.265625 -1.375 
Q 17.578125 -1.375 10.6875 4.828125 
Q 3.8125 11.03125 3.8125 21.390625 
Q 3.8125 32.671875 11.296875 39.640625 
Q 18.796875 46.625 30.421875 46.625 
Q 37.796875 46.625 44.625 43.84375 
Q 42.875 36.96875 41.546875 29.390625 
L 38.875 28.953125 
L 35.109375 41.15625 
Q 33.796875 41.65625 31.546875 41.65625 
Q 25.984375 41.65625 22.40625 36.796875 
Q 18.84375 31.9375 18.84375 23.78125 
Q 18.84375 14.265625 23.359375 9.734375 
Q 27.875 5.21875 36.234375 5.21875 
Q 40.234375 5.21875 44.625 6.15625 
z
" id="Constantia-Bold-99"/>
     <path d="M 22.125 39.546875 
Q 21.828125 24.3125 21.828125 13.71875 
Q 21.828125 8.796875 23.34375 6.90625 
Q 24.859375 5.03125 29.15625 5.03125 
Q 32.46875 5.03125 36.375 5.421875 
L 36.765625 2.484375 
Q 29 -1.3125 22.265625 -1.3125 
Q 15.4375 -1.3125 11.6875 1.53125 
Q 7.953125 4.390625 7.953125 10.15625 
Q 7.953125 20.3125 8.25 39.796875 
L 1.65625 41.5 
L 1.21875 44.140625 
L 9.375 44.875 
L 14.015625 56.34375 
Q 18.171875 57.078125 21.578125 57.765625 
L 22.265625 57.421875 
Q 22.125 51.515625 22.125 44.875 
L 35.796875 44.875 
L 35.796875 39.546875 
z
" id="Constantia-Bold-116"/>
     <path d="M 19.046875 23.1875 
Q 19.046875 14.3125 21.703125 8.765625 
Q 24.359375 3.21875 30.21875 3.21875 
Q 35.6875 3.21875 38.25 8.09375 
Q 40.828125 12.984375 40.828125 22.609375 
Q 40.828125 31.640625 38.109375 36.84375 
Q 35.40625 42.046875 29.640625 42.046875 
Q 24.265625 42.046875 21.65625 37.359375 
Q 19.046875 32.671875 19.046875 23.1875 
z
M 55.953125 23.578125 
Q 55.953125 12.453125 48.53125 5.53125 
Q 41.109375 -1.375 29.203125 -1.375 
Q 17.625 -1.375 10.734375 5.140625 
Q 3.859375 11.671875 3.859375 22.21875 
Q 3.859375 32.90625 11.078125 39.765625 
Q 18.3125 46.625 30.609375 46.625 
Q 42.28125 46.625 49.109375 40.296875 
Q 55.953125 33.984375 55.953125 23.578125 
z
" id="Constantia-Bold-111"/>
     <path d="M 22.40625 4.390625 
Q 25.640625 3.515625 28.859375 3.515625 
Q 35.5 3.515625 38.796875 8.421875 
Q 42.09375 13.328125 42.09375 22.40625 
Q 42.09375 30.71875 39.015625 35.34375 
Q 35.9375 39.984375 29.9375 39.984375 
Q 26.125 39.984375 22.40625 38.375 
z
M 22.703125 73.1875 
Q 22.40625 65.921875 22.40625 51.375 
L 22.40625 42.046875 
Q 29.890625 46.625 36.96875 46.625 
Q 46.234375 46.625 51.625 40.453125 
Q 57.03125 34.28125 57.03125 24.3125 
Q 57.03125 12.15625 49.34375 5.421875 
Q 41.65625 -1.3125 28.03125 -1.3125 
Q 19.484375 -1.3125 8.453125 1.859375 
Q 8.546875 7.671875 8.546875 17.4375 
L 8.546875 46.390625 
Q 8.546875 57.171875 8.34375 65.875 
L 1.171875 67.828125 
L 0.875 69.828125 
Q 13.03125 71.625 22.171875 73.578125 
z
" id="Constantia-Bold-98"/>
     <path d="M 49.90625 3.21875 
Q 40.875 -1.375 30.859375 -1.375 
Q 18.953125 -1.375 11.40625 4.515625 
Q 3.859375 10.40625 3.859375 21.875 
Q 3.859375 32.8125 11.109375 39.71875 
Q 18.359375 46.625 29.59375 46.625 
Q 39.40625 46.625 44.75 41.328125 
Q 50.09375 36.03125 50.09375 26.703125 
Q 50.09375 25.296875 49.953125 23.78125 
L 18.75 23.78125 
Q 18.75 13.96875 23.5625 9.671875 
Q 28.375 5.375 39.359375 5.375 
Q 44.671875 5.375 49.515625 6.296875 
z
M 35.25 28.515625 
L 35.25 29.6875 
Q 35.25 36.328125 33.5625 39.203125 
Q 31.890625 42.09375 28.421875 42.09375 
Q 24.265625 42.09375 21.796875 38.109375 
Q 19.34375 34.125 18.953125 28.515625 
z
" id="Constantia-Bold-101"/>
    </defs>
    <use xlink:href="#Constantia-Bold-82"/>
    <use x="69.007812" xlink:href="#Constantia-Bold-117"/>
    <use x="131.703125" xlink:href="#Constantia-Bold-115"/>
    <use x="177.357422" xlink:href="#Constantia-Bold-115"/>
    <use x="223.011719" xlink:href="#Constantia-Bold-105"/>
    <use x="256.166016" xlink:href="#Constantia-Bold-97"/>
    <use x="309.730469" xlink:href="#Constantia-Bold-32"/>
    <use x="331.28125" xlink:href="#Constantia-Bold-100"/>
    <use x="393.292969" xlink:href="#Constantia-Bold-117"/>
    <use x="455.988281" xlink:href="#Constantia-Bold-114"/>
    <use x="499.396484" xlink:href="#Constantia-Bold-105"/>
    <use x="532.550781" xlink:href="#Constantia-Bold-110"/>
    <use x="596.515625" xlink:href="#Constantia-Bold-103"/>
    <use x="651.056641" xlink:href="#Constantia-Bold-32"/>
    <use x="674.982422" xlink:href="#Constantia-Bold-79"/>
    <use x="757.84375" xlink:href="#Constantia-Bold-99"/>
    <use x="806.28125" xlink:href="#Constantia-Bold-116"/>
    <use x="845.246094" xlink:href="#Constantia-Bold-111"/>
    <use x="905.109375" xlink:href="#Constantia-Bold-98"/>
    <use x="965.998047" xlink:href="#Constantia-Bold-101"/>
    <use x="1019.757812" xlink:href="#Constantia-Bold-114"/>
   </g>
  </g>
 </g>
 <defs>
  <clipPath id="pc2ba8d1a99">
   <rect height="147.635844" width="1302.827727" x="65.0375" y="51.36175"/>
  </clipPath>
  <clipPath id="p7364f3fea7">
   <rect height="147.635844" width="1302.827727" x="65.0375" y="288.932219"/>
  </clipPath>
  <clipPath id="p17e41f2a36">
   <rect height="147.635844" width="1302.827727" x="65.0375" y="526.502687"/>
  </clipPath>
  <clipPath id="p0c141ce6ea">
   <rect height="147.635844" width="1302.827727" x="65.0375" y="764.073156"/>
  </clipPath>
 </defs>
</svg>
